<svg version="1.1" id="Layer_1" xmlns="http://www.w3.org/2000/svg" xmlns:xlink="http://www.w3.org/1999/xlink" x="0px" y="0px" viewBox="0 0 500 500" style="width: 188px;" xml:space="preserve" data-imageid="artificial-intelligence-34" imageName="Artificial Intelligence" class="illustrations_image">
<style type="text/css">
	.st0_artificial-intelligence-34{fill:#093F68;}
	.st1_artificial-intelligence-34{fill:#FFFFFF;}
	.st2_artificial-intelligence-34{fill:#68E1FD;}
	.st3_artificial-intelligence-34{fill:#F56132;}
	.st4_artificial-intelligence-34{fill:#FFBC0E;}
</style>
<g id="AI_artificial-intelligence-34">
	<path class="st0_artificial-intelligence-34" d="M390.3,299.1h-31.1v39.3c0,20.2-16.4,36.5-36.5,36.5c0,0,0,0,0,0h-31.9c-9.5,0-17.1,7.7-17.1,17.1v11.8H160.2&#10;&#9;&#9;c0,0,1.8-60.1-1.1-78c-2-12.5-8.3-23.4-15-35.9c-12-22.7-25.1-50.6-15.6-102.6c10.8-59.3,55.1-83.9,100.1-88.5&#10;&#9;&#9;c27.3-2.8,54.9,1.8,75.5,10.4c8.3,3.4,16.2,7.8,23.5,13.1c48.6,35.2,43.5,93.9,43.5,93.9l26,73.1c1.4,3.8-0.6,8-4.4,9.3&#10;&#9;&#9;C391.9,298.9,391.1,299.1,390.3,299.1z"/>
	<path class="st0_artificial-intelligence-34" d="M273.6,405.6H160.2c-1,0-1.8-0.8-1.9-1.8c0,0,0,0,0-0.1c0-0.6,1.8-60.1-1.1-77.6c-1.8-11-6.9-20.7-12.9-31.9&#10;&#9;&#9;l-1.8-3.5c-13.1-24.6-25-53-15.8-103.8c9.4-51.5,46.5-84.3,101.7-90c26.2-2.7,54,1.2,76.4,10.5c8.4,3.5,16.5,8,23.9,13.3&#10;&#9;&#9;c46.8,33.9,44.6,89.8,44.3,95.2l25.9,72.8c1.7,4.8-0.8,10-5.6,11.7c-1,0.3-2,0.5-3.1,0.5H361v37.4c0,21.2-17.2,38.4-38.4,38.4&#10;&#9;&#9;h-31.9c-8.4,0-15.2,6.8-15.3,15.2v11.8C275.4,404.8,274.6,405.6,273.6,405.6C273.6,405.6,273.6,405.6,273.6,405.6z M162.1,401.9&#10;&#9;&#9;h109.7V392c0-10.5,8.5-19,19-19l0,0h31.9c19.2,0,34.7-15.5,34.7-34.7v-39.2c0-1,0.8-1.8,1.8-1.8h31.1c3,0,5.5-2.4,5.5-5.5&#10;&#9;&#9;c0-0.6-0.1-1.2-0.3-1.8l-26-73.1c-0.1-0.2-0.1-0.5-0.1-0.8c0-0.6,4.4-58.1-42.8-92.2c-7.2-5.2-15-9.5-23.1-12.9&#10;&#9;&#9;c-21.8-9.1-49-12.9-74.6-10.3c-31.4,3.2-86,18.8-98.4,87c-9.1,49.7,2.1,76.3,15.4,101.4l1.8,3.5c5.9,11,11.4,21.4,13.3,33&#10;&#9;&#9;C163.5,341.8,162.4,391.4,162.1,401.9z"/>
	<path class="st1_artificial-intelligence-34" d="M327.6,122.3v167.6H144.1c-12-22.7-25.1-50.6-15.6-102.6c10.8-59.3,55.1-83.9,100.1-88.5&#10;&#9;&#9;c27.3-2.8,54.9,1.8,75.5,10.4C312.4,112.7,320.3,117.1,327.6,122.3z"/>
	<path class="st0_artificial-intelligence-34" d="M327.6,291.7H144.1c-0.7,0-1.3-0.4-1.6-1c-6.1-11.5-12.4-24.2-16-40.8c-4.1-18.8-4-39.4,0.3-63&#10;&#9;&#9;c9.4-51.5,46.5-84.3,101.7-90c26.2-2.7,54,1.2,76.4,10.5c8.4,3.5,16.5,8,23.9,13.3c0.5,0.3,0.8,0.9,0.8,1.5v167.6&#10;&#9;&#9;C329.5,290.9,328.7,291.7,327.6,291.7C327.6,291.7,327.6,291.7,327.6,291.7z M145.2,288h180.6V123.3c-7-4.9-14.5-9-22.4-12.3&#10;&#9;&#9;c-21.8-9.1-49-12.9-74.6-10.3c-31.4,3.2-86,18.8-98.4,87C121.4,236.7,132.2,263.2,145.2,288z"/>
	<path class="st2_artificial-intelligence-34 targetColor" d="M390.3,299.1h-31.1v39.2c0,20.2-16.4,36.5-36.6,36.5h-36.9c-16.6,0-30.1-13.5-30.1-30.1c0,0,0,0,0,0v-93.9h-27&#10;&#9;&#9;V98.8c27.3-2.8,54.9,1.8,75.5,10.4c73.7,30.8,67,107,67,107l26,73.1c1.3,3.8-0.7,8-4.5,9.3C391.9,298.9,391.1,299.1,390.3,299.1z" style="fill: rgb(104, 225, 253);"/>
	<path class="st0_artificial-intelligence-34" d="M322.6,376.7h-36.9c-17.7,0-32-14.3-32-32v-92h-25.1c-1,0-1.9-0.8-1.9-1.8v0v-152c0-0.9,0.7-1.7,1.7-1.8&#10;&#9;&#9;c26.2-2.7,54,1.2,76.4,10.5C376,137.3,373.4,209.8,373,216l25.9,72.8c1.7,4.8-0.8,10-5.6,11.7c-1,0.3-2,0.5-3.1,0.5H361v37.4&#10;&#9;&#9;C360.9,359.5,343.8,376.7,322.6,376.7z M230.4,249.1h25.1c1,0,1.9,0.8,1.9,1.8v0v93.8c0,15.6,12.7,28.2,28.3,28.2h36.9&#10;&#9;&#9;c19.2,0,34.7-15.5,34.7-34.7v-39.2c0-1,0.8-1.8,1.8-1.8h31.1c3,0,5.5-2.4,5.5-5.5c0-0.6-0.1-1.2-0.3-1.8l-26-73.1&#10;&#9;&#9;c-0.1-0.2-0.1-0.5-0.1-0.8c0.1-0.8,5.6-75.2-65.9-105.1c-21.3-8.9-47.8-12.7-73-10.4L230.4,249.1z"/>
	<circle class="st0_artificial-intelligence-34" cx="303.4" cy="207" r="10.4"/>
	<path class="st0_artificial-intelligence-34" d="M303.4,219.3c-6.8,0-12.3-5.5-12.3-12.3c0-6.8,5.5-12.3,12.3-12.3c6.8,0,12.3,5.5,12.3,12.2&#10;&#9;&#9;C315.7,213.8,310.2,219.3,303.4,219.3C303.4,219.3,303.4,219.3,303.4,219.3z M303.4,198.4c-4.7,0-8.6,3.8-8.6,8.6&#10;&#9;&#9;c0,4.7,3.8,8.6,8.6,8.6c4.7,0,8.6-3.8,8.6-8.6c0,0,0,0,0-0.1C312,202.3,308.2,198.5,303.4,198.4z"/>
	
		<ellipse transform="matrix(0.1602 -0.9871 0.9871 0.1602 -64.799 462.2579)" class="st3_artificial-intelligence-34" cx="239.3" cy="269.2" rx="35.6" ry="35.6"/>
	<path class="st0_artificial-intelligence-34" d="M239.3,306.7c-20.7,0-37.5-16.8-37.5-37.5c0-20.7,16.8-37.5,37.5-37.5c20.7,0,37.5,16.8,37.5,37.5&#10;&#9;&#9;C276.7,289.9,260,306.7,239.3,306.7z M239.3,235.4c-18.7,0-33.8,15.1-33.8,33.8c0,18.7,15.1,33.8,33.8,33.8s33.8-15.1,33.8-33.8&#10;&#9;&#9;C273,250.6,257.9,235.4,239.3,235.4L239.3,235.4z"/>
	<circle class="st4_artificial-intelligence-34" cx="239.3" cy="269.2" r="16.3"/>
	<path class="st0_artificial-intelligence-34" d="M239.3,287.4c-10,0-18.2-8.1-18.2-18.2c0-10,8.1-18.2,18.2-18.2c10,0,18.2,8.1,18.2,18.2&#10;&#9;&#9;C257.4,279.2,249.3,287.4,239.3,287.4z M239.3,254.7c-8,0-14.5,6.5-14.5,14.5c0,8,6.5,14.5,14.5,14.5c8,0,14.5-6.5,14.5-14.5&#10;&#9;&#9;C253.7,261.2,247.3,254.7,239.3,254.7L239.3,254.7z"/>
	<path class="st0_artificial-intelligence-34" d="M154.2,229.5c-1,0-1.8-0.8-1.8-1.9c0-0.5,0.2-0.9,0.5-1.3l19.9-21.3v-88.7c-0.1-1,0.7-1.9,1.7-2&#10;&#9;&#9;c1-0.1,1.9,0.7,2,1.7c0,0.1,0,0.2,0,0.3v89.4c0,0.5-0.2,0.9-0.5,1.3l-20.4,21.9C155.2,229.3,154.7,229.5,154.2,229.5z"/>
	<path class="st0_artificial-intelligence-34" d="M150.1,239.9c-4.3,0-7.8-3.5-7.8-7.8c0-4.3,3.5-7.8,7.8-7.8c4.3,0,7.8,3.5,7.8,7.8&#10;&#9;&#9;C157.8,236.4,154.4,239.9,150.1,239.9z M150.1,228c-2.3,0-4.1,1.8-4.1,4.1s1.8,4.1,4.1,4.1c2.3,0,4.1-1.8,4.1-4.1&#10;&#9;&#9;C154.2,229.8,152.3,228,150.1,228C150.1,228,150.1,228,150.1,228L150.1,228z"/>
	<path class="st0_artificial-intelligence-34" d="M182.2,254.7c-4.3,0-7.8-3.5-7.7-7.8s3.5-7.8,7.8-7.7c4.3,0,7.8,3.5,7.7,7.8&#10;&#9;&#9;C190,251.3,186.5,254.8,182.2,254.7C182.2,254.7,182.2,254.7,182.2,254.7z M182.2,242.9c-2.3,0-4.1,1.8-4.1,4.1s1.8,4.1,4.1,4.1&#10;&#9;&#9;c2.3,0,4.1-1.8,4.1-4.1C186.3,244.7,184.4,242.9,182.2,242.9L182.2,242.9z"/>
	<path class="st0_artificial-intelligence-34" d="M150.1,269.2c-4.3,0-7.8-3.5-7.8-7.8c0-4.3,3.5-7.8,7.8-7.8c4.3,0,7.8,3.5,7.8,7.8l0,0&#10;&#9;&#9;C157.8,265.7,154.4,269.2,150.1,269.2z M150.1,257.4c-2.3,0-4.1,1.8-4.1,4.1c0,2.3,1.8,4.1,4.1,4.1c2.3,0,4.1-1.8,4.1-4.1l0,0&#10;&#9;&#9;C154.2,259.2,152.3,257.4,150.1,257.4z"/>
	<path class="st0_artificial-intelligence-34" d="M156,198.8c-4.3,0-7.8-3.5-7.8-7.8c0-4.3,3.5-7.8,7.8-7.8c4.3,0,7.8,3.5,7.8,7.8&#10;&#9;&#9;C163.8,195.3,160.3,198.8,156,198.8z M156,187c-2.3,0-4.1,1.8-4.1,4.1s1.8,4.1,4.1,4.1c2.3,0,4.1-1.8,4.1-4.1S158.3,187,156,187&#10;&#9;&#9;L156,187z"/>
	<path class="st0_artificial-intelligence-34" d="M188.1,225.4c-4.3,0-7.8-3.5-7.8-7.8c0-4.3,3.5-7.8,7.8-7.8c4.3,0,7.8,3.5,7.8,7.8&#10;&#9;&#9;C195.9,221.9,192.4,225.4,188.1,225.4z M188.1,213.5c-2.3,0-4.1,1.8-4.1,4.1s1.8,4.1,4.1,4.1c2.3,0,4.1-1.8,4.1-4.1&#10;&#9;&#9;S190.4,213.5,188.1,213.5L188.1,213.5z"/>
	<path class="st0_artificial-intelligence-34" d="M215.5,195.1c-4.3,0-7.8-3.5-7.8-7.8c0-4.3,3.5-7.8,7.8-7.8c4.3,0,7.8,3.5,7.8,7.8&#10;&#9;&#9;C223.3,191.6,219.8,195.1,215.5,195.1z M215.5,183.2c-2.3,0-4.1,1.8-4.1,4.1s1.8,4.1,4.1,4.1c2.3,0,4.1-1.8,4.1-4.1&#10;&#9;&#9;S217.8,183.2,215.5,183.2L215.5,183.2z"/>
	<path class="st0_artificial-intelligence-34" d="M188.1,213.5c-1,0-1.8-0.8-1.8-1.8V109.2c-0.1-1,0.7-1.9,1.7-2c1-0.1,1.9,0.7,2,1.7c0,0.1,0,0.2,0,0.3v102.4&#10;&#9;&#9;C190,212.7,189.1,213.5,188.1,213.5z"/>
	<path class="st0_artificial-intelligence-34" d="M211.6,184.7c-0.4,0-0.8-0.2-1.2-0.4l-13-10.9c-0.4-0.3-0.7-0.9-0.7-1.4v-66.8c-0.1-1,0.7-1.9,1.7-2&#10;&#9;&#9;c1-0.1,1.9,0.7,2,1.7c0,0.1,0,0.2,0,0.3v66l12.3,10.3c0.8,0.7,0.9,1.8,0.2,2.6C212.6,184.5,212.1,184.7,211.6,184.7z"/>
	<path class="st0_artificial-intelligence-34" d="M182.2,291.7c-1,0-1.9-0.8-1.9-1.9l0,0v-37c-0.1-1,0.7-1.9,1.7-2s1.9,0.7,2,1.7c0,0.1,0,0.2,0,0.3v37&#10;&#9;&#9;C184,290.9,183.2,291.7,182.2,291.7z"/>
	<path class="st0_artificial-intelligence-34" d="M164.4,290c-1,0-1.8-0.8-1.8-1.9v-17.9l-7.5-4.5c-0.9-0.6-1.1-1.7-0.5-2.6c0.5-0.8,1.6-1.1,2.4-0.6l8.4,5&#10;&#9;&#9;c0.6,0.3,0.9,0.9,0.9,1.6v19C166.2,289.2,165.4,290,164.4,290z"/>
	<path class="st0_artificial-intelligence-34" d="M156,187c-1,0-1.8-0.8-1.8-1.8v-53.8c-0.1-1,0.7-1.9,1.7-2s1.9,0.7,2,1.7c0,0.1,0,0.2,0,0.3v53.8&#10;&#9;&#9;C157.9,186.2,157,187,156,187C156,187,156,187,156,187z"/>
	<path class="st0_artificial-intelligence-34" d="M375.9,405.6H104.1c-1-0.1-1.8-1-1.7-2c0.1-0.9,0.8-1.6,1.7-1.7h271.7c1-0.1,1.9,0.7,2,1.7&#10;&#9;&#9;c0.1,1-0.7,1.9-1.7,2C376,405.6,375.9,405.6,375.9,405.6z"/>
	<path class="st0_artificial-intelligence-34" d="M343.5,332.4c-9.8,0-21.8-1.9-29.1-9.8c-0.7-0.8-0.5-2,0.2-2.6c0.7-0.6,1.8-0.6,2.5,0.1&#10;&#9;&#9;c12.3,13.2,41.4,7.1,41.7,7.1c1-0.1,1.9,0.6,2.1,1.6c0.1,0.9-0.4,1.8-1.3,2C354.3,331.9,348.9,332.4,343.5,332.4z"/>
</g>
</svg>