<svg id="_0277_alien" data-name="0277_alien" xmlns="http://www.w3.org/2000/svg" xmlns:xlink="http://www.w3.org/1999/xlink" viewBox="0 0 500 500" data-imageid="alien-66" imageName="Alien" class="illustrations_image" style="width: 188px;">
  <defs>
    <style>
      .cls-1_alien-66 {
        fill: url(#linear-gradient);
      }

      .cls-1_alien-66, .cls-2_alien-66, .cls-3_alien-66, .cls-4_alien-66, .cls-5_alien-66, .cls-6_alien-66, .cls-7_alien-66, .cls-8_alien-66, .cls-9_alien-66, .cls-10_alien-66, .cls-11_alien-66, .cls-12_alien-66, .cls-13_alien-66, .cls-14_alien-66, .cls-15_alien-66, .cls-16_alien-66 {
        stroke-width: 0px;
      }

      .cls-2_alien-66 {
        fill: url(#linear-gradient-6-alien-66);
      }

      .cls-3_alien-66 {
        fill: url(#linear-gradient-11-alien-66);
      }

      .cls-4_alien-66 {
        fill: url(#linear-gradient-5-alien-66);
      }

      .cls-5_alien-66 {
        fill: none;
      }

      .cls-6_alien-66 {
        opacity: .24;
      }

      .cls-6_alien-66, .cls-10_alien-66, .cls-12_alien-66 {
        isolation: isolate;
      }

      .cls-6_alien-66, .cls-12_alien-66, .cls-16_alien-66 {
        fill: #68e1fd;
      }

      .cls-7_alien-66 {
        fill: url(#linear-gradient-2-alien-66);
      }

      .cls-8_alien-66 {
        fill: url(#linear-gradient-7-alien-66);
      }

      .cls-9_alien-66 {
        fill: url(#linear-gradient-3-alien-66);
      }

      .cls-10_alien-66 {
        fill: #fff;
        opacity: .45;
      }

      .cls-11_alien-66 {
        fill: url(#linear-gradient-9-alien-66);
      }

      .cls-12_alien-66 {
        opacity: .36;
      }

      .cls-13_alien-66 {
        fill: url(#linear-gradient-8-alien-66);
      }

      .cls-14_alien-66 {
        fill: url(#linear-gradient-10-alien-66);
      }

      .cls-15_alien-66 {
        fill: url(#linear-gradient-4-alien-66);
      }
    </style>
    <linearGradient id="linear-gradient-alien-66" x1="322.57" y1="1842.75" x2="244.55" y2="1825.67" gradientTransform="translate(-45.83 1981) scale(1 -1)" gradientUnits="userSpaceOnUse">
      <stop offset="0" stop-color="#010101" stop-opacity="0"/>
      <stop offset=".95" stop-color="#010101"/>
    </linearGradient>
    <linearGradient id="linear-gradient-2-alien-66" x1="301.2" y1="1857.14" x2="293.64" y2="1849.73" gradientTransform="translate(-1009.44 1519.33) rotate(33.14) scale(1 -1)" xlink:href="#linear-gradient-alien-66"/>
    <linearGradient id="linear-gradient-3-alien-66" x1="319.58" y1="1857.04" x2="316.57" y2="1849.48" gradientTransform="translate(-1451.2 877.24) rotate(56.86) scale(1 -1)" xlink:href="#linear-gradient-alien-66"/>
    <linearGradient id="linear-gradient-4-alien-66" x1="299.3" y1="1808.22" x2="305.12" y2="1894.37" xlink:href="#linear-gradient-alien-66"/>
    <linearGradient id="linear-gradient-5-alien-66" x1="304" y1="1833.18" x2="311.59" y2="1833.18" xlink:href="#linear-gradient-alien-66"/>
    <linearGradient id="linear-gradient-6-alien-66" x1="268.67" y1="1770.41" x2="331.79" y2="1770.41" xlink:href="#linear-gradient-alien-66"/>
    <linearGradient id="linear-gradient-7-alien-66" x1="303.9" y1="1728.79" x2="298.85" y2="1548.94" xlink:href="#linear-gradient-alien-66"/>
    <linearGradient id="linear-gradient-8-alien-66" x1="261.35" y1="1777" x2="348.15" y2="1742.41" xlink:href="#linear-gradient-alien-66"/>
    <linearGradient id="linear-gradient-9-alien-66" x1="338.73" y1="1768.39" x2="285.5" y2="1759.75" xlink:href="#linear-gradient-alien-66"/>
    <linearGradient id="linear-gradient-10-alien-66" x1="252.33" y1="1616.62" x2="349.33" y2="1616.62" xlink:href="#linear-gradient-alien-66"/>
    <linearGradient id="linear-gradient-11-alien-66" x1="329.02" y1="1630.02" x2="263.91" y2="1572.21" gradientTransform="translate(-45.83 1981) scale(1 -1)" gradientUnits="userSpaceOnUse">
      <stop offset="0" stop-color="#fff" stop-opacity="0"/>
      <stop offset=".95" stop-color="#fff"/>
    </linearGradient>
  </defs>
  <g id="background_alien-66">
    <path class="cls-6_alien-66 targetColor" d="m139.28,85.59c-41.42,34.57-70.23,81.46-104.51,123.1-11.62,14.13-24.5,28.96-26.43,47.15-1.67,15.81,5.34,31.14,12.67,45.24,16.17,31.07,34.82,60.79,55.78,88.87,5,6.71,10.19,13.37,16.62,18.71,14.65,12.17,34.37,16.34,53.38,17.6,48.17,3.19,95.96-9.66,144.22-11.17,25.57-.82,51.34,1.58,76.68-1.74,25.34-3.32,51.25-13.49,66.49-34.06,16.94-22.84,17.56-53.38,22.14-81.41,7-43,24.78-85.29,19.49-128.44-1.47-11.97-4.82-23.93-11.91-33.6-10.41-14.22-27.38-21.79-43.59-28.7-48.16-20.54-98.59-48.51-149.71-60.5-46.58-10.92-95.77,9.28-131.33,38.95Z" style="fill: rgb(104, 225, 253);"/>
  </g>
  <g id="alien_alien-66">
    <circle class="cls-12_alien-66 targetColor" cx="250.34" cy="131.6" r="48.7" style="fill: rgb(104, 225, 253);"/>
    <path class="cls-16_alien-66 targetColor" d="m242.96,113.84c-2.6,2.66-4.56,5.88-5.73,9.41-1.03,3.56-.75,7.63,1.39,10.65.73,1.02,1.63,1.84,2.45,2.83,1.19,1.43,2.29,2.94,3.3,4.51l3.92,5.9c1.35,1.86,2.46,3.87,3.33,5.99.87,2.15.94,4.53.19,6.73-.57,1.32-1.4,2.52-2.44,3.52-2,2.04-4.39,3.64-7.04,4.7-1.99.8-4.11,1.29-6.01,2.28-2.31,1.22-4.18,3.13-5.35,5.46-.12.19-.17.42-.16.64.07.46.64.64,1.1.71,11.99,1.95,24.23,1.7,36.13-.74-.48-2.55-.98-5.16-2.35-7.36-.71-1.15-1.63-2.15-2.29-3.32-1.28-2.47-1.6-5.33-.92-8.03.69-2.67,1.83-5.21,3.38-7.49,1.85-2.92,3.99-5.64,6.37-8.15,1.59-1.45,2.95-3.12,4.04-4.97,1.55-3.08,1.21-6.75.82-10.18-.06-1.03-.28-2.04-.65-3-.59-1.11-1.38-2.1-2.34-2.91-4.11-3.93-8.25-7.82-12.43-11.67-3.42-3.16-6.44-3.03-10.7-1.45-3.13,1.13-5.83,3.55-8.01,5.95Z" style="fill: rgb(104, 225, 253);"/>
    <path class="cls-1_alien-66" d="m276.22,137.1c-1.1,1.85-2.46,3.53-4.04,4.98-2.15,2.24-4.08,4.67-5.79,7.26l-.58.87c-1.55,2.29-2.69,4.83-3.38,7.51-.06.3-.12.61-.17.92,0,.03,0,.06,0,.08-.4,2.39,0,4.85,1.14,7,.66,1.18,1.57,2.18,2.29,3.33,1.22,2.29,2.01,4.79,2.34,7.36-11.9,2.43-24.14,2.68-36.13.73-.46-.06-1.02-.24-1.1-.7-.02-.23.03-.45.16-.64,1.16-2.33,3.04-4.24,5.35-5.45,1.96-.87,3.97-1.63,6.01-2.29,2.65-1.06,5.05-2.66,7.05-4.7,1.04-1,1.87-2.19,2.43-3.52.74-2.19.67-4.57-.19-6.72-.7-1.79-1.62-3.49-2.72-5.06l-.61-.92c-1.31-1.97-2.61-3.94-3.92-5.89-.04-.04-.07-.08-.09-.13-.97-1.53-2.04-2.99-3.2-4.38-.84-.92-1.73-1.84-2.47-2.83-2.14-3.01-2.41-7.09-1.37-10.65,1.16-3.53,3.12-6.75,5.72-9.41,2.19-2.41,4.9-4.8,7.99-5.96,4.24-1.56,7.28-1.69,10.7,1.46,4.18,3.86,8.32,7.75,12.43,11.66.96.82,1.76,1.81,2.35,2.93.38.95.59,1.96.64,2.98.37,3.45.71,7.1-.84,10.19Z"/>
    <ellipse class="cls-16_alien-66 targetColor" cx="248.16" cy="130.92" rx="5.82" ry="7.28" transform="translate(-31.21 156.96) rotate(-33.14)" style="fill: rgb(104, 225, 253);"/>
    <ellipse class="cls-16_alien-66 targetColor" cx="270.9" cy="131.15" rx="7.28" ry="4.85" transform="translate(12.98 286.28) rotate(-56.86)" style="fill: rgb(104, 225, 253);"/>
    <ellipse class="cls-7_alien-66" cx="248.16" cy="130.92" rx="5.82" ry="7.28" transform="translate(-31.21 156.96) rotate(-33.14)"/>
    <ellipse class="cls-9_alien-66" cx="270.9" cy="131.15" rx="7.28" ry="4.85" transform="translate(12.98 286.28) rotate(-56.86)"/>
    <path class="cls-15_alien-66" d="m266.39,149.34l-.58.87c-1.55,2.29-2.69,4.83-3.38,7.51-.06.3-.12.61-.17.92,0,.03,0,.06,0,.08-.64,3.35-.42,6.93-2.02,10.06-.2.51-.62.91-1.13,1.1-1,.28-1.84-.67-2.21-1.53-.87-2.07-.83-4.33-1.14-6.52-.74-5.22-3.15-10.06-6.86-13.81l-.61-.92c-1.31-1.97-2.61-3.94-3.92-5.89-.04-.04-.07-.08-.09-.13,2.76,1.21,8.05,4.6,8.96,5.15,2.28,1.26,4.99,6.27,7.6,6.89,1.91.49,3.38-1.11,5.54-3.79Z"/>
    <path class="cls-4_alien-66" d="m262.29,147.55c.13.05.27.07.4.06.12-.02.23-.06.33-.13.82-.35,1.71-.47,2.6-.36.04-.02.09-.02.14,0,.09.09-.05.23-.17.28-.84.2-1.67.45-2.49.75-.23.19-.5.32-.79.4-.23,0-.46-.04-.67-.13-.57-.17-1.18-.24-1.78-.19-.47.09-.95.11-1.43.07-.12,0-.26-.08-.24-.2s.14-.15.24-.17c1.27-.17,2.49-.79,3.85-.39Z"/>
    <path class="cls-5_alien-66" d="m263.9,178.26c.42.27.57.82.36,1.27"/>
    <path class="cls-16_alien-66 targetColor" d="m275.59,189.2c.69-5.04,1.25-10.28,3.84-14.67,1.74-2.96,4.31-5.36,6.19-8.23.34-.39.48-.93.37-1.44-.18-.32-.46-.57-.79-.73-17.38-9.66-38.63-9.17-55.55,1.28-2.18,1.31-4.15,2.94-5.85,4.83-.5.49-.83,1.14-.92,1.84.11.99.65,1.87,1.46,2.44,3.12,2.85,6.39,5.52,9.81,8.01,10.04,22.82,9.55,48.78,11.22,73.63.13,1.84.33,3.87,1.63,5.19.94.84,2.09,1.42,3.32,1.68,2.08.66,4.26.94,6.44.85,7.12-.53,12.43-7.31,14.02-14.27,1.58-6.96,3.77-52.82,4.8-60.42Z" style="fill: rgb(104, 225, 253);"/>
    <path class="cls-2_alien-66" d="m285.61,166.31c-1.84,2.87-4.45,5.26-6.19,8.22-2.58,4.39-3.16,9.63-3.84,14.67-1.03,7.58-3.25,53.48-4.82,60.44-1.12,4.93-4.1,9.74-8.28,12.33-1.73,1.11-3.7,1.78-5.75,1.94-2.18.09-4.36-.2-6.44-.87-1.23-.25-2.37-.82-3.31-1.66-1.3-1.33-1.52-3.35-1.64-5.21-1.66-24.85-1.18-50.83-11.22-73.63-3.42-2.49-6.7-5.16-9.82-8.01-.81-.56-1.34-1.45-1.45-2.43.09-.7.42-1.35.92-1.84,1.71-1.88,3.67-3.51,5.84-4.83,6.45-4.05,13.71-6.66,21.26-7.66h0c11.81-1.68,23.84.56,34.26,6.38.34.16.61.42.79.75.12.49.01,1.01-.3,1.4Z"/>
    <path class="cls-16_alien-66 targetColor" d="m285.6,166.31c-1.84,2.87-4.45,5.26-6.19,8.22-1.19,2.09-2.05,4.35-2.54,6.71-2.37-1.04-8.62-.75-9.54-.8l-16.57-.7c-2.99-.21-6-.1-8.96.32-3.11-2.31-6.11-4.77-8.96-7.36-.81-.58-1.34-1.47-1.45-2.46.09-.7.41-1.35.92-1.84,1.69-1.9,3.66-3.53,5.84-4.83,3.97-2.51,8.26-4.47,12.76-5.83h0c11.81-1.68,23.85.57,34.26,6.39.34.15.62.41.79.74.12.51-.01,1.05-.36,1.45Z" style="fill: rgb(104, 225, 253);"/>
    <path class="cls-16_alien-66 targetColor" d="m276.34,183.94c-.3,1.76-.52,3.53-.75,5.26-1.04,7.58-3.26,53.48-4.83,60.44-1.12,4.93-4.1,9.74-8.28,12.33-1.25-.15-2.48-.4-3.68-.75-1.24-.26-2.38-.84-3.33-1.68-1.28-1.34-10-1.52-10.12-3.35-1.56-23.43,7.28-49.63-1.07-71.44,9.65-.09,19.29-.18,28.95-.29,1.07.06,2.14-.12,3.13-.53Z" style="fill: rgb(104, 225, 253);"/>
    <path class="cls-16_alien-66 targetColor" d="m244.36,192.56c-.32,1.07-.9,2.04-1.68,2.83-4.6,4.21-11.54.92-19.09,15.25-5.3,10.12,5.38,14.73,9.65,18.22,2.19,1.76,4.6,3.52,5.77,6.07.34.77.53,1.6.55,2.45.08,2.02-.75,4.06-2.6,4.81-3.63-2.55-7.28-5.09-10.92-7.64-3.49-2.44-7.02-4.92-9.86-8.09s-4.95-7.18-5.07-11.46c.04-2.88.62-5.73,1.71-8.4,1.53-4.63,3.9-8.94,6.97-12.73,3.99-4.68,11.3-10.58,17.67-11.38,7.26-.92,8.34,5.71,6.88,10.06Z" style="fill: rgb(104, 225, 253);"/>
    <path class="cls-16_alien-66 targetColor" d="m296.1,216.23c-.69,4.62-2.45,9.02-5.15,12.83-3.4,5.04-7.83,9.3-13.01,12.48-2.11,1.3-4.55,2.45-7.02,2.11-2.48-.34-4.77-2.76-4.11-5.16.56-2.06,2.76-3.02,4.71-3.98l.36-.17c5.13-2.6,8.85-7.27,12.32-11.84,1.72-2.28,3.5-4.73,3.68-7.58.01-2.33-.63-4.62-1.84-6.61-2.8-5.36-6.92-9.91-11.97-13.24-.11-.09-.23-.18-.36-.26-1.56-.86-3-1.91-4.3-3.12-6.37-6.75,4.99-9.57,9.82-6.36,4.83,3.21,9.96,9.28,12.82,14.09,3.15,5.01,4.58,10.91,4.06,16.81Z" style="fill: rgb(104, 225, 253);"/>
    <path class="cls-16_alien-66 targetColor" d="m243.38,258.78c-1.45,11.38-3.25,22.71-5.38,33.99-1.06,5.64-2.21,11.26-3.43,16.86-1.15,5.21-1.72,10.32-5.73,14.18l-.21.2c-.88.69-1.65,1.52-2.29,2.44-.63.96-.56,2.22.17,3.11.76.75,1.98.69,3.04.58l2.96-.29c2.17-.21,4.6-.52,6.04-2.14s.87-3.4,1.63-5.08c.99-2.12,1.69-4.37,2.08-6.67,3.02-17.55,9.87-34.18,16.66-50.62,1.4,1.49,1.84,3.61,2.24,5.61l5.35,27.35,2.67,13.66c.53,2.7.44,10.03,2.46,11.76.77.58,1.64,1.01,2.57,1.26,3.68,1.25,7.79,2.38,11.23.65.24-.1.44-.27.58-.48.11-.22.14-.47.08-.71-.23-1.31-1.42-2.18-2.39-3.07-3.32-3.04-3.91-6.64-4.28-10.84-.59-5.07-1.45-10.1-2.59-15.07-3.13-15.65-3.68-31.63-4.96-47.5.04-1.02-.29-2.03-.92-2.83-1.15-1.13-3.06-.64-4.6-.08-5.04,1.84-9.83-3.6-14.87-1.73-5.31,1.93-7.3,9.43-8.07,15.47Z" style="fill: rgb(104, 225, 253);"/>
    <path class="cls-8_alien-66" d="m243.38,258.78c-1.45,11.38-3.25,22.71-5.38,33.99-1.06,5.64-2.21,11.26-3.43,16.86-1.15,5.21-1.72,10.32-5.73,14.18l-.21.2c-.88.69-1.65,1.52-2.29,2.44-.63.96-.56,2.22.17,3.11.76.75,1.98.69,3.04.58l2.96-.29c2.17-.21,4.6-.52,6.04-2.14s.87-3.4,1.63-5.08c.99-2.12,1.69-4.37,2.08-6.67,3.02-17.55,9.87-34.18,16.66-50.62,1.4,1.49,1.84,3.61,2.24,5.61l5.35,27.35,2.67,13.66c.53,2.7.44,10.03,2.46,11.76.77.58,1.64,1.01,2.57,1.26,3.68,1.25,7.79,2.38,11.23.65.24-.1.44-.27.58-.48.11-.22.14-.47.08-.71-.23-1.31-1.42-2.18-2.39-3.07-3.32-3.04-3.91-6.64-4.28-10.84-.59-5.07-1.45-10.1-2.59-15.07-3.13-15.65-3.68-31.63-4.96-47.5.04-1.02-.29-2.03-.92-2.83-1.15-1.13-3.06-.64-4.6-.08-5.04,1.84-9.83-3.6-14.87-1.73-5.31,1.93-7.3,9.43-8.07,15.47Z"/>
    <path class="cls-10_alien-66" d="m233.44,114.34c-1.08,4.74-1.5,10.12-5.05,13.43-4.06,3.79-10.47,3.27-15.84,1.84-.66-.13-1.29-.39-1.84-.76-.66-.58-1.12-1.35-1.33-2.21-2.19-6.94,1.84-14.25,6.33-19.97,2.81-3.69,6.03-7.03,9.61-9.98,6.44-5.16,17.75-10.69,26.25-8.97-1.25,4.01-7.69,7.34-10.46,10.78-3.71,4.65-6.33,10.06-7.68,15.85Z"/>
    <path class="cls-10_alien-66" d="m216.49,134.92c-3.44,2.1-5.25,6.08-4.6,10.05.38,1.51.97,2.96,1.76,4.3,1.7,3.17,3.58,6.24,5.61,9.2.62,1.13,1.59,2.04,2.76,2.59,1.66.55,3.47-.39,4.69-1.64s2.1-2.76,3.36-4.01c.97-.75,1.87-1.59,2.7-2.49.78-1.19,1.21-2.58,1.24-4,.71-9.19-8.12-19.8-17.52-13.99Z"/>
    <path class="cls-13_alien-66" d="m223.63,210.65c-5.3,10.12,5.38,14.73,9.65,18.22,2.19,1.76,4.6,3.52,5.77,6.07.34.77.53,1.6.55,2.45-1.21.68-2.89-.26-3.99-1.27-2.2-2.1-4.04-4.54-6.35-6.44-1.44-1.21-3.04-2.24-4.49-3.41-2.4-1.91-4.41-4.26-5.95-6.92-.69-1.06-1.13-2.27-1.28-3.53-.02-1.27.25-2.53.78-3.68,2.76-6.98,7.58-12.97,13.81-17.17,2.53-1.72,6.9-4.75,10.12-4.69,1.52,0,2.07.98,2.12,2.3-.32,1.07-.9,2.04-1.68,2.83-4.58,4.21-11.55.91-19.07,15.25Z"/>
    <path class="cls-11_alien-66" d="m292.24,213.28c.36,5.59-3.23,10.58-6.66,15.01-3.99,5.13-8.44,10.51-14.73,12.23.2-2,.41-4.01.62-6.01l.36-.17c5.13-2.6,8.85-7.27,12.32-11.84,1.72-2.28,3.5-4.73,3.68-7.58.01-2.33-.63-4.62-1.84-6.61-2.8-5.36-6.92-9.91-11.97-13.24.25-1.41.76-2.76,1.51-3.98,7.36,2.44,13.37,10.96,15.65,17.98.54,1.35.9,2.76,1.07,4.2Z"/>
    <path class="cls-16_alien-66 targetColor" d="m249.75,241.35c.25,1,.3,2.04.14,3.06-.06,1.71-.65,3.36-1.69,4.71-1.51,1.57-3.88,1.94-5.8.92-1.39-.93-2.49-2.24-3.17-3.77-.63-1.14-1.22-2.31-1.79-3.5-1.03-2.19-.44-3.68.85-5.57.8-1.21,1.67-2.14,3.21-1.77,2.82.7,7.32,2.96,8.25,5.92Z" style="fill: rgb(104, 225, 253);"/>
  </g>
  <g id="planet_alien-66">
    <circle class="cls-16_alien-66 targetColor" cx="255" cy="364.38" r="48.52" style="fill: rgb(104, 225, 253);"/>
    <path class="cls-14_alien-66" d="m303.5,364.39c0,2.65-.21,5.29-.64,7.91-.88,5.34-2.65,10.49-5.25,15.23-12.77,23.54-42.21,32.27-65.76,19.49-8.56-4.64-15.52-11.76-19.98-20.41-3.53-6.88-5.37-14.5-5.38-22.23-.01-8.2,2.06-16.26,6.02-23.44h0c12.92-23.45,42.41-31.99,65.87-19.06,12.65,6.97,21.53,19.22,24.23,33.4.58,3,.87,6.05.88,9.11Z"/>
    <path class="cls-16_alien-66 targetColor" d="m360.77,371.25c0,7.36-26.14,13.73-63.15,16.28-11.51.84-24.09,1.28-37.24,1.28-17.59,0-34.13-.81-48.5-2.19-30.94-3-51.89-8.77-51.89-15.37,0-2.67,3.36-5.19,9.41-7.44,8.21-3.08,21.39-5.69,37.74-7.46-.45,2.66-.67,5.35-.66,8.04,0,2.3.16,4.6.5,6.88,17.73,1.85,35.55,2.74,53.38,2.69,15.18,0,29.58-.58,42.49-1.67.92-5.64.84-11.4-.22-17.01,21.45,1.75,38.76,4.78,48.78,8.52,6.02,2.25,9.37,4.77,9.37,7.44Z" style="fill: rgb(104, 225, 253);"/>
    <path class="cls-3_alien-66" d="m360.77,371.25c0,7.36-26.14,13.73-63.15,16.28-11.51.84-24.09,1.28-37.24,1.28-17.59,0-34.13-.81-48.5-2.19-30.94-3-51.89-8.77-51.89-15.37,0-2.67,3.36-5.19,9.41-7.44,8.21-3.08,21.39-5.69,37.74-7.46-.45,2.66-.67,5.35-.66,8.04,0,2.3.16,4.6.5,6.88,17.73,1.85,35.55,2.74,53.38,2.69,15.18,0,29.58-.58,42.49-1.67.92-5.64.84-11.4-.22-17.01,21.45,1.75,38.76,4.78,48.78,8.52,6.02,2.25,9.37,4.77,9.37,7.44Z"/>
  </g>
</svg>