<svg version="1.1" id="Layer_1" xmlns="http://www.w3.org/2000/svg" xmlns:xlink="http://www.w3.org/1999/xlink" x="0px" y="0px" viewBox="0 0 500 500" style="width: 188px;" xml:space="preserve" data-imageid="augmented-reality-1-10" imageName="Augmented Reality 1" class="illustrations_image">
<style type="text/css">
	.st0_augmented-reality-1-10{fill:#FFFFFF;}
	.st1_augmented-reality-1-10{fill:#093F68;}
	.st2_augmented-reality-1-10{fill:#68E1FD;}
</style>
<g id="device_augmented-reality-1-10">
	<path class="st0_augmented-reality-1-10" d="M60.6,187.2h378.8c13,0,23.5,10.5,23.5,23.5v152.5c0,13-10.5,23.5-23.5,23.5H60.6c-13,0-23.5-10.5-23.5-23.5&#10;&#9;&#9;V210.7C37.1,197.8,47.6,187.2,60.6,187.2z"/>
	<path class="st1_augmented-reality-1-10" d="M438.5,388.6h-377c-14.5,0-26.2-11.8-26.3-26.2V211.6c0-14.5,11.8-26.2,26.3-26.3h377&#10;&#9;&#9;c14.5,0,26.2,11.8,26.3,26.3v150.7C464.7,376.9,453,388.6,438.5,388.6z M61.5,189.1c-12.4,0-22.5,10.1-22.5,22.5v150.7&#10;&#9;&#9;c0,12.4,10.1,22.5,22.5,22.5h377c12.4-0.1,22.4-10.1,22.5-22.5V211.6c0-12.4-10.1-22.5-22.5-22.5H61.5z"/>
	<rect x="78.6" y="187.2" class="st2_augmented-reality-1-10 targetColor" width="342.7" height="199.5" style="fill: rgb(104, 225, 253);"/>
	<path class="st1_augmented-reality-1-10" d="M421.4,388.6H78.6c-1,0-1.9-0.8-1.9-1.8c0,0,0,0,0,0V187.2c0-1,0.8-1.9,1.8-1.9h342.7c1,0,1.9,0.8,1.9,1.9&#10;&#9;&#9;v199.5C423.2,387.8,422.4,388.6,421.4,388.6z M80.5,384.9h339V189.1h-339V384.9z"/>
	<path class="st1_augmented-reality-1-10" d="M57.5,294.3c-1,0-1.9-0.8-1.9-1.9v-28.1c0-1,0.8-1.9,1.9-1.9s1.9,0.8,1.9,1.9v28.1&#10;&#9;&#9;C59.3,293.5,58.5,294.3,57.5,294.3z"/>
	<path class="st1_augmented-reality-1-10" d="M57.5,311.5c-1,0-1.9-0.8-1.9-1.9v-7.8c0-1,0.8-1.9,1.9-1.9s1.9,0.8,1.9,1.9v7.8&#10;&#9;&#9;C59.3,310.6,58.5,311.5,57.5,311.5z"/>
	<path class="st1_augmented-reality-1-10" d="M442.1,298.2c-6.2,0-11.2-5-11.2-11.2c0-6.2,5-11.2,11.2-11.2c6.2,0,11.2,5,11.2,11.2c0,0,0,0,0,0&#10;&#9;&#9;C453.3,293.2,448.3,298.2,442.1,298.2z M442.1,279.5c-4.1,0-7.5,3.3-7.5,7.5c0,4.1,3.3,7.5,7.5,7.5c4.1,0,7.5-3.3,7.5-7.5&#10;&#9;&#9;c0,0,0,0,0,0C449.6,282.9,446.2,279.5,442.1,279.5z"/>
</g>
<g id="object_augmented-reality-1-10">
	<polygon class="st0_augmented-reality-1-10" points="250,238.2 152.8,182.1 250,125.9 347.2,182.1 &#9;"/>
	<path class="st1_augmented-reality-1-10" d="M250,240.1c-0.3,0-0.6-0.1-0.9-0.2l-97.2-56.1c-0.9-0.5-1.2-1.7-0.7-2.5c0.2-0.3,0.4-0.5,0.7-0.7l97.2-56.1&#10;&#9;&#9;c0.6-0.3,1.3-0.3,1.9,0l97.2,56.1c0.9,0.5,1.2,1.7,0.7,2.5c-0.2,0.3-0.4,0.5-0.7,0.7l-97.2,56.1C250.6,240,250.3,240.1,250,240.1z&#10;&#9;&#9; M156.5,182.1l93.5,54l93.5-54l-93.5-54L156.5,182.1z"/>
	<polygon class="st0_augmented-reality-1-10" points="250,350.5 152.8,294.3 152.8,182.1 250,238.2 &#9;"/>
	<path class="st1_augmented-reality-1-10" d="M250,352.3c-0.3,0-0.6-0.1-0.9-0.2l-97.2-56.1c-0.6-0.3-0.9-0.9-0.9-1.6V182.1c0-1,0.8-1.9,1.9-1.9&#10;&#9;&#9;c0.3,0,0.6,0.1,0.9,0.2l97.2,56.1c0.6,0.3,0.9,0.9,0.9,1.6v112.2c0,0.7-0.4,1.3-0.9,1.6C250.6,352.2,250.3,352.3,250,352.3z&#10;&#9;&#9; M154.6,293.2l93.5,54v-108l-93.5-54V293.2z"/>
	<polygon class="st0_augmented-reality-1-10" points="347.2,294.3 250,350.5 250,238.2 347.2,182.1 &#9;"/>
	<path class="st1_augmented-reality-1-10" d="M250,352.3c-0.3,0-0.6-0.1-0.9-0.2c-0.6-0.3-0.9-0.9-0.9-1.6V238.2c0-0.7,0.4-1.3,0.9-1.6l97.2-56.1&#10;&#9;&#9;c0.9-0.5,2-0.2,2.5,0.7c0.2,0.3,0.2,0.6,0.2,0.9v112.3c0,0.7-0.4,1.3-0.9,1.6l-97.2,56.1C250.6,352.2,250.3,352.3,250,352.3z&#10;&#9;&#9; M251.9,239.3v108l93.5-54v-108L251.9,239.3z M347.2,294.3L347.2,294.3z"/>
	<circle class="st2_augmented-reality-1-10 targetColor" cx="152.8" cy="182.1" r="11" style="fill: rgb(104, 225, 253);"/>
	<path class="st1_augmented-reality-1-10" d="M152.8,194.9c-7.1,0-12.9-5.8-12.9-12.9s5.8-12.9,12.9-12.9s12.9,5.8,12.9,12.9&#10;&#9;&#9;C165.6,189.2,159.9,194.9,152.8,194.9z M152.8,172.9c-5.1,0-9.2,4.1-9.2,9.1s4.1,9.2,9.1,9.2s9.2-4.1,9.2-9.1v0&#10;&#9;&#9;C161.9,177,157.8,172.9,152.8,172.9L152.8,172.9z"/>
	<circle class="st2_augmented-reality-1-10 targetColor" cx="152.8" cy="294" r="11" style="fill: rgb(104, 225, 253);"/>
	<path class="st1_augmented-reality-1-10" d="M152.8,306.9c-7.1,0-12.9-5.8-12.9-12.9c0-7.1,5.8-12.9,12.9-12.9c7.1,0,12.8,5.7,12.9,12.8&#10;&#9;&#9;C165.6,301.1,159.9,306.9,152.8,306.9z M152.8,284.9c-5.1,0-9.2,4.1-9.2,9.1s4.1,9.1,9.1,9.1s9.2-4.1,9.2-9.1l0,0&#10;&#9;&#9;C161.9,289,157.8,284.9,152.8,284.9L152.8,284.9z"/>
	<circle class="st2_augmented-reality-1-10 targetColor" cx="347.2" cy="294" r="11" style="fill: rgb(104, 225, 253);"/>
	<path class="st1_augmented-reality-1-10" d="M347.2,306.9c-7.1,0-12.9-5.8-12.9-12.9c0-7.1,5.8-12.9,12.9-12.9c7.1,0,12.8,5.7,12.9,12.8&#10;&#9;&#9;C360.1,301.1,354.3,306.9,347.2,306.9z M347.2,284.9c-5.1,0-9.2,4.1-9.2,9.1s4.1,9.2,9.1,9.2c5.1,0,9.2-4.1,9.2-9.1c0,0,0,0,0,0&#10;&#9;&#9;C356.4,289,352.3,284.9,347.2,284.9L347.2,284.9z"/>
	<circle class="st2_augmented-reality-1-10 targetColor" cx="347.2" cy="182.1" r="11" style="fill: rgb(104, 225, 253);"/>
	<path class="st1_augmented-reality-1-10" d="M347.2,194.9c-7.1,0-12.9-5.8-12.9-12.9s5.8-12.9,12.9-12.9c7.1,0,12.9,5.8,12.9,12.9v0&#10;&#9;&#9;C360.1,189.2,354.3,194.9,347.2,194.9z M347.2,172.9c-5.1,0-9.2,4.1-9.2,9.1c0,5.1,4.1,9.2,9.1,9.2c5.1,0,9.2-4.1,9.2-9.1&#10;&#9;&#9;c0,0,0,0,0,0C356.4,177,352.3,172.9,347.2,172.9L347.2,172.9z"/>
	<circle class="st2_augmented-reality-1-10 targetColor" cx="250" cy="125.9" r="11" style="fill: rgb(104, 225, 253);"/>
	<path class="st1_augmented-reality-1-10" d="M250,138.8c-7.1,0-12.9-5.8-12.9-12.9c0-7.1,5.8-12.9,12.9-12.9s12.9,5.8,12.9,12.9c0,0,0,0,0,0&#10;&#9;&#9;C262.8,133,257.1,138.8,250,138.8z M250,116.8c-5,0-9.1,4.1-9.1,9.1c0,5,4.1,9.1,9.1,9.1c5,0,9.1-4.1,9.1-9.1&#10;&#9;&#9;C259.1,120.9,255,116.8,250,116.8z"/>
	<circle class="st2_augmented-reality-1-10 targetColor" cx="250" cy="235.5" r="11" style="fill: rgb(104, 225, 253);"/>
	<path class="st1_augmented-reality-1-10" d="M250,248.4c-7.1,0-12.9-5.8-12.9-12.9c0-7.1,5.8-12.9,12.9-12.9c7.1,0,12.9,5.8,12.9,12.9v0&#10;&#9;&#9;C262.8,242.6,257.1,248.3,250,248.4z M250,226.4c-5.1,0-9.2,4.1-9.2,9.1s4.1,9.2,9.1,9.2s9.2-4.1,9.2-9.1c0,0,0,0,0,0&#10;&#9;&#9;C259.1,230.5,255,226.4,250,226.4z"/>
	<circle class="st2_augmented-reality-1-10 targetColor" cx="250" cy="350.5" r="11" style="fill: rgb(104, 225, 253);"/>
	<path class="st1_augmented-reality-1-10" d="M250,363.3c-7.1,0-12.9-5.8-12.9-12.9c0-7.1,5.8-12.9,12.9-12.9s12.9,5.8,12.9,12.9v0&#10;&#9;&#9;C262.9,357.6,257.1,363.3,250,363.3z M250,341.3c-5.1,0-9.2,4.1-9.2,9.1s4.1,9.2,9.1,9.2s9.2-4.1,9.2-9.1c0,0,0,0,0,0&#10;&#9;&#9;C259.1,345.4,255,341.3,250,341.3z"/>
	<path class="st0_augmented-reality-1-10" d="M389.5,362.6h-62.6c-1,0-1.9-0.8-1.9-1.9c0-1,0.8-1.9,1.9-1.9h62.6c1,0,1.9,0.8,1.9,1.9&#10;&#9;&#9;C391.4,361.7,390.5,362.6,389.5,362.6L389.5,362.6z"/>
	<path class="st0_augmented-reality-1-10" d="M356.3,338.5h-29.3c-1,0.1-1.9-0.7-2-1.7c-0.1-1,0.7-1.9,1.7-2c0.1,0,0.2,0,0.3,0h29.3c1-0.1,1.9,0.7,2,1.7&#10;&#9;&#9;c0.1,1-0.7,1.9-1.7,2C356.5,338.5,356.4,338.5,356.3,338.5z"/>
	<path class="st0_augmented-reality-1-10" d="M116.3,224.9H96.5c-1,0-1.9-0.8-1.9-1.9s0.8-1.9,1.9-1.9l0,0h19.9c1,0,1.9,0.8,1.9,1.9&#10;&#9;&#9;S117.4,224.9,116.3,224.9L116.3,224.9z"/>
	<path class="st0_augmented-reality-1-10" d="M126.9,364.5h-17.6l-2.2,5.4h-9.7l16.4-36.6h8.6l16.4,36.6h-9.6L126.9,364.5z M123.7,356.6l-5.5-13.3h-0.1&#10;&#9;&#9;l-5.5,13.3H123.7z"/>
	<path class="st0_augmented-reality-1-10" d="M175.1,369.9h-10.4l-7.7-12.1h-6v12.1h-9.3v-36.6h19.7c8.1,0,13.7,4.5,13.7,12.2c0.2,5.4-3.3,10.1-8.5,11.5v0&#10;&#9;&#9;L175.1,369.9z M160.6,349.8c3.1,0,5.1-1.5,5.1-4.3s-1.8-4.2-5.1-4.2H151v8.6H160.6z"/>
</g>
</svg>