<?xml version="1.0"?><svg viewBox="0 0 64 64" xmlns="http://www.w3.org/2000/svg"><g data-name="Fill Outline" id="Fill_Outline"><g data-name="Stroke copy" id="Stroke_copy"><g><g><path d="M11,9H31a0,0,0,0,1,0,0V51A10,10,0,0,1,21,61h0A10,10,0,0,1,11,51V9A0,0,0,0,1,11,9Z" style="fill: #57b7eb"/><rect height="6" rx="3" style="fill: #84d2f4" width="28" x="7" y="3"/><path d="M26,57A10,10,0,0,1,16,47V16a4,4,0,0,1,4-4H31V9H11V51a9.994,9.994,0,0,0,18.415,5.389A9.967,9.967,0,0,1,26,57Z" style="fill: #4891d3"/><path d="M10,3a3,3,0,0,0,0,6H32a3,3,0,0,0,3-3H13A3,3,0,0,1,10,3Z" style="fill: #57b7eb"/></g><circle cx="21" cy="43" r="2" style="fill: #c4f236"/><circle cx="23" cy="23" r="2" style="fill: #c4f236"/><path d="M22,44a1.992,1.992,0,0,1-1.82-2.82,2,2,0,1,0,2.64,2.64A1.99,1.99,0,0,1,22,44Z" style="fill: #a1d51c"/><path d="M24,24a1.992,1.992,0,0,1-1.82-2.82,2,2,0,1,0,2.64,2.64A1.99,1.99,0,0,1,24,24Z" style="fill: #a1d51c"/><g><path d="M42,17A12.992,12.992,0,0,0,30.662,36.35L27,43l7.214-2.607A12.994,12.994,0,1,0,42,17Z" style="fill: #f89c8d"/><path d="M48,36A12.97,12.97,0,0,1,35.788,18.578,12.991,12.991,0,0,0,30.662,36.35L27,43l7.214-2.607a12.965,12.965,0,0,0,20-5.971A12.942,12.942,0,0,1,48,36Z" style="fill: #f8664f"/><circle cx="42" cy="30" r="6" style="fill: #c4f236"/><path d="M45,33a5.993,5.993,0,0,1-5.466-8.466,6,6,0,1,0,7.932,7.932A5.974,5.974,0,0,1,45,33Z" style="fill: #a1d51c"/><path d="M44.408,35.486a13.014,13.014,0,0,1-8.195-7.029,5.978,5.978,0,0,0,8.2,7.029Z" style="fill: #7ab92d"/></g></g></g><g data-name="Outline copy" id="Outline_copy"><g><path d="M31,44.555a1,1,0,0,0-1,1V51a9,9,0,0,1-18,0V19a1,1,0,0,0-2,0V51a11,11,0,0,0,22,0V45.555A1,1,0,0,0,31,44.555Z" style="fill: #323232"/><circle cx="26" cy="50" r="1" style="fill: #323232"/><circle cx="25" cy="34" r="1" style="fill: #323232"/><circle cx="16" cy="34" r="1" style="fill: #323232"/><path d="M21.99,52.1a2.9,2.9,0,0,0-2.345.838.913.913,0,0,1-1.29,0,1,1,0,1,0-1.414,1.414,2.914,2.914,0,0,0,4.118,0,.911.911,0,0,1,1.4.14,1,1,0,1,0,1.664-1.11A2.9,2.9,0,0,0,21.99,52.1Z" style="fill: #323232"/><path d="M26,43a1,1,0,0,0-1-1H23.816a2.746,2.746,0,0,0-.117-.285l.837-.837a1,1,0,0,0-1.414-1.414l-.837.837A2.746,2.746,0,0,0,22,40.184V39a1,1,0,0,0-2,0v1.184a2.746,2.746,0,0,0-.285.117l-.837-.837a1,1,0,0,0-1.414,1.414l.837.837a2.746,2.746,0,0,0-.117.285H17a1,1,0,0,0,0,2h1.184a2.746,2.746,0,0,0,.117.285l-.837.837a1,1,0,1,0,1.414,1.414l.837-.837a2.746,2.746,0,0,0,.285.117V47a1,1,0,0,0,2,0V45.816A3,3,0,0,0,23.816,44H25A1,1,0,0,0,26,43Zm-5,1a1,1,0,1,1,1-1A1,1,0,0,1,21,44Z" style="fill: #323232"/><circle cx="16" cy="14" r="1" style="fill: #323232"/><path d="M19,22a1,1,0,0,0,0,2h1.184A3,3,0,0,0,22,25.816V27a1,1,0,0,0,2,0V25.816a2.746,2.746,0,0,0,.285-.117l.837.837a1,1,0,0,0,1.414-1.414l-.837-.837A2.746,2.746,0,0,0,25.816,24H27a1,1,0,0,0,0-2H25.816a2.746,2.746,0,0,0-.117-.285l.837-.837a1,1,0,0,0-1.414-1.414l-.837.837A2.746,2.746,0,0,0,24,20.184V19a1,1,0,0,0-2,0v1.184a2.746,2.746,0,0,0-.285.117l-.837-.837a1,1,0,0,0-1.414,1.414l.837.837a2.746,2.746,0,0,0-.117.285Zm5,1a1,1,0,1,1-1-1A1,1,0,0,1,24,23Z" style="fill: #323232"/><path d="M15.094,28a1,1,0,0,0,1,1A1.908,1.908,0,0,1,18,30.906a3.9,3.9,0,0,0,2.67,3.7,1,1,0,1,0,.633-1.9A1.9,1.9,0,0,1,20,30.906,3.91,3.91,0,0,0,16.094,27,1,1,0,0,0,15.094,28Z" style="fill: #323232"/><path d="M23.175,14.737a2.425,2.425,0,0,1,2.876,1.579A1,1,0,0,0,27,17a1.028,1.028,0,0,0,.316-.051,1,1,0,0,0,.633-1.265,4.437,4.437,0,0,0-5.26-2.887,1,1,0,1,0,.486,1.94Z" style="fill: #323232"/><path d="M46.331,27.5a.982.982,0,0,0,.9.5,1,1,0,0,0,.864-.557L48.312,27a.938.938,0,0,1,.925-.534l.493.032a1,1,0,1,0,.128-2l-.492-.032a2.978,2.978,0,0,0-2.215.791,7,7,0,0,0-1.118-.976l.014-.242a.962.962,0,0,1,.712-.872,1,1,0,1,0-.518-1.931,2.952,2.952,0,0,0-2.09,2.1,7.008,7.008,0,0,0-1.6-.312.957.957,0,0,1,0-1.063l.274-.411a1,1,0,1,0-1.664-1.11l-.274.412a2.947,2.947,0,0,0-.414,2.314A6.959,6.959,0,0,0,39,23.686a.959.959,0,0,1-.531-.923l.032-.493a1,1,0,1,0-2-.128l-.032.492a2.946,2.946,0,0,0,.8,2.217c-.147.136-.288.276-.423.423a2.968,2.968,0,0,0-2.216-.8l-.493.032a1,1,0,0,0,.128,2l.494-.032a.957.957,0,0,1,.922.531,7,7,0,0,0-.529,1.537,2.952,2.952,0,0,0-2.864.759,1,1,0,0,0,1.414,1.414.962.962,0,0,1,1.111-.18l.214.107a6.923,6.923,0,0,0,.31,1.517,2.951,2.951,0,0,0-2.1,2.09,1,1,0,1,0,1.931.518.962.962,0,0,1,.872-.712l.245-.014a7.073,7.073,0,0,0,.986,1.116,2.946,2.946,0,0,0-.8,2.216l.032.493a1,1,0,0,0,1,.936c.022,0,.043,0,.065,0A1,1,0,0,0,38.5,37.73l-.032-.494A.958.958,0,0,1,39,36.314a6.951,6.951,0,0,0,2.448.658.957.957,0,0,1,0,1.062l-.274.411a1,1,0,0,0,1.664,1.11l.274-.412a2.943,2.943,0,0,0,.414-2.316A6.905,6.905,0,0,0,45,36.315a.959.959,0,0,1,.53.922l-.032.493a1,1,0,0,0,.934,1.062c.022,0,.043,0,.065,0a1,1,0,0,0,1-.936l.032-.492a2.949,2.949,0,0,0-.8-2.213c.147-.135.287-.277.421-.423a2.947,2.947,0,0,0,2.02.806c.064,0,.129,0,.194-.006l.493-.032a1,1,0,1,0-.128-2l-.494.032a.954.954,0,0,1-.919-.527,6.955,6.955,0,0,0,.662-2.458.96.96,0,0,1,1.055.009l.411.274a1,1,0,1,0,1.11-1.664l-.412-.274a2.956,2.956,0,0,0-3.286,0l-.412.274A1,1,0,0,0,47,30a5,5,0,1,1-.669-2.5Z" style="fill: #323232"/><path d="M41,29a1,1,0,0,0-2,0,4,4,0,0,0,4,4,1,1,0,0,0,0-2A2,2,0,0,1,41,29Z" style="fill: #323232"/><circle cx="44" cy="29" r="1" style="fill: #323232"/><path d="M53.3,21.75a1,1,0,0,0-1.614,1.181A11.983,11.983,0,0,1,34.814,39.593a1,1,0,0,0-.939-.14l-4.718,1.7,2.382-4.324a1,1,0,0,0,0-.972A11.986,11.986,0,0,1,49.069,20.319,1,1,0,0,0,50.25,18.7,13.946,13.946,0,0,0,32,20.221V10a4,4,0,0,0,0-8H29a1,1,0,0,0,0,2h3a2,2,0,0,1,0,4H10a2,2,0,0,1,0-4H25a1,1,0,0,0,0-2H10a4,4,0,0,0,0,8v5a1,1,0,0,0,2,0V10H30V22.826a13.909,13.909,0,0,0-.475,13.518l-3.4,6.174A1,1,0,0,0,27.34,43.94l6.718-2.427A13.854,13.854,0,0,0,42,44,13.984,13.984,0,0,0,53.3,21.75Z" style="fill: #323232"/></g></g></g></svg>