<svg id="_0200_baseball" data-name="0200_baseball" xmlns="http://www.w3.org/2000/svg" viewBox="0 0 500 500" data-imageid="baseball-52" imageName="Baseball" class="illustrations_image" style="width: 188px;"><defs><style>.cls-1_baseball-52{fill:#d1d3d4;}.cls-2_baseball-52{fill:#fff;}.cls-3_baseball-52{fill:#231f20;}.cls-4_baseball-52{fill:#68e1fd;}</style></defs><g id="Shadow_baseball-52"><ellipse class="cls-1_baseball-52" cx="250" cy="423.24" rx="214.87" ry="6.63"/></g><g id="Character_baseball-52"><path class="cls-2_baseball-52" d="M348.75,202.16c-6.18,0-13.93-1.47-20.1-1.77l12.36,32,13.7-.26A201.86,201.86,0,0,1,348.75,202.16Z"/><path class="cls-3_baseball-52" d="M341,233.06a.7.7,0,0,1-.67-.46L328,200.65a.72.72,0,0,1,.71-1c2.68.13,5.57.47,8.63.83a102,102,0,0,0,11.36.94h.07a.72.72,0,0,1,.72.64,202.89,202.89,0,0,0,5.93,29.8.73.73,0,0,1-.68.93l-13.7.25Zm-11.28-31.89,11.77,30.44,12.26-.23a205.71,205.71,0,0,1-5.65-28.5c-3.41,0-7.24-.5-10.95-.94C334.54,201.63,332.05,201.33,329.73,201.17Z"/><path class="cls-2_baseball-52" d="M357.54,227.7s-15-3.32-18.4-1.81a6,6,0,0,0-3.71,4.69s-5.51.46-13.77.85-18.35.21-19.59,4.79,2.61,9.61,2.61,9.61-14.26-4.12-12,3.75,5,13.7,15.3,17.12,26.08,3,37.65-7.28,9.67-22,9.67-22Z"/><path class="cls-3_baseball-52" d="M320.3,269.3a40,40,0,0,1-12.5-1.94c-10.87-3.62-13.56-10.1-15.75-17.58-.54-1.84-.3-3.28.7-4.28,2.2-2.21,7.54-1.41,10.37-.78-1.1-1.93-2.62-5.37-1.72-8.68,1.23-4.57,9.46-4.89,17.42-5.19l2.8-.12c6.71-.32,11.64-.68,13.22-.8a6.72,6.72,0,0,1,4-4.68c3.56-1.55,17.28,1.42,18.84,1.77a.7.7,0,0,1,.44.31.76.76,0,0,1,.09.53l-2.18,9.58c.2,1.44,1.26,12.57-9.92,22.5C338.61,266.63,329.05,269.3,320.3,269.3Zm-22.7-23.85c-1.63,0-3.09.27-3.86,1-.62.62-.73,1.57-.35,2.9,2.15,7.34,4.61,13.23,14.85,16.64,10.48,3.49,26,2.63,37-7.14s9.47-21.25,9.45-21.36a.82.82,0,0,1,0-.27l2-9c-4.54-1-14.75-2.81-17.28-1.71a5.29,5.29,0,0,0-3.29,4.11.71.71,0,0,1-.64.64c-.06,0-5.62.46-13.8.85l-2.82.12c-7.1.27-15.15.58-16.12,4.15-1.13,4.19,2.45,9,2.48,9a.69.69,0,0,1,0,.82.7.7,0,0,1-.77.28A27.87,27.87,0,0,0,297.6,245.45Z"/><path class="cls-2_baseball-52" d="M335.43,230.58a25.87,25.87,0,0,1,19.91,6.84"/><path class="cls-3_baseball-52" d="M355.34,238.12a.67.67,0,0,1-.47-.19,25.46,25.46,0,0,0-19.33-6.66.69.69,0,0,1-.8-.58.7.7,0,0,1,.58-.8,26.34,26.34,0,0,1,20.49,7,.7.7,0,0,1,.05,1A.71.71,0,0,1,355.34,238.12Z"/><path class="cls-3_baseball-52" d="M288.56,159c.79-1,35-1.3,38.93,1.59s26,47.57,27.85,58.61l-20.16-.53-26-32.22-28.66-.68Z"/><path class="cls-3_baseball-52" d="M355.34,219.93h0l-20.17-.53a.68.68,0,0,1-.52-.26l-25.76-32-28.34-.67a.69.69,0,0,1-.54-.29.7.7,0,0,1-.11-.61l8-26.77a.57.57,0,0,1,.11-.22c.94-1.24,17-1,18.85-1,6.8.12,18.59.59,21,2.39,4.11,3,26.31,48.12,28.13,59.06a.75.75,0,0,1-.16.58A.71.71,0,0,1,355.34,219.93ZM335.52,218l19,.49c-2.67-12.08-23.49-54.46-27.41-57.33-3.35-2.46-34.38-2.62-37.94-1.65l-7.65,25.6,27.74.66a.68.68,0,0,1,.53.26Z"/><path class="cls-2_baseball-52" d="M111,99.6s1.77,11.88,5.78,21.41,4.8,12.22,4.8,12.22l-14.4,8.71s-12.57-25.33-14.42-30.85S93,86.44,93,86.44l16.19,1.61Z"/><path class="cls-3_baseball-52" d="M107.18,142.66a.76.76,0,0,1-.21,0,.7.7,0,0,1-.44-.37c-.52-1-12.61-25.44-14.45-30.94s.12-24.18.21-25a.74.74,0,0,1,.79-.64l16.19,1.61a.73.73,0,0,1,.64.61l1.8,11.55h0c0,.12,1.8,11.9,5.73,21.24s4.79,12.19,4.82,12.3a.73.73,0,0,1-.32.82l-14.4,8.71A.74.74,0,0,1,107.18,142.66ZM93.65,87.23c-.35,3.5-1.79,18.91-.2,23.63,1.64,4.9,12,25.92,14,30.06l13.24-8c-.39-1.17-1.58-4.47-4.59-11.61-4-9.5-5.81-21.43-5.83-21.6l-1.72-11Z"/><path class="cls-2_baseball-52" d="M85.67,104.12a13.8,13.8,0,0,0,5.43,3.15,2.1,2.1,0,0,0,1.58-.08,1.61,1.61,0,0,0,.58-1.8,4.21,4.21,0,0,0-1.09-1.69c-1.48-1.62-3.6-3.66-5.9-3.93a1.73,1.73,0,0,0-2,1.19C83.76,102.29,84.71,103.31,85.67,104.12Z"/><path class="cls-3_baseball-52" d="M91.9,108.11a3.9,3.9,0,0,1-1-.14,14.57,14.57,0,0,1-5.73-3.3h0c-.7-.6-2.35-2-1.63-4a2.42,2.42,0,0,1,2.78-1.65c2.56.29,4.85,2.51,6.36,4.15a4.94,4.94,0,0,1,1.25,2,2.29,2.29,0,0,1-.91,2.61A2.13,2.13,0,0,1,91.9,108.11Zm-5.77-4.54a13.41,13.41,0,0,0,5.15,3,1.46,1.46,0,0,0,1,0,.93.93,0,0,0,.26-1,3.82,3.82,0,0,0-.93-1.39c-1.35-1.47-3.38-3.46-5.46-3.7a1,1,0,0,0-1.25.72c-.27.73.07,1.39,1.2,2.36Z"/><path class="cls-2_baseball-52" d="M84.32,97.93a17.19,17.19,0,0,0,5.88,5.25,2.65,2.65,0,0,0,2,.3,2,2,0,0,0,1.17-2.06,5.31,5.31,0,0,0-.91-2.36c-1.41-2.36-3.5-5.4-6.26-6.31a2.16,2.16,0,0,0-2.78,1C82.44,95.21,83.35,96.69,84.32,97.93Z"/><path class="cls-3_baseball-52" d="M91.6,104.29a4,4,0,0,1-1.71-.46,18,18,0,0,1-6.14-5.45h0c-.69-.88-2.3-2.94-1-5.06a2.87,2.87,0,0,1,3.61-1.26c3,1,5.25,4.26,6.67,6.63a6,6,0,0,1,1,2.68,2.74,2.74,0,0,1-1.65,2.79A2.42,2.42,0,0,1,91.6,104.29Zm-6.72-6.81a16.85,16.85,0,0,0,5.63,5,2,2,0,0,0,1.41.27,1.33,1.33,0,0,0,.68-1.34,4.74,4.74,0,0,0-.81-2c-1.29-2.17-3.31-5.15-5.87-6a1.45,1.45,0,0,0-1.93.64c-.57.92-.31,1.87.89,3.41Z"/><circle class="cls-2_baseball-52" cx="95.91" cy="89.16" r="12.92"/><path class="cls-3_baseball-52" d="M95.9,102.81a13.65,13.65,0,0,1-4.47-26.54,13.52,13.52,0,0,1,10.42.6,13.66,13.66,0,0,1,6.34,18.23h0a13.65,13.65,0,0,1-12.29,7.71Zm0-25.86a12.39,12.39,0,0,0-4,.68,12.2,12.2,0,1,0,15,16.84h0A12.21,12.21,0,0,0,95.92,77Z"/><path class="cls-1_baseball-52" d="M90.58,98.72a.76.76,0,0,1-.32-.08A.71.71,0,0,1,90,97.7c5.46-10.92-.17-17.18-.41-17.44a.7.7,0,1,1,1-1c.27.29,6.55,7.2.64,19A.71.71,0,0,1,90.58,98.72Z"/><path class="cls-1_baseball-52" d="M101.61,97.37a.71.71,0,0,1-.52-.23,19.72,19.72,0,0,1-3.38-18.33.7.7,0,1,1,1.34.39,18.7,18.7,0,0,0,3.08,17,.7.7,0,0,1-.52,1.17Z"/><path class="cls-2_baseball-52" d="M101.61,107.8c0-.5-2-11.13,4.41-17.32,0,0-4-8.44-1.77-9.12s7.33,5.23,7.4,8.06-.16,14,1.4,20.07"/><path class="cls-3_baseball-52" d="M113.05,110.21a.72.72,0,0,1-.7-.54C111,104.56,111,96,111,91.45c0-.86,0-1.55,0-2,0-1.67-2.36-5-4.59-6.63-1.19-.87-1.75-.8-1.89-.75-.59,1.24,1,5.47,2.22,8.11a.73.73,0,0,1-.15.83c-3.64,3.49-5.14,9.3-4.23,16.36a4.11,4.11,0,0,1,0,.44.72.72,0,0,1-1.44,0s0-.15,0-.28c-.94-7.29.58-13.38,4.29-17.21-.83-1.81-3-6.81-2.1-8.76a1.55,1.55,0,0,1,1-.9,3.76,3.76,0,0,1,3.15,1c2.4,1.74,5.12,5.43,5.18,7.76,0,.47,0,1.17,0,2,0,4.2.07,12.93,1.35,17.87a.73.73,0,0,1-.52.88Z"/><path class="cls-2_baseball-52" d="M97.52,73.83s-6-4.79-8.8-2.23-7.21,12.52-3.87,12.86S91.53,77,91.53,77s2.94-.71,3.28-.77"/><path class="cls-3_baseball-52" d="M85.06,85.19h-.28a1.93,1.93,0,0,1-1.69-1.4c-1-2.92,2.65-10.46,5.15-12.71,3.26-3,9.47,2,9.73,2.2a.72.72,0,0,1-.9,1.13c-1.53-1.23-5.91-4-7.86-2.26-2.3,2.07-5.47,9-4.75,11.19.11.31.25.39.47.41,2.08.24,4.73-4.2,5.93-7a.73.73,0,0,1,.5-.42c.49-.12,3-.72,3.33-.78a.72.72,0,0,1,.83.59.72.72,0,0,1-.59.83L92,77.62C91.31,79.25,88.4,85.19,85.06,85.19Z"/><path class="cls-2_baseball-52" d="M106.44,81s-1.87-9-7.71-9.87c-2.58-.41-12.15,14.38-6.56,14.27s9.44-8.92,9.44-8.92"/><path class="cls-3_baseball-52" d="M92.11,86.16A2.17,2.17,0,0,1,90,85c-1.23-2.34,1.72-7.54,3.66-10.25,1.24-1.73,3.52-4.62,5.16-4.35,6.27,1,8.22,10,8.3,10.44a.72.72,0,0,1-1.41.3c0-.09-1.83-8.48-7.11-9.31h0c-.54,0-2.69,1.88-5,5.56s-2.79,6.18-2.35,6.95c0,.1.25.34.85.33,5.06-.1,8.75-8.41,8.79-8.49a.72.72,0,0,1,1.32.58c-.16.37-4.09,9.24-10.08,9.35Z"/><path class="cls-3_baseball-52" d="M91.53,77.72a.73.73,0,0,1-.35-.09.71.71,0,0,1-.28-1,4.64,4.64,0,0,0,.41-3.19.71.71,0,0,1,.47-.9.72.72,0,0,1,.91.47,6.07,6.07,0,0,1-.53,4.32A.71.71,0,0,1,91.53,77.72Z"/><path class="cls-3_baseball-52" d="M117.52,120l-.38.08a68.93,68.93,0,0,1-15.9,8.45l-1,.4c7.41,17.23,20.55,47.49,23.49,52.13,4.13,6.55,19.71,5.32,19.71,5.32l6.7-21.61C142.2,152,126.34,134.69,117.52,120Z"/><path class="cls-3_baseball-52" d="M140.39,187.19c-4.86,0-14.11-.7-17.3-5.75-3-4.65-16-34.72-23.54-52.23a.66.66,0,0,1,0-.55.73.73,0,0,1,.39-.38l.35-.12.69-.27a68.36,68.36,0,0,0,15.74-8.36.68.68,0,0,1,.26-.12l.39-.08a.71.71,0,0,1,.75.32c4.62,7.7,11.2,16.12,17.56,24.26,5.79,7.41,11.25,14.4,15,20.5a.73.73,0,0,1,.07.58l-6.7,21.61a.7.7,0,0,1-.61.49C143.27,187.1,142.1,187.19,140.39,187.19Zm-39.27-57.86c7.55,17.56,20.29,46.85,23.14,51.37,3.49,5.51,16,5.17,18.6,5l6.47-20.85c-3.71-6-9.07-12.84-14.75-20.11-6.24-8-12.7-16.26-17.35-23.89a70.27,70.27,0,0,1-15.74,8.31Z"/><path class="cls-3_baseball-52" d="M85.08,391a61.34,61.34,0,0,0-9,11.26c-3.34,5.78-7.68,15.47-8,23.16l33.08-2,1.34-22.05Z"/><path class="cls-3_baseball-52" d="M68,426.14a.68.68,0,0,1-.49-.2.69.69,0,0,1-.21-.52c.33-7.53,4.4-17.07,8.11-23.48a60.79,60.79,0,0,1,9.14-11.41.7.7,0,0,1,.84-.1l17.38,10.36a.71.71,0,0,1,.34.64l-1.34,22.05a.71.71,0,0,1-.65.66l-33.08,2ZM85.18,391.9a59.93,59.93,0,0,0-8.52,10.74c-3.5,6.05-7.33,14.91-7.88,22.06l31.68-1.92,1.27-21Z"/><path class="cls-4_baseball-52 targetColor" d="M205.56,260.72s-66.8,67.27-77.49,82v24.5h25.84L247,303l63.26,29.85,19.16,19.6,22.9,3.86,7.5-26.65s-11.69-20.42-15.25-24-67.72-56.58-67.72-56.58Z" style="fill: rgb(104, 225, 253);"/><path class="cls-4_baseball-52 targetColor" d="M297.13,155.26s-60.25-2.71-73.29-2c-25.41-6-80.13,0-80.13,0a39.18,39.18,0,0,1,.59,17.31C142,182.16,138.24,189,138.24,189l37,2.68s24.46,57.47,30.27,69.06l71.31-11.59c-.84-43.89-10.51-59.53-10.51-59.53l29.21.25s6.11-2.59,8.13-17.77C305.28,160.25,297.13,155.26,297.13,155.26Z" style="fill: rgb(104, 225, 253);"/><path class="cls-3_baseball-52" d="M240,257.11a.72.72,0,0,1-.72-.7c-.5-18.08-22.86-89.4-23.09-90.12a.72.72,0,1,1,1.38-.44c.92,2.94,22.65,72.24,23.15,90.52a.71.71,0,0,1-.7.74Z"/><polygon class="cls-3_baseball-52" points="201.8 258.94 278.2 244.9 278.2 254.93 201.8 262.72 201.8 258.94"/><path class="cls-3_baseball-52" d="M201.8,263.42a.74.74,0,0,1-.47-.18.72.72,0,0,1-.23-.52v-3.79a.7.7,0,0,1,.57-.68l76.41-14a.66.66,0,0,1,.57.15.69.69,0,0,1,.25.53v10a.7.7,0,0,1-.62.69l-76.41,7.79Zm.7-3.9V262l75-7.65v-8.56Z"/><path class="cls-2_baseball-52" d="M128.07,342.69,85.08,391s4.67,15,17.37,10.36l51.46-34.2s-5.5.54-15.67-8.47S128.07,342.69,128.07,342.69Z"/><path class="cls-3_baseball-52" d="M97.75,403a11.08,11.08,0,0,1-5-1.16c-5.92-2.92-8.28-10.29-8.37-10.61a.7.7,0,0,1,.15-.69l43-48.34a.72.72,0,0,1,1.26.48c0,.1.2,6.88,9.92,15.49s15.09,8.3,15.13,8.3a.73.73,0,0,1,.75.48.74.74,0,0,1-.28.84L102.85,402l-.15.08A14.32,14.32,0,0,1,97.75,403ZM85.9,391.19c.55,1.51,2.86,7.08,7.51,9.37a10.76,10.76,0,0,0,8.71.18l49.74-33.05c-2.54-.57-7.33-2.42-14.1-8.43-7.52-6.65-9.61-12.26-10.19-14.92Zm42.89-48.5h0Z"/><path class="cls-3_baseball-52" d="M376.11,403.73s2.78,13.36,5.68,15.14,66.38,7.58,63.93,2-51.9-31.19-51.9-31.19l-8.78,7Z"/><path class="cls-3_baseball-52" d="M432.53,423.89c-18.44,0-49.11-3.19-51.11-4.42-3.06-1.89-5.7-14.2-6-15.6a.72.72,0,0,1,.25-.69l17.71-14a.72.72,0,0,1,.76-.08c5.08,2.64,49.74,25.9,52.22,31.53a1.41,1.41,0,0,1-.41,1.68C444.61,423.44,439.42,423.89,432.53,423.89ZM376.88,404c1.09,5.09,3.4,13.13,5.27,14.28,2.51,1.47,52.4,6.28,61.91,3.39.91-.28,1-.51,1-.52-1.73-3.89-31.41-20.36-51.21-30.63Z"/><path class="cls-2_baseball-52" d="M294,253.44s18,10.61,38.11,4.3"/><path class="cls-3_baseball-52" d="M318.9,260.42a55.32,55.32,0,0,1-25.27-6.37.7.7,0,0,1-.25-1,.69.69,0,0,1,1-.25c.18.1,18,10.37,37.54,4.24a.7.7,0,1,1,.41,1.33A44.31,44.31,0,0,1,318.9,260.42Z"/><path class="cls-3_baseball-52" d="M187.59,191.86h0l-46.64-2a.71.71,0,0,1-.69-.75.7.7,0,0,1,.75-.69l46.65,2a.72.72,0,0,1,0,1.44Z"/><path class="cls-3_baseball-52" d="M276.24,236.79a.73.73,0,0,1-.72-.63c-6.26-53.4-20.46-66.51-20.6-66.63a.73.73,0,0,1,1-1.09c.6.53,14.75,13.6,21.08,67.55a.73.73,0,0,1-.63.8Z"/><path class="cls-3_baseball-52" d="M313.3,333.82a18.76,18.76,0,0,1-3.14-.22.72.72,0,0,1,.24-1.42,27.53,27.53,0,0,0,20.71-6.41.72.72,0,0,1,.93,1.11A29,29,0,0,1,313.3,333.82Z"/><path class="cls-2_baseball-52" d="M329.44,352.49l46.67,51.24s5.31,2.84,12.25-3,5.46-11.06,5.46-11.06l-35.88-63.27s-3.1,14.67-10.86,19.67C336,353.24,329.44,352.49,329.44,352.49Z"/><path class="cls-3_baseball-52" d="M379.57,405.15a8.54,8.54,0,0,1-3.8-.79.75.75,0,0,1-.2-.15L328.9,353a.73.73,0,0,1,.62-1.21c.06,0,6.49.6,17.17-6.29,7.42-4.78,10.52-19.06,10.55-19.2a.72.72,0,0,1,.59-.57.74.74,0,0,1,.74.36l35.87,63.27a.51.51,0,0,1,.07.15c.07.24,1.54,5.77-5.68,11.82C385.16,404.38,381.91,405.15,379.57,405.15Zm-3-2c.74.34,5.33,2.1,11.35-2.94s5.38-9.58,5.24-10.24l-34.93-61.6c-1.11,4.13-4.38,14.23-10.73,18.34-8,5.18-13.75,6.29-16.42,6.5Z"/><path class="cls-3_baseball-52" d="M200.89,163.47s4.18,15.43,12.46,22.14,15.7,7.48,17.41-1.58-3-18.53-3-18.53Z"/><path class="cls-3_baseball-52" d="M224.3,191.43c-3.16,0-7.1-1.81-11.39-5.28-8.35-6.77-12.52-21.86-12.69-22.5a.71.71,0,0,1,.13-.63.77.77,0,0,1,.59-.25l26.82,2a.69.69,0,0,1,.57.38c.2.4,4.85,9.78,3.12,19-.69,3.65-2.29,6-4.76,6.86A6.85,6.85,0,0,1,224.3,191.43Zm-22.45-27.19c1.06,3.44,5.11,15.29,11.94,20.82,5.05,4.09,9.46,5.75,12.42,4.65,2-.72,3.27-2.68,3.87-5.81,1.46-7.76-2-16-2.83-17.74Z"/><path class="cls-2_baseball-52" d="M228,110.69c-.35-.54-.71-1.08-1.1-1.6-4.37-5.9-15.64-3.72-21.56-1.89-5.52,1.7-10.92,4.28-14.89,8.47-7.93,8.36-5.35,23.41-.52,32.86.14.29.29.64.1.9a.88.88,0,0,1-.58.27l-2.64.47a4.27,4.27,0,0,0,1.79,2.43c5.85,4.6,14.05,5.53,21.21,3.51,10.07-2.83,22.68-12.41,23.21-23.77C233.39,124.92,232.07,117.05,228,110.69Z"/><path class="cls-3_baseball-52" d="M202.62,157.84a23.39,23.39,0,0,1-14.43-4.67,4.92,4.92,0,0,1-2.06-2.88.71.71,0,0,1,.58-.83l2.64-.47h0a.66.66,0,0,0-.06-.12c-5.27-10.33-7.33-25.29.65-33.69,3.59-3.79,8.56-6.62,15.2-8.66,4-1.22,17.29-4.68,22.35,2.15.4.54.77,1.09,1.13,1.64h0c4.74,7.47,5.41,16.12,5.13,22.07-.34,7.47-7.94,20-23.74,24.44A27.42,27.42,0,0,1,202.62,157.84Zm-14.8-7.11a5,5,0,0,0,1.26,1.3c5.3,4.17,13.18,5.47,20.56,3.39,10.53-3,22.2-12.65,22.69-23.11.26-5.74-.37-14.09-4.91-21.23h0c-.34-.53-.69-1-1.07-1.56-4.5-6.07-17-2.78-20.77-1.63-6.39,2-11.16,4.67-14.58,8.28-7.15,7.54-5.61,21.82-.4,32a1.56,1.56,0,0,1,.05,1.64,1.54,1.54,0,0,1-1.05.56Z"/><path class="cls-2_baseball-52" d="M225.69,151l2,14.51s-3.81,9.29-13.36,7.64a19.28,19.28,0,0,1-13.46-9.67l-1.66-26.54s6.72-4.18,3.66-19.18c0,0,8.7-2.06,22.56-4.77,0,0,7.46,22.67,6.81,30S225.69,151,225.69,151Z"/><path class="cls-3_baseball-52" d="M216.56,174.06a12.77,12.77,0,0,1-2.33-.21,19.86,19.86,0,0,1-14-10.07.77.77,0,0,1-.07-.27L198.51,137a.7.7,0,0,1,.34-.66c.06,0,6.24-4.19,3.34-18.43a.72.72,0,0,1,.54-.85c.08,0,8.86-2.09,22.58-4.77a.72.72,0,0,1,.82.48c.31.93,7.5,22.9,6.85,30.32-.55,6.26-4.76,8-6.48,8.48l1.93,13.85a.79.79,0,0,1-.05.37C228.34,165.86,224.88,174.06,216.56,174.06Zm-15-10.79a18.76,18.76,0,0,0,12.87,9.16c8.25,1.43,11.93-5.78,12.5-7l-2-14.3a.77.77,0,0,1,.15-.55.73.73,0,0,1,.49-.27h0c.22,0,5.35-.68,5.93-7.33.57-6.46-5.41-25.48-6.58-29.13-11.19,2.2-19,4-21.22,4.48,2.44,13-2.36,17.86-3.77,19Z"/><path class="cls-2_baseball-52" d="M204.71,136.1a6.14,6.14,0,0,0-2.3-3.14,10.82,10.82,0,0,0-3.41-1.44,4.6,4.6,0,0,0-2-.23,3.71,3.71,0,0,0-1.3.58,4.76,4.76,0,0,0-2.11,2.53,5.7,5.7,0,0,0,.06,2.69,11.62,11.62,0,0,0,.91,2.82,7.48,7.48,0,0,0,10.12,3.22"/><path class="cls-3_baseball-52" d="M201.19,144.71a8,8,0,0,1-2.47-.39,8.22,8.22,0,0,1-4.81-4.09,11.91,11.91,0,0,1-1-3,6.36,6.36,0,0,1,0-3,5.43,5.43,0,0,1,2.41-2.94,4.32,4.32,0,0,1,1.56-.67,5.06,5.06,0,0,1,2.33.23,11.27,11.27,0,0,1,3.63,1.55,6.88,6.88,0,0,1,2.58,3.51.73.73,0,0,1-.47.91.73.73,0,0,1-.91-.47,5.37,5.37,0,0,0-2-2.77,10.07,10.07,0,0,0-3.18-1.33,3.94,3.94,0,0,0-1.68-.22,3,3,0,0,0-1,.48,4.1,4.1,0,0,0-1.8,2.12,4.82,4.82,0,0,0,.07,2.35,10,10,0,0,0,.85,2.63,6.73,6.73,0,0,0,9.14,2.91.72.72,0,0,1,.67,1.28A8.24,8.24,0,0,1,201.19,144.71Z"/><path class="cls-3_baseball-52" d="M226.36,158.22a12.28,12.28,0,0,1-9.84-2.49c-4.41-3.72-4.21-6.06-4.21-6.06s6.93,3.22,13,1.57Z"/><path class="cls-3_baseball-52" d="M224.17,159.12a12.46,12.46,0,0,1-8.1-2.86c-4.55-3.84-4.47-6.37-4.45-6.65a.68.68,0,0,1,.35-.54.66.66,0,0,1,.64,0c.07,0,6.77,3.09,12.53,1.53a.66.66,0,0,1,.56.09.69.69,0,0,1,.31.48l1,7a.69.69,0,0,1-.53.78A11.37,11.37,0,0,1,224.17,159.12Zm-10.85-8.29a12.59,12.59,0,0,0,3.65,4.36,11.46,11.46,0,0,0,8.59,2.45l-.82-5.55C220.24,153,215.53,151.65,213.32,150.83Z"/><path class="cls-3_baseball-52" d="M221.63,138.9a8.89,8.89,0,0,1-1.46-.11.7.7,0,0,1-.59-.79.72.72,0,0,1,.8-.59c1,.14,3.13.18,3.72-.61.21-.69-1.93-4.14-4.6-7.36a.7.7,0,0,1,1.08-.89c2.24,2.71,5.83,7.49,4.65,9.09C224.45,138.68,222.84,138.9,221.63,138.9Z"/><ellipse class="cls-3_baseball-52" cx="211.69" cy="129.64" rx="1.22" ry="1.72" transform="translate(-29.8 72.2) rotate(-18.1)"/><ellipse class="cls-3_baseball-52" cx="224.48" cy="128.43" rx="1.22" ry="1.72" transform="translate(-28.79 76.11) rotate(-18.1)"/><path class="cls-3_baseball-52" d="M220.2,146.6c-6.28,0-11.15-6.43-11.21-6.51a.7.7,0,0,1,.15-1,.69.69,0,0,1,1,.14c.3.41,7.4,9.76,15.14,4.2a.68.68,0,0,1,1,.16.7.7,0,0,1-.16,1A9.87,9.87,0,0,1,220.2,146.6Z"/><path class="cls-2_baseball-52" d="M184.42,129.59l46.34-15.12s-2-20.14-27.7-15.6S184.42,129.59,184.42,129.59Z"/><path class="cls-3_baseball-52" d="M184.42,130.31a.71.71,0,0,1-.7-.53c-.13-.5-3.24-12.34,2.68-21.65,3.34-5.27,8.9-8.62,16.53-10,8.94-1.58,16.06-.41,21.18,3.48a19.7,19.7,0,0,1,7.37,12.76.72.72,0,0,1-.5.76l-46.33,15.12A.91.91,0,0,1,184.42,130.31Zm25.76-31.39a40.31,40.31,0,0,0-7,.66c-7.21,1.27-12.45,4.41-15.57,9.32-4.76,7.5-3.23,17-2.66,19.76L230,114a18.63,18.63,0,0,0-6.74-11.21C219.83,100.21,215.46,98.92,210.18,98.92Z"/><path class="cls-2_baseball-52" d="M199.71,124.61s11.84,3.64,20.66.76c0,0,4.76-10.47,21.2-7.76l-12-7.62S213.62,102.82,199.71,124.61Z"/><path class="cls-3_baseball-52" d="M212.45,127.21a49.43,49.43,0,0,1-13-1.91.73.73,0,0,1-.46-.45.7.7,0,0,1,.07-.63c14.08-22.06,30.57-15,30.73-14.89L242,117a.72.72,0,0,1-.51,1.32c-15.65-2.57-20.23,6.94-20.42,7.35a.75.75,0,0,1-.43.39A26.77,26.77,0,0,1,212.45,127.21Zm-11.6-3c2.89.76,12,2.78,19,.6.9-1.62,5.8-9.15,18.63-8.25l-9.35-5.92C228.62,110.37,214.1,104.19,200.85,124.17Z"/><path class="cls-1_baseball-52" d="M377.14,398.38a.69.69,0,0,1-.53-.24c-36.56-41.5-36.74-42-36.8-42.22a.71.71,0,0,1,.45-.89.7.7,0,0,1,.83.33c1,1.42,26.71,30.66,36.57,41.85a.7.7,0,0,1-.06,1A.69.69,0,0,1,377.14,398.38Z"/><path class="cls-1_baseball-52" d="M385,397.35a.69.69,0,0,1-.56-.27l-34.11-44.7a.7.7,0,1,1,1.11-.85l34.11,44.7a.69.69,0,0,1-.13,1A.75.75,0,0,1,385,397.35Z"/><path class="cls-1_baseball-52" d="M387.58,390.39a.7.7,0,0,1-.59-.33l-28.78-46.81a.7.7,0,1,1,1.19-.73l28.78,46.81a.7.7,0,0,1-.23,1A.71.71,0,0,1,387.58,390.39Z"/><path class="cls-1_baseball-52" d="M90.17,391.73a.7.7,0,0,1-.5-.21.7.7,0,0,1,0-1L127.32,353a.7.7,0,0,1,1,1L90.66,391.53A.7.7,0,0,1,90.17,391.73Z"/><path class="cls-1_baseball-52" d="M94.11,395.42a.69.69,0,0,1-.53-.25.71.71,0,0,1,.08-1l39.62-33.31a.7.7,0,0,1,1,.09.71.71,0,0,1-.08,1L94.56,395.26A.69.69,0,0,1,94.11,395.42Z"/><path class="cls-1_baseball-52" d="M99,398.38a.71.71,0,0,1-.41-1.28l40.61-28.77a.7.7,0,0,1,.81,1.14L99.44,398.25A.73.73,0,0,1,99,398.38Z"/><path class="cls-1_baseball-52" d="M215.35,108.17a3.83,3.83,0,1,1,3.83-3.83A3.83,3.83,0,0,1,215.35,108.17Zm0-6.25a2.43,2.43,0,1,0,2.43,2.42A2.42,2.42,0,0,0,215.35,101.92Z"/></g></svg>