<svg version="1.1" id="Layer_1" xmlns="http://www.w3.org/2000/svg" xmlns:xlink="http://www.w3.org/1999/xlink" x="0px" y="0px" viewBox="0 0 500 500" style="width: 188px;" xml:space="preserve" data-imageid="boss-39" imageName="Boss" class="illustrations_image">
<style type="text/css">
	.st0_boss-39{fill:#093F68;}
	.st1_boss-39{fill:#68E1FD;}
	.st2_boss-39{fill:#725858;}
	.st3_boss-39{fill:#FFFFFF;}
	.st4_boss-39{fill:#F56132;}
	.st5_boss-39{fill:#FFC9B0;}
	.st6_boss-39{fill:#E28362;}
	.st7_boss-39{fill:#FFBC0E;}
</style>
<g id="chair_boss-39">
	<path class="st0_boss-39" d="M170.6,168.3h158.7c34.9,0,62,29.1,58,62.3l-17.2,143H129.8l-17.2-143C108.6,197.4,135.7,168.3,170.6,168.3z"/>
	<path class="st0_boss-39" d="M370.2,375.4H129.8c-0.9,0-1.7-0.7-1.8-1.6l-17.2-143c-2-16,3.1-32,13.9-44c11.7-13,28.4-20.4,45.9-20.3h158.7&#10;&#9;&#9;c17.5-0.1,34.2,7.3,45.9,20.3c10.8,12,15.9,28,13.9,44l-17.2,143C371.9,374.8,371.1,375.4,370.2,375.4z M131.4,371.8h237.3&#10;&#9;&#9;l17-141.4c1.8-15-2.9-30-13-41.2c-11-12.3-26.7-19.2-43.2-19.1H170.6c-16.5-0.1-32.2,6.9-43.2,19.1c-10.1,11.2-14.8,26.2-13,41.1&#10;&#9;&#9;L131.4,371.8z"/>
</g>
<g id="character_boss-39">
	<path class="st1_boss-39 targetColor" d="M218.6,259.5h62.8c34.5,0,62.4,28,62.4,62.4c0,0,0,0,0,0v77l0,0H156.2l0,0v-77&#10;&#9;&#9;C156.1,287.5,184.1,259.6,218.6,259.5C218.6,259.5,218.6,259.5,218.6,259.5z" style="fill: rgb(104, 225, 253);"/>
	<path class="st0_boss-39" d="M343.8,400.7H156.2c-1,0-1.8-0.8-1.8-1.8v-77.4c0-35.2,28.6-63.7,63.8-63.8h63.7c35.2,0,63.7,28.6,63.8,63.8&#10;&#9;&#9;v77.4C345.6,399.9,344.8,400.7,343.8,400.7L343.8,400.7z M158,397.1h184v-75.6c0-33.2-27-60.2-60.2-60.2h-63.7&#10;&#9;&#9;c-33.2,0.1-60.1,27-60.1,60.2V397.1z"/>
	<path class="st2_boss-39" d="M319.5,168.3c0,0,11.4-38.8,6.9-52.1c-1.6-4.9-5.8-8.6-11-9.5c0,0-8.1-19.2-35.8-23.7s-94.8,19.6-111.7,5&#10;&#9;&#9;c0,0-6.9,17.8,11.4,33.3c-4.1,29,3.6,44.9,3.6,44.9L319.5,168.3z"/>
	<path class="st0_boss-39" d="M319.5,170.1L319.5,170.1l-136.4-2.1c-0.7,0-1.3-0.4-1.6-1c-0.3-0.7-7.8-16.4-4-45&#10;&#9;&#9;c-18.1-16-11.2-34.5-11.2-34.7c0.2-0.5,0.7-1,1.2-1.1c0.6-0.1,1.2,0,1.6,0.4c9.1,7.9,35.4,3.4,60.9-0.9c19.5-3.3,37.9-6.5,49.9-4.5&#10;&#9;&#9;c25.2,4.2,34.7,19.9,36.7,23.9c5.4,1.3,9.7,5.2,11.4,10.5c4.7,13.7-6.3,51.6-6.8,53.2C321,169.6,320.3,170.1,319.5,170.1z&#10;&#9;&#9; M184.3,164.5l133.9,2c1.9-6.8,10.4-38.4,6.5-49.7c-1.4-4.3-5-7.5-9.5-8.3c-0.6-0.1-1.2-0.5-1.4-1.1c-0.1-0.2-8.1-18.3-34.4-22.7&#10;&#9;&#9;c-11.4-1.8-30.4,1.4-48.7,4.5c-25.7,4.4-50,8.5-61.6,1.7c-1.1,5.1-1.9,17.6,11.5,29c0.5,0.4,0.7,1,0.6,1.6&#10;&#9;&#9;C177.8,145.6,182.8,160.6,184.3,164.5L184.3,164.5z"/>
	<path class="st0_boss-39" d="M250,400.7c-1,0-1.8-0.8-1.8-1.8V349c0-1,0.8-1.8,1.8-1.8s1.8,0.8,1.8,1.8v49.9&#10;&#9;&#9;C251.8,399.9,251,400.7,250,400.7L250,400.7z"/>
	<polygon class="st3_boss-39" points="289.5,259.5 262.7,337.1 250,374 237.3,337.1 210.5,259.5 &#9;"/>
	<path class="st0_boss-39" d="M250,375.8c-0.8,0-1.5-0.5-1.7-1.2l-39.5-114.4c-0.3-0.9,0.2-2,1.1-2.3c0.2-0.1,0.4-0.1,0.6-0.1h78.9&#10;&#9;&#9;c1,0,1.8,0.8,1.8,1.8c0,0.2,0,0.4-0.1,0.6l-39.5,114.4C251.5,375.3,250.8,375.8,250,375.8z M213.1,261.3L250,368.4l36.9-107.1&#10;&#9;&#9;H213.1z"/>
	<polygon class="st4_boss-39" points="255.4,280.5 244.6,280.5 235.2,246.6 264.8,246.6 &#9;"/>
	<path class="st0_boss-39" d="M255.4,282.3h-10.8c-0.8,0-1.5-0.5-1.7-1.3l-9.4-33.8c-0.2-0.5,0-1.1,0.3-1.6c0.3-0.4,0.9-0.7,1.4-0.7h29.6&#10;&#9;&#9;c1,0,1.8,0.8,1.8,1.8c0,0.2,0,0.3-0.1,0.5l-9.4,33.9C256.9,281.8,256.2,282.3,255.4,282.3z M246,278.7h8l8.4-30.2h-24.8L246,278.7z&#10;&#9;&#9;"/>
	<polygon class="st4_boss-39" points="262.7,337.1 250,374 237.3,337.1 244.6,280.5 255.4,280.5 &#9;"/>
	<path class="st0_boss-39" d="M250,375.8c-0.8,0-1.5-0.5-1.7-1.2l-12.7-36.9c-0.1-0.3-0.1-0.5-0.1-0.8l7.3-56.6c0.1-0.9,0.9-1.6,1.8-1.6&#10;&#9;&#9;h10.8c0.9,0,1.7,0.7,1.8,1.6l7.3,56.6c0,0.3,0,0.6-0.1,0.8l-12.7,36.9C251.5,375.3,250.8,375.8,250,375.8z M239.1,336.9l10.9,31.5&#10;&#9;&#9;l10.9-31.6l-7.1-54.6h-7.6L239.1,336.9z"/>
	<ellipse class="st5_boss-39" cx="193.1" cy="172.7" rx="19.5" ry="18.8"/>
	<path class="st0_boss-39" d="M193.1,193.3c-11.8,0-21.3-9.2-21.3-20.6s9.6-20.6,21.3-20.6s21.3,9.2,21.3,20.6S204.9,193.3,193.1,193.3z&#10;&#9;&#9; M193.1,155.7c-9.8,0-17.7,7.6-17.7,17s7.9,17,17.7,17s17.7-7.6,17.7-17S202.9,155.7,193.1,155.7z"/>
	<ellipse class="st5_boss-39" cx="306.9" cy="172.7" rx="19.5" ry="18.8"/>
	<path class="st0_boss-39" d="M306.9,193.3c-11.8,0-21.3-9.2-21.3-20.6s9.6-20.6,21.3-20.6s21.3,9.2,21.3,20.6S318.6,193.3,306.9,193.3z&#10;&#9;&#9; M306.9,155.7c-9.8,0-17.7,7.6-17.7,17s7.9,17,17.7,17s17.7-7.6,17.7-17S316.6,155.7,306.9,155.7z"/>
	<path class="st5_boss-39" d="M288.3,116.2c12.3,0,22.2,10,22.2,22.2v0v60.1c0,32-25.9,57.9-57.9,57.9h-5.3c-32,0-57.9-25.9-57.9-57.9l0,0&#10;&#9;&#9;v-60.1c0-12.3,10-22.2,22.2-22.2L288.3,116.2z"/>
	<path class="st0_boss-39" d="M252.7,258.3h-5.3c-32.9,0-59.7-26.7-59.7-59.7v-60.1c0-13.2,10.8-24,24-24h76.6c13.2,0,24,10.8,24,24v60.1&#10;&#9;&#9;C312.2,231.5,285.6,258.2,252.7,258.3z M211.7,118c-11.3,0-20.4,9.1-20.4,20.4v60.2c0,31,25.1,56.1,56.1,56.1h5.3&#10;&#9;&#9;c31,0,56-25.1,56.1-56.1v-60.1c0-11.3-9.1-20.5-20.4-20.5l0,0H211.7z"/>
	<polygon class="st3_boss-39" points="220.1,242 210.5,259.5 219.2,284.7 246.7,250 &#9;"/>
	<path class="st0_boss-39" d="M219.2,286.5h-0.3c-0.6-0.1-1.2-0.6-1.4-1.2l-8.7-25.2c-0.2-0.5-0.1-1,0.1-1.5l9.5-17.5&#10;&#9;&#9;c0.4-0.8,1.3-1.1,2.1-0.9l26.6,8c0.6,0.2,1,0.6,1.2,1.2c0.2,0.6,0.1,1.2-0.3,1.7l-27.4,34.7C220.3,286.3,219.8,286.5,219.2,286.5z&#10;&#9;&#9; M212.5,259.7l7.4,21.3l23.8-30l-22.6-6.8L212.5,259.7z"/>
	<polygon class="st3_boss-39" points="279.9,242 289.5,259.5 280.8,284.7 253.4,250 &#9;"/>
	<path class="st0_boss-39" d="M280.8,286.5c-0.6,0-1.1-0.3-1.4-0.7l-27.4-34.7c-0.6-0.8-0.5-1.9,0.3-2.5c0.2-0.1,0.4-0.2,0.6-0.3l26.6-8&#10;&#9;&#9;c0.8-0.3,1.7,0.1,2.1,0.9l9.5,17.5c0.2,0.4,0.3,1,0.1,1.5l-8.7,25.2c-0.2,0.6-0.8,1.1-1.4,1.2L280.8,286.5z M256.4,251l23.8,30&#10;&#9;&#9;l7.4-21.3l-8.5-15.5L256.4,251z"/>
	<path class="st6_boss-39" d="M310.5,177.2v21.4c0,32-25.9,57.9-57.9,57.9h-5.3c-32,0-57.9-25.9-57.9-57.9l0,0v-21.5&#10;&#9;&#9;c6.7,7.5,16.7,16.9,25.4,16.9c14.6,0,12.8-13.4,38.3-10.3s25,15.8,34.1,14C292.3,196.7,302.4,186.3,310.5,177.2z"/>
	<path class="st0_boss-39" d="M252.7,258.3h-5.3c-32.9,0-59.7-26.7-59.7-59.7v-21.5c0-1,0.8-1.8,1.8-1.8c0.5,0,1,0.2,1.3,0.6&#10;&#9;&#9;c9.3,10.5,17.8,16.3,24.1,16.3c5.4,0,8.3-2,11.7-4.4c5.2-3.7,11.1-7.8,26.9-5.9c15.4,1.8,21.8,7.2,26.1,10.8&#10;&#9;&#9;c3.1,2.6,4.6,3.8,7.4,3.2c2.1-0.4,7.7-3.6,22.3-19.9c0.7-0.7,1.8-0.8,2.5-0.1c0.4,0.3,0.6,0.8,0.6,1.3v21.4&#10;&#9;&#9;C312.3,231.5,285.6,258.3,252.7,258.3z M191.3,181.8v16.8c0,31,25.1,56.1,56.1,56.1h5.3c31,0,56-25.1,56.1-56.1v-16.7&#10;&#9;&#9;c-15,16.4-19.6,17.3-21.1,17.6c-4.6,0.9-7.4-1.3-10.5-4c-4.1-3.5-9.8-8.3-24.2-10s-19.4,1.9-24.4,5.3c-3.5,2.5-7.2,5-13.8,5&#10;&#9;&#9;C206.9,195.9,198.1,188.8,191.3,181.8L191.3,181.8z"/>
	<path class="st5_boss-39" d="M249.2,158.1c0,0-13.1,31-3,30.1c10.1-0.9,11.6-7.9,11.6-7.9"/>
	<path class="st0_boss-39" d="M245.7,190.1c-1.5,0.1-3-0.6-3.9-1.9c-4.4-6,3.9-26.7,5.7-30.8c0.4-0.9,1.4-1.3,2.4-1s1.3,1.4,1,2.4&#10;&#9;&#9;c-3.9,9.4-8.4,24-6.1,27.2c0.1,0.2,0.3,0.5,1.2,0.4c8.5-0.8,9.9-6.3,10-6.5c0.2-1,1.2-1.6,2.2-1.4c1,0.2,1.6,1.2,1.4,2.2l0,0&#10;&#9;&#9;c-0.1,0.3-1.9,8.3-13.2,9.3C246.1,190.1,245.9,190.1,245.7,190.1z"/>
	<path class="st0_boss-39" d="M252.8,217c-8.9-0.1-17.6-3-24.9-8.2c-0.8-0.6-0.9-1.8-0.3-2.5c0,0,0,0,0,0c0.6-0.8,1.7-0.9,2.5-0.3&#10;&#9;&#9;c0.8,0.6,18.9,14.6,40,2.8c0.9-0.5,2-0.1,2.4,0.7c0.5,0.9,0.2,1.9-0.7,2.4C266.1,215.2,259.5,217,252.8,217z"/>
	<circle class="st0_boss-39" cx="220.3" cy="166.3" r="5.8"/>
	<circle class="st0_boss-39" cx="279.7" cy="166.3" r="5.8"/>
	<path class="st0_boss-39" d="M230.1,150.8h-26.7c-1.6,0-2.9-1.3-2.9-2.9s1.3-2.9,2.9-2.9h26.7c1.6,0,2.9,1.3,2.9,2.9&#10;&#9;&#9;S231.7,150.8,230.1,150.8L230.1,150.8z"/>
	<path class="st0_boss-39" d="M296.5,150.8h-26.7c-1.6,0-2.9-1.3-2.9-2.9s1.3-2.9,2.9-2.9h26.7c1.6,0,2.9,1.3,2.9,2.9&#10;&#9;&#9;S298.1,150.8,296.5,150.8z"/>
	<rect x="273.3" y="338.7" class="st7_boss-39" width="28.1" height="10.3"/>
	<path class="st0_boss-39" d="M301.4,350.8h-28.1c-1,0-1.8-0.8-1.8-1.8v-10.3c0-1,0.8-1.8,1.8-1.8h28.1c1,0,1.8,0.8,1.8,1.8V349&#10;&#9;&#9;C303.2,350,302.4,350.8,301.4,350.8z M275.1,347.2h24.5v-6.7h-24.5L275.1,347.2z"/>
	<path class="st0_boss-39" d="M189.5,400.7c-1,0-1.8-0.8-1.8-1.8c0,0,0,0,0,0v-87.7c0-1,0.8-1.8,1.8-1.8s1.8,0.8,1.8,1.8v87.7&#10;&#9;&#9;C191.3,399.9,190.5,400.7,189.5,400.7z"/>
	<path class="st0_boss-39" d="M310.5,400.7c-1,0-1.8-0.8-1.8-1.8v-87.7c0-1,0.8-1.8,1.8-1.8c1,0,1.8,0.8,1.8,1.8v87.7&#10;&#9;&#9;C312.3,399.9,311.5,400.7,310.5,400.7C310.6,400.7,310.5,400.7,310.5,400.7z"/>
</g>
<g id="table_boss-39">
	<path class="st3_boss-39" d="M76.9,357.9h346.2c5.1,0,9.2,4.1,9.2,9.2v41.2c0,5.1-4.1,9.2-9.2,9.2H76.9c-5.1,0-9.2-4.1-9.2-9.2v-41.2&#10;&#9;&#9;C67.7,362.1,71.8,357.9,76.9,357.9z"/>
	<path class="st0_boss-39" d="M422.1,419.4H77.9c-6.6,0-12-5.4-12-12v-39.2c0-6.6,5.4-12,12-12h344.1c6.6,0,12,5.4,12,12v39.2&#10;&#9;&#9;C434.1,414,428.7,419.3,422.1,419.4z M77.9,359.7c-4.7,0-8.4,3.8-8.4,8.4v39.2c0,4.7,3.8,8.4,8.4,8.4h344.1c4.7,0,8.4-3.8,8.4-8.4&#10;&#9;&#9;v-39.2c0-4.7-3.8-8.4-8.4-8.4H77.9z"/>
	<rect x="321.5" y="349" class="st3_boss-39" width="88.3" height="41.9"/>
	<path class="st0_boss-39" d="M409.8,392.7h-88.3c-1,0-1.8-0.8-1.8-1.8V349c0-1,0.8-1.8,1.8-1.8h88.3c1,0,1.8,0.8,1.8,1.8v41.9&#10;&#9;&#9;C411.5,391.9,410.7,392.7,409.8,392.7z M323.3,389.1H408v-38.3h-84.7V389.1z"/>
	<path class="st0_boss-39" d="M332,362.7h6.3c0.7,0,1.5,0.1,2.2,0.1c0.7,0.1,1.4,0.3,2,0.6c0.6,0.3,1.1,0.8,1.4,1.3c0.4,0.7,0.6,1.4,0.5,2.2&#10;&#9;&#9;c0,0.9-0.3,1.7-0.8,2.4c-0.6,0.6-1.3,1.1-2.1,1.4v0c0.5,0.1,1,0.2,1.5,0.5c0.4,0.2,0.8,0.5,1.2,0.9c0.3,0.4,0.6,0.8,0.8,1.3&#10;&#9;&#9;c0.2,0.5,0.3,1,0.3,1.5c0,0.8-0.2,1.6-0.6,2.2c-0.4,0.6-0.9,1.1-1.5,1.4c-0.6,0.4-1.3,0.6-2,0.8c-0.7,0.2-1.5,0.2-2.3,0.2h-7V362.7&#10;&#9;&#9;z M335.7,369.4h2.7c0.3,0,0.6,0,0.9-0.1c0.3-0.1,0.5-0.2,0.8-0.3c0.2-0.1,0.4-0.3,0.5-0.6c0.1-0.3,0.2-0.6,0.2-0.9&#10;&#9;&#9;c0-0.3-0.1-0.6-0.2-0.9c-0.1-0.2-0.3-0.4-0.6-0.5c-0.3-0.1-0.5-0.2-0.8-0.3c-0.3-0.1-0.6-0.1-0.9-0.1h-2.5L335.7,369.4z&#10;&#9;&#9; M335.7,376.4h3.3c0.3,0,0.6,0,0.9-0.1c0.3-0.1,0.6-0.2,0.8-0.3c0.2-0.2,0.4-0.4,0.6-0.6c0.2-0.3,0.2-0.6,0.2-0.9&#10;&#9;&#9;c0-0.4-0.1-0.7-0.3-1c-0.2-0.2-0.5-0.4-0.8-0.6c-0.3-0.1-0.7-0.2-1-0.3c-0.3,0-0.7-0.1-1-0.1h-2.8L335.7,376.4z"/>
	<path class="st0_boss-39" d="M349,371.1c0-1.3,0.2-2.5,0.7-3.7c0.4-1.1,1.1-2,1.9-2.8c0.8-0.8,1.8-1.4,2.9-1.8c2.4-0.8,4.9-0.8,7.3,0&#10;&#9;&#9;c1.1,0.4,2.1,1,2.9,1.8c0.8,0.8,1.5,1.7,1.9,2.8c0.9,2.4,0.9,5,0,7.4c-0.4,1.1-1.1,2-1.9,2.8c-0.8,0.8-1.8,1.4-2.9,1.8&#10;&#9;&#9;c-2.4,0.8-4.9,0.8-7.3,0c-1.1-0.4-2.1-1-2.9-1.8c-0.8-0.8-1.5-1.7-1.9-2.8C349.2,373.6,349,372.4,349,371.1z M352.9,371.1&#10;&#9;&#9;c0,0.7,0.1,1.5,0.4,2.2c0.2,0.6,0.6,1.2,1.1,1.7c0.5,0.5,1,0.9,1.7,1.1c1.4,0.5,2.9,0.5,4.3,0c0.6-0.3,1.2-0.6,1.7-1.1&#10;&#9;&#9;c0.5-0.5,0.8-1.1,1.1-1.7c0.5-1.4,0.5-2.9,0-4.4c-0.2-0.6-0.6-1.2-1.1-1.7c-0.5-0.5-1-0.9-1.7-1.1c-1.4-0.5-2.9-0.5-4.3,0&#10;&#9;&#9;c-0.6,0.3-1.2,0.6-1.7,1.1c-0.5,0.5-0.8,1.1-1.1,1.7C353,369.6,352.9,370.4,352.9,371.1L352.9,371.1z"/>
	<path class="st0_boss-39" d="M380.5,366.8c-0.3-0.4-0.7-0.7-1.2-0.9c-0.5-0.2-1-0.3-1.5-0.3c-0.3,0-0.6,0-0.8,0.1c-0.3,0.1-0.6,0.2-0.8,0.3&#10;&#9;&#9;c-0.2,0.1-0.5,0.3-0.6,0.5c-0.4,0.7-0.3,1.5,0.3,2c0.4,0.3,0.9,0.5,1.4,0.7c0.6,0.2,1.2,0.4,1.9,0.6c0.7,0.2,1.3,0.5,1.9,0.8&#10;&#9;&#9;c0.6,0.4,1.1,0.8,1.5,1.4c0.4,0.7,0.6,1.5,0.6,2.4c0,0.9-0.2,1.7-0.5,2.5c-0.3,0.7-0.8,1.3-1.4,1.8c-0.6,0.5-1.3,0.8-2.1,1&#10;&#9;&#9;c-0.8,0.2-1.7,0.3-2.5,0.3c-1,0-2.1-0.2-3.1-0.5c-1-0.4-1.9-0.9-2.6-1.6l2.6-2.9c0.4,0.5,0.9,0.9,1.5,1.2c0.6,0.3,1.2,0.4,1.8,0.4&#10;&#9;&#9;c0.3,0,0.6,0,0.9-0.1c0.3-0.1,0.6-0.2,0.8-0.3c0.2-0.1,0.4-0.3,0.6-0.5c0.2-0.2,0.2-0.5,0.2-0.8c0-0.5-0.2-0.9-0.6-1.2&#10;&#9;&#9;c-0.4-0.3-0.9-0.6-1.5-0.8c-0.6-0.2-1.2-0.4-1.9-0.6c-0.7-0.2-1.3-0.5-1.9-0.8c-0.6-0.3-1.1-0.8-1.5-1.4c-0.4-0.7-0.6-1.5-0.6-2.3&#10;&#9;&#9;c0-0.8,0.2-1.6,0.5-2.4c0.3-0.7,0.8-1.3,1.4-1.7c0.6-0.5,1.3-0.8,2.1-1c0.8-0.2,1.6-0.3,2.4-0.3c0.9,0,1.9,0.1,2.8,0.4&#10;&#9;&#9;c0.9,0.3,1.7,0.7,2.4,1.4L380.5,366.8z"/>
	<path class="st0_boss-39" d="M396.6,366.8c-0.3-0.4-0.7-0.7-1.2-0.9c-0.5-0.2-1-0.3-1.5-0.3c-0.3,0-0.6,0-0.8,0.1c-0.3,0.1-0.6,0.2-0.8,0.3&#10;&#9;&#9;c-0.2,0.1-0.5,0.3-0.6,0.5c-0.4,0.7-0.3,1.5,0.3,2c0.4,0.3,0.9,0.5,1.4,0.7c0.6,0.2,1.2,0.4,1.9,0.6c0.7,0.2,1.3,0.5,1.9,0.8&#10;&#9;&#9;c0.6,0.4,1.1,0.8,1.5,1.4c0.4,0.7,0.6,1.5,0.6,2.4c0,0.8-0.2,1.7-0.5,2.5c-0.3,0.7-0.8,1.3-1.4,1.8c-0.6,0.5-1.3,0.8-2.1,1&#10;&#9;&#9;c-1.8,0.5-3.8,0.4-5.6-0.2c-1-0.4-1.9-0.9-2.6-1.6l2.7-2.9c0.4,0.5,0.9,0.9,1.4,1.2c0.6,0.3,1.2,0.4,1.8,0.4c0.3,0,0.6,0,0.9-0.1&#10;&#9;&#9;c0.3-0.1,0.6-0.2,0.8-0.3c0.2-0.1,0.4-0.3,0.6-0.5c0.2-0.2,0.2-0.5,0.2-0.8c0-0.5-0.2-0.9-0.6-1.2c-0.4-0.3-0.9-0.6-1.5-0.8&#10;&#9;&#9;c-0.6-0.2-1.2-0.4-1.9-0.6c-0.7-0.2-1.3-0.5-1.9-0.8c-0.6-0.3-1.1-0.8-1.5-1.4c-0.4-0.7-0.6-1.5-0.6-2.3c0-0.8,0.2-1.6,0.5-2.4&#10;&#9;&#9;c0.3-0.7,0.8-1.3,1.4-1.7c0.6-0.5,1.3-0.8,2.1-1c0.8-0.2,1.6-0.3,2.4-0.3c0.9,0,1.9,0.1,2.8,0.4c0.9,0.3,1.7,0.7,2.4,1.4&#10;&#9;&#9;L396.6,366.8z"/>
	<path class="st0_boss-39" d="M416.1,392.7H313.5c-1,0-1.8-0.8-1.8-1.8c0-1,0.8-1.8,1.8-1.8h102.6c1,0,1.8,0.8,1.8,1.8&#10;&#9;&#9;C418,391.9,417.1,392.7,416.1,392.7L416.1,392.7z"/>
</g>
<g id="cup_boss-39">
	<ellipse class="st7_boss-39" cx="131.1" cy="381.9" rx="37.2" ry="8.1"/>
	<path class="st0_boss-39" d="M131.1,391.8c-13.5,0-39-2.1-39-9.9s25.5-9.9,39-9.9s39,2.1,39,9.9S144.6,391.8,131.1,391.8z M131.1,375.5&#10;&#9;&#9;c-23.4,0-35.4,4.5-35.4,6.3s12,6.3,35.4,6.3s35.4-4.4,35.4-6.3S154.5,375.5,131.1,375.5z"/>
	<path class="st0_boss-39" d="M112,373.8h-0.2c-11.6-1.5-20-5.9-23.8-12.3c-2.2-3.6-2.5-7.9-1-11.8c0.7-1.8,2.2-3.2,4-3.9&#10;&#9;&#9;c6-2.3,15.8,2.4,16.8,3c0.9,0.4,1.2,1.5,0.8,2.4c-0.4,0.9-1.5,1.2-2.4,0.8c-2.6-1.3-10.1-4.3-14-2.8c-0.9,0.3-1.6,1-2,1.9&#10;&#9;&#9;c-1.1,2.9-0.8,6.1,0.8,8.7c3.2,5.4,10.9,9.2,21.2,10.6c1,0.1,1.7,1,1.6,2C113.7,373.2,112.9,373.9,112,373.8L112,373.8z"/>
	<path class="st7_boss-39" d="M130.5,381.9h1.2c12.2,0,22.9-8.2,26-20l5.4-20.5h-64l5.4,20.5C107.6,373.6,118.3,381.9,130.5,381.9z"/>
	<path class="st0_boss-39" d="M131.7,383.7h-1.2c-13,0-24.4-8.8-27.7-21.4l-5.4-20.5c-0.3-1,0.3-1.9,1.3-2.2c0.2,0,0.3-0.1,0.5-0.1h63.9&#10;&#9;&#9;c0.6,0,1.1,0.3,1.4,0.7c0.3,0.4,0.5,1,0.3,1.6l-5.4,20.5C156.1,374.9,144.7,383.7,131.7,383.7z M101.5,343.1l4.8,18.2&#10;&#9;&#9;c2.9,11,12.9,18.7,24.2,18.7h1.2c11.4,0,21.3-7.7,24.2-18.7l4.8-18.2H101.5z"/>
</g>
</svg>