<?xml version="1.0"?><svg id="Layer_1" style="enable-background:new 0 0 79.65963 82.0075;" version="1.1" viewBox="0 0 79.65963 82.0075" xml:space="preserve" xmlns="http://www.w3.org/2000/svg" xmlns:xlink="http://www.w3.org/1999/xlink"><style type="text/css">
	.st0{opacity:0.5;fill:#231F20;enable-background:new    ;}
	.st1{fill:#FFFFFF;}
	.st2{fill:#22093A;stroke:#22093A;stroke-linecap:round;stroke-linejoin:round;}
	.st3{fill:#71C1F2;stroke:#22093A;stroke-linecap:round;stroke-linejoin:round;}
	.st4{fill:none;stroke:#FFFFFF;stroke-linecap:round;stroke-linejoin:round;}
	.st5{fill:none;stroke:#22093A;stroke-linecap:round;stroke-linejoin:round;}
	.st6{fill:#E6E7E8;stroke:#22093A;stroke-linecap:round;stroke-linejoin:round;}
	.st7{fill:#FFFFFF;stroke:#22093A;stroke-linecap:round;stroke-linejoin:round;}
	.st8{fill:#35CCAD;stroke:#22093A;stroke-linecap:round;stroke-linejoin:round;}
</style><g id="Layer_2_00000060000530228712464420000003215061471740123318_"><g id="Layer_1-2"><path class="st0" d="M74.542999,50.263851c-0.904625-0.471764-1.899361-0.745415-2.917999-0.802738    c-1.915916-0.137775-3.794746,0.578403-5.132812,1.956551c-0.145515-0.163578-0.296227-0.317719-0.452148-0.46241    c1.714561-4.460346,2.299309-9.275524,1.702148-14.016602c-0.350731-2.993782-1.2537-5.896542-2.663094-8.561001    c0.066406-0.05518,0.132812-0.11182,0.198242-0.16992c0.180832,0.236937,0.376884,0.461859,0.586922,0.67334    c0.61776,0.890079,1.498878,1.564232,2.519531,1.927731c2.96875,0.98975,5.722649,0.2876,7.366211-1.88184    c1.96875-2.599609,1.836906-6.688471-0.216797-10.911619c1.936523-1.917,4.160156-4.79785,4.125999-7.89258    c-0.034599-2.067547-1.071358-3.989449-2.780205-5.153833c-0.3582-0.258459-0.746864-0.471818-1.157219-0.63526    c-1.10051-0.602945-2.37471-0.809624-3.609383-0.58545c-1.37178,0.287123-2.646873,0.92164-3.703156,1.84278    c-0.318405-0.375442-0.678841-0.713101-1.074242-1.00635c-1.278259-1.51889-3.211502-2.326749-5.190411-2.16895    c-1.020386,0.065148-2.003185,0.409754-2.84082,0.9961c-2.573238-2.02051-6.617188-2.55518-12.0625-1.59033    c-1.913883,0.259737-3.707489,1.082111-5.153267,2.36279c-4.100029-3.838209-10.37402-4.149637-14.834-0.73633    c-0.577766-0.448117-1.239595-0.775713-1.94628-0.96338c-0.752333-0.283222-1.558344-0.39515-2.359381-0.32764    c-2.37793,0.19727-4.15332,1.65772-5.30957,4.36036c-0.864458-0.328942-1.798645-0.431474-2.71387-0.29786    c-0.837156,0.120048-1.641374,0.408218-2.36426,0.84717c-0.160152-0.14648-0.323236-0.284013-0.48925-0.4126    c-1.38763-1.688349-3.560697-2.522851-5.721721-2.19726C2.61041,5.05584,0.49615,9.00945,1.20807,14.069    c0.55175,3.936531,2.31543,13.338379,6.8955,17.075689c1.025904,1.166948,2.369815,2.009439,3.86719,2.424311    c-1.299122,3.562183-1.739111,7.380707-1.28418,11.145c0.292114,2.344841,0.877419,4.643742,1.74219,6.842781    c-1.273776,0.321087-2.50382,0.795753-3.66309,1.41357c-5.33886,3.005371-5.05761,10.298828-4.25195,18.147003    c0.13789,1.926651,0.705134,3.798035,1.66016,5.476997c2.48925,4.717781,7.293001,5.413094,10.34375,5.413094    c0.832001,0,1.533199-0.051758,2.022459-0.087402c3.43376-0.119202,6.733068-1.364128,9.38965-3.542999    c2.322811,2.009583,5.358461,2.996452,8.41894,2.736954c1.957024-0.11631,3.82967-0.837318,5.359379-2.063477    c0.538303,0.44149,1.120445,0.826637,1.737301,1.149406c3.98811,2.11718,8.736481,2.249046,12.835941,0.356453    c0.792957-0.360832,1.549644-0.79657,2.259758-1.30127c0.536892,0.57692,1.181492,1.043198,1.897461,1.372559    c1.341801,0.614738,3.574219,1.030762,6.579109-0.491699c5.287109-2.682129,10.234367-13.818848,10.279289-13.929199    c1.391602-3.422359,2.439461-8.715332,0.814461-12.370121C77.432556,52.226482,76.152328,50.944672,74.542999,50.263851z"/><path class="st1" d="M73.472,49.193489c-0.904625-0.471764-1.899361-0.745411-2.917999-0.802731    c-1.915916-0.137787-3.794746,0.578392-5.132812,1.956539c-0.145515-0.163582-0.296227-0.317711-0.452148-0.462399    c1.714561-4.46035,2.299309-9.275528,1.702148-14.016609c-0.350723-2.993782-1.253693-5.896545-2.663094-8.561001    c0.066406-0.05518,0.13282-0.11182,0.19825-0.16992c0.180824,0.236937,0.376877,0.461859,0.586906,0.67334    c0.61776,0.890079,1.498878,1.564232,2.519531,1.927731c2.96875,0.98975,5.722664,0.2876,7.366211-1.88183    C76.647743,25.257,76.515907,21.1681,74.462196,16.945c1.936523-1.917,4.160149-4.79785,4.125999-7.89257    c-0.034615-2.067573-1.071411-3.989489-2.780296-5.153859c-0.3582-0.258453-0.746872-0.471812-1.157227-0.63526    c-1.100502-0.602945-2.374702-0.809621-3.609367-0.58544c-1.371773,0.287118-2.646858,0.921631-3.703133,1.84277    c-0.318398-0.375438-0.678825-0.713097-1.074219-1.00635c-1.278259-1.518899-3.211517-2.326756-5.19043-2.16894    c-1.020386,0.065145-2.003185,0.409748-2.84082,0.99609C55.659458,0.32093,51.61552-0.21374,46.1702,0.75111    c-1.913902,0.259727-3.707527,1.082101-5.15332,2.36279c-4.100029-3.838213-10.374022-4.149642-14.834-0.73633    c-0.57777-0.448115-1.239603-0.775711-1.946289-0.96338c-0.752333-0.28322-1.558344-0.395145-2.359381-0.32763    c-2.37792,0.19726-4.15332,1.65771-5.30957,4.36035c-0.864453-0.328943-1.798639-0.431471-2.71386-0.29785    c-0.837156,0.120044-1.641374,0.408211-2.36426,0.84716c-0.16016-0.14648-0.323246-0.28401-0.48926-0.41259    C9.612648,3.895294,7.439607,3.060789,5.2786,3.38636C1.53934,3.98548-0.57491,7.9391,0.137,12.99867    C0.68876,16.93519,2.45243,26.337,7.03251,30.07435c1.025907,1.166948,2.369817,2.009439,3.86719,2.424318    c-1.299128,3.562183-1.739116,7.380707-1.28418,11.145c0.292108,2.344837,0.87741,4.643734,1.74218,6.84277    c-1.27377,0.321095-2.50381,0.795757-3.66308,1.413563C2.35575,54.905399,2.637,62.19886,3.44266,70.046997    c0.137883,1.926666,0.705127,3.798073,1.66016,5.477051c2.48926,4.717773,7.293001,5.413078,10.34375,5.413078    c0.832001,0,1.533199-0.051758,2.022459-0.087402c3.43376-0.119194,6.733068-1.364128,9.38965-3.542999    c2.322849,2.009544,5.358522,2.996368,8.419001,2.736816c1.957001-0.116302,3.829628-0.837296,5.359322-2.063431    c0.538311,0.44149,1.120457,0.826645,1.737309,1.149422c3.98811,2.117172,8.736473,2.249031,12.83593,0.356438    c0.792961-0.360832,1.549648-0.79657,2.259762-1.30127c0.536892,0.57692,1.181492,1.043198,1.897461,1.372559    c1.341801,0.614754,3.574219,1.030762,6.579102-0.491699c5.287109-2.682129,10.234383-13.818848,10.279297-13.929199    c1.391602-3.422359,2.439453-8.715332,0.814453-12.370121C76.361488,51.156105,75.081291,49.874317,73.472,49.193489z"/><path class="st2" d="M13.13388,29.1938c2.66373-0.388,2.92236-3.550369,3.72082-5.969679    c1.211941,1.978939,2.205351,4.940371,4.80928,4.53281c3.009779-0.47109,4.519279-4.946209,4.8696-9.900749    c0.38007-5.375401-0.494459-13.40367-3.84775-13.126c-3.865999,0.32016-3.205721,11.814-3.205721,11.814    s-0.76462-7.45776-4.12428-6.98092c-3.835999,0.54445-2.71951,7.81223-2.71951,7.81223S11.06315,7.11426,6.84318,7.79123    c-1.92874,0.3094-2.60313,3.01-2.22946,5.67052C5.018,16.339649,7.34207,30.03746,13.13388,29.1938z"/><path class="st2" d="M33.670681,4.47593c3.721561-0.35775,9.53141,3.05817,9.426861,10.32448S38.4067,25.617331,34.33363,25.9788    c-3.674999,0.32613-8.68935-2.29842-8.833851-10.03321C25.38139,9.60876,28.20446,5.00139,33.670681,4.47593z"/><path class="st2" d="M34.461269,10.0709c0.528252-0.29654,1.339069,1.07957,1.299,4.44552s-0.701931,5.17033-1.279999,5.481001    c-0.521542,0.28027-1.222469-0.757669-1.216-4.331631C33.269569,12.73774,33.685379,10.50645,34.461269,10.0709z"/><path class="st2" d="M62.295792,5.78771c-4.655739,0.2812-6.88187,17.871599-3.578671,19.370371    c3.88673,1.76354,6.350803-6.235519,6.350803-6.235519s1.564827,6.902599,3.351784,7.49917    c4.74617,1.58452,5.63456-4.23175,1.570999-10.215c0,0,8.231201-6.23678,3.770996-9.46339    c-3.088608-2.23439-7.750641,7.09006-7.750641,7.09006S66.818047,5.51457,62.295792,5.78771z"/><path class="st2" d="M47.791809,5.14645c-4.834251,0.85608-5.157749,3.83094-5.436661,9.92588    c-0.277451,6.06279-1.72847,9.7078,2.911942,10.651901c2.897449,0.589491,4.164219-8.401901,4.164219-8.401901    s3.411789,8.862431,7.13586,7.43354c4.941162-1.895861-2.367001-9.38819-2.367001-9.38819    C58.19059,15.36768,64.114639,2.25587,47.791809,5.14645z"/><path class="st2" d="M48.991219,8.91234c0,0,2.791142-0.5981,2.534809,0.91139s-2.534809,1.62342-2.534809,1.62342V8.91234z"/><path class="st3" d="M12.12087,28.248159c2.66373-0.388,2.92235-3.55036,3.72081-5.969679    c1.211949,1.978939,2.20535,4.94038,4.809279,4.53281c3.00979-0.47109,4.519291-4.946199,4.86961-9.900749    c0.38007-5.37539-0.0026-12.61022-3.3559-12.33252c-3.865999,0.32016-3.697571,11.02056-3.697571,11.02056    s-0.76462-7.45776-4.12429-6.98092c-3.836,0.54445-2.7195,7.812231-2.7195,7.812231S10.05014,6.16862,5.83017,6.84559    c-1.92874,0.30941-2.60313,3.01-2.22946,5.670519C4.005,15.394,6.32906,29.09182,12.12087,28.248159z"/><path class="st3" d="M32.657669,3.5303c3.721561-0.35775,9.53141,3.05816,9.426861,10.32447s-4.690842,10.81693-8.76392,11.17839    c-3.674999,0.326139-8.689339-2.29842-8.833839-10.03321C24.36838,8.66312,27.19145,4.05576,32.657669,3.5303z"/><path class="st2" d="M33.448261,9.12526c0.528252-0.29653,1.339069,1.07958,1.299,4.44553s-0.701931,5.170329-1.279999,5.48095    c-0.521549,0.28027-1.222469-0.75766-1.216-4.33162C32.256561,11.7921,32.672371,9.56081,33.448261,9.12526z"/><path class="st3" d="M61.282768,4.84207c-4.655731,0.28121-6.881859,17.871599-3.578659,19.37038    c3.886719,1.76354,6.3508-6.235529,6.3508-6.235529s2.004303,7.17448,3.791237,7.771    c4.746178,1.584511,5.195099-4.50363,1.131592-10.4869c0,0,8.64653-5.57435,4.186363-8.801    c-3.088608-2.23438-8.166,6.42764-8.166,6.42764S65.805,4.56893,61.282768,4.84207z"/><path class="st3" d="M46.778801,4.20081c-4.834251,0.85608-5.157749,3.831-5.436661,9.92588    c-0.277451,6.06279-0.043221,10.750999,2.91193,10.651901s4.16423-8.401901,4.16423-8.401901s3.411789,8.862431,7.13586,7.43355    c4.941162-1.89587-2.367001-9.3882-2.367001-9.3882C57.177582,14.422,63.101631,1.31024,46.778801,4.20081z"/><path class="st2" d="M47.97821,7.9667c0,0,2.791142-0.5981,2.534809,0.9114s-2.534809,1.62341-2.534809,1.62341V7.9667z"/><path class="st4" d="M8.19534,21.837c0.403727,0.756813,0.884134,1.470148,1.43366,2.128771"/><path class="st4" d="M6.71106,8.89c-1.306,0.069-1.82958,2.8043-0.53159,7.47749c0.24139,0.86907,0.4875,1.708929,0.762,2.51638"/><path class="st4" d="M21.42993,7.35091c0,0-0.922131,2.22673-0.726879,3.0121"/><path class="st4" d="M26.608299,12.746c-0.67367,2.29024,0.08382,6.743311,2.19313,8.666441"/><path class="st4" d="M46.875702,6.06554c-2.278481,0.67778-2.867081,0.96259-3.269829,4.297471"/><line class="st4" x1="43.503448" x2="43.452229" y1="12.18503" y2="13.1378"/><path class="st4" d="M61.533932,7.02813c-0.740501-0.07595-1.875069,1.0443-2.91938,6"/><line class="st5" x1="43.29792" x2="44.258331" y1="55.938129" y2="61.477871"/><path class="st2" d="M41.06741,63.180901c-15.59127,3.807762-26.493151-7.844219-27.980249-19.960442    s7.985319-23.71454,22.651129-25.049"/><path class="st6" d="M63.19389,36.28558c1.65221,13.87149-7.385708,24.917-19.255211,26.373871    c-11.869503,1.456867-23.13092-8.256878-24.618-20.3731c-1.376476-12.101503,7.210609-23.069153,19.288902-24.63629    C50.47905,16.193239,61.75013,24.164129,63.19389,36.28558z"/><line class="st5" x1="38.694569" x2="39.379501" y1="20.77326" y2="26.35376"/><line class="st5" x1="23.144381" x2="28.72488" y1="41.882118" y2="41.197189"/><line class="st5" x1="53.897549" x2="59.47805" y1="38.107578" y2="37.422649"/><polygon class="st2" points="42.004002,41.145 39.874001,49.325001 37.618999,52.136002 37.548,48.630001 40.084,41.042999   "/><polygon class="st2" points="39.268002,39.150002 30.035,32.166 28.143999,29.097 31.469999,30.208 40.007999,37.375999   "/><circle class="st7" cx="41.271488" cy="39.338219" r="2.334141"/><path class="st4" d="M47.635201,21.75115c0,0,6.13335,0.661711,9.20929,6.049129"/><path class="st4" d="M58.15313,29.99782c0.29517,0.41963,0.549828,0.866339,0.760551,1.33411"/><path class="st4" d="M60.850391,41.570881c-0.214184,2.573002-0.976536,5.070374-2.23584,7.324341"/><path class="st2" d="M10.62856,56.209862c-3.061,1.72356-4.27163,5.978661-3.4364,14.1147    c0.70516,6.869118,5.74458,7.352501,10.016771,7.037552c4.78211-0.352547,9.91255-2.69162,9.392059-8.104744    c-0.54175-5.6343-7.977829-4.482567-7.977829-4.482567s7.21773-1.950451,5.9585-7.04916    C23.35076,52.74165,13.77405,54.438702,10.62856,56.209862z"/><path class="st2" d="M14.748,59.428879c0,0,2.833659-0.90731,2.723001,0.68478s-2.462379,1.944489-2.462379,1.944489    L14.748,59.428879z"/><path class="st2" d="M15.71559,69.163353c0,0,3.62529-0.994591,3.51458,0.597511s-3.254,2.031754-3.254,2.031754    L15.71559,69.163353z"/><path class="st2" d="M28.42,53.756001c-4.935369,0.846889-6.038,23.554218,6.647932,22.797176    c9.569458-0.571068,10.136482-22.928299,6.20578-23.33226c-8.177002-0.840351-1.807999,15.203239-6.28756,15.258316    C32.656528,68.507858,34.83773,52.654709,28.42,53.756001z"/><path class="st2" d="M57.379532,58.153809c0.002392-2.728592-1.59766-5.94368-7.558151-5.741322    c-5.868511,0.19923-9.791271,7.977001-3.897221,11.387299c5.457668,3.15781,3.659309,6.822292,1.291,4.721943    c-4.555622-4.040199-9.409821,4.245003-3.209919,7.515457s13.216049-0.334862,14.147179-4.335342    c1.763771-7.577858-4.028671-9.0187-6.69117-10.311348C51.461262,61.390499,57.375889,62.318371,57.379532,58.153809z"/><path class="st2" d="M70.913681,52.135799c-4.776581-0.316429-5.520447,11.74749-5.520447,11.74749    s-0.196487-12.854549-4.737469-12.047192c-5.94791,1.057491-4.134731,11.464211-0.0019,15.880859    c-2.84145,2.607597-2.487999,11.372002,3.707569,8.230133c3.370399-1.709167,7.790657-10.085358,8.620323-12.12579    C74.613243,59.809319,75.721687,52.4543,70.913681,52.135799z"/><path class="st8" d="M9.40944,54.9529c-3.06095,1.72356-3.32224,6.603809-2.487,14.739849    c0.70516,6.869118,4.79519,6.727348,9.067381,6.412399c4.78211-0.352547,9.912561-2.69162,9.392069-8.104736    c-0.541759-5.6343-7.97784-4.482571-7.97784-4.482571s7.217739-1.950451,5.9585-7.04916    C22.131639,51.484692,12.55493,53.18174,9.40944,54.9529z"/><path class="st2" d="M13.52889,58.171921c0,0,2.833659-0.90731,2.723001,0.68478s-2.462379,1.944489-2.462379,1.944489    L13.52889,58.171921z"/><path class="st2" d="M14.49647,67.906387c0,0,3.625291-0.994591,3.51459,0.597511s-3.254,2.031754-3.254,2.031754    L14.49647,67.906387z"/><path class="st8" d="M27.55757,53.48291c-4.899,1.036839-5.080431,22.488701,6.29125,21.813293    c9.569622-0.568382,10.740601-21.758827,6.80991-22.162788c-8.177002-0.840351-2.41214,14.033768-6.891689,14.088852    C31.43742,67.2509,33.337002,52.259708,27.55757,53.48291z"/><path class="st8" d="M56.160412,56.896851c0.002392-2.728592-1.59766-5.94368-7.558151-5.741322    c-5.868511,0.19923-9.791271,7.977001-3.897221,11.387299c5.45768,3.15781,3.659309,6.822292,1.291,4.721943    c-4.555618-4.040199-9.409821,4.245049-3.209919,7.515457s13.216049-0.334862,14.147179-4.335342    c1.763771-7.577858-4.028671-9.0187-6.69117-10.311348C50.242142,60.133541,56.156769,61.061409,56.160412,56.896851z"/><path class="st8" d="M70.320358,51.886318C65.543777,51.569897,64.17411,62.62632,64.17411,62.62632    s-0.196491-12.854549-4.737469-12.047188c-5.94791,1.057491-4.134731,11.464211-0.0019,15.880859    c-0.657719,1.667839-2.487999,11.372002,3.707569,8.230133c3.370399-1.709167,7.790672-10.085358,8.620323-12.12579    C73.394119,58.552361,75.128372,52.20483,70.320358,51.886318z"/><path class="st4" d="M8.83205,69.209c0.075519,0.714249,0.201466,1.422256,0.3769,2.118729"/><path class="st4" d="M12.47477,55.872002c-1.13924,0.379749-3.79747,0.493671-3.94936,5.468349    c-0.0531,1.738892-0.02732,3.338573,0.04328,4.734188"/><path class="st4" d="M26.63756,65.476761c0,0,0.721519,4.443001,3.417721,6.759491"/><path class="st4" d="M48.961842,53.099091c-2.088612,0-5.468349,1.898739-5.164558,5.354439"/><path class="st4" d="M43.338909,68.072433c-1.308212,0.683693-1.814487,2.298454-1.130791,3.606667    c0.105301,0.201492,0.235878,0.388718,0.388569,0.557152"/><path class="st4" d="M59.29343,52.4034c-1.162998,0.28928-2.717209,2.795609-1.519001,7.314602"/></g></g></svg>