<svg version="1.1" id="Layer_1" xmlns="http://www.w3.org/2000/svg" xmlns:xlink="http://www.w3.org/1999/xlink" x="0px" y="0px" viewBox="0 0 500 500" style="width: 188px;" xml:space="preserve" data-imageid="calling-16" imageName="Calling" class="illustrations_image">
<style type="text/css">
	.st0_calling-16{fill:#FFC9B0;}
	.st1_calling-16{fill:#093F68;}
	.st2_calling-16{fill:#68E1FD;}
	.st3_calling-16{fill:#FFFFFF;}
	.st4_calling-16{fill:#725858;}
	.st5_calling-16{fill:#DFEAEF;}
	.st6_calling-16{fill:#F56132;}
	.st7_calling-16{fill:#FFBC0E;}
</style>
<g id="character_calling-16">
	<path class="st0_calling-16" d="M367.3,280.9c0,0-5.2-12.8-7.2-16s-12-10-11.2-15.2s16.4-39.7,29.3-34.5s6.4,28,6,32.6s8.4,27.9,8.4,27.9&#10;&#9;&#9;L367.3,280.9z"/>
	<path class="st1_calling-16" d="M367.3,282.8c-0.8,0-1.5-0.5-1.8-1.2c-1.4-3.5-5.5-13.2-7.1-15.7c-1-1.3-2.2-2.5-3.4-3.6&#10;&#9;&#9;c-3.9-3.7-8.8-8.4-8.1-13s11.3-28.5,22.6-34.9c3.3-1.9,6.4-2.2,9.3-1c12.4,5,9.1,23.6,7.7,31.6c-0.2,1.3-0.4,2.4-0.5,3&#10;&#9;&#9;c-0.3,3.1,5,18.2,8.3,27.1c0.4,1-0.2,2.2-1.2,2.5c-0.1,0-0.1,0-0.2,0.1l-25.3,5.2C367.6,282.8,367.4,282.8,367.3,282.8z&#10;&#9;&#9; M375.4,216.6c-1.4,0.1-2.7,0.5-3.9,1.2c-10.1,5.8-20.1,28.4-20.7,32.1c-0.4,2.6,4,6.8,6.9,9.6c1.5,1.3,2.8,2.8,4,4.4&#10;&#9;&#9;c1.7,2.7,5.3,11.3,6.8,14.8l21.5-4.4c-2.4-6.5-8.1-22.4-7.7-26.6c0.1-0.8,0.3-1.9,0.5-3.3c1.3-7.6,4.1-23.5-5.3-27.3&#10;&#9;&#9;C376.8,216.7,376.1,216.6,375.4,216.6z"/>
	<path class="st2_calling-16 targetColor" d="M391.8,258.9l-31.5,19.5c13.2,21.4,17.4,33,18.7,38.6c-12.5-1.3-52-18.6-69.7-29.2c-16.5-9.9-82.2-6-103.2,1.3&#10;&#9;&#9;c-19.2,6.7-59.8,26.2-65.5,82c-2.5,24.2,7.4,46.5,24.6,55.3c5.1,2.6,10.7,3.9,16.4,3.9c8.3,0,18.6-2.9,29.7-12.6&#10;&#9;&#9;c0.2-0.2,0.5-0.5,0.7-0.7h99.4l0.9-88.7c7.4,3.8,11.3,9,21,13.1c15.4,6.5,32.9,12.8,48.2,12.8c10.1,0,19.2-2.7,26.2-9.8&#10;&#9;&#9;C427.8,323.9,409.8,287.9,391.8,258.9z M188.1,391.2c-3.9,3.5-6.3,4-6.7,3.9c-2-0.5-7-8.4-5.8-20.5c1.9-18.7,15.6-32.8,27.9-41.9&#10;&#9;&#9;v54.6C198,386.1,192.3,387.5,188.1,391.2z" style="fill: rgb(0, 207, 255);"/>
	<path class="st1_calling-16" d="M181.6,432.2c-6,0-11.9-1.4-17.2-4.2c-17.9-9.2-28.2-32.2-25.6-57.2c5.6-54.5,44.3-75.8,66.8-83.6&#10;&#9;&#9;c20.1-7,87-11.7,104.8-1.1c16.9,10.1,51.6,25.4,66,28.5c-1.8-5.9-6.4-16.9-17.7-35.2c-0.5-0.9-0.3-2.1,0.6-2.7l31.5-19.5&#10;&#9;&#9;c0.9-0.6,2.1-0.3,2.7,0.6c0,0,0,0,0,0c18.3,29.6,36.6,66.4,15.7,87.8c-6.8,6.9-16,10.4-27.5,10.4c-16.4,0-34.8-6.9-49-13&#10;&#9;&#9;c-4.7-2.1-9.2-4.8-13.2-8c-1.7-1.2-3.3-2.5-5.1-3.6l-0.9,85.4c0,1.1-0.9,1.9-2,1.9h-98.6c-0.1,0.1-0.1,0.1-0.2,0.2&#10;&#9;&#9;C202.7,427.8,192.3,432.2,181.6,432.2z M268.6,283.8c-2.9,0-6,0-9.1,0.1c-21.4,0.6-42.6,3.4-52.7,7c-21.7,7.5-58.9,27.9-64.2,80.3&#10;&#9;&#9;c-2.4,23.5,7,44.9,23.5,53.4c4.8,2.4,10.1,3.7,15.5,3.7c9.7,0,19.3-4.1,28.4-12.1l0.4-0.4l0.2-0.2c0.4-0.3,0.9-0.5,1.4-0.5h97.5&#10;&#9;&#9;l0.9-86.8c0-1.1,0.9-1.9,2-1.9c0.3,0,0.6,0.1,0.9,0.2c3,1.6,5.8,3.5,8.5,5.5c3.8,3,8,5.5,12.4,7.5c13.8,5.9,31.7,12.7,47.5,12.7&#10;&#9;&#9;c10.6,0,18.7-3,24.8-9.2c18.7-19.1,2-53.2-15.2-81.4L363,279c12.3,20.1,16.5,31.5,17.9,37.5c0.1,0.6,0,1.3-0.4,1.7&#10;&#9;&#9;c-0.4,0.5-1,0.7-1.7,0.6c-13.2-1.4-53.6-19.4-70.5-29.5C302.3,285.8,287.8,283.8,268.6,283.8L268.6,283.8z M181.4,397.1&#10;&#9;&#9;c-0.1,0-0.3,0-0.4,0c-3.3-0.9-8.7-9.6-7.4-22.7c2-19.7,16.7-34.4,28.7-43.3c0.9-0.6,2.2-0.4,2.8,0.6c0.2,0.3,0.3,0.7,0.3,1v54.6&#10;&#9;&#9;c0,1.1-0.9,1.9-2,1.9c-0.1,0-0.3,0-0.4,0c-4.9-1.1-10,0.2-13.7,3.5l0,0C185.7,396,182.9,397.1,181.4,397.1z M201.6,336.6&#10;&#9;&#9;c-10.6,8.5-22.3,21.5-24,38.1c-1.1,10.5,2.9,17,4.2,18.3c1.9-0.8,3.6-1.9,5-3.3c4-3.6,9.4-5.3,14.8-4.8V336.6z M188.1,391.2&#10;&#9;&#9;L188.1,391.2z"/>
	<polygon class="st3_calling-16" points="287,283.7 267.2,392.6 241.4,287 &#9;"/>
	<path class="st1_calling-16" d="M267.2,394.5c-0.9,0-1.7-0.6-1.9-1.5l-25.8-105.6c-0.2-1.1,0.5-2.1,1.5-2.4c0.1,0,0.1,0,0.2,0l45.7-3.2&#10;&#9;&#9;c1.1,0,2,0.8,2.1,1.9c0,0.1,0,0.3,0,0.4l-19.8,108.9C268.9,393.8,268.2,394.5,267.2,394.5L267.2,394.5z M243.8,288.7l23.1,94.5&#10;&#9;&#9;l17.7-97.4L243.8,288.7z"/>
	<path class="st0_calling-16" d="M254.3,273.2h22.5l0,0v17.6c0,2.7-2.2,4.9-4.9,4.9h0h-12.7c-2.7,0-4.9-2.2-4.9-4.9l0,0L254.3,273.2&#10;&#9;&#9;L254.3,273.2z"/>
	<path class="st1_calling-16" d="M267.2,297.6h-3.4c-6.3,0-11.5-5.2-11.5-11.5v-12.9c0-1.1,0.9-2,1.9-2h22.5c1.1,0,2,0.9,2,2v12.9&#10;&#9;&#9;C278.7,292.5,273.6,297.6,267.2,297.6z M256.2,275.2v11c0,4.2,3.4,7.6,7.6,7.6h3.4c4.2,0,7.6-3.4,7.6-7.6v-11H256.2z"/>
	<path class="st4_calling-16" d="M187.9,210.8c-5.2-1.9-9.9-4.8-13.8-8.6c-7.2-7.2-11.5-16.8-15.5-26.1c7.5,1.7,15.5-0.4,21.2-5.5&#10;&#9;&#9;c-12.8,1.6-25.7-1.6-36.3-8.9c10.6-1,18-11,21.9-20.9s6-20.8,12.8-29c8.8-10.7,19.4-10.8,31.8-9.8c-0.4-20.5,11.8-39.7,33.6-40.8&#10;&#9;&#9;c34.9-1.9,54.9,35.6,74.4,32.8s24.7-11.4,24.7-11.4s11.6,19.9-4.2,39.4c0,0,15.4-4.5,17.2,16s-10.4,74.8-10.4,74.8l-13.9-2.4&#10;&#9;&#9;c-5.9-1-13.2,0.4-19.1,0.6l-43.6,1.4C247,212.9,211.6,219.8,187.9,210.8z"/>
	<path class="st1_calling-16" d="M219.4,217.4c-11.4,0-22.7-1.1-32.1-4.7c-5.4-1.9-10.4-5-14.5-9c-7.6-7.5-12-17.7-15.9-26.7&#10;&#9;&#9;c-0.3-0.7-0.2-1.4,0.3-2c0.5-0.6,1.2-0.8,1.9-0.6c4.5,1,9.3,0.6,13.6-1.3c-10.8-0.2-21.3-3.5-30.3-9.6c-0.9-0.6-1.1-1.8-0.5-2.7&#10;&#9;&#9;c0.3-0.5,0.8-0.8,1.4-0.8c11.6-1.1,18-14.1,20.2-19.7c1.1-2.7,2-5.5,2.9-8.3c2.5-7.4,5.1-15,10.2-21.2c9-10.8,19.6-11.5,31.4-10.7&#10;&#9;&#9;c0.4-19.6,12.4-39.4,35.4-40.7c20.2-1.1,35.8,10.7,48.3,20.2c9.7,7.3,18.1,13.7,25.9,12.6c18.1-2.6,23.3-10.5,23.3-10.6&#10;&#9;&#9;c0.4-0.6,1-0.9,1.7-0.9c0.7,0,1.3,0.4,1.7,1c0.1,0.2,10.8,18.9-1.7,38.1c2.7,0.1,5.3,0.9,7.5,2.4c4.3,2.9,6.8,8.2,7.5,15.7&#10;&#9;&#9;c1.9,20.5-9.9,73.1-10.4,75.4c-0.3,1-1.2,1.6-2.2,1.5l-13.9-2.4c-3.7-0.6-8.1-0.2-12.4,0.2c-2.2,0.2-4.2,0.4-6.2,0.5l-43.6,1.4&#10;&#9;&#9;c-5.5,0.2-11.8,0.7-18.6,1.3C240.7,216.4,229.9,217.4,219.4,217.4z M161.8,178.6c3.4,7.8,7.5,16.1,13.7,22.2&#10;&#9;&#9;c3.8,3.6,8.2,6.4,13.1,8.1l0,0c17.3,6.6,41.7,4.4,61.3,2.6c6.8-0.6,13.2-1.2,18.8-1.4l43.6-1.4c1.9-0.1,3.9-0.2,6-0.4&#10;&#9;&#9;c4.5-0.4,9.3-0.9,13.5-0.1l0,0c0.7,0.1,3.1,0.5,12.1,2.1c2.1-9.6,11.5-54.5,9.9-72.3c-0.6-6.3-2.5-10.6-5.8-12.9&#10;&#9;&#9;c-2.7-1.7-5.9-2.2-8.9-1.4c-1.1,0.2-2.1-0.5-2.4-1.5c-0.1-0.5,0-1.1,0.3-1.6c8.1-9.7,10.1-23.1,5.2-34.7c-3.1,3-10.2,7.9-23.9,9.8&#10;&#9;&#9;c-9.4,1.3-18.4-5.4-28.8-13.3c-12.7-9.6-27-20.4-45.8-19.4c-21.4,1.2-32.2,20.4-31.7,38.9c0,0.6-0.2,1.1-0.6,1.5&#10;&#9;&#9;c-0.4,0.4-0.9,0.6-1.5,0.5c-12-1-21.8-0.9-30.2,9.1c-4.7,5.6-7,12.6-9.5,20c-0.9,2.8-1.9,5.7-3,8.5c-2.2,5.4-8,17.3-18.6,21&#10;&#9;&#9;c9.4,5.3,20.3,7.4,31,6.1c1.1-0.1,2,0.6,2.2,1.7c0.1,0.6-0.2,1.2-0.6,1.7C175.9,176.8,168.9,179.2,161.8,178.6z"/>
	<path class="st3_calling-16" d="M307.5,162.5l38.4-12.6c2.7-0.9,5.6,0.6,6.5,3.3l27.1,83.1c0.9,2.7-0.6,5.6-3.3,6.5l-38.4,12.6&#10;&#9;&#9;c-2.7,0.9-5.6-0.6-6.5-3.3L304.2,169C303.3,166.3,304.8,163.4,307.5,162.5z"/>
	<path class="st1_calling-16" d="M339.4,256.3c-5.2,0-9.8-3.3-11.4-8.3l-24.1-73.8c-2.1-6.3,1.4-13.1,7.7-15.1c0,0,0,0,0,0l29.1-9.5&#10;&#9;&#9;c6.3-2.1,13.1,1.4,15.1,7.7c0,0,0,0,0,0l24.1,73.8c2.1,6.3-1.4,13.1-7.7,15.1c0,0,0,0,0,0l-29.1,9.5&#10;&#9;&#9;C341.9,256.1,340.6,256.3,339.4,256.3z M344.4,152.9c-0.9,0-1.7,0.1-2.5,0.4l-29.1,9.5c-4.3,1.4-6.6,6-5.2,10.2l24.1,73.8&#10;&#9;&#9;c1.4,4.3,6,6.6,10.2,5.2l29.1-9.5l0,0c4.3-1.4,6.6-6,5.2-10.2l-24.1-73.8C351,155.2,347.9,152.9,344.4,152.9L344.4,152.9z"/>
	<path class="st5_calling-16" d="M313,170.7l32.1-10.5c1-0.3,2,0.2,2.3,1.2l21.2,65c0.3,1-0.2,2-1.2,2.3l-32.1,10.5c-1,0.3-2-0.2-2.3-1.2&#10;&#9;&#9;l-21.2-65C311.5,172,312,171,313,170.7z"/>
	<ellipse class="st0_calling-16" cx="201.3" cy="214.8" rx="21.8" ry="18.8"/>
	<path class="st1_calling-16" d="M201.3,235.6c-13.1,0-23.8-9.3-23.8-20.8s10.7-20.8,23.8-20.8s23.8,9.3,23.8,20.8S214.4,235.6,201.3,235.6z&#10;&#9;&#9; M201.3,197.9c-11,0-19.9,7.6-19.9,16.9s8.9,16.9,19.9,16.9s19.9-7.6,19.9-16.9S212.3,198,201.3,197.9L201.3,197.9z"/>
	<ellipse class="st0_calling-16" cx="328.6" cy="214.8" rx="21.8" ry="18.8"/>
	<path class="st1_calling-16" d="M328.6,235.6c-13.1,0-23.8-9.3-23.8-20.8s10.7-20.8,23.8-20.8s23.8,9.3,23.8,20.8S341.8,235.6,328.6,235.6z&#10;&#9;&#9; M328.6,197.9c-11,0-19.9,7.6-19.9,16.9s8.9,16.9,19.9,16.9s19.9-7.6,19.9-16.9S339.6,198,328.6,197.9L328.6,197.9z"/>
	<path class="st0_calling-16" d="M265.6,276.2L265.6,276.2c-36.4,0-65.9-29.5-65.9-65.9v-47.8c3.9,6.3,16.6,3.8,35.4-28.3&#10;&#9;&#9;c70.2,35.6,96.4,15.2,96.4,15.2v61C331.4,246.7,301.9,276.2,265.6,276.2z"/>
	<path class="st1_calling-16" d="M265.6,278.1c-37.4,0-67.8-30.4-67.8-67.8v-47.8c0.1-1.1,1.1-1.9,2.2-1.8c0.6,0,1.1,0.4,1.5,0.8&#10;&#9;&#9;c0.7,1.2,2,1.9,3.4,1.9h0.1c2.6,0,12.3-2.3,28.6-30.1c0.5-0.9,1.6-1.2,2.6-0.8c67.9,34.4,94,15.6,94.3,15.4&#10;&#9;&#9;c0.9-0.6,2.2-0.4,2.8,0.5c0.2,0.3,0.3,0.7,0.4,1.1v61C333.3,247.7,303,278.1,265.6,278.1z M201.6,166.6v43.7&#10;&#9;&#9;c0,35.3,28.6,63.9,63.9,63.9l0,0c35.3,0,63.9-28.6,63.9-63.9v-57.6c-8.8,4.3-36.9,12.4-93.7-16c-11.7,19.6-22.6,30.4-31,30.5&#10;&#9;&#9;C203.7,167.2,202.6,167,201.6,166.6L201.6,166.6z"/>
	<circle class="st1_calling-16" cx="241.2" cy="200.7" r="6.1"/>
	<circle class="st1_calling-16" cx="298" cy="200.7" r="6.1"/>
	<path class="st1_calling-16" d="M270.9,227.9c-2,0-4-0.2-6-0.5c-1.1-0.2-1.8-1.2-1.6-2.3c0.2-1,1.2-1.7,2.2-1.6c0,0,5.3,0.9,9,0.1&#10;&#9;&#9;c0.3-1.8-2-8.3-5.1-14.4c-0.5-0.9-0.2-2.1,0.7-2.7c0.9-0.5,2.1-0.2,2.7,0.7c0,0.1,0.1,0.1,0.1,0.2c2.1,4.1,6.9,14.1,5.2,18&#10;&#9;&#9;c-0.4,0.9-1.2,1.6-2.2,1.9C274.2,227.7,272.6,227.9,270.9,227.9z"/>
	<path class="st1_calling-16" d="M255.6,184.1h-0.4l-28.9-3.3c-2.1-0.2-3.7-2.1-3.5-4.2c0.2-2.1,2.1-3.7,4.2-3.5c0,0,0.1,0,0.1,0l28.9,3.2&#10;&#9;&#9;c2.1,0.2,3.7,2.1,3.5,4.3C259.3,182.7,257.6,184.2,255.6,184.1L255.6,184.1z"/>
	<path class="st1_calling-16" d="M285.5,186.1c-2.2,0-3.9-1.8-3.9-3.9c0-1.9,1.4-3.6,3.3-3.8l28.8-4c2.1-0.3,4.1,1.2,4.4,3.3&#10;&#9;&#9;c0.3,2.1-1.2,4.1-3.3,4.4l-28.8,4C285.8,186.1,285.6,186.1,285.5,186.1z"/>
	<path class="st1_calling-16" d="M259,218h-29.3c-4.7,0-8.5-3.8-8.5-8.4v-18.2c0-1.1,0.9-2,2-2h42.3c1.1,0,2,0.9,2,2v18.2&#10;&#9;&#9;C267.5,214.2,263.7,218,259,218C259,218,259,218,259,218z M225.1,193.3v16.2c0,2.5,2,4.6,4.6,4.6H259c2.5,0,4.6-2,4.6-4.6v-16.2&#10;&#9;&#9;H225.1z"/>
	<path class="st1_calling-16" d="M311.5,218h-29.3c-4.7,0-8.4-3.8-8.5-8.4v-18.2c0-1.1,0.9-2,2-2h42.3c1.1,0,2,0.9,2,2v18.2&#10;&#9;&#9;C320.1,214.2,316.3,218,311.5,218C311.6,218,311.6,218,311.5,218z M277.7,193.3v16.2c0,2.5,2,4.6,4.5,4.6h29.3c2.5,0,4.5-2,4.5-4.6&#10;&#9;&#9;v-16.2L277.7,193.3z"/>
	<path class="st1_calling-16" d="M223.1,200.2h-28.7c-1.1-0.2-1.8-1.3-1.5-2.4c0.2-0.8,0.8-1.4,1.5-1.5h28.7c1.1,0.2,1.8,1.3,1.5,2.4&#10;&#9;&#9;C224.5,199.5,223.9,200.1,223.1,200.2L223.1,200.2z"/>
	<path class="st1_calling-16" d="M328.6,200.2h-10.5c-1.1-0.2-1.8-1.3-1.5-2.4c0.2-0.8,0.8-1.4,1.5-1.5h10.5c1.1,0.2,1.8,1.3,1.5,2.4&#10;&#9;&#9;C330,199.5,329.4,200.1,328.6,200.2L328.6,200.2z"/>
	<path class="st3_calling-16" d="M259.5,240.1c-0.1,1.1-0.2,2.1-0.2,3.2c0,8.6,3.9,15.6,8.7,15.6s8.7-7,8.7-15.6c0-1.1-0.1-2.1-0.2-3.2H259.5z"/>
	<path class="st1_calling-16" d="M268.1,260.9c-6,0-10.7-7.7-10.7-17.5c0-1.1,0.1-2.3,0.2-3.4c0.1-1,1-1.7,1.9-1.7h17.1c1,0,1.8,0.7,1.9,1.7&#10;&#9;&#9;c0.1,1.1,0.2,2.3,0.2,3.4C278.8,253.2,274,260.9,268.1,260.9z M261.3,242.1c0,0.4,0,0.8,0,1.2c0,8,3.6,13.6,6.8,13.6&#10;&#9;&#9;s6.8-5.6,6.8-13.6c0-0.4,0-0.8,0-1.2H261.3z"/>
	<path class="st6_calling-16" d="M261.3,299.8H273c1.4,0,2.5,1.1,2.5,2.5v8.1c0,1.4-1.1,2.5-2.5,2.5h-11.7c-1.4,0-2.5-1.1-2.5-2.5v-8.1&#10;&#9;&#9;C258.9,300.9,260,299.8,261.3,299.8z"/>
	<path class="st1_calling-16" d="M270.7,314.9h-7c-3.7,0-6.8-3-6.8-6.8v-3.4c0-3.7,3-6.8,6.8-6.8h7c3.7,0,6.8,3,6.8,6.8v3.4&#10;&#9;&#9;C277.5,311.8,274.4,314.9,270.7,314.9z M263.7,301.8c-1.6,0-2.9,1.3-2.9,2.9v3.4c0,1.6,1.3,2.9,2.9,2.9h7c1.6,0,2.9-1.3,2.9-2.9&#10;&#9;&#9;v-3.4c0-1.6-1.3-2.9-2.9-2.9H263.7z"/>
	<polygon class="st6_calling-16" points="274.6,352 267.2,392.6 258.2,355.9 262.4,312.9 272,312.9 &#9;"/>
	<path class="st1_calling-16" d="M267.2,394.5c-0.9,0-1.7-0.6-1.9-1.5l-9-36.6c0-0.2,0-0.4,0-0.7l4.2-43c0.1-1,0.9-1.8,1.9-1.8h9.6&#10;&#9;&#9;c1,0,1.9,0.8,2,1.8l2.6,39c0,0.2,0,0.3,0,0.5l-7.4,40.6c-0.2,0.9-0.9,1.6-1.9,1.6L267.2,394.5z M260.2,355.8l6.7,27.4l5.7-31.4&#10;&#9;&#9;l-2.5-37h-6L260.2,355.8z"/>
	<path class="st1_calling-16" d="M203.5,333.3c-1.1,0-1.9-0.9-1.9-2v-18.7c0.2-1.1,1.3-1.8,2.4-1.5c0.8,0.2,1.4,0.8,1.5,1.5v18.7&#10;&#9;&#9;C205.4,332.4,204.6,333.3,203.5,333.3z"/>
	<path class="st7_calling-16" d="M234.7,368.5h40.9c5.4,0,9.8,4.4,9.8,9.8v42.4c0,10.8-8.7,19.5-19.5,19.5h-21.5c-10.8,0-19.5-8.7-19.5-19.5&#10;&#9;&#9;v-42.4C224.9,373,229.3,368.6,234.7,368.5C234.7,368.5,234.7,368.5,234.7,368.5z"/>
	<path class="st1_calling-16" d="M266.6,442.2h-22.8c-11.5,0-20.8-9.3-20.8-20.8v-52.9c0-1.1,0.9-1.9,1.9-2h60.6c1.1,0,1.9,0.9,2,2v52.9&#10;&#9;&#9;C287.4,432.9,278.1,442.2,266.6,442.2z M226.8,370.5v50.9c0,9.3,7.6,16.9,16.9,16.9h22.8c9.3,0,16.9-7.6,16.9-16.9v-50.9H226.8z"/>
	<path class="st7_calling-16" d="M285.5,368.5c0,2.1-1.8,4.2-4.8,5.9c-5.4,3-14.8,5-25.5,5s-20.1-2-25.5-5c-3-1.7-4.8-3.7-4.8-5.9&#10;&#9;&#9;c0-6,13.6-10.8,30.3-10.8S285.5,362.6,285.5,368.5z"/>
	<path class="st1_calling-16" d="M255.2,381.3c-10.7,0-20.6-2-26.5-5.2c-4.8-2.7-5.8-5.6-5.8-7.6c0-8.3,16.6-12.8,32.2-12.8s32.3,4.5,32.3,12.8&#10;&#9;&#9;c0,2-1,4.9-5.8,7.6C275.8,379.4,265.9,381.3,255.2,381.3z M255.2,359.6c-17.6,0-28.3,5.2-28.3,8.9c0,1.3,1.4,2.8,3.8,4.1&#10;&#9;&#9;c5.2,2.9,14.6,4.8,24.6,4.8c10.1,0,19.3-1.8,24.6-4.8c2.4-1.3,3.8-2.9,3.8-4.1C283.5,364.8,272.7,359.6,255.2,359.6z"/>
	<path class="st4_calling-16" d="M280.7,374.4c-5.4,3-14.8,5-25.5,5s-20.1-2-25.5-5c5.4-3,14.8-5,25.5-5C265.9,369.4,275.3,371.4,280.7,374.4z"/>
	<path class="st1_calling-16" d="M255.2,381.3c-10.7,0-20.6-2-26.5-5.2c-0.9-0.6-1.2-1.8-0.7-2.8c0.2-0.3,0.4-0.5,0.7-0.7&#10;&#9;&#9;c5.9-3.3,15.8-5.3,26.5-5.3c10.7,0,20.6,2,26.5,5.3c0.9,0.6,1.2,1.8,0.7,2.8c-0.2,0.3-0.4,0.5-0.7,0.7&#10;&#9;&#9;C275.8,379.4,265.9,381.3,255.2,381.3z M234.4,374.3c5.4,1.9,12.9,3.1,20.7,3.1c7.8,0,15.4-1.1,20.8-3c-5.4-1.9-12.8-3.1-20.8-3.1&#10;&#9;&#9;S239.8,372.4,234.4,374.3L234.4,374.3z"/>
	<path class="st1_calling-16" d="M232.8,424.7c-9.5,0-17.1-4.3-21.4-12.2c-4.8-8.9-4.8-21.5,0.1-28.9c1.7-2.9,4.7-4.9,8.1-5.3&#10;&#9;&#9;c7.4-0.7,14.7,6.5,15,6.8c0.7,0.8,0.7,2-0.1,2.8c-0.7,0.7-1.9,0.7-2.6,0c-0.1-0.1-6.3-6.2-11.9-5.7c-2.2,0.3-4.2,1.6-5.3,3.5&#10;&#9;&#9;c-3.6,5.3-4.6,16.3,0.1,24.8c2.6,4.8,7.9,10.3,18.4,10.2l0,0c1.1,0.2,1.8,1.3,1.5,2.4c-0.2,0.7-0.8,1.3-1.5,1.5L232.8,424.7z"/>
	<path class="st0_calling-16" d="M191.5,384.9h20c2.5,0,4.5,2,4.5,4.5v24c0,2.5-2,4.5-4.5,4.5h-20c-2.5,0-4.5-2-4.5-4.5v-24&#10;&#9;&#9;C186.9,387,189,384.9,191.5,384.9z"/>
	<path class="st1_calling-16" d="M207.2,420h-11.4c-6,0-10.8-4.8-10.8-10.8v-15.4c0-6,4.8-10.8,10.8-10.8h11.4c6,0,10.8,4.8,10.8,10.8v15.4&#10;&#9;&#9;C218,415.2,213.2,420,207.2,420z M195.8,386.9c-3.8,0-6.9,3.1-6.9,6.9v15.4c0,3.8,3.1,6.9,6.9,6.9h11.4c3.8,0,6.9-3.1,6.9-6.9&#10;&#9;&#9;v-15.4c0-3.8-3.1-6.9-6.9-6.9L195.8,386.9z"/>
	<path class="st0_calling-16" d="M218.6,387.2h3.8c1.1,0,2,0.9,2,2v15.5c0,1.1-0.9,2-2,2h-3.8c-1.1,0-2-0.9-2-2v-15.5&#10;&#9;&#9;C216.6,388.1,217.5,387.2,218.6,387.2z"/>
	<path class="st1_calling-16" d="M220.5,408.6c-3.2,0-5.9-2.6-5.9-5.9l0,0v-11.7c0-3.2,2.6-5.9,5.8-5.9c3.2,0,5.9,2.6,5.9,5.8c0,0,0,0,0,0v11.7&#10;&#9;&#9;C226.3,406,223.7,408.6,220.5,408.6z M220.5,389.2c-1.1,0-2,0.9-1.9,2v11.7c0,1.1,0.9,1.9,2,1.9c1.1,0,1.9-0.9,1.9-1.9v-11.7&#10;&#9;&#9;C222.4,390,221.5,389.2,220.5,389.2L220.5,389.2z"/>
	<path class="st1_calling-16" d="M216.1,395.7h-13.6c-1.1,0-2-0.9-2-1.9c0-1.1,0.9-2,1.9-2c0,0,0,0,0,0h13.6c1.1,0,1.9,0.9,1.9,2&#10;&#9;&#9;C218,394.9,217.1,395.7,216.1,395.7z"/>
	<path class="st1_calling-16" d="M216.1,403.6h-13.6c-1.1,0-2-0.9-2-1.9c0-1.1,0.9-2,1.9-2c0,0,0,0,0,0h13.6c1.1,0,1.9,0.9,1.9,2&#10;&#9;&#9;C218,402.8,217.1,403.6,216.1,403.6z"/>
	<path class="st1_calling-16" d="M216.1,411.5h-13.6c-1.1,0-2-0.9-2-1.9c0-1.1,0.9-2,1.9-2c0,0,0,0,0,0h13.6c1.1,0,1.9,0.9,1.9,2&#10;&#9;&#9;C218,410.7,217.1,411.5,216.1,411.5z"/>
</g>
<g id="speech-bubble_calling-16">
	<path class="st3_calling-16" d="M176.9,270.1c0.5-2.3,0.7-4.6,0.7-6.9c0-22.2-21.1-40.2-47.1-40.2s-47.1,18-47.1,40.2s21.1,40.2,47.1,40.2&#10;&#9;&#9;c18.2,0,34-8.9,41.8-21.9c18.6,5.2,24.8-11.1,24.8-11.1C189.7,275.6,182.2,273.3,176.9,270.1z"/>
	<path class="st5_calling-16" d="M130.5,305.4c-27,0-49-18.9-49-42.2s22-42.2,49-42.2s49,18.9,49,42.2c0,1.9-0.2,3.9-0.5,5.8&#10;&#9;&#9;c6.2,3.4,12,3.3,17-0.2c0.9-0.6,2.2-0.3,2.7,0.7c0.3,0.5,0.4,1.1,0.2,1.6c-0.1,0.2-6.8,17.1-25.7,12.7&#10;&#9;&#9;C164.6,297.1,148.3,305.4,130.5,305.4z M130.5,224.9c-24.9,0-45.1,17.2-45.1,38.3s20.2,38.3,45.1,38.3c17,0,32.4-8,40.2-20.9&#10;&#9;&#9;c0.5-0.7,1.4-1.1,2.2-0.9c9.9,2.8,15.9-1.1,19.2-4.8c-5.1,1.3-10.6,0.2-16.2-3.1c-0.7-0.4-1.1-1.3-0.9-2.1c0.4-2.1,0.7-4.3,0.7-6.5&#10;&#9;&#9;C175.6,242.1,155.4,224.9,130.5,224.9z"/>
	<path class="st5_calling-16" d="M143.2,285.7c-3.1-0.1-6.1-0.9-8.9-2.3c-11.3-5.7-20.1-13.7-24.4-26c-1-2.9-1.9-5.9-1.2-9&#10;&#9;&#9;c1-4.2,3.9-6.8,7.7-8.5c1.6-0.7,2.2-0.4,3.1,1.1c1.7,2.8,3.4,5.5,5,8.3c0.8,1.4,0.8,2-0.4,3.1s-2.4,2.1-3.6,3.1&#10;&#9;&#9;c-1.6,1.4-1.8,2-0.8,3.9c0.9,1.7,1.9,3.3,3.2,4.8c3.6,3.9,7.6,7.3,12.1,10.1c1.7,1.1,2.3,1,3.6-0.5c0.9-1.1,1.8-2.3,2.7-3.4&#10;&#9;&#9;c1.3-1.4,1.9-1.5,3.5-0.6c2.8,1.6,5.6,3.4,8.5,5c0.9,0.4,1.4,1.4,1,2.3c0,0,0,0,0,0c-1.4,4.5-4.5,7.2-9,8.3&#10;&#9;&#9;C144.7,285.6,144,285.6,143.2,285.7z"/>
</g>
</svg>