<svg version="1.1" id="Layer_1" xmlns="http://www.w3.org/2000/svg" xmlns:xlink="http://www.w3.org/1999/xlink" x="0px" y="0px" viewBox="0 0 500 500" style="width: 188px;" xml:space="preserve" data-imageid="career-4-92" imageName="Career 4" class="illustrations_image">
<style type="text/css">
	.st0_career-4-92{fill:#231F20;}
	.st1_career-4-92{fill:#FFFFFF;}
	.st2_career-4-92{fill:#D1D3D4;}
	.st3_career-4-92{fill:#68E1FD;}
</style>
<g id="Steps_career-4-92">
	<polygon class="st0_career-4-92" points="354.5,317.6 356,132.7 274.5,132.7 167.4,221.8 129.6,221.8 129.6,425.4 409.4,425.4 409.4,323.6 &#9;"/>
	<path class="st0_career-4-92" d="M409.4,426.2H129.6c-0.4,0-0.8-0.4-0.8-0.8V221.8c0-0.4,0.4-0.8,0.8-0.8h37.6L274,132.1&#10;&#9;&#9;c0.1-0.1,0.3-0.2,0.5-0.2H356c0.2,0,0.4,0.1,0.6,0.2c0.2,0.2,0.2,0.4,0.2,0.6l-1.4,184.2l54.1,5.9c0.4,0.1,0.7,0.4,0.7,0.8v101.8&#10;&#9;&#9;C410.3,425.8,409.9,426.2,409.4,426.2C409.4,426.2,409.4,426.2,409.4,426.2z M130.4,424.6h278.2V324.3l-54.1-5.9&#10;&#9;&#9;c-0.4,0-0.7-0.4-0.7-0.8l1.4-184.1h-80.4l-106.8,88.9c-0.1,0.1-0.3,0.2-0.5,0.2h-37L130.4,424.6z"/>
	<rect x="253.5" y="132.7" class="st1_career-4-92" width="33.7" height="12.7"/>
	<path class="st2_career-4-92" d="M287.3,146.2h-33.7c-0.4,0-0.8-0.4-0.8-0.8v-12.7c0-0.4,0.4-0.8,0.8-0.8h33.7c0.4,0,0.8,0.4,0.8,0.8v12.7&#10;&#9;&#9;C288.1,145.9,287.7,146.2,287.3,146.2z M254.4,144.6h32.1v-11.1h-32.1V144.6z"/>
	<rect x="231.2" y="145.4" class="st1_career-4-92" width="38.5" height="12.7"/>
	<path class="st2_career-4-92" d="M269.7,159h-38.5c-0.4,0-0.8-0.4-0.8-0.8v-12.8c0-0.4,0.4-0.8,0.8-0.8c0,0,0,0,0,0h38.5c0.4,0,0.8,0.4,0.8,0.8&#10;&#9;&#9;v12.7C270.6,158.6,270.2,159,269.7,159C269.8,159,269.8,159,269.7,159z M232,157.3h36.9v-11.1H232V157.3z"/>
	<rect x="214.3" y="158.1" class="st1_career-4-92" width="46.4" height="12.7"/>
	<path class="st2_career-4-92" d="M260.7,171.7h-46.4c-0.4,0-0.8-0.4-0.8-0.8v-12.7c0-0.4,0.4-0.8,0.8-0.8h46.4c0.4,0,0.8,0.4,0.8,0.8v12.7&#10;&#9;&#9;C261.5,171.3,261.2,171.7,260.7,171.7z M215.1,170.1h44.8V159h-44.8L215.1,170.1z"/>
	<rect x="198.2" y="170.9" class="st1_career-4-92" width="50.9" height="12.7"/>
	<path class="st2_career-4-92" d="M249.2,184.4h-50.9c-0.4,0-0.8-0.3-0.8-0.8c0,0,0,0,0,0v-12.7c0-0.4,0.4-0.8,0.8-0.8c0,0,0,0,0,0h50.9&#10;&#9;&#9;c0.4,0,0.8,0.3,0.8,0.8c0,0,0,0,0,0v12.7C250,184,249.7,184.4,249.2,184.4C249.2,184.4,249.2,184.4,249.2,184.4z M199.1,182.8h49.3&#10;&#9;&#9;v-11.1h-49.3V182.8z"/>
	<rect x="181.6" y="183.6" class="st1_career-4-92" width="55.5" height="12.7"/>
	<path class="st2_career-4-92" d="M237.1,197.1h-55.5c-0.4,0-0.8-0.4-0.8-0.8v-12.7c0-0.4,0.4-0.8,0.8-0.8h55.5c0.4,0,0.8,0.4,0.8,0.8v12.7&#10;&#9;&#9;C237.9,196.8,237.6,197.1,237.1,197.1z M182.5,195.5h53.9v-11.1h-53.9V195.5z"/>
	<rect x="153.6" y="196.3" class="st1_career-4-92" width="67.4" height="12.7"/>
	<path class="st2_career-4-92" d="M221.1,209.9h-67.4c-0.4,0-0.8-0.4-0.8-0.8v-12.7c0-0.4,0.4-0.8,0.8-0.8h67.4c0.4,0,0.8,0.4,0.8,0.8V209&#10;&#9;&#9;C221.9,209.4,221.5,209.8,221.1,209.9C221.1,209.8,221.1,209.8,221.1,209.9z M154.4,208.2h65.8v-11.1h-65.8V208.2z"/>
	<rect x="129.6" y="209" class="st1_career-4-92" width="73.5" height="12.7"/>
	<path class="st2_career-4-92" d="M203.1,222.6h-73.5c-0.4,0-0.8-0.4-0.8-0.8V209c0-0.4,0.4-0.8,0.8-0.8h73.5c0.4,0,0.8,0.4,0.8,0.8c0,0,0,0,0,0&#10;&#9;&#9;v12.7C203.9,222.2,203.6,222.5,203.1,222.6C203.1,222.6,203.1,222.6,203.1,222.6z M130.4,221h71.9v-11.1h-71.9V221z"/>
	<rect x="154.9" y="221.8" class="st1_career-4-92" width="73.5" height="12.7"/>
	<path class="st2_career-4-92" d="M228.4,235.3h-73.5c-0.4,0-0.8-0.3-0.8-0.8c0,0,0,0,0,0v-12.7c0-0.4,0.4-0.8,0.8-0.8h73.5&#10;&#9;&#9;c0.4,0,0.8,0.4,0.8,0.8v12.7C229.2,234.9,228.8,235.3,228.4,235.3C228.4,235.3,228.4,235.3,228.4,235.3z M155.7,233.7h71.9v-11.1&#10;&#9;&#9;h-71.9V233.7z"/>
	<rect x="167.3" y="234.5" class="st1_career-4-92" width="84.1" height="12.7"/>
	<path class="st2_career-4-92" d="M251.4,248h-84.1c-0.4,0-0.8-0.4-0.8-0.8v-12.7c0-0.4,0.4-0.8,0.8-0.8h84.1c0.4,0,0.8,0.4,0.8,0.8v12.7&#10;&#9;&#9;C252.2,247.6,251.9,248,251.4,248z M168.1,246.4h82.5v-11.1h-82.5V246.4z"/>
	<rect x="180.2" y="247.2" class="st1_career-4-92" width="93.8" height="12.7"/>
	<path class="st2_career-4-92" d="M274,260.7h-93.8c-0.4,0-0.8-0.3-0.8-0.8c0,0,0,0,0,0v-12.7c0-0.4,0.4-0.8,0.8-0.8H274c0.4,0,0.8,0.4,0.8,0.8&#10;&#9;&#9;v12.7C274.8,260.4,274.5,260.7,274,260.7C274,260.7,274,260.7,274,260.7z M181.1,259.1h92.1V248h-92.1V259.1z"/>
	<rect x="191.7" y="259.9" class="st1_career-4-92" width="106.4" height="12.7"/>
	<path class="st2_career-4-92" d="M298.1,273.5H191.6c-0.4,0-0.8-0.4-0.8-0.8v-12.7c0-0.4,0.4-0.8,0.8-0.8h106.4c0.4,0,0.8,0.4,0.8,0.8&#10;&#9;&#9;c0,0,0,0,0,0v12.7C298.9,273.1,298.5,273.5,298.1,273.5C298.1,273.5,298.1,273.5,298.1,273.5z M192.5,271.9h104.8v-11.1H192.5&#10;&#9;&#9;L192.5,271.9z"/>
	<rect x="205.6" y="272.7" class="st1_career-4-92" width="114" height="12.7"/>
	<path class="st2_career-4-92" d="M319.6,286.2h-114c-0.4,0-0.8-0.4-0.8-0.8v-12.7c0-0.4,0.4-0.8,0.8-0.8h114c0.4,0,0.8,0.4,0.8,0.8v12.7&#10;&#9;&#9;C320.4,285.8,320,286.2,319.6,286.2z M206.4,284.6h112.4v-11.1H206.4V284.6z"/>
	<rect x="221.2" y="285.4" class="st1_career-4-92" width="129.2" height="12.7"/>
	<path class="st2_career-4-92" d="M350.4,298.9H221.2c-0.4,0-0.8-0.4-0.8-0.8v-12.7c0-0.4,0.4-0.8,0.8-0.8h129.2c0.4,0,0.8,0.3,0.8,0.8&#10;&#9;&#9;c0,0,0,0,0,0v12.7C351.2,298.6,350.9,298.9,350.4,298.9z M222,297.3h127.6v-11.1H222V297.3z"/>
	<rect x="247" y="298.1" class="st1_career-4-92" width="136.9" height="12.7"/>
	<path class="st2_career-4-92" d="M383.9,311.6H247c-0.4,0-0.8-0.4-0.8-0.8v-12.7c0-0.4,0.4-0.8,0.8-0.8h136.9c0.4,0,0.8,0.4,0.8,0.8v12.7&#10;&#9;&#9;C384.7,311.3,384.3,311.6,383.9,311.6L383.9,311.6z M247.9,310h135.2v-11.1H247.9L247.9,310z"/>
	<rect x="279.1" y="310.8" class="st1_career-4-92" width="130.3" height="12.7"/>
	<path class="st2_career-4-92" d="M409.4,324.4H279.1c-0.4,0-0.8-0.4-0.8-0.8v-12.7c0-0.4,0.4-0.8,0.8-0.8h130.3c0.4,0,0.8,0.4,0.8,0.8v12.7&#10;&#9;&#9;C410.2,324,409.9,324.4,409.4,324.4z M279.9,322.8h128.7v-11.1H279.9V322.8z"/>
	<rect x="262" y="323.6" class="st1_career-4-92" width="130.3" height="12.7"/>
	<path class="st2_career-4-92" d="M392.4,337.1H262c-0.4,0-0.8-0.4-0.8-0.8v-12.7c0-0.4,0.4-0.8,0.8-0.8h130.3c0.4,0,0.8,0.4,0.8,0.8v12.7&#10;&#9;&#9;C393.2,336.7,392.8,337.1,392.4,337.1z M262.9,335.5h128.7v-11.1H262.9V335.5z"/>
	<rect x="240.2" y="336.3" class="st1_career-4-92" width="133.2" height="12.7"/>
	<path class="st2_career-4-92" d="M373.4,349.8H240.2c-0.4,0-0.8-0.4-0.8-0.8v-12.7c0-0.4,0.4-0.8,0.8-0.8h133.3c0.4,0,0.8,0.4,0.8,0.8V349&#10;&#9;&#9;C374.2,349.4,373.9,349.8,373.4,349.8z M241,348.2h131.6v-11.1H241V348.2z"/>
	<rect x="214.7" y="348.9" class="st1_career-4-92" width="148.4" height="12.7"/>
	<path class="st2_career-4-92" d="M363.2,362.4H214.7c-0.4,0-0.8-0.4-0.8-0.8c0,0,0,0,0,0v-12.7c0-0.4,0.3-0.8,0.8-0.8c0,0,0,0,0,0h148.4&#10;&#9;&#9;c0.4,0,0.8,0.4,0.8,0.8v12.7C364,362.1,363.6,362.4,363.2,362.4z M215.5,360.8h146.8v-11.1H215.5L215.5,360.8z"/>
	<rect x="183.5" y="361.5" class="st1_career-4-92" width="167.1" height="12.7"/>
	<path class="st2_career-4-92" d="M350.7,375.1H183.5c-0.4,0-0.8-0.4-0.8-0.8v-12.7c0-0.4,0.4-0.8,0.8-0.8h167.1c0.4,0,0.8,0.4,0.8,0.8v12.7&#10;&#9;&#9;C351.5,374.7,351.1,375.1,350.7,375.1z M184.3,373.5h165.5v-11.1H184.3V373.5z"/>
	<rect x="153.1" y="374.5" class="st1_career-4-92" width="161.2" height="12.7"/>
	<path class="st2_career-4-92" d="M314.3,388.1H153.1c-0.4,0-0.8-0.4-0.8-0.8v-12.7c0-0.4,0.4-0.8,0.8-0.8c0,0,0,0,0,0h161.2&#10;&#9;&#9;c0.4,0,0.8,0.4,0.8,0.8v12.7C315.1,387.7,314.8,388.1,314.3,388.1z M154,386.4h159.5v-11.1H154V386.4z"/>
	<rect x="122.7" y="387.4" class="st1_career-4-92" width="179.4" height="12.7"/>
	<path class="st2_career-4-92" d="M302.1,400.9H122.7c-0.4,0-0.8-0.4-0.8-0.8v-12.7c0-0.4,0.4-0.8,0.8-0.8h179.4c0.4,0,0.8,0.4,0.8,0.8v12.7&#10;&#9;&#9;C302.9,400.5,302.5,400.9,302.1,400.9z M123.5,399.3h177.8v-11.1H123.5L123.5,399.3z"/>
	<rect x="106.4" y="399.9" class="st1_career-4-92" width="179.4" height="12.7"/>
	<path class="st2_career-4-92" d="M285.8,413.4H106.4c-0.4,0-0.8-0.4-0.8-0.8v-12.7c0-0.4,0.4-0.8,0.8-0.8c0,0,0,0,0,0h179.4&#10;&#9;&#9;c0.4,0,0.8,0.4,0.8,0.8v12.7C286.6,413.1,286.3,413.4,285.8,413.4z M107.2,411.8H285v-11.1H107.2V411.8z"/>
	<rect x="79.2" y="412.6" class="st1_career-4-92" width="179.4" height="12.7"/>
	<path class="st2_career-4-92" d="M258.5,426.2H79.2c-0.4,0-0.8-0.4-0.8-0.8v-12.7c0-0.4,0.4-0.8,0.8-0.8h179.4c0.4,0,0.8,0.4,0.8,0.8v12.7&#10;&#9;&#9;C259.4,425.8,259,426.2,258.5,426.2z M80,424.5h177.8v-11.1H80V424.5z"/>
</g>
<g id="Character_Female_career-4-92">
	<path class="st1_career-4-92" d="M269.6,290.9c-0.4-1.3-22.3-36.8-22.3-36.8l29.1-17.1l20.9,35.7L269.6,290.9z"/>
	<path class="st0_career-4-92" d="M269.6,291.7c-0.1,0-0.2,0-0.3,0c-0.2-0.1-0.4-0.3-0.5-0.5c-0.6-1.4-13.6-22.6-22.2-36.6&#10;&#9;&#9;c-0.1-0.2-0.2-0.4-0.1-0.6c0.1-0.2,0.2-0.4,0.4-0.5l29.2-17.1c0.2-0.1,0.4-0.1,0.6-0.1c0.2,0.1,0.4,0.2,0.5,0.4l20.9,35.7&#10;&#9;&#9;c0.2,0.4,0.1,0.9-0.2,1.1L270,291.6C269.9,291.7,269.7,291.7,269.6,291.7z M248.4,254.4c4.1,6.6,18.7,30.2,21.5,35.3l26.3-17.3&#10;&#9;&#9;l-20.1-34.3L248.4,254.4z"/>
	<path class="st0_career-4-92" d="M258.4,282c-1.4,0-2.6-0.7-3.3-1.9l-4.3-7.5c-1-1.8-0.5-4,1.2-5.1l2.5-1.6c0.4-0.2,0.9-0.1,1.1,0.2&#10;&#9;&#9;c0.2,0.4,0.1,0.9-0.2,1.1c0,0,0,0,0,0l-2.4,1.6c-1,0.6-1.3,1.9-0.7,2.9l4.3,7.5c0.6,1,1.9,1.4,2.9,0.8l2.9-1.5&#10;&#9;&#9;c0.4-0.2,0.9,0,1.1,0.4c0.2,0.4,0,0.9-0.3,1.1l-2.9,1.5C259.7,281.9,259,282,258.4,282z"/>
	<path class="st0_career-4-92" d="M202.9,248.9c-1.7,0-3.2-2-3.7-4.8c-0.2-1.2-0.2-2.5,0.2-3.7c0.2-1.4,1.5-2.4,2.9-2.1c0.8,0.1,1.5,0.6,1.9,1.3&#10;&#9;&#9;c0.7,1,1.2,2.2,1.4,3.4l0,0c0.5,3-0.5,5.5-2.3,5.8C203.1,248.9,203,248.9,202.9,248.9z M201.9,239.9L201.9,239.9&#10;&#9;&#9;c-0.4,0-0.7,0.4-0.9,1.1c-0.3,0.9-0.3,1.9-0.1,2.9c0.4,2.3,1.6,3.6,2.2,3.4s1.4-1.7,1-4c-0.1-1-0.5-1.9-1.1-2.7&#10;&#9;&#9;C202.7,240.2,202.3,239.9,201.9,239.9L201.9,239.9z"/>
	<path class="st1_career-4-92" d="M200.3,243.6c0,0,5.3,4.3,4.9,5.6s-3.1,1.4-3.1,1.4"/>
	<path class="st0_career-4-92" d="M202.1,251.4c-0.4,0-0.8-0.4-0.8-0.8c0-0.4,0.4-0.8,0.8-0.8c0.9,0,2.2-0.3,2.3-0.8c-0.1-0.6-2.2-2.8-4.7-4.8&#10;&#9;&#9;c-0.3-0.3-0.3-0.8,0-1.1c0.3-0.3,0.7-0.3,1-0.1c2.6,2.1,5.6,4.9,5.2,6.5C205.5,251.3,202.5,251.4,202.1,251.4L202.1,251.4z"/>
	<path class="st1_career-4-92" d="M197.2,236.7c2.9,1.1,3.5,5.3,4.3,7.8c1.1,3.6,2.2,7.2,3.1,10.9c0.6,2.3-5.3,4.2-6.5,3.9l3.8,8.7l-13.9-0.8&#10;&#9;&#9;l-1.9-7.6c0,0-3.1-7.5-2.3-12.8c0.6-3.4,2.1-6.6,4.4-9.1C188.2,237.6,194.4,235.6,197.2,236.7z"/>
	<path class="st0_career-4-92" d="M201.9,268.8L201.9,268.8l-14-0.8c-0.4,0-0.7-0.3-0.7-0.6l-1.9-7.6c-0.1-0.2-3.2-7.6-2.4-13.2&#10;&#9;&#9;c0.6-3.6,2.2-6.9,4.6-9.6c0.1-0.1,0.2-0.2,0.3-0.2c0.7-0.2,6.6-2.1,9.6-0.9l0,0c2.8,1.1,3.6,4.4,4.4,7c0.1,0.5,0.3,1,0.4,1.4&#10;&#9;&#9;c1.1,3.6,2.2,7.3,3.1,10.9c0.2,0.9-0.1,1.9-0.9,2.5c-1.5,1.2-3.3,2.1-5.2,2.4l3.3,7.6c0.1,0.3,0.1,0.6-0.1,0.8&#10;&#9;&#9;C202.4,268.7,202.1,268.8,201.9,268.8z M188.6,266.4l12,0.7l-3.3-7.5c-0.1-0.3-0.1-0.6,0.1-0.9c0.2-0.2,0.5-0.3,0.8-0.3&#10;&#9;&#9;c1.9-0.1,3.7-0.8,5.1-2c0.3-0.3,0.5-0.6,0.4-0.9c-0.9-3.6-2-7.2-3.1-10.8c-0.1-0.4-0.3-0.9-0.4-1.4c-0.6-2.3-1.4-5.1-3.4-5.9l0,0&#10;&#9;&#9;c-2-0.8-6.5,0.3-8.3,0.9c-2.1,2.4-3.5,5.4-4.1,8.6c-0.8,5.1,2.3,12.3,2.3,12.4L188.6,266.4z"/>
	<path class="st1_career-4-92" d="M203.7,252.7c0,0-2.2,2.6-4.6,0.2"/>
	<path class="st0_career-4-92" d="M201.2,254.7c-1,0-2-0.5-2.7-1.2c-0.3-0.3-0.4-0.8-0.1-1.1c0.3-0.3,0.8-0.4,1.1-0.1c0,0,0.1,0.1,0.1,0.1&#10;&#9;&#9;c0.4,0.5,1,0.8,1.6,0.8c0.7-0.1,1.3-0.4,1.8-0.9c0.3-0.3,0.8-0.4,1.1-0.1c0.3,0.3,0.4,0.8,0.1,1.1l0,0&#10;&#9;&#9;C203.5,254.1,202.4,254.6,201.2,254.7L201.2,254.7z"/>
	
		<ellipse transform="matrix(0.9344 -0.3562 0.3562 0.9344 -73.5123 86.3597)" class="st0_career-4-92" cx="197.7" cy="242.8" rx="0.5" ry="1.4"/>
	<path class="st1_career-4-92" d="M186.2,270.2l-0.2-4.3l16.5-2.5l4.1,6.7C199.8,271.2,192.9,271.2,186.2,270.2z"/>
	<path class="st0_career-4-92" d="M196.3,271.7c-3.4,0-6.9-0.2-10.2-0.7c-0.4,0-0.7-0.4-0.7-0.8l-0.2-4.3c0-0.4,0.3-0.8,0.7-0.8l16.5-2.5&#10;&#9;&#9;c0.3-0.1,0.6,0.1,0.8,0.4l4.1,6.7c0.1,0.2,0.1,0.5,0,0.8c-0.1,0.2-0.3,0.4-0.6,0.5C203.2,271.5,199.8,271.8,196.3,271.7z&#10;&#9;&#9; M187,269.5c6.1,0.8,12.2,0.8,18.2,0l-3.2-5.2l-15.2,2.3L187,269.5z"/>
	<path class="st1_career-4-92" d="M245,286.1c0,0,3.3-5,3.5-6s0.1-3,0.8-4.4s2.5-2.8,3.5-0.9c0,0,0.3-3.2,2.5-1.5c2,1.4,2.9,3.8,2.3,6.2&#10;&#9;&#9;c-0.4,2.5-8.8,15.2-8.8,15.2"/>
	<path class="st0_career-4-92" d="M249,295.4c-0.4,0-0.8-0.3-0.8-0.8c0-0.2,0-0.3,0.1-0.5c3.2-4.9,8.3-13.2,8.6-14.9c0.5-2-0.3-4.2-2-5.4&#10;&#9;&#9;c-0.4-0.3-0.6-0.4-0.7-0.3c-0.3,0.4-0.5,0.8-0.5,1.3c0,0.4-0.3,0.6-0.6,0.7c-0.3,0.1-0.7-0.1-0.9-0.4c-0.3-0.5-0.5-0.5-0.6-0.5&#10;&#9;&#9;c-0.5,0-1.2,0.6-1.5,1.3c-0.3,0.9-0.5,1.9-0.6,2.9c0,0.5-0.1,0.9-0.2,1.4c-0.2,1.1-2.9,5-3.7,6.2c-0.2,0.4-0.7,0.5-1.1,0.3&#10;&#9;&#9;c-0.4-0.2-0.5-0.7-0.3-1.1c0,0,0-0.1,0.1-0.1c1.3-1.8,2.4-3.7,3.4-5.7c0.1-0.4,0.1-0.8,0.1-1.2c0-1.2,0.3-2.3,0.7-3.4&#10;&#9;&#9;c0.5-1.2,1.6-2.1,2.9-2.3c0.3,0,0.7,0.1,0.9,0.2c0.2-0.5,0.6-0.9,1.1-1.2c0.8-0.3,1.7-0.1,2.3,0.5c2.2,1.6,3.3,4.3,2.6,7&#10;&#9;&#9;c-0.5,2.5-8,14.2-8.9,15.5C249.5,295.3,249.3,295.4,249,295.4z"/>
	<path class="st1_career-4-92" d="M124.3,321.5c0,0-1.6,3.2-2.4,5.6c-0.6,2.3-1,4.6-1.1,6.9c-0.6-0.7-1.6-0.9-2.2-1.5c-0.1,1-0.3,2-0.7,2.9&#10;&#9;&#9;c-0.4,0.9-1.3,1.6-2.3,1.8c-0.5,0-1.1-0.1-1.6-0.2c-1.8-0.6-4.9-1.7-5.3-3.9c-0.1-0.9,0.1-1.7,0.5-2.5c1.4-3.3,7.7-11.8,8.7-13.2"/>
	<path class="st0_career-4-92" d="M115.4,338c-0.5,0-1.1-0.1-1.6-0.3c-1.6-0.5-5.3-1.7-5.8-4.5c-0.1-1,0.1-2.1,0.5-3c1.6-3.6,8.7-13.2,8.8-13.4&#10;&#9;&#9;c0.3-0.4,0.8-0.4,1.1-0.1c0.4,0.3,0.4,0.8,0.1,1.1c-1.8,2.5-7.4,10.1-8.6,13c-0.3,0.6-0.5,1.3-0.4,2c0.3,1.9,3.5,2.9,4.7,3.3&#10;&#9;&#9;c0.4,0.2,0.8,0.2,1.2,0.2c0.7-0.1,1.3-0.6,1.7-1.3c0.4-0.9,0.6-1.8,0.6-2.7c0.1-0.4,0.5-0.8,0.9-0.7c0.2,0,0.3,0.1,0.5,0.2&#10;&#9;&#9;c0.3,0.2,0.5,0.4,0.8,0.5l0.1,0c0.1-1.9,0.5-3.8,1-5.7c0.8-2.4,2.4-5.6,2.4-5.7c0.2-0.4,0.7-0.6,1.1-0.4c0.4,0.2,0.6,0.7,0.4,1.1&#10;&#9;&#9;c0,0-1.6,3.2-2.4,5.5c-0.6,2.2-0.9,4.4-1.1,6.7c0,0.4-0.4,0.8-0.8,0.8c-0.2,0-0.4-0.1-0.6-0.3c-0.3-0.3-0.6-0.5-0.9-0.6l0,0&#10;&#9;&#9;c-0.1,0.7-0.3,1.3-0.6,1.9c-0.5,1.2-1.6,2-2.9,2.2L115.4,338z"/>
	<path class="st0_career-4-92" d="M223.1,387.3c0,0-1.4,9.5,2.6,10.9s24-14.6,22.7-18.2s-8.2-4.8-14.4,0C230.5,382.7,226.9,385.1,223.1,387.3z"/>
	<path class="st0_career-4-92" d="M226.2,399.1c-0.3,0-0.5,0-0.8-0.1c-4.4-1.6-3.2-10.7-3.1-11.8c0-0.2,0.2-0.5,0.4-0.6&#10;&#9;&#9;c3.7-2.2,7.3-4.6,10.7-7.2c3.7-2.8,8-4,11.6-3c1.8,0.4,3.3,1.6,4.1,3.3c0.3,0.9,0.3,2.5-3.6,6.5C240.9,391,230.4,399.1,226.2,399.1&#10;&#9;&#9;z M223.9,387.8c-0.3,2.6-0.5,8.7,2.1,9.6c2.1,0.8,12.4-6.2,18.3-12.3c3.6-3.8,3.3-4.8,3.3-4.8c-0.6-1.2-1.7-2.1-3-2.3&#10;&#9;&#9;c-2.4-0.7-6.3-0.3-10.1,2.7C231.1,383.3,227.6,385.7,223.9,387.8z"/>
	<path class="st1_career-4-92" d="M182.6,344.4c0,0,24,6.4,41.9,3.2l-1.6,39.7c0,0,6.8,2.5,14.2-7.1c0,0,7.1-48.8,2.5-51.1s-47,0.4-47,0.4&#10;&#9;&#9;L182.6,344.4z"/>
	<path class="st0_career-4-92" d="M225.1,388.4c-0.8,0-1.6-0.1-2.4-0.3c-0.3-0.1-0.6-0.5-0.5-0.8l1.6-38.7c-17.8,2.9-41-3.3-41.3-3.4&#10;&#9;&#9;c-0.4-0.1-0.7-0.6-0.6-1c0-0.1,0.1-0.2,0.1-0.3l10-14.9c0.1-0.2,0.4-0.3,0.6-0.4c4.4-0.3,42.8-2.7,47.4-0.3s-0.4,40.4-2.1,52&#10;&#9;&#9;c0,0.1-0.1,0.3-0.2,0.4C232.7,387.2,227.8,388.4,225.1,388.4z M223.8,386.6c1.7,0.3,6.8,0.5,12.5-6.8c3.4-23.1,5.5-48.8,2.9-50&#10;&#9;&#9;c-3.2-1.6-29.2-0.6-46.2,0.5l-9.1,13.6c4.9,1.2,25.1,5.7,40.4,2.9c0.2,0,0.5,0,0.7,0.2c0.2,0.2,0.3,0.4,0.3,0.7L223.8,386.6z"/>
	<path class="st1_career-4-92" d="M169.3,337.5c0,0-6.3,38.9-7.6,39.5s-35.7,30.5-35.7,30.5l10.2,8.9c0,0,38.5-23.2,40.6-30.1&#10;&#9;&#9;s19.3-48.8,19.3-48.8L169.3,337.5z"/>
	<path class="st0_career-4-92" d="M136.3,417.2c-0.2,0-0.4-0.1-0.6-0.2l-10.2-8.9c-0.3-0.3-0.4-0.8-0.1-1.2c0,0,0.1-0.1,0.1-0.1&#10;&#9;&#9;c5.6-4.8,32.8-28.4,35.6-30.5c1-2.1,5-24.9,7.3-39c0.1-0.4,0.4-0.7,0.8-0.7h26.9c0.3,0,0.5,0.1,0.7,0.4c0.2,0.2,0.2,0.5,0.1,0.8&#10;&#9;&#9;c-0.2,0.4-17.2,42-19.3,48.7c-2.2,7-37,28.2-41,30.6C136.6,417.2,136.4,417.2,136.3,417.2z M127.4,407.5l9,7.9&#10;&#9;&#9;c11-6.7,38.1-24,39.7-29.3c2-6.3,16-40.8,18.9-47.7h-24.9c-6.3,38.6-7.4,39.1-7.9,39.4C161,378.4,141,395.7,127.4,407.5z&#10;&#9;&#9; M161.8,377L161.8,377z"/>
	<path class="st1_career-4-92" d="M149.4,374.9c0,0,27.6,14.1,40.4,11.5c36.8-7.5,55.6-58.3,55.6-58.3s-24.7-3.3-37.8-6.6h-42.4L149.4,374.9z"/>
	<path class="st0_career-4-92" d="M186.3,387.6c-13.7,0-36.2-11.4-37.2-12c-0.4-0.2-0.5-0.6-0.4-1l15.7-53.3c0.1-0.4,0.4-0.6,0.8-0.6h42.4h0.2&#10;&#9;&#9;c12.9,3.2,37.5,6.5,37.7,6.6c0.3,0,0.5,0.2,0.6,0.4c0.1,0.2,0.2,0.5,0.1,0.7c-0.2,0.5-19.4,51.3-56.2,58.8&#10;&#9;&#9;C188.7,387.4,187.5,387.6,186.3,387.6z M150.4,374.5c4.1,2,27.9,13.4,39.2,11.1c33.1-6.7,51.7-49.8,54.6-56.8&#10;&#9;&#9;c-4.9-0.7-25.3-3.6-36.8-6.4h-41.6L150.4,374.5z"/>
	<path class="st3_career-4-92 targetColor" d="M213.6,272.7c2-6.4-3.6-12.6-30-7.5c-6.4,1.2-11,6.9-15.3,8.8c-0.6,3.7-13,48.4-15.5,61&#10;&#9;&#9;c0,0,45.1,5.8,58.1-12.6C210.9,322.5,211.7,276.8,213.6,272.7z" style="fill: rgb(104, 225, 253);"/>
	<path class="st3_career-4-92 targetColor" d="M177.2,264.5c0,0-25.2,14.5-31.1,18s-32.6,37.4-32.6,37.4l10.2,8.2c0,0,22.7-26,26.9-28.4s26.5-12.4,26.5-12.4&#10;&#9;&#9;V264.5z" style="fill: rgb(104, 225, 253);"/>
	<path class="st3_career-4-92 targetColor" d="M213.5,268.2l17.3,33.8l14.5-18.5l7.6,8.4c0,0-12.8,25.2-19,25c-13.4-0.3-31.2-27.8-31.2-27.8L213.5,268.2z" style="fill: rgb(104, 225, 253);"/>
	<path class="st0_career-4-92" d="M136.3,416.4c-0.7-9.2-4.9-11.9-7.9-10.9s-5.1,1.3-4.2,10.2s5.7,21.7,10.5,20.6S137,425.6,136.3,416.4z"/>
	<path class="st0_career-4-92" d="M134,437.2c-0.9,0-1.8-0.3-2.5-0.9c-4-2.9-7.5-12.9-8.2-20.5c-0.8-8.8,1.1-9.9,4.4-10.9l0.4-0.1&#10;&#9;&#9;c1.5-0.5,3.1-0.2,4.3,0.7c2.6,1.7,4.2,5.6,4.7,10.9l0,0c0.1,1.9,0.4,3.9,0.6,5.8c0.9,7.4,1.7,13.9-2.9,14.9&#10;&#9;&#9;C134.5,437.1,134.3,437.2,134,437.2z M129.5,406.2c-0.3,0-0.7,0-1,0.1l-0.4,0.1c-2.6,0.9-4.1,1.3-3.3,9.2&#10;&#9;&#9;c0.7,7.1,3.9,16.7,7.5,19.3c0.6,0.5,1.3,0.7,2,0.5c3.1-0.7,2.4-6.5,1.6-13.2c-0.2-1.9-0.5-3.9-0.6-5.9l0,0c-0.5-6.5-2.7-8.9-4-9.7&#10;&#9;&#9;C130.9,406.4,130.2,406.2,129.5,406.2L129.5,406.2z"/>
	<path class="st1_career-4-92" d="M193,227.7c-9.3-3.9-17,2.2-20.2,7.5c-4.9,8-3.9,19.1-5.4,21.5c-7.7,12.1-14.6,16-14.6,16s29.3,10.9,40.7,1.7&#10;&#9;&#9;c-1.7-6-2.5-12.2-2.3-18.4c0.1-2.7,0.9-5.1,1.2-7.6c0.1-0.8-1.3-10.1-1.9-10.3c1.9,0.7,4.3-0.1,6.2-0.4c1.5-0.3,2.8-1,4-2&#10;&#9;&#9;C200.7,235.6,202.3,231.6,193,227.7z"/>
	<path class="st0_career-4-92" d="M179.9,279c-12.4,0-26.5-5.2-27.3-5.5c-0.4-0.2-0.6-0.6-0.5-1c0.1-0.2,0.2-0.3,0.4-0.4c0.1,0,6.8-4,14.3-15.8&#10;&#9;&#9;c0.4-0.7,0.7-2.7,0.9-5.1c0.5-4.7,1.2-11.1,4.4-16.4c3.9-6.4,12.1-11.6,21.2-7.8l0,0c10,4.1,8.3,8.7,8.2,8.9c0,0.1-0.1,0.2-0.2,0.3&#10;&#9;&#9;c-1.3,1.1-2.8,1.8-4.4,2.2l-1,0.2c-1.4,0.4-2.8,0.5-4.2,0.5c0.7,3.1,1.2,6.2,1.5,9.4c-0.1,1.1-0.3,2.2-0.6,3.2&#10;&#9;&#9;c-0.3,1.4-0.5,2.9-0.6,4.3c-0.2,6.2,0.5,12.3,2.3,18.3c0.1,0.3,0,0.6-0.3,0.9C190.5,278,185.3,279,179.9,279z M154.6,272.5&#10;&#9;&#9;c6,2,28.3,8.8,38,1.7c-1.7-5.9-2.4-12.1-2.2-18.2c0.1-1.5,0.3-3.1,0.6-4.6c0.2-1,0.4-2,0.5-3.1c0-0.9-1.1-8.5-1.7-9.6&#10;&#9;&#9;c-0.3-0.3-0.4-0.8-0.1-1.1c0.2-0.2,0.6-0.3,0.9-0.2l0,0c1.4,0.5,3.2,0.1,4.8-0.3l1-0.2c1.3-0.3,2.4-0.8,3.5-1.6&#10;&#9;&#9;c0.1-0.7,0-3.6-7.3-6.7c-9.4-3.9-16.5,2.7-19.2,7.2c-3,5-3.7,11.2-4.2,15.7c-0.3,2.8-0.5,4.7-1.2,5.8&#10;&#9;&#9;C162.3,266.2,157,270.7,154.6,272.5L154.6,272.5z"/>
	<path class="st0_career-4-92" d="M231.2,317.7h-0.1c-13.7-2.5-28.4-27.1-29.1-28.2c-0.2-0.4-0.1-0.9,0.3-1.1c0,0,0,0,0,0&#10;&#9;&#9;c0.4-0.2,0.9-0.1,1.1,0.3c0.1,0.2,14.9,25,28,27.4c0.4,0.1,0.7,0.5,0.6,1C232,317.4,231.7,317.7,231.2,317.7L231.2,317.7z"/>
	<path class="st0_career-4-92" d="M198.1,259.3l-6.6-1c0.9,1.5,2.3,2.7,4,3.3c2.6,1,3.8,0.5,3.8,0.5L198.1,259.3z"/>
	<path class="st0_career-4-92" d="M198.4,263c-1.1,0-2.2-0.3-3.2-0.7c-1.9-0.6-3.5-1.9-4.5-3.7c-0.2-0.4,0-0.9,0.4-1.1c0.1-0.1,0.3-0.1,0.4-0.1&#10;&#9;&#9;l6.6,1c0.3,0,0.5,0.2,0.6,0.5l1.2,2.8c0.2,0.4,0,0.9-0.4,1.1c0,0,0,0,0,0C199.2,262.9,198.8,263,198.4,263z M193.4,259.4&#10;&#9;&#9;c0.7,0.6,1.5,1.1,2.4,1.4c0.7,0.3,1.5,0.5,2.3,0.6l-0.6-1.3L193.4,259.4z"/>
	<path class="st0_career-4-92" d="M185.6,250.9c-0.1,0-0.1,0-0.2,0c-0.4-0.1-0.7-0.6-0.6-1c0,0,0,0,0,0c0.3-1.1,0.7-2.3,1.2-3.3&#10;&#9;&#9;c0.2-0.2,0.5-0.6,18.1-5.7c0.4-0.1,0.9,0.1,1,0.6c0.1,0.4-0.1,0.9-0.6,1c-6.1,1.8-15.8,4.6-17.3,5.3c-0.2,0.4-0.6,1.6-0.9,2.6&#10;&#9;&#9;C186.3,250.7,186,250.9,185.6,250.9z"/>
	<path class="st1_career-4-92" d="M195.2,248.3c-0.2-0.9-0.7-1.8-1.4-2.4c-0.4-0.6-1-1.1-1.6-1.5c-0.6-0.4-1.4-0.6-2.1-0.4&#10;&#9;&#9;c-0.6,0.2-1.1,0.7-1.3,1.3c-0.2,0.6-0.3,1.3-0.2,1.9c0.2,2.9,2,5.4,4.6,6.7l-0.2-0.2"/>
	<path class="st0_career-4-92" d="M193.1,254.6c-0.1,0-0.2,0-0.3-0.1c-2.9-1.4-4.8-4.2-5-7.4c-0.1-0.8,0-1.5,0.3-2.3c0.3-0.8,1-1.5,1.8-1.8&#10;&#9;&#9;c1-0.3,2-0.1,2.8,0.5c0.7,0.5,1.3,1,1.7,1.7c0.8,0.8,1.3,1.8,1.5,2.9c0.1,0.4-0.2,0.8-0.7,0.9c0,0,0,0,0,0&#10;&#9;&#9;c-0.4,0.1-0.8-0.2-0.9-0.7c0,0,0,0,0,0c-0.2-0.8-0.6-1.4-1.2-2c-0.4-0.5-0.9-1-1.4-1.4c-0.4-0.3-0.9-0.4-1.4-0.3&#10;&#9;&#9;c-0.4,0.2-0.7,0.5-0.8,0.9c-0.2,0.5-0.2,1-0.2,1.6c0.2,2.4,1.5,4.6,3.6,5.8c0.2,0,0.3,0,0.4,0.2c0.3,0.3,0.4,0.7,0.3,1.1&#10;&#9;&#9;C193.6,254.5,193.3,254.6,193.1,254.6z"/>
	<path class="st0_career-4-92" d="M154.9,326.8c-0.1,0-0.1,0-0.2,0c-0.4-0.1-0.7-0.5-0.6-1c0,0,0,0,0,0c1.6-6.6,10.1-43.9,10.2-45.6&#10;&#9;&#9;c0-0.4,0.4-0.8,0.8-0.8c0,0,0,0,0,0c0.4,0,0.8,0.4,0.8,0.8c0,1.6-9.6,43.3-10.3,45.9C155.6,326.6,155.2,326.8,154.9,326.8z"/>
	<polyline class="st1_career-4-92" points="274.1,285.1 271.4,263.4 252.9,253.6 &#9;"/>
	<path class="st2_career-4-92" d="M274.1,285.9c-0.4,0-0.7-0.3-0.8-0.7l-2.6-21.3l-18.1-9.6c-0.4-0.2-0.5-0.7-0.3-1.1c0.2-0.4,0.7-0.5,1.1-0.3&#10;&#9;&#9;c0,0,0,0,0,0l18.5,9.8c0.2,0.1,0.4,0.4,0.4,0.6l2.7,21.7c0.1,0.4-0.3,0.9-0.7,0.9H274.1z"/>
</g>
<g id="Papers_Flying_career-4-92">
	<path class="st1_career-4-92" d="M100.1,258.2c0,0-19.2,8.4-26,22l-17.8-18.8c0,0,7.7-15.1,25.5-19.8L100.1,258.2z"/>
	<path class="st2_career-4-92" d="M74.1,281.1c-0.2,0-0.4-0.1-0.6-0.2L55.8,262c-0.2-0.3-0.3-0.6-0.1-0.9c0.1-0.1,8.1-15.5,26-20.2&#10;&#9;&#9;c0.3-0.1,0.5,0,0.8,0.2l18.3,16.6c0.3,0.3,0.4,0.8,0.1,1.1c-0.1,0.1-0.2,0.2-0.3,0.2c-0.2,0.1-19,8.4-25.6,21.6&#10;&#9;&#9;c-0.1,0.2-0.3,0.4-0.6,0.4L74.1,281.1z M57.3,261.4l16.6,17.5c6.3-11.4,20.6-18.9,24.8-20.9l-17-15.4&#10;&#9;&#9;C66.5,246.8,58.8,258.8,57.3,261.4z"/>
	<path class="st2_career-4-92" d="M86.4,259.7c-0.2,0-0.4-0.1-0.6-0.2l-10.5-10.1c-0.4-0.3-0.4-0.8-0.1-1.1s0.8-0.4,1.1-0.1c0,0,0.1,0.1,0.1,0.1&#10;&#9;&#9;L87,258.3c0.3,0.3,0.3,0.8,0,1.1C86.8,259.6,86.6,259.7,86.4,259.7z"/>
	<path class="st2_career-4-92" d="M77.5,262.3c-0.2,0-0.5-0.1-0.6-0.3l-6.8-8.1c-0.3-0.3-0.4-0.8-0.1-1.1c0.3-0.3,0.8-0.4,1.1-0.1&#10;&#9;&#9;c0.1,0.1,0.2,0.2,0.2,0.3l6.8,8.1c0.3,0.3,0.2,0.9-0.1,1.1C77.9,262.2,77.7,262.3,77.5,262.3z"/>
	<path class="st2_career-4-92" d="M69.8,263.3c-0.3,0-0.5-0.1-0.7-0.4l-3.4-5.1c-0.2-0.4-0.1-0.9,0.2-1.1c0.4-0.2,0.9-0.1,1.1,0.3l3.4,5&#10;&#9;&#9;c0.2,0.4,0.1,0.9-0.2,1.1C70.1,263.2,69.9,263.3,69.8,263.3z"/>
	<path class="st1_career-4-92" d="M433.7,217.2c0,0-12.7,18.4-36.3,20l6.1,23.8c0,0,26.9,8,40.2-12.9L433.7,217.2z"/>
	<path class="st2_career-4-92" d="M415.3,263.3c-4,0-8.1-0.5-12-1.5c-0.3-0.1-0.5-0.3-0.5-0.6l-6.1-23.8c-0.1-0.2,0-0.5,0.1-0.7&#10;&#9;&#9;c0.1-0.2,0.4-0.3,0.6-0.3c22.9-1.6,35.6-19.4,35.7-19.6c0.3-0.4,0.8-0.5,1.1-0.2c0.1,0.1,0.2,0.2,0.3,0.4l10,30.9&#10;&#9;&#9;c0.1,0.2,0,0.5-0.1,0.7C436.6,260.7,424.4,263.3,415.3,263.3z M404.2,260.4c3.5,0.9,26.6,6,38.6-12.4l-9.4-29.1&#10;&#9;&#9;c-3.4,4.1-15.5,17.2-35,19L404.2,260.4z"/>
	<path class="st2_career-4-92" d="M410.7,258.9c-0.4,0-0.7-0.2-0.8-0.6l-4.6-15.9c-0.2-0.4,0-0.9,0.5-1c0.4-0.2,0.9,0,1,0.5c0,0,0,0.1,0,0.1&#10;&#9;&#9;l4.6,16c0.1,0.4-0.1,0.9-0.5,1c0,0,0,0,0,0C410.8,258.9,410.8,258.9,410.7,258.9z"/>
	<path class="st2_career-4-92" d="M419.6,256.9c-0.3,0-0.6-0.2-0.8-0.5c-7-17-6.9-17.1-6.3-17.6c0.3-0.3,0.8-0.2,1.1,0.1&#10;&#9;&#9;c0.1,0.1,0.2,0.3,0.2,0.5c0.3,1.1,4.1,10.6,6.5,16.4c0.1,0.4-0.1,0.8-0.4,1C419.8,256.8,419.7,256.9,419.6,256.9z"/>
	<path class="st2_career-4-92" d="M430,254.7c-0.3,0-0.6-0.2-0.8-0.5l-8.1-20.6c-0.2-0.4,0-0.9,0.3-1.1c0.4-0.2,0.9,0,1.1,0.3c0,0,0,0.1,0.1,0.2&#10;&#9;&#9;l8.1,20.6c0.2,0.4,0,0.9-0.5,1.1C430.2,254.7,430.1,254.7,430,254.7z"/>
	<path class="st2_career-4-92" d="M436.1,248.9c-0.3,0-0.6-0.2-0.8-0.5l-7.3-18.6c-0.1-0.4,0.1-0.9,0.6-1c0.4-0.1,0.8,0.1,0.9,0.4l7.3,18.6&#10;&#9;&#9;c0.1,0.4-0.1,0.8-0.5,1C436.3,248.9,436.2,248.9,436.1,248.9z"/>
	<path class="st1_career-4-92" d="M224.5,93.4c0,0-22.9,2.1-30.3,24.6l-30.4-17.1c0,0,6.9-24.1,33.7-30.1L224.5,93.4z"/>
	<path class="st2_career-4-92" d="M194.2,118.8c-0.1,0-0.3,0-0.4-0.1l-30.4-17c-0.3-0.2-0.5-0.6-0.4-0.9c0.1-0.2,7.3-24.7,34.3-30.6&#10;&#9;&#9;c0.2-0.1,0.5,0,0.7,0.2l27,22.5c0.3,0.3,0.4,0.8,0.1,1.1c-0.1,0.2-0.3,0.3-0.5,0.3c-0.2,0-22.4,2.3-29.6,24&#10;&#9;&#9;C194.8,118.5,194.5,118.8,194.2,118.8L194.2,118.8z M164.8,100.6l29,16.3c6.5-18.2,23.2-22.9,28.8-23.9l-25.3-21.1&#10;&#9;&#9;C173.9,77.1,166.1,96.8,164.8,100.6z"/>
	<path class="st2_career-4-92" d="M209.4,89.7c-0.2,0-0.4-0.1-0.5-0.2l-15.2-13c-0.3-0.3-0.2-0.9,0.1-1.1c0.2-0.2,0.6-0.2,0.9-0.1l15.2,13&#10;&#9;&#9;c0.4,0.3,0.4,0.8,0.2,1.1c0,0,0,0,0,0C209.8,89.6,209.6,89.7,209.4,89.7z"/>
	<path class="st2_career-4-92" d="M202.8,95.2c-0.2,0-0.4-0.1-0.5-0.2l-15-13.5c-0.3-0.3-0.4-0.8-0.1-1.1c0.3-0.3,0.8-0.4,1.1-0.1l15,13.5&#10;&#9;&#9;c0.3,0.3,0.4,0.8,0.1,1.1C203.2,95.2,203,95.2,202.8,95.2L202.8,95.2z"/>
	<path class="st2_career-4-92" d="M195.2,99.9c-0.2,0-0.4-0.1-0.5-0.2l-13.4-11.4c-0.4-0.2-0.6-0.7-0.3-1.1c0.2-0.4,0.7-0.6,1.1-0.3&#10;&#9;&#9;c0.1,0.1,0.2,0.1,0.3,0.2l13.5,11.4c0.3,0.3,0.4,0.8,0.1,1.1C195.7,99.8,195.5,99.9,195.2,99.9z"/>
	<path class="st2_career-4-92" d="M190.2,107.2c-0.2,0-0.3,0-0.4-0.1l-15.9-10.2c-0.4-0.2-0.5-0.8-0.2-1.1c0.2-0.4,0.7-0.5,1.1-0.2l15.9,10.2&#10;&#9;&#9;c0.4,0.2,0.5,0.7,0.3,1.1c0,0,0,0,0,0C190.8,107.1,190.5,107.2,190.2,107.2z"/>
	<path class="st2_career-4-92" d="M404.8,154.9c-13.4,0-15.2-6.3-15.2-6.6c0-0.2,0-0.4,0-0.6l5.6-11.3c0.1-0.3,0.4-0.4,0.7-0.4&#10;&#9;&#9;c0.3,0,0.6,0.1,0.7,0.3c4.6,6.4,15.6,2.6,15.7,2.6c0.4-0.1,0.9,0.1,1,0.6c0,0.1,0,0.3,0,0.4l-3.6,14.2c-0.1,0.3-0.4,0.6-0.7,0.6&#10;&#9;&#9;C407.5,154.8,406.1,154.9,404.8,154.9z M391.2,148.2c0.6,1.2,3.7,6,17.1,5l3.1-12.3c-3.1,0.8-10.8,2.2-15.3-2.6L391.2,148.2z&#10;&#9;&#9; M390.4,148.2L390.4,148.2z"/>
	<path class="st2_career-4-92" d="M114,170.9c-0.1,0-0.2,0-0.3-0.1l-19.2-8.4c-0.4-0.2-0.6-0.6-0.4-0.9l4.1-15.6c0.1-0.3,0.3-0.5,0.6-0.6&#10;&#9;&#9;c0.3-0.1,0.6,0,0.8,0.2c1.9,2,14.3,6.7,18.9,8.4c0.4,0.1,0.6,0.6,0.5,1l-4.1,15.5c-0.1,0.2-0.2,0.4-0.4,0.5&#10;&#9;&#9;C114.3,170.9,114.1,170.9,114,170.9z M95.7,161.2l17.8,7.8l3.6-13.9c-3.1-1.1-13.9-5.1-17.8-7.7L95.7,161.2z"/>
</g>
<g id="Office_Chair_career-4-92">
	<path class="st0_career-4-92" d="M293,108.8c-0.3,0-0.6-0.2-0.7-0.6c-0.3-1.3-3-12.4,1.8-14.2c1.7-0.6,10.9-0.1,12.7,0.1&#10;&#9;&#9;c0.4,0.1,0.7,0.4,0.6,0.8c-0.1,0.3-0.4,0.6-0.7,0.6c-4.1-0.3-11.1-0.5-12.1-0.1c-3,1.1-1.6,9.6-0.9,12.5c0.1,0.4-0.1,0.8-0.5,0.9&#10;&#9;&#9;c0,0,0,0,0,0L293,108.8z"/>
	<path class="st0_career-4-92" d="M321.4,127.8c-0.4,0-0.8-0.4-0.8-0.8v-13.5c0-0.4,0.5-0.8,0.9-0.7c0.4,0,0.7,0.3,0.7,0.7V127&#10;&#9;&#9;C322.2,127.4,321.8,127.8,321.4,127.8z"/>
	<path class="st0_career-4-92" d="M309.8,134c-0.2,0-0.5-0.1-0.6-0.3c-0.3-0.3-0.3-0.8,0.1-1.1c0.2-0.2,6.2-5.5,12-5.5h0.1&#10;&#9;&#9;c4.3,0.1,10.7,5.2,11,5.4c0.3,0.3,0.4,0.8,0.1,1.1c0,0,0,0,0,0c-0.3,0.3-0.8,0.4-1.1,0.1c0,0,0,0,0,0c-0.1-0.1-6.3-5-10-5.1&#10;&#9;&#9;c-5.2-0.1-11,5-11,5.1C310.3,133.9,310.1,134,309.8,134z"/>
	<path class="st1_career-4-92" d="M343.5,64.3c-0.1,0.4-29-2.8-32.2,1.8c-8.5,12.4-3.5,42.5-3.5,42.5h26.8c0,0,4.5-34.7,6.9-37.6&#10;&#9;&#9;C342.9,69,343.6,66.7,343.5,64.3z"/>
	<path class="st0_career-4-92" d="M334.6,109.3h-26.8c-0.4,0-0.7-0.3-0.7-0.6c-0.2-1.2-4.9-30.6,3.6-43.1c2.4-3.5,15.3-3.1,29-2.3&#10;&#9;&#9;c1.6,0.1,3.2,0.2,3.6,0.2c0.1,0,0.2,0,0.3,0c0.4,0,0.7,0.3,0.7,0.7c0.1,2.6-0.7,5.1-2.2,7.2c-1.6,2-4.9,23.4-6.7,37.3&#10;&#9;&#9;C335.2,109.1,334.9,109.3,334.6,109.3z M308.5,107.9h25.5c0.8-5.7,4.6-34.5,6.9-37.4c1.2-1.6,1.9-3.5,1.9-5.5&#10;&#9;&#9;c-0.7,0-1.6-0.1-3.1-0.2c-6.3-0.4-25.5-1.6-27.7,1.6C304.4,77.5,307.8,103.5,308.5,107.9L308.5,107.9z"/>
	<path class="st1_career-4-92" d="M336.8,72.3c-3.1,13.5-2.2,36.3-2.2,36.3h6.5l7.2-39C349.1,65.4,339.9,58.8,336.8,72.3z"/>
	<path class="st0_career-4-92" d="M341.1,109.3h-6.5c-0.4,0-0.7-0.3-0.7-0.7c0-0.2-0.8-23.1,2.2-36.5c2-8.8,6.4-8.9,8.1-8.5&#10;&#9;&#9;c2.9,0.6,5.3,3.6,4.8,6.1c-1.6,8.4-7.2,39-7.2,39C341.8,109.1,341.4,109.3,341.1,109.3z M335.3,107.9h5.2&#10;&#9;&#9;c0.8-4.3,5.7-30.6,7.1-38.4c0.3-1.7-1.6-4-3.7-4.4c-2.9-0.6-5.2,2.1-6.4,7.4C334.8,84.4,335.2,103.9,335.3,107.9L335.3,107.9z"/>
	<path class="st1_career-4-92" d="M300.2,108.6h40.9c0,0-0.7,7.1-2.5,7.4s-32,0-34.5,0S300.2,108.6,300.2,108.6z"/>
	<path class="st0_career-4-92" d="M329.5,116.9c-5.6,0-13.3,0-21.2-0.1h-4.2c-3,0-4.3-6.7-4.6-8c0-0.2,0-0.4,0.2-0.6c0.1-0.2,0.4-0.3,0.6-0.3&#10;&#9;&#9;h40.9c0.2,0,0.4,0.1,0.5,0.2c0.1,0.2,0.2,0.4,0.2,0.6c-0.2,2.3-1,7.7-3.1,8.1C338.1,116.8,334.6,116.9,329.5,116.9z M301.1,109.3&#10;&#9;&#9;c0.6,2.7,1.8,5.9,3,5.9h4.3c7.9,0.1,28.8,0.2,30.1,0c0.6-0.2,1.4-2.9,1.8-6L301.1,109.3z"/>
	<path class="st1_career-4-92" d="M292,108.6h33.6c0,0-0.6,7.1-2.1,7.4s-26.3,0-28.4,0S292,108.6,292,108.6z"/>
	<path class="st0_career-4-92" d="M316,116.9c-4.6,0-10.9,0-17.3-0.1h-3.5c-2.4,0-3.5-5.6-3.9-8c0-0.2,0-0.4,0.2-0.6c0.1-0.2,0.3-0.2,0.5-0.2&#10;&#9;&#9;h33.6c0.4,0,0.7,0.3,0.7,0.7c0,0,0,0,0,0.1c-0.3,3.5-1,7.7-2.7,8.1C323.2,116.8,320.3,116.9,316,116.9z M292.9,109.3&#10;&#9;&#9;c0.6,3.2,1.6,5.9,2.3,5.9h3.5c6.5,0.1,23.6,0.2,24.8,0c0.5-0.3,1.1-3,1.4-6L292.9,109.3z"/>
	<path class="st0_career-4-92" d="M320.6,108.8c-0.3,0-0.6-0.2-0.7-0.6c-0.3-1.3-3-12.4,1.8-14.2c1.7-0.6,10.9-0.1,12.7,0.1&#10;&#9;&#9;c0.4,0.1,0.7,0.4,0.6,0.8c-0.1,0.3-0.4,0.6-0.7,0.6c-4.1-0.3-11.1-0.5-12.1-0.1c-3,1.1-1.6,9.6-0.9,12.5c0.1,0.4-0.1,0.8-0.5,0.9&#10;&#9;&#9;c0,0,0,0,0,0L320.6,108.8z"/>
</g>
</svg>