<svg version="1.1" id="Layer_1" xmlns="http://www.w3.org/2000/svg" xmlns:xlink="http://www.w3.org/1999/xlink" x="0px" y="0px" viewBox="0 0 500 500" style="width: 188px;" xml:space="preserve" data-imageid="ceo-24-10f9b" imageName="CEO" class="illustrations_image">
<style type="text/css">
	.st0_ceo-24-10f9b{fill:#FFFFFF;}
	.st1_ceo-24-10f9b{fill:#D1D3D4;}
	.st2_ceo-24-10f9b{fill:#231F20;}
	.st3_ceo-24-10f9b{fill:#68E1FD;}
</style>
<g id="Window_ceo-24-10f9b">
	<rect x="57.4" y="98.3" class="st0_ceo-24-10f9b" width="384.6" height="248.5"/>
	<path class="st1_ceo-24-10f9b" d="M442,348.9H57.4c-1.2,0-2.1-0.9-2.1-2.1l0,0V98.3c0-1.2,0.9-2.1,2.1-2.1H442c1.2,0,2.1,0.9,2.1,2.1&#10;&#9;&#9;c0,0,0,0,0,0v248.5C444.1,348,443.2,348.9,442,348.9L442,348.9z M59.5,344.7h380.4V100.4H59.5L59.5,344.7z"/>
	<path class="st1_ceo-24-10f9b" d="M442.6,156.7H58.1c-1.2,0-2.1-0.9-2.1-2.1c0-1.2,0.9-2.1,2.1-2.1h384.6c1.2,0,2.1,0.9,2.1,2.1&#10;&#9;&#9;C444.7,155.7,443.8,156.7,442.6,156.7C442.6,156.7,442.6,156.7,442.6,156.7z"/>
	<path class="st1_ceo-24-10f9b" d="M145.9,349.5c-1.2,0-2.1-0.9-2.1-2.1l0,0V98.3c0-1.2,0.9-2.1,2.1-2.1c1.2,0,2.1,0.9,2.1,2.1v249.1&#10;&#9;&#9;C148,348.5,147,349.5,145.9,349.5z"/>
	<path class="st1_ceo-24-10f9b" d="M353.5,349.5c-1.2,0-2.1-0.9-2.1-2.1l0,0V98.3c0-1.2,0.9-2.1,2.1-2.1s2.1,0.9,2.1,2.1v249.1&#10;&#9;&#9;C355.6,348.5,354.6,349.5,353.5,349.5z"/>
	<path class="st1_ceo-24-10f9b" d="M136.6,346.4c-0.4,0-0.7-0.3-0.7-0.7l0,0v-95.4h-31.7c-0.4,0-0.7-0.3-0.7-0.7v-36.4H57.4&#10;&#9;&#9;c-0.4,0-0.7-0.3-0.7-0.7c0-0.4,0.3-0.7,0.7-0.7h46.9c0.4,0,0.7,0.3,0.7,0.7v36.4h31.7c0.4,0,0.7,0.3,0.7,0.7v96.1&#10;&#9;&#9;C137.3,346.1,137,346.4,136.6,346.4C136.6,346.4,136.6,346.4,136.6,346.4z"/>
	<path class="st1_ceo-24-10f9b" d="M369.6,346.4c-0.4,0-0.7-0.3-0.7-0.7v0v-167c0-0.4,0.3-0.7,0.7-0.7l0,0h73.1c0.4,0,0.7,0.3,0.7,0.7&#10;&#9;&#9;c0,0.4-0.3,0.7-0.7,0.7h-72.4v166.3C370.3,346.1,370,346.4,369.6,346.4L369.6,346.4z"/>
	<path class="st1_ceo-24-10f9b" d="M442,189.1h-72.4c-0.4,0-0.7-0.3-0.7-0.7c0-0.4,0.3-0.7,0.7-0.7H442c0.4,0,0.7,0.3,0.7,0.7&#10;&#9;&#9;S442.4,189.1,442,189.1C442,189.1,442,189.1,442,189.1z"/>
	<path class="st1_ceo-24-10f9b" d="M124.8,250.3c-0.4,0-0.7-0.3-0.7-0.7V141.9l-20.2-28.1H56.3c-0.4,0-0.7-0.3-0.7-0.7c0-0.4,0.3-0.7,0.7-0.7&#10;&#9;&#9;h47.9c0.2,0,0.4,0.1,0.6,0.3l20.6,28.6c0.1,0.1,0.1,0.3,0.1,0.4v108C125.5,250,125.2,250.3,124.8,250.3z"/>
	<path class="st1_ceo-24-10f9b" d="M369.6,213.3H124.8c-0.4,0-0.7-0.3-0.7-0.7c0-0.4,0.3-0.7,0.7-0.7h244.8c0.4,0,0.7,0.3,0.7,0.7&#10;&#9;&#9;S370,213.3,369.6,213.3C369.6,213.3,369.6,213.3,369.6,213.3z"/>
	<path class="st1_ceo-24-10f9b" d="M406.1,179.4c-0.4,0-0.7-0.3-0.7-0.7c0,0,0,0,0,0v-48.2c0-0.4,0.3-0.7,0.7-0.7l0,0h36.5c0.4,0,0.7,0.3,0.7,0.7&#10;&#9;&#9;c0,0.4-0.3,0.7-0.7,0.7h-35.8v47.5C406.8,179.1,406.5,179.4,406.1,179.4L406.1,179.4z"/>
	<path class="st1_ceo-24-10f9b" d="M395.9,224.9h-6.3c-0.4,0-0.7-0.3-0.7-0.7c0,0,0,0,0,0v-6.3c0-0.4,0.3-0.7,0.7-0.7h6.3c0.4,0,0.7,0.3,0.7,0.7&#10;&#9;&#9;c0,0,0,0,0,0v6.3C396.6,224.6,396.3,224.9,395.9,224.9L395.9,224.9z M390.3,223.5h4.9v-4.9h-4.9V223.5z"/>
	<path class="st1_ceo-24-10f9b" d="M419.3,241.6h-6.3c-0.4,0-0.7-0.3-0.7-0.7c0,0,0,0,0,0v-6.3c0-0.4,0.3-0.7,0.7-0.7l0,0h6.3&#10;&#9;&#9;c0.4,0,0.7,0.3,0.7,0.7c0,0,0,0,0,0v6.3C420,241.3,419.6,241.6,419.3,241.6L419.3,241.6z M413.6,240.2h4.9v-4.9h-4.9V240.2z"/>
	<path class="st1_ceo-24-10f9b" d="M395.1,264.7h-6.3c-0.4,0-0.7-0.3-0.7-0.7v0v-6.3c0-0.4,0.3-0.7,0.7-0.7h0h6.3c0.4,0,0.7,0.3,0.7,0.7v0v6.3&#10;&#9;&#9;C395.8,264.4,395.5,264.7,395.1,264.7C395.1,264.7,395.1,264.7,395.1,264.7z M389.5,263.3h4.9v-4.9h-4.9V263.3z"/>
	<path class="st1_ceo-24-10f9b" d="M422.4,292.7h-6.3c-0.4,0-0.7-0.3-0.7-0.7v0v-6.3c0-0.4,0.3-0.7,0.7-0.7h0h6.3c0.4,0,0.7,0.3,0.7,0.7v0v6.3&#10;&#9;&#9;C423.1,292.4,422.8,292.7,422.4,292.7C422.4,292.7,422.4,292.7,422.4,292.7z M416.8,291.3h4.9v-4.9h-4.9L416.8,291.3z"/>
	<path class="st1_ceo-24-10f9b" d="M87.9,213.3c-0.4,0-0.7-0.3-0.7-0.7v-99.5c0-0.4,0.3-0.7,0.7-0.7c0.4,0,0.7,0.3,0.7,0.7v99.5&#10;&#9;&#9;C88.6,213,88.2,213.3,87.9,213.3C87.9,213.3,87.9,213.3,87.9,213.3z"/>
	<path class="st1_ceo-24-10f9b" d="M87.7,121.4H57.4c-0.4,0-0.7-0.3-0.7-0.7c0-0.4,0.3-0.7,0.7-0.7h30.3c0.4,0,0.7,0.3,0.7,0.7&#10;&#9;&#9;C88.4,121.1,88.1,121.4,87.7,121.4z"/>
	<path class="st1_ceo-24-10f9b" d="M87.7,130.2H57.4c-0.4,0-0.7-0.3-0.7-0.7c0-0.4,0.3-0.7,0.7-0.7h30.3c0.4,0,0.7,0.3,0.7,0.7&#10;&#9;&#9;C88.4,129.9,88.1,130.2,87.7,130.2C87.7,130.2,87.7,130.2,87.7,130.2z"/>
	<path class="st1_ceo-24-10f9b" d="M87.7,138.9H57.4c-0.4,0-0.7-0.3-0.7-0.7c0-0.4,0.3-0.7,0.7-0.7c0,0,0,0,0,0h30.3c0.4,0,0.7,0.3,0.7,0.7&#10;&#9;&#9;C88.4,138.6,88.1,138.9,87.7,138.9z"/>
	<path class="st1_ceo-24-10f9b" d="M87.7,147.7H57.4c-0.4,0-0.7-0.3-0.7-0.7c0-0.4,0.3-0.7,0.7-0.7c0,0,0,0,0,0h30.3c0.4,0,0.7,0.3,0.7,0.7&#10;&#9;&#9;C88.4,147.3,88.1,147.7,87.7,147.7z"/>
	<path class="st1_ceo-24-10f9b" d="M87.7,156.4H57.4c-0.4,0-0.7-0.3-0.7-0.7c0-0.4,0.3-0.7,0.7-0.7c0,0,0,0,0,0h30.3c0.4,0,0.7,0.3,0.7,0.7&#10;&#9;&#9;C88.4,156.1,88.1,156.4,87.7,156.4z"/>
	<path class="st1_ceo-24-10f9b" d="M87.7,165.1H57.4c-0.4,0-0.7-0.3-0.7-0.7c0-0.4,0.3-0.7,0.7-0.7c0,0,0,0,0,0h30.3c0.4,0,0.7,0.3,0.7,0.7&#10;&#9;&#9;C88.4,164.8,88.1,165.1,87.7,165.1z"/>
	<path class="st1_ceo-24-10f9b" d="M87.7,173.9H57.4c-0.4,0-0.7-0.3-0.7-0.7c0-0.4,0.3-0.7,0.7-0.7h30.3c0.4,0,0.7,0.3,0.7,0.7&#10;&#9;&#9;C88.4,173.6,88.1,173.9,87.7,173.9C87.7,173.9,87.7,173.9,87.7,173.9z"/>
	<path class="st1_ceo-24-10f9b" d="M87.7,182.6H57.4c-0.4,0-0.7-0.3-0.7-0.7c0-0.4,0.3-0.7,0.7-0.7h30.3c0.4,0,0.7,0.3,0.7,0.7&#10;&#9;&#9;C88.4,182.3,88.1,182.6,87.7,182.6C87.7,182.6,87.7,182.6,87.7,182.6z"/>
	<path class="st1_ceo-24-10f9b" d="M87.7,191.4H57.4c-0.4,0-0.7-0.3-0.7-0.7c0-0.4,0.3-0.7,0.7-0.7h30.3c0.4,0,0.7,0.3,0.7,0.7&#10;&#9;&#9;C88.4,191,88.1,191.3,87.7,191.4C87.7,191.4,87.7,191.4,87.7,191.4z"/>
	<path class="st1_ceo-24-10f9b" d="M87.7,200.1H57.4c-0.4,0-0.7-0.3-0.7-0.7c0-0.4,0.3-0.7,0.7-0.7h30.3c0.4,0,0.7,0.3,0.7,0.7&#10;&#9;&#9;C88.4,199.8,88.1,200.1,87.7,200.1C87.7,200.1,87.7,200.1,87.7,200.1z"/>
	<path class="st1_ceo-24-10f9b" d="M80.1,268.3h-7.9c-0.4,0-0.7-0.3-0.7-0.7l0,0v-12c0-0.4,0.3-0.7,0.7-0.7h7.9c0.4,0,0.7,0.3,0.7,0.7v12&#10;&#9;&#9;C80.8,268,80.5,268.3,80.1,268.3L80.1,268.3z M72.8,266.9h6.6v-10.6h-6.6V266.9z"/>
	<path class="st1_ceo-24-10f9b" d="M118.4,285.9h-8c-0.4,0-0.7-0.3-0.7-0.7l0,0v-12c0-0.4,0.3-0.7,0.7-0.7h0h8c0.4,0,0.7,0.3,0.7,0.7v12&#10;&#9;&#9;C119.2,285.6,118.8,285.9,118.4,285.9L118.4,285.9z M111.2,284.5h6.6v-10.6h-6.6V284.5z"/>
	<path class="st1_ceo-24-10f9b" d="M94.5,323.4h-8c-0.4,0-0.7-0.3-0.7-0.7l0,0v-12c0-0.4,0.3-0.7,0.7-0.7h0h8c0.4,0,0.7,0.3,0.7,0.7v12&#10;&#9;&#9;C95.2,323.1,94.9,323.4,94.5,323.4L94.5,323.4z M87.3,322h6.6v-10.6h-6.6V322z"/>
	<path class="st1_ceo-24-10f9b" d="M181.4,213.3c-0.4,0-0.7-0.3-0.7-0.7V181h-47.1c-0.4,0-0.7-0.3-0.7-0.7v-10.7h-8.1c-0.4,0-0.7-0.3-0.7-0.7&#10;&#9;&#9;c0-0.4,0.3-0.7,0.7-0.7c0,0,0,0,0,0h8.8c0.4,0,0.7,0.3,0.7,0.7v10.7h47.1c0.4,0,0.7,0.3,0.7,0.7v32.2&#10;&#9;&#9;C182.1,213,181.8,213.3,181.4,213.3z"/>
	<path class="st1_ceo-24-10f9b" d="M414.6,131.2H411c-0.4,0-0.7-0.3-0.7-0.7c0,0,0,0,0,0v-22.2c0-0.4,0.3-0.7,0.7-0.7h3.7c0.4,0,0.7,0.3,0.7,0.7&#10;&#9;&#9;v0v22.2C415.4,130.9,415.1,131.2,414.6,131.2C414.7,131.2,414.6,131.2,414.6,131.2z M411.6,129.8h2.3V109h-2.3V129.8z"/>
</g>
<g id="Chair_ceo-24-10f9b">
	<path class="st2_ceo-24-10f9b" d="M187.2,108.6h124.6c9.6,0,17.6,7.5,18.1,17.1l12.8,214.1H156.3l12.8-214.1&#10;&#9;&#9;C169.6,116.1,177.6,108.6,187.2,108.6z"/>
	<path class="st2_ceo-24-10f9b" d="M342.7,340.5H156.3c-0.2,0-0.4-0.1-0.5-0.2c-0.1-0.1-0.2-0.3-0.2-0.5l12.8-214.1c0.6-10,8.9-17.8,18.8-17.8&#10;&#9;&#9;h124.6c10,0,18.3,7.8,18.9,17.8l12.8,214.1c0,0.2-0.1,0.4-0.2,0.5C343.1,340.5,342.9,340.5,342.7,340.5z M157,339.1h184.9&#10;&#9;&#9;l-12.7-213.4c-0.6-9.2-8.2-16.4-17.5-16.4H187.2c-9.2,0-16.9,7.2-17.4,16.4L157,339.1z"/>
</g>
<g id="Character_ceo-24-10f9b">
	<path class="st0_ceo-24-10f9b" d="M103.9,280.3c0,0-9.3-3.9-14.7-5.5s-17.8-4.6-21-6.7s-3.9,3.8-1.3,5.7s16,7.5,16.7,7.8s-9.5,1.5-13.1,0.7&#10;&#9;&#9;s-10.3-3.6-12.5-3.5s-2.4,3.5,0,6.1c0,0-1,2.1,1.7,4.4s18.1,9.9,29.6,10.6c6.6,0.3,13.3,0.3,19.9,0&#10;&#9;&#9;C109.4,299.9,109.7,284.9,103.9,280.3z"/>
	<path class="st2_ceo-24-10f9b" d="M98.8,300.8c-2.8,0-6.1-0.1-9.7-0.3c-11.9-0.7-27.3-8.4-30-10.7c-2.3-2-2.2-3.9-2-4.8c-1.4-1.7-2-3.8-1.4-5.3&#10;&#9;&#9;c0.3-0.9,1.2-1.6,2.2-1.6c1.5-0.1,4.4,0.8,7.4,1.9c1.8,0.6,3.5,1.2,5.3,1.6c2.3,0.5,7.6,0.1,10.6-0.2c-6-2.5-12.8-5.6-14.7-7&#10;&#9;&#9;c-1.9-1.6-2.4-4.3-1.2-6.5c0.6-0.8,1.8-1.4,3.3-0.3c2.4,1.6,10.3,3.8,16.2,5.4c1.8,0.5,3.3,0.9,4.6,1.3c5.4,1.6,14.7,5.5,14.8,5.5&#10;&#9;&#9;l0.2,0.1c5.9,4.6,5.9,19.5,5.4,20.3c-0.2,0.3-0.5,0.4-0.8,0.4c0,0-0.4,0-1.1,0.1C106,300.6,102.9,300.8,98.8,300.8z M58.2,279.4H58&#10;&#9;&#9;c-0.5,0-0.9,0.3-1,0.7c-0.3,0.9,0,2.6,1.4,4.2c0.2,0.2,0.2,0.5,0.1,0.8c0,0.1-0.7,1.6,1.5,3.6c2.8,2.4,18.1,9.8,29.2,10.4&#10;&#9;&#9;c6.2,0.3,12.3,0.3,18.5,0h0.8c0.2-2.7-0.3-14.4-5-18.2c-1-0.4-9.5-4-14.6-5.5c-1.2-0.4-2.8-0.8-4.6-1.3c-6.3-1.7-14.1-3.8-16.6-5.6&#10;&#9;&#9;c-1-0.6-1.3-0.2-1.4,0c-0.8,1.6-0.4,3.4,0.9,4.6c1.5,1.1,7.4,3.9,16.1,7.5l0.4,0.2c0.3,0.2,0.5,0.5,0.4,0.9&#10;&#9;&#9;c-0.4,1.3-12,1.5-13.9,1.1c-1.9-0.5-3.7-1-5.5-1.6C62.3,280.4,59.4,279.4,58.2,279.4z"/>
	<path class="st0_ceo-24-10f9b" d="M84.9,298.8c0,0-5.1-1.6-6.7-5.2s-0.8-5,0.6-4.6s5.9,5.5,9,5.7"/>
	<path class="st2_ceo-24-10f9b" d="M84.9,299.5h-0.2c-0.2-0.1-5.4-1.7-7.2-5.6c-1.1-2.4-1.3-4.2-0.4-5.2c0.5-0.5,1.2-0.7,1.9-0.4&#10;&#9;&#9;c0.9,0.5,1.7,1.1,2.5,1.8c1.8,1.5,4.5,3.8,6.3,3.9c0.4,0,0.7,0.3,0.7,0.7c0,0,0,0,0,0c0,0.4-0.3,0.7-0.7,0.7c0,0,0,0,0,0&#10;&#9;&#9;c-2.3-0.1-5.1-2.5-7.1-4.2c-0.6-0.6-1.3-1.1-2.1-1.6c-0.1,0-0.3-0.1-0.4,0c-0.2,0.2-0.4,1.3,0.7,3.6c1.5,3.3,6.3,4.9,6.3,4.9&#10;&#9;&#9;c0.4,0.1,0.6,0.5,0.4,0.9C85.4,299.3,85.2,299.5,84.9,299.5L84.9,299.5z"/>
	<path class="st0_ceo-24-10f9b" d="M77.2,297c0,0-6.4-4.1-8.6-6.8s-2.2-5.2,0-5.6s6.2,6.1,8.7,6.7"/>
	<path class="st2_ceo-24-10f9b" d="M77.2,297.7c-0.1,0-0.3,0-0.4-0.1c-0.3-0.2-6.5-4.2-8.8-7c-1.6-1.9-2.2-3.8-1.7-5.1c0.3-0.9,1.2-1.5,2.1-1.6&#10;&#9;&#9;c1.6-0.3,3.2,1.5,5.2,3.5c1.3,1.4,2.8,3,3.8,3.2c0.4,0.1,0.6,0.5,0.5,0.8c0,0,0,0,0,0c-0.1,0.4-0.5,0.6-0.8,0.5&#10;&#9;&#9;c-1.4-0.3-2.9-1.9-4.5-3.6c-1.3-1.4-3.1-3.2-4-3.1c-0.4,0-0.8,0.3-1,0.7c-0.2,0.6,0,2,1.4,3.8c2.2,2.6,8.4,6.6,8.5,6.7&#10;&#9;&#9;c0.3,0.2,0.4,0.6,0.2,1c0,0,0,0,0,0C77.7,297.6,77.5,297.7,77.2,297.7z"/>
	<path class="st0_ceo-24-10f9b" d="M57.9,284.8c0,0-0.2-1.6,2.2-1.6s6.8,3.7,6.8,3.7"/>
	<path class="st2_ceo-24-10f9b" d="M66.9,287.6c-0.2,0-0.3-0.1-0.4-0.2c-1.2-1-4.5-3.5-6.3-3.5c-0.5-0.1-1,0.1-1.4,0.4c-0.1,0.1-0.2,0.3-0.2,0.4&#10;&#9;&#9;c0,0.4-0.3,0.7-0.6,0.8c-0.4,0-0.7-0.2-0.8-0.6c0-0.5,0.1-1.1,0.5-1.5c0.7-0.6,1.5-0.9,2.4-0.9c2.6,0,6.8,3.5,7.2,3.9&#10;&#9;&#9;c0.3,0.3,0.3,0.7,0.1,1C67.3,287.5,67.1,287.6,66.9,287.6z"/>
	<path class="st2_ceo-24-10f9b" d="M110,278.5h-6c0,0,3.2,18.3,3,23.4c0,0,9.3,0.9,9.8,0.7S115.4,283.1,110,278.5z"/>
	<path class="st2_ceo-24-10f9b" d="M116.5,303.3c-0.9,0-3.2-0.1-9.5-0.7c-0.4,0-0.6-0.3-0.6-0.7c0.2-5-3-23-3-23.2c-0.1-0.4,0.2-0.8,0.6-0.8&#10;&#9;&#9;c0,0,0.1,0,0.1,0h6c0.2,0,0.3,0.1,0.4,0.2c5.5,4.6,7.5,22.9,7.1,24.6c-0.1,0.3-0.3,0.5-0.5,0.6&#10;&#9;&#9;C116.9,303.3,116.7,303.3,116.5,303.3z M107.7,301.2c3.5,0.3,7.2,0.6,8.5,0.7c0-3-2-18.5-6.5-22.7h-4.9&#10;&#9;&#9;C105.5,282.7,107.7,296.1,107.7,301.2z"/>
	<path class="st3_ceo-24-10f9b targetColor" d="M177,205.8l-26.5,61.4c0,0-29.1,9.8-41,9.5c0,0,4.9,16.5,3.5,27.4c0,0,49.5,4,56.5-1.5s27.5-39.8,27.5-39.8&#10;&#9;&#9;L177,205.8z" style="fill: rgb(104, 225, 253);"/>
	<path class="st0_ceo-24-10f9b" d="M394.7,280.3c0,0,9.3-3.9,14.7-5.5s17.8-4.6,21-6.7s3.9,3.8,1.3,5.7s-16,7.5-16.7,7.8s9.5,1.4,13.1,0.7&#10;&#9;&#9;s10.3-3.6,12.5-3.5s2.4,3.5,0,6.1c0,0,1,2.1-1.7,4.4s-18.1,9.9-29.6,10.6c-6.6,0.3-13.3,0.3-19.9,0&#10;&#9;&#9;C389.2,299.9,388.9,284.9,394.7,280.3z"/>
	<path class="st2_ceo-24-10f9b" d="M399.8,300.8c-4.1,0-7.2-0.1-9-0.2c-0.7,0-1.1-0.1-1.3,0c-0.3,0.1-0.6-0.1-0.7-0.4c-0.5-0.9-0.5-15.7,5.4-20.3&#10;&#9;&#9;c0,0,0.1-0.1,0.2-0.1c0.1,0,9.4-4,14.8-5.5c1.2-0.4,2.8-0.8,4.6-1.3c5.8-1.6,13.8-3.8,16.2-5.4c1.5-1,2.7-0.5,3.3,0.3&#10;&#9;&#9;c1.2,2.2,0.7,4.9-1.2,6.5c-1.9,1.4-8.7,4.4-14.7,7c3,0.4,8.2,0.7,10.6,0.2c1.8-0.4,3.6-1,5.3-1.6c3-1,5.9-2,7.4-1.9&#10;&#9;&#9;c1,0.1,1.8,0.7,2.2,1.6c0.6,1.5,0,3.6-1.4,5.3c0.2,0.9,0.3,2.8-2,4.8c-2.7,2.3-18.1,10.1-30,10.7&#10;&#9;&#9;C405.9,300.7,402.6,300.8,399.8,300.8z M390.1,299.1h0.8c6.2,0.3,12.3,0.3,18.5,0c11.1-0.6,26.4-8,29.2-10.4&#10;&#9;&#9;c2.2-1.9,1.5-3.5,1.5-3.6c-0.1-0.3-0.1-0.6,0.1-0.8c1.5-1.6,1.8-3.3,1.4-4.2c-0.1-0.4-0.5-0.7-1-0.7c-1.2-0.1-4.2,0.9-6.9,1.8&#10;&#9;&#9;c-1.8,0.6-3.6,1.2-5.5,1.6c-2,0.4-13.5,0.2-13.9-1.1c-0.1-0.4,0.1-0.7,0.4-0.9l0.4-0.2c8.8-3.7,14.6-6.4,16.1-7.5&#10;&#9;&#9;c1.3-1.2,1.7-3,0.9-4.6c-0.1-0.2-0.5-0.6-1.4,0c-2.5,1.7-10.3,3.9-16.6,5.6c-1.8,0.5-3.3,0.9-4.6,1.3c-5,1.5-13.6,5-14.5,5.5&#10;&#9;&#9;C390.4,284.7,389.9,296.4,390.1,299.1z"/>
	<path class="st0_ceo-24-10f9b" d="M413.8,298.8c0,0,5.1-1.6,6.7-5.2s0.8-5-0.6-4.6s-5.9,5.5-9,5.7"/>
	<path class="st2_ceo-24-10f9b" d="M413.8,299.5c-0.4,0-0.7-0.3-0.7-0.6c0-0.3,0.2-0.6,0.5-0.7c0,0,4.8-1.5,6.3-4.9c1.1-2.3,0.9-3.4,0.7-3.6&#10;&#9;&#9;c-0.1-0.1-0.2,0-0.4,0c-0.7,0.5-1.4,1-2,1.6c-2,1.7-4.9,4-7.1,4.2c-0.4,0-0.7-0.3-0.7-0.6c0,0,0,0,0,0c0-0.4,0.3-0.7,0.7-0.7&#10;&#9;&#9;c0,0,0,0,0,0c1.8-0.1,4.5-2.4,6.3-3.9c0.7-0.7,1.6-1.3,2.5-1.8c0.6-0.3,1.4-0.1,1.9,0.4c0.8,0.9,0.7,2.7-0.4,5.2&#10;&#9;&#9;c-1.8,3.9-7,5.5-7.2,5.6L413.8,299.5z"/>
	<path class="st0_ceo-24-10f9b" d="M421.4,297c0,0,6.4-4.1,8.6-6.8s2.2-5.2,0-5.6s-6.2,6.1-8.8,6.7"/>
	<path class="st2_ceo-24-10f9b" d="M421.4,297.7c-0.2,0-0.5-0.1-0.6-0.3c-0.2-0.3-0.2-0.7,0.2-1c0,0,0,0,0.1,0c0.1,0,6.3-4.1,8.5-6.7&#10;&#9;&#9;c1.5-1.7,1.7-3.1,1.5-3.7c-0.2-0.4-0.6-0.7-1-0.7c-0.8-0.1-2.6,1.7-4,3.1c-1.6,1.7-3.1,3.2-4.5,3.6c-0.4,0.1-0.8-0.1-0.9-0.5&#10;&#9;&#9;c-0.1-0.4,0.1-0.7,0.5-0.8c0,0,0,0,0,0c1-0.2,2.5-1.8,3.8-3.2c2-2,3.6-3.8,5.2-3.5c0.9,0.1,1.8,0.7,2.1,1.6&#10;&#9;&#9;c0.5,1.4-0.1,3.2-1.7,5.1c-2.3,2.8-8.5,6.8-8.8,7C421.7,297.7,421.6,297.7,421.4,297.7z"/>
	<path class="st0_ceo-24-10f9b" d="M440.7,284.8c0,0,0.2-1.6-2.2-1.6s-6.8,3.7-6.8,3.7"/>
	<path class="st2_ceo-24-10f9b" d="M431.7,287.6c-0.4,0-0.7-0.3-0.7-0.7c0-0.2,0.1-0.4,0.2-0.5c0.5-0.4,4.6-3.9,7.2-3.9c0.9-0.1,1.8,0.2,2.4,0.9&#10;&#9;&#9;c0.4,0.4,0.5,1,0.5,1.5c0,0.4-0.4,0.6-0.7,0.6c0,0,0,0,0,0c-0.4,0-0.7-0.4-0.6-0.8c0,0,0,0,0,0c0-0.2-0.1-0.3-0.2-0.4&#10;&#9;&#9;c-0.4-0.3-0.9-0.4-1.4-0.4c-1.8,0-5.2,2.5-6.3,3.5C432,287.6,431.9,287.6,431.7,287.6z"/>
	<path class="st2_ceo-24-10f9b" d="M388.6,278.5h6c0,0-3.1,18.3-3,23.4c0,0-9.3,0.9-9.8,0.7S383.2,283.1,388.6,278.5z"/>
	<path class="st2_ceo-24-10f9b" d="M382.1,303.3c-0.2,0-0.4,0-0.6,0c-0.3-0.1-0.4-0.4-0.5-0.6c-0.3-1.8,1.6-20,7.1-24.6c0.1-0.1,0.3-0.2,0.5-0.2&#10;&#9;&#9;h6c0.4,0,0.7,0.3,0.7,0.7c0,0,0,0.1,0,0.1c0,0.2-3.1,18.2-3,23.2c0,0.4-0.3,0.7-0.6,0.7C385.4,303.2,383,303.3,382.1,303.3z&#10;&#9;&#9; M388.9,279.2c-4.5,4.1-6.5,19.8-6.5,22.7c1.2,0,5-0.4,8.5-0.7c0.1-5.1,2.3-18.5,2.9-22L388.9,279.2z"/>
	<path class="st3_ceo-24-10f9b targetColor" d="M321.6,205.8l26.5,61.4c0,0,29.1,9.8,41,9.5c0,0-4.9,16.5-3.5,27.4c0,0-49.5,4-56.5-1.5s-27.5-39.8-27.5-39.8&#10;&#9;&#9;L321.6,205.8z" style="fill: rgb(104, 225, 253);"/>
	<path class="st3_ceo-24-10f9b targetColor" d="M226.4,184.3c0,0-47.5,18.6-49.4,21.5s21.6,81.6,21.6,81.6s4,20.8,3.8,28.3s-2.7,43.8-2.7,43.8h107.4&#10;&#9;&#9;c0,0-5.4-47.8-4.9-54.3s6.7-34,6.7-34l12.6-65.4c0,0-43.5-20.6-48.7-22.5S226.4,184.3,226.4,184.3z" style="fill: rgb(104, 225, 253);"/>
	<path class="st2_ceo-24-10f9b" d="M255.9,358.6c-0.4,0-0.7-0.3-0.7-0.7v-64c0-0.4,0.3-0.7,0.7-0.7s0.7,0.3,0.7,0.7v64&#10;&#9;&#9;C256.6,358.3,256.3,358.6,255.9,358.6C255.9,358.6,255.9,358.6,255.9,358.6z"/>
	<polygon class="st2_ceo-24-10f9b" points="232.4,173.2 272,173.3 271.4,188.4 243.3,188.4 229.7,181.9 &#9;"/>
	<path class="st2_ceo-24-10f9b" d="M271.4,189.1h-28c-0.1,0-0.2,0-0.3-0.1l-13.6-6.5c-0.3-0.2-0.5-0.5-0.4-0.8l2.6-8.8c0.1-0.3,0.4-0.5,0.7-0.5&#10;&#9;&#9;l0,0l39.7,0.1c0.2,0,0.4,0.1,0.5,0.2c0.1,0.1,0.2,0.3,0.2,0.5l-0.7,15.1C272,188.8,271.7,189.1,271.4,189.1z M243.5,187.7h27.2&#10;&#9;&#9;l0.6-13.7l-38.4-0.1l-2.3,7.7L243.5,187.7z"/>
	<path class="st0_ceo-24-10f9b" d="M280,133.6c0.4-1,0.7-2,1-3c5.3-19.4-2.5-44.4-25.4-46c-10.7-0.7-20.4,5.5-25.6,14.7&#10;&#9;&#9;c-6.6,11.4-4.8,26.1-3.5,38.7c0,0.8,0.2,1.6,0.7,2.3c1.3,1.5,3.9,0.5,5.6,0.5c2.5,0,5,0.4,7.4,0.5c4.2,0.2,8.5,0.4,12.8,0.3&#10;&#9;&#9;c6.1-0.1,12.3,0.4,18.4-0.5c2.6-0.4,4.4-0.4,6.1-2.5C278.5,137.1,279.4,135.4,280,133.6z"/>
	<path class="st2_ceo-24-10f9b" d="M262,142.3c-1.3,0-2.5,0-3.8,0c-1.8,0-3.6-0.1-5.4,0c-3.7,0.1-7.8,0-12.8-0.3c-1-0.1-1.9-0.1-2.9-0.2&#10;&#9;&#9;c-1.5-0.2-3-0.3-4.5-0.3c-0.5,0-0.9,0.1-1.4,0.1c-1.5,0.2-3.5,0.5-4.7-0.9c-0.6-0.8-0.9-1.8-0.9-2.7l-0.2-1.7&#10;&#9;&#9;c-1.2-12.3-2.6-26.2,3.8-37.4c5.7-10,15.8-15.7,26.3-15c8.4,0.4,16.1,4.7,20.9,11.6c6.5,9.1,8.5,23,5.1,35.3&#10;&#9;&#9;c-0.3,1.2-0.6,2.2-1,3.1l0,0c-0.6,1.8-1.6,3.6-2.8,5.1c-1.7,2-3.5,2.3-5.6,2.6l-0.9,0.1C268.2,142.2,265.1,142.4,262,142.3z&#10;&#9;&#9; M254.5,140.9c1.3,0,2.5,0,3.8,0c4.3,0.2,8.6,0,12.9-0.6l0.9-0.1c2-0.3,3.4-0.5,4.7-2.1c1.1-1.4,2-3,2.6-4.7l0,0&#10;&#9;&#9;c0.3-0.9,0.6-1.8,0.9-2.9c3.2-12,1.3-25.4-5-34.2c-4.6-6.5-11.9-10.6-19.8-11c-9.9-0.7-19.5,4.8-24.9,14.3&#10;&#9;&#9;c-6.2,10.7-4.8,24.4-3.6,36.5l0.2,1.7c0,0.7,0.2,1.4,0.6,2c0.7,0.8,2.1,0.6,3.4,0.4c0.5-0.1,1.1-0.2,1.6-0.2c1.6,0,3.1,0.1,4.7,0.3&#10;&#9;&#9;c0.9,0.1,1.9,0.2,2.8,0.2c5,0.2,9,0.4,12.7,0.3H254.5z"/>
	<path class="st0_ceo-24-10f9b" d="M235.1,136c-1.2-9.7-17.1-12.6-16.7-1.2c0.1,3.9,1.2,7.9,3.9,10.8s7,4.4,10.6,2.9"/>
	<path class="st2_ceo-24-10f9b" d="M229.9,149.7c-3.1-0.1-6-1.4-8.1-3.7c-3.2-3.4-3.9-8-4.1-11.2c-0.2-5.5,3.2-7.8,6.5-8c5-0.4,10.8,3.2,11.6,9.2&#10;&#9;&#9;c0.1,0.4-0.2,0.7-0.6,0.8c0,0,0,0,0,0c-0.4,0-0.7-0.2-0.8-0.6c-0.6-5.1-5.8-8.3-10.1-7.9c-1.6,0.1-5.4,1-5.2,6.6&#10;&#9;&#9;c0.1,3,0.8,7.2,3.7,10.3c2.6,2.9,6.7,4,9.8,2.7c0.4-0.1,0.8,0,0.9,0.4c0.1,0.4,0,0.8-0.4,0.9C232.2,149.5,231,149.7,229.9,149.7z"/>
	<path class="st0_ceo-24-10f9b" d="M269.7,136c1.2-9.7,17.1-12.6,16.7-1.2c-0.1,3.9-1.2,7.9-3.9,10.8s-7,4.4-10.6,2.9"/>
	<path class="st2_ceo-24-10f9b" d="M275,149.7c-1.1,0-2.3-0.2-3.3-0.6c-0.4-0.1-0.5-0.6-0.4-0.9c0.1-0.4,0.6-0.5,0.9-0.4c3.1,1.3,7.2,0.2,9.8-2.7&#10;&#9;&#9;c2.9-3.1,3.6-7.4,3.7-10.3c0.2-5.6-3.6-6.5-5.2-6.6c-4.2-0.3-9.4,2.8-10,7.9c0,0.4-0.4,0.7-0.8,0.6s-0.7-0.4-0.6-0.8l0,0&#10;&#9;&#9;c0.8-6,6.6-9.6,11.5-9.2c3.3,0.3,6.7,2.5,6.5,8c-0.1,3.2-0.9,7.8-4.1,11.2C281,148.3,278.1,149.6,275,149.7z"/>
	<path class="st0_ceo-24-10f9b" d="M233.9,184.1c0,0,7.3,3.8,19.9,4.2s14.7-3,14.7-3l-0.3-6.7l-0.7-15.7l-0.7-14.6l-28.8-1l-1.4,11.9l-0.4,3.9&#10;&#9;&#9;L233.9,184.1z"/>
	<path class="st2_ceo-24-10f9b" d="M256,189c-0.7,0-1.4,0-2.2,0c-12.6-0.4-19.9-4.1-20.2-4.3c-0.3-0.1-0.4-0.4-0.4-0.7l4.2-36.9&#10;&#9;&#9;c0-0.4,0.4-0.6,0.7-0.6l28.8,1c0.4,0,0.7,0.3,0.7,0.7l1.7,37.1c0,0.1,0,0.3-0.1,0.4C268.9,186,266.7,189,256,189z M234.6,183.7&#10;&#9;&#9;c1.7,0.8,8.6,3.5,19.2,3.9c10.3,0.4,13.3-1.9,13.9-2.5l-1.6-36.2l-27.5-0.9L234.6,183.7z"/>
	<path class="st2_ceo-24-10f9b" d="M236.3,163c2,3.6,5.6,6.4,9.2,8.6c6.1,3.6,15.2,7.8,22.8,6.9l-0.7-15.7c-5.5,0.5-11.1,0.4-16.6-0.5&#10;&#9;&#9;c-4.8-0.6-9.8-1.2-14.2-3.3L236.3,163z"/>
	<path class="st2_ceo-24-10f9b" d="M266.1,179.4c-7.8,0-16.3-4.4-21-7.1c-4.4-2.6-7.6-5.6-9.4-8.9c-0.1-0.1-0.1-0.3-0.1-0.4l0.4-3.9&#10;&#9;&#9;c0-0.2,0.2-0.4,0.4-0.5c0.2-0.1,0.4-0.1,0.6,0c4.4,2,9.5,2.7,14,3.2c5.4,0.8,11,1,16.4,0.5c0.2,0,0.4,0,0.5,0.2&#10;&#9;&#9;c0.1,0.1,0.2,0.3,0.2,0.5l0.7,15.7c0,0.4-0.2,0.7-0.6,0.7C267.6,179.4,266.8,179.4,266.1,179.4z M237.1,162.9&#10;&#9;&#9;c1.8,3,4.7,5.7,8.8,8.2c4.8,2.9,13.9,7.5,21.7,6.9l-0.6-14.3c-5.3,0.4-10.7,0.2-16-0.5c-4.3-0.5-9.1-1.1-13.5-2.9L237.1,162.9z"/>
	<path class="st0_ceo-24-10f9b" d="M277.6,109.9l-1.2,34.9c-0.1,1.5-0.3,3-0.6,4.4c-2.5,10.2-11.7,17.2-22.2,16.8L251,166&#10;&#9;&#9;c-9.8-0.3-18.2-7.1-20.6-16.6c-0.5-2-0.8-4.1-0.7-6.2l1.2-34.9c0,0,5.5,7.2,21.1,7S277.6,109.9,277.6,109.9z"/>
	<path class="st2_ceo-24-10f9b" d="M254.4,166.8h-0.8l-2.6-0.1c-10.1-0.4-18.7-7.3-21.3-17.1c-0.5-2.1-0.8-4.3-0.7-6.4l1.2-34.9&#10;&#9;&#9;c0-0.4,0.3-0.7,0.7-0.7c0.2,0,0.4,0.1,0.5,0.3c0,0.1,5.5,6.9,20.5,6.8c15.2-0.1,25.2-5.3,25.3-5.3c0.3-0.2,0.8,0,0.9,0.3&#10;&#9;&#9;c0,0.1,0.1,0.2,0.1,0.3l-1.2,34.9C276.7,157.1,266.6,166.9,254.4,166.8L254.4,166.8z M231.6,110l-1.1,33.3c-0.1,2,0.1,4,0.6,6&#10;&#9;&#9;c2.4,9.1,10.5,15.6,19.9,16l2.6,0.1c11.8,0.4,21.6-8.8,22.1-20.5c0,0,0-0.1,0-0.1l1.2-33.8c-7.9,3.3-16.3,5-24.9,5&#10;&#9;&#9;C240.1,116.1,234,112.1,231.6,110z"/>
	<path class="st0_ceo-24-10f9b" d="M253.3,129.5c0,0,7.2,16,4,16.3s-7.8-2.1-7.8-2.1"/>
	<path class="st2_ceo-24-10f9b" d="M256.8,146.5c-3.3,0-7.4-2.1-7.5-2.2c-0.3-0.2-0.5-0.6-0.3-0.9c0.2-0.3,0.6-0.5,0.9-0.3c0,0,4.4,2.3,7.4,2&#10;&#9;&#9;c0.9-0.7-1.2-7.8-4.6-15.3c-0.2-0.4,0-0.8,0.4-0.9c0.4-0.2,0.8,0,0.9,0.3c0,0,0,0,0,0c1,2.3,6.1,13.9,4.6,16.5&#10;&#9;&#9;c-0.2,0.4-0.7,0.7-1.1,0.7C257.2,146.5,257,146.5,256.8,146.5z"/>
	<path class="st2_ceo-24-10f9b" d="M257.3,155.8c-4.8-0.1-9.5-1.5-13.6-3.9c-0.3-0.2-0.5-0.6-0.3-0.9c0,0,0,0,0,0c0.2-0.3,0.6-0.5,1-0.3&#10;&#9;&#9;c0,0,0,0,0,0c11.3,6.2,18.6,2.7,18.7,2.7c0.3-0.2,0.8,0,0.9,0.3c0.2,0.3,0,0.8-0.3,0.9c0,0,0,0,0,0&#10;&#9;&#9;C261.7,155.5,259.5,155.9,257.3,155.8z"/>
	<ellipse class="st2_ceo-24-10f9b" cx="243.9" cy="127.1" rx="1.5" ry="3.4"/>
	<ellipse class="st2_ceo-24-10f9b" cx="264.2" cy="127.1" rx="1.5" ry="3.4"/>
	<polygon class="st2_ceo-24-10f9b" points="228.4,181 255.3,294.4 275.7,181 253.9,188.3 &#9;"/>
	<path class="st2_ceo-24-10f9b" d="M255.3,295.1c-0.3,0-0.6-0.2-0.7-0.5l-27-113.3c-0.1-0.2,0-0.5,0.2-0.7c0.2-0.2,0.4-0.2,0.7-0.2l25.3,7.2&#10;&#9;&#9;l21.6-7.2c0.2-0.1,0.5,0,0.7,0.1c0.2,0.2,0.3,0.4,0.2,0.6L256,294.5C255.9,294.8,255.7,295.1,255.3,295.1L255.3,295.1z&#10;&#9;&#9; M229.3,182.1L255.2,291l19.6-108.9l-20.7,6.9c-0.1,0-0.3,0-0.4,0L229.3,182.1z"/>
	<polygon class="st1_ceo-24-10f9b" points="244.4,192 248.9,201.1 244.1,248 255.8,294.4 265.2,248 257.8,200.6 261.5,193.4 253.9,188.3 &#9;"/>
	<path class="st2_ceo-24-10f9b" d="M255.8,295.1c-0.3,0-0.6-0.2-0.7-0.5l-11.7-46.4c0-0.1,0-0.2,0-0.2l4.8-46.7l-4.4-9c-0.1-0.2-0.1-0.4,0-0.6&#10;&#9;&#9;c0.1-0.2,0.2-0.3,0.4-0.4l9.5-3.7c0.2-0.1,0.5-0.1,0.6,0.1l7.6,5.1c0.3,0.2,0.4,0.6,0.2,0.9l-3.6,7l7.3,47.2c0,0.1,0,0.2,0,0.2&#10;&#9;&#9;l-9.4,46.3C256.4,294.9,256.1,295.1,255.8,295.1L255.8,295.1z M244.8,248l10.9,43.3l8.8-43.2l-7.4-47.3c0-0.1,0-0.3,0.1-0.4&#10;&#9;&#9;l3.4-6.6l-6.8-4.6l-8.4,3.3l4.2,8.5c0.1,0.1,0.1,0.3,0.1,0.4L244.8,248z"/>
	<path class="st0_ceo-24-10f9b" d="M272,173.3c-0.5,0-18.4,15-18.4,15l11,12.9l11-20.1L272,173.3z"/>
	<path class="st2_ceo-24-10f9b" d="M264.7,201.8c-0.2,0-0.4-0.1-0.5-0.2l-11-12.8c-0.3-0.3-0.2-0.7,0.1-1c0,0,0,0,0,0&#10;&#9;&#9;c18-15.1,18.5-15.1,18.8-15.1c0.3,0,0.5,0.2,0.6,0.4l3.7,7.8c0.1,0.2,0.1,0.4,0,0.6l-11,20.1c-0.1,0.2-0.3,0.3-0.5,0.4L264.7,201.8&#10;&#9;&#9;z M254.7,188.4l9.9,11.5l10.3-18.9l-3.2-6.7C269.4,176.1,260.8,183.2,254.7,188.4L254.7,188.4z"/>
	<path class="st0_ceo-24-10f9b" d="M232.4,173.2c0.6,0,21.5,15.1,21.5,15.1l-12.7,12.9L228.4,181L232.4,173.2z"/>
	<path class="st2_ceo-24-10f9b" d="M241.1,201.8H241c-0.2,0-0.4-0.1-0.5-0.3l-12.7-20.1c-0.1-0.2-0.1-0.5,0-0.7l4-7.9c0.1-0.2,0.4-0.4,0.6-0.4&#10;&#9;&#9;c0.3,0,0.8,0,21.9,15.2c0.2,0.1,0.3,0.3,0.3,0.5c0,0.2-0.1,0.4-0.2,0.6l-12.7,12.8C241.5,201.8,241.3,201.8,241.1,201.8z&#10;&#9;&#9; M229.2,181l12.1,19l11.5-11.6c-7.3-5.3-17.6-12.6-20.1-14.2L229.2,181z"/>
	<path class="st3_ceo-24-10f9b targetColor" d="M228.4,181c-1.8-8.4,14.2,60.8,27.5,114.7c0,0-48.9-83.1-49.2-84.7s7-8.4,7-8.4l-5.9-2.7l5.4-9.7L228.4,181z" style="fill: rgb(104, 225, 253);"/>
	<path class="st2_ceo-24-10f9b" d="M255.9,296.4c-0.2,0-0.5-0.1-0.6-0.4c-8.2-13.9-49-83.3-49.2-84.9s3.6-5.6,6.5-8.3l-5-2.2&#10;&#9;&#9;c-0.2-0.1-0.3-0.2-0.4-0.4c-0.1-0.2,0-0.4,0.1-0.6l5.4-9.7c0.1-0.1,0.2-0.2,0.3-0.3l14.8-9c-0.1-0.6,0-0.9,0.5-1&#10;&#9;&#9;c0.4-0.1,0.5-0.1,0.8,0.6l0,0c0,0.1,0,0.2,0.1,0.3c0.3,0.8,0.6,2.3,1.2,5c0.8,3.5,2,8.5,3.5,14.6c5.5,23.2,14.6,62.1,22.8,95.4&#10;&#9;&#9;c0.1,0.3-0.1,0.7-0.4,0.8C256,296.4,255.9,296.4,255.9,296.4z M208.8,199.6l5.2,2.4c0.2,0.1,0.4,0.3,0.4,0.5c0,0.2,0,0.5-0.2,0.6&#10;&#9;&#9;c-3.3,3.1-6.8,6.9-6.8,7.8c0.7,2,31.9,55.2,46.6,80.3c-7.9-32.2-16.5-68.6-21.7-90.7c-2-8.7-3.6-15.5-4.4-18.4l-14.3,8.6&#10;&#9;&#9;L208.8,199.6z"/>
	<path class="st3_ceo-24-10f9b targetColor" d="M275.7,181c-0.8-4.9-16.6,97.2-19.8,114.7c0,0,41.2-83.1,41.5-84.7s-7-8.4-7-8.4l5.9-2.7l-5.3-9.6L275.7,181z" style="fill: rgb(104, 225, 253);"/>
	<path class="st2_ceo-24-10f9b" d="M255.9,296.4c-0.1,0-0.1,0-0.2,0c-0.3-0.1-0.5-0.4-0.5-0.8c1-5.6,3.4-19.9,6.1-36.5&#10;&#9;&#9;c12.7-78.3,13.2-78.9,14.4-78.9c0.3,0,0.6,0.1,0.7,0.4l15,9.1c0.1,0.1,0.2,0.2,0.2,0.3l5.4,9.7c0.1,0.2,0.1,0.4,0,0.6&#10;&#9;&#9;c-0.1,0.2-0.2,0.3-0.4,0.4l-5,2.2c2.8,2.7,6.7,6.8,6.5,8.3s-34.7,71-41.6,84.9C256.3,296.3,256.1,296.4,255.9,296.4z M275.9,182&#10;&#9;&#9;c-1.7,6.2-8.6,48.7-13.3,77.3c-2.1,13-4,24.7-5.2,31.8c14.5-29.2,38.7-78.3,39.3-80.2c0-0.8-3.5-4.7-6.8-7.8&#10;&#9;&#9;c-0.2-0.2-0.2-0.4-0.2-0.6c0-0.2,0.2-0.4,0.4-0.5l5.2-2.4l-4.9-8.8L275.9,182z"/>
	<path class="st2_ceo-24-10f9b" d="M303.9,299.5h-0.1c-0.4-0.1-0.6-0.5-0.5-0.8c0,0,0,0,0,0c0.1-0.5,10.1-49,14.6-72.3c0.1-0.4,0.4-0.6,0.8-0.6&#10;&#9;&#9;c0.4,0.1,0.6,0.4,0.6,0.8c-4.5,23.3-14.5,71.8-14.6,72.3C304.5,299.3,304.2,299.5,303.9,299.5z"/>
	<path class="st2_ceo-24-10f9b" d="M210.2,338.2c-0.4,0-0.7-0.3-0.7-0.7c0-0.3,0.2-0.6,0.5-0.7l27-6.6c0.4-0.1,0.8,0.1,0.9,0.5&#10;&#9;&#9;c0.1,0.4-0.1,0.8-0.5,0.8c0,0,0,0,0,0l-27,6.6L210.2,338.2z"/>
	<path class="st2_ceo-24-10f9b" d="M298.4,339.2c-0.1,0-0.1,0-0.2,0l-27-6.6c-0.4-0.1-0.6-0.5-0.5-0.9c0.1-0.4,0.5-0.6,0.8-0.5l27,6.6&#10;&#9;&#9;c0.4,0.1,0.6,0.5,0.5,0.9C299,339,298.7,339.2,298.4,339.2z"/>
	<circle class="st2_ceo-24-10f9b" cx="250.5" cy="312.1" r="1.4"/>
	<path class="st2_ceo-24-10f9b" d="M250.5,314.1c-1.2,0-2.1-0.9-2.1-2.1c0-1.2,0.9-2.1,2.1-2.1c1.2,0,2.1,0.9,2.1,2.1c0,0,0,0,0,0&#10;&#9;&#9;C252.6,313.2,251.7,314.1,250.5,314.1z M250.5,311.4c-0.4,0-0.7,0.3-0.7,0.7c0,0.4,0.3,0.7,0.7,0.7c0.4,0,0.7-0.3,0.7-0.7&#10;&#9;&#9;c0,0,0,0,0,0C251.2,311.7,250.9,311.4,250.5,311.4C250.5,311.4,250.5,311.4,250.5,311.4L250.5,311.4z"/>
	<circle class="st2_ceo-24-10f9b" cx="249.1" cy="344.3" r="1.4"/>
	<path class="st2_ceo-24-10f9b" d="M249.1,346.4c-1.1,0-2.1-0.9-2.1-2.1c0-1.1,0.9-2.1,2.1-2.1c1.1,0,2.1,0.9,2.1,2.1l0,0&#10;&#9;&#9;C251.2,345.5,250.3,346.4,249.1,346.4z M249.1,343.7c-0.4,0-0.7,0.3-0.7,0.7s0.3,0.7,0.7,0.7c0.4,0,0.7-0.3,0.7-0.7l0,0&#10;&#9;&#9;C249.8,344,249.5,343.7,249.1,343.7C249.2,343.7,249.2,343.7,249.1,343.7z"/>
	<path class="st2_ceo-24-10f9b" d="M201.4,304.5c-0.4,0-0.7-0.3-0.7-0.6c-2.6-23.7-24.2-85.1-24.4-85.8c-0.1-0.4,0.1-0.8,0.4-0.9s0.8,0.1,0.9,0.4&#10;&#9;&#9;c0.2,0.6,21.9,62.2,24.5,86.1C202.2,304.1,201.9,304.5,201.4,304.5L201.4,304.5z"/>
</g>
<g id="Desk_ceo-24-10f9b">
	<polygon class="st0_ceo-24-10f9b" points="105.8,323 393.2,323 439.3,389.6 59.6,389.6 &#9;"/>
	<path class="st2_ceo-24-10f9b" d="M439.3,390.3H59.6c-0.3,0-0.5-0.1-0.6-0.3c-0.1-0.2-0.1-0.5,0-0.7l46.1-66.6c0.1-0.2,0.3-0.3,0.6-0.3h287.5&#10;&#9;&#9;c0.2,0,0.4,0.1,0.6,0.3l46.1,66.6c0.1,0.2,0.1,0.5,0,0.7C439.8,390.2,439.6,390.3,439.3,390.3z M61,388.9h377l-45.1-65.2H106.1&#10;&#9;&#9;L61,388.9z"/>
	<rect x="60.1" y="389.6" class="st0_ceo-24-10f9b" width="379.3" height="12.9"/>
	<path class="st2_ceo-24-10f9b" d="M439.3,403.2H60.1c-0.4,0-0.7-0.3-0.7-0.7v-12.9c0-0.4,0.3-0.7,0.7-0.7c0,0,0,0,0,0h379.3&#10;&#9;&#9;c0.4,0,0.7,0.3,0.7,0.7v0v12.9C440,402.9,439.7,403.2,439.3,403.2z M60.8,401.8h377.9v-11.5H60.8L60.8,401.8z"/>
	<rect x="68.2" y="402.5" class="st2_ceo-24-10f9b" width="363" height="12.9"/>
	<path class="st2_ceo-24-10f9b" d="M431.2,416.2H68.2c-0.4,0-0.7-0.3-0.7-0.7v-12.9c0-0.4,0.3-0.7,0.7-0.7h0h363c0.4,0,0.7,0.3,0.7,0.7v0v12.9&#10;&#9;&#9;C431.9,415.8,431.6,416.2,431.2,416.2C431.2,416.2,431.2,416.2,431.2,416.2z M68.9,414.8h361.6v-11.5H68.9L68.9,414.8z"/>
	<polygon class="st2_ceo-24-10f9b" points="347.5,379.4 335.7,363.7 376.9,363 &#9;"/>
	<path class="st2_ceo-24-10f9b" d="M347.5,380.1c-0.2,0-0.4-0.1-0.6-0.3l-11.8-15.7c-0.2-0.3-0.2-0.7,0.1-1c0.1-0.1,0.3-0.1,0.4-0.1l41.1-0.7&#10;&#9;&#9;c0.3,0,0.6,0.2,0.7,0.5c0.1,0.3,0,0.6-0.3,0.8L347.8,380C347.7,380,347.6,380.1,347.5,380.1z M337.1,364.4l10.6,14.1l26.4-14.7&#10;&#9;&#9;L337.1,364.4z"/>
	<rect x="347.5" y="356.3" class="st0_ceo-24-10f9b" width="65.1" height="23"/>
	<path class="st2_ceo-24-10f9b" d="M412.6,380.1h-65.1c-0.4,0-0.7-0.3-0.7-0.7v0v-23c0-0.4,0.3-0.7,0.7-0.7h0h65.1c0.4,0,0.7,0.3,0.7,0.7v23&#10;&#9;&#9;C413.3,379.7,413,380.1,412.6,380.1z M348.2,378.7h63.7V357h-63.7L348.2,378.7z"/>
	<path class="st2_ceo-24-10f9b" d="M367.5,373.6c-0.8,0.4-1.8,0.5-2.7,0.5c-0.9,0-1.7-0.1-2.5-0.5c-0.7-0.3-1.4-0.7-2-1.3c-0.6-0.6-1-1.2-1.4-2&#10;&#9;&#9;c-0.6-1.7-0.6-3.5,0-5.1c0.3-0.8,0.8-1.4,1.4-2c0.6-0.6,1.3-1,2-1.2c0.8-0.3,1.7-0.5,2.5-0.4c0.8,0,1.7,0.2,2.5,0.4&#10;&#9;&#9;c0.8,0.3,1.5,0.7,2,1.3l-2,1.9c-0.3-0.4-0.6-0.6-1.1-0.8c-0.4-0.2-0.9-0.3-1.3-0.3c-0.5,0-1,0.1-1.4,0.3c-0.4,0.2-0.8,0.4-1.1,0.8&#10;&#9;&#9;c-0.3,0.3-0.5,0.7-0.7,1.2c-0.2,0.5-0.3,1-0.2,1.5c0,0.5,0.1,1,0.2,1.5c0.2,0.4,0.4,0.8,0.7,1.1c0.3,0.3,0.7,0.6,1.1,0.8&#10;&#9;&#9;c0.4,0.2,0.9,0.3,1.4,0.3c0.5,0,1-0.1,1.5-0.3c0.4-0.2,0.7-0.5,1-0.9l2,1.9C368.9,372.7,368.2,373.2,367.5,373.6z"/>
	<path class="st2_ceo-24-10f9b" d="M374.8,373.8v-11.9h8v2.4h-5.2v2.2h4.9v2.3h-4.9v2.5h5.5v2.5H374.8z"/>
	<path class="st2_ceo-24-10f9b" d="M401.6,367.8c0,0.9-0.2,1.8-0.5,2.6c-0.3,0.8-0.8,1.4-1.4,2c-0.6,0.6-1.3,1-2.1,1.3c-0.8,0.3-1.7,0.5-2.6,0.5&#10;&#9;&#9;c-0.9,0-1.7-0.1-2.6-0.5c-1.5-0.6-2.8-1.8-3.4-3.3c-0.3-0.8-0.5-1.7-0.5-2.6c0-0.9,0.1-1.8,0.5-2.6c0.3-0.8,0.8-1.4,1.4-2&#10;&#9;&#9;c0.6-0.5,1.3-1,2-1.2c0.8-0.3,1.7-0.5,2.6-0.4c0.9,0,1.8,0.1,2.6,0.4c0.8,0.3,1.5,0.7,2.1,1.2c0.6,0.6,1.1,1.2,1.4,2&#10;&#9;&#9;C401.5,366,401.7,366.9,401.6,367.8z M398.6,367.8c0-0.5-0.1-1-0.3-1.4c-0.2-0.4-0.4-0.8-0.7-1.1c-0.3-0.3-0.7-0.6-1.1-0.8&#10;&#9;&#9;c-0.4-0.2-0.9-0.3-1.4-0.3c-0.5,0-0.9,0.1-1.4,0.3c-0.4,0.2-0.8,0.4-1.1,0.8c-0.3,0.3-0.5,0.7-0.7,1.1c-0.2,0.5-0.2,0.9-0.2,1.4&#10;&#9;&#9;c0,0.5,0.1,1,0.2,1.5c0.2,0.4,0.4,0.8,0.7,1.2c0.3,0.3,0.7,0.6,1.1,0.8c1.3,0.6,2.8,0.3,3.8-0.8c0.3-0.3,0.5-0.7,0.7-1.2&#10;&#9;&#9;C398.5,368.8,398.6,368.3,398.6,367.8z"/>
</g>
</svg>