<svg version="1.1" id="Layer_1" xmlns="http://www.w3.org/2000/svg" xmlns:xlink="http://www.w3.org/1999/xlink" x="0px" y="0px" viewBox="0 0 500 500" style="width: 188px;" xml:space="preserve" data-imageid="city-48" imageName="City" class="illustrations_image">
<style type="text/css">
	.st0_city-48{fill:#FFFFFF;}
	.st1_city-48{fill:#D1D3D4;}
	.st2_city-48{fill:#68E1FD;}
	.st3_city-48{fill:#231F20;}
</style>
<g id="Background_city-48">
	<rect x="247.4" y="206.3" class="st0_city-48" width="27.4" height="8.8"/>
	<path class="st1_city-48" d="M274.9,215.8h-27.4c-0.4,0-0.7-0.3-0.7-0.7v-8.8c0-0.4,0.3-0.7,0.7-0.7h27.4c0.4,0,0.7,0.3,0.7,0.7&#10;&#9;&#9;c0,0,0,0,0,0v8.8C275.6,215.5,275.3,215.8,274.9,215.8z M248.2,214.4h26V207h-26L248.2,214.4z"/>
	<rect x="102.7" y="255.7" class="st0_city-48" width="36.1" height="141.7"/>
	<path class="st1_city-48" d="M138.8,398.1h-36.1c-0.4,0-0.7-0.3-0.7-0.7l0,0V255.7c0-0.4,0.3-0.7,0.7-0.7h36.1c0.4,0,0.7,0.3,0.7,0.7v141.7&#10;&#9;&#9;C139.5,397.7,139.2,398.1,138.8,398.1C138.8,398.1,138.8,398.1,138.8,398.1z M103.4,396.7h34.7V256.4h-34.7V396.7z"/>
	<polygon class="st0_city-48" points="92.9,225.7 34.5,225.7 34.5,254.5 24.9,254.5 24.9,397.3 58.5,397.3 58.5,275.2 92.9,275.2 &#9;"/>
	<path class="st1_city-48" d="M58.5,398H24.9c-0.4,0-0.7-0.3-0.7-0.7l0,0V254.5c0-0.4,0.3-0.7,0.7-0.7h8.9v-28.1c0-0.4,0.3-0.7,0.7-0.7h58.4&#10;&#9;&#9;c0.4,0,0.7,0.3,0.7,0.7v49.5c0,0.4-0.3,0.7-0.7,0.7h0H59.2v121.4C59.3,397.6,59,398,58.5,398C58.6,398,58.6,398,58.5,398z&#10;&#9;&#9; M25.6,396.6h32.2V275.2c0-0.4,0.3-0.7,0.7-0.7c0,0,0,0,0,0h33.7v-48.1h-57v28.1c0,0.4-0.3,0.7-0.7,0.7h-8.9L25.6,396.6z"/>
	<polygon class="st0_city-48" points="384,288.4 476.4,302.5 476.4,397.2 384,397.2 &#9;"/>
	<path class="st1_city-48" d="M476.4,397.9H384c-0.4,0-0.7-0.3-0.7-0.7V288.4c0-0.4,0.3-0.7,0.7-0.7c0,0,0.1,0,0.1,0l92.5,14.1&#10;&#9;&#9;c0.3,0.1,0.6,0.4,0.6,0.7v94.7C477.2,397.6,476.8,397.9,476.4,397.9C476.4,397.9,476.4,397.9,476.4,397.9z M384.7,396.5h91v-93.4&#10;&#9;&#9;l-91-13.9V396.5z"/>
	<rect x="231.2" y="215" class="st0_city-48" width="61.5" height="182.3"/>
	<path class="st1_city-48" d="M292.7,398h-61.5c-0.4,0-0.7-0.3-0.7-0.7l0,0V215c0-0.4,0.3-0.7,0.7-0.7h61.5c0.4,0,0.7,0.3,0.7,0.7&#10;&#9;&#9;c0,0,0,0,0,0v182.3C293.4,397.6,293.1,398,292.7,398C292.7,398,292.7,398,292.7,398z M231.9,396.6H292V215.7h-60.1L231.9,396.6z"/>
	<rect x="292.7" y="190.2" class="st0_city-48" width="34.9" height="207.1"/>
	<path class="st1_city-48" d="M327.6,398.1h-34.9c-0.4,0-0.7-0.3-0.7-0.7v0V190.2c0-0.4,0.3-0.7,0.7-0.7l0,0h34.9c0.4,0,0.7,0.3,0.7,0.7&#10;&#9;&#9;c0,0,0,0,0,0v207.1C328.3,397.7,328,398.1,327.6,398.1L327.6,398.1z M293.4,396.7h33.5V190.9h-33.5V396.7z"/>
	<polygon class="st0_city-48" points="199,192.5 199,159.9 191.9,159.9 191.9,133.7 181.6,133.7 181.6,102.6 176,102.6 176,133.7 &#10;&#9;&#9;165.7,133.7 165.7,159.9 158.6,159.9 158.6,192.5 152.2,192.5 152.2,396.5 205.4,396.6 205.4,192.5 &#9;"/>
	<path class="st1_city-48" d="M205.4,397.3L205.4,397.3l-53.2-0.1c-0.4,0-0.7-0.3-0.7-0.7l0,0V192.5c0-0.4,0.3-0.7,0.7-0.7h5.7v-31.9&#10;&#9;&#9;c0-0.4,0.3-0.7,0.7-0.7h6.4v-25.5c0-0.4,0.3-0.7,0.7-0.7h9.5v-30.4c0-0.4,0.3-0.7,0.7-0.7h5.7c0.4,0,0.7,0.3,0.7,0.7V133h9.5&#10;&#9;&#9;c0.4,0,0.7,0.3,0.7,0.7v25.4h6.5c0.4,0,0.7,0.3,0.7,0.7v31.9h5.7c0.4,0,0.7,0.3,0.7,0.7v204.2C206.1,397,205.8,397.3,205.4,397.3&#10;&#9;&#9;C205.4,397.3,205.4,397.3,205.4,397.3L205.4,397.3z M152.9,395.8l51.8,0.1V193.2H199c-0.4,0-0.7-0.3-0.7-0.7v-31.9h-6.4&#10;&#9;&#9;c-0.4,0-0.7-0.3-0.7-0.7v-25.5h-9.5c-0.4,0-0.7-0.3-0.7-0.7v-30.4h-4.3v30.4c0,0.4-0.3,0.7-0.7,0.7h-9.5v25.4&#10;&#9;&#9;c0,0.4-0.3,0.7-0.7,0.7h-6.4v31.9c0,0.4-0.3,0.7-0.7,0.7h-5.7L152.9,395.8z"/>
	<rect x="120.7" y="247.5" class="st0_city-48" width="15.9" height="8.2"/>
	<path class="st1_city-48" d="M136.6,256.4h-15.9c-0.4,0-0.7-0.3-0.7-0.7v-8.2c0-0.4,0.3-0.7,0.7-0.7h15.9c0.4,0,0.7,0.3,0.7,0.7v8.2&#10;&#9;&#9;C137.3,256,137,256.4,136.6,256.4z M121.4,255h14.5v-6.8h-14.5V255z"/>
</g>
<g id="Building_1_city-48">
	<rect x="58.5" y="145.4" class="st2_city-48 targetColor" width="54.8" height="7.6" style="fill: rgb(104, 225, 253);"/>
	<path class="st3_city-48" d="M113.3,153.7H58.5c-0.4,0-0.7-0.3-0.7-0.7v-7.6c0-0.4,0.3-0.7,0.7-0.7h54.8c0.4,0,0.7,0.3,0.7,0.7v7.6&#10;&#9;&#9;C114,153.4,113.7,153.7,113.3,153.7z M59.2,152.3h53.4v-6.2H59.2V152.3z"/>
	<rect x="62.9" y="137.8" class="st2_city-48 targetColor" width="50.4" height="7.6" style="fill: rgb(104, 225, 253);"/>
	<path class="st3_city-48" d="M113.3,146.1H62.9c-0.4,0-0.7-0.3-0.7-0.7v-7.6c0-0.4,0.3-0.7,0.7-0.7h50.4c0.4,0,0.7,0.3,0.7,0.7v7.6&#10;&#9;&#9;C114,145.8,113.7,146.1,113.3,146.1z M63.6,144.7h49v-6.2h-49V144.7z"/>
	<rect x="48.3" y="153" class="st0_city-48" width="65" height="243.4"/>
	<path class="st3_city-48" d="M113.3,397.1h-65c-0.4,0-0.7-0.3-0.7-0.7l0,0V153c0-0.4,0.3-0.7,0.7-0.7h65c0.4,0,0.7,0.3,0.7,0.7v243.4&#10;&#9;&#9;C114,396.8,113.7,397.1,113.3,397.1z M49,395.7h63.6v-242H49V395.7z"/>
	<rect x="102.7" y="153" class="st3_city-48" width="10.6" height="243.4"/>
	<path class="st3_city-48" d="M113.3,153v243.4h-10.6V153H113.3 M113.3,151.6h-10.6c-0.8,0-1.4,0.6-1.4,1.4v243.4c0,0.8,0.6,1.4,1.4,1.4&#10;&#9;&#9;h10.6c0.8,0,1.4-0.6,1.4-1.4V153C114.7,152.2,114.1,151.6,113.3,151.6z"/>
	<rect x="48.3" y="163" class="st2_city-48 targetColor" width="54.4" height="6.8" style="fill: rgb(104, 225, 253);"/>
	<path class="st3_city-48" d="M102.7,170.6H48.3c-0.4,0-0.7-0.3-0.7-0.7V163c0-0.4,0.3-0.7,0.7-0.7h54.4c0.4,0,0.7,0.3,0.7,0.7v6.8&#10;&#9;&#9;C103.4,170.2,103.1,170.5,102.7,170.6C102.7,170.5,102.7,170.6,102.7,170.6z M49,169.1h53v-5.4H49V169.1z"/>
	<rect x="48.3" y="184.5" class="st2_city-48 targetColor" width="54.4" height="6.8" style="fill: rgb(104, 225, 253);"/>
	<path class="st3_city-48" d="M102.7,192H48.3c-0.4,0-0.7-0.3-0.7-0.7v-6.8c0-0.4,0.3-0.7,0.7-0.7h54.4c0.4,0,0.7,0.3,0.7,0.7v6.8&#10;&#9;&#9;C103.4,191.7,103.1,192,102.7,192z M49,190.6h53v-5.4H49V190.6z"/>
	<rect x="48.3" y="205.9" class="st2_city-48 targetColor" width="54.4" height="6.8" style="fill: rgb(104, 225, 253);"/>
	<path class="st3_city-48" d="M102.7,213.5H48.3c-0.4,0-0.7-0.3-0.7-0.7v-6.8c0-0.4,0.3-0.7,0.7-0.7h54.4c0.4,0,0.7,0.3,0.7,0.7v6.8&#10;&#9;&#9;C103.4,213.1,103.1,213.5,102.7,213.5z M49,212.1h53v-5.4H49V212.1z"/>
	<rect x="48.3" y="227.4" class="st2_city-48 targetColor" width="54.4" height="6.8" style="fill: rgb(104, 225, 253);"/>
	<path class="st3_city-48" d="M102.7,234.9H48.3c-0.4,0-0.7-0.3-0.7-0.7v-6.8c0-0.4,0.3-0.7,0.7-0.7h54.4c0.4,0,0.7,0.3,0.7,0.7v6.8&#10;&#9;&#9;C103.4,234.6,103.1,234.9,102.7,234.9z M49,233.5h53v-5.4H49V233.5z"/>
	<rect x="48.3" y="248.8" class="st2_city-48 targetColor" width="54.4" height="6.8" style="fill: rgb(104, 225, 253);"/>
	<path class="st3_city-48" d="M102.7,256.4H48.3c-0.4,0-0.7-0.3-0.7-0.7v-6.8c0-0.4,0.3-0.7,0.7-0.7h54.4c0.4,0,0.7,0.3,0.7,0.7v6.8&#10;&#9;&#9;C103.4,256,103.1,256.4,102.7,256.4z M49,255h53v-5.4H49V255z"/>
	<rect x="48.3" y="270.3" class="st2_city-48 targetColor" width="54.4" height="6.8" style="fill: rgb(104, 225, 253);"/>
	<path class="st3_city-48" d="M102.7,277.8H48.3c-0.4,0-0.7-0.3-0.7-0.7l0,0v-6.8c0-0.4,0.3-0.7,0.7-0.7c0,0,0,0,0,0h54.4&#10;&#9;&#9;c0.4,0,0.7,0.3,0.7,0.7l0,0v6.8C103.4,277.5,103.1,277.8,102.7,277.8L102.7,277.8z M49,276.4h53V271H49V276.4z"/>
	<rect x="48.3" y="291.8" class="st2_city-48 targetColor" width="54.4" height="6.8" style="fill: rgb(104, 225, 253);"/>
	<path class="st3_city-48" d="M102.7,299.3H48.3c-0.4,0-0.7-0.3-0.7-0.7l0,0v-6.8c0-0.4,0.3-0.7,0.7-0.7c0,0,0,0,0,0h54.4&#10;&#9;&#9;c0.4,0,0.7,0.3,0.7,0.7l0,0v6.8C103.4,299,103.1,299.3,102.7,299.3L102.7,299.3z M49,297.9h53v-5.4H49V297.9z"/>
	<rect x="48.3" y="313.2" class="st2_city-48 targetColor" width="54.4" height="6.8" style="fill: rgb(104, 225, 253);"/>
	<path class="st3_city-48" d="M102.7,320.7H48.3c-0.4,0-0.7-0.3-0.7-0.7l0,0v-6.8c0-0.4,0.3-0.7,0.7-0.7c0,0,0,0,0,0h54.4&#10;&#9;&#9;c0.4,0,0.7,0.3,0.7,0.7l0,0v6.8C103.4,320.4,103.1,320.7,102.7,320.7C102.7,320.7,102.7,320.7,102.7,320.7z M49,319.3h53v-5.4H49&#10;&#9;&#9;V319.3z"/>
	<rect x="48.3" y="334.6" class="st2_city-48 targetColor" width="54.4" height="6.8" style="fill: rgb(104, 225, 253);"/>
	<path class="st3_city-48" d="M102.7,342.2H48.3c-0.4,0-0.7-0.3-0.7-0.7l0,0v-6.8c0-0.4,0.3-0.7,0.7-0.7c0,0,0,0,0,0h54.4&#10;&#9;&#9;c0.4,0,0.7,0.3,0.7,0.7l0,0v6.8C103.4,341.9,103.1,342.2,102.7,342.2L102.7,342.2z M49,340.8h53v-5.4H49V340.8z"/>
	<rect x="48.3" y="356.1" class="st2_city-48 targetColor" width="54.4" height="6.8" style="fill: rgb(104, 225, 253);"/>
	<path class="st3_city-48" d="M102.7,363.6H48.3c-0.4,0-0.7-0.3-0.7-0.7l0,0v-6.8c0-0.4,0.3-0.7,0.7-0.7c0,0,0,0,0,0h54.4&#10;&#9;&#9;c0.4,0,0.7,0.3,0.7,0.7l0,0v6.8C103.4,363.3,103.1,363.6,102.7,363.6L102.7,363.6z M49,362.2h53v-5.4H49V362.2z"/>
	<rect x="48.3" y="377.6" class="st2_city-48 targetColor" width="54.4" height="6.8" style="fill: rgb(104, 225, 253);"/>
	<path class="st3_city-48" d="M102.7,385.1H48.3c-0.4,0-0.7-0.3-0.7-0.7l0,0v-6.8c0-0.4,0.3-0.7,0.7-0.7c0,0,0,0,0,0h54.4&#10;&#9;&#9;c0.4,0,0.7,0.3,0.7,0.7l0,0v6.8C103.4,384.8,103.1,385.1,102.7,385.1L102.7,385.1z M49,383.7h53v-5.4H49V383.7z"/>
</g>
<g id="Building_2_city-48">
	<rect x="135" y="314.5" class="st0_city-48" width="109.4" height="4"/>
	<path class="st3_city-48" d="M244.4,319.2H135c-0.4,0-0.7-0.3-0.7-0.7l0,0v-4c0-0.4,0.3-0.7,0.7-0.7c0,0,0,0,0,0h109.4&#10;&#9;&#9;c0.4,0,0.7,0.3,0.7,0.7l0,0v4C245.1,318.9,244.8,319.2,244.4,319.2z M135.7,317.8h108v-2.6h-108V317.8z"/>
	<rect x="127.2" y="320.2" class="st3_city-48" width="125.1" height="76.2"/>
	<path class="st3_city-48" d="M252.3,320.2v76.2H127.2v-76.2H252.3 M252.3,318.9H127.2c-0.8,0-1.4,0.6-1.4,1.4v76.2c0,0.8,0.6,1.4,1.4,1.4&#10;&#9;&#9;h125.1c0.8,0,1.4-0.6,1.4-1.4v-76.2C253.7,319.5,253,318.9,252.3,318.9z"/>
	<rect x="127.2" y="331.6" class="st2_city-48 targetColor" width="125.1" height="6.9" style="fill: rgb(104, 225, 253);"/>
	<path class="st3_city-48" d="M252.3,339.2H127.2c-0.4,0-0.7-0.3-0.7-0.7v-6.9c0-0.4,0.3-0.7,0.7-0.7h0h125.1c0.4,0,0.7,0.3,0.7,0.7l0,0v6.9&#10;&#9;&#9;C253,338.9,252.7,339.2,252.3,339.2C252.3,339.2,252.3,339.2,252.3,339.2z M127.9,337.8h123.7v-5.5H127.8L127.9,337.8z"/>
	<path class="st3_city-48" d="M136.6,339.2c-0.4,0-0.7-0.3-0.7-0.7l0,0v-6.9c0-0.4,0.3-0.7,0.7-0.7s0.7,0.3,0.7,0.7c0,0,0,0,0,0v6.9&#10;&#9;&#9;C137.3,338.9,137,339.2,136.6,339.2z"/>
	<rect x="145.7" y="331.6" class="st3_city-48" width="1.4" height="6.9"/>
	<rect x="155.5" y="331.6" class="st3_city-48" width="1.4" height="6.9"/>
	<rect x="165.3" y="331.6" class="st3_city-48" width="1.4" height="6.9"/>
	<rect x="175.1" y="331.6" class="st3_city-48" width="1.4" height="6.9"/>
	<rect x="184.9" y="331.6" class="st3_city-48" width="1.4" height="6.9"/>
	<rect x="194.6" y="331.6" class="st3_city-48" width="1.4" height="6.9"/>
	<rect x="204.4" y="331.6" class="st3_city-48" width="1.4" height="6.9"/>
	<rect x="214.2" y="331.6" class="st3_city-48" width="1.4" height="6.9"/>
	<rect x="224" y="331.6" class="st3_city-48" width="1.4" height="6.9"/>
	<rect x="233.8" y="331.6" class="st3_city-48" width="1.4" height="6.9"/>
	<rect x="243.6" y="331.6" class="st3_city-48" width="1.4" height="6.9"/>
	<rect x="127.2" y="347.1" class="st2_city-48 targetColor" width="125.1" height="6.9" style="fill: rgb(104, 225, 253);"/>
	<path class="st3_city-48" d="M252.3,354.7H127.2c-0.4,0-0.7-0.3-0.7-0.7l0,0v-6.9c0-0.4,0.3-0.7,0.7-0.7h0h125.1c0.4,0,0.7,0.3,0.7,0.7l0,0&#10;&#9;&#9;v6.9C253,354.4,252.7,354.7,252.3,354.7C252.3,354.7,252.3,354.7,252.3,354.7z M127.9,353.3h123.7v-5.5H127.8L127.9,353.3z"/>
	<path class="st3_city-48" d="M136.6,354.7c-0.4,0-0.7-0.3-0.7-0.7l0,0v-6.9c0-0.4,0.3-0.7,0.7-0.7s0.7,0.3,0.7,0.7c0,0,0,0,0,0v6.9&#10;&#9;&#9;C137.3,354.4,137,354.7,136.6,354.7C136.6,354.7,136.6,354.7,136.6,354.7z"/>
	<rect x="145.7" y="347.1" class="st3_city-48" width="1.4" height="6.9"/>
	<rect x="155.5" y="347.1" class="st3_city-48" width="1.4" height="6.9"/>
	<rect x="165.3" y="347.1" class="st3_city-48" width="1.4" height="6.9"/>
	<rect x="175.1" y="347.1" class="st3_city-48" width="1.4" height="6.9"/>
	<rect x="184.9" y="347.1" class="st3_city-48" width="1.4" height="6.9"/>
	<rect x="194.6" y="347.1" class="st3_city-48" width="1.4" height="6.9"/>
	<rect x="204.4" y="347.1" class="st3_city-48" width="1.4" height="6.9"/>
	<rect x="214.2" y="347.1" class="st3_city-48" width="1.4" height="6.9"/>
	<rect x="224" y="347.1" class="st3_city-48" width="1.4" height="6.9"/>
	<rect x="233.8" y="347.1" class="st3_city-48" width="1.4" height="6.9"/>
	<rect x="243.6" y="347.1" class="st3_city-48" width="1.4" height="6.9"/>
	<rect x="127.2" y="362.7" class="st2_city-48 targetColor" width="125.1" height="6.9" style="fill: rgb(104, 225, 253);"/>
	<path class="st3_city-48" d="M252.3,370.2H127.2c-0.4,0-0.7-0.3-0.7-0.7v-6.9c0-0.4,0.3-0.7,0.7-0.7h0h125.1c0.4,0,0.7,0.3,0.7,0.7l0,0v6.9&#10;&#9;&#9;C253,369.9,252.7,370.2,252.3,370.2C252.3,370.2,252.3,370.2,252.3,370.2z M127.9,368.8h123.7v-5.5H127.8L127.9,368.8z"/>
	<path class="st3_city-48" d="M136.6,370.2c-0.4,0-0.7-0.3-0.7-0.7l0,0v-6.9c0-0.4,0.3-0.7,0.7-0.7s0.7,0.3,0.7,0.7c0,0,0,0,0,0v6.9&#10;&#9;&#9;C137.3,369.9,137,370.2,136.6,370.2z"/>
	<rect x="145.7" y="362.7" class="st3_city-48" width="1.4" height="6.9"/>
	<rect x="155.5" y="362.7" class="st3_city-48" width="1.4" height="6.9"/>
	<rect x="165.3" y="362.7" class="st3_city-48" width="1.4" height="6.9"/>
	<rect x="175.1" y="362.7" class="st3_city-48" width="1.4" height="6.9"/>
	<rect x="184.9" y="362.7" class="st3_city-48" width="1.4" height="6.9"/>
	<rect x="194.6" y="362.7" class="st3_city-48" width="1.4" height="6.9"/>
	<rect x="204.4" y="362.7" class="st3_city-48" width="1.4" height="6.9"/>
	<rect x="214.2" y="362.7" class="st3_city-48" width="1.4" height="6.9"/>
	<rect x="224" y="362.7" class="st3_city-48" width="1.4" height="6.9"/>
	<rect x="233.8" y="362.7" class="st3_city-48" width="1.4" height="6.9"/>
	<rect x="243.6" y="362.7" class="st3_city-48" width="1.4" height="6.9"/>
	<rect x="127.2" y="378.2" class="st2_city-48 targetColor" width="125.1" height="6.9" style="fill: rgb(104, 225, 253);"/>
	<path class="st3_city-48" d="M252.3,385.8H127.2c-0.4,0-0.7-0.3-0.7-0.7l0,0v-6.8c0-0.4,0.3-0.7,0.7-0.7h0h125.1c0.4,0,0.7,0.3,0.7,0.7l0,0&#10;&#9;&#9;v6.9C253,385.4,252.7,385.8,252.3,385.8z M127.9,384.4h123.7v-5.5H127.8L127.9,384.4z"/>
	<path class="st3_city-48" d="M136.6,385.8c-0.4,0-0.7-0.3-0.7-0.7l0,0v-6.8c0-0.4,0.3-0.7,0.7-0.7c0.4,0,0.7,0.3,0.7,0.7v6.9&#10;&#9;&#9;C137.3,385.4,137,385.8,136.6,385.8z"/>
	<rect x="145.7" y="378.2" class="st3_city-48" width="1.4" height="6.9"/>
	<rect x="155.5" y="378.2" class="st3_city-48" width="1.4" height="6.9"/>
	<rect x="165.3" y="378.2" class="st3_city-48" width="1.4" height="6.9"/>
	<rect x="175.1" y="378.2" class="st3_city-48" width="1.4" height="6.9"/>
	<rect x="184.9" y="378.2" class="st3_city-48" width="1.4" height="6.9"/>
	<rect x="194.6" y="378.2" class="st3_city-48" width="1.4" height="6.9"/>
	<rect x="204.4" y="378.2" class="st3_city-48" width="1.4" height="6.9"/>
	<rect x="214.2" y="378.2" class="st3_city-48" width="1.4" height="6.9"/>
	<rect x="224" y="378.2" class="st3_city-48" width="1.4" height="6.9"/>
	<rect x="233.8" y="378.2" class="st3_city-48" width="1.4" height="6.9"/>
	<rect x="243.6" y="378.2" class="st3_city-48" width="1.4" height="6.9"/>
</g>
<g id="Building_5_city-48">
	<rect x="396.4" y="182.9" class="st0_city-48" width="57.5" height="213.5"/>
	<path class="st3_city-48" d="M453.9,397.1h-57.5c-0.4,0-0.7-0.3-0.7-0.7V182.9c0-0.4,0.3-0.7,0.7-0.7h57.5c0.4,0,0.7,0.3,0.7,0.7&#10;&#9;&#9;c0,0,0,0,0,0v213.5C454.6,396.8,454.2,397.1,453.9,397.1C453.9,397.1,453.9,397.1,453.9,397.1z M397.1,395.7h56.1V183.6h-56.1&#10;&#9;&#9;V395.7z"/>
	<rect x="405.5" y="183.6" class="st2_city-48 targetColor" width="39.3" height="174.9" style="fill: rgb(104, 225, 253);"/>
	<path class="st3_city-48" d="M444.8,359.1h-39.3c-0.4,0-0.7-0.3-0.7-0.7v0V183.6c0-0.4,0.3-0.7,0.7-0.7l0,0h39.3c0.4,0,0.7,0.3,0.7,0.7&#10;&#9;&#9;c0,0,0,0,0,0v174.9C445.5,358.8,445.1,359.1,444.8,359.1z M406.2,357.8h37.9V184.3h-37.9V357.8z"/>
	<rect x="396.4" y="182.9" class="st0_city-48" width="9.1" height="213.5"/>
	<path class="st3_city-48" d="M405.5,397.1h-9.1c-0.4,0-0.7-0.3-0.7-0.7V182.9c0-0.4,0.3-0.7,0.7-0.7h9.1c0.4,0,0.7,0.3,0.7,0.7c0,0,0,0,0,0&#10;&#9;&#9;v213.5C406.2,396.8,405.9,397.1,405.5,397.1L405.5,397.1z M397.1,395.7h7.7V183.6h-7.7V395.7z"/>
	<rect x="444.8" y="182.9" class="st0_city-48" width="9.1" height="213.5"/>
	<path class="st3_city-48" d="M453.9,397.1h-9.1c-0.4,0-0.7-0.3-0.7-0.7v0V182.9c0-0.4,0.3-0.7,0.7-0.7l0,0h9.1c0.4,0,0.7,0.3,0.7,0.7&#10;&#9;&#9;c0,0,0,0,0,0v213.5C454.6,396.8,454.2,397.1,453.9,397.1L453.9,397.1z M445.5,395.7h7.7V183.6h-7.7V395.7z"/>
	<path class="st3_city-48" d="M444.8,193.2h-39.3c-0.4,0-0.7-0.3-0.7-0.7s0.3-0.7,0.7-0.7c0,0,0,0,0,0h39.3c0.4,0,0.7,0.3,0.7,0.7&#10;&#9;&#9;C445.5,192.8,445.1,193.2,444.8,193.2z"/>
	<path class="st3_city-48" d="M444.8,201.5h-39.3c-0.4,0-0.7-0.3-0.7-0.7c0-0.4,0.3-0.7,0.7-0.7h39.3c0.4,0,0.7,0.3,0.7,0.7&#10;&#9;&#9;C445.5,201.1,445.1,201.5,444.8,201.5z"/>
	<path class="st3_city-48" d="M444.8,209.8h-39.3c-0.4,0-0.7-0.3-0.7-0.7s0.3-0.7,0.7-0.7c0,0,0,0,0,0h39.3c0.4,0,0.7,0.3,0.7,0.7&#10;&#9;&#9;S445.2,209.8,444.8,209.8C444.8,209.8,444.8,209.8,444.8,209.8z"/>
	<path class="st3_city-48" d="M444.8,218.1h-39.3c-0.4,0-0.7-0.3-0.7-0.7s0.3-0.7,0.7-0.7c0,0,0,0,0,0h39.3c0.4,0,0.7,0.3,0.7,0.7&#10;&#9;&#9;C445.5,217.7,445.1,218.1,444.8,218.1z"/>
	<path class="st3_city-48" d="M444.8,226.4h-39.3c-0.4,0-0.7-0.3-0.7-0.7c0-0.4,0.3-0.7,0.7-0.7h39.3c0.4,0,0.7,0.3,0.7,0.7&#10;&#9;&#9;C445.5,226,445.1,226.4,444.8,226.4z"/>
	<path class="st3_city-48" d="M444.8,234.7h-39.3c-0.4,0-0.7-0.3-0.7-0.7s0.3-0.7,0.7-0.7c0,0,0,0,0,0h39.3c0.4,0,0.7,0.3,0.7,0.7&#10;&#9;&#9;C445.5,234.3,445.1,234.7,444.8,234.7z"/>
	<path class="st3_city-48" d="M444.8,243h-39.3c-0.4,0-0.7-0.3-0.7-0.7c0-0.4,0.3-0.7,0.7-0.7h39.3c0.4,0,0.7,0.3,0.7,0.7&#10;&#9;&#9;C445.5,242.7,445.1,243,444.8,243z"/>
	<path class="st3_city-48" d="M444.8,251.3h-39.3c-0.4,0-0.7-0.3-0.7-0.7s0.3-0.7,0.7-0.7c0,0,0,0,0,0h39.3c0.4,0,0.7,0.3,0.7,0.7&#10;&#9;&#9;S445.2,251.3,444.8,251.3C444.8,251.3,444.8,251.3,444.8,251.3z"/>
	<path class="st3_city-48" d="M444.8,259.6h-39.3c-0.4,0-0.7-0.3-0.7-0.7s0.3-0.7,0.7-0.7c0,0,0,0,0,0h39.3c0.4,0,0.7,0.3,0.7,0.7&#10;&#9;&#9;C445.5,259.2,445.1,259.6,444.8,259.6z"/>
	<path class="st3_city-48" d="M444.8,267.9h-39.3c-0.4,0-0.7-0.3-0.7-0.7s0.3-0.7,0.7-0.7c0,0,0,0,0,0h39.3c0.4,0,0.7,0.3,0.7,0.7&#10;&#9;&#9;S445.2,267.9,444.8,267.9C444.8,267.9,444.8,267.9,444.8,267.9z"/>
	<path class="st3_city-48" d="M444.8,276.2h-39.3c-0.4,0-0.7-0.3-0.7-0.7s0.3-0.7,0.7-0.7c0,0,0,0,0,0h39.3c0.4,0,0.7,0.3,0.7,0.7&#10;&#9;&#9;S445.2,276.2,444.8,276.2C444.8,276.2,444.8,276.2,444.8,276.2z"/>
	<path class="st3_city-48" d="M444.8,284.5h-39.3c-0.4,0-0.7-0.3-0.7-0.7s0.3-0.7,0.7-0.7c0,0,0,0,0,0h39.3c0.4,0,0.7,0.3,0.7,0.7&#10;&#9;&#9;C445.5,284.1,445.1,284.5,444.8,284.5z"/>
	<path class="st3_city-48" d="M444.8,292.8h-39.3c-0.4,0-0.7-0.3-0.7-0.7s0.3-0.7,0.7-0.7c0,0,0,0,0,0h39.3c0.4,0,0.7,0.3,0.7,0.7&#10;&#9;&#9;S445.2,292.8,444.8,292.8C444.8,292.8,444.8,292.8,444.8,292.8z"/>
	<path class="st3_city-48" d="M444.8,301.1h-39.3c-0.4,0-0.7-0.3-0.7-0.7s0.3-0.7,0.7-0.7c0,0,0,0,0,0h39.3c0.4,0,0.7,0.3,0.7,0.7&#10;&#9;&#9;C445.5,300.7,445.1,301.1,444.8,301.1z"/>
	<path class="st3_city-48" d="M444.8,309.4h-39.3c-0.4,0-0.7-0.3-0.7-0.7s0.3-0.7,0.7-0.7c0,0,0,0,0,0h39.3c0.4,0,0.7,0.3,0.7,0.7&#10;&#9;&#9;S445.2,309.4,444.8,309.4C444.8,309.4,444.8,309.4,444.8,309.4z"/>
	<path class="st3_city-48" d="M444.8,317.7h-39.3c-0.4,0-0.7-0.3-0.7-0.7s0.3-0.7,0.7-0.7c0,0,0,0,0,0h39.3c0.4,0,0.7,0.3,0.7,0.7&#10;&#9;&#9;S445.2,317.7,444.8,317.7C444.8,317.7,444.8,317.7,444.8,317.7z"/>
	<path class="st3_city-48" d="M444.8,326h-39.3c-0.4,0-0.7-0.3-0.7-0.7s0.3-0.7,0.7-0.7c0,0,0,0,0,0h39.3c0.4,0,0.7,0.3,0.7,0.7&#10;&#9;&#9;C445.5,325.7,445.1,326,444.8,326z"/>
	<path class="st3_city-48" d="M444.8,334.3h-39.3c-0.4,0-0.7-0.3-0.7-0.7s0.3-0.7,0.7-0.7c0,0,0,0,0,0h39.3c0.4,0,0.7,0.3,0.7,0.7&#10;&#9;&#9;S445.2,334.3,444.8,334.3C444.8,334.3,444.8,334.3,444.8,334.3z"/>
	<path class="st3_city-48" d="M444.8,342.5h-39.3c-0.4,0-0.7-0.3-0.7-0.7s0.3-0.7,0.7-0.7c0,0,0,0,0,0h39.3c0.4,0,0.7,0.3,0.7,0.7&#10;&#9;&#9;S445.2,342.5,444.8,342.5C444.8,342.5,444.8,342.5,444.8,342.5z"/>
	<path class="st3_city-48" d="M444.8,350.9h-39.3c-0.4,0-0.7-0.3-0.7-0.7c0-0.4,0.3-0.7,0.7-0.7h39.3c0.4,0,0.7,0.3,0.7,0.7&#10;&#9;&#9;S445.2,350.8,444.8,350.9C444.8,350.9,444.8,350.9,444.8,350.9z"/>
	<path class="st3_city-48" d="M444.8,359.1h-39.3c-0.4,0-0.7-0.3-0.7-0.7s0.3-0.7,0.7-0.7c0,0,0,0,0,0h39.3c0.4,0,0.7,0.3,0.7,0.7&#10;&#9;&#9;S445.2,359.1,444.8,359.1C444.8,359.1,444.8,359.1,444.8,359.1z"/>
	<rect x="396.4" y="182.9" class="st0_city-48" width="9.1" height="213.5"/>
	<path class="st3_city-48" d="M405.5,397.1h-9.1c-0.4,0-0.7-0.3-0.7-0.7V182.9c0-0.4,0.3-0.7,0.7-0.7h9.1c0.4,0,0.7,0.3,0.7,0.7c0,0,0,0,0,0&#10;&#9;&#9;v213.5C406.2,396.8,405.9,397.1,405.5,397.1L405.5,397.1z M397.1,395.7h7.7V183.6h-7.7V395.7z"/>
	<rect x="405.5" y="358.5" class="st3_city-48" width="39.3" height="38"/>
</g>
<g id="Building_3_city-48">
	<rect x="271.7" y="261.8" class="st2_city-48 targetColor" width="27.2" height="134.6" style="fill: rgb(104, 225, 253);"/>
	<path class="st3_city-48" d="M298.9,397.1h-27.2c-0.4,0-0.7-0.3-0.7-0.7V261.8c0-0.4,0.3-0.7,0.7-0.7h0h27.2c0.4,0,0.7,0.3,0.7,0.7v0v134.6&#10;&#9;&#9;C299.6,396.8,299.3,397.1,298.9,397.1L298.9,397.1z M272.4,395.7h25.8V262.5h-25.8L272.4,395.7z"/>
	<rect x="266.6" y="261.8" class="st0_city-48" width="5.2" height="134.6"/>
	<path class="st3_city-48" d="M271.7,397.1h-5.1c-0.4,0-0.7-0.3-0.7-0.7v0V261.8c0-0.4,0.3-0.7,0.7-0.7h0h5.1c0.4,0,0.7,0.3,0.7,0.7v0v134.6&#10;&#9;&#9;C272.4,396.8,272.1,397.1,271.7,397.1L271.7,397.1z M267.3,395.7h3.7V262.5h-3.8L267.3,395.7z"/>
	<rect x="298.9" y="261.8" class="st0_city-48" width="5.2" height="134.6"/>
	<path class="st3_city-48" d="M304,397.1h-5.2c-0.4,0-0.7-0.3-0.7-0.7v0V261.8c0-0.4,0.3-0.7,0.7-0.7h0h5.2c0.4,0,0.7,0.3,0.7,0.7v0v134.6&#10;&#9;&#9;C304.7,396.8,304.4,397.1,304,397.1z M299.6,395.7h3.8V262.5h-3.8V395.7z"/>
	<path class="st3_city-48" d="M277.9,371.7c-0.4,0-0.7-0.3-0.7-0.7v0V261.8c0-0.4,0.3-0.7,0.7-0.7c0.4,0,0.7,0.3,0.7,0.7V371&#10;&#9;&#9;C278.6,371.4,278.3,371.7,277.9,371.7z"/>
	<path class="st3_city-48" d="M285.3,371.7c-0.4,0-0.7-0.3-0.7-0.7v0V261.8c0-0.4,0.3-0.7,0.7-0.7c0.4,0,0.7,0.3,0.7,0.7V371&#10;&#9;&#9;C286,371.4,285.7,371.7,285.3,371.7z"/>
	<path class="st3_city-48" d="M292.7,371.7c-0.4,0-0.7-0.3-0.7-0.7v0V261.8c0-0.4,0.3-0.7,0.7-0.7c0.4,0,0.7,0.3,0.7,0.7V371&#10;&#9;&#9;C293.4,371.4,293.1,371.7,292.7,371.7z"/>
	<rect x="271.7" y="289.9" class="st3_city-48" width="27.2" height="4.8"/>
	<rect x="271.7" y="316.1" class="st3_city-48" width="27.2" height="4.8"/>
	<rect x="271.7" y="342.3" class="st3_city-48" width="27.2" height="4.8"/>
	<rect x="271.7" y="368.6" class="st3_city-48" width="27.2" height="4.8"/>
</g>
<g id="Building_4_city-48">
	<rect x="316.9" y="212.5" class="st0_city-48" width="59.9" height="5.1"/>
	<path class="st3_city-48" d="M376.8,218.4h-59.9c-0.4,0-0.7-0.3-0.7-0.7c0,0,0,0,0,0v-5.1c0-0.4,0.3-0.7,0.7-0.7l0,0h59.9&#10;&#9;&#9;c0.4,0,0.7,0.3,0.7,0.7c0,0,0,0,0,0v5.1C377.5,218,377.2,218.4,376.8,218.4L376.8,218.4z M317.6,217h58.5v-3.7h-58.5V217z"/>
	<rect x="321.8" y="217.6" class="st0_city-48" width="50.2" height="4.9"/>
	<path class="st3_city-48" d="M372,223.3h-50.2c-0.4,0-0.7-0.3-0.7-0.7c0,0,0,0,0,0v-4.9c0-0.4,0.3-0.7,0.7-0.7l0,0H372&#10;&#9;&#9;c0.4,0,0.7,0.3,0.7,0.7c0,0,0,0,0,0v4.9C372.7,223,372.4,223.3,372,223.3L372,223.3z M322.5,221.9h48.8v-3.5h-48.8L322.5,221.9z"/>
	<rect x="321.8" y="217.6" class="st3_city-48" width="50.2" height="4.9"/>
	<rect x="321.8" y="222.6" class="st0_city-48" width="50.2" height="13.8"/>
	<path class="st3_city-48" d="M372,237.1h-50.2c-0.4,0-0.7-0.3-0.7-0.7c0,0,0,0,0,0v-13.8c0-0.4,0.3-0.7,0.7-0.7l0,0H372&#10;&#9;&#9;c0.4,0,0.7,0.3,0.7,0.7c0,0,0,0,0,0v13.8C372.7,236.8,372.4,237.1,372,237.1z M322.5,235.7h48.8v-12.4h-48.8L322.5,235.7z"/>
	<rect x="321.8" y="222.6" class="st2_city-48 targetColor" width="50.2" height="13.8" style="fill: rgb(104, 225, 253);"/>
	<path class="st3_city-48" d="M372,237.1h-50.2c-0.4,0-0.7-0.3-0.7-0.7c0,0,0,0,0,0v-13.8c0-0.4,0.3-0.7,0.7-0.7l0,0H372&#10;&#9;&#9;c0.4,0,0.7,0.3,0.7,0.7c0,0,0,0,0,0v13.8C372.7,236.8,372.4,237.1,372,237.1z M322.5,235.7h48.8v-12.4h-48.8L322.5,235.7z"/>
	<path class="st3_city-48" d="M334.1,237.1c-0.4,0-0.7-0.3-0.7-0.7c0,0,0,0,0,0v-13.8c0-0.4,0.3-0.7,0.7-0.7c0.4,0,0.7,0.3,0.7,0.7v13.8&#10;&#9;&#9;C334.8,236.8,334.4,237.1,334.1,237.1z"/>
	<path class="st3_city-48" d="M346.9,237.1c-0.4,0-0.7-0.3-0.7-0.7c0,0,0,0,0,0v-13.8c0-0.4,0.3-0.7,0.7-0.7c0.4,0,0.7,0.3,0.7,0.7v13.8&#10;&#9;&#9;C347.6,236.8,347.3,237.1,346.9,237.1z"/>
	<path class="st3_city-48" d="M359.7,237.1c-0.4,0-0.7-0.3-0.7-0.7c0,0,0,0,0,0v-13.8c0-0.4,0.3-0.7,0.7-0.7c0.4,0,0.7,0.3,0.7,0.7v13.8&#10;&#9;&#9;C360.4,236.8,360.1,237.1,359.7,237.1z"/>
	<rect x="316.9" y="235.4" class="st0_city-48" width="59.9" height="5.1"/>
	<path class="st3_city-48" d="M376.8,241.2h-59.9c-0.4,0-0.7-0.3-0.7-0.7c0,0,0,0,0,0v-5.1c0-0.4,0.3-0.7,0.7-0.7l0,0h59.9&#10;&#9;&#9;c0.4,0,0.7,0.3,0.7,0.7c0,0,0,0,0,0v5.1C377.5,240.9,377.2,241.2,376.8,241.2L376.8,241.2z M317.6,239.8h58.5v-3.7h-58.5V239.8z"/>
	<rect x="321.8" y="240.5" class="st0_city-48" width="50.2" height="4.9"/>
	<path class="st3_city-48" d="M372,246.1h-50.2c-0.4,0-0.7-0.3-0.7-0.7c0,0,0,0,0,0v-4.9c0-0.4,0.3-0.7,0.7-0.7l0,0H372&#10;&#9;&#9;c0.4,0,0.7,0.3,0.7,0.7c0,0,0,0,0,0v4.9C372.7,245.8,372.4,246.1,372,246.1L372,246.1z M322.5,244.7h48.8v-3.5h-48.8L322.5,244.7z"/>
	<rect x="321.8" y="240.5" class="st3_city-48" width="50.2" height="4.9"/>
	<rect x="321.8" y="245.4" class="st0_city-48" width="50.2" height="13.8"/>
	<path class="st3_city-48" d="M372,260h-50.2c-0.4,0-0.7-0.3-0.7-0.7v0v-13.9c0-0.4,0.3-0.7,0.7-0.7l0,0H372c0.4,0,0.7,0.3,0.7,0.7&#10;&#9;&#9;c0,0,0,0,0,0v13.8C372.7,259.6,372.4,260,372,260C372,260,372,260,372,260z M322.5,258.6h48.8v-12.5h-48.8L322.5,258.6z"/>
	<rect x="321.8" y="245.4" class="st2_city-48 targetColor" width="50.2" height="13.8" style="fill: rgb(104, 225, 253);"/>
	<path class="st3_city-48" d="M372,260h-50.2c-0.4,0-0.7-0.3-0.7-0.7v0v-13.9c0-0.4,0.3-0.7,0.7-0.7l0,0H372c0.4,0,0.7,0.3,0.7,0.7&#10;&#9;&#9;c0,0,0,0,0,0v13.8C372.7,259.6,372.4,260,372,260C372,260,372,260,372,260z M322.5,258.6h48.8v-12.5h-48.8L322.5,258.6z"/>
	<path class="st3_city-48" d="M334.1,260c-0.4,0-0.7-0.3-0.7-0.7v0v-13.9c0-0.4,0.3-0.7,0.7-0.7c0.4,0,0.7,0.3,0.7,0.7c0,0,0,0,0,0v13.8&#10;&#9;&#9;C334.8,259.6,334.5,260,334.1,260C334.1,260,334.1,260,334.1,260z"/>
	<path class="st3_city-48" d="M346.9,260c-0.4,0-0.7-0.3-0.7-0.7v0v-13.9c0-0.4,0.3-0.7,0.7-0.7c0.4,0,0.7,0.3,0.7,0.7c0,0,0,0,0,0v13.8&#10;&#9;&#9;C347.6,259.6,347.3,260,346.9,260C346.9,260,346.9,260,346.9,260z"/>
	<path class="st3_city-48" d="M359.7,260c-0.4,0-0.7-0.3-0.7-0.7v0v-13.9c0-0.4,0.3-0.7,0.7-0.7c0.4,0,0.7,0.3,0.7,0.7c0,0,0,0,0,0v13.8&#10;&#9;&#9;C360.4,259.6,360.1,260,359.7,260C359.7,260,359.7,260,359.7,260z"/>
	<rect x="316.9" y="258.2" class="st0_city-48" width="59.9" height="5.1"/>
	<path class="st3_city-48" d="M376.8,264.1h-59.9c-0.4,0-0.7-0.3-0.7-0.7v0v-5.1c0-0.4,0.3-0.7,0.7-0.7h0h59.9c0.4,0,0.7,0.3,0.7,0.7v0v5.1&#10;&#9;&#9;C377.5,263.8,377.2,264.1,376.8,264.1C376.8,264.1,376.8,264.1,376.8,264.1z M317.6,262.7h58.5V259h-58.5V262.7z"/>
	<rect x="321.8" y="263.4" class="st0_city-48" width="50.2" height="4.9"/>
	<path class="st3_city-48" d="M372,269h-50.2c-0.4,0-0.7-0.3-0.7-0.7v0v-4.9c0-0.4,0.3-0.7,0.7-0.7h0H372c0.4,0,0.7,0.3,0.7,0.7v0v4.9&#10;&#9;&#9;C372.7,268.7,372.4,269,372,269L372,269z M322.5,267.6h48.8v-3.5h-48.8L322.5,267.6z"/>
	<rect x="321.8" y="263.4" class="st3_city-48" width="50.2" height="4.9"/>
	<rect x="321.8" y="268.3" class="st0_city-48" width="50.2" height="13.8"/>
	<path class="st3_city-48" d="M372,282.8h-50.2c-0.4,0-0.7-0.3-0.7-0.7v0v-13.8c0-0.4,0.3-0.7,0.7-0.7h0H372c0.4,0,0.7,0.3,0.7,0.7v0v13.8&#10;&#9;&#9;C372.7,282.5,372.4,282.8,372,282.8L372,282.8z M322.5,281.4h48.8V269h-48.8L322.5,281.4z"/>
	<rect x="321.8" y="268.3" class="st2_city-48 targetColor" width="50.2" height="13.8" style="fill: rgb(104, 225, 253);"/>
	<path class="st3_city-48" d="M372,282.8h-50.2c-0.4,0-0.7-0.3-0.7-0.7v0v-13.8c0-0.4,0.3-0.7,0.7-0.7h0H372c0.4,0,0.7,0.3,0.7,0.7v0v13.8&#10;&#9;&#9;C372.7,282.5,372.4,282.8,372,282.8L372,282.8z M322.5,281.4h48.8V269h-48.8L322.5,281.4z"/>
	<path class="st3_city-48" d="M334.1,282.8c-0.4,0-0.7-0.3-0.7-0.7v0v-13.8c0-0.4,0.3-0.7,0.7-0.7c0.4,0,0.7,0.3,0.7,0.7v13.8&#10;&#9;&#9;C334.8,282.5,334.4,282.8,334.1,282.8z"/>
	<path class="st3_city-48" d="M346.9,282.8c-0.4,0-0.7-0.3-0.7-0.7v0v-13.8c0-0.4,0.3-0.7,0.7-0.7c0.4,0,0.7,0.3,0.7,0.7v13.8&#10;&#9;&#9;C347.6,282.5,347.3,282.8,346.9,282.8z"/>
	<path class="st3_city-48" d="M359.7,282.8c-0.4,0-0.7-0.3-0.7-0.7v0v-13.8c0-0.4,0.3-0.7,0.7-0.7c0.4,0,0.7,0.3,0.7,0.7v13.8&#10;&#9;&#9;C360.4,282.5,360.1,282.8,359.7,282.8z"/>
	<rect x="316.9" y="281.1" class="st0_city-48" width="59.9" height="5.1"/>
	<path class="st3_city-48" d="M376.8,286.9h-59.9c-0.4,0-0.7-0.3-0.7-0.7v0v-5.1c0-0.4,0.3-0.7,0.7-0.7h0h59.9c0.4,0,0.7,0.3,0.7,0.7v0v5.1&#10;&#9;&#9;C377.5,286.6,377.2,286.9,376.8,286.9C376.8,286.9,376.8,286.9,376.8,286.9z M317.6,285.5h58.5v-3.7h-58.5V285.5z"/>
	<rect x="321.8" y="286.2" class="st0_city-48" width="50.2" height="4.9"/>
	<path class="st3_city-48" d="M372,291.9h-50.2c-0.4,0-0.7-0.3-0.7-0.7v0v-4.9c0-0.4,0.3-0.7,0.7-0.7h0H372c0.4,0,0.7,0.3,0.7,0.7v0v4.9&#10;&#9;&#9;C372.7,291.5,372.4,291.9,372,291.9L372,291.9z M322.5,290.5h48.8v-3.5h-48.8L322.5,290.5z"/>
	<rect x="321.8" y="286.2" class="st3_city-48" width="50.2" height="4.9"/>
	<rect x="321.8" y="291.2" class="st0_city-48" width="50.2" height="13.8"/>
	<path class="st3_city-48" d="M372,305.7h-50.2c-0.4,0-0.7-0.3-0.7-0.7v0v-13.8c0-0.4,0.3-0.7,0.7-0.7h0H372c0.4,0,0.7,0.3,0.7,0.7v0V305&#10;&#9;&#9;C372.7,305.4,372.4,305.7,372,305.7z M322.5,304.3h48.8v-12.4h-48.8L322.5,304.3z"/>
	<rect x="321.8" y="291.2" class="st2_city-48 targetColor" width="50.2" height="13.8" style="fill: rgb(104, 225, 253);"/>
	<path class="st3_city-48" d="M372,305.7h-50.2c-0.4,0-0.7-0.3-0.7-0.7v0v-13.8c0-0.4,0.3-0.7,0.7-0.7h0H372c0.4,0,0.7,0.3,0.7,0.7v0V305&#10;&#9;&#9;C372.7,305.4,372.4,305.7,372,305.7z M322.5,304.3h48.8v-12.4h-48.8L322.5,304.3z"/>
	<path class="st3_city-48" d="M334.1,305.7c-0.4,0-0.7-0.3-0.7-0.7v0v-13.8c0-0.4,0.3-0.7,0.7-0.7c0.4,0,0.7,0.3,0.7,0.7V305&#10;&#9;&#9;C334.7,305.4,334.4,305.7,334.1,305.7z"/>
	<path class="st3_city-48" d="M346.9,305.7c-0.4,0-0.7-0.3-0.7-0.7v0v-13.8c0-0.4,0.3-0.7,0.7-0.7c0.4,0,0.7,0.3,0.7,0.7V305&#10;&#9;&#9;C347.6,305.4,347.2,305.7,346.9,305.7z"/>
	<path class="st3_city-48" d="M359.7,305.7c-0.4,0-0.7-0.3-0.7-0.7v-13.8c0-0.4,0.3-0.7,0.7-0.7c0.4,0,0.7,0.3,0.7,0.7V305&#10;&#9;&#9;C360.4,305.4,360.1,305.7,359.7,305.7z"/>
	<rect x="316.9" y="304" class="st0_city-48" width="59.9" height="5.1"/>
	<path class="st3_city-48" d="M376.8,309.8h-59.9c-0.4,0-0.7-0.3-0.7-0.7v0V304c0-0.4,0.3-0.7,0.7-0.7h0h59.9c0.4,0,0.7,0.3,0.7,0.7v0v5.1&#10;&#9;&#9;C377.5,309.5,377.2,309.8,376.8,309.8z M317.6,308.4h58.5v-3.7h-58.5V308.4z"/>
	<rect x="321.8" y="309.1" class="st0_city-48" width="50.2" height="4.9"/>
	<path class="st3_city-48" d="M372,314.7h-50.2c-0.4,0-0.7-0.3-0.7-0.7v0v-4.9c0-0.4,0.3-0.7,0.7-0.7h0H372c0.4,0,0.7,0.3,0.7,0.7v0v4.9&#10;&#9;&#9;C372.7,314.4,372.4,314.7,372,314.7C372,314.7,372,314.7,372,314.7z M322.5,313.3h48.8v-3.5h-48.8L322.5,313.3z"/>
	<rect x="321.8" y="309.1" class="st3_city-48" width="50.2" height="4.9"/>
	<rect x="321.8" y="314" class="st0_city-48" width="50.2" height="13.8"/>
	<path class="st3_city-48" d="M372,328.5h-50.2c-0.4,0-0.7-0.3-0.7-0.7v0V314c0-0.4,0.3-0.7,0.7-0.7h0H372c0.4,0,0.7,0.3,0.7,0.7v0v13.8&#10;&#9;&#9;C372.7,328.2,372.4,328.5,372,328.5C372,328.5,372,328.5,372,328.5z M322.5,327.1h48.8v-12.4h-48.8L322.5,327.1z"/>
	<rect x="321.8" y="314" class="st2_city-48 targetColor" width="50.2" height="13.8" style="fill: rgb(104, 225, 253);"/>
	<path class="st3_city-48" d="M372,328.5h-50.2c-0.4,0-0.7-0.3-0.7-0.7v0V314c0-0.4,0.3-0.7,0.7-0.7h0H372c0.4,0,0.7,0.3,0.7,0.7v0v13.8&#10;&#9;&#9;C372.7,328.2,372.4,328.5,372,328.5C372,328.5,372,328.5,372,328.5z M322.5,327.1h48.8v-12.4h-48.8L322.5,327.1z"/>
	<path class="st3_city-48" d="M334.1,328.5c-0.4,0-0.7-0.3-0.7-0.7v0V314c0-0.4,0.3-0.7,0.7-0.7s0.7,0.3,0.7,0.7c0,0,0,0,0,0v13.8&#10;&#9;&#9;C334.8,328.2,334.5,328.5,334.1,328.5C334.1,328.5,334.1,328.5,334.1,328.5z"/>
	<path class="st3_city-48" d="M346.9,328.5c-0.4,0-0.7-0.3-0.7-0.7v0V314c0-0.4,0.3-0.7,0.7-0.7c0.4,0,0.7,0.3,0.7,0.7v13.8&#10;&#9;&#9;C347.6,328.2,347.3,328.5,346.9,328.5C346.9,328.5,346.9,328.5,346.9,328.5z"/>
	<path class="st3_city-48" d="M359.7,328.5c-0.4,0-0.7-0.3-0.7-0.7v0V314c0-0.4,0.3-0.7,0.7-0.7s0.7,0.3,0.7,0.7c0,0,0,0,0,0v13.8&#10;&#9;&#9;C360.4,328.2,360.1,328.5,359.7,328.5C359.7,328.5,359.7,328.5,359.7,328.5z"/>
	<rect x="316.9" y="326.8" class="st0_city-48" width="59.9" height="5.1"/>
	<path class="st3_city-48" d="M376.8,332.7h-59.9c-0.4,0-0.7-0.3-0.7-0.7v0v-5.1c0-0.4,0.3-0.7,0.7-0.7h0h59.9c0.4,0,0.7,0.3,0.7,0.7v0v5.2&#10;&#9;&#9;C377.5,332.4,377.2,332.7,376.8,332.7z M317.6,331.3h58.5v-3.7h-58.5V331.3z"/>
	<rect x="321.8" y="332" class="st0_city-48" width="50.2" height="4.9"/>
	<path class="st3_city-48" d="M372,337.6h-50.2c-0.4,0-0.7-0.3-0.7-0.7v0V332c0-0.4,0.3-0.7,0.7-0.7h0H372c0.4,0,0.7,0.3,0.7,0.7v0v4.9&#10;&#9;&#9;C372.7,337.3,372.4,337.6,372,337.6z M322.5,336.2h48.8v-3.5h-48.8L322.5,336.2z"/>
	<rect x="321.8" y="332" class="st3_city-48" width="50.2" height="4.9"/>
	<rect x="321.8" y="336.9" class="st0_city-48" width="50.2" height="13.8"/>
	<path class="st3_city-48" d="M372,351.4h-50.2c-0.4,0-0.7-0.3-0.7-0.7v0v-13.8c0-0.4,0.3-0.7,0.7-0.7h0H372c0.4,0,0.7,0.3,0.7,0.7v0v13.8&#10;&#9;&#9;C372.7,351.1,372.4,351.4,372,351.4z M322.5,350h48.8v-12.4h-48.8V350z"/>
	<rect x="321.8" y="336.9" class="st2_city-48 targetColor" width="50.2" height="13.8" style="fill: rgb(104, 225, 253);"/>
	<path class="st3_city-48" d="M372,351.4h-50.2c-0.4,0-0.7-0.3-0.7-0.7v0v-13.8c0-0.4,0.3-0.7,0.7-0.7h0H372c0.4,0,0.7,0.3,0.7,0.7v0v13.8&#10;&#9;&#9;C372.7,351.1,372.4,351.4,372,351.4z M322.5,350h48.8v-12.4h-48.8V350z"/>
	<path class="st3_city-48" d="M334.1,351.4c-0.4,0-0.7-0.3-0.7-0.7v0v-13.8c0-0.4,0.3-0.7,0.7-0.7s0.7,0.3,0.7,0.7c0,0,0,0,0,0v13.8&#10;&#9;&#9;C334.8,351.1,334.4,351.4,334.1,351.4z"/>
	<path class="st3_city-48" d="M346.9,351.4c-0.4,0-0.7-0.3-0.7-0.7v0v-13.8c0-0.4,0.3-0.7,0.7-0.7c0.4,0,0.7,0.3,0.7,0.7v13.8&#10;&#9;&#9;C347.6,351.1,347.3,351.4,346.9,351.4z"/>
	<path class="st3_city-48" d="M359.7,351.4c-0.4,0-0.7-0.3-0.7-0.7v0v-13.8c0-0.4,0.3-0.7,0.7-0.7s0.7,0.3,0.7,0.7c0,0,0,0,0,0v13.8&#10;&#9;&#9;C360.4,351.1,360.1,351.4,359.7,351.4z"/>
	<rect x="316.9" y="349.7" class="st0_city-48" width="59.9" height="5.1"/>
	<path class="st3_city-48" d="M376.8,355.5h-59.9c-0.4,0-0.7-0.3-0.7-0.7v0v-5.1c0-0.4,0.3-0.7,0.7-0.7h0h59.9c0.4,0,0.7,0.3,0.7,0.7v0v5.1&#10;&#9;&#9;C377.5,355.2,377.2,355.5,376.8,355.5L376.8,355.5z M317.6,354.1h58.5v-3.7h-58.5V354.1z"/>
	<rect x="321.8" y="354.8" class="st0_city-48" width="50.2" height="4.9"/>
	<path class="st3_city-48" d="M372,360.5h-50.2c-0.4,0-0.7-0.3-0.7-0.7v0v-4.9c0-0.4,0.3-0.7,0.7-0.7h0H372c0.4,0,0.7,0.3,0.7,0.7v0v4.9&#10;&#9;&#9;C372.7,360.1,372.4,360.5,372,360.5L372,360.5z M322.5,359.1h48.8v-3.5h-48.8L322.5,359.1z"/>
	<rect x="321.8" y="354.8" class="st3_city-48" width="50.2" height="4.9"/>
	<rect x="321.8" y="359.8" class="st0_city-48" width="50.2" height="13.8"/>
	<path class="st3_city-48" d="M372,374.3h-50.2c-0.4,0-0.7-0.3-0.7-0.7v0v-13.8c0-0.4,0.3-0.7,0.7-0.7h0H372c0.4,0,0.7,0.3,0.7,0.7v0v13.8&#10;&#9;&#9;C372.7,373.9,372.4,374.3,372,374.3L372,374.3z M322.5,372.9h48.8v-12.4h-48.8L322.5,372.9z"/>
	<rect x="321.8" y="359.8" class="st2_city-48 targetColor" width="50.2" height="13.8" style="fill: rgb(104, 225, 253);"/>
	<path class="st3_city-48" d="M372,374.3h-50.2c-0.4,0-0.7-0.3-0.7-0.7v0v-13.8c0-0.4,0.3-0.7,0.7-0.7h0H372c0.4,0,0.7,0.3,0.7,0.7v0v13.8&#10;&#9;&#9;C372.7,373.9,372.4,374.3,372,374.3L372,374.3z M322.5,372.9h48.8v-12.4h-48.8L322.5,372.9z"/>
	<path class="st3_city-48" d="M334.1,374.3c-0.4,0-0.7-0.3-0.7-0.7v0v-13.8c0-0.4,0.3-0.7,0.7-0.7s0.7,0.3,0.7,0.7c0,0,0,0,0,0v13.8&#10;&#9;&#9;C334.8,373.9,334.4,374.3,334.1,374.3z"/>
	<path class="st3_city-48" d="M346.9,374.3c-0.4,0-0.7-0.3-0.7-0.7v0v-13.8c0-0.4,0.3-0.7,0.7-0.7c0.4,0,0.7,0.3,0.7,0.7v13.8&#10;&#9;&#9;C347.6,373.9,347.3,374.3,346.9,374.3z"/>
	<path class="st3_city-48" d="M359.7,374.3c-0.4,0-0.7-0.3-0.7-0.7v0v-13.8c0-0.4,0.3-0.7,0.7-0.7s0.7,0.3,0.7,0.7c0,0,0,0,0,0v13.8&#10;&#9;&#9;C360.4,373.9,360.1,374.3,359.7,374.3z"/>
	<rect x="316.9" y="372.6" class="st0_city-48" width="59.9" height="5.1"/>
	<path class="st3_city-48" d="M376.8,378.4h-59.9c-0.4,0-0.7-0.3-0.7-0.7v0v-5.1c0-0.4,0.3-0.7,0.7-0.7h0h59.9c0.4,0,0.7,0.3,0.7,0.7v0v5.1&#10;&#9;&#9;C377.5,378.1,377.2,378.4,376.8,378.4C376.8,378.4,376.8,378.4,376.8,378.4z M317.6,377h58.5v-3.7h-58.5V377z"/>
	<rect x="321.8" y="377.7" class="st0_city-48" width="50.2" height="4.9"/>
	<path class="st3_city-48" d="M372,383.3h-50.2c-0.4,0-0.7-0.3-0.7-0.7v0v-4.9c0-0.4,0.3-0.7,0.7-0.7h0H372c0.4,0,0.7,0.3,0.7,0.7v0v4.9&#10;&#9;&#9;C372.7,383,372.4,383.3,372,383.3L372,383.3z M322.5,381.9h48.8v-3.5h-48.8L322.5,381.9z"/>
	<rect x="321.8" y="377.7" class="st3_city-48" width="50.2" height="4.9"/>
	<rect x="321.8" y="382.6" class="st0_city-48" width="50.2" height="13.8"/>
	<path class="st3_city-48" d="M372,397.1h-50.2c-0.4,0-0.7-0.3-0.7-0.7v0v-13.8c0-0.4,0.3-0.7,0.7-0.7h0H372c0.4,0,0.7,0.3,0.7,0.7v0v13.8&#10;&#9;&#9;C372.7,396.8,372.4,397.1,372,397.1L372,397.1z M322.5,395.7h48.8v-12.4h-48.8L322.5,395.7z"/>
	<rect x="321.8" y="382.6" class="st2_city-48 targetColor" width="50.2" height="13.8" style="fill: rgb(104, 225, 253);"/>
	<path class="st3_city-48" d="M372,397.1h-50.2c-0.4,0-0.7-0.3-0.7-0.7v0v-13.8c0-0.4,0.3-0.7,0.7-0.7h0H372c0.4,0,0.7,0.3,0.7,0.7v0v13.8&#10;&#9;&#9;C372.7,396.8,372.4,397.1,372,397.1L372,397.1z M322.5,395.7h48.8v-12.4h-48.8L322.5,395.7z"/>
	<path class="st3_city-48" d="M334.1,397.1c-0.4,0-0.7-0.3-0.7-0.7v0v-13.8c0-0.4,0.3-0.7,0.7-0.7s0.7,0.3,0.7,0.7c0,0,0,0,0,0v13.8&#10;&#9;&#9;C334.8,396.8,334.4,397.1,334.1,397.1z"/>
	<path class="st3_city-48" d="M346.9,397.1c-0.4,0-0.7-0.3-0.7-0.7v0v-13.8c0-0.4,0.3-0.7,0.7-0.7c0.4,0,0.7,0.3,0.7,0.7v13.8&#10;&#9;&#9;C347.6,396.8,347.3,397.1,346.9,397.1z"/>
	<path class="st3_city-48" d="M359.7,397.1c-0.4,0-0.7-0.3-0.7-0.7v-13.8c0-0.4,0.3-0.7,0.7-0.7s0.7,0.3,0.7,0.7c0,0,0,0,0,0v13.8&#10;&#9;&#9;C360.4,396.8,360.1,397.1,359.7,397.1z"/>
</g>
<g id="LInes_city-48">
	<path class="st3_city-48" d="M139.2,398.1c-70.5,0-124,0-125.6-0.2c-0.4-0.1-0.6-0.4-0.6-0.8c0.1-0.3,0.4-0.6,0.7-0.6&#10;&#9;&#9;c4.7,0.4,467.9,0,472.6,0l0,0c0.4,0,0.7,0.3,0.7,0.7c0,0.4-0.3,0.7-0.7,0.7C473.8,397.9,275,398.1,139.2,398.1z"/>
</g>
</svg>