<svg version="1.1" id="Layer_1" xmlns="http://www.w3.org/2000/svg" xmlns:xlink="http://www.w3.org/1999/xlink" x="0px" y="0px" viewBox="0 0 500 500" style="width: 188px;" xml:space="preserve" data-imageid="click-here-45" imageName="Click Here" class="illustrations_image">
<style type="text/css">
	.st0_click-here-45{fill:#FFFFFF;}
	.st1_click-here-45{fill:#231F20;}
	.st2_click-here-45{fill:#D1D3D4;}
	.st3_click-here-45{fill:#68E1FD;}
	.st4_click-here-45{fill:none;}
</style>
<g id="Screen_click-here-45">
	<path class="st0_click-here-45" d="M60.2,149.3h337.3l0,0v200.6c0,2.8-2.3,5.1-5.1,5.1h-327c-2.8,0-5.1-2.3-5.1-5.1L60.2,149.3L60.2,149.3z"/>
	<path class="st1_click-here-45" d="M390.3,355.7H67.4c-4.3,0-7.8-3.5-7.8-7.8V149.3c0-0.4,0.3-0.6,0.6-0.6h337.3c0.4,0,0.6,0.3,0.6,0.6v0v198.6&#10;&#9;&#9;C398.1,352.2,394.6,355.7,390.3,355.7z M60.8,149.9v197.9c0,3.6,2.9,6.5,6.5,6.5h322.9c3.6,0,6.5-2.9,6.5-6.5V149.9H60.8z"/>
	<path class="st0_click-here-45" d="M65.3,128.1h327c2.8,0,5.1,2.3,5.1,5.1v16.1l0,0H60.2l0,0v-16.1C60.2,130.4,62.5,128.1,65.3,128.1z"/>
	<path class="st1_click-here-45" d="M397.5,149.9H60.2c-0.3,0-0.6-0.3-0.6-0.6c0,0,0,0,0,0v-14c0-4.3,3.5-7.8,7.8-7.8h322.9c4.3,0,7.8,3.5,7.8,7.8&#10;&#9;&#9;v14C398.1,149.6,397.8,149.9,397.5,149.9z M60.8,148.6h336v-13.4c0-3.6-2.9-6.5-6.5-6.5H67.4c-3.6,0-6.5,2.9-6.5,6.5L60.8,148.6z"/>
	<circle class="st2_click-here-45" cx="71.6" cy="138.7" r="2.9"/>
	<circle class="st2_click-here-45" cx="86.4" cy="138.7" r="2.9"/>
	<circle class="st2_click-here-45" cx="101.3" cy="138.7" r="2.9"/>
</g>
<g id="Button_click-here-45">
	<path class="st1_click-here-45" d="M110.5,222.5h239.9c9.3,0,16.8,7.5,16.8,16.8v30.2c0,9.3-7.5,16.8-16.8,16.8H110.5c-9.3,0-16.8-7.5-16.8-16.8&#10;&#9;&#9;v-30.2C93.6,230.1,101.2,222.5,110.5,222.5z"/>
	<path class="st3_click-here-45 targetColor" d="M107.3,217.9h239.9c9.3,0,16.8,7.5,16.8,16.8v30.2c0,9.3-7.5,16.8-16.8,16.8H107.3c-9.3,0-16.8-7.5-16.8-16.8&#10;&#9;&#9;v-30.2C90.5,225.4,98,217.9,107.3,217.9z" style="fill: rgb(104, 225, 253);"/>
	<path class="st1_click-here-45" d="M340.5,282.4H114.1c-13.4,0-24.2-10.9-24.2-24.2v-16.7c0-13.4,10.9-24.2,24.2-24.2h226.4&#10;&#9;&#9;c13.4,0,24.2,10.9,24.2,24.2v16.7C364.7,271.6,353.8,282.4,340.5,282.4z M114.1,218.5c-12.7,0-22.9,10.3-22.9,22.9v16.7&#10;&#9;&#9;c0,12.7,10.3,22.9,22.9,22.9h226.4c12.7,0,22.9-10.3,22.9-22.9v-16.7c0-12.7-10.3-22.9-22.9-22.9H114.1z"/>
	<path class="st0_click-here-45" d="M122.7,249.8c0-7.4,4.8-12.8,11.4-12.8c5.1-0.2,9.5,3.5,10.3,8.5l-4.5,1.2c-0.8-3.2-2.9-5.1-5.8-5.1&#10;&#9;&#9;c-4,0-6.7,3.3-6.7,8.1s2.7,8.1,6.7,8.1c3.1,0,5.3-2,5.9-5.5l4.5,1.2c-0.9,5.6-5,9-10.4,9C127.5,262.6,122.7,257.3,122.7,249.8z"/>
	<path class="st0_click-here-45" d="M149.6,237.6h4.8v19.8h11.3v4.7h-16L149.6,237.6z"/>
	<path class="st0_click-here-45" d="M170.9,237.6h4.8v24.5h-4.8V237.6z"/>
	<path class="st0_click-here-45" d="M181,249.8c0-7.4,4.8-12.8,11.4-12.8c5.1-0.2,9.5,3.5,10.3,8.5l-4.5,1.2c-0.8-3.2-2.9-5.1-5.8-5.1&#10;&#9;&#9;c-4,0-6.7,3.3-6.7,8.1s2.7,8.1,6.7,8.1c3,0,5.3-2,5.9-5.5l4.5,1.2c-0.9,5.6-5,9-10.4,9C185.8,262.6,181,257.3,181,249.8z"/>
	<path class="st0_click-here-45" d="M207.9,237.6h4.7v10.8h0.1l8.9-10.8h6.5l-9,10.5l9.1,14h-5.8l-6.4-10.5h-0.1l-3.3,4v6.5h-4.7L207.9,237.6z"/>
	<path class="st0_click-here-45" d="M242.7,237.6h4.8v9.6h9.9v-9.6h4.8v24.5h-4.8V252h-9.9v10h-4.8L242.7,237.6z"/>
	<path class="st0_click-here-45" d="M268.8,237.6h16.4v4.7h-11.7v5.1h10.5v4.4h-10.5v5.5h11.6v4.7h-16.4V237.6z"/>
	<path class="st0_click-here-45" d="M304.6,253l5.3,9.1h-5.4l-5-8.9h-3.8v8.9H291v-24.5h11.5c4.8,0,7.8,3,7.8,7.8&#10;&#9;&#9;C310.2,249.4,308.1,252.1,304.6,253L304.6,253z M301.9,248.5c2.2,0,3.5-1.1,3.5-3.2s-1.1-3-3.5-3h-6.2v6.2L301.9,248.5z"/>
	<path class="st0_click-here-45" d="M315.4,237.6h16.4v4.7h-11.7v5.1h10.6v4.4h-10.6v5.5h11.6v4.7h-16.4V237.6z"/>
	<path class="st0_click-here-45" d="M254,223.2H122.7c-0.4,0-0.7-0.3-0.7-0.7c0-0.4,0.3-0.7,0.7-0.7H254c0.4,0,0.7,0.3,0.7,0.7&#10;&#9;&#9;C254.7,222.9,254.4,223.2,254,223.2z"/>
	<path class="st0_click-here-45" d="M280,223.2h-11.2c-0.4,0-0.7-0.3-0.7-0.7c0-0.4,0.3-0.7,0.7-0.7H280c0.4,0,0.7,0.3,0.7,0.7&#10;&#9;&#9;C280.7,222.9,280.4,223.2,280,223.2z"/>
</g>
<g id="Hand_click-here-45">
	<path class="st0_click-here-45" d="M386.6,341.7c0,0-43.3-37-44.8-43.3c-2.1-8.9,9.8-7,26,7.8c0,0-24.6-52.1-25.9-57.3c-1.6-6.5,4.1-10,8.1-3.9&#10;&#9;&#9;c3,4.7,20.2,30.5,20.2,30.5s0.8-5.3,6.2-5.6s6.7,2.5,6.7,2.5s0.5-4.9,5.4-4.8s7.7,4.7,7.7,4.7s1.8-7,7.2-5.4s11.2,13.7,13.6,22.2&#10;&#9;&#9;s6.7,35.2,6.7,35.2L386.6,341.7z"/>
	<path class="st1_click-here-45" d="M386.6,342.3c-0.2,0-0.3-0.1-0.4-0.1c-1.8-1.5-43.5-37.3-45-43.6c-0.8-3.4,0.4-4.9,1.5-5.5&#10;&#9;&#9;c3.9-2.3,13,1.9,23.2,10.6c-5.2-11-23.5-50.1-24.6-54.6c-1-4,0.6-6.7,2.6-7.5c1.8-0.8,4.4-0.3,6.7,3.1c2.6,4.1,16.1,24.3,19.4,29.4&#10;&#9;&#9;c0.9-2.7,3.5-4.6,6.4-4.7c3.5-0.2,5.4,0.9,6.4,1.8c0.8-2.5,3.1-4.1,5.7-4c3.7,0,6.3,2.5,7.5,4c0.6-1.7,1.8-3.2,3.4-4.2&#10;&#9;&#9;c1.3-0.7,2.9-0.9,4.3-0.4c5.9,1.8,11.7,14.3,14,22.6s6.7,35,6.7,35.3c0,0.3-0.1,0.6-0.4,0.7l-37.1,17.3&#10;&#9;&#9;C386.8,342.3,386.7,342.3,386.6,342.3z M345.3,293.7c-0.7,0-1.4,0.1-2,0.4c-1.4,0.8-1.2,2.7-0.9,4.1c1.2,4.9,32,32.2,44.3,42.7&#10;&#9;&#9;L423,324c-0.6-3.6-4.5-26.9-6.6-34.7c-2.6-9.3-8.4-20.3-13.2-21.8c-1.1-0.4-2.3-0.3-3.3,0.3c-2.3,1.3-3.2,4.6-3.2,4.6&#10;&#9;&#9;c-0.1,0.2-0.3,0.4-0.5,0.5c-0.2,0-0.5-0.1-0.6-0.3c0,0-2.8-4.3-7.1-4.4h-0.1c-4.1,0-4.6,4.1-4.6,4.2c0,0.4-0.4,0.6-0.7,0.5&#10;&#9;&#9;c-0.2,0-0.4-0.2-0.5-0.4c0-0.1-1.3-2.4-6.1-2.2c-2.8,0.2-5.1,2.3-5.6,5.1c0,0.3-0.2,0.5-0.5,0.5c-0.3,0.1-0.5-0.1-0.7-0.3&#10;&#9;&#9;c-0.2-0.3-17.2-25.9-20.2-30.5c-1.5-2.3-3.5-3.4-5.1-2.7c-1.5,0.6-2.6,2.8-1.8,6.1c1.3,5.1,25.6,56.7,25.9,57.2&#10;&#9;&#9;c0.1,0.3,0,0.7-0.3,0.8c-0.2,0.1-0.5,0.1-0.7-0.1C357.6,297.7,349.5,293.7,345.3,293.7z"/>
	<line class="st4_click-here-45" x1="383.1" y1="272.4" x2="392.8" y2="288"/>
	<path class="st1_click-here-45" d="M392.8,288.6c-0.2,0-0.4-0.1-0.5-0.3l-9.7-15.6c-0.2-0.3-0.1-0.7,0.2-0.9c0.3-0.2,0.7-0.1,0.9,0.2c0,0,0,0,0,0&#10;&#9;&#9;l9.7,15.6c0.2,0.3,0.1,0.7-0.2,0.9C393,288.6,392.9,288.6,392.8,288.6z"/>
	<line class="st4_click-here-45" x1="396.1" y1="272.3" x2="402.6" y2="284.1"/>
	<path class="st1_click-here-45" d="M402.6,284.7c-0.2,0-0.4-0.1-0.6-0.3l-6.5-11.8c-0.2-0.3-0.1-0.7,0.2-0.9s0.7-0.1,0.9,0.2l6.5,11.8&#10;&#9;&#9;c0.2,0.3,0.1,0.7-0.2,0.9c0,0,0,0,0,0C402.8,284.7,402.7,284.7,402.6,284.7z"/>
	<line class="st4_click-here-45" x1="370.2" y1="275.5" x2="381.8" y2="293.4"/>
	<path class="st1_click-here-45" d="M381.8,294c-0.2,0-0.4-0.1-0.5-0.3l-11.6-18c-0.2-0.3-0.2-0.7,0.1-0.9s0.7-0.2,0.9,0.1c0,0,0.1,0.1,0.1,0.1&#10;&#9;&#9;l11.6,18c0.2,0.3,0.1,0.7-0.2,0.9C382,293.9,381.9,294,381.8,294z"/>
	<polygon class="st1_click-here-45" points="386.6,341.7 399.5,371.9 439.8,353 423.7,324.3 &#9;"/>
	<path class="st1_click-here-45" d="M399.5,372.6c-0.1,0-0.1,0-0.2,0c-0.2-0.1-0.3-0.2-0.4-0.4L386,341.9c-0.1-0.3,0-0.7,0.3-0.8l37.1-17.4&#10;&#9;&#9;c0.3-0.1,0.7,0,0.8,0.3l16.1,28.7c0.1,0.2,0.1,0.3,0,0.5c0,0.2-0.2,0.3-0.3,0.4l-40.3,18.9C399.7,372.6,399.6,372.6,399.5,372.6z&#10;&#9;&#9; M387.5,342l12.4,29.1l39.1-18.4l-15.5-27.6L387.5,342z"/>
</g>
<g id="Line_click-here-45">
	<path class="st2_click-here-45" d="M333.3,204c-0.3,0-0.6-0.3-0.7-0.6l-2.6-18.7c-0.1-0.4,0.2-0.7,0.6-0.8s0.7,0.2,0.8,0.6l2.6,18.7&#10;&#9;&#9;c0.1,0.4-0.2,0.7-0.6,0.8c0,0,0,0,0,0L333.3,204z"/>
	<path class="st2_click-here-45" d="M352.6,208c-0.4,0-0.7-0.3-0.7-0.7c0-0.1,0-0.2,0.1-0.3l11.4-22.7c0.2-0.3,0.6-0.5,0.9-0.3&#10;&#9;&#9;c0.3,0.2,0.5,0.6,0.3,0.9l-11.4,22.7C353.1,207.9,352.9,208,352.6,208z"/>
	<path class="st2_click-here-45" d="M367.2,215.9c-0.4,0-0.7-0.3-0.7-0.7c0-0.3,0.1-0.5,0.4-0.6l14.2-7.9c0.3-0.2,0.8-0.1,1,0.2&#10;&#9;&#9;c0.2,0.3,0.1,0.8-0.2,1c0,0-0.1,0-0.1,0l-14.2,7.9C367.4,215.8,367.3,215.9,367.2,215.9z"/>
	<path class="st2_click-here-45" d="M374.9,231c-0.4,0-0.7-0.3-0.7-0.7c0-0.4,0.3-0.7,0.7-0.7l0,0l10-1c0.4,0,0.7,0.2,0.8,0.6&#10;&#9;&#9;c0,0.4-0.2,0.7-0.6,0.8L374.9,231L374.9,231z"/>
	<path class="st2_click-here-45" d="M314.9,204c-0.2,0-0.5-0.1-0.6-0.3l-6-9.1c-0.2-0.3-0.2-0.7,0.1-1s0.7-0.2,1,0.1c0,0,0.1,0.1,0.1,0.1l6,9.1&#10;&#9;&#9;c0.2,0.3,0.2,0.8-0.2,1c0,0,0,0,0,0C315.2,204,315.1,204,314.9,204z"/>
</g>
</svg>