<svg version="1.1" id="Layer_1" xmlns="http://www.w3.org/2000/svg" xmlns:xlink="http://www.w3.org/1999/xlink" x="0px" y="0px" viewBox="0 0 500 500" style="width: 188px;" xml:space="preserve" data-imageid="coding-3-4" imageName="Coding 3" class="illustrations_image">
<style type="text/css">
	.st0_coding-3-4{fill:#007F68;}
	.st1_coding-3-4{fill:#68E1FD;}
	.st2_coding-3-4{fill:#FFFFFF;}
	.st3_coding-3-4{fill:#172D51;}
	.st4_coding-3-4{opacity:0.1;fill:#172D51;enable-background:new    ;}
	.st5_coding-3-4{fill:#FA6D90;}
	.st6_coding-3-4{opacity:0.5;fill:#172D51;enable-background:new    ;}
	.st7_coding-3-4{fill:#FFB5A9;}
	.st8_coding-3-4{fill:#3E2928;}
	.st9_coding-3-4{fill:#00A99D;}
	.st10_coding-3-4{fill:#F7931E;}
	.st11_coding-3-4{fill:#139E20;}
</style>
<g id="laptop_coding-3-4">
	<path id="Base_coding-3-4" class="st0_coding-3-4" d="M30.1,259.3L207,156.4c2.6-1.5,5.8-1.5,8.4,0l264.5,151.4c4,2.3,5.4,7.4,3.1,11.4&#10;&#9;&#9;c-0.7,1.3-1.8,2.3-3.1,3.1L310.7,420c-8.4,4.9-18.9,4.9-27.3,0L30.1,273.8c-4-2.3-5.4-7.4-3.1-11.4C27.8,261.1,28.8,260,30.1,259.3&#10;&#9;&#9;z"/>
	<polyline class="st1_coding-3-4 targetColor" points="124.3,276.2 124.3,280.5 126.5,283.1 &#9;" style="fill: rgb(104, 225, 253);"/>
	<path class="st1_coding-3-4 targetColor" d="M210.6,223.9l-83.8,51.9c-2.4,1.5-3.2,4.7-1.7,7.1c0.5,0.7,1.1,1.4,1.9,1.8l127.2,71.9c3.6,2,8.1,2,11.6-0.1&#10;&#9;&#9;l83.4-49c6.1-5,5.6-14.4,0-14.8l-126.4-69.1C218.9,221.6,214.3,221.6,210.6,223.9z" style="fill: rgb(104, 225, 253);"/>
	<path class="st2_coding-3-4" d="M210.6,220.4l-83.8,51.9c-2.4,1.5-3.2,4.7-1.7,7.1c0.5,0.7,1.1,1.4,1.9,1.8l127.2,71.9c3.6,2,8,2,11.6-0.1&#10;&#9;&#9;l83.4-49c3.1-1.8,4.1-5.8,2.3-8.8c-0.6-1-1.4-1.8-2.3-2.3l-126.4-72.7C218.9,218,214.3,218.1,210.6,220.4z"/>
	<path class="st1_coding-3-4 targetColor" d="M214,213.2c0,0,34.8-112.2,34.6-112.2s1.1-5,7.3-2.2l133.5,78.6c0,0,6.5,2.6,5.2,8.6s-34,109.9-34,109.9&#10;&#9;&#9;c-1.4,2-4,2.9-6.3,2.2c-4.1-1.3-137.2-78.6-137.2-78.6S212.7,217.9,214,213.2z" style="fill: rgb(104, 225, 253);"/>
	<polygon class="st3_coding-3-4" points="250.8,109.1 387.5,188.8 359.2,284.1 220.7,206.7 &#9;"/>
	<path class="st1_coding-3-4 targetColor" d="M205.4,232.2l-30.6,19.1c-1.7,1.1-2.3,3.4-1.2,5.1c0.3,0.5,0.8,0.9,1.3,1.3l110,62.7c3.4,1.9,7.5,1.9,10.8,0&#10;&#9;&#9;c7.1-4.1,19.2-11.5,26.7-16.1c2.1-1.3,2.8-4.1,1.5-6.2c-0.4-0.6-0.9-1.2-1.6-1.6c-22.2-12.9-94.8-55.1-110.7-64.4&#10;&#9;&#9;C209.7,231,207.3,231.1,205.4,232.2z" style="fill: rgb(104, 225, 253);"/>
	<path class="st1_coding-3-4 targetColor" d="M207.1,284.1l38.4,21.6c1.8,1,2.5,3.4,1.5,5.2c-0.3,0.6-0.8,1.1-1.4,1.4L223,325.5c-1.6,0.9-3.5,0.9-5.1,0&#10;&#9;&#9;l-39.3-22.4c-1.5-0.9-2.1-2.9-1.2-4.4c0.3-0.5,0.7-0.9,1.2-1.2l23.5-13.5C203.6,283.2,205.5,283.2,207.1,284.1z" style="fill: rgb(104, 225, 253);"/>
	<path class="st4_coding-3-4" d="M205.4,232.2l-30.6,19.1c-1.7,1.1-2.3,3.4-1.2,5.1c0.3,0.5,0.8,0.9,1.3,1.3l110,62.7c3.4,1.9,7.5,1.9,10.8,0&#10;&#9;&#9;c7.1-4.1,19.2-11.5,26.7-16.1c2.1-1.3,2.8-4.1,1.5-6.2c-0.4-0.6-0.9-1.2-1.6-1.6c-22.2-12.9-94.8-55.1-110.7-64.4&#10;&#9;&#9;C209.7,231,207.3,231.1,205.4,232.2z"/>
	<path class="st4_coding-3-4" d="M207.1,284.1l38.4,21.6c1.8,1,2.5,3.4,1.5,5.2c-0.3,0.6-0.8,1.1-1.4,1.4L223,325.5c-1.6,0.9-3.5,0.9-5.1,0&#10;&#9;&#9;l-39.3-22.4c-1.5-0.9-2.1-2.9-1.2-4.4c0.3-0.5,0.7-0.9,1.2-1.2l23.5-13.5C203.6,283.2,205.5,283.2,207.1,284.1z"/>
</g>
<g id="Character_coding-3-4">
	<path class="st5_coding-3-4" d="M178.5,288.3c-2.9-7.4-4-15.6-4.4-23.8c-0.4-10.4,3.4-26.3,18.5-25.2c21.3,1.4,28.8,24.6,40.2,30.9&#10;&#9;&#9;s37.2-4.1,38.9,5.5c1.7,9.8-2.9,21.1-9.6,28.1c-16.1,16.9-48,15.6-67,4.6C186.8,303.6,181.6,296.5,178.5,288.3z"/>
	<path class="st6_coding-3-4" d="M253.6,305.6c-34.8,4.7-76.9-17.9-78.6-52.3c-0.8,5.1-1.1,7-1,10.8c0.3,8.2,1.5,16.4,4.4,23.8&#10;&#9;&#9;c3.1,8.2,8.3,15.3,16.6,20.2c18.8,10.9,50.3,12.3,66.5-4.1C258.9,304.7,256.3,305.3,253.6,305.6z"/>
	<path class="st7_coding-3-4" d="M267.7,229.8c0-1.2-0.6-2.3-1.6-3c-0.1-1-0.7-1.9-1.6-2.3c-0.1,0-0.1-0.1-0.2-0.1c0.8-1.5,1.4-3,1.9-4.6&#10;&#9;&#9;c0-0.7-0.6-1.2-1.3-1.2c-0.5,0-0.9,0.3-1.1,0.7c-0.7,2-1.7,4-2.8,5.8c-0.1-0.1-0.2-0.1-0.3-0.1c-1.4-0.2-2.7-0.5-3.2,1.1&#10;&#9;&#9;s-0.9,3.2-1.3,4.8c-0.1,0.5,0.2,1.1,0.7,1.2c0,0,0,0,0.1,0c0.2,0.6,0.8,0.9,1.4,0.7c0.1,0.2,0.2,0.4,0.3,0.6l-0.1,0.1&#10;&#9;&#9;c-0.4,0.5-0.3,1.2,0.2,1.5c0.2,0.1,0.4,0.2,0.7,0.2c-0.9,0.6-0.4,2.2,0.8,1.8c2.2-0.8,5.3-1.4,7-3.1&#10;&#9;&#9;C268.6,232.9,268.7,231,267.7,229.8z"/>
	<path class="st7_coding-3-4" d="M261,233.1L261,233.1c0.4-0.6,0.2-1.3-0.4-1.7c-0.1,0-0.2-0.1-0.2-0.1l0.2-0.3c0.4-0.6,0.2-1.4-0.5-1.8&#10;&#9;&#9;c-0.3-0.2-0.7-0.2-1.1-0.1c-0.4-0.6-1.2-0.7-1.7-0.3c-0.2,0.1-0.3,0.3-0.4,0.4c-1.4,2.4-2.9,4.8-4.7,7c-0.3,0.4-0.4,1-0.1,1.5&#10;&#9;&#9;l-0.3,0.5c-0.4,0.5-0.3,1.2,0.3,1.6c0.1,0.1,0.2,0.1,0.3,0.2c0.2,0.3,0.5,0.5,0.8,0.6c-0.4,0.9,0.5,1.6,1.4,1.6&#10;&#9;&#9;c0.4,0.6,1.1,0.7,1.7,0.3c0.1-0.1,0.1-0.1,0.2-0.2c2.1-2.2,3.8-4.7,5-7.5C261.7,234.1,261.5,233.5,261,233.1z"/>
	<path class="st8_coding-3-4" d="M250.6,275.9c5.4-5,11.4-12.1,7.6-17.7c-6.2-9.3-23.1,1.5-25.9,2.1c-12.1,2.6-37.2,31.4-14.6,30.3&#10;&#9;&#9;c10.3-0.4,20.2-4.2,28.2-10.6C247.2,278.9,248.8,277.5,250.6,275.9z"/>
	<path class="st8_coding-3-4" d="M250.4,275.8c0.2-0.5,0.5-0.9,1-1.2c2.1-1.2,4.5-2,6.9-2.4c0.8-0.2,1.5,0,2.1,0.6l0,0c1-9-2.2-14.5-2.2-14.5&#10;&#9;&#9;l-8.4,18.2C250,276.2,250.2,276,250.4,275.8z"/>
	<path class="st9_coding-3-4" d="M254.3,232.4c-0.3-0.1-0.6-0.2-0.8-0.4l-12.7,11.1c-2.8-4.4-4.4-9.4-4.7-14.6c-0.5-8.6-16.9-10-16.9-10l7,29.1&#10;&#9;&#9;c0,0,4.7,11.7,12.6,12.7c6.2,0.8,19-12.1,24.2-19.5C261,237.2,258.5,233.8,254.3,232.4z"/>
	<path class="st0_coding-3-4" d="M211.6,208.8c-5.8,5-10.3,11.5-12.8,18.8c-4.5,12.4,6.8,32.8,6.8,32.8l17.5-13.8"/>
	<path class="st8_coding-3-4" d="M197.8,276.6c-0.1,2.5,0.5,4.9,1.8,7c1.6,2.6,4.1,4.5,7,5.5c3.6,1.2,7.4,1.7,11.2,1.5&#10;&#9;&#9;c7.8-0.5,14.6-4.1,20.3-9.1c-1.1-13.8-5-23.4-8.3-28.1l-21.3-10.2c0.1,0.1-4.1,8.5-4.3,9c-2.2,5.1-3.8,10.4-5,15.8&#10;&#9;&#9;C198.4,270.8,198,273.7,197.8,276.6z"/>
	<path class="st9_coding-3-4" d="M229.3,229.6l-22.4-1l-5.6,29.6c6.7,4.6,27,2.8,31,2.1C231.1,251.4,230.2,238.6,229.3,229.6z"/>
	<path class="st10_coding-3-4" d="M229.5,216.7c3.7-4.8,4.7-10.9,3.9-16.8s-4.1-10.8-10.4-11.9c-9.8-1.6-16.9,6.6-16.7,15.9&#10;&#9;&#9;c0.1,5.1,0.6,8.6-3.1,10.8s-6.5,7.8-2.9,12.4s0.4,2.9-2,7s-1.8,9.1,3.2,10.9s28-1.6,30.1-3.8c0.7-0.9,1.1-2,1.1-3.1&#10;&#9;&#9;c-0.4-3-2.1-5.2-4.4-7.2c-1.9-1.6-3.4-3.5-4.5-5.7C221.7,221.4,227.4,219.5,229.5,216.7z"/>
</g>
<g id="Code_1_coding-3-4">
	<polyline class="st10_coding-3-4" points="389.9,243.1 398.1,239 397.1,244.9 392.1,246.4 &#9;"/>
	<polygon class="st10_coding-3-4" points="424.7,330.6 431.5,327.3 426.5,324.5 &#9;"/>
	<polygon class="st6_coding-3-4" points="424.7,330.6 431.5,327.3 426.5,324.5 &#9;"/>
	<polyline class="st6_coding-3-4" points="389.9,243.1 398.1,239 397.1,244.9 392.1,246.4 &#9;"/>
	<path class="st10_coding-3-4" d="M434.7,323.5l15.5-52c0.8-2.8-0.4-5.8-2.9-7.2l-43.5-25c-3-1.7-6.8-0.7-8.5,2.3c-0.3,0.5-0.5,1-0.6,1.6&#10;&#9;&#9;l-13.8,53.6c-0.7,2.7,0.5,5.6,3,7l41.9,23.4c3,1.7,6.8,0.6,8.5-2.4C434.4,324.3,434.6,323.9,434.7,323.5z"/>
	<path class="st6_coding-3-4" d="M434.7,323.5l15.5-52c0.8-2.8-0.4-5.8-2.9-7.2l-43.5-25c-3-1.7-6.8-0.7-8.5,2.3c-0.3,0.5-0.5,1-0.6,1.6&#10;&#9;&#9;l-13.8,53.6c-0.7,2.7,0.5,5.6,3,7l41.9,23.4c3,1.7,6.8,0.6,8.5-2.4C434.4,324.3,434.6,323.9,434.7,323.5z"/>
	<path class="st10_coding-3-4" d="M427.4,327.1l15.5-52c0.8-2.8-0.4-5.8-2.9-7.2l-43.5-25c-3-1.7-6.8-0.7-8.5,2.3c-0.3,0.5-0.5,1-0.6,1.5&#10;&#9;&#9;l-13.8,53.6c-0.7,2.7,0.5,5.6,3,7l41.9,23.4c3,1.7,6.8,0.6,8.5-2.4C427.1,328,427.3,327.6,427.4,327.1z"/>
	<polygon class="st2_coding-3-4" points="403.8,276.7 402.3,281.3 392.1,281.9 399.4,289.9 397.9,294.5 385.8,281.1 386.9,277.9 &#9;"/>
	<polygon class="st2_coding-3-4" points="418.6,282.9 430.7,296.4 429.6,299.6 412.6,300.8 414.2,296.2 424.4,295.6 417.1,287.6 &#9;"/>
	<polygon class="st2_coding-3-4" points="414.9,277.7 418,279 402.4,300.1 399.3,298.8 &#9;"/>
</g>
<g id="Line_of_Code_coding-3-4">
	<polygon class="st10_coding-3-4" points="292.5,150.2 292.5,153.7 263.1,136.7 263.1,133.2 &#9;"/>
	<path class="st9_coding-3-4" d="M376.9,199l-81.5-47.1v3.5l80.9,47C376.4,201.3,376.6,200.1,376.9,199z"/>
	<path class="st11_coding-3-4" d="M375,209.3l-9.9-5.7v3.7l9.3,5.4C374.6,211.6,374.8,210.4,375,209.3z"/>
	<polygon class="st10_coding-3-4" points="362.2,201.9 362.2,205.6 315.9,178.7 315.9,175.2 &#9;"/>
	<polygon class="st5_coding-3-4" points="313,173.5 313,177 282.7,159.4 282.7,156 &#9;"/>
	<polygon class="st11_coding-3-4" points="279.8,154.3 279.8,157.8 263.1,148.1 263.1,144.7 &#9;"/>
	<path class="st9_coding-3-4" d="M373,219.5l-78.6-45.4v3.5l77.8,45.2C372.5,221.7,372.8,220.6,373,219.5z"/>
	<polygon class="st10_coding-3-4" points="282.8,180.3 282.8,183.8 253.5,166.8 253.5,163.4 &#9;"/>
	<path class="st9_coding-3-4" d="M367.2,229.1L285.7,182v3.5l80.9,47C366.8,231.4,367,230.2,367.2,229.1z"/>
	<path class="st11_coding-3-4" d="M365.3,239.4l-9.9-5.7v3.7l9.3,5.4C364.9,241.7,365.1,240.6,365.3,239.4z"/>
	<polygon class="st10_coding-3-4" points="352.5,232 352.5,235.8 306.3,208.9 306.3,205.3 &#9;"/>
	<polygon class="st5_coding-3-4" points="303.3,203.6 303.3,207.2 273.1,189.6 273.1,186.1 &#9;"/>
	<polygon class="st11_coding-3-4" points="270.2,184.4 270.2,187.9 253.5,178.2 253.5,174.8 &#9;"/>
	<path class="st9_coding-3-4" d="M363.4,249.6l-78.6-45.4v3.5l77.8,45.3C362.9,251.8,363.1,250.7,363.4,249.6z"/>
</g>
<g id="Code_2_coding-3-4">
	<polygon class="st11_coding-3-4" points="241.3,158.2 246.9,155.4 242.8,153.1 &#9;"/>
	<polyline class="st11_coding-3-4" points="212.3,85.5 219.1,82.1 218.3,86.9 214.1,88.2 &#9;"/>
	<polygon class="st6_coding-3-4" points="241.3,158.2 246.9,155.4 242.8,153.1 &#9;"/>
	<polyline class="st6_coding-3-4" points="212.3,85.5 219.1,82.1 218.3,86.9 214.1,88.2 &#9;"/>
	<path class="st11_coding-3-4" d="M249.6,152.3l12.9-43.2c0.7-2.3-0.3-4.8-2.4-6l-36.2-20.8c-2.5-1.4-5.7-0.6-7.1,1.9c-0.2,0.4-0.4,0.8-0.5,1.3&#10;&#9;&#9;l-11.5,44.6c-0.6,2.3,0.4,4.7,2.5,5.8l34.8,19.4c2.5,1.4,5.7,0.6,7.1-1.9C249.3,153,249.4,152.7,249.6,152.3z"/>
	<path class="st6_coding-3-4" d="M249.6,152.3l12.9-43.2c0.7-2.3-0.3-4.8-2.4-6l-36.2-20.8c-2.5-1.4-5.7-0.6-7.1,1.9c-0.2,0.4-0.4,0.8-0.5,1.3&#10;&#9;&#9;l-11.5,44.6c-0.6,2.3,0.4,4.7,2.5,5.8l34.8,19.4c2.5,1.4,5.7,0.6,7.1-1.9C249.3,153,249.4,152.7,249.6,152.3z"/>
	<path class="st11_coding-3-4" d="M243.5,155.3l12.9-43.2c0.7-2.3-0.3-4.8-2.4-6l-36.2-20.8c-2.5-1.4-5.7-0.6-7.1,1.9c-0.2,0.4-0.4,0.9-0.5,1.3&#10;&#9;&#9;l-11.5,44.6c-0.6,2.3,0.4,4.7,2.5,5.8l34.8,19.4c2.5,1.4,5.7,0.5,7.1-2C243.2,156,243.4,155.6,243.5,155.3z"/>
	<path class="st2_coding-3-4" d="M243.1,112.3c1.4,0.7,2.6,1.9,3.2,3.3c0.6,1.6,0.6,3.3,0,4.8l-1.8,5.6c-0.2,0.6-0.2,1.2,0,1.8&#10;&#9;&#9;c0.2,0.6,0.7,1,1.2,1.3l-1.1,3.6c-0.5-0.3-1.1-0.4-1.6-0.2c-0.5,0.3-0.9,0.7-1,1.3l-1.8,5.6c-0.3,1.5-1.2,2.8-2.6,3.5&#10;&#9;&#9;c-1.4,0.5-2.9,0.3-4.1-0.4l-2.2-1.2l1.2-3.9l1.5,0.8c0.4,0.3,1,0.3,1.4,0.1c0.5-0.2,0.9-0.7,1-1.2l1.7-5.4c0.2-0.6,0.4-1.1,0.7-1.6&#10;&#9;&#9;c0.2-0.3,0.5-0.6,0.8-0.9c0.2-0.1,0.5-0.3,0.8-0.3c0.2-0.1,0.4-0.1,0.6-0.1h0.2l-0.2-0.2c-0.1-0.2-0.3-0.4-0.4-0.6&#10;&#9;&#9;c-0.2-0.3-0.3-0.6-0.4-1c-0.1-0.4-0.1-0.9-0.1-1.3c0-0.6,0.1-1.2,0.3-1.8l1.7-5.3c0.2-0.6,0.2-1.2,0-1.8c-0.2-0.5-0.6-1-1.1-1.2&#10;&#9;&#9;l-1.5-0.8l1.2-3.9L243.1,112.3z"/>
	<polygon class="st2_coding-3-4" points="237,117.5 229.9,123.1 232.2,133.8 227.9,131.6 226.4,124.9 221.7,128.3 217.4,126.1 224.9,120.4 &#10;&#9;&#9;222.8,110.1 227.2,112.4 228.4,118.6 232.6,115.2 &#9;"/>
	<path class="st2_coding-3-4" d="M223.7,102.2l-1.2,4l-1.5-0.8c-0.4-0.3-1-0.3-1.4-0.1c-0.5,0.2-0.9,0.7-1,1.2l-1.7,5.3&#10;&#9;&#9;c-0.2,0.5-0.4,1.1-0.7,1.6c-0.2,0.3-0.5,0.6-0.8,0.9c-0.2,0.1-0.5,0.3-0.8,0.3c-0.2,0.1-0.4,0.1-0.6,0.1h-0.2c0,0,0.1,0.1,0.2,0.2&#10;&#9;&#9;c0.1,0.2,0.3,0.4,0.4,0.6c0.2,0.3,0.3,0.6,0.4,1c0.1,0.4,0.1,0.9,0.1,1.3c0,0.6-0.1,1.2-0.3,1.8l-1.7,5.4c-0.2,0.6-0.2,1.2,0.1,1.8&#10;&#9;&#9;c0.2,0.5,0.6,1,1.1,1.2l1.5,0.8l-1.2,4l-2.2-1.3c-1.4-0.7-2.6-1.9-3.2-3.3c-0.6-1.6-0.6-3.3,0-4.8l1.8-5.6c0.2-0.6,0.2-1.2,0-1.8&#10;&#9;&#9;c-0.2-0.6-0.7-1-1.2-1.3l1.1-3.6c0.5,0.3,1.1,0.4,1.6,0.2c0.5-0.3,0.9-0.7,1-1.3l1.8-5.6c0.3-1.5,1.2-2.8,2.6-3.5&#10;&#9;&#9;c1.4-0.5,2.9-0.3,4.1,0.4L223.7,102.2z"/>
</g>
</svg>