<svg version="1.1" id="Layer_1" xmlns="http://www.w3.org/2000/svg" xmlns:xlink="http://www.w3.org/1999/xlink" x="0px" y="0px" viewBox="0 0 500 500" style="width: 188px;" xml:space="preserve" data-imageid="credit-card-1-60" imageName="Credit Card 1" class="illustrations_image">
<style type="text/css">
	.st0_credit-card-1-60{fill:#F56132;}
	.st1_credit-card-1-60{fill:#093F68;}
	.st2_credit-card-1-60{fill:#68E1FD;}
	.st3_credit-card-1-60{fill:#FFBC0E;}
</style>
<g id="card-2_credit-card-1-60">
	<path class="st0_credit-card-1-60" d="M67.6,172.9l270.8-63.1c7.8-1.8,15.6,3,17.4,10.8l38,163.1c1.8,7.8-3,15.6-10.8,17.4l-270.8,63.1&#10;&#9;&#9;c-7.8,1.8-15.6-3-17.4-10.8l-38-163.1C54.9,182.5,59.8,174.7,67.6,172.9z"/>
	<path class="st1_credit-card-1-60" d="M112.4,365.5c-9.8,0-18.3-6.8-20.5-16.3L56,195.3c-2.7-11.3,4.4-22.7,15.7-25.3c0,0,0,0,0,0l261.6-60.9&#10;&#9;&#9;c11.3-2.6,22.7,4.4,25.3,15.7l35.9,153.9c2.6,11.3-4.4,22.7-15.7,25.3l0,0l-261.6,61C115.6,365.4,114,365.5,112.4,365.5z&#10;&#9;&#9; M338.1,112.2c-1.3,0-2.6,0.2-3.9,0.5L72.6,173.6c-9.3,2.2-15.2,11.5-13,20.8l35.9,153.9c2.2,9.3,11.5,15.2,20.8,13l261.6-60.9&#10;&#9;&#9;c9.3-2.2,15.2-11.5,13-20.8c0,0,0,0,0,0l-35.9-154C353.2,117.8,346.2,112.3,338.1,112.2L338.1,112.2z M378.4,302.2L378.4,302.2z"/>
	
		<rect x="65" y="188.6" transform="matrix(0.9739 -0.2268 0.2268 0.9739 -41.5087 54.9882)" class="st1_credit-card-1-60" width="307" height="39.1"/>
	<path class="st1_credit-card-1-60" d="M73.4,263.8c-0.9,0-1.6-0.6-1.8-1.4l-8.9-38c-0.2-1,0.4-2,1.4-2.2l299-69.7c1-0.2,2,0.4,2.2,1.4l8.9,38&#10;&#9;&#9;c0.1,0.5,0,1-0.2,1.4c-0.3,0.4-0.7,0.7-1.2,0.8l-299,69.7C73.7,263.8,73.6,263.8,73.4,263.8z M66.8,225.3l8,34.4l295.4-68.8&#10;&#9;&#9;l-8-34.4L66.8,225.3z"/>
</g>
<g id="card-1_credit-card-1-60">
	<path class="st2_credit-card-1-60 targetColor" d="M153.9,193.1h270.5c10.1,0,18.3,8.2,18.3,18.3v159.9c0,10.1-8.2,18.3-18.3,18.3H153.9&#10;&#9;&#9;c-10.1,0-18.3-8.2-18.3-18.3V211.4C135.6,201.3,143.8,193.1,153.9,193.1z" style="fill: rgb(104, 225, 253);"/>
	<path class="st1_credit-card-1-60" d="M423.5,391.5H154.9c-11.6,0-21.1-9.4-21.1-21.1v-158c0-11.6,9.4-21.1,21.1-21.1h268.6&#10;&#9;&#9;c11.6,0,21.1,9.4,21.1,21.1v158C444.5,382,435.1,391.4,423.5,391.5z M154.9,195c-9.6,0-17.3,7.8-17.4,17.4v158&#10;&#9;&#9;c0,9.6,7.8,17.3,17.4,17.4h268.6c9.6,0,17.3-7.8,17.4-17.4v-158c0-9.6-7.8-17.3-17.4-17.4H154.9z"/>
	<circle class="st3_credit-card-1-60" cx="349" cy="257.8" r="21.6"/>
	<path class="st1_credit-card-1-60" d="M349,281.2c-13,0-23.4-10.5-23.4-23.5s10.5-23.4,23.5-23.4c13,0,23.4,10.5,23.4,23.5c0,0,0,0,0,0&#10;&#9;&#9;C372.4,270.7,361.9,281.2,349,281.2z M349,238c-10.9,0-19.7,8.8-19.8,19.7c0,10.9,8.8,19.7,19.7,19.7c10.9,0,19.7-8.8,19.8-19.7&#10;&#9;&#9;c0,0,0,0,0,0C368.7,246.8,359.9,238,349,238z"/>
	<circle class="st0_credit-card-1-60" cx="382.7" cy="257.8" r="21.6"/>
	<path class="st1_credit-card-1-60" d="M382.7,281.2c-13,0-23.4-10.5-23.4-23.5s10.5-23.4,23.5-23.4c13,0,23.4,10.5,23.4,23.5c0,0,0,0,0,0&#10;&#9;&#9;C406.2,270.7,395.7,281.2,382.7,281.2z M382.7,238c-10.9,0-19.7,8.8-19.8,19.7c0,10.9,8.8,19.7,19.7,19.7&#10;&#9;&#9;c10.9,0,19.7-8.8,19.8-19.7c0,0,0,0,0,0C402.5,246.9,393.6,238,382.7,238L382.7,238z"/>
	<path class="st1_credit-card-1-60" d="M200.6,281.1h-20.6c-7.2,0-13.1-5.9-13.1-13.1v-20.6c0-7.2,5.9-13.1,13.1-13.1h20.6c7.2,0,13.1,5.9,13.1,13.1&#10;&#9;&#9;V268C213.6,275.2,207.8,281.1,200.6,281.1z M179.9,238c-5.2,0-9.4,4.2-9.4,9.4V268c0,5.2,4.2,9.4,9.4,9.4h20.6&#10;&#9;&#9;c5.2,0,9.4-4.2,9.4-9.4v-20.6c0-5.2-4.2-9.4-9.4-9.4L179.9,238z"/>
	<path class="st1_credit-card-1-60" d="M219.7,348.4h-51c-1,0-1.9-0.8-1.9-1.8c0,0,0,0,0,0v-21.8c0-1,0.8-1.8,1.9-1.8h51c1,0,1.9,0.8,1.9,1.8&#10;&#9;&#9;c0,0,0,0,0,0v21.8C221.5,347.6,220.7,348.4,219.7,348.4z M170.5,344.7h47.3v-18h-47.3V344.7z"/>
	<path class="st1_credit-card-1-60" d="M283,348.4h-51c-1,0-1.9-0.8-1.9-1.8c0,0,0,0,0,0v-21.8c0-1,0.8-1.8,1.9-1.8h51c1,0,1.9,0.8,1.9,1.9l0,0v21.8&#10;&#9;&#9;C284.8,347.6,284,348.4,283,348.4z M233.9,344.7h47.3v-18h-47.3L233.9,344.7z"/>
	<path class="st1_credit-card-1-60" d="M346.3,348.4h-51c-1,0-1.9-0.8-1.9-1.8c0,0,0,0,0,0v-21.8c0-1,0.8-1.9,1.8-1.9c0,0,0,0,0,0h51&#10;&#9;&#9;c1,0,1.9,0.8,1.9,1.9l0,0v21.8C348.2,347.6,347.4,348.4,346.3,348.4L346.3,348.4z M297.2,344.7h47.3v-18h-47.3V344.7z"/>
	<path class="st1_credit-card-1-60" d="M409.6,348.4h-51c-1,0-1.9-0.8-1.9-1.8c0,0,0,0,0,0v-21.8c0-1,0.8-1.9,1.8-1.9c0,0,0,0,0,0h51&#10;&#9;&#9;c1,0,1.9,0.8,1.9,1.8c0,0,0,0,0,0v21.8C411.5,347.6,410.7,348.4,409.6,348.4C409.6,348.4,409.6,348.4,409.6,348.4z M360.5,344.7&#10;&#9;&#9;h47.3v-18h-47.3L360.5,344.7z"/>
</g>
</svg>