<svg xmlns="http://www.w3.org/2000/svg" viewBox="0 0 500 500"><g id="freepik--background-complete--inject-782"><circle cx="63.84" cy="402.66" r="8.55" style="fill:#ebebeb"></circle><circle cx="63.84" cy="334.7" r="8.55" style="fill:#ebebeb"></circle><circle cx="63.84" cy="300.72" r="8.55" style="fill:#ebebeb"></circle><circle cx="63.84" cy="266.74" r="8.55" style="fill:#ebebeb"></circle><circle cx="63.84" cy="198.78" r="8.55" style="fill:#ebebeb"></circle><circle cx="63.84" cy="164.8" r="8.55" style="fill:#ebebeb"></circle><circle cx="63.84" cy="130.82" r="8.55" style="fill:#ebebeb"></circle><circle cx="63.84" cy="62.86" r="8.55" style="fill:#ebebeb"></circle><circle cx="97.69" cy="402.66" r="8.55" style="fill:#ebebeb"></circle><circle cx="97.69" cy="368.68" r="8.55" style="fill:#ebebeb"></circle><circle cx="97.69" cy="334.7" r="8.55" style="fill:#ebebeb"></circle><circle cx="97.69" cy="300.72" r="8.55" style="fill:#ebebeb"></circle><circle cx="97.69" cy="266.74" r="8.55" style="fill:#ebebeb"></circle><circle cx="97.69" cy="232.76" r="8.55" style="fill:#ebebeb"></circle><circle cx="97.69" cy="164.8" r="8.55" style="fill:#dbdbdb"></circle><circle cx="97.69" cy="130.82" r="8.55" style="fill:#ebebeb"></circle><circle cx="97.69" cy="96.84" r="8.55" style="fill:#ebebeb"></circle><circle cx="97.69" cy="62.86" r="8.55" style="fill:#dbdbdb"></circle><circle cx="131.53" cy="402.66" r="8.55" style="fill:#ebebeb"></circle><circle cx="131.53" cy="368.68" r="8.55" style="fill:#dbdbdb"></circle><circle cx="131.53" cy="334.7" r="8.55" style="fill:#ebebeb"></circle><circle cx="131.53" cy="300.72" r="8.55" style="fill:#ebebeb"></circle><circle cx="131.53" cy="266.74" r="8.55" style="fill:#ebebeb"></circle><circle cx="131.53" cy="232.76" r="8.55" style="fill:#ebebeb"></circle><circle cx="131.53" cy="198.78" r="8.55" style="fill:#ebebeb"></circle><circle cx="131.53" cy="164.8" r="8.55" style="fill:#ebebeb"></circle><circle cx="131.53" cy="96.84" r="8.55" style="fill:#ebebeb"></circle><circle cx="131.53" cy="62.86" r="8.55" style="fill:#ebebeb"></circle><circle cx="165.38" cy="402.66" r="8.55" style="fill:#ebebeb"></circle><circle cx="165.38" cy="368.68" r="8.55" style="fill:#ebebeb"></circle><circle cx="165.38" cy="300.72" r="8.55" style="fill:#ebebeb"></circle><circle cx="165.38" cy="232.76" r="8.55" style="fill:#ebebeb"></circle><circle cx="165.38" cy="198.78" r="8.55" style="fill:#ebebeb"></circle><circle cx="165.38" cy="130.82" r="8.55" style="fill:#dbdbdb"></circle><circle cx="165.38" cy="96.84" r="8.55" style="fill:#ebebeb"></circle><circle cx="199.23" cy="402.66" r="8.55" style="fill:#ebebeb"></circle><circle cx="199.23" cy="334.7" r="8.55" style="fill:#ebebeb"></circle><circle cx="199.23" cy="300.72" r="8.55" style="fill:#ebebeb"></circle><circle cx="199.23" cy="266.74" r="8.55" style="fill:#ebebeb"></circle><circle cx="199.23" cy="232.76" r="8.55" style="fill:#ebebeb"></circle><circle cx="199.23" cy="164.8" r="8.55" style="fill:#ebebeb"></circle><circle cx="199.23" cy="130.82" r="8.55" style="fill:#ebebeb"></circle><circle cx="199.23" cy="96.84" r="8.55" style="fill:#ebebeb"></circle><circle cx="199.23" cy="62.86" r="8.55" style="fill:#ebebeb"></circle><circle cx="233.08" cy="402.66" r="8.55" style="fill:#ebebeb"></circle><circle cx="233.08" cy="368.68" r="8.55" style="fill:#ebebeb"></circle><circle cx="233.08" cy="334.7" r="8.55" style="fill:#ebebeb"></circle><circle cx="233.08" cy="300.72" r="8.55" style="fill:#dbdbdb"></circle><circle cx="233.08" cy="232.76" r="8.55" style="fill:#ebebeb"></circle><circle cx="233.08" cy="198.78" r="8.55" style="fill:#ebebeb"></circle><circle cx="233.08" cy="164.8" r="8.55" style="fill:#ebebeb"></circle><circle cx="233.08" cy="130.82" r="8.55" style="fill:#ebebeb"></circle><circle cx="233.08" cy="96.84" r="8.55" style="fill:#ebebeb"></circle><circle cx="233.08" cy="62.86" r="8.55" style="fill:#ebebeb"></circle><circle cx="266.92" cy="402.66" r="8.55" style="fill:#ebebeb"></circle><circle cx="266.92" cy="368.68" r="8.55" style="fill:#ebebeb"></circle><circle cx="266.92" cy="334.7" r="8.55" style="fill:#ebebeb"></circle><circle cx="266.92" cy="300.72" r="8.55" style="fill:#ebebeb"></circle><circle cx="266.92" cy="266.74" r="8.55" style="fill:#ebebeb"></circle><circle cx="266.92" cy="198.78" r="8.55" style="fill:#dbdbdb"></circle><circle cx="266.92" cy="164.8" r="8.55" style="fill:#ebebeb"></circle><circle cx="266.92" cy="130.82" r="8.55" style="fill:#dbdbdb"></circle><circle cx="266.92" cy="96.84" r="8.55" style="fill:#ebebeb"></circle><circle cx="266.92" cy="62.86" r="8.55" style="fill:#ebebeb"></circle><circle cx="300.77" cy="402.66" r="8.55" style="fill:#ebebeb"></circle><circle cx="300.77" cy="334.7" r="8.55" style="fill:#ebebeb"></circle><circle cx="300.77" cy="300.72" r="8.55" style="fill:#ebebeb"></circle><circle cx="300.77" cy="266.74" r="8.55" style="fill:#ebebeb"></circle><circle cx="300.77" cy="232.76" r="8.55" style="fill:#dbdbdb"></circle><circle cx="300.77" cy="198.78" r="8.55" style="fill:#ebebeb"></circle><circle cx="300.77" cy="130.82" r="8.55" style="fill:#ebebeb"></circle><circle cx="300.77" cy="96.84" r="8.55" style="fill:#ebebeb"></circle><circle cx="334.62" cy="402.66" r="8.55" style="fill:#ebebeb"></circle><circle cx="334.62" cy="368.68" r="8.55" style="fill:#ebebeb"></circle><circle cx="334.62" cy="334.7" r="8.55" style="fill:#dbdbdb"></circle><circle cx="334.62" cy="266.74" r="8.55" style="fill:#ebebeb"></circle><circle cx="334.62" cy="232.76" r="8.55" style="fill:#ebebeb"></circle><circle cx="334.62" cy="198.78" r="8.55" style="fill:#ebebeb"></circle><circle cx="334.62" cy="164.8" r="8.55" style="fill:#ebebeb"></circle><circle cx="334.62" cy="96.84" r="8.55" style="fill:#ebebeb"></circle><circle cx="334.62" cy="62.86" r="8.55" style="fill:#ebebeb"></circle><circle cx="368.47" cy="402.66" r="8.55" style="fill:#ebebeb"></circle><circle cx="368.47" cy="368.68" r="8.55" style="fill:#ebebeb"></circle><circle cx="368.47" cy="334.7" r="8.55" style="fill:#ebebeb"></circle><circle cx="368.47" cy="300.72" r="8.55" style="fill:#ebebeb"></circle><circle cx="368.47" cy="266.74" r="8.55" style="fill:#ebebeb"></circle><circle cx="368.47" cy="232.76" r="8.55" style="fill:#ebebeb"></circle><circle cx="368.47" cy="130.82" r="8.55" style="fill:#ebebeb"></circle><circle cx="368.47" cy="96.84" r="8.55" style="fill:#ebebeb"></circle><circle cx="368.47" cy="62.86" r="8.55" style="fill:#dbdbdb"></circle><circle cx="402.31" cy="402.66" r="8.55" style="fill:#ebebeb"></circle><circle cx="402.31" cy="368.68" r="8.55" style="fill:#ebebeb"></circle><circle cx="402.31" cy="300.72" r="8.55" style="fill:#ebebeb"></circle><circle cx="402.31" cy="266.74" r="8.55" style="fill:#ebebeb"></circle><circle cx="402.31" cy="232.76" r="8.55" style="fill:#ebebeb"></circle><circle cx="402.31" cy="198.78" r="8.55" style="fill:#ebebeb"></circle><circle cx="402.31" cy="164.8" r="8.55" style="fill:#ebebeb"></circle><circle cx="402.31" cy="130.82" r="8.55" style="fill:#ebebeb"></circle><circle cx="402.31" cy="96.84" r="8.55" style="fill:#ebebeb"></circle><circle cx="402.31" cy="62.86" r="8.55" style="fill:#ebebeb"></circle><circle cx="436.16" cy="402.66" r="8.55" style="fill:#ebebeb"></circle><circle cx="436.16" cy="368.68" r="8.55" style="fill:#ebebeb"></circle><circle cx="436.16" cy="334.7" r="8.55" style="fill:#ebebeb"></circle><circle cx="436.16" cy="300.72" r="8.55" style="fill:#ebebeb"></circle><circle cx="436.16" cy="266.74" r="8.55" style="fill:#ebebeb"></circle><circle cx="436.16" cy="198.78" r="8.55" style="fill:#ebebeb"></circle><circle cx="436.16" cy="164.8" r="8.55" style="fill:#dbdbdb"></circle><circle cx="436.16" cy="130.82" r="8.55" style="fill:#ebebeb"></circle><circle cx="436.16" cy="62.86" r="8.55" style="fill:#ebebeb"></circle><rect x="47.47" y="244.67" width="134" height="217.49" style="fill:#dbdbdb"></rect><circle cx="114.47" cy="393.81" r="53.92" transform="translate(-288.85 468.12) rotate(-84.23)" style="fill:#ebebeb"></circle><circle cx="114.47" cy="393.81" r="39.09" transform="translate(-295.29 410.62) rotate(-76.14)" style="fill:#dbdbdb"></circle><circle cx="91.53" cy="295.62" r="30.61" style="fill:#ebebeb"></circle><circle cx="91.53" cy="295.62" r="17.7" transform="translate(-182.23 151.31) rotate(-45)" style="fill:#dbdbdb"></circle><circle cx="151.42" cy="282.59" r="17.58" transform="matrix(0.16, -0.99, 0.99, 0.16, -151.69, 387.06)" style="fill:#ebebeb"></circle><path d="M161.59,282.59a10.17,10.17,0,1,1-10.17-10.16A10.17,10.17,0,0,1,161.59,282.59Z" style="fill:#dbdbdb"></path><rect x="318.53" y="244.67" width="134" height="217.49" transform="translate(771.07 706.83) rotate(180)" style="fill:#dbdbdb"></rect><circle cx="385.53" cy="393.81" r="53.92" transform="translate(-37.3 40.35) rotate(-5.72)" style="fill:#ebebeb"></circle><circle cx="385.53" cy="393.81" r="39.09" transform="translate(-81.34 100.98) rotate(-13.51)" style="fill:#dbdbdb"></circle><circle cx="408.47" cy="295.62" r="30.61" style="fill:#ebebeb"></circle><circle cx="408.47" cy="295.62" r="17.7" transform="translate(-89.4 375.42) rotate(-45)" style="fill:#dbdbdb"></circle><circle cx="348.58" cy="282.59" r="17.58" transform="translate(-40.57 59.14) rotate(-9.17)" style="fill:#ebebeb"></circle><path d="M338.41,282.59a10.17,10.17,0,1,0,10.17-10.16A10.17,10.17,0,0,0,338.41,282.59Z" style="fill:#dbdbdb"></path></g><g id="freepik--Character--inject-782"><path d="M277.65,462.07H161.37c-1-4-2-7.91-3-11.73-.22-.88-.45-1.77-.68-2.65q-1.16-4.56-2.26-8.9c-.45-1.76-.89-3.48-1.31-5.19s-.89-3.46-1.32-5.13h0c-.12-.45-.23-.88-.34-1.31s-.24-1-.36-1.43-.3-1.16-.44-1.74h0c-.17-.61-.31-1.2-.46-1.79-.3-1.12-.57-2.24-.84-3.31-.42-1.59-.82-3.17-1.2-4.69-.16-.66-.33-1.33-.5-2-.28-1.06-.55-2.1-.8-3.12-.18-.68-.34-1.34-.5-2-.7-2.67-1.33-5.19-1.93-7.54-.16-.62-.31-1.23-.47-1.82-.25-1-.5-2-.74-2.94-.16-.59-.31-1.17-.44-1.72-.51-2-1-3.85-1.39-5.47-.12-.42-.22-.83-.32-1.24-.27-1.06-.52-2-.73-2.85q-.12-.51-.24-1t-.24-.93c-.05-.21-.11-.41-.15-.59s-.15-.56-.21-.8l-.09-.36c-.17-.69-.27-1.05-.27-1.05H253.68s3.74,12.9,9.73,33.68c1.21,4.23,2.52,8.79,3.93,13.64Z" style="fill:#FFC727"></path><path d="M277.65,462.07H161.37c-1-4-2-7.91-3-11.73-.22-.88-.45-1.77-.68-2.65q-1.16-4.56-2.26-8.9c-.45-1.76-.89-3.48-1.31-5.19s-.89-3.46-1.32-5.13h0c-.12-.45-.23-.88-.34-1.31s-.24-1-.36-1.43-.3-1.16-.44-1.74h0c-.17-.61-.31-1.2-.46-1.79-.3-1.12-.57-2.24-.84-3.31-.42-1.59-.82-3.17-1.2-4.69-.16-.66-.33-1.33-.5-2-.28-1.06-.55-2.1-.8-3.12-.18-.68-.34-1.34-.5-2-.7-2.67-1.33-5.19-1.93-7.54-.16-.62-.31-1.23-.47-1.82-.25-1-.5-2-.74-2.94-.16-.59-.31-1.17-.44-1.72-.51-2-1-3.85-1.39-5.47-.12-.42-.22-.83-.32-1.24-.27-1.06-.52-2-.73-2.85q-.12-.51-.24-1t-.24-.93c-.05-.21-.11-.41-.15-.59s-.15-.56-.21-.8l-.09-.36c-.17-.69-.27-1.05-.27-1.05H253.68s3.74,12.9,9.73,33.68c1.21,4.23,2.52,8.79,3.93,13.64Z" style="opacity:0.4"></path><path d="M180.41,462.07h-2.69q-5-21-9.77-42.11-1.45-6.52-2.9-13.09c-.09-.42-.17-.82-.27-1.23,0-.22.29-.31.34-.09s.08.26.12.39h0c1.32,4.69,2.64,9.39,3.92,14.09C173,434,176.75,448,180.41,462.07Z" style="fill:#263238"></path><path d="M250,378.82l-5,25.09-4.1,20.57-7,35.06-.51,2.53h-72c-1-4-2-7.91-3-11.73-.22-.88-.45-1.77-.68-2.65q-1.16-4.56-2.26-8.9c-.45-1.76-.89-3.48-1.31-5.19s-.89-3.46-1.32-5.13h0c-.12-.45-.23-.88-.34-1.31s-.24-1-.36-1.43-.3-1.16-.44-1.74h0c-.17-.61-.31-1.2-.46-1.79-.3-1.12-.57-2.24-.84-3.31-.42-1.59-.82-3.17-1.2-4.69-.17-.67-.33-1.33-.5-2-.28-1.06-.55-2.1-.8-3.12-.18-.68-.34-1.34-.5-2-.7-2.67-1.33-5.19-1.93-7.54-.16-.62-.31-1.23-.47-1.82-.25-1-.5-2-.74-2.94-.16-.59-.31-1.17-.44-1.72-.51-2-1-3.85-1.39-5.47-.12-.42-.22-.83-.32-1.24-.27-1.06-.52-2-.73-2.85q-.12-.51-.24-1t-.24-.93c-.05-.21-.11-.41-.15-.59s-.15-.56-.21-.8l-.09-.36c-.17-.69-.27-1.05-.27-1.05Z" style="fill:#263238"></path><path d="M250,378.78v0c-.05.62-.48,7.39-1.57,17.73-.31,3-.68,6.32-1.11,9.87-.66,5.61-1.5,11.79-2.51,18.32-1.75,11.39-4,23.83-7,36-.11.45-.22.9-.34,1.35H83.93a5.31,5.31,0,0,1,0-.7c1.33-17.12,11.36-82.55,11.36-82.55l132.94,0Z" style="fill:#FFC727"></path><path d="M250,378.78v0c-.05.62-.48,7.39-1.57,17.73-.31,3-.68,6.32-1.11,9.87-.66,5.61-1.5,11.79-2.51,18.32-1.75,11.39-4,23.83-7,36-.11.45-.22.9-.34,1.35H83.93a5.31,5.31,0,0,1,0-.7c1.33-17.12,11.36-82.55,11.36-82.55l132.94,0Z" style="opacity:0.4"></path><path d="M236.56,392.25c-.16,5.25-.39,10.47-.72,15.7-.36,5.65-.88,11.31-1.61,16.95,0,.2,0,.42-.08.62-.7,5.29-1.48,10.57-2.38,15.83-.84,4.91-1.46,10.2-3.64,14.73a14.34,14.34,0,0,1-3.42,4.64,10.85,10.85,0,0,1-1.89,1.35h-9.1a6.89,6.89,0,0,1-2.93-3.5c-.85-2.24-.47-4.58-.12-6.89.46-3,.9-6,1.36-9,.85-5.51,2-11,2.93-16.45l.45-2.5c2-11.15,4-22.32,6.49-33.37.09-.46.19-.92.29-1.37a.28.28,0,0,1,.54.07c-.08.74-.15,1.49-.24,2.23q-.65,6.36-1.52,12.68c-.71,4.95-1.2,9.93-1.9,14.88-.23,1.69-.47,3.37-.71,5.06-1.15,8.14-2.33,16.29-3.72,24.4-.65,3.77-3,10.53,2.43,11.69a5.43,5.43,0,0,0,3.67-.46c2.41-1.19,4.17-3.94,5-6.36,1.53-4.32,2.09-9.08,2.88-13.58q1.34-7.43,2.36-14.9v0c.89-6.23,1.8-12.44,2.78-18.64.49-3.17,1-6.32,1.5-9.49.23-1.46.47-2.93.7-4.39C236.08,391.84,236.56,391.94,236.56,392.25Z" style="fill:#263238"></path><path d="M120,431.21a73.52,73.52,0,0,0,18.08-2.43c2.73-.7,5.42-1.57,8.09-2.45a21,21,0,0,0,7.29-3.66c4.12-3.55,6-9.13,7.81-14.08A133.41,133.41,0,0,0,166,391.48c.07-.28.48-.19.49.08A66.08,66.08,0,0,1,164.05,411c-1.47,5.36-3.46,11.34-7.79,15.09-4.55,3.95-10.74,5.34-16.56,6.06a76,76,0,0,1-19.7-.27A.33.33,0,0,1,120,431.21Z" style="fill:#263238"></path><path d="M109.86,391.65c-.31,8-8,52.83-9.3,70.42H98c1.61-17.82,10.55-62.53,11.17-70.43A.36.36,0,0,1,109.86,391.65Z" style="fill:#263238"></path><path d="M213.17,214.89c-2.15,54.72,3.47,113,11.2,125.84C234.15,357,315.94,388.3,320.15,390c6.92,2.81,25.54-59.66,19.34-62.8-18.65-9.44-61.95-24-64.71-28.91-2.85-5.17-13.75-34.56-31-80.36C231.88,186.31,214.49,180.94,213.17,214.89Z" style="fill:#ad6359"></path><path d="M350,383.16c-4.34.85-3.92,3.13,3.07,6.71s37.74,11.82,34,22.3-47-1.77-58.17-8.62S302,381.68,302,381.68C310.83,382.38,332.54,382,350,383.16Z" style="fill:#ad6359"></path><path d="M321.53,319.44c24.35,6.16,55,12.34,75.2,32.26a14.08,14.08,0,0,1,4.27,8.14c9.19,8.77,7.81,15.74,7.81,15.74,6.06,10.79,3.67,17.73,3.67,17.73s10.68,10.41,5.46,17.91c-5.83,8.43-19.69-7.84-32.78-12.13-30-9.82-75.39-15.4-84.33-17.37Z" style="fill:#ad6359"></path><path d="M361,366.7c8.77,3.07,17.47,5.85,25.78,10.09,9.12,4.65,17.11,10.66,25.4,16.57a.25.25,0,0,0,.32-.38c-13.32-13.08-33.11-23-51.36-26.68C360.64,366.21,360.51,366.55,361,366.7Z" style="fill:#263238"></path><path d="M364.25,347.73c8.37,3.46,23,9.63,44.36,28.08.07.06.2,0,.13-.11-12.25-13.82-26.87-22.81-44.32-28.37C363.87,347.16,363.69,347.5,364.25,347.73Z" style="fill:#263238"></path><path d="M366.21,337.57c14,6.42,22,12.24,34.7,22.28.07.06.19-.05.12-.12-13.21-12.92-19.46-16.11-34.66-22.67C365.84,336.83,365.67,337.32,366.21,337.57Z" style="fill:#263238"></path><path d="M358.09,392.06c-8.44-1.91-8-1.69-19.77-2.4-2.43-.14-1.59-.71-.49-.79,10.17-.74,10.48-.37,20.34,2.79C358.48,391.75,358.42,392.14,358.09,392.06Z" style="fill:#263238"></path><path d="M331,317.53l-29.12,76.19s-73.4-34.47-82.82-52.44-9.39-85.76-6.88-123.65,20.45-32.07,31-4.89,31.85,82.3,33.85,84.12S331,317.53,331,317.53Z" style="fill:#FFC727"></path><path d="M295.79,355c3.25-8.26,6.56-16.5,9.51-24.87,1.67-4.76,3.38-9.52,5-14.29.06-.18-.23-.31-.31-.13-3.59,8.16-7.18,16.35-10.39,24.67s-6.48,16.54-9.57,24.86q-2.64,7.1-4.84,14.33c0,.1.12.16.16.07C289.22,371.61,292.51,363.33,295.79,355Z" style="fill:#263238"></path><path d="M287.92,386.87c-21.77-11-62-32.6-68.83-45.59-9.42-18-9.4-85.77-6.88-123.65,1.23-18.4,6.09-26.5,12-26.84Z" style="opacity:0.1"></path><path d="M264.26,393.67l-181.65-8.3s75.54-175.49,98.29-190.25c15.78-10.24,32.29-10,43.59-.21C242.05,210.07,264.38,393.52,264.26,393.67Z" style="fill:#FFC727"></path><path d="M240.88,136.3c4,10.86,15,16.81,24.51,13.3s14-15.17,10-26-15-16.81-24.51-13.3S236.87,125.45,240.88,136.3Z" style="fill:#FFC727"></path><path d="M235.54,139.05c4.46,12.08,16.67,18.7,27.27,14.79s15.57-16.88,11.11-29-16.67-18.7-27.27-14.78S231.08,127,235.54,139.05Z" style="fill:#c7c7c7"></path><path d="M212.9,239.76s-26.06-30.94-44.77-32.1l-17.19,12.52s-5.36,1.21-6.65-2.24c-3.19-8.53-2.08-28.3,16.1-39.45,16.64-10.21,42-6.89,62.62.74,19.83,7.33,36.18,22.54,28.66,35.21S212.9,239.76,212.9,239.76Z" style="fill:#FFC727"></path><path d="M215.55,233.71s24.95-14.41,28.32-24.07-15.51-21-27.94-25.94c-19.22-7.64-32.82-7.67-44.92,1.82S215.55,233.71,215.55,233.71Z" style="opacity:0.1"></path><path d="M214.71,232.26c-10.76-.57-23.53-21-26.7-35.43-.22-1,3.72-9.61,8-20.31,2.58-6.5,5.3-13.81,7.3-20.65l39.86,23S234.78,192,231.36,203.9a16.48,16.48,0,0,0-.52,2.89c0,.14,0,.31-.08.49C230.07,212.87,225.1,232.79,214.71,232.26Z" style="fill:#ad6359"></path><path d="M243.18,178.85s-8.41,13.1-11.81,25.05c-25.31-2.19-33.27-27.23-33.84-31.2.62-1.58,1.3-3.38,2-5.28.18-.47.35-.95.52-1.44.85-2.43,1.71-5,2.52-7.49,0-.06,0-.12.05-.18.26-.82.52-1.63.78-2.41Z" style="fill:#263238"></path><path d="M215.55,233.71s-19.31-41.29-47.76-47.93l.34,21.88s17.18,1.7,44.77,32.1Z" style="fill:#FFC727"></path><path d="M160.32,207.31c5.34-.15,10.47,1.53,15.27,3.56a68.86,68.86,0,0,1,13.52,8,118.82,118.82,0,0,1,12,10.15l5.54,5.64,5.28,5.9.59.66.76-.3A132.64,132.64,0,0,0,229.76,233a75,75,0,0,0,7.7-4.86c2.46-1.79,12.66-9.59,15.2-15.75-4,5.82-18.3,16.5-23.65,19.19-2.68,1.33-5.43,2.54-8.2,3.69s-5.54,2.31-8.33,3.32l1.35.36-5.27-6.07c-1.84-1.95-3.72-3.87-5.62-5.77s-4-3.63-6-5.35-4.2-3.37-6.48-4.82a63,63,0,0,0-14.3-7.47c-1.25-.49-2.56-.85-3.85-1.24s-2.62-.62-3.95-.81A23.44,23.44,0,0,0,160.32,207.31Z" style="fill:#263238"></path><path d="M150.94,220.18a77.63,77.63,0,0,0,9-5.73,79.08,79.08,0,0,0,8.21-6.79,78.19,78.19,0,0,0-9,5.74A79,79,0,0,0,150.94,220.18Z" style="fill:#263238"></path><path d="M204.5,225.62a159.6,159.6,0,0,0-5.16,27c-.7,6.38-.27,29.52,6.9,29.32s-3.08-16-4-28.28c-1-12.46,3.05-20.84,4.12-28Z" style="fill:#263238"></path><path d="M229.58,229.11a228.37,228.37,0,0,1,2.93,27.05c.28,5.81-1.42,26.73-7.91,26.14s3.7-14.32,5.27-25.37c1.59-11.22-1.38-21.3-2-27.87Z" style="fill:#263238"></path><path d="M202.28,107.33c-7.86,14.6-8.63,61.14.42,73.37,13.13,17.72,39.09,24.35,55.28,7.55,15.69-16.28,15.62-77,5.09-88.53C247.56,82.68,213.88,85.77,202.28,107.33Z" style="fill:#ad6359"></path><path d="M236.77,147.16c0-.12-.26.14-.26.27,0,3.2-.61,6.85-3.55,7.79-.09,0-.08.19,0,.18C236.53,155.05,237.25,150.19,236.77,147.16Z" style="fill:#263238"></path><path d="M234.06,143.71c-5.11-.61-6,9.66-1.22,10.23S238.35,144.22,234.06,143.71Z" style="fill:#263238"></path><path d="M255.15,149.2c0-.12.23.17.22.3-.36,3.17-.24,6.87,2.55,8.16.09,0,.06.2,0,.18C254.41,157.05,254.3,152.14,255.15,149.2Z" style="fill:#263238"></path><path d="M258.26,146.1c5.15,0,4.71,10.34-.06,10.31S254,146.08,258.26,146.1Z" style="fill:#263238"></path><path d="M230.15,140.19a39.39,39.39,0,0,0,4.19.56c1.61.2,2.88.53,4.39-.24a2.19,2.19,0,0,0,.89-2.51c-.76-1.92-2.67-2.65-4.6-3a7.89,7.89,0,0,0-5.64,1C227.6,137,228.29,139.76,230.15,140.19Z" style="fill:#263238"></path><path d="M262.31,139.33a40.12,40.12,0,0,1-4-1.4c-1.53-.55-2.8-.83-3.81-2.2a2.17,2.17,0,0,1,.35-2.64c1.54-1.37,3.58-1.16,5.44-.57a8,8,0,0,1,4.59,3.42C266,137.66,264.17,139.79,262.31,139.33Z" style="fill:#263238"></path><path d="M231,175.17c.7.81,1.38,1.9,2.52,2.09a8.53,8.53,0,0,0,3.49-.52.11.11,0,0,1,.12.17,4.28,4.28,0,0,1-4.18,1.4,3.39,3.39,0,0,1-2.27-3C230.66,175.1,230.91,175.05,231,175.17Z" style="fill:#263238"></path><path d="M235.77,166a10.86,10.86,0,0,0,6.84,5.42,13.64,13.64,0,0,0,3.88.5,3.71,3.71,0,0,0,.75,0,4.39,4.39,0,0,0,.71,0,.78.78,0,0,0,.69-.66v0a1.22,1.22,0,0,0,0-.33v0l0-.28c.27-2.45.34-6.19.34-6.19.86.52,5.25,2.95,5.28,1.66.24-10.65.51-22.49-1.51-33.14a.3.3,0,0,0-.59,0c-.63,10.22.54,20.49.07,30.77-1.41-.67-3.7-1.89-5-2-.35.07,0,7.24-.21,8.33a.34.34,0,0,1,0,.12c-4.16.18-7.16-1.31-10.93-4.41C235.87,165.53,235.6,165.73,235.77,166Z" style="fill:#263238"></path><path d="M244.87,171.51a12.61,12.61,0,0,1-5.56,3.1,5.67,5.67,0,0,1-3.43-.31c-2.36-1-2.07-3.28-1.33-5.14a13.6,13.6,0,0,1,1.55-2.78A16.3,16.3,0,0,0,244.87,171.51Z" style="fill:#263238"></path><path d="M239.31,174.61a5.67,5.67,0,0,1-3.43-.31c-2.36-1-2.07-3.28-1.33-5.14C237.14,169.83,239.48,172,239.31,174.61Z" style="fill:#f291b8"></path><path d="M198.89,167.26s-4.75-1.12-5.55-4.4,3.66-11.2-4-16.7c-2.64-1.9-4.81-3.07-5.78-5.76-1.8-5,1.18-8.37.73-11.52-.56-3.89-7.2-5.63-7.05-13.09.19-9.91,8.88-11.42,10.8-14.57s.63-8.31,6-13.79c5-5.05,12.06-2.42,16.65-4.13,4.9-1.83,4.17-9.33,12.67-11.93,6.19-1.89,12.65,4.57,16.89,4,6.71-.9,7.65-7.19,16.29-7.36,9.65-.18,20.18,17.33,21.19,23.76,1.12,7.19-4.22,10.64-3.48,15.17,1.06,6.51,6.61,6.89,6.15,12.49s-4.38,7.68-5,11.17c-.79,4.72-.09,5.83-.84,9.92a11.11,11.11,0,0,1-4.59,6.62s1.15-21.51-4.18-36.62c-1.77-5-4.58-8.76-6.19-8.63-2.11.17-2.07,8-5.62,8.12s-9.81-9-15-6.83c-7,2.9-5.48,13.48-12.7,15.95s-10.59,0-13.05,3c-3.06,3.66.19,7.14-.35,14.45-.49,6.59-2.23,8.63-2.23,8.63l-4.85.12s-5.07-5.43-7-4.89S198.89,167.26,198.89,167.26Z" style="fill:#263238"></path><path d="M190.05,96.5c-1.38,7.42-11.29,9.09-13.61,15.9-1.48,5.66,1.4,9.79,5.64,13.28,1.26,1.21,3,2.75,2.55,4.7,0-1.92-1.73-3-3.11-4-3-2.06-6.17-4.82-6.89-8.68a10.51,10.51,0,0,1,3.44-10.58c3.9-3.71,9.9-5.31,12-10.61Z" style="fill:#263238"></path><path d="M275.29,110c2.3,2.25,6,3.28,7.27,6.62,1.95,5.33-1.49,8.43-5.21,11.51a5.91,5.91,0,0,0-1.83,2.49,5.12,5.12,0,0,1,1.19-3c1.74-2.35,4.53-4.64,4.65-7.58a6.69,6.69,0,0,0-1.81-5.23c-1.34-1.46-3.28-2.79-4.26-4.76Z" style="fill:#263238"></path><path d="M207.86,149.53s-9-15.66-16-12.57-1.13,25.16,6.47,28.77a8,8,0,0,0,11.08-3.35Z" style="fill:#ad6359"></path><path d="M193.67,143.24a.11.11,0,0,0-.06.21c5.31,2.72,7.76,8.08,9.33,13.56-1.46-2.19-3.59-3.5-6.5-1.79-.15.09,0,.33.13.31a4.93,4.93,0,0,1,5.26,2.19,24,24,0,0,1,2.2,4.6c.22.52,1.13.33,1-.25l0-.13C205.74,154.93,201.15,144.61,193.67,143.24Z" style="fill:#263238"></path><path d="M234.71,449.31c-.55-.5-13.4-12.34-18.36-29.33-1.65-5.65-.12-20.34,1.81-38.94,2.42-23.21,5.42-52.1,2.5-70.52-1.71-10.77-10.46-35.23-18.19-56.81-4.95-13.84-9.23-25.8-10.78-31.73-4.86-18.67-2-44.66-.86-54.45.09-.89.18-1.63.24-2.2l2,.2c-.06.58-.15,1.33-.25,2.22-1.08,9.69-3.95,35.42.82,53.73,1.52,5.84,5.79,17.76,10.73,31.56,7.75,21.66,16.54,46.21,18.28,57.17,3,18.68-.06,47.71-2.49,71-1.83,17.65-3.42,32.9-1.88,38.17,4.81,16.45,17.65,28.29,17.78,28.41Z" style="fill:#263238"></path><path d="M182.58,150.52S167.76,129.83,166.7,114c-1.18-17.61,22.77-40.27,48.79-34.57,0,0-35.94,2.48-39.67,30.23-1.57,11.69,14.32,37,14.32,37Z" style="fill:#c7c7c7"></path><path d="M210.23,141.08c5.38,11.35,1.67,24.37-8.29,29.09s-22.38-.66-27.76-12-1.66-24.37,8.29-29.09S204.85,129.74,210.23,141.08Z" style="fill:#c7c7c7"></path><path d="M204.67,142.93c4.84,10.2,1.5,21.9-7.45,26.14s-20.12-.59-24.95-10.79-1.5-21.9,7.45-26.14S199.84,132.73,204.67,142.93Z" style="fill:#FFC727"></path><path d="M70.71,361.61c18.3-2.77,67-50,99.36-107.07,5-8.84-39-51.61-46-43.34-8.86,10.42-58.82,68.3-60.78,71.7C46.73,311.52,58.29,363.49,70.71,361.61Z" style="fill:#ad6359"></path><path d="M112.51,224.35s5.77-24.69,11-40.8c2.91-9,9.27-24,14.43-29.58,7.72-8.41,45.36-38.67,52.89-29.71,6.82,8.12-28.82,30-28.82,30s34-25.27,40.42-14S165.28,171,165.28,171s35.53-25.18,40.3-12.49c3.61,9.58-34.85,29.36-34.85,29.36s30.68-21.43,34.82-11.74c4.57,10.72-29.79,31.2-29.79,31.2,6.36,26.42-1.42,41.6-8.24,51.74C165.87,261.47,112.51,224.35,112.51,224.35Z" style="fill:#ad6359"></path><path d="M149.68,162.26c3.89-3.11,7.8-6.29,11.95-9s8.4-5.37,12.79-7.73c10.77-5.78,18.41-7.72,18-7.54-10.86,4-25.87,13.68-30,16.44s-8.43,5.29-12.57,8C149.67,162.49,149.59,162.33,149.68,162.26Z" style="fill:#263238"></path><path d="M159.36,177.43c5.14-3.76,10.1-7.68,15.4-11.22s10.59-6.39,16.1-9.53c.42-.24.41.06,0,.32-5.38,3.37-10.09,6.89-15.42,10.31s-10.81,6.65-16,10.25A.08.08,0,0,1,159.36,177.43Z" style="fill:#263238"></path><path d="M165.33,191.94c7.55-6.15,16.23-10.89,24.86-15.34.43-.23.37.17-.05.42-8.36,4.95-15,8.77-24.6,15.19C165.39,192.31,165.17,192.07,165.33,191.94Z" style="fill:#263238"></path><path d="M121.12,191.33c1.73-5.35,3.55-10.67,5.55-15.93,2.59-6.52,5-13.27,8.92-19.14a75.76,75.76,0,0,1,8.88-9.12c8.41-7.51,17.31-14.53,27.18-20.09,4.62-2.52,16.74-8.34,20.61-2.57,3.41,7.09-13.5,18.52-18.28,22.8l-1-1.51a99.22,99.22,0,0,1,12.41-6.12c4.83-1.75,13-5.14,17.33-.73a4.93,4.93,0,0,1,1.13,4c-1.34,6.41-9,11.84-14,15.54l-.89-1.72a48.41,48.41,0,0,1,5.45-1.6c4.39-1.13,12.91-1.92,11.94,5-1.19,4.85-5.41,8-8.88,11.2-2.83,2.43-5.77,4.7-8.57,7.08l-1-1.47c4.13-1.79,14.66-6.71,18-2,1.31,1.91,1.07,4.55.29,6.53-4.76,11-20,20.55-30.08,26.37l.26-.69a62.18,62.18,0,0,1,1,29.11,63.61,63.61,0,0,1-12,26.39,64,64,0,0,0,12.24-40.94A57.3,57.3,0,0,0,175.08,207a131.06,131.06,0,0,0,13.74-9c6.07-4.78,12.69-10,15.77-17.2,3.41-10.91-11.24-4.53-16-2.34l-6,2.87c4.25-3.73,9.36-7.84,13.61-11.44,2.68-2.36,5.51-4.84,7.34-7.87,2-3.46.71-6-3.5-5.83-5.5.08-11.91,2.86-17.14,4.61,5.35-3.76,11.66-7.86,15.9-12.83,2.58-2.81,5.35-7.89,0-9.13-4.21-.68-8.76,1-12.74,2.51a96.44,96.44,0,0,0-12.17,5.95l-1-1.51c4.23-3.75,20.18-14.71,17.9-20.56-3.24-4.2-14.54,1-18.4,3.08-9.79,5.35-18.76,12.25-27.17,19.58a79.9,79.9,0,0,0-8.91,8.83c-4,5.71-6.51,12.36-9.21,18.79q-3.12,7.81-5.94,15.77Z" style="fill:#263238"></path><path d="M115.71,209.63l39.45,85.8S87.89,360,69.75,365.21c-21,6-30.95-48.12-8-85.38Z" style="fill:#FFC727"></path><path d="M136.38,298.94c-16.6-29.75-26.63-58.05-29.3-63.78-.13-.27.32-.44.44-.16,2.33,5.76,18.38,37.27,29.34,63.76C137,299.06,136.54,299.22,136.38,298.94Z" style="fill:#263238"></path><path d="M151.09,284.68a.44.44,0,0,0-.81.36,98.06,98.06,0,0,1,3.4,9.49c0,.37-11.23,10.85-14.93,14.44q-11,10.66-22.43,20.89T92.9,350c-3.66,3-7.27,6.14-11.14,8.87-3.47,2.44-7.34,4.56-11.61,5.07-7.6.91-15.12-4.46-17.65-11.51a15.53,15.53,0,0,1-.71-2.78c0-.08-.16-.09-.16,0,.19,8,6.7,14.72,14.43,16,9.3,1.48,17.37-5.32,24.06-10.78q12.41-10.08,24.36-20.68T138,312.39c3.82-3.68,17.61-17.41,17.76-17.77S151.7,285.94,151.09,284.68Z" style="fill:#263238"></path></g><g id="freepik--Device--inject-782"><path d="M30.43,462.16c134.85-.61,286.11-.62,421,0-134.85.62-286.11.61-421,0Z" style="fill:#263238"></path><rect x="52.2" y="449.01" width="395.6" height="13.15" transform="translate(500 911.17) rotate(180)" style="fill:#263238"></rect><rect x="46.15" y="427.22" width="407.69" height="21.79" transform="translate(500 876.23) rotate(180)" style="fill:#37474f"></rect><polygon points="71.57 416.62 428.43 416.62 453.85 427.22 46.15 427.22 71.57 416.62" style="fill:#455a64"></polygon><rect x="65.58" y="432.1" width="112.71" height="32.47" transform="translate(243.86 896.68) rotate(180)" style="fill:#455a64"></rect><path d="M72.67,442.81a4,4,0,1,0,4-4.09A4.05,4.05,0,0,0,72.67,442.81Z" style="fill:#c7c7c7"></path><path d="M74.75,442.81a1.92,1.92,0,1,0,1.91-2A1.93,1.93,0,0,0,74.75,442.81Z" style="fill:#263238"></path><path d="M72.67,453.57a4,4,0,1,0,4-4.09A4.05,4.05,0,0,0,72.67,453.57Z" style="fill:#ebebeb"></path><path d="M74.75,453.57a1.92,1.92,0,1,0,1.91-2A1.93,1.93,0,0,0,74.75,453.57Z" style="fill:#263238"></path><path d="M84.12,442.81a4,4,0,1,0,4-4.09A4.05,4.05,0,0,0,84.12,442.81Z" style="fill:#ebebeb"></path><path d="M86.2,442.81a1.91,1.91,0,1,0,1.91-2A1.93,1.93,0,0,0,86.2,442.81Z" style="fill:#263238"></path><path d="M84.12,453.57a4,4,0,1,0,4-4.09A4.05,4.05,0,0,0,84.12,453.57Z" style="fill:#FFC727"></path><path d="M86.2,453.57a1.91,1.91,0,1,0,1.91-2A1.93,1.93,0,0,0,86.2,453.57Z" style="fill:#263238"></path><path d="M95.57,442.81a4,4,0,1,0,4-4.09A4,4,0,0,0,95.57,442.81Z" style="fill:#c7c7c7"></path><path d="M97.64,442.81a1.92,1.92,0,1,0,1.92-2A1.94,1.94,0,0,0,97.64,442.81Z" style="fill:#263238"></path><path d="M95.57,453.57a4,4,0,1,0,4-4.09A4,4,0,0,0,95.57,453.57Z" style="fill:#ebebeb"></path><path d="M97.64,453.57a1.92,1.92,0,1,0,1.92-2A1.94,1.94,0,0,0,97.64,453.57Z" style="fill:#263238"></path><path d="M112.22,442.81a4,4,0,1,0,4-4.09A4,4,0,0,0,112.22,442.81Z" style="fill:#FFC727"></path><path d="M114.29,442.81a1.92,1.92,0,1,0,1.92-2A1.94,1.94,0,0,0,114.29,442.81Z" style="fill:#263238"></path><path d="M112.22,453.57a4,4,0,1,0,4-4.09A4,4,0,0,0,112.22,453.57Z" style="fill:#ebebeb"></path><path d="M114.29,453.57a1.92,1.92,0,1,0,1.92-2A1.94,1.94,0,0,0,114.29,453.57Z" style="fill:#263238"></path><path d="M123.66,442.81a4,4,0,1,0,4-4.09A4.05,4.05,0,0,0,123.66,442.81Z" style="fill:#FFC727"></path><path d="M125.74,442.81a1.92,1.92,0,1,0,1.92-2A1.94,1.94,0,0,0,125.74,442.81Z" style="fill:#263238"></path><path d="M123.66,453.57a4,4,0,1,0,4-4.09A4.05,4.05,0,0,0,123.66,453.57Z" style="fill:#ebebeb"></path><path d="M125.74,453.57a1.92,1.92,0,1,0,1.92-2A1.94,1.94,0,0,0,125.74,453.57Z" style="fill:#263238"></path><rect x="147.29" y="438.12" width="24.07" height="2.73" style="fill:#263238"></rect><rect x="147.29" y="444.17" width="24.07" height="2.73" style="fill:#263238"></rect><rect x="147.29" y="450.23" width="24.07" height="2.73" style="fill:#263238"></rect><rect x="226.68" y="432.1" width="46.64" height="32.47" transform="translate(500 896.68) rotate(180)" style="fill:#455a64"></rect><path d="M234.56,442.81a4,4,0,1,0,4-4.09A4.05,4.05,0,0,0,234.56,442.81Z" style="fill:#c7c7c7"></path><path d="M236.64,442.81a1.92,1.92,0,1,0,1.91-2A1.93,1.93,0,0,0,236.64,442.81Z" style="fill:#263238"></path><path d="M234.56,453.57a4,4,0,1,0,4-4.09A4.05,4.05,0,0,0,234.56,453.57Z" style="fill:#ebebeb"></path><path d="M236.64,453.57a1.92,1.92,0,1,0,1.91-2A1.93,1.93,0,0,0,236.64,453.57Z" style="fill:#263238"></path><path d="M246,442.81a4,4,0,1,0,4-4.09A4.05,4.05,0,0,0,246,442.81Z" style="fill:#ebebeb"></path><path d="M248.09,442.81a1.91,1.91,0,1,0,1.91-2A1.93,1.93,0,0,0,248.09,442.81Z" style="fill:#263238"></path><path d="M246,453.57a4,4,0,1,0,4-4.09A4.05,4.05,0,0,0,246,453.57Z" style="fill:#FFC727"></path><path d="M248.09,453.57a1.91,1.91,0,1,0,1.91-2A1.93,1.93,0,0,0,248.09,453.57Z" style="fill:#263238"></path><path d="M257.46,442.81a4,4,0,1,0,4-4.09A4,4,0,0,0,257.46,442.81Z" style="fill:#c7c7c7"></path><path d="M259.53,442.81a1.92,1.92,0,1,0,1.92-2A1.94,1.94,0,0,0,259.53,442.81Z" style="fill:#263238"></path><path d="M257.46,453.57a4,4,0,1,0,4-4.09A4,4,0,0,0,257.46,453.57Z" style="fill:#ebebeb"></path><path d="M259.53,453.57a1.92,1.92,0,1,0,1.92-2A1.94,1.94,0,0,0,259.53,453.57Z" style="fill:#263238"></path><polygon points="314.56 421.83 427.24 421.83 421.75 415.46 320.05 415.46 314.56 421.83" style="fill:#263238"></polygon><path d="M314.56,421.83c0-1,25.22-1.74,56.34-1.74s56.34.78,56.34,1.74-25.22,1.74-56.34,1.74S314.56,422.79,314.56,421.83Z" style="fill:#263238"></path><ellipse cx="370.9" cy="415.46" rx="50.85" ry="1.74" style="fill:#37474f"></ellipse><polygon points="72.76 421.83 185.44 421.83 179.95 415.46 78.25 415.46 72.76 421.83" style="fill:#263238"></polygon><path d="M72.76,421.83c0-1,25.22-1.74,56.34-1.74s56.34.78,56.34,1.74-25.22,1.74-56.34,1.74S72.76,422.79,72.76,421.83Z" style="fill:#263238"></path><ellipse cx="129.1" cy="415.46" rx="50.85" ry="1.74" style="fill:#37474f"></ellipse><polygon points="264.96 417.4 270.84 417.4 270.55 410.94 265.25 410.94 264.96 417.4" style="fill:#263238"></polygon><ellipse cx="267.9" cy="417.4" rx="2.94" ry="0.95" style="fill:#263238"></ellipse><path d="M265.25,410.94c0-.28,1.18-.5,2.65-.5s2.65.22,2.65.5-1.18.5-2.65.5S265.25,411.21,265.25,410.94Z" style="fill:#37474f"></path><polygon points="253.03 417.4 258.91 417.4 258.62 410.94 253.31 410.94 253.03 417.4" style="fill:#263238"></polygon><path d="M253,417.4c0-.52,1.31-.95,2.94-.95s2.94.43,2.94.95-1.32.94-2.94.94S253,417.92,253,417.4Z" style="fill:#263238"></path><path d="M253.31,410.94c0-.28,1.19-.5,2.66-.5s2.65.22,2.65.5-1.19.5-2.65.5S253.31,411.21,253.31,410.94Z" style="fill:#37474f"></path><polygon points="241.09 417.4 246.97 417.4 246.69 410.94 241.38 410.94 241.09 417.4" style="fill:#263238"></polygon><ellipse cx="244.03" cy="417.4" rx="2.94" ry="0.95" style="fill:#263238"></ellipse><path d="M241.38,410.94c0-.28,1.19-.5,2.65-.5s2.66.22,2.66.5-1.19.5-2.66.5S241.38,411.21,241.38,410.94Z" style="fill:#37474f"></path><polygon points="229.16 417.4 235.04 417.4 234.75 410.94 229.45 410.94 229.16 417.4" style="fill:#263238"></polygon><ellipse cx="232.1" cy="417.4" rx="2.94" ry="0.95" style="fill:#263238"></ellipse><path d="M229.45,410.94c0-.28,1.18-.5,2.65-.5s2.66.22,2.66.5-1.19.5-2.66.5S229.45,411.21,229.45,410.94Z" style="fill:#37474f"></path><polygon points="266.02 421.58 272.31 421.58 272.01 414.66 266.32 414.66 266.02 421.58" style="fill:#263238"></polygon><path d="M266,421.58c0-.56,1.41-1,3.15-1s3.15.45,3.15,1-1.41,1-3.15,1S266,422.14,266,421.58Z" style="fill:#263238"></path><path d="M266.32,414.66c0-.29,1.28-.53,2.85-.53s2.84.24,2.84.53-1.27.54-2.84.54S266.32,415,266.32,414.66Z" style="fill:#37474f"></path><polygon points="253.24 421.58 259.54 421.58 259.23 414.66 253.55 414.66 253.24 421.58" style="fill:#263238"></polygon><path d="M253.24,421.58c0-.56,1.41-1,3.15-1s3.15.45,3.15,1-1.41,1-3.15,1S253.24,422.14,253.24,421.58Z" style="fill:#263238"></path><path d="M253.55,414.66c0-.29,1.27-.53,2.84-.53s2.84.24,2.84.53-1.27.54-2.84.54S253.55,415,253.55,414.66Z" style="fill:#37474f"></path><polygon points="240.46 421.58 246.76 421.58 246.45 414.66 240.77 414.66 240.46 421.58" style="fill:#263238"></polygon><path d="M240.46,421.58c0-.56,1.41-1,3.15-1s3.15.45,3.15,1-1.41,1-3.15,1S240.46,422.14,240.46,421.58Z" style="fill:#263238"></path><path d="M240.77,414.66c0-.29,1.27-.53,2.84-.53s2.84.24,2.84.53-1.27.54-2.84.54S240.77,415,240.77,414.66Z" style="fill:#37474f"></path><polygon points="227.69 421.58 233.98 421.58 233.68 414.66 227.99 414.66 227.69 421.58" style="fill:#263238"></polygon><path d="M227.68,421.58c0-.56,1.41-1,3.15-1s3.15.45,3.15,1-1.41,1-3.15,1S227.68,422.14,227.68,421.58Z" style="fill:#263238"></path><path d="M228,414.66c0-.29,1.27-.53,2.84-.53s2.85.24,2.85.53-1.28.54-2.85.54S228,415,228,414.66Z" style="fill:#37474f"></path><polygon points="295.32 417.26 304.38 417.26 303.94 410.8 295.76 410.8 295.32 417.26" style="fill:#263238"></polygon><path d="M295.32,417.26c0-.52,2-.94,4.53-.94s4.53.42,4.53.94-2,.95-4.53.95S295.32,417.79,295.32,417.26Z" style="fill:#263238"></path><path d="M295.76,410.8c0-.27,1.83-.5,4.09-.5s4.09.23,4.09.5-1.83.5-4.09.5S295.76,411.08,295.76,410.8Z" style="fill:#37474f"></path><polygon points="282.24 417.26 291.3 417.26 290.86 410.8 282.68 410.8 282.24 417.26" style="fill:#263238"></polygon><path d="M282.24,417.26c0-.52,2-.94,4.53-.94s4.53.42,4.53.94-2,.95-4.53.95S282.24,417.79,282.24,417.26Z" style="fill:#263238"></path><path d="M282.68,410.8c0-.27,1.83-.5,4.09-.5s4.09.23,4.09.5-1.83.5-4.09.5S282.68,411.08,282.68,410.8Z" style="fill:#37474f"></path><polygon points="295.71 421.61 305.16 421.61 304.7 414.87 296.17 414.87 295.71 421.61" style="fill:#263238"></polygon><path d="M295.71,421.61c0-.55,2.12-1,4.73-1s4.72.44,4.72,1-2.11,1-4.72,1S295.71,422.15,295.71,421.61Z" style="fill:#263238"></path><path d="M296.17,414.87c0-.29,1.91-.52,4.27-.52s4.26.23,4.26.52-1.91.52-4.26.52S296.17,415.16,296.17,414.87Z" style="fill:#37474f"></path><polygon points="282.05 421.61 291.49 421.61 291.03 414.87 282.51 414.87 282.05 421.61" style="fill:#263238"></polygon><path d="M282.05,421.61c0-.55,2.11-1,4.72-1s4.72.44,4.72,1-2.11,1-4.72,1S282.05,422.15,282.05,421.61Z" style="fill:#263238"></path><path d="M282.51,414.87c0-.29,1.91-.52,4.26-.52s4.26.23,4.26.52-1.9.52-4.26.52S282.51,415.16,282.51,414.87Z" style="fill:#37474f"></path><rect x="213.18" y="416.82" width="0.73" height="6.6" transform="translate(427.09 840.24) rotate(180)" style="fill:#263238"></rect><rect x="200.72" y="416.82" width="0.73" height="6.6" transform="translate(402.17 840.24) rotate(180)" style="fill:#263238"></rect><polygon points="208.87 419.42 218.21 419.42 218.77 422.6 208.32 422.6 208.87 419.42" style="fill:#263238"></polygon><polygon points="209.43 418.88 217.66 418.88 218.21 419.42 208.87 419.42 209.43 418.88" style="fill:#37474f"></polygon><polygon points="196.41 416.92 205.75 416.92 206.31 420.1 195.86 420.1 196.41 416.92" style="fill:#263238"></polygon><polygon points="196.97 416.38 205.2 416.38 205.75 416.92 196.41 416.92 196.97 416.38" style="fill:#37474f"></polygon><rect x="423.57" y="433" width="18.97" height="10.24" transform="translate(866.11 876.23) rotate(180)" style="fill:#263238"></rect><rect x="396.98" y="433" width="18.97" height="10.24" transform="translate(812.94 876.23) rotate(180)" style="fill:#263238"></rect><rect x="277.86" y="429.57" width="107.07" height="17.09" transform="translate(662.8 876.23) rotate(180)" style="fill:#455a64"></rect><rect x="282.3" y="433.38" width="98.19" height="1.68" transform="translate(662.8 868.44) rotate(180)" style="fill:#263238"></rect><rect x="282.3" y="437.28" width="98.19" height="1.68" transform="translate(662.8 876.23) rotate(180)" style="fill:#263238"></rect><rect x="282.3" y="441.17" width="98.19" height="1.68" transform="translate(662.8 884.02) rotate(180)" style="fill:#263238"></rect><path d="M98,450.86c-11.74,0-21.52-6.94-21.93-7.24L77.25,442c.09.07,9.68,6.86,20.76,6.86,11.54,0,28.11-6.25,29.09-6.88l1.12,1.66C126.83,444.57,109.88,450.86,98,450.86Z" style="fill:#263238"></path><path d="M157,450.86a263.76,263.76,0,0,1-59-7.08l.51-1.94a261.29,261.29,0,0,0,58.53,7c31.39,0,77.8-6.15,81.36-7l.48,1.94C235.2,444.66,188.48,450.86,157,450.86Z" style="fill:#263238"></path><path d="M155.38,467.77c-36.67,0-68.23-13.15-68.55-13.28l.78-1.84c.31.13,31.52,13.12,67.77,13.12s90.12-11.49,94.25-13.13l.74,1.86C246.19,456.15,192,467.77,155.38,467.77Z" style="fill:#263238"></path><path d="M174.06,462a165.41,165.41,0,0,1-47.46-7.46l.65-1.9A162.62,162.62,0,0,0,174.06,460c25.15,0,62.29-6.44,65.14-7.36l.62,1.9C236.93,455.45,199.39,462,174.06,462Z" style="fill:#263238"></path></g><g id="freepik--Lines--inject-782"><path d="M413.83,389.1c2.33-.9,4.7-1.61,7.08-2.27s4.77-1.23,7.18-1.77,4.83-1,7.27-1.39,4.88-.73,7.37-.89a72.6,72.6,0,0,1-7.07,2.27c-2.38.67-4.78,1.23-7.19,1.78s-4.82,1-7.26,1.38S416.32,388.94,413.83,389.1Z" style="fill:#FFC727"></path><path d="M137.55,88.68c1.93,1.57,3.73,3.27,5.49,5s3.44,3.53,5.11,5.34,3.27,3.69,4.82,5.61a74.3,74.3,0,0,1,4.44,6c-1.93-1.58-3.73-3.27-5.49-5s-3.44-3.53-5.11-5.34-3.27-3.7-4.82-5.62S138.92,90.76,137.55,88.68Z" style="fill:#FFC727"></path><path d="M420.28,373.18c3-1.91,6.11-3.65,9.24-5.34s6.29-3.31,9.46-4.89,6.4-3.09,9.65-4.53,6.51-2.85,9.86-4.08c-3,1.91-6.11,3.66-9.24,5.35s-6.29,3.3-9.46,4.88-6.4,3.09-9.65,4.53S423.63,371.94,420.28,373.18Z" style="fill:#FFC727"></path><path d="M96.44,95.78c4.17,1.31,8.26,2.81,12.31,4.39s8.07,3.25,12.07,5,8,3.51,11.87,5.4,7.82,3.82,11.63,6c-4.18-1.3-8.26-2.8-12.32-4.38s-8.07-3.25-12.06-5-8-3.52-11.88-5.41S100.25,97.93,96.44,95.78Z" style="fill:#FFC727"></path><path d="M411.53,369.46c1.75-3.12,3.64-6.13,5.58-9.1s4-5.9,6-8.81,4.15-5.76,6.32-8.57,4.37-5.61,6.73-8.28c-1.74,3.11-3.64,6.12-5.58,9.1s-4,5.89-6,8.8-4.15,5.76-6.32,8.58S413.89,366.78,411.53,369.46Z" style="fill:#FFC727"></path><path d="M99.53,129.05c3.57-.21,7.12-.23,10.67-.2s7.11.15,10.65.3,7.09.39,10.63.7,7.08.67,10.61,1.21c-3.57.21-7.12.24-10.67.21s-7.11-.16-10.65-.31-7.09-.39-10.63-.7S103.06,129.59,99.53,129.05Z" style="fill:#FFC727"></path></g><g id="freepik--musical-notes--inject-782"><path d="M306,257.07a6.73,6.73,0,1,1-5.42-7.82A6.73,6.73,0,0,1,306,257.07Z" style="fill:#455a64"></path><rect x="303.9" y="223" width="5.14" height="33.81" transform="translate(47.96 -51.04) rotate(10.32)" style="fill:#455a64"></rect><path d="M329.12,251.35a6.72,6.72,0,1,1-5.41-7.82A6.72,6.72,0,0,1,329.12,251.35Z" style="fill:#455a64"></path><rect x="327.07" y="217.28" width="5.14" height="33.81" transform="translate(47.31 -55.29) rotate(10.32)" style="fill:#455a64"></rect><polygon points="335.19 218.08 306.16 227.26 306.97 222.81 336 213.63 335.19 218.08" style="fill:#455a64"></polygon><polygon points="333.66 226.46 304.64 235.64 305.45 231.19 334.47 222.01 333.66 226.46" style="fill:#455a64"></polygon><path d="M371.06,321.15a6.18,6.18,0,1,1-5-7.18A6.17,6.17,0,0,1,371.06,321.15Z" style="fill:#37474f"></path><rect x="369.17" y="289.85" width="4.72" height="31.06" transform="translate(60.73 -61.63) rotate(10.32)" style="fill:#37474f"></rect><path d="M392.35,315.89a6.18,6.18,0,1,1-5-7.18A6.19,6.19,0,0,1,392.35,315.89Z" style="fill:#37474f"></path><rect x="390.46" y="284.59" width="4.72" height="31.06" transform="translate(60.14 -65.54) rotate(10.32)" style="fill:#37474f"></rect><polygon points="397.92 285.33 371.25 293.76 372 289.68 398.67 281.24 397.92 285.33" style="fill:#37474f"></polygon><polygon points="396.52 293.03 369.85 301.46 370.59 297.38 397.26 288.94 396.52 293.03" style="fill:#37474f"></polygon><path d="M277.47,229.34a5.64,5.64,0,1,1-4.54-6.55A5.64,5.64,0,0,1,277.47,229.34Z" style="fill:#37474f"></path><rect x="275.75" y="200.8" width="4.3" height="28.32" transform="matrix(0.98, 0.18, -0.18, 0.98, 43.02, -46.32)" style="fill:#37474f"></rect><rect x="293.24" y="196.4" width="4.3" height="8.19" transform="translate(40.72 -49.7) rotate(10.33)" style="fill:#37474f"></rect><polygon points="298.05 197.93 277.64 204.36 278.32 200.64 298.73 194.2 298.05 197.93" style="fill:#37474f"></polygon><polygon points="296.77 204.95 276.36 211.39 277.04 207.66 297.45 201.22 296.77 204.95" style="fill:#37474f"></polygon><path d="M381.56,167a6.72,6.72,0,1,1-5.41-7.82A6.73,6.73,0,0,1,381.56,167Z" style="fill:#455a64"></path><rect x="379.51" y="132.88" width="5.14" height="33.81" transform="translate(33.03 -66.05) rotate(10.32)" style="fill:#455a64"></rect><rect x="400.38" y="127.64" width="5.14" height="9.77" transform="translate(30.28 -70.09) rotate(10.33)" style="fill:#455a64"></rect><polygon points="406.12 129.46 381.77 137.14 382.58 132.69 406.93 125.01 406.12 129.46" style="fill:#455a64"></polygon><polygon points="404.6 137.84 380.24 145.52 381.05 141.07 405.4 133.39 404.6 137.84" style="fill:#455a64"></polygon></g></svg>
