<?xml version="1.0"?><svg viewBox="0 0 64 64" xmlns="http://www.w3.org/2000/svg"><g data-name="Fill Outline" id="Fill_Outline"><g data-name="Stroke copy" id="Stroke_copy"><g><path d="M18,39H47A10,10,0,0,1,57,49V61a0,0,0,0,1,0,0H7a0,0,0,0,1,0,0V50A11,11,0,0,1,18,39Z" style="fill: #c4f236"/><circle cx="43" cy="52" r="3" style="fill: #a1d51c"/><g><path d="M36.888,39H21.1a11.89,11.89,0,0,0,15.791,0Z" style="fill: #a1d51c"/><path d="M33,55A13,13,0,0,1,20,42V39H18A11,11,0,0,0,7,50V61H57V55Z" style="fill: #a1d51c"/></g><polygon points="29 59 32 59 32 45 29 48 29 59" style="fill: #a1d51c"/><path d="M25,33H39a0,0,0,0,1,0,0v5a7,7,0,0,1-7,7h0a7,7,0,0,1-7-7V33A0,0,0,0,1,25,33Z" style="fill: #fcbc04"/><path d="M36,43a6.964,6.964,0,0,1-4.133-1.359A12,12,0,0,0,39,36.6V33H25v5a7,7,0,0,0,11.973,4.925A7.1,7.1,0,0,1,36,43Z" style="fill: #e59730"/><path d="M42.4,27.2,32,35,21.6,27.2A14,14,0,0,1,16,16h0L32,4,48,16h0A14,14,0,0,1,42.4,27.2Z" style="fill: #7ab92d"/><path d="M20,12H44a0,0,0,0,1,0,0V26A12,12,0,0,1,32,38h0A12,12,0,0,1,20,26V12A0,0,0,0,1,20,12Z" style="fill: #f9e109"/><path d="M34.926,34.953A12.263,12.263,0,0,1,24,22.6h0a6.464,6.464,0,0,1,6.312-6.489A45.507,45.507,0,0,1,44,18.006V12H20V26a11.989,11.989,0,0,0,21.019,7.9A12,12,0,0,1,34.926,34.953Z" style="fill: #fcbc04"/><path d="M32,38h0a8,8,0,0,1-8-8V26h0a32.984,32.984,0,0,1,16,0h0v4A8,8,0,0,1,32,38Z" style="fill: #84d2f4"/><path d="M48,16h0a45.573,45.573,0,0,0-32,0h0A13,13,0,0,1,29,3h6A13,13,0,0,1,48,16Z" style="fill: #c4f236"/><circle cx="45" cy="50" r="3" style="fill: #84d2f4"/><path d="M46,52a3,3,0,0,1-3-3,2.965,2.965,0,0,1,.446-1.554,2.992,2.992,0,1,0,4.108,4.108A2.965,2.965,0,0,1,46,52Z" style="fill: #57b7eb"/><path d="M39.762,11.169A12.461,12.461,0,0,1,30.665,3H29A13,13,0,0,0,16,16a45.573,45.573,0,0,1,32,0,12.962,12.962,0,0,0-.384-3.085Z" style="fill: #a1d51c"/><path d="M35,34a8,8,0,0,1-8-8v-.588c-1.006.154-2.008.34-3,.588h0v4a8,8,0,0,0,15.575,2.557A7.954,7.954,0,0,1,35,34Z" style="fill: #57b7eb"/></g></g><g data-name="Outline copy" id="Outline_copy"><g><path d="M47,38H45.649a6.019,6.019,0,0,0-3.7-3.653,12.934,12.934,0,0,0,3.039-8.191A14.889,14.889,0,0,0,49,16,14.015,14.015,0,0,0,35,2H29a13.949,13.949,0,0,0-7.547,2.22A1,1,0,1,0,22.533,5.9a11.976,11.976,0,0,1,4.815-1.786A11.489,11.489,0,0,0,24.729,8.7a1,1,0,0,0,1.907.6C27.658,6.082,29.764,4,32,4s4.342,2.082,5.364,5.3a1,1,0,0,0,1.907-.6,11.517,11.517,0,0,0-2.607-4.57A12.017,12.017,0,0,1,46.913,14.553c-.822-.276-1.663-.525-2.513-.758-.016-.007-.035-.009-.052-.016-1-.271-2-.518-3.029-.727a1,1,0,0,0-.4,1.959c.7.144,1.394.308,2.082.482v6.093l-3.321,3.321a34.1,34.1,0,0,0-15.444.019L21,22.5V18.709a1,1,0,0,0-2,0v4.177A12.848,12.848,0,0,1,17.034,16.7a44.787,44.787,0,0,1,19.945-2.314A1,1,0,1,0,37.2,12.4a46.8,46.8,0,0,0-20.115,2.149,12.019,12.019,0,0,1,2.646-6.176A1,1,0,0,0,18.19,7.1,14.027,14.027,0,0,0,15,16a14.889,14.889,0,0,0,4.008,10.156,12.936,12.936,0,0,0,3.029,8.18A6.022,6.022,0,0,0,18.35,38H18A12.013,12.013,0,0,0,6,50V61a1,1,0,0,0,2,0V50A10.011,10.011,0,0,1,18,40v3a5.006,5.006,0,0,0-5,5v6a3,3,0,0,0,3,3,1,1,0,0,0,0-2,1,1,0,0,1-1-1V48a3,3,0,0,1,3-3h2a3,3,0,0,1,3,3v6a1,1,0,0,1-1,1,1,1,0,0,0,0,2,3,3,0,0,0,3-3V48a5.006,5.006,0,0,0-5-5V40h1a1,1,0,0,0,0-2h-.444a3.981,3.981,0,0,1,3.178-1.973c.086.07.179.131.266.2v2.041a8.007,8.007,0,0,0,7,7.93V50a1,1,0,0,0,2,0V46.2A8.011,8.011,0,0,0,39.805,40H44v6.142a4,4,0,1,0,2,0V40h1a9.011,9.011,0,0,1,9,9V61a1,1,0,0,0,2,0V49A11.013,11.013,0,0,0,47,38Zm0,12a2,2,0,1,1-2-2A2,2,0,0,1,47,50Zm-.034-33.3A12.831,12.831,0,0,1,45,22.886V16.05Q46,16.352,46.966,16.7ZM43,26a10.924,10.924,0,0,1-2.516,6.976A8.951,8.951,0,0,0,41,30V26.414l2-2ZM21,25l2.4,1.8a.813.813,0,0,0,.837.145l.007.025A32.085,32.085,0,0,1,39,26.791V30a7,7,0,0,1-14,0,1,1,0,0,0-2,0,8.927,8.927,0,0,0,.51,2.958A10.879,10.879,0,0,1,21,26ZM32,44.267a6.007,6.007,0,0,1-6-6v-.746a12.91,12.91,0,0,0,12,0v.746A6.007,6.007,0,0,1,32,44.267ZM40,38V36.226c.087-.068.18-.129.266-.2A3.981,3.981,0,0,1,43.444,38Z" style="fill: #323232"/><path d="M28.243,29.97,32,29.031l3.757.939A.976.976,0,0,0,36,30a1,1,0,0,0,.242-1.97l-4-1a1,1,0,0,0-.486,0l-4,1a1,1,0,0,0,.486,1.94Z" style="fill: #323232"/><path d="M35.316,32.051l-3-1a1,1,0,0,0-.632,0l-3,1a1,1,0,1,0,.632,1.9L32,33.054l2.684.895a1,1,0,0,0,.632-1.9Z" style="fill: #323232"/><path d="M34.293,19.293a1,1,0,0,0,1.414,1.414,1.831,1.831,0,0,1,2.586,0,1,1,0,0,0,1.414-1.414A3.832,3.832,0,0,0,34.293,19.293Z" style="fill: #323232"/><path d="M24.293,19.293a1,1,0,0,0,1.414,1.414,1.831,1.831,0,0,1,2.586,0,1,1,0,0,0,1.414-1.414A3.832,3.832,0,0,0,24.293,19.293Z" style="fill: #323232"/><circle cx="35" cy="53" r="1" style="fill: #323232"/><circle cx="35" cy="57" r="1" style="fill: #323232"/></g></g></g></svg>