<?xml version="1.0"?><svg id="Layer_1" style="enable-background:new 0 0 75.199997 75.800003;" version="1.1" viewBox="0 0 75.199997 75.800003" xml:space="preserve" xmlns="http://www.w3.org/2000/svg" xmlns:xlink="http://www.w3.org/1999/xlink"><style type="text/css">
	.st0{opacity:0.5;fill:#231F20;enable-background:new    ;}
	.st1{fill:#FFFFFF;}
	.st2{fill:#22093A;stroke:#22093A;stroke-linecap:round;stroke-linejoin:round;stroke-miterlimit:10;}
	.st3{fill:#FCC707;stroke:#22093A;stroke-linecap:round;stroke-linejoin:round;stroke-miterlimit:10;}
	.st4{fill:none;stroke:#22093A;stroke-linecap:round;stroke-linejoin:round;stroke-miterlimit:10;}
	.st5{fill:none;stroke:#FFFFFF;stroke-linecap:round;stroke-linejoin:round;stroke-miterlimit:10;}
	.st6{fill:#35CCAD;stroke:#22093A;stroke-linecap:round;stroke-linejoin:round;stroke-miterlimit:10;}
	.st7{fill:#35CCAD;}
	.st8{fill:#FCC707;}
	.st9{fill:#22093A;}
</style><g><path class="st0" d="M72.5,46.700001L72.5,46.700001c-1.699997-2-4.099998-2.200001-4.800003-2.200001   c-1.300003-0.099998-2.900002,0.200001-4.400002,1.299999c-0.700001-0.400002-1.5-0.700001-2.299999-0.900002   c1.5-2.299999,2.099998-5,1.900002-7.900002c-0.099998-1.5-0.799999-3.200001-1.700001-4.599998   c0.299999-1,0.400002-2.1,0.299999-3.200001C63.399998,28.999996,65,27.499996,65.099998,25.499996   c0.099998-1.799999,0.400002-5.1,0.800003-5.6c0.599998-0.5,3.900002-0.700001,5.699997-0.799999   c2.099998-0.200001,3.699997-1.9,3.699997-4s-1.599998-3.8-3.699997-4l0,0c-1.800003-0.1-5.099998-0.4-5.599998-0.8   c-0.5-0.6-0.699997-3.9-0.800003-5.6c-0.199997-2.1-1.900002-3.7-4-3.7s-3.799999,1.6-4,3.7   c-0.099998,1.8-0.400002,5.1-0.799999,5.6c-0.599998,0.5-3.900002,0.7-5.700001,0.8c-2,0.2-3.5,1.7-3.700001,3.7l0,0   c-1.5,0-3.099998,0.3-4.5,0.7c-0.099998-1-0.299999-2-0.599998-3.1c-1.099998-4.4-3.400002-7.7-6.5-9.3   c-1.200001-0.6-2.5-1-3.799999-1c-1.1-0.1-2.200001,0.1-3.299999,0.5c-4.6,1.7-6.9,6.599999-6,12.3c-0.4-0.2-0.9-0.3-1.4-0.4   c-0.299999,0-0.700001-0.1-1.1-0.1c0-0.4-0.1-0.8-0.1-1.1c-0.200001-2.1-1.9-3.7-4-3.7s-3.8,1.6-4,3.7c0,0.3-0.1,0.7-0.1,1.1   c-0.4,0-0.8,0.1-1.1,0.1c-2.1,0.2-3.7,1.9-3.7,4s1.6,3.799999,3.7,4l0,0c0.3,0,0.7,0.1,1.1,0.1c0,0.4,0.1,0.799999,0.1,1.1   c0,0.200001,0,0.299999,0.1,0.5c-1.7,0.299999-3.1,1.799999-3.3,3.6c-0.1,0.799999-0.2,1.9-0.3,2.6   c-0.7,0.1-1.9,0.200001-2.6,0.299999c-2.1,0.200001-3.7,1.900002-3.7,4s1.6,3.799999,3.7,4l0,0   c0.8,0.099998,1.9,0.200001,2.6,0.299999c0.1,0.700001,0.2,1.900002,0.3,2.599998c0.2,2.099998,1.9,3.700001,4,3.700001   s3.8-1.599998,4.000001-3.700001c0.1-0.799999,0.200001-1.900002,0.299999-2.599998c0.4-0.099998,0.9-0.099998,1.4-0.200001   c-0.1,2.599998,0.4,5.400002,1.6,8.200001c-0.4,0.200001-0.799999,0.5-1.1,0.700001c-2.1-1.400002-4.9-2.5-8.9-2.5h-0.2   c-2.5,0-4.7,1.400002-6.1,3.799999c-3.2,5.400002-2.9,16.299999-0.4,21.200001l0,0c0.2,0.5,0.4,0.900002,0.6,1.300003   c0.6,1.199997,2.4,3.300003,6.800001,3.699997c0.4,0,0.7,0,1.1,0c2.2,0,5.1-0.5,7.5-1.800003   c2.299999,1.800003,5.300001,2.699997,8.199999,2.300003C29,75.5,30.699999,75,32.200001,74.099998   c1.200001,1,2.5,1.199997,3.400002,1.199997h0.099998c1.900002,0,3.700001-0.800003,5-2.199997L40.799999,73   C42.700001,74.599998,44.5,74.900002,46,74.699997c0.900002-0.099998,1.900002-0.400002,3-1.199997   c0.700001,0.400002,1.299999,0.599998,1.900002,0.699997C54.5,75.099998,58.100002,75,60.800003,74.099998   c0.799999,0.699997,1.799999,1.199997,2.799999,1.400002c0.500004,0.099998,1.000004,0.199997,1.600002,0.199997   c1.300003,0,2.5-0.400002,3.599998-1c1.599998-1,2.599998-2.5,3-4.300003C72.100006,68.999992,72,67.499992,71.400002,66.199997   c1.300003-1.5,2.400002-3.799999,2.900002-7.400002c0.599998-4.700001,0.699997-7.799999-0.599998-10   C73.400002,48,73,47.299999,72.5,46.700001z"/><path class="st1" d="M71.5,45.799999L71.5,45.799999c-1.699997-2-4.099998-2.200001-4.800003-2.200001   c-1.300003-0.099998-2.900002,0.200001-4.400002,1.299999c-0.700001-0.400002-1.5-0.700001-2.299999-0.900002   c1.5-2.299999,2.099998-5,1.900002-7.900002c-0.099998-1.5-0.799999-3.200001-1.700001-4.6   c0.299999-1,0.400002-2.1,0.299999-3.200001c1.900002-0.200001,3.5-1.700001,3.600002-3.700001   c0.099998-1.799999,0.400002-5.1,0.800003-5.6c0.599998-0.5,3.900002-0.700001,5.699997-0.799999   c2.099998-0.200001,3.699997-1.9,3.699997-4s-1.599998-3.8-3.699997-4l0,0c-1.800003-0.1-5.099998-0.4-5.599998-0.8   c-0.5-0.6-0.699997-3.9-0.800003-5.6C63.900002,1.6,62.099998,0,60,0s-3.799999,1.6-4,3.7c-0.099998,1.8-0.400002,5.1-0.799999,5.6   C54.600002,9.8,51.299999,10,49.5,10.1c-2,0.2-3.5,1.7-3.700001,3.7l0,0c-1.5,0-3.099998,0.3-4.5,0.7   c-0.099998-1-0.299999-2-0.599998-3.1c-1.099998-4.4-3.400002-7.7-6.5-9.3c-1.200001-0.6-2.5-1-3.799999-1   c-1.1-0.1-2.200001,0.1-3.299999,0.5c-4.6,1.7-6.9,6.599999-6,12.3c-0.4-0.2-0.9-0.3-1.4-0.4c-0.299999,0-0.700001-0.1-1.1-0.1   c0-0.4-0.1-0.8-0.1-1.1c-0.200001-2.1-1.9-3.7-4-3.7s-3.8,1.6-4,3.7c0,0.3-0.1,0.7-0.1,1.1c-0.4,0-0.8,0.1-1.1,0.1   c-2.1,0.2-3.7,1.9-3.7,4s1.6,3.799999,3.7,4l0,0c0.3,0,0.7,0.1,1.1,0.1c0,0.4,0.1,0.799999,0.1,1.1c0,0.200001,0,0.299999,0.1,0.5   C9,23.5,7.6,25,7.4,26.799999c-0.1,0.799999-0.2,1.9-0.3,2.6C6.4,29.5,5.2,29.6,4.5,29.699999c-2.1,0.200001-3.7,1.9-3.7,3.999998   s1.6,3.799999,3.7,4l0,0c0.8,0.099998,1.9,0.200001,2.6,0.299999c0.1,0.700001,0.2,1.900002,0.3,2.599998   c0.2,2.099998,1.9,3.700001,4,3.700001s3.8-1.599998,4-3.700001c0.1-0.799999,0.2-1.900002,0.3-2.599998   C16.1,37.899998,16.6,37.899998,17.1,37.799995c-0.1,2.599998,0.4,5.400002,1.6,8.200001c-0.4,0.200001-0.799999,0.5-1.1,0.700001   c-2.1-1.400002-4.9-2.5-8.9-2.5h-0.2c-2.5,0-4.7,1.400002-6.1,3.799999C-0.9,53.400002-0.6,64.400002,2,69.199997l0,0   c0.2,0.5,0.4,0.900002,0.6,1.300003c0.6,1.199997,2.4,3.300003,6.8,3.699997c0.4,0,0.7,0,1.1,0c2.2,0,5.1-0.5,7.5-1.800003   c2.299999,1.800003,5.299999,2.699997,8.200001,2.300003C27.900002,74.5,29.6,74,31.1,73.099998   c1.199999,1,2.499998,1.199997,3.4,1.199997h0.099998c1.900002,0,3.700001-0.800003,5-2.199997L39.699997,72   c1.900002,1.599998,3.700001,1.900002,5.200001,1.699997c0.900002-0.099998,1.900002-0.400002,3-1.199997   c0.700001,0.400002,1.299999,0.599998,1.900002,0.699997C53.399998,74.099998,57,74,59.699997,73.099998   c0.799999,0.699997,1.799999,1.199997,2.799999,1.400002c0.5,0.099998,1,0.199997,1.600002,0.199997   c1.300003,0,2.5-0.400002,3.599998-1c1.599998-1,2.599998-2.5,3-4.300003C71,67.999992,70.899994,66.499992,70.299995,65.199997   c1.300003-1.5,2.400002-3.799999,2.900002-7.400002c0.599998-4.700001,0.699997-7.799999-0.599998-10   C72.400002,47.099998,72,46.400002,71.5,45.799999z"/><g><g><g><path class="st2" d="M55.299999,32.200001c0.799999,0.099998,2.299999,2.5,2.5,4.200001C58.400002,43.799999,51,46,51,46      s-2.200001,5.099998-9.599998,6.900002c-7.5,1.900002-13.5,0.599998-17.9-7.299999c-5-9,1.200001-17.9,2.6-20.799999      s1.4-4.9,0-9.2c-1.299999-4.3-0.700001-8.8,3-10.2c2.5-0.9,6.299999,1,7.799999,7.1c1.400002,5.4,0.200001,9.1,0.200001,9.1      s6.700001-5,11-3.299999c2.799999,1.1,3.5,4.1,3.5,4.1s3.099998,0.799999,4.5,4.5      C57.200001,30,55.299999,32.200001,55.299999,32.200001z"/><path class="st2" d="M51.5,22.299999c1,2.6-0.400002,6.5-5.700001,9.700001C41,34.900002,37,35,35.799999,31.6      c-1.799999-4.9,5.5-7.699999,5.5-7.699999"/><path class="st2" d="M55.299999,32.200001c0,0-4,3.5-6.299999,5.700001c-5.400002,5-11.200001,1-7.299999-4"/><path class="st2" d="M51.099998,36.200001c-1.200001,1.200001-5.200001,3.200001-4.900002,6.099998      c0.099998,1.799999,2.299999,4.599998,5.900002,3.200001"/></g><g><path class="st3" d="M54.799999,32.200001c0.799999,0.099998,2.299999,2.5,2.5,4.200001C58,43.800003,50.5,46,50.5,46      s-2.200001,5.099998-9.599998,6.900002c-7.5,1.900002-13.5,0.599998-17.9-7.299999c-5-9,1.200001-17.9,2.6-20.799999      s1.4-4.9,0-9.2c-1.299999-4.3-0.700001-8.8,3-10.2c2.5-0.9,6.299999,1,7.799999,7.1c1.400002,5.4,0.200001,9.1,0.200001,9.1      s6.700001-5,11-3.299999c2.799999,1.1,3.5,4.1,3.5,4.1s3.099998,0.799999,4.5,4.5      C56.700001,30,54.799999,32.200001,54.799999,32.200001z"/><path class="st4" d="M51.099998,22.299999c1,2.6-0.400002,6.5-5.700001,9.700001c-4.799999,2.900002-8.799999,3-10-0.4      c-1.799999-4.9,5.5-7.699999,5.5-7.699999"/><path class="st4" d="M54.799999,32.200001c0,0-4,3.5-6.299999,5.700001c-5.400002,5-11.200001,1-7.299999-4"/><path class="st4" d="M50.599998,36c-1.200001,1.200001-5.099998,3.5-4.900002,6.400002      C45.799995,44.200001,47.999996,47,51.599998,45.600002"/></g><path class="st5" d="M28.4,21.1c0,0.5-0.1,0.9-0.200001,1.200001"/><path class="st5" d="M28.799999,8.3c-1.4,0.3-2.1,3-1,6.400001c0.5,1.5,0.700001,3,0.700001,4.200001"/><path class="st5" d="M42.700001,38c2.200001,0.599998,5.599998-2.400002,7-3.900002"/><path class="st5" d="M50.5,44.099998c1.799999-0.299999,3.900002-2.299999,3.900002-2.299999"/><path class="st4" d="M43.700001,49.700001C42.5,50.400002,41,51,39.200001,51.299999c-4.700001,0.799999-6.700001,0-6.700001,0"/><path class="st4" d="M46.5,47.200001C46.299999,47.5,46,47.799999,45.700001,48.100002"/><path class="st5" d="M40.400002,26.4c-2.299999,0.9-4.5,3-3.299999,4.800001"/></g><g><g><g><g><path class="st2" d="M9.1,49.599998c-5.1,0-5.5,14.400002-3,19.099998c1.3,2.5,9.7,2.099998,12.5-1.800003        S21.799999,49.5,9.1,49.599998z"/><path class="st2" d="M12,57.799999c-1.2,0-1.3,3.799999-0.7,4.599998c0.4,0.5,2.3,0.5,3-0.400002        C14.9,61,15,57.799999,12,57.799999z"/></g><g><path class="st2" d="M24.700001,49.799999c3.6-0.400002,9.399998,2.799999,9.399998,10        c0,7.100002-4.4,10.700001-8.4,11.100002c-3.6,0.400002-8.6-2.099998-8.800001-9.700001        C16.6,54.900002,19.299999,50.400002,24.700001,49.799999z"/><path class="st2" d="M25.6,56.099998c0.5-0.299999,1.200001,0.200001,1.299999,3.5C26.9,62.899998,26.1,63.699997,25.5,64        c-0.5,0.300003-1,0.300003-1-3.299999C24.4,57.900002,24.9,56.5,25.6,56.099998z"/></g><path class="st2" d="M33.900002,49.299999c-3.1,1.099998-4.1,21.000004,0.5,21.100002S38,61.100002,38,61.100002       s2.400002,9.299999,6.299999,8.799999c4.5-0.5,5.200001-19.599998,1.900002-21c-4.700001-2-5.5,7.799999-5.5,7.799999       S37.799999,47.900002,33.900002,49.299999z"/><path class="st2" d="M62,50.900002c-1.099998-2.799999-10.5-3-12.599998,1c-1.599998,2.900002-4,16.400002,1.200001,17.599998       C55.900002,70.800003,61.700005,69.699997,61.5,65.800003c-0.200001-2.900002-6.700001-3.200001-6.700001-3.200001       s6.099998,0.400002,6.5-2.599998s-6.099998-2.700001-6.099998-2.700001S63.900002,56.099998,62,50.900002z"/><path class="st2" d="M67,49c-1.599998-0.099998-3.700001,0.700001-5,8.099998c-1.099998,6.599998,1.299999,7,1.900002,7       c0.599998,0,4.300003,0.599998,5.300003-6.599998S69.5,49.099998,67,49z"/><circle class="st2" cx="64" cy="68" r="2.900002"/></g><g><path class="st6" d="M8.5,48.200001c-5.1,0-5.5,14.399998-3,19.100002c1.3,2.5,9.7,2.099998,12.5-1.800003       C20.799999,61.700001,21.200001,48.099998,8.5,48.200001z"/><path class="st2" d="M11.4,56.400002c-1.2,0-1.3,3.799999-0.7,4.599998c0.4,0.5,2.3,0.5,3-0.400002       C14.3,59.599998,14.4,56.400002,11.4,56.400002z"/></g><g><path class="st6" d="M24.1,48.400002c3.6-0.400002,9.4,2.799999,9.4,10S29.1,69.099998,25.1,69.5       c-3.6,0.400002-8.6-2.099998-8.800001-9.700001C16,53.599998,18.700001,49,24.1,48.400002z"/><path class="st2" d="M25,54.700001c0.5-0.299999,1.200001,0.200001,1.299999,3.5c0,3.299999-0.799999,4.099998-1.4,4.400002       c-0.5,0.299999-1,0.299999-1-3.299999C23.799999,56.5,24.299999,55.200001,25,54.700001z"/></g><path class="st6" d="M33.299999,48c-3.1,1.099998-4.1,21,0.5,21.099998s3.599998-9.299999,3.599998-9.299999      s2.400002,9.299999,6.299999,8.799999c4.5-0.5,5.200001-19.599998,1.900002-21c-4.700001-2-5.5,7.799999-5.5,7.799999      S37.200001,46.599998,33.299999,48z"/><path class="st6" d="M61.400002,49.599998c-1.099998-2.799999-10.5-3-12.599998,1      C47.200005,53.5,44.800003,67,50.000004,68.199997S61.100006,68.399994,60.900002,64.5      c-0.200001-2.900002-6.700001-3.200001-6.700001-3.200001s6.099998,0.400002,6.5-2.599998S54.600002,56,54.600002,56      S63.299999,54.799999,61.400002,49.599998z"/><path class="st6" d="M66.5,47.599998c-1.599998-0.099998-3.700001,0.700001-5,8.099998      c-1.099998,6.599998,1.299999,7,1.900002,7c0.599998,0,4.300003,0.599998,5.300003-6.599998S68.900002,47.700001,66.5,47.599998      z"/><circle class="st6" cx="63.400002" cy="66.699997" r="2.900002"/><path class="st5" d="M6.3,62.900002c0.1,0.400002,0.2,0.900002,0.3,1.199997"/><path class="st5" d="M6.6,53.5c-0.3,1.400002-0.6,4.200001-0.5,6.799999"/><path class="st5" d="M18.799999,54.599998c0.5-2.200001,3.5-4.400002,5.6-4.400002"/><path class="st5" d="M32.799999,59.5c0,2.700001,0.299999,6.300003,1.299999,7.199997"/><path class="st5" d="M62.900002,65.5c-0.5,0.300003-1.200001,1.199997-0.599998,1.900002"/><path class="st5" d="M64.599998,51.200001C63.699997,53.600002,62.899998,57.400002,63.399998,60"/><path class="st5" d="M49.099998,57.099998c0-2.5,1.200001-6.099998,2.700001-6.799999"/><path class="st5" d="M42,54.299999c0.200001-1.099998,0.5-2.599998,1.200001-4"/></g></g><rect class="st7" height="2.262744" transform="matrix(0.707107 -0.707107 0.707107 0.707107 -8.168838 15.478685)" width="2.262743" x="13.468636" y="16.46863"/><rect class="st8" height="3.9598" transform="matrix(0.707107 -0.707107 0.707107 0.707107 -20.461222 18.002239)" width="3.959799" x="9.520115" y="31.7201"/><g><polygon class="st8" points="54.400002,14.2 58.265823,12.200001 60,8.599998 62.484371,13.210723 65.599998,14.199999      61.671364,15.806577 60,19.799999 58.509018,16    "/><path class="st9" d="M60,24.799999c-0.299999,0-0.5-0.200001-0.5-0.5c-0.700001-8.7-1-9-9.700001-9.7     c-0.299999,0-0.5-0.2-0.5-0.5s0.200001-0.5,0.5-0.5c8.700001-0.7,9-1,9.700001-9.7c0-0.3,0.200001-0.5,0.5-0.5s0.5,0.2,0.5,0.5     c0.700001,8.7,1,9,9.699997,9.7c0.300003,0,0.5,0.2,0.5,0.5s-0.199997,0.5-0.5,0.5c-8.700001,0.7-9,1-9.700001,9.7     C60.5,24.6,60.299999,24.799999,60,24.799999z M54.400002,14.2c3.700001,0.6,5,1.900001,5.599998,5.599999     c0.599998-3.700001,1.900002-5,5.599998-5.6c-3.700001-0.6-5-1.9-5.599998-5.6C59.400002,12.2,58.099998,13.5,54.400002,14.2z"/></g><g><g><path class="st9" d="M11.4,40.799999c-0.3,0-0.5-0.200001-0.5-0.5c-0.4-5.5-0.6-5.700001-6.1-6.099998      c-0.3,0-0.5-0.200001-0.5-0.5s0.2-0.5,0.5-0.5c5.5-0.400002,5.7-0.599998,6.1-6.1c0-0.299999,0.2-0.5,0.5-0.5l0,0      c0.3,0,0.5,0.200001,0.5,0.5c0.4,5.499998,0.6,5.699999,6.1,6.1c0.299999,0,0.5,0.200001,0.5,0.5s-0.200001,0.5-0.5,0.5      c-5.5,0.400002-5.7,0.599998-6.1,6.099998C11.9,40.599998,11.7,40.799999,11.4,40.799999z M8.7,33.700001      C10.3,34.100002,11,34.900002,11.5,36.5c0.4-1.599998,1.2-2.299999,2.8-2.799999C12.7,33.299999,12,32.5,11.5,30.900002      C11,32.599998,10.3,33.299999,8.7,33.700001z"/></g></g><g><g><path class="st9" d="M14.6,23c-0.3,0-0.5-0.200001-0.5-0.5c-0.3-4-0.4-4.1-4.4-4.4c-0.3,0-0.5-0.200001-0.5-0.5s0.2-0.5,0.5-0.5      c4-0.299999,4.1-0.4,4.4-4.4c0-0.3,0.2-0.5,0.5-0.5s0.5,0.2,0.5,0.5c0.3,4,0.4,4.1,4.4,4.4c0.299999,0,0.5,0.200001,0.5,0.5      s-0.200001,0.5-0.5,0.5c-4,0.299999-4.1,0.4-4.4,4.4C15.1,22.799999,14.9,23,14.6,23z M13,17.6      c0.8,0.299999,1.3,0.799999,1.6,1.6c0.3-0.799999,0.8-1.299999,1.6-1.6c-0.8-0.299999-1.3-0.799999-1.6-1.6      C14.3,16.799999,13.8,17.299999,13,17.6z"/></g></g></g></g></svg>