<svg version="1.1" id="Layer_1" xmlns="http://www.w3.org/2000/svg" xmlns:xlink="http://www.w3.org/1999/xlink" x="0px" y="0px" viewBox="0 0 500 500" style="width: 188px;" xml:space="preserve" data-imageid="facetime-3-78" imageName="Facetime 3" class="illustrations_image">
<style type="text/css">
	.st0_facetime-3-78{fill:#68E1FD;}
	.st1_facetime-3-78{fill:#093F68;}
	.st2_facetime-3-78{fill:#FFFFFF;}
	.st3_facetime-3-78{fill:#FFC9B0;}
	.st4_facetime-3-78{fill:#70CC40;}
	.st5_facetime-3-78{fill:#725858;}
	.st6_facetime-3-78{fill:none;}
	.st7_facetime-3-78{fill:#F56132;}
	.st8_facetime-3-78{fill:#FFBC0E;}
</style>
<g id="device_facetime-3-78">
	<path class="st0_facetime-3-78 targetColor" d="M161.4,79.3H347c9.7,0,17.6,7.9,17.6,17.7v307.2c0,9.7-7.9,17.6-17.6,17.6H161.4c-9.7,0-17.6-7.9-17.6-17.6&#10;&#9;&#9;V96.9C143.8,87.2,151.7,79.3,161.4,79.3z" style="fill: rgb(0, 207, 255);"/>
	<path class="st1_facetime-3-78" d="M346.8,423.6H161.7c-10.9,0-19.8-8.9-19.8-19.8V97.2c0-10.9,8.9-19.8,19.8-19.8h185.1&#10;&#9;&#9;c10.9,0,19.8,8.9,19.8,19.8v306.6C366.5,414.8,357.7,423.6,346.8,423.6z M161.7,81.1c-8.9,0-16.1,7.2-16.1,16.1v306.6&#10;&#9;&#9;c0,8.9,7.2,16.1,16.1,16.1h185.1c8.9,0,16.1-7.2,16.1-16.1V97.2c0-8.9-7.2-16.1-16.1-16.1H161.7z"/>
	<path class="st2_facetime-3-78" d="M159.3,113.9h189.8c2.8,0,5.1,2.3,5.1,5.1v257.7c0,2.8-2.3,5.1-5.1,5.1H159.3c-2.8,0-5.1-2.3-5.1-5.1V118.9&#10;&#9;&#9;C154.3,116.1,156.5,113.9,159.3,113.9z"/>
	<path class="st1_facetime-3-78" d="M344.8,383.6H163.6c-6.2,0-11.2-5-11.2-11.2V123.2c0-6.2,5-11.2,11.2-11.2h181.2c6.2,0,11.2,5,11.2,11.2v249.1&#10;&#9;&#9;C356,378.5,351,383.6,344.8,383.6z M163.6,115.7c-4.2,0-7.5,3.4-7.5,7.5v249.1c0,4.2,3.4,7.5,7.5,7.5h181.2c4.2,0,7.5-3.4,7.5-7.5&#10;&#9;&#9;V123.2c0-4.2-3.4-7.5-7.5-7.5H163.6z"/>
	<circle class="st1_facetime-3-78" cx="225.7" cy="98.4" r="2.9"/>
	<path class="st1_facetime-3-78" d="M285.6,100.2h-46.1c-1,0-1.8-0.8-1.8-1.9c0-1,0.8-1.8,1.8-1.8h46.1c1,0,1.8,0.8,1.8,1.9&#10;&#9;&#9;C287.4,99.4,286.6,100.2,285.6,100.2z"/>
	<circle class="st1_facetime-3-78" cx="254.2" cy="400.7" r="12.1"/>
</g>
<g id="character-1_facetime-3-78">
	<path class="st3_facetime-3-78" d="M313.1,316.9c0.5-0.1,7-12.4,7-12.4s-0.2-7.7-0.2-11.5s2.9-4.4,3.8-2.5s1.3,7.3,1.5,7.3s4.5-12.4,5.6-12.9&#10;&#9;&#9;s12.4,5.3,13,9.2c0.3,1.9-1.6,8-3.8,13.9c-0.6,1.6-6.3,5.2-6.3,5.2s-6.6,8.8-8.4,10.8L313.1,316.9z"/>
	<path class="st1_facetime-3-78" d="M325.1,325.8c-0.3,0-0.6-0.1-0.9-0.2l-12-7c-0.6-0.4-1-1.1-0.9-1.8c0.1-0.4,0.3-0.8,0.6-1.1&#10;&#9;&#9;c0.7-1,3.7-6.4,6.5-11.5c-0.1-1.8-0.2-7.8-0.2-11.1s1.9-5,3.4-5.3c1.6-0.3,3.2,0.5,3.9,2c0.2,0.4,0.3,0.9,0.5,1.3&#10;&#9;&#9;c2.5-6.5,3.2-7.4,4.1-7.8c0.6-0.3,1.5-0.7,5.6,1.4c2.2,1.1,9.4,5.1,10,9.1c0.4,2.5-1.9,9.5-3.9,14.8c-0.7,1.9-4.4,4.5-6.8,5.9&#10;&#9;&#9;c-1.1,1.5-6.6,8.8-8.3,10.6C326.1,325.5,325.6,325.7,325.1,325.8z M315.7,316.3l9,5.2c2.5-3,7.3-9.5,7.3-9.5&#10;&#9;&#9;c0.1-0.2,0.3-0.3,0.5-0.5c2.6-1.6,5.2-3.6,5.6-4.3c3-7.9,3.8-12.1,3.7-12.9c-0.3-2-7.5-6.5-10.3-7.4c-1,1.9-2.9,6.9-3.7,9&#10;&#9;&#9;c-1.3,3.4-1.5,3.9-2.9,3.8c-1.6-0.1-1.8-1.3-2-3.1c-0.2-1.7-0.5-3.4-1-5c-0.2,0.5-0.4,1-0.3,1.5c0,3.7,0.2,11.4,0.2,11.5&#10;&#9;&#9;c0,0.3-0.1,0.7-0.2,0.9C318.6,311.3,316.8,314.5,315.7,316.3L315.7,316.3z"/>
	<path class="st1_facetime-3-78" d="M328.5,308.4c-1,0-1.8-0.8-1.9-1.7c-0.3-5-2.7-7.5-2.8-7.6c-0.7-0.7-0.8-1.9,0-2.6c0.7-0.7,1.8-0.8,2.6-0.1&#10;&#9;&#9;c0.1,0.1,3.6,3.5,4,10c0.1,1-0.7,1.9-1.7,2c0,0,0,0,0,0L328.5,308.4z"/>
	<path class="st4_facetime-3-78" d="M312.3,312.5c0,0-5.5,16.7-20.9,21.6c-7.5,2.4-20.4-7.7-27.2-13.9c-7.7-7-17.7-10.9-28.1-10.8&#10;&#9;&#9;c-5.6,0.1-12.6-0.4-20.5-0.5c-14-0.2-37.7,15.8-41.4,25.1c-3.9,9.8-10.5,47.6-10.5,47.6h91.3v-27.9v-9.9c0,0,17.9,25.7,44.9,11&#10;&#9;&#9;c21.5-11.8,27.5-30.8,29.4-33.5L312.3,312.5z"/>
	<path class="st1_facetime-3-78" d="M254.9,383.6h-91.3c-0.5,0-1.1-0.2-1.4-0.7c-0.4-0.4-0.5-1-0.4-1.5c0.3-1.5,6.7-38.2,10.6-48&#10;&#9;&#9;c4.1-10.2,28.8-26.5,43.2-26.3c3.4,0.1,6.7,0.2,9.8,0.3c3.9,0.1,7.6,0.3,10.7,0.2c10.9-0.1,21.4,3.9,29.4,11.2&#10;&#9;&#9;c8.6,7.7,19.7,15.3,25.5,13.5c14.3-4.6,19.6-20.3,19.7-20.5c0.3-1,1.4-1.5,2.3-1.2c0.1,0,0.2,0.1,0.3,0.1l17,8.9&#10;&#9;&#9;c0.9,0.5,1.3,1.6,0.8,2.5c0,0.1-0.1,0.1-0.1,0.2c-0.2,0.3-0.7,1.3-1.1,2.2c-3.1,6.5-10.3,21.7-28.9,31.8&#10;&#9;&#9;c-21.3,11.6-37.3-0.8-43.9-7.6v32.8c0,1-0.8,1.9-1.8,1.9C255,383.6,254.9,383.6,254.9,383.6z M165.8,379.9H253l0.1-35.9&#10;&#9;&#9;c0-0.8,0.5-1.5,1.3-1.8c0.8-0.2,1.6,0,2.1,0.7c0.7,1,17.3,24.1,42.5,10.4c17.5-9.6,24.4-24,27.4-30.2l0.4-0.9l-13.5-7.1&#10;&#9;&#9;c-2,4.8-8.3,16.6-21.3,20.8c-8.5,2.7-21.8-7.8-29-14.3c-7.3-6.7-16.9-10.4-26.9-10.3c-3.2,0-6.9-0.1-10.9-0.2&#10;&#9;&#9;c-3-0.1-6.3-0.2-9.7-0.3c-13.8-0.3-36.4,15.7-39.7,24C172.6,342.9,167.3,371.7,165.8,379.9z"/>
	<path class="st5_facetime-3-78" d="M207.6,199L207.6,199c27.5-3.6,52.7,15.8,56.3,43.3l0,0l4,30.1l0,0l-99.6,13.1l0,0l-4-30.1&#10;&#9;&#9;C160.8,227.8,180.1,202.6,207.6,199C207.6,199,207.6,199,207.6,199z"/>
	<path class="st1_facetime-3-78" d="M168.5,287.8c-0.4,0-0.8-0.1-1.1-0.4c-0.4-0.3-0.6-0.7-0.7-1.2l-4.5-34.6c-3.4-26.1,15-50,41.1-53.4l8.9-1.2&#10;&#9;&#9;c26.1-3.4,50,15,53.4,41.1l4.5,34.6c0.1,1-0.6,1.9-1.6,2.1c0,0,0,0,0,0l-99.8,13L168.5,287.8z M203.7,201.8&#10;&#9;&#9;c-24.1,3.2-41,25.2-37.9,49.3l4.3,32.8l96.1-12.6l-4.3-32.8c-3.2-24.1-25.2-41-49.3-37.9L203.7,201.8L203.7,201.8z M203.4,200&#10;&#9;&#9;L203.4,200z"/>
	<path class="st3_facetime-3-78" d="M216,315.6l14.5-1.9l0,0l1.5,11.2c0.2,1.8-1.1,3.5-2.9,3.8l-7.9,1c-1.8,0.2-3.5-1.1-3.8-2.9L216,315.6&#10;&#9;&#9;L216,315.6z"/>
	<path class="st1_facetime-3-78" d="M223.2,331.3c-4,0-7.5-3-8-7l-1.1-8.4c-0.1-1,0.6-1.9,1.6-2.1l14.5-1.9c1-0.1,1.9,0.6,2.1,1.6l1.1,8.4&#10;&#9;&#9;c0.5,4.4-2.6,8.4-7,9l0,0l-2.2,0.3C223.9,331.2,223.6,331.3,223.2,331.3z M226.2,329.1L226.2,329.1z M218,317.2l0.9,6.5&#10;&#9;&#9;c0.3,2.4,2.5,4.1,4.9,3.8l2.2-0.3c2.4-0.3,4.1-2.5,3.8-4.9l-0.9-6.5L218,317.2z"/>
	
		<ellipse transform="matrix(0.9916 -0.1297 0.1297 0.9916 -35.1238 25.3084)" class="st3_facetime-3-78" cx="176.8" cy="282.4" rx="14.2" ry="12.3"/>
	<path class="st1_facetime-3-78" d="M176.2,296.5c-3.3,0-6.5-0.9-9.3-2.7c-6.1-3.7-8-11.7-4.3-17.8c0.5-0.8,1.1-1.5,1.7-2.2&#10;&#9;&#9;c5.8-6.2,15.2-7.4,22.3-2.8c6.1,3.7,8,11.7,4.3,17.8c-0.5,0.8-1.1,1.5-1.7,2.2c-2.8,3-6.6,5-10.6,5.5&#10;&#9;&#9;C177.8,296.5,177,296.6,176.2,296.5z M177.4,272c-0.6,0-1.3,0-1.9,0.1c-3.2,0.4-6.2,1.9-8.4,4.3c-3.5,3.7-3.4,9.5,0.2,13.1&#10;&#9;&#9;c0.5,0.5,1.1,0.9,1.7,1.3c5.7,3.5,13,2.5,17.6-2.3c1.9-2.1,2.9-4.9,2.6-7.7l0,0c-0.4-2.8-2-5.3-4.4-6.8&#10;&#9;&#9;C182.5,272.7,180,272,177.4,272z"/>
	
		<ellipse transform="matrix(0.9916 -0.1297 0.1297 0.9916 -33.0347 35.8834)" class="st3_facetime-3-78" cx="259.1" cy="271.6" rx="14.2" ry="12.3"/>
	<path class="st1_facetime-3-78" d="M258.5,285.8c-3.3,0-6.5-0.9-9.3-2.7c-6.1-3.7-8-11.7-4.3-17.8c0.5-0.8,1.1-1.5,1.7-2.2&#10;&#9;&#9;c5.8-6.2,15.2-7.4,22.3-2.9c6.1,3.7,8,11.7,4.3,17.8c-0.5,0.8-1.1,1.5-1.7,2.2c-2.8,3-6.6,5-10.6,5.5&#10;&#9;&#9;C260.1,285.7,259.3,285.8,258.5,285.8z M259.6,261.2c-0.6,0-1.3,0-1.9,0.1c-3.2,0.4-6.2,1.9-8.4,4.3c-3.6,3.7-3.5,9.5,0.2,13.1&#10;&#9;&#9;c0.5,0.5,1.1,1,1.7,1.3c5.7,3.5,13,2.5,17.6-2.3c1.9-2.1,2.9-4.9,2.5-7.7l0,0c-0.4-2.8-2-5.3-4.4-6.8&#10;&#9;&#9;C264.7,261.9,262.2,261.2,259.6,261.2L259.6,261.2z"/>
	<path class="st3_facetime-3-78" d="M223.5,316.6L223.5,316.6c-23.5,3.1-45-13.5-48.1-37c0,0,0,0,0,0l-5.1-39.4c0,0,22.9-2.5,46.1-5.6&#10;&#9;&#9;s39-5.6,39-5.6l5.1,39.4C263.5,292,247,313.5,223.5,316.6C223.5,316.6,223.5,316.6,223.5,316.6z"/>
	<path class="st1_facetime-3-78" d="M217.9,318.8c-22.5,0-41.4-16.7-44.4-39l-5.2-39.4c-0.1-0.5,0.1-1,0.4-1.4c0.3-0.4,0.8-0.6,1.3-0.7&#10;&#9;&#9;c0.2,0,23.1-2.5,46-5.6s38.8-5.5,39-5.6c1-0.2,1.9,0.5,2.1,1.5c0,0,0,0,0,0.1l5.2,39.4c3.2,24.5-14.1,47-38.6,50.2&#10;&#9;&#9;C221.8,318.7,219.8,318.8,217.9,318.8z M172.3,241.8l4.9,37.5c3.2,22.5,24,38,46.5,34.8c22.1-3.2,37.6-23.3,34.9-45.5l-4.9-37.5&#10;&#9;&#9;c-4.9,0.7-18.8,2.8-37.2,5.3C197.4,239,178.3,241.2,172.3,241.8L172.3,241.8z"/>
	<circle class="st1_facetime-3-78" cx="197.4" cy="270.4" r="4"/>
	<circle class="st1_facetime-3-78" cx="238.1" cy="265.1" r="4"/>
	<path class="st1_facetime-3-78" d="M215.6,283.2c-0.4,0-0.7,0-0.7,0c-1,0-1.8-0.9-1.8-1.9c0.1-1,0.9-1.8,1.9-1.8c1.7,0.1,3.5-0.1,5.2-0.5&#10;&#9;&#9;c-0.3-1.5-2.2-5-4.4-8.1c-0.5-0.9-0.2-2,0.7-2.5c0.8-0.4,1.7-0.3,2.3,0.4c2.2,3.2,5.8,8.9,4.9,11.7c-0.2,0.8-0.8,1.5-1.6,1.8&#10;&#9;&#9;C220.1,282.9,217.9,283.2,215.6,283.2z"/>
	<path class="st1_facetime-3-78" d="M184.9,262c-2,0-3.7-1.7-3.7-3.7c0-1.9,1.4-3.4,3.2-3.7l18.8-2.4c2-0.4,3.9,1,4.3,3s-1,3.9-3,4.3&#10;&#9;&#9;c-0.1,0-0.3,0-0.4,0l-18.8,2.5H184.9z"/>
	<path class="st1_facetime-3-78" d="M230.6,256.5c-2,0-3.7-1.7-3.6-3.8c0-1.7,1.3-3.2,3-3.6l18.6-3.4c2-0.4,3.9,1,4.3,3c0.4,2-1,3.9-3,4.3&#10;&#9;&#9;l-18.6,3.4C231,256.5,230.8,256.5,230.6,256.5z"/>
	<path class="st1_facetime-3-78" d="M230,286.6l-20.6,3.6c0,0,3.2,13.3,10.9,14.8C227,306.2,230.3,302.2,230,286.6z"/>
	<path class="st1_facetime-3-78" d="M222.4,307c-0.8,0-1.7-0.1-2.5-0.2c-8.8-1.6-12.2-15.5-12.3-16.1c-0.2-1,0.4-2,1.4-2.2c0,0,0,0,0.1,0l20.6-3.6&#10;&#9;&#9;c0.5-0.1,1.1,0.1,1.5,0.4c0.4,0.3,0.7,0.8,0.7,1.4c0.2,10.2-1.1,16-4.3,18.7C226.1,306.4,224.3,307.1,222.4,307z M211.7,291.6&#10;&#9;&#9;c1.3,4,4.4,10.6,8.8,11.5c2.8,0.5,3.9-0.2,4.6-0.7c2-1.7,3-6.2,3-13.6L211.7,291.6z"/>
	<line class="st6_facetime-3-78" x1="193.6" y1="381.2" x2="196.9" y2="340"/>
	<path class="st1_facetime-3-78" d="M193.6,383.1h-0.1c-1-0.1-1.8-0.9-1.7-2c0,0,0,0,0,0l3.3-41.3c0.1-1,1-1.8,2-1.7s1.8,1,1.7,2l0,0l-3.3,41.3&#10;&#9;&#9;C195.4,382.3,194.6,383.1,193.6,383.1z"/>
</g>
<g id="button_facetime-3-78">
	<circle class="st7_facetime-3-78" cx="254.2" cy="350.4" r="23.6"/>
	<path class="st1_facetime-3-78" d="M254.2,375.8c-14,0-25.4-11.4-25.4-25.4c0-14,11.4-25.4,25.4-25.4c14,0,25.4,11.4,25.4,25.4&#10;&#9;&#9;C279.6,364.4,268.2,375.8,254.2,375.8z M254.2,328.6c-12,0-21.7,9.7-21.7,21.7c0,12,9.7,21.7,21.7,21.7s21.7-9.7,21.7-21.7&#10;&#9;&#9;C275.9,338.4,266.2,328.7,254.2,328.6z"/>
	<path class="st2_facetime-3-78" d="M240.9,346.3c1.2-1.4,2.8-2.5,4.6-3.1c2.2-0.8,4.5-1.3,6.9-1.4c2-0.1,4-0.1,6,0.1c1.8,0.2,3.7,0.6,5.4,1.4&#10;&#9;&#9;c2,0.8,3.6,2.2,4.7,4c0.8,1.4,1.2,2.9,1.1,4.5c0,0.6,0,1.1,0,1.7c-0.1,0.9-0.8,1.5-1.7,1.6c-1.2,0.1-2.4,0-3.6-0.3&#10;&#9;&#9;c-0.7-0.1-1.5-0.3-2.1-0.6c-0.9-0.4-1.5-1.4-1.5-2.5c0-0.7,0-1.4,0-2c0.1-0.8-0.4-1.6-1.2-2c-1-0.5-2.1-0.7-3.2-0.8&#10;&#9;&#9;c-1.8-0.1-3.6-0.1-5.3,0.2c-0.8,0.1-1.6,0.4-2.3,0.9c-0.6,0.4-0.9,1.2-0.9,1.9c0,0.7,0.1,1.4,0.1,2.1c0,1.1-0.7,2.2-1.8,2.6&#10;&#9;&#9;c-1.1,0.4-2.3,0.7-3.4,0.8c-0.6,0.1-1.3,0.1-1.9,0.1c-1,0-1.8-0.7-1.8-1.7c0-0.1,0-0.1,0-0.2c0-0.9-0.1-1.7,0-2.6&#10;&#9;&#9;c0.1-1.4,0.5-2.8,1.3-3.9C240.5,346.9,240.7,346.6,240.9,346.3z"/>
</g>
<g id="character-2_facetime-3-78">
	<rect x="257.7" y="121.9" class="st2_facetime-3-78" width="87.1" height="87.1"/>
	<path class="st1_facetime-3-78" d="M344.8,210.9h-87.1c-1,0-1.9-0.8-1.9-1.8v0v-87.1c0-1,0.8-1.8,1.9-1.8l0,0h87.1c1,0,1.8,0.8,1.8,1.8&#10;&#9;&#9;c0,0,0,0,0,0V209C346.7,210,345.9,210.9,344.8,210.9C344.8,210.9,344.8,210.9,344.8,210.9z M259.6,207.2H343v-83.4h-83.4&#10;&#9;&#9;L259.6,207.2z"/>
	<path class="st5_facetime-3-78" d="M311.4,131.7c0,0,22-2.9,24.7,12.6s-0.9,46.3-0.9,46.3l-62.9-2.6c0,0-1.2-22.3-0.2-42.1&#10;&#9;&#9;C272.9,130.6,301.4,118.6,311.4,131.7z"/>
	<path class="st1_facetime-3-78" d="M335.3,192.5L335.3,192.5l-63-2.6c-1,0-1.7-0.8-1.8-1.8c0-0.2-1.2-22.6-0.2-42.2c0.5-9.8,10.4-17.4,19.5-20.2&#10;&#9;&#9;c9.3-2.9,17.6-1.4,22.5,4c8.5-0.8,23.4,1.2,25.8,14.3c2.8,15.6-0.7,45.6-0.9,46.9C337,191.8,336.2,192.5,335.3,192.5z M274.1,186.3&#10;&#9;&#9;l59.5,2.4c0.7-6.6,3-31.1,0.7-44.1c-1-5.6-5-9.2-11.9-10.6c-3.6-0.7-7.2-0.9-10.8-0.5c-0.7,0.1-1.3-0.2-1.7-0.7&#10;&#9;&#9;c-3.7-4.8-10.9-6.2-19.1-3.6c-8.2,2.6-16.5,9.2-16.9,16.9C273.2,162.4,273.9,180.7,274.1,186.3z"/>
	<path class="st8_facetime-3-78" d="M293.3,188.3h20.2c7,0,12.7,5.7,12.7,12.7v7.3l0,0h-45.3l0,0v-7.6C280.9,193.9,286.4,188.3,293.3,188.3z"/>
	<path class="st1_facetime-3-78" d="M326.1,210.2h-45.3c-1,0-1.9-0.8-1.9-1.8v0V199c0-6.9,5.6-12.5,12.5-12.5h20.3c6.5,0,16.2,5.2,16.2,12.5v9.4&#10;&#9;&#9;C328,209.4,327.2,210.2,326.1,210.2z M282.7,206.5h41.6V199c0-4.4-7.1-8.8-12.5-8.8h-20.3c-4.9,0-8.8,3.9-8.8,8.8L282.7,206.5z"/>
	<path class="st3_facetime-3-78" d="M302.7,194.1h-4.2c-1,0-1.8-0.8-1.8-1.8v-5.9l0,0h7.7l0,0v5.9C304.5,193.3,303.7,194.1,302.7,194.1z"/>
	<path class="st1_facetime-3-78" d="M301.2,196H300c-2.8,0-5.1-2.3-5.1-5.1v-4.5c0-1,0.8-1.9,1.9-1.9l0,0h7.7c1,0,1.9,0.8,1.9,1.8v0v4.4&#10;&#9;&#9;C306.3,193.7,304,196,301.2,196C301.2,196,301.2,196,301.2,196z M298.6,188.3v2.6c0,0.8,0.6,1.4,1.4,1.4h1.2c0.8,0,1.4-0.6,1.4-1.4&#10;&#9;&#9;v-2.6H298.6z"/>
	<ellipse class="st3_facetime-3-78" cx="280.6" cy="167.2" rx="5.8" ry="6.4"/>
	<path class="st1_facetime-3-78" d="M280.6,175.5c-4.2,0-7.6-3.7-7.6-8.3s3.4-8.3,7.6-8.3s7.6,3.7,7.6,8.3S284.9,175.5,280.6,175.5z M280.6,162.6&#10;&#9;&#9;c-2.2,0-3.9,2.1-3.9,4.6s1.8,4.6,3.9,4.6s3.9-2.1,3.9-4.6S282.8,162.6,280.6,162.6z"/>
	<path class="st3_facetime-3-78" d="M300.8,188.2c12.7,0,24-15.6,24-28.1l-3,1.1c0,0-15.8-13-13.7-20.4c0,0-4.7,5.5-11.4,5.5&#10;&#9;&#9;c-12.3,0-17.1-3.3-17.1-3.3v22.6C279.7,178.1,288.2,188.2,300.8,188.2z"/>
	<path class="st1_facetime-3-78" d="M300.8,190.1c-13.1,0-23-10.5-23-24.4v-22.6c0-0.7,0.4-1.3,1-1.6c0.6-0.3,1.3-0.3,1.9,0.1c0,0,4.7,2.9,16.1,3&#10;&#9;&#9;l0,0c5.7,0,9.9-4.8,9.9-4.9c0.7-0.8,1.8-0.9,2.6-0.2c0.6,0.5,0.8,1.2,0.6,1.9c-1.2,4.3,6.6,12.9,12.3,17.8l2-0.8&#10;&#9;&#9;c0.6-0.2,1.2-0.1,1.7,0.2c0.5,0.3,0.8,0.9,0.8,1.5C326.7,176.2,312.5,190.1,300.8,190.1z M281.5,146v19.7c0,12,8.1,20.7,19.3,20.7&#10;&#9;&#9;c10.5,0,20.5-12.6,22-23.5l-0.3,0.1c-0.6,0.2-1.3,0.1-1.8-0.3c-1.4-1.2-12-10.1-14.2-17.9c-2.8,2.1-6.2,3.3-9.7,3.4l0,0&#10;&#9;&#9;C289.2,148.2,284.3,147,281.5,146z"/>
	<ellipse class="st1_facetime-3-78" cx="309.4" cy="162.4" rx="2.1" ry="2.1"/>
	<circle class="st1_facetime-3-78" cx="288.9" cy="162.4" r="2.1"/>
	<path class="st1_facetime-3-78" d="M296.5,170.3c-0.7,0-1.3-0.1-2-0.2c-0.7-0.2-1.3-0.7-1.5-1.3c-0.2-0.5-0.9-2,1.8-7.2c0.5-0.9,1.6-1.2,2.5-0.7&#10;&#9;&#9;c0.9,0.5,1.2,1.6,0.8,2.4c-0.6,1.1-1,2.2-1.4,3.3c0.5,0,1,0,1.5-0.1c1-0.2,2,0.5,2.1,1.5c0.2,1-0.5,2-1.5,2.1&#10;&#9;&#9;C298,170.2,297.2,170.3,296.5,170.3z M296.4,167.6L296.4,167.6z"/>
	<path class="st1_facetime-3-78" d="M312.2,157.9h-0.2l-9.9-0.9c-1,0-1.8-0.9-1.8-1.9c0-1,0.9-1.8,1.9-1.8c0.1,0,0.1,0,0.2,0l9.9,0.9&#10;&#9;&#9;c1,0.1,1.8,1,1.7,2C313.9,157.2,313.2,157.9,312.2,157.9L312.2,157.9z"/>
	<path class="st1_facetime-3-78" d="M293.5,156.8L293.5,156.8l-10.1-0.5c-1-0.1-1.8-0.9-1.8-1.9c0.1-1,0.9-1.8,1.9-1.8l10,0.5c1,0.1,1.8,1,1.7,2&#10;&#9;&#9;C295.2,156,294.4,156.7,293.5,156.8L293.5,156.8z"/>
	<path class="st3_facetime-3-78" d="M320.3,161.7c0,0,5.5-3.8,8.5,1.1s0.1,13.3-9,10.9"/>
	<path class="st1_facetime-3-78" d="M322.9,175.9c-1.2,0-2.4-0.2-3.5-0.5c-1-0.3-1.6-1.3-1.3-2.3s1.3-1.6,2.3-1.3c3,0.8,5.4,0.3,6.7-1.5&#10;&#9;&#9;c1.4-2,1.5-4.6,0.2-6.6c-0.4-0.8-1.1-1.4-2-1.6c-1.4-0.1-2.8,0.2-3.9,1c-0.9,0.5-2,0.1-2.5-0.8c-0.4-0.7-0.2-1.6,0.4-2.2&#10;&#9;&#9;c0.3-0.2,3.5-2.3,6.8-1.6c1.8,0.4,3.4,1.6,4.3,3.2c2,3.4,1.8,7.6-0.4,10.8C328.3,174.8,325.6,176,322.9,175.9z"/>
	<path class="st1_facetime-3-78" d="M298.7,179.7c-0.3,0-0.7,0-1,0c-5.1-0.5-8.2-4.8-8.3-5c-0.6-0.8-0.4-2,0.5-2.6c0.8-0.6,2-0.4,2.6,0.5l0,0&#10;&#9;&#9;c1.4,1.8,3.4,3.1,5.6,3.4c2.5,0.2,5.1-1,7.9-3.7c0.8-0.7,1.9-0.6,2.6,0.1c0.7,0.7,0.7,1.8,0,2.5C305.3,178.1,302,179.7,298.7,179.7&#10;&#9;&#9;z"/>
	<polygon class="st8_facetime-3-78" points="278.9,208.4 275.9,197.7 265.9,200.1 266.9,208.4 &#9;"/>
	<path class="st1_facetime-3-78" d="M278.9,210.2h-12c-0.9,0-1.7-0.7-1.8-1.6l-1-8.3c-0.1-0.9,0.5-1.8,1.4-2l10-2.4c1-0.2,2,0.3,2.2,1.3l3,10.7&#10;&#9;&#9;c0.3,1-0.3,2-1.3,2.3C279.2,210.2,279.1,210.2,278.9,210.2L278.9,210.2z M268.5,206.5h7.9l-1.8-6.6l-6.6,1.6L268.5,206.5z"/>
	<path class="st3_facetime-3-78" d="M275.9,197.7c0,0-0.5-6.6-0.6-7.4c-0.2-2-2.5-0.6-2.5-0.6s1.1-4.5-0.3-5.2s-6.5,0.6-7.1,2.5&#10;&#9;&#9;c-0.8,2.3,0.5,13.2,0.5,13.2L275.9,197.7z"/>
	<path class="st1_facetime-3-78" d="M265.9,202c-0.4,0-0.7-0.1-1-0.3c-0.4-0.3-0.7-0.8-0.8-1.3c-0.3-2.7-1.3-11.6-0.4-14.1c0.6-1.5,2.2-2.5,3.5-3&#10;&#9;&#9;c1.5-0.6,4.4-1.4,6.2-0.5s1.9,2.8,1.8,4.7c0.2,0.1,0.3,0.1,0.5,0.2c0.9,0.5,1.5,1.4,1.6,2.5c0.1,0.9,0.5,6.8,0.6,7.5&#10;&#9;&#9;c0.1,0.9-0.5,1.7-1.4,1.9l-10,2.4C266.2,202,266.1,202,265.9,202z M271.4,186c-1.2,0-3.8,0.9-4.2,1.5c-0.3,0.9-0.1,5.7,0.4,10.3&#10;&#9;&#9;l6.5-1.6c-0.1-1.6-0.3-3.8-0.4-4.9c-0.6,0.3-1.3,0.2-1.8-0.2c-0.6-0.5-0.9-1.3-0.7-2c0.3-1,0.4-2.1,0.4-3.1L271.4,186z"/>
	<path class="st1_facetime-3-78" d="M270.4,194c-0.1,0-0.3,0-0.4,0c-1-0.2-1.6-1.2-1.4-2.2c0,0,0,0,0,0c0.5-1.9,1.9-3.3,3.8-3.9&#10;&#9;&#9;c1-0.3,2,0.2,2.3,1.2c0.3,1-0.2,2-1.2,2.3c-0.3,0.1-1.2,0.5-1.3,1.2C272,193.4,271.2,194,270.4,194z"/>
</g>
<g id="speech-bubble-2_facetime-3-78">
	<path class="st2_facetime-3-78" d="M196.1,125.4H122c-5.2,0-9.3,4.2-9.3,9.3v41.1c0,5.2,4.2,9.3,9.3,9.3h55.4l8.4,11v-11h10.3&#10;&#9;&#9;c5.2,0,9.3-4.2,9.3-9.3v-41.1C205.5,129.5,201.3,125.4,196.1,125.4C196.1,125.4,196.1,125.4,196.1,125.4z"/>
	<path class="st1_facetime-3-78" d="M185.7,197.9c-0.6,0-1.1-0.3-1.5-0.7l-7.9-10.2H122c-6.2,0-11.2-5-11.2-11.2v-41.1c0-6.2,5-11.2,11.2-11.2&#10;&#9;&#9;h74.1c6.2,0,11.2,5,11.2,11.2v41.1c0,6.2-5,11.2-11.2,11.2c0,0,0,0-0.1,0h-8.5v9.1c0,0.8-0.5,1.5-1.3,1.8&#10;&#9;&#9;C186.1,197.9,185.9,197.9,185.7,197.9z M122,127.2c-4.1,0-7.5,3.4-7.5,7.5v41.1c0,4.1,3.4,7.5,7.5,7.5h55.4c0.6,0,1.1,0.3,1.5,0.7&#10;&#9;&#9;l5.1,6.6v-5.5c0-1,0.8-1.9,1.8-1.9h0h10.3c4.1,0,7.5-3.3,7.5-7.5v-41.1c0-4.1-3.4-7.5-7.5-7.5H122z"/>
	<path class="st0_facetime-3-78 targetColor" d="M145,142.7h-5.7c-10.3,0-10.3,0-10.8-1.4l3.5-1.1l-1.8,0.5l0.2-1.8c1.8,0.2,35.1,0.1,57.1,0l0,0&#10;&#9;&#9;c1,0,1.8,0.8,1.8,1.9c0,1-0.8,1.8-1.8,1.8c0,0-14.3,0.1-28.7,0.1L145,142.7z" style="fill: rgb(0, 207, 255);"/>
	<path class="st0_facetime-3-78 targetColor" d="M145,155.9h-5.7c-10.3,0-10.3,0-10.8-1.4l3.5-1.1l-1.8,0.5l0.2-1.8c1.8,0.2,35.2,0.1,57.1,0&#10;&#9;&#9;c1,0,1.9,0.8,1.9,1.8s-0.8,1.9-1.8,1.9c0,0,0,0,0,0c0,0-14.3,0.1-28.7,0.1L145,155.9z" style="fill: rgb(0, 207, 255);"/>
	<path class="st0_facetime-3-78 targetColor" d="M141.4,169c-12.4,0-12.4-0.2-12.8-1.4c-0.3-0.8,0-1.6,0.6-2.1c0.4-0.3,1-0.4,1.5-0.3c2.4,0.1,26.3,0.1,42,0&#10;&#9;&#9;l0,0c1-0.1,1.9,0.7,2,1.7s-0.7,1.9-1.7,2c-0.1,0-0.2,0-0.3,0c0,0-10.6,0.1-21.2,0.1L141.4,169z" style="fill: rgb(0, 207, 255);"/>
	<path class="st0_facetime-3-78 targetColor" d="M130.4,138.9h57.3c1.1,0,1.9,0.9,1.9,1.9l0,0c0,1.1-0.9,1.9-1.9,1.9h-57.3c-1.1,0-1.9-0.9-1.9-1.9l0,0&#10;&#9;&#9;C128.5,139.8,129.3,138.9,130.4,138.9z" style="fill: rgb(0, 207, 255);"/>
	<path class="st0_facetime-3-78 targetColor" d="M130.4,152h57.3c1.1,0,1.9,0.9,1.9,1.9l0,0c0,1.1-0.9,1.9-1.9,1.9h-57.3c-1.1,0-1.9-0.9-1.9-1.9l0,0&#10;&#9;&#9;C128.5,152.9,129.3,152,130.4,152z" style="fill: rgb(0, 207, 255);"/>
</g>
<g id="speech-buuble-1_facetime-3-78">
	<path class="st2_facetime-3-78" d="M379.4,227h-37.8l-7.2-9.4v9.4h-5.5c-4.4,0-8,3.6-8,8v35c0,4.4,3.6,8,8,8h50.5c4.4,0,8-3.6,8-8v-35.1&#10;&#9;&#9;C387.4,230.5,383.8,227,379.4,227z"/>
	<path class="st1_facetime-3-78" d="M379.4,279.8h-50.5c-5.4,0-9.8-4.4-9.8-9.8v-35c0-5.4,4.4-9.8,9.8-9.8h3.7v-7.5c0-1,0.8-1.8,1.9-1.8&#10;&#9;&#9;c0.6,0,1.1,0.3,1.5,0.7l6.6,8.6h36.9c5.4,0,9.8,4.4,9.8,9.8V270C389.2,275.4,384.8,279.8,379.4,279.8z M328.9,228.8&#10;&#9;&#9;c-3.4,0-6.1,2.7-6.1,6.1V270c0,3.4,2.7,6.1,6.1,6.1h50.5c3.4,0,6.1-2.7,6.1-6.1v-35.1c0-3.4-2.7-6.1-6.1-6.1h-37.8&#10;&#9;&#9;c-0.6,0-1.1-0.3-1.5-0.7l-3.9-5v3.9c0,1-0.8,1.9-1.9,1.9l0,0L328.9,228.8z"/>
	<path class="st0_facetime-3-78 targetColor" d="M337.9,245.9h37.3c1.1,0,1.9,0.9,1.9,1.9l0,0c0,1.1-0.9,1.9-1.9,1.9h-37.3c-1.1,0-1.9-0.9-1.9-1.9l0,0&#10;&#9;&#9;C336,246.8,336.8,245.9,337.9,245.9z" style="fill: rgb(0, 207, 255);"/>
	<path class="st0_facetime-3-78 targetColor" d="M337.9,257.2h27.3c1.1,0,1.9,0.9,1.9,1.9l0,0c0,1.1-0.9,1.9-1.9,1.9h-27.3c-1.1,0-1.9-0.9-1.9-1.9l0,0&#10;&#9;&#9;C336,258.1,336.8,257.2,337.9,257.2z" style="fill: rgb(0, 207, 255);"/>
</g>
</svg>