<svg id="_0021_video_call" xmlns="http://www.w3.org/2000/svg" xmlns:xlink="http://www.w3.org/1999/xlink" viewBox="0 0 500 500" data-imageid="facetime-3-41" imageName="Facetime 3" class="illustrations_image" style="width: 188px;"><defs><style>.cls-1_facetime-3-41{fill:url(#linear-gradient);}.cls-1_facetime-3-41,.cls-2_facetime-3-41,.cls-3_facetime-3-41,.cls-4_facetime-3-41,.cls-5_facetime-3-41,.cls-6_facetime-3-41,.cls-7_facetime-3-41,.cls-8_facetime-3-41,.cls-9_facetime-3-41,.cls-10_facetime-3-41,.cls-11_facetime-3-41,.cls-12_facetime-3-41,.cls-13_facetime-3-41,.cls-14_facetime-3-41,.cls-15_facetime-3-41,.cls-16_facetime-3-41,.cls-17_facetime-3-41,.cls-18_facetime-3-41{stroke-width:0px;}.cls-2_facetime-3-41{isolation:isolate;opacity:.18;}.cls-2_facetime-3-41,.cls-18_facetime-3-41{fill:#68e1fd;}.cls-3_facetime-3-41{fill:url(#linear-gradient-11-facetime-3-41);}.cls-4_facetime-3-41{fill:url(#linear-gradient-12-facetime-3-41);}.cls-5_facetime-3-41{fill:url(#linear-gradient-13-facetime-3-41);}.cls-6_facetime-3-41{fill:url(#linear-gradient-10-facetime-3-41);}.cls-7_facetime-3-41{fill:url(#linear-gradient-4-facetime-3-41);}.cls-8_facetime-3-41{fill:url(#linear-gradient-2-facetime-3-41);}.cls-9_facetime-3-41{fill:url(#linear-gradient-3-facetime-3-41);}.cls-10_facetime-3-41{fill:url(#linear-gradient-8-facetime-3-41);}.cls-11_facetime-3-41{fill:url(#linear-gradient-9-facetime-3-41);}.cls-12_facetime-3-41{fill:url(#linear-gradient-7-facetime-3-41);}.cls-13_facetime-3-41{fill:url(#linear-gradient-5-facetime-3-41);}.cls-14_facetime-3-41{fill:url(#linear-gradient-6-facetime-3-41);}.cls-15_facetime-3-41{fill:#231f20;}.cls-16_facetime-3-41{fill:#fff;}.cls-17_facetime-3-41{fill:#ffb4a3;}</style><linearGradient id="linear-gradient-facetime-3-41" x1="-986.47" y1="5481.08" x2="-978.78" y2="5319.51" gradientTransform="translate(1235.83 5888.65) scale(1 -1)" gradientUnits="userSpaceOnUse"><stop offset="0" stop-color="#231f20" stop-opacity="0"/><stop offset="1" stop-color="#231f20"/></linearGradient><linearGradient id="linear-gradient-2-facetime-3-41" x1="-1042.89" y1="5860.33" x2="-1036.57" y2="5463.48" gradientTransform="translate(1289 5888.65) scale(1 -1)" gradientUnits="userSpaceOnUse"><stop offset="0" stop-color="#fff"/><stop offset="1" stop-color="#fff" stop-opacity="0"/></linearGradient><linearGradient id="linear-gradient-3-facetime-3-41" x1="-928.85" y1="5650.71" x2="-990.3" y2="5446.36" gradientTransform="translate(1235.83 5888.65) scale(1 -1)" gradientUnits="userSpaceOnUse"><stop offset="0" stop-color="#fff"/><stop offset=".89" stop-color="#fff" stop-opacity="0"/></linearGradient><linearGradient id="linear-gradient-4-facetime-3-41" x1="-1042.2" y1="5571.67" x2="-1042.85" y2="5408.83" gradientTransform="translate(1289 5888.65) scale(1 -1)" xlink:href="#linear-gradient-facetime-3-41"/><linearGradient id="linear-gradient-5-facetime-3-41" x1="-1038.62" y1="5643.48" x2="-1042.46" y2="5467.18" gradientTransform="translate(1289 5888.65) scale(1 -1)" gradientUnits="userSpaceOnUse"><stop offset="0" stop-color="#fff"/><stop offset=".6" stop-color="#fff" stop-opacity=".48"/><stop offset=".87" stop-color="#fff" stop-opacity=".13"/><stop offset="1" stop-color="#fff" stop-opacity="0"/></linearGradient><linearGradient id="linear-gradient-6-facetime-3-41" x1="-1039.76" y1="5571.66" x2="-1040.4" y2="5408.81" gradientTransform="translate(1289 5888.65) scale(1 -1)" xlink:href="#linear-gradient-facetime-3-41"/><linearGradient id="linear-gradient-7-facetime-3-41" x1="-1036.07" y1="5635.8" x2="-1039.92" y2="5459.49" xlink:href="#linear-gradient-2-facetime-3-41"/><linearGradient id="linear-gradient-8-facetime-3-41" x1="-1032.36" y1="5533.19" x2="-1039.41" y2="5297.26" gradientTransform="translate(1289 5888.65) scale(1 -1)" xlink:href="#linear-gradient-facetime-3-41"/><linearGradient id="linear-gradient-9-facetime-3-41" x1="-1150.63" y1="5796.73" x2="-1158.61" y2="5635.64" xlink:href="#linear-gradient-2-facetime-3-41"/><linearGradient id="linear-gradient-10-facetime-3-41" x1="134.86" y1="169.9" x2="137.79" y2="127.88" gradientTransform="matrix(1,0,0,1,0,0)" xlink:href="#linear-gradient-facetime-3-41"/><linearGradient id="linear-gradient-11-facetime-3-41" x1="-980.44" y1="5633.85" x2="-982.34" y2="5408.22" xlink:href="#linear-gradient-facetime-3-41"/><linearGradient id="linear-gradient-12-facetime-3-41" x1="-905.59" y1="5612.66" x2="-926.37" y2="5490.2" gradientTransform="translate(1289 5888.65) scale(1 -1)" xlink:href="#linear-gradient-facetime-3-41"/><linearGradient id="linear-gradient-13-facetime-3-41" x1="251.3" y1="276.24" x2="252.28" y2="132.24" gradientTransform="matrix(1,0,0,1,0,0)" xlink:href="#linear-gradient-facetime-3-41"/></defs><path id="background_facetime-3-41" class="cls-2_facetime-3-41 targetColor" d="M46.94,368.41S1.61,345.93,10.96,287.91c9.35-58.02,101.1-108.61,137.12-146.56,36.02-37.94,73.34-103.17,169.83-99.18,96.49,3.99,95.19,68.67,140.46,92.25,45.26,23.58,2.66,105.5,6.66,125.12,4,19.62,55.08,78.89-6.41,119.82-61.49,40.94-411.67-10.96-411.67-10.96Z" style="fill: rgb(0, 207, 255);"/><g id="laptop_facetime-3-41"><path class="cls-18_facetime-3-41 targetColor" d="M10.96,425.71v17.19s2.19,10.76,22.24,10.17c20.06-.59,444.08,0,444.08,0,0,0,10.85-1.77,13.02-10.61v-16.75H10.96Z" style="fill: rgb(0, 207, 255);"/><path class="cls-1_facetime-3-41" d="M10.96,425.71v17.19s2.19,10.76,22.24,10.17c20.06-.59,444.08,0,444.08,0,0,0,10.85-1.77,13.02-10.61v-16.75H10.96Z"/><path class="cls-18_facetime-3-41 targetColor" d="M429.37,339.89H65.91c-8.61,0-15.59-6.97-15.59-14.91V102.63c0-9.28,6.98-16.27,15.59-16.27h363.46c8.6.02,15.56,6.99,15.56,15.59v222.35c0,8.6-6.96,15.57-15.56,15.58Z" style="fill: rgb(0, 207, 255);"/><rect class="cls-18_facetime-3-41 targetColor" x="59.49" y="95.53" width="376.15" height="230.57" rx="14.51" ry="14.51" style="fill: rgb(0, 207, 255);"/><rect class="cls-8_facetime-3-41" x="60.94" y="95.53" width="376.15" height="230.57" rx="14.51" ry="14.51"/><path class="cls-18_facetime-3-41 targetColor" d="M65.91,339.89l-53.34,80.15c-2.88,4.32-1.7,10.16,2.62,13.03,1.54,1.03,3.35,1.57,5.2,1.57h460.51c5.19,0,9.4-4.2,9.41-9.39,0-2.02-.64-3.98-1.84-5.6l-59.08-79.78H65.91Z" style="fill: rgb(0, 207, 255);"/><path class="cls-9_facetime-3-41" d="M65.91,339.89l-53.34,80.15c-2.88,4.32-1.7,10.16,2.62,13.03,1.54,1.03,3.35,1.57,5.2,1.57h460.51c5.19,0,9.4-4.2,9.41-9.39,0-2.02-.64-3.98-1.84-5.6l-59.08-79.78H65.91Z"/><polygon class="cls-7_facetime-3-41" points="419.92 354.27 73.39 354.27 76.55 347.96 415.19 347.96 419.92 354.27"/><polygon class="cls-13_facetime-3-41" points="426.84 363.52 68.77 363.52 73.39 354.27 419.92 354.27 426.84 363.52"/><polygon class="cls-14_facetime-3-41" points="434.15 373.29 63.88 373.29 68.77 363.52 426.84 363.52 434.15 373.29"/><polygon class="cls-12_facetime-3-41" points="440.73 382.08 59.49 382.08 63.88 373.29 434.15 373.29 440.73 382.08"/><polygon class="cls-10_facetime-3-41" points="187.58 388.18 313.16 388.18 330.85 417.21 178.74 417.21 187.58 388.18"/></g><g id="character_1_facetime-3-41"><rect class="cls-11_facetime-3-41" x="83.64" y="114.13" width="103.21" height="81.68"/><path class="cls-17_facetime-3-41" d="M152.3,140.01c.1.47.08.96-.06,1.42-.18.84-.55,1.63-1.09,2.3-.55.67-1.37,1.07-2.24,1.1-.12.01-.24-.03-.32-.12-.05-.07-.07-.15-.07-.23-.06-1.28-.12-3.22.69-4.29.74-.92,2.65-1.79,3.09-.18Z"/><path class="cls-17_facetime-3-41" d="M119.63,139.94c-.65.38-1.03,1.09-1.01,1.84-.03.77.22,1.52.69,2.13.42.48.92.9,1.47,1.22.65.5,1.44.81,2.26.89.23.03.46-.06.62-.23.09-.14.14-.31.13-.48.08-1.98-.94-6.92-4.15-5.36Z"/><path class="cls-17_facetime-3-41" d="M122.56,143.4c-.53.08-1.07-.14-1.38-.58-.51-.73-.69-1.62-1.38-1.22s-.24,1.88.34,2.7,2.52,1.44,2.85.88-.44-1.77-.44-1.77Z"/><path class="cls-17_facetime-3-41" d="M148.59,142.51c.52.08,1.04-.15,1.34-.58.52-.73.69-1.62,1.38-1.22s.25,1.88-.34,2.7-2.51,1.44-2.84.88.47-1.77.47-1.77Z"/><path class="cls-18_facetime-3-41 targetColor" d="M96.17,195.8s-1.33-21.72,16.81-30.95,61-1.31,58.8,30.95h-75.61Z" style="fill: rgb(0, 207, 255);"/><path class="cls-17_facetime-3-41" d="M127.78,149.61v6.4c0,3-2.17,5.56-5.12,6.06l-4.5.75s6.48,14.11,20.04,10.38c13.56-3.73,14.16-7.5,14.16-7.5l-3.23-1.12c-2.75-.96-4.6-3.55-4.61-6.46l-.03-8.51h-16.71Z"/><path class="cls-6_facetime-3-41" d="M127.78,149.61v6.4c0,3-2.17,5.56-5.12,6.06l-4.5.75s6.48,14.11,20.04,10.38c13.56-3.73,14.16-7.5,14.16-7.5l-3.23-1.12c-2.75-.96-4.6-3.55-4.61-6.46l-.03-8.51h-16.71Z"/><path class="cls-17_facetime-3-41" d="M121.69,135.84s-.46,9.24,5.03,16.74c5.96,8.14,14.21,9.63,19.73,0,1.6-2.75,4.54-17.52,3.35-22.63-1.19-5.11-20.85-19.66-28.11,5.89Z"/><path class="cls-15_facetime-3-41" d="M119.09,128.57c.42-.25.79-.57,1.11-.94.28-.54.41-1.15.38-1.76.31-4.13,3.95-7.28,7.79-8.84,6.88-2.8,15.41-1.61,20.92,3.44,1.99,1.82,3.73,4.13,6.31,4.9.53.08,1.03.29,1.46.62.83.81.21,2.26-.65,3.04-.21.16-.38.37-.5.61-.25.69.65,1.27,1.38,1.5-.66.89-1.49,1.65-2.43,2.22.48.05.64.74.39,1.16-.3.38-.68.69-1.11.91-1.2.85-1.81,2.29-2.58,3.55s-1.98,2.48-3.44,2.39c.88-3.36.5-6.92-1.07-10.02-6.71,1.81-13.76-.35-20.47-2.19-.5-.2-1.05-.2-1.55,0-.86.5-.58,1.78-.19,2.69-.85,0-1.27,1.02-1.44,1.86-.25,1.24-.39,2.51-.43,3.78,0,.76.55,3.27.2,3.8-.69,1.05-1.69-.62-2.3-1.42-1.94-2.61-5.12-8.61-1.79-11.3Z"/></g><g id="character_1-2_facetime-3-41"><path class="cls-17_facetime-3-41" d="M211.2,194.63s-4.59-5.72-8.33-1c-3.74,4.72,1.82,15.91,10.65,16.11s-2.32-15.12-2.32-15.12Z"/><path class="cls-17_facetime-3-41" d="M274.13,246.27s-1.33,6.88,6.72,12.74c-1.95,2.83-7.22,8.25-16.19,10.75h0c-3.99,1.08-8.12,1.49-12.24,1.22-7.04-.4-13.25-3.4-18.21-6.95l-.78-.57c-3.84-2.9-7.31-6.26-10.32-10.01,5.93-3.76,10.89-8.73,5.68-13.13-.03-.03-.07-.06-.1-.08-.05-.05-.1-.09-.16-.13l-.1-.08c-19.81-15.32-18.25-68.09-18.25-68.09,20.08-76.34,69.51-41.9,80.17-37.83,10.66,4.07,18.27,29.3,13.46,57.24-5.59,32.33-29.7,54.92-29.7,54.92Z"/><path class="cls-18_facetime-3-41 targetColor" d="M362.22,326.1h-209.77c.69-1.31,1.53-5.06,2.28-14.71,3.36-43.05,56.69-52.06,56.69-52.06,2.65-1.06,5.24-2.26,7.76-3.6l8.21,9.63c2.31,2.7,8.39,4.76,8.39,4.76,31.39,15.32,45.1-2.94,48.59-8.98,11.82,6.11,41.78,15.5,58.25,27.96,18.09,13.65,19.58,36.99,19.58,36.99Z" style="fill: rgb(0, 207, 255);"/><polygon class="cls-18_facetime-3-41 targetColor" points="355.36 326.1 362.92 255.81 395.62 255.81 398.71 326.73 355.36 326.1" style="fill: rgb(0, 207, 255);"/><path class="cls-3_facetime-3-41" d="M357.32,307.96l-1.95,18.14h-202.95c.69-1.31,1.53-5.06,2.28-14.71,3.4-43.05,56.73-52.06,56.73-52.06,2.65-1.06,5.24-2.26,7.76-3.6l8.21,9.63c2.31,2.7,8.39,4.76,8.39,4.76,31.39,15.32,45.1-2.94,48.59-8.98,11.82,6.11,41.78,15.5,58.25,27.96,6.41,4.95,11.45,11.43,14.68,18.86Z"/><polygon class="cls-4_facetime-3-41" points="398.71 326.73 355.37 326.1 357.32 307.96 362.92 255.81 395.62 255.81 398.71 326.73"/><path class="cls-17_facetime-3-41" d="M416.55,201.7c-.53,1.48-3.62,6.5-6.43,11.42h0c-2.43,4.27-4.62,8.46-4.72,10.2-.2,3.73-5.14,20.12-10.61,25.11-3.37,3.08-1.83,7.37-1.83,7.37l-6.99.23-21.32.69s1.73-3.27-.76-4.6c-2.49-1.33-24.76-28.46-24.76-28.46,0,0,1.62-7.96,11.2-2.65,9.58,5.31,11.17,9.58,13.55,9.13s2.59-37.02,2.59-37.02c0,0,.5-16.72,4.94-19.79,4.44-3.07,3.65,11.09,3.65,11.09l2.93,19.19s7.19-30.47,9.35-31.85,6.43-.21,5.37,5.66c-.25,1.38-1.69,16.54-1.69,16.54l-1.18,9.95s11.27-24.42,13.32-25.21c2.06-.79,5.3.19,4.32,4.32s-5.94,25.37-6.09,26.04c.41-.49,10.07-12.1,12.38-13.25s3.76,3.15,2.77,5.9Z"/><path class="cls-16_facetime-3-41" d="M285.33,259.33s-3.81,17.26-23.88,18.29c-31.26,1.62-43.53-23.42-43.53-23.42l3.72-2.68s.5.74,1.46,1.93c3.82,4.75,14.82,16.71,29.32,17.57,16.58.95,25.71-8.05,28.43-11.98.22-.32.43-.65.62-.99l3.86,1.28Z"/><path class="cls-15_facetime-3-41" d="M206.57,125.51c.06,1.22.36,2.47.07,3.67-.37,1.1-.96,2.12-1.73,2.99-7.47,10.08-7.83,23.57-7.88,36.11,0,3.16,0,6.39.91,9.42.9,2.92,2.63,5.5,4.33,8.05.82,1.22,7.46,8.74,8.94,8.9,1.98.21-3.85-32.92,35.71-36.11,3.95-.32,7.87.17,11.84.3,2.35.08,4.69-.22,7.04-.13,3.95.16,7.76,1.43,11.51,2.69,6.77,2.28,13.98,4.87,18.17,10.65l3.78-2.06.56,13.71.14,3.29.85,19.95,8.69-13.12c5.42-8.18,11.05-18.27,7.06-27.24-1.88-4.22-5.69-7.41-7.3-11.75-2.25-6.05.23-12.81-.48-19.22-1.38-12.49-14.61-20.56-27.11-21.89-2.79-.3-5.61-.36-8.36-.87-2.72-.59-5.4-1.38-8.01-2.36-5.39-1.84-11.6-3.44-16.51-.56-1.92,1.12-3.44,2.86-5.5,3.78-3.56,1.6-7.67.36-11.55-.05-7.65-.78-25.72.88-25.17,11.88Z"/><path class="cls-17_facetime-3-41" d="M300.19,198.67s4.59-5.72,8.32-1c3.73,4.72-1.82,15.91-10.64,16.11-8.82.2,2.32-15.12,2.32-15.12Z"/><path class="cls-5_facetime-3-41" d="M261.5,261.62c-.35.13-.71.24-1.07.35-5.4,1.54-11.22.05-16.36-2.23-2.14-.95-4.25-2.06-5.96-3.67-1.6-1.51-2.78-3.41-3.89-5.3-1.08-1.84-2.15-3.72-2.94-5.71-.74-1.87-.81-3.31-2.49-4.73,3.29,2.64,6.84,5,10.55,7.01,2.56,1.39,5.19,2.7,7.96,3.61,1.41.46,2.85.82,4.32.99,1.29.15,2.4-.1,3.66-.14,5.94-.18,11.43-1.2,16.63-4.25.8-.47,1.58-.97,2.33-1.51-1.24,3.19-2.5,6.41-4.5,9.18-2.07,2.86-4.94,5.19-8.25,6.4Z"/><path class="cls-17_facetime-3-41" d="M410.12,213.13c-2.43,4.27-4.62,8.46-4.72,10.2-.2,3.73-5.14,20.12-10.61,25.11-3.37,3.08-1.83,7.37-1.83,7.37l-6.99.23-.69-.07s2.56-10.24-3.93-14.76-14.13-9.44-13.16-14.94c.97-5.5,6.1-17.69,19.26-11,13.16,6.69,22.68-2.14,22.68-2.14Z"/></g></svg>