<?xml version="1.0"?><svg id="Layer_1" style="enable-background:new 0 0 87.526749 75.78334;" version="1.1" viewBox="0 0 87.526749 75.78334" xml:space="preserve" xmlns="http://www.w3.org/2000/svg" xmlns:xlink="http://www.w3.org/1999/xlink"><style type="text/css">
	.st0{opacity:0.5;fill:#231F20;enable-background:new    ;}
	.st1{fill:#FFFFFF;}
	.st2{fill:#22093A;stroke:#22093A;stroke-linecap:round;stroke-linejoin:round;}
	.st3{fill:#EC6509;stroke:#22093A;stroke-linecap:round;stroke-linejoin:round;}
	.st4{fill:#F1F2F2;stroke:#22093A;stroke-linecap:round;stroke-linejoin:round;}
	.st5{fill:none;stroke:#FFFFFF;stroke-linecap:round;stroke-linejoin:round;}
	.st6{fill:none;stroke:#22093A;stroke-linecap:round;stroke-linejoin:round;}
</style><g id="Layer_2_00000038387318604443782500000012816879036151503002_"><g id="Layer_1-2"><path class="st0" d="M86.542,24.951799c0.666-3.79785-0.288094-7.855471-2.787109-11.79492    c-2.073845-3.446823-5.526581-5.838492-9.482422-6.56836c-0.194344-0.0586-0.389656-0.112964-0.585938-0.16309    c-0.579102-0.32519-1.126999-0.60254-1.662109-0.84277c-7.14547-3.226664-14.905109-4.867148-22.745113-4.808599    c-7.748745-0.096683-15.419415,1.556524-22.440428,4.83643c-2.637003,1.23789-5.152506,2.719596-7.51367,4.42578    c-2.161528-0.896135-4.6188-0.722477-6.632811,0.46875c-2.188244,1.434044-3.490714,3.887919-3.45215,6.50391    c-0.026803,0.882145,0.10824,1.761736,0.39844,2.595211c-0.970407,1.321157-1.864132,2.696959-2.67676,4.120609    c-2.084874,1.431362-3.398787,3.739254-3.56543,6.26269c-0.02637,0.54883-0.01074,1.21143,0.01562,1.80225    c-0.86713,2.691561-1.432446,5.471155-1.68554,8.2876c-0.82715,9.604,2.291,18.293449,8.36132,23.40966    c1.239258,2.091717,3.357785,3.511013,5.76368,3.861332c0.161131,0.058113,0.324221,0.11084,0.487301,0.157722    c6.29937,3.217934,13.293579,4.836945,20.366213,4.714348c5.526279,0.059677,11.026905-0.759628,16.295906-2.427238    l6.117191,5.064453c0.216736,0.17955,0.452522,0.334778,0.703121,0.462891c0.149662,0.080887,0.304642,0.151527,0.463871,0.211433    c0.972038,0.362396,2.046989,0.3321,2.99707-0.08448c0.051762-0.023003,0.103519-0.046867,0.154301-0.072258    c0.048828-0.023438,0.097649-0.04834,0.145512-0.074219c0.320992-0.174255,0.613705-0.396179,0.86816-0.658203    c0.259903-0.241867,0.483559-0.519966,0.664062-0.825691c0.183281-0.31031,0.32077-0.645477,0.408211-0.99511    c0.099678-0.342819,0.151924-0.697685,0.155273-1.054688l-0.026367-6.520996    c4.827148-2.32373,14.959999-8.209,19.261719-18.280762C87.731895,39.975475,88.30127,32.280556,86.542,24.951799z"/><path class="st1" d="M84.946663,24.17938c0.666-3.79785-0.288094-7.855471-2.787109-11.79492    c-2.073845-3.446824-5.526581-5.838493-9.482422-6.56836c-0.194344-0.0586-0.389656-0.112964-0.585938-0.16309    c-0.579102-0.32519-1.126953-0.60254-1.662109-0.84277c-7.145458-3.22666-14.905094-4.867144-22.745087-4.8086    c-7.74876-0.096688-15.419441,1.556519-22.440468,4.83643c-2.637001,1.237894-5.152504,2.719599-7.51367,4.425779    c-2.161527-0.896135-4.6188-0.722477-6.632811,0.46875c-2.18824,1.434048-3.490708,3.88792-3.45215,6.50391    c-0.026798,0.882143,0.108245,1.761732,0.39844,2.595209c-0.970407,1.321157-1.864132,2.696959-2.67676,4.120609    c-2.084867,1.43136-3.398779,3.739244-3.56543,6.262672c-0.02637,0.54883-0.01074,1.21143,0.01563,1.80225    c-0.867138,2.691559-1.432458,5.471153-1.68555,8.287598c-0.82715,9.604,2.291,18.293449,8.36133,23.409668    c1.239251,2.091721,3.357778,3.511009,5.76367,3.86132c0.16113,0.058113,0.32422,0.11084,0.4873,0.157722    c6.29937,3.217934,13.293579,4.836945,20.366211,4.714348c5.526276,0.059677,11.026897-0.759628,16.295898-2.427238    l6.117191,5.064453c0.216736,0.17955,0.452522,0.334778,0.703121,0.462891c0.149662,0.080887,0.304642,0.151527,0.463871,0.211433    c0.972038,0.362396,2.046989,0.3321,2.99707-0.08448c0.051762-0.022942,0.103519-0.046867,0.154301-0.072258    c0.048828-0.023438,0.09766-0.04834,0.145512-0.074219c0.320992-0.174255,0.613705-0.396179,0.86816-0.658203    c0.259907-0.241867,0.483562-0.519958,0.664059-0.825691c0.183285-0.31031,0.320778-0.645477,0.408211-0.99511    c0.099674-0.342819,0.15192-0.697685,0.15527-1.054688l-0.026367-6.520996c4.827148-2.32373,14.959999-8.209,19.261719-18.280762    C86.136528,39.203041,86.705917,31.508131,84.946663,24.17938z"/><path class="st2" d="M27.916401,8.47988c12.965431-6.005295,27.915714-6.005296,40.881145,0    c12.831001,5.7599,15.834152,24.489059,10.848122,36.16272S60.05294,61.893341,60.05294,61.893341l0.03619,9.138092    l-7.207821-6.768066c0,0-21.04464,9.363808-39.680401-3.681671C-0.87668,50.727051,2.522,20.397631,27.916401,8.47988z"/><path class="st3" d="M26.951,8.47988c12.965435-6.005297,27.915718-6.005298,40.881153,0    c12.831001,5.7599,15.834152,24.489059,10.848122,36.16272s-19.592747,17.25074-19.592747,17.25074l1.001598,9.138092    l-8.173225-6.768074c0,0-21.04464,9.363808-39.680401-3.681671C-1.84209,50.727051,1.55656,20.397631,26.951,8.47988z"/><path class="st4" d="M11.6505,16.36426c-0.055226,1.741163,1.311496,3.197424,3.052658,3.252651    c0.477339,0.015141,0.951883-0.07831,1.387841-0.2733c2.194571-1.167841,3.258881-4.91128,0.61911-6.15267    S11.733,13.25871,11.6505,16.36426z"/><path class="st2" d="M48.700001,35.61232c-2.74567,1.44083,0.918388,18.299782,4.38876,18.328381    c4.08342,0.033649,3.133549-7.917931,3.133549-7.917931s4.537453,5.49614,6.331692,5.32423    c4.765533-0.456501,2.795097-5.954811-3.08075-9.610001c0,0,5.730728-7.626781,0.577999-8.7173    c-3.56823-0.75518-4.979301,8.186451-4.979301,8.186451S52.538269,33.598141,48.700001,35.61232z"/><path class="st2" d="M19.12608,25.41135c-1.909941-2.01564-11.53554-0.46426-11.76356,4.401409    c-0.15027,3.206558,1.27824,16.611,6.214459,15.530388c5.072559-1.11047,1.79238-7.757,1.79238-7.757    s4.5039-1.13607,4.293139-4.024078s-5.87739-0.982231-5.87739-0.982231S22.79388,29.282129,19.12608,25.41135z"/><path class="st2" d="M30.413509,22.55558c-1.109289-1.769751-10.958-0.641001-11.91634,4.439369    c-0.625299,3.315001,1.057199,14.503998,6.50927,14.27129s9.866421-2.900002,9.174309-5.745121s-8.81374-0.584-8.81374-0.584    s5.282761-1.260719,4.76545-4.259529s-5.89773-0.976841-5.89773-0.976841S32.812538,26.382999,30.413509,22.55558z"/><path class="st2" d="M45.431198,16.847919c-2.711571,0.57288-1.55188,14.428001,1.832489,18.144199    c1.760361,1.932999,9.313389-0.402,10.948441-4.63517S57.163288,14.36928,45.431198,16.847919z"/><path class="st2" d="M49.994801,23.63628c-1.11607,0.3032-0.279732,3.75177,0.437832,4.334999    c0.477371,0.388,2.22517-0.096001,2.615822-1.107441S52.759521,22.885201,49.994801,23.63628z"/><path class="st2" d="M41.881531,18.783001C40.43763,17.413,31.929222,18.65814,31.24617,23.537291    c-0.4457,3.18371,1.34729,14.864439,6.526501,14.397001s9.032772-2.841999,8.245651-5.519001S38.94268,31.59416,38.94268,31.59416    s5.280071-1.981199,4.652401-4.81237s-5.966358-0.120951-5.966358-0.120951S45.755539,22.458731,41.881531,18.783001z"/><path class="st2" d="M12.21644,46.256699c-2.22777,1.861759-1.70487,5.867001,0.19959,12.352741    c1.6079,5.475826,4.91022,4.74445,8.334489,3.844891c3.833-1.006939,7.64975-3.68066,6.41128-8.001122    c-1.28908-4.497002-7.15836-2.440781-7.15836-2.440781s5.57152-2.67239,3.78009-6.625999    C22.0324,41.521671,14.50573,44.343521,12.21644,46.256699z"/><path class="st2" d="M16.049,48.251999c0,0,2.166-1.164219,2.31592,0.146252s-1.708059,1.951111-1.708059,1.951111    L16.049,48.251999z"/><path class="st2" d="M18.301809,56.016731c0,0,2.79619-1.354389,2.946079-0.04393s-2.338221,2.1413-2.338221,2.1413    L18.301809,56.016731z"/><path class="st2" d="M36.462059,57.091759c1.841412-0.853359,2.60751-2.841148,2.125-5.062698    c-0.521999-2.403091-3.42918-13.82346-9.429619-12.452999c-3.12322,0.713329-4.53664,4.694851-4.728371,8.945271    c-0.208,4.611412,0.720409,11.24131,3.230141,10.882351c4.03161-0.57663,2.641689-12.196918,2.641689-12.196918    S32.874432,58.754372,36.462059,57.091759z"/><path class="st2" d="M47.195,42.551281c1.812691,0.291328,2.59819-7.64851-5.442341-5.688129    c-10.69348,2.607208-8.813251,16.65131-1.447811,18.971279c4.95969,1.562199,15.848709-3.721561,10.07494-7.754059    c-2.30238-1.608002-3.984718,1.088322-6.273361,1.529678c-3.645931,0.703091-5.146-2.809071-3.346001-5.313068    C42.262749,42.207142,43.844521,42.012798,47.195,42.551281z"/><path class="st2" d="M62.44466,27.68331L62.44466,27.68331c-2.743778,0.973421-5.757168-0.461739-6.730587-3.205519    c-0.155289-0.437712-0.252052-0.894026-0.287773-1.357092c-0.186363-2.261587,0.324448-4.525995,1.463699-6.488548    c3.379219-5.701691,15.967308-11.4381,21.89888-2.08506c6.12973,9.665491-1.430908,15.339331-2.385368,16.24272    s-5.668373,3.2971-5.329597,6.610779c0.029572,0.289249,0.060089,0.550079,0.091087,0.785278    c0.166237,1.246498-0.669304,2.406071-1.904343,2.642868l0,0c-1.251122,0.237991-2.467644-0.551949-2.759216-1.791679    c-0.72361-2.459812-0.279694-5.115593,1.204559-7.206356c3.30323-4.225231,4.715004-5.93128,4.049103-8.30648    c-0.338295-1.576344-1.890419-2.579977-3.466759-2.24168c-0.144875,0.03109-0.28717,0.073166-0.425652,0.12586    c-0.950424,0.268259-1.643929,1.085094-1.75444,2.06645C65.756996,25.446135,64.348755,27.063814,62.44466,27.68331z"/><circle class="st2" cx="70.961311" cy="45.01944" r="3.260672"/><path class="st4" d="M47.140511,35.226799c-2.745659,1.44083,0.918388,18.299789,4.38876,18.328381    c4.083431,0.033649,3.133549-7.917919,3.133549-7.917919s4.537418,5.49614,6.33165,5.324268    c4.765533-0.456501,2.795101-5.954811-3.08075-9.610001c0,0,5.73074-7.626781,0.577999-8.7173    c-3.56823-0.755171-4.979301,8.186451-4.979301,8.186451S50.978748,33.21262,47.140511,35.226799z"/><path class="st4" d="M17.566549,25.025841C15.65661,23.010189,6.031,24.561581,5.803,29.42725    c-0.15027,3.206558,1.27823,16.611,6.21445,15.53038c5.072569-1.110458,1.79239-7.757,1.79239-7.757    s4.5039-1.13607,4.29313-4.024078s-5.87738-0.98222-5.87738-0.98222S21.23435,28.89662,17.566549,25.025841z"/><path class="st4" d="M28.854,22.170071c-1.109289-1.76976-10.958-0.641001-11.91634,4.43936    c-0.62529,3.315001,1.057199,14.504,6.509281,14.271292s9.866409-2.900002,9.174301-5.74511s-8.81374-0.584-8.81374-0.584    s5.282761-1.260719,4.76545-4.259529s-5.89772-0.976851-5.89772-0.976851S31.253,25.99749,28.854,22.170071z"/><path class="st4" d="M43.871681,16.46241c-2.711578,0.57287-1.55188,14.428001,1.832489,18.144199    c1.760361,1.932999,9.313381-0.402,10.948441-4.63517S55.60376,13.98376,43.871681,16.46241z"/><path class="st2" d="M48.43528,23.250771c-1.11607,0.3032-0.279732,3.75177,0.43782,4.334999    c0.477379,0.388,2.22517-0.096001,2.615822-1.107441S51.200001,22.49968,48.43528,23.250771z"/><path class="st4" d="M40.321999,18.397511c-1.44389-1.370001-9.952309-0.124861-10.635361,4.75429    c-0.44569,3.18372,1.34729,14.864439,6.526508,14.397001s9.032772-2.841999,8.245651-5.519001    s-7.075649-0.821119-7.075649-0.821119s5.280071-1.981199,4.652409-4.81237s-5.966358-0.121-5.966358-0.121    S44.195999,22.07321,40.321999,18.397511z"/><path class="st4" d="M10.65692,45.871181c-2.22777,1.861771-1.70487,5.867001,0.19959,12.352749    c1.60789,5.475819,4.91022,4.744438,8.33449,3.844879c3.833-1.006931,7.64975-3.68066,6.41127-8.001122    c-1.28907-4.497002-7.15835-2.440781-7.15835-2.440781s5.57151-2.672379,3.780081-6.625999    C20.472879,41.136162,12.94621,43.958,10.65692,45.871181z"/><path class="st2" d="M14.48946,47.866451c0,0,2.166-1.164211,2.315929,0.146252s-1.70807,1.951118-1.70807,1.951118    L14.48946,47.866451z"/><path class="st2" d="M16.74229,55.63121c0,0,2.79619-1.354389,2.946079-0.04393s-2.338221,2.1413-2.338221,2.1413    L16.74229,55.63121z"/><path class="st4" d="M37.027538,51.643532c-0.521999-2.40308-3.429199-13.82349-9.42963-12.452999    c-3.12323,0.713379-4.53668,4.694889-4.72839,8.94532c-0.208,4.611389,0.7204,11.241268,3.23016,10.88232    c1.7099-0.244572,2.44269-2.476681,2.7218-4.965149l2.08259-0.682621c1.05114,2.258999,2.427551,4.06385,3.99847,3.335819    C36.743999,55.852879,37.509998,53.865082,37.027538,51.643532z M28.969858,51.47892    c0.013826-1.555664-0.062471-3.110821-0.22851-4.657661c0.343004,1.462521,0.764835,2.905422,1.263651,4.322392    L28.969858,51.47892z"/><path class="st4" d="M45.635521,42.165771c1.812679,0.291321,2.598179-7.648521-5.442341-5.688129    c-10.69348,2.607197-8.813261,16.65136-1.447819,18.971268c4.959702,1.56221,15.848721-3.72155,10.07494-7.754002    c-2.30238-1.608002-3.984711,1.088322-6.273361,1.529671c-3.645931,0.703091-5.146-2.809059-3.346001-5.313061    C40.703232,41.821621,42.285,41.627281,45.635521,42.165771z"/><path class="st4" d="M60.885139,27.2978L60.885139,27.2978c-2.743786,0.973415-5.757175-0.461754-6.730591-3.205542    c-0.155289-0.437708-0.252048-0.894018-0.287769-1.357079c-0.186363-2.261587,0.324444-4.525995,1.463692-6.48855    c3.379211-5.70168,15.967304-11.4381,21.898884-2.08506c6.12973,9.665499-1.430923,15.339331-2.385368,16.242729    s-5.668381,3.297091-5.329613,6.610781c0.029572,0.289242,0.060089,0.550072,0.091103,0.785278    c0.166237,1.246502-0.669312,2.406071-1.90435,2.64286l0,0c-1.251129,0.237999-2.467651-0.551937-2.759232-1.791672    c-0.723595-2.459827-0.279648-5.115616,1.204628-7.206369c3.303223-4.225229,4.715004-5.93128,4.049088-8.30648    c-0.338303-1.576342-1.890427-2.579969-3.466774-2.241667c-0.144859,0.03109-0.287148,0.073164-0.425629,0.125856    c-0.950432,0.268253-1.643936,1.085093-1.75444,2.06645C64.197495,25.060625,62.789242,26.678305,60.885139,27.2978z"/><circle class="st4" cx="69.743561" cy="44.896702" r="3.260672"/><path class="st5" d="M70.517632,11.8019c2.487381,0.63585,5.393364,2.29823,6.433212,7.83925    c1.025917,5.466791-1.571487,6.762781-2.027191,7.21847"/><path class="st5" d="M56.48175,18.562149c-0.963428,1.99225-1.61076,5.87644,1.931389,6.66923"/><path class="st5" d="M69.743561,43.457642c-1.196198-0.320431-1.921173,1.90752-1.123711,2.4902"/><path class="st5" d="M7.9553,32.062149c0.20812,1.865608,1.40184,9.573101,2.961999,10.25317"/><path class="st5" d="M19.07725,28.587469c-0.633751-1.34997-0.053141-2.958096,1.296829-3.591846    c0.128418-0.060287,0.261385-0.110359,0.397671-0.149754"/><path class="st5" d="M32.692902,30.17136c0.003311,2.118641,1.69278,5.327751,3.97126,5.12233"/><path class="st5" d="M44.56105,19.330759c-0.250896,2.650816-0.012135,5.325171,0.704369,7.88962"/><path class="st5" d="M11.2591,50.740231c0.56962,2.912361,1.30631,7.811089,2.419,8.551601"/><path class="st5" d="M27.834999,41.269821c-0.51265,0.02018-3.372,2.039928-3.081591,7.01107"/><path class="st5" d="M39.51226,38.55582c-1.708858,1.082279-4.6548,2.704601-4.833729,6.84914"/><path class="st5" d="M49.45163,37.948002c0.82613,1.203045,1.54195,2.478222,2.138748,3.810001"/><path class="st5" d="M60.455711,45.947842c0.7561,0.612331,1.234787,1.502518,1.328701,2.470928"/><path class="st5" d="M43.448521,63.924801c0.596901-0.119961,1.20253-0.255501,1.816898-0.40662"/><path class="st5" d="M25.840059,63.518181c5.095669,1.261047,10.38785,1.51976,15.58222,0.761749"/><path class="st5" d="M51.590462,6.90845c0.528572,0.05438,1.048389,0.12164,1.559448,0.20178"/><path class="st5" d="M32.199131,9.26917c5.480316-1.813071,11.232574-2.666119,17.003208-2.52154"/><path class="st5" d="M30.004999,10.15816c0.202438-0.09558,0.413666-0.190456,0.63368-0.28463"/><path class="st6" d="M62.632401,57.72879c2.957718-1.579914,5.666229-3.587448,8.038086-5.95779"/><path class="st6" d="M59.961632,59.032139c0.319618-0.137226,0.649006-0.286167,0.988159-0.446819"/><path class="st4" d="M42.268452,9.80066c0.435253,1.165313,1.732765,1.757144,2.898079,1.321892    c0.328846-0.122827,0.624432-0.320817,0.863171-0.578172c1.14423-1.38934,0.839218-4.17724-1.253349-4.26685    S41.4828,7.71113,42.268452,9.80066z"/></g></g></svg>