<?xml version="1.0"?><svg viewBox="0 0 64 64" xmlns="http://www.w3.org/2000/svg"><title/><g data-name="07-Fever" id="_07-Fever"><path d="M48,63H6l14-3s2,2,7,2,7-2,7-2Z" style="fill:#34c1ad"/><path d="M31,49H23s0-3,4-3S31,49,31,49Z" style="fill:#8f312c"/><path d="M8,37a7.87,7.87,0,0,0,.24,1.94L8,39s-3-2-3-8,4-8,4-8a8.613,8.613,0,0,1-8-5,43.557,43.557,0,0,0,13-5c7-4,10-4,14-4,5,0,9,5,9,5s.94-1.89,4.66-2c4.03-.11,7.34,4.96,7.34,9V31.89a4.018,4.018,0,0,1-.57,2.06L46,38l-.06-.01A8.1,8.1,0,0,0,46,37V36a3,3,0,0,0-3-3H41V29a7.7,7.7,0,0,1-3-2.85V22a27.484,27.484,0,0,0-3-.94A32.651,32.651,0,0,0,27,20a32.651,32.651,0,0,0-8,1.06A27.484,27.484,0,0,0,16,22v3.5L13,28v5H11a3,3,0,0,0-3,3Z" style="fill:#5e3616"/><path d="M27,29a33.008,33.008,0,0,1,11,2V26.15A7.7,7.7,0,0,0,41,29v4h2a3,3,0,0,1,3,3v1a8.1,8.1,0,0,1-.06.99A6.887,6.887,0,0,1,41,44a13.626,13.626,0,0,1-7,9.25,14.875,14.875,0,0,1-14,0A13.626,13.626,0,0,1,13,44a6.72,6.72,0,0,1-4.76-5.06A7.87,7.87,0,0,1,8,37V36a3,3,0,0,1,3-3h2V28l3-2.5V31A33.008,33.008,0,0,1,27,29ZM23,49h8s0-3-4-3S23,49,23,49Z" style="fill:#d47470"/><path d="M34,53.25V60s-2,2-7,2-7-2-7-2V53.25a14.875,14.875,0,0,0,14,0Z" style="fill:#f2b59d"/><path d="M34,53.25a14.875,14.875,0,0,1-14,0V60a5.44,5.44,0,0,0,1.328.859L34,55.429Z" style="fill:#ed9776"/><path d="M41,29c-4-2-5-8-5-8a7.458,7.458,0,0,1-6,5l.99-3.98a19.608,19.608,0,0,1-8,6.23A11.365,11.365,0,0,1,19,29V23l-6,5v5H41Z" style="fill:#d47470"/><path d="M9,23s-4,2-4,8,3,8,3,8l.24-.06A7.87,7.87,0,0,1,8,37V36a3,3,0,0,1,3-3h2V28L8,30C6,27,9,23,9,23Z" style="fill:#3b220e"/><path d="M41,29v4h2a3,3,0,0,1,3,3V31A7.651,7.651,0,0,1,41,29Z" style="fill:#3b220e"/><path d="M32,36a3.105,3.105,0,0,1,1.38-2.84,8.742,8.742,0,0,0,1.94.6A3.684,3.684,0,0,1,36,36c0,1.66-.9,3-2,3S32,37.66,32,36Z" style="fill:#5e3616"/><path d="M20.62,33.16A3.105,3.105,0,0,1,22,36c0,1.66-.9,3-2,3s-2-1.34-2-3a3.684,3.684,0,0,1,.68-2.24A8.742,8.742,0,0,0,20.62,33.16Z" style="fill:#5e3616"/><path d="M41,42V35h1a2,2,0,0,1,2,2v1.117a4,4,0,0,1-2.735,3.8Z" style="fill:#b8514d"/><path d="M13,42V35H12a2,2,0,0,0-2,2v1.117a4,4,0,0,0,2.735,3.8Z" style="fill:#b8514d"/><ellipse cx="27" cy="40" rx="1" ry="2" style="fill:#b54f4a"/><path d="M39,27.442a9.4,9.4,0,0,1-1-1.292V31a33.008,33.008,0,0,0-11-2,33.008,33.008,0,0,0-11,2V25.5l-1,.833L13,28v2l2-2v5a38.863,38.863,0,0,1,12-2,38.863,38.863,0,0,1,12,2V29.108A9.289,9.289,0,0,0,41,30V29A6.836,6.836,0,0,1,39,27.442Z" style="fill:#b8514d"/><path d="M38,31a33.008,33.008,0,0,0-11-2,33.008,33.008,0,0,0-11,2V22a27.484,27.484,0,0,1,3-.94V27a27.673,27.673,0,0,1,8-1,27.673,27.673,0,0,1,8,1V21.06A27.484,27.484,0,0,1,38,22v9Z" style="fill:#cee5dd"/><path d="M35,21.06V27a27.673,27.673,0,0,0-8-1,27.673,27.673,0,0,0-8,1V21.06A32.651,32.651,0,0,1,27,20,32.651,32.651,0,0,1,35,21.06Z" style="fill:#66b9de"/><path d="M35,24.984V21.06A32.651,32.651,0,0,0,27,20a31.887,31.887,0,0,0-6.789.774C21.352,23.067,27.457,24.838,35,24.984Z" style="fill:#75d5ff"/><path d="M61,8v3H53V5a4,4,0,0,1,8,0Z" style="fill:#d4d4d4"/><path d="M61,28.54a6,6,0,1,1-8,0V11h8V28.54Z" style="fill:#e7544c"/><path d="M56,5a4,4,0,0,1,2.5-3.7A3.992,3.992,0,0,0,53,5v6h3Z" style="fill:#bfbfbf"/><path d="M54,33a6,6,0,0,1,2-4.46V11H53V28.54A5.986,5.986,0,0,0,58.5,38.8,6,6,0,0,1,54,33Z" style="fill:#c74841"/><path d="M59.917,33.982c.712.165,1.109-.858,1.082-1.509a2.374,2.374,0,0,0-1.268-2.214,2.843,2.843,0,0,0-1.794-.2,1.32,1.32,0,0,0-.69.307.772.772,0,0,0-.215.767,1.055,1.055,0,0,0,.279.388l2.037,2.06A1.274,1.274,0,0,0,59.917,33.982Z" style="fill:#fff"/><path d="M34.959,60.206,34,60s-2,2-7,2-7-2-7-2l-.96.206a.975.975,0,0,0,.253.5C19.387,60.8,21.647,63,27,63s7.613-2.2,7.707-2.293A.966.966,0,0,0,34.959,60.206Z" style="fill:#e3e3e3"/><line style="fill:none;stroke:#000;stroke-linejoin:round;stroke-width:2px" x1="53" x2="61" y1="11" y2="11"/><line style="fill:none;stroke:#000;stroke-linejoin:round;stroke-width:2px" x1="61" x2="58" y1="26" y2="26"/><line style="fill:none;stroke:#000;stroke-linejoin:round;stroke-width:2px" x1="61" x2="58" y1="20" y2="20"/><line style="fill:none;stroke:#000;stroke-linejoin:round;stroke-width:2px" x1="61" x2="58" y1="20" y2="20"/><line style="fill:none;stroke:#000;stroke-linejoin:round;stroke-width:2px" x1="61" x2="58" y1="14" y2="14"/><line style="fill:none;stroke:#000;stroke-linejoin:round;stroke-width:2px" x1="61" x2="58" y1="14" y2="14"/><line style="fill:none;stroke:#000;stroke-linejoin:round;stroke-width:2px" x1="61" x2="58" y1="8" y2="8"/><path d="M23,49s0-3,4-3,4,3,4,3Z" style="fill:none;stroke:#000;stroke-linejoin:round;stroke-width:2px"/><polyline points="20 56 20 60 6 63" style="fill:none;stroke:#000;stroke-linejoin:round;stroke-width:2px"/><polyline points="48 63 34 60 34 53" style="fill:none;stroke:#000;stroke-linejoin:round;stroke-width:2px"/><path d="M20,60s2,2,7,2,7-2,7-2" style="fill:none;stroke:#000;stroke-linejoin:round;stroke-width:2px"/><path d="M16,25.5,13,28v5H11a3,3,0,0,0-3,3v1a7.023,7.023,0,0,0,5,7A14.118,14.118,0,0,0,27,55,14.118,14.118,0,0,0,41,44a7.023,7.023,0,0,0,5-7V36a3,3,0,0,0-3-3H41V29a7.8,7.8,0,0,1-3-2.845" style="fill:none;stroke:#000;stroke-linejoin:round;stroke-width:2px"/><path d="M8,39s-3-2-3-8,4-8,4-8a8.613,8.613,0,0,1-8-5,43.557,43.557,0,0,0,13-5c7-4,10-4,14-4,5,0,9,5,9,5s.943-1.885,4.658-1.995C45.7,11.886,49,16.962,49,21V31.892a4,4,0,0,1-.57,2.058L46,38" style="fill:none;stroke:#000;stroke-linejoin:round;stroke-width:2px"/><path d="M28,1a2.708,2.708,0,0,1,1,2c0,1.916-2,2.083-2,4" style="fill:none;stroke:#000;stroke-linejoin:round;stroke-width:2px"/><path d="M36,1a2.708,2.708,0,0,1,1,2c0,1.916-2,2.083-2,4" style="fill:none;stroke:#000;stroke-linejoin:round;stroke-width:2px"/><path d="M20,1a2.708,2.708,0,0,1,1,2c0,1.916-2,2.083-2,4" style="fill:none;stroke:#000;stroke-linejoin:round;stroke-width:2px"/><path d="M38,34a13.8,13.8,0,0,1-2.68-.24" style="fill:none;stroke:#000;stroke-linejoin:round;stroke-width:2px"/><path d="M31,31a4.229,4.229,0,0,0,2.38,2.16" style="fill:none;stroke:#000;stroke-linejoin:round;stroke-width:2px"/><path d="M36,36c0,1.66-.9,3-2,3s-2-1.34-2-3a3.105,3.105,0,0,1,1.38-2.84,8.742,8.742,0,0,0,1.94.6A3.684,3.684,0,0,1,36,36Z" style="fill:none;stroke:#000;stroke-linejoin:round;stroke-width:2px"/><path d="M18.68,33.76A13.8,13.8,0,0,1,16,34" style="fill:none;stroke:#000;stroke-linejoin:round;stroke-width:2px"/><path d="M20.62,33.16A4.229,4.229,0,0,0,23,31" style="fill:none;stroke:#000;stroke-linejoin:round;stroke-width:2px"/><path d="M22,36c0,1.66-.9,3-2,3s-2-1.34-2-3a3.684,3.684,0,0,1,.68-2.24,8.742,8.742,0,0,0,1.94-.6A3.105,3.105,0,0,1,22,36Z" style="fill:none;stroke:#000;stroke-linejoin:round;stroke-width:2px"/><path d="M27,29a33.008,33.008,0,0,1,11,2V22a33.008,33.008,0,0,0-11-2,33.008,33.008,0,0,0-11,2v9A33.008,33.008,0,0,1,27,29Z" style="fill:none;stroke:#000;stroke-linejoin:round;stroke-width:2px"/><path d="M19,21v6a27.673,27.673,0,0,1,8-1,27.673,27.673,0,0,1,8,1V21" style="fill:none;stroke:#000;stroke-linejoin:round;stroke-width:2px"/><path d="M53,19v9.537a6,6,0,1,0,8,0V5a4,4,0,0,0-8,0v8" style="fill:none;stroke:#000;stroke-linejoin:round;stroke-width:2px"/><line style="fill:none;stroke:#000;stroke-linejoin:round;stroke-width:2px" x1="53" x2="53" y1="15" y2="17"/></g></svg>