<svg id="_0480_finger_print" data-name="0480_finger_print" xmlns="http://www.w3.org/2000/svg" viewBox="0 0 500 500" data-imageid="fingerprint-34" imageName="Fingerprint" class="illustrations_image" style="width: 188px;"><defs><style>.cls-1_fingerprint-34{fill:#68e1fd;}.cls-2_fingerprint-34{fill:#093f68;}.cls-3_fingerprint-34{fill:#fff;}.cls-4_fingerprint-34{fill:#ffc9b0;}.cls-5_fingerprint-34{fill:#70cc40;}</style></defs><g id="device_fingerprint-34"><rect class="cls-1_fingerprint-34 targetColor" x="149.86" y="84.76" width="200.29" height="310.76" rx="15.64" style="fill: rgb(104, 225, 253);"/><path class="cls-2_fingerprint-34" d="M337.86,397.38H162.14A14.15,14.15,0,0,1,148,383.24V97.05a14.15,14.15,0,0,1,14.14-14.14H337.86A14.15,14.15,0,0,1,352,97.05V383.24A14.15,14.15,0,0,1,337.86,397.38ZM162.14,86.62a10.43,10.43,0,0,0-10.42,10.43V383.24a10.43,10.43,0,0,0,10.42,10.42H337.86a10.43,10.43,0,0,0,10.42-10.42V97.05a10.43,10.43,0,0,0-10.42-10.43Z"/><rect class="cls-3_fingerprint-34" x="149.86" y="113.66" width="200.29" height="242.79"/><path class="cls-2_fingerprint-34" d="M350.14,358.31H149.86a1.86,1.86,0,0,1-1.86-1.86V113.66a1.86,1.86,0,0,1,1.86-1.86H350.14a1.86,1.86,0,0,1,1.86,1.86V356.45A1.86,1.86,0,0,1,350.14,358.31Zm-198.42-3.72H348.28V115.52H151.72Z"/><path class="cls-2_fingerprint-34" d="M236.26,99.91h-2.81a1.86,1.86,0,0,1,0-3.71h2.81a1.86,1.86,0,1,1,0,3.71Z"/><path class="cls-2_fingerprint-34" d="M266.55,99.91H242.11a1.86,1.86,0,1,1,0-3.71h24.44a1.86,1.86,0,0,1,0,3.71Z"/></g><g id="finger-print_fingerprint-34"><path class="cls-1_fingerprint-34 targetColor" d="M204.65,214.62c.32-8.36,4-17.17,8.36-23.63a43.38,43.38,0,0,1,25.13-17.59c21.71-5.73,44.5,5,53.3,25.19a38.29,38.29,0,0,1,3.2,16.1c-.15,8.73-7.26,15.67-16.37,15.86s-16.59-6.54-17-15.25c-.21-5.09-2.5-8.68-7.21-10.56a11.79,11.79,0,0,0-12.84,2.84c-3.58,3.81-3.14,8.41-2.26,12.91,2.78,14.21,11.53,23.24,25,28a14.5,14.5,0,0,0,1.67.5c2,.48,3.3,1.55,2.62,3.7s-2.47,1.93-4.31,1.41c-18-5.15-29.54-19.33-30.79-37.89a16.37,16.37,0,0,1,15.5-17.59c9.74-.54,17.53,6.31,17.94,15.78a11.24,11.24,0,0,0,11.65,10.86,11.1,11.1,0,0,0,11.07-11.4c-.22-17.47-13.62-32.43-32.2-35.93-18-3.39-36.65,6-43.74,22.26-4.58,10.51-3.29,21.2,0,31.82a10,10,0,0,0,.38,1.09c.75,1.85,1.19,3.74-1.27,4.52s-3.36-1-3.79-2.92c-.93-4.11-2-8.15-3.14-12.17A25.53,25.53,0,0,1,204.65,214.62Z" style="fill: rgb(104, 225, 253);"/><path class="cls-1_fingerprint-34 targetColor" d="M224.57,216.06c.13,12.2,5.19,22.23,13.37,30.94,1.46,1.56,4,3.19,1.68,5.51-2.5,2.5-4.16-.22-5.67-1.81-8.82-9.31-14.07-20.17-14.68-33.19-.72-15.39,8.28-27.67,23.29-31.37,17-4.18,34.27,6.34,37.69,23.06.36,1.73,1.46,7.9-2.34,7.19-2.7-.5-3-7.29-3.82-9.46a24,24,0,0,0-5.48-8.62,26.35,26.35,0,0,0-18.56-7.73c-12.26,0-23,8.46-25.15,20A43.51,43.51,0,0,0,224.57,216.06Z" style="fill: rgb(104, 225, 253);"/><path class="cls-1_fingerprint-34 targetColor" d="M299.1,184.71a3.31,3.31,0,0,1-1.51,2.27,3.72,3.72,0,0,1-2.65,0c-.63-.22-1.1-1-1.57-1.63-21.89-28.26-64.93-28.26-86.79,0-.18.23-.34.47-.51.7-1,1.44-2.28,2.2-3.92,1s-1.53-2.86-.29-4.26c3-3.4,5.86-7,9.26-10,14.26-12.44,34.39-16.55,52.66-12.39,14.28,3.25,25.41,11.17,34.47,22.43a4,4,0,0,1,.82,1.37A1.33,1.33,0,0,1,299.1,184.71Z" style="fill: rgb(104, 225, 253);"/><path class="cls-1_fingerprint-34 targetColor" d="M251.44,145.65c10-.14,20.43,2.75,30.39,7.67,1.88.93,3.22,2.2,2.09,4.29s-2.82,1.41-4.55.55q-29.43-14.58-58.86.08c-1.74.87-3.48,1.3-4.46-.77s.34-3.2,2.08-4.09A69.84,69.84,0,0,1,251.44,145.65Z" style="fill: rgb(104, 225, 253);"/><path class="cls-1_fingerprint-34 targetColor" d="M277.59,243.38c-16.87-.08-29.25-11.37-30.47-27a5.39,5.39,0,0,1,1.67-4.12c1.55-1.18,3.45.4,3.58,3a23,23,0,0,0,4,12.22,23.44,23.44,0,0,0,14.33,9.8,40.47,40.47,0,0,0,9.33.46A16.15,16.15,0,0,1,284,238c2.25.52,3.07,2.51,1.09,3.85S279.9,243.39,277.59,243.38Z" style="fill: rgb(104, 225, 253);"/><path class="cls-4_fingerprint-34" d="M238,320.94V218.09A12.06,12.06,0,0,1,250.08,206h0a12.06,12.06,0,0,1,12.07,12.07v45.39s1.57-9.71,12.59-10.76,14.17,8.13,13.65,25.71c0,0,2.62-10,13.11-10s12.33,5.51,11.81,18.37c0,0,2-8.92,12.86-8.4,5.76.28,10.88,4.72,11.51,14.2.49,7.35,0,69.18,0,80.2s-7.49,40.46-45.62,42.29c-32.65,1.58-48.28-13.38-58.25-32.27s-30.32-66.34-32.62-77.39c-3.06-14.7,18.46-18.11,24.49-6.3C229.48,306.59,238,320.94,238,320.94Z"/><path class="cls-2_fingerprint-34" d="M287.57,417.09c-33.76,0-47.75-18.87-55.4-33.37-10.16-19.25-30.47-66.66-32.8-77.88-1.41-6.79,1.74-12.43,8.23-14.72,6.68-2.36,15.9-.31,19.73,7.19,2.2,4.29,6,11,8.82,15.79v-96a13.93,13.93,0,1,1,27.86,0V255.9a15.92,15.92,0,0,1,10.56-5c4.23-.42,7.65.58,10.16,2.94,3.39,3.18,5.15,8.75,5.5,17.68a14.84,14.84,0,0,1,11.27-4.89c4.77,0,8,1.07,10.22,3.37s3.19,5.84,3.45,10.28a14.58,14.58,0,0,1,11.09-3.67c5.92.28,12.53,4.62,13.28,15.92.37,5.61.19,41.05.07,64.5,0,7.31-.07,13.12-.07,15.83,0,.42-.54,41.89-47.39,44.15C290.58,417.06,289.05,417.09,287.57,417.09ZM213.24,293.9a13.46,13.46,0,0,0-4.41.73c-2.24.79-7.29,3.39-5.82,10.45,2.24,10.75,22.62,58.29,32.45,76.91,8.14,15.43,21.94,33,56.51,31.28,43.35-2.09,43.86-40,43.86-40.44,0-2.72,0-8.53.06-15.85.11-22,.3-58.76-.06-64.23-.5-7.53-4.15-12.19-9.75-12.46-9.25-.5-10.89,6.63-11,6.94a1.86,1.86,0,0,1-3.67-.48c.33-8-.37-12.08-2.41-14.2-1.46-1.52-3.85-2.23-7.54-2.23-9,0-11.3,8.5-11.32,8.59a1.86,1.86,0,0,1-3.65-.53c.35-11.81-1-18.76-4.34-21.86-1.73-1.61-4.09-2.25-7.27-1.95-9.48.9-10.92,9.12-10.94,9.2a1.86,1.86,0,0,1-3.69-.29V218.09a10.21,10.21,0,0,0-20.42,0V320.94a1.86,1.86,0,0,1-3.46.95c-.35-.59-8.6-14.48-12.39-21.89C221.89,295.82,217.48,293.9,213.24,293.9Z"/><path class="cls-2_fingerprint-34" d="M288.38,309.68a1.86,1.86,0,0,1-1.85-1.86V278.43a1.86,1.86,0,1,1,3.71,0v29.39A1.86,1.86,0,0,1,288.38,309.68Z"/><path class="cls-2_fingerprint-34" d="M262.15,311a1.86,1.86,0,0,1-1.86-1.86V263.48a1.86,1.86,0,1,1,3.72,0v45.65A1.86,1.86,0,0,1,262.15,311Z"/><path class="cls-2_fingerprint-34" d="M313.31,309.68a1.86,1.86,0,0,1-1.86-1.86v-21a1.86,1.86,0,0,1,3.72,0v21A1.86,1.86,0,0,1,313.31,309.68Z"/></g><g id="check-mark_fingerprint-34"><circle class="cls-5_fingerprint-34" cx="313.55" cy="150.88" r="23.86"/><path class="cls-2_fingerprint-34" d="M313.55,176.6a25.72,25.72,0,1,1,25.72-25.72A25.75,25.75,0,0,1,313.55,176.6Zm0-47.72a22,22,0,1,0,22,22A22,22,0,0,0,313.55,128.88Z"/><polygon class="cls-3_fingerprint-34" points="307.28 164.92 296.88 150.72 302.88 146.32 308.46 153.95 324.76 139.54 329.69 145.11 307.28 164.92"/></g></svg>