<?xml version="1.0"?><svg id="Layer_1" style="enable-background:new 0 0 81.910561 81.824547;" version="1.1" viewBox="0 0 81.910561 81.824547" xml:space="preserve" xmlns="http://www.w3.org/2000/svg" xmlns:xlink="http://www.w3.org/1999/xlink"><style type="text/css">
	.st0{opacity:0.5;fill:#231F20;enable-background:new    ;}
	.st1{fill:#FFFFFF;}
	.st2{fill:#22093A;stroke:#22093A;stroke-linecap:round;stroke-linejoin:round;}
	.st3{fill:#FD32B0;stroke:#22093A;stroke-linecap:round;stroke-linejoin:round;}
	.st4{fill:none;stroke:#FFC2EB;stroke-linecap:round;stroke-linejoin:round;}
	.st5{fill:#F1F2F2;stroke:#22093A;stroke-linecap:round;stroke-linejoin:round;}
	.st6{fill:none;stroke:#22093A;stroke-linecap:round;stroke-linejoin:round;}
	.st7{fill:#22093A;}
	.st8{fill:#71C1F2;stroke:#22093A;stroke-linecap:round;stroke-linejoin:round;}
	.st9{fill:none;stroke:#FFFFFF;stroke-linecap:round;stroke-linejoin:round;}
</style><g id="Layer_2_00000181044986413566787370000003072688706010409131_"><g id="Layer_1-2"><path class="st0" d="M76.907639,14.77913c-0.502197-0.440578-1.084366-0.78056-1.714851-1.00146    c-0.318794-0.161205-0.652786-0.290418-0.99707-0.38574c-1.02166-1.461186-2.415054-2.622972-4.036133-3.36524    c-1.864639-1.368338-4.09951-2.140757-6.411129-2.21582h-0.040001c-0.744762-1.5084-2.123058-2.60638-3.759769-2.99511    c-0.209324-0.047608-0.421776-0.080244-0.635738-0.09766c-1.040752-0.249098-2.13385-0.159461-3.120121,0.25586    c-0.618034-0.462278-1.325882-0.790256-2.078121-0.96289c-0.051762-0.01172-0.1045-0.02344-0.15625-0.03369    c-0.189869-0.069351-0.383945-0.126596-0.581059-0.17139c-1.611984-0.376532-3.306553,0.049477-4.548828,1.14356    c-0.224609-0.09766-0.45507-0.186-0.689449-0.26465c-1.340996-0.581521-2.799503-0.841051-4.258789-0.75782    c-0.563995,0.021398-1.123737,0.106785-1.668461,0.25452C41.34853,2.375329,39.624729,1.133098,37.6381,0.88558    c-3.062775-1.083412-6.423923,0.521178-7.507334,3.583952C30.099583,4.557686,30.070505,4.64657,30.04356,4.73611L30.0424,4.73617    c-0.269169-0.013017-0.538965-0.000101-0.80566,0.03857c-1.911919,0.27589-3.587227,1.424214-4.53418,3.10791    c-0.968996-0.312057-2.002499-0.366703-2.999001-0.15857c-1.26926-1.378858-3.111048-2.083669-4.976561-1.904419    c-3.314304-0.354655-6.288585,2.044615-6.643239,5.35892c-0.017893,0.167205-0.028789,0.335085-0.03266,0.5032    c-2.327188,0.505316-4.449634,1.696218-6.09363,3.41913c-2.51468,2.55567-3.32718,5.550301-2.22757,8.217289    c0.69629,1.688,3.79688,7.237789,7.29492,9.75927c3.99317,3.8335,7.44824,2.38916,8.7666,1.574219    c0.916739-0.548595,1.675762-1.325279,2.203131-2.254391c0.820827-0.009663,1.634947-0.149254,2.412109-0.41358    c1.548351-0.497133,2.829332-1.600199,3.550779-3.05761c0.245119,0.021999,0.480471,0.03027,0.74609,0.03076    c1.487246,0.0189,2.908875-0.611328,3.89356-1.72607c-3.94824,8.501461-8.931639,21.50634-12.044001,30.682121    c-0.334-0.00293-0.674801,0.00391-1.01758,0.018559c-1.44042,0.064449-4.08886,0.723629-5.65136,4.41357    c-1.877,4.432617-1.60352,13.19532,1.26074,16.42823c0.429134,0.475792,0.940163,0.870712,1.50879,1.166    c1.641669,1.220169,3.657504,1.829552,5.700191,1.723152l0.0459,0.000481c2.389143,0.008354,4.746807-0.544937,6.88282-1.615227    c1.818638,1.274399,4.047182,1.824745,6.250002,1.543457c1.077148-0.145172,2.122086-0.471039,3.09082-0.963867    c0.901665,0.771667,2.061153,1.174957,3.24707,1.129387c1.473064-0.03334,2.875504-0.637901,3.911129-1.685997    c1.171825,0.783676,2.595142,1.098907,3.988281,0.883301c0.54372-0.085052,1.069073-0.261711,1.553711-0.522461    c0.815556,0.51255,1.742233,0.821831,2.702148,0.901848c2.273861,0.252892,4.575401-0.023682,6.724609-0.808098    c1.020733,0.841011,2.302425,1.300415,3.625,1.299316c3.125004-0.001892,5.656788-2.536736,5.654896-5.661743    c-0.000443-0.734467-0.143875-1.46183-0.422295-2.141487c1.096939-1.595024,1.729752-3.463158,1.828003-5.396477    c0.231873-2.456612,0.615051-6.619812-1.889412-8.604679c0.829521-0.89753,1.454483-1.964314,1.831787-3.12677    c1.856438-5.617672,4.74707-18.672848,4.869141-19.225582c0.134377-0.607052,0.101639-1.239178-0.094727-1.829102    c0.362694-0.094685,0.717323-0.217957,1.060547-0.36866c3.524361-1.722137,5.977898-5.065672,6.563477-8.94433    C82.426193,22.244471,80.696701,18.07259,76.907639,14.77913z"/><path class="st1" d="M75.65712,14.22559c-0.50219-0.440585-1.084366-0.780572-1.714851-1.00147    c-0.318794-0.161205-0.652786-0.290418-0.99707-0.38574c-1.02166-1.461185-2.415054-2.622968-4.036133-3.36523    c-1.864632-1.36834-4.09951-2.140759-6.411129-2.21582h-0.040001c-0.744762-1.508402-2.123058-2.606384-3.759769-2.99512    c-0.209328-0.047603-0.421776-0.080239-0.635738-0.09766c-1.040756-0.249092-2.13385-0.159455-3.120121,0.25586    c-0.618038-0.462273-1.325882-0.790251-2.078121-0.96289c-0.051762-0.01172-0.104488-0.02343-0.15625-0.03369    c-0.189869-0.069352-0.383945-0.126594-0.581059-0.17138c-1.612-0.376558-3.306591,0.049448-4.548878,1.14355    c-0.224609-0.09766-0.455078-0.186-0.689461-0.26465c-1.341-0.581518-2.799503-0.841046-4.258789-0.75781    c-0.563992,0.021399-1.12373,0.106786-1.668449,0.25452c-0.863323-1.806267-2.587097-3.04851-4.573711-3.29606    c-3.062775-1.083429-6.423937,0.521148-7.507364,3.583923C28.849033,4.004096,28.81995,4.093,28.792999,4.18256l-0.00116,0.00006    c-0.269169-0.013014-0.538965-0.000094-0.80566,0.03858c-1.911922,0.275883-3.587233,1.424209-4.53418,3.10791    c-0.968996-0.31206-2.002501-0.366706-2.999001-0.15857c-1.269266-1.378891-3.111092-2.083708-4.97663-1.90442    c-3.314293-0.354666-6.288571,2.044585-6.643237,5.358878c-0.017895,0.167219-0.028791,0.335114-0.032663,0.503242    c-2.327191,0.505308-4.449639,1.696211-6.09363,3.41913C0.19227,17.103001-0.62023,20.09766,0.47938,22.76465    c0.69629,1.688,3.79688,7.237801,7.29493,9.759279c3.99316,3.8335,7.448239,2.38916,8.766599,1.574219    c0.916731-0.548607,1.675749-1.325291,2.203119-2.2544c0.820827-0.009657,1.634947-0.149242,2.412109-0.41357    c1.548353-0.497137,2.829332-1.600204,3.550779-3.057619c0.245119,0.021999,0.480471,0.030279,0.746099,0.03076    c1.487242,0.0189,2.908867-0.611328,3.893549-1.72607c-3.94824,8.501459-8.931641,21.50635-12.04394,30.682131    c-0.334-0.00293-0.67481,0.003899-1.01758,0.018551c-1.44043,0.064461-4.08887,0.72364-5.65137,4.413582    c-1.877,4.43261-1.60352,13.195312,1.26074,16.428223c0.429137,0.475784,0.940165,0.870712,1.50879,1.166    c1.641673,1.220169,3.657511,1.829544,5.700199,1.723137l0.0459,0.000488c2.389141,0.008347,4.746803-0.544945,6.882811-1.615242    c1.818638,1.274399,4.04718,1.824745,6.25,1.543457c1.077148-0.145172,2.122086-0.471039,3.09082-0.963867    c0.901657,0.771683,2.061146,1.17498,3.247063,1.129425c1.473061-0.033348,2.8755-0.637901,3.911129-1.685997    c1.171822,0.783684,2.595142,1.098907,3.988281,0.883301c0.54372-0.085045,1.069077-0.261703,1.553711-0.522461    c0.815552,0.512558,1.742233,0.821846,2.702148,0.901863c2.273861,0.252884,4.575401-0.023697,6.724609-0.808113    c1.020729,0.841019,2.302425,1.300423,3.625,1.299316c3.125-0.001884,5.656792-2.536728,5.654907-5.661736    c-0.000443-0.734467-0.143875-1.46183-0.422295-2.141487c1.096916-1.595039,1.729706-3.463173,1.827942-5.396492    c0.231873-2.456596,0.614998-6.619812-1.889412-8.604668c0.829521-0.89753,1.454483-1.964314,1.831787-3.12677    c1.856461-5.617718,4.747086-18.67289,4.869194-19.225628c0.134384-0.607052,0.101646-1.239182-0.094727-1.829102    c0.362701-0.094673,0.717323-0.217941,1.060547-0.368649c3.524368-1.722137,5.977898-5.065678,6.563477-8.94434    C81.175667,21.69092,79.446182,17.519051,75.65712,14.22559z"/><path class="st2" d="M11.50529,15.05993c-3.89241-1.79286-7.50447,3.912641-6.09682,7.32713    c0.92766,2.25021,5.26137,11.139509,9.26012,8.666651c3.348591-2.070801-1.26293-5.902809-1.26293-5.902809    s2.727541-2.228001,1.65437-4.14344s-4.351689,1.215-4.351689,1.215S15.17764,16.751431,11.50529,15.05993z"/><path class="st2" d="M70.252113,15.73352c0.293701-2.054709-5.30423-5.20785-7.860001-3.544    C60.471802,13.4398,54.61578,20.698,57.367001,23.18218s6.5779,3.769171,7.753223,1.31382    c0.858742-1.794001-2.99469-4.100191-2.99469-4.100191s3.563408,2.243389,4.741226,0.54472s-2.795464-3.619921-2.795464-3.619921    S69.713493,19.50178,70.252113,15.73352z"/><path class="st2" d="M73.328072,16.798719c-2.757423-2.39647-7.72435,5.784679-9.49168,9.530439    c-0.841999,1.78451,4.856312,6.999321,8.685001,5.315811C76.447502,29.91861,80.158707,22.73521,73.328072,16.798719z"/><path class="st2" d="M72.104523,23.273211c-0.658813-0.572571-2.470207,1.400061-2.53466,2.094999    c-0.04287,0.462311,0.994652,1.35507,1.792938,1.175329S73.736511,24.69157,72.104523,23.273211z"/><path class="st2" d="M19.99621,28.049c1.373159-0.467609,2.816509-1.74914,1.582121-7.801781    c-1.1021-5.403999-4.306499-5.96187-4.832541-5.78273s-4.692591,2.00248-3.27856,7.840799S17.96162,28.741859,19.99621,28.049z"/><circle class="st2" cx="15.98851" cy="11.20599" r="2.5426"/><path class="st2" d="M20.866051,10.93163c-2.04554,1.346931-1.443001,13.946479,4.53093,13.904    c3.412889-0.02426,1.0221-6.71137,1.0221-6.71137c0.580509,2.752737,3.134436,4.631485,5.935171,4.3661    c3.307201-0.2423,0.38533-14.95068-3.36162-14.88273c-3.54887,0.06437-1.382059,7.15557-1.382059,7.15557    S23.402639,9.26135,20.866051,10.93163z"/><path class="st2" d="M36.842789,21.745541c1.342079-0.2591,3.333149-0.959999,2.962749-6.76884    c-0.3307-5.186299-3.229549-5.97878-3.743679-5.879519s-3.942001,1.18664-3.37619,6.81863S34.854259,22.12944,36.842789,21.745541    z"/><circle class="st2" cx="35.61879" cy="6.11286" r="2.39582"/><path class="st2" d="M48.978119,11.27447C48.979549,9.637,47.205002,6.96525,43.62788,7.0867    c-3.52187,0.11956-5.06168,5.52948-1.524479,7.5761c3.275322,1.89509,2.196072,4.094261,0.774769,2.833771    c-2.734001-2.42464-6.918461,2.038839-3.197712,4.00152s9.202698,0.307779,9.761501-2.093    c1.058491-4.5477-2.417728-5.412399-4.015579-6.18815C45.42638,13.21691,48.975929,13.77375,48.978119,11.27447z"/><path class="st2" d="M57.891361,7.60741c-1.46051-0.3339-1.94582,1.626-2.925079,5.4231    c-0.41357-0.12258-0.864609-0.22914-1.33955-0.3275c0.786819-3.31954,0.067879-5.52609-1.589001-5.90481    c-1.591202-0.36378-2.311138,1.78777-3.327999,6.37263s-1.008072,7.42252,1.11845,7.748699    c1.040909,0.15967,1.861889-1.606609,2.637772-4.05929c0.235519,0.0462,0.482639,0.086451,0.752319,0.115049    c0.342361,0.036301-1.053349-0.120359-0.752319-0.115049c-0.361309,2.842449,0.296879,4.72979,1.92223,4.979101    c1.398201,0.214479,3.838741-3.03665,4.86692-6.76939C60.41687,10.85246,59.774799,8.03793,57.891361,7.60741z"/><path class="st3" d="M10.34617,14.55763c-1.95952-0.77009-8.07053,3.38968-6.66288,6.80417    c0.92766,2.2502,6.21789,10.9956,9.26012,8.666639c3.126261-2.39328-1.26293-5.902809-1.26293-5.902809    s2.72754-2.228001,1.65437-4.14344s-4.351689,1.215-4.351689,1.215S14.10918,16.03651,10.34617,14.55763z"/><path class="st3" d="M68.526932,14.70825c0.293694-2.05471-5.30423-5.20785-7.859951-3.544    c-1.920361,1.25025-7.776379,8.508491-5.025181,10.992621s6.5779,3.769171,7.75322,1.31382    c0.858742-1.794001-2.99469-4.100189-2.99469-4.100189s3.563412,2.243389,4.741226,0.544729    c1.177811-1.69866-2.79546-3.619921-2.79546-3.619921S67.988312,18.476521,68.526932,14.70825z"/><path class="st3" d="M72.71994,16.53548c-2.757423-2.39647-8.8414,5.02265-10.60873,8.768421    c-0.841999,1.7845,4.856312,6.99931,8.685001,5.3158C74.722321,28.893351,79.550583,22.472,72.71994,16.53548z"/><path class="st2" d="M70.379341,22.247999c-0.658813-0.572571-2.470207,1.400049-2.53466,2.094999    c-0.04287,0.462311,0.994652,1.35507,1.792938,1.175341S72.01133,23.6663,70.379341,22.247999z"/><path class="st3" d="M18.271,27.02375c1.373159-0.4676,2.816509-1.74914,1.582119-7.801769    c-1.1021-5.403999-3.21117-4.92986-3.737209-4.75072s-3.70319,0.96457-2.28916,6.80289S16.236441,27.7166,18.271,27.02375z"/><circle class="st3" cx="14.80654" cy="11.20599" r="2.5426"/><path class="st3" d="M20.399389,10.83567C18.353861,12.1826,20.36911,24.671,23.671801,23.810381    s1.022099-6.71138,1.022099-6.71138s3.247999,5.437099,5.935171,4.3661c3.080421-1.22773,0.44318-14.23374-2.16283-13.84909    c-3.51141,0.51828-2.58086,6.12194-2.58086,6.12194S22.936001,9.16539,20.399389,10.83567z"/><path class="st3" d="M35.596001,21.029091c1.342072-0.25909,2.854778-1.26882,2.484379-7.07765    c-0.3307-5.18631-2.3605-5.01616-2.87463-4.91691s-3.58106,0.422-3.015301,6.054    C32.75621,20.720531,33.607449,21.413,35.596001,21.029091z"/><circle class="st3" cx="34.4053" cy="5.81768" r="2.39582"/><path class="st3" d="M47.252941,10.24921c0.001431-1.63751-0.958809-3.567-4.535881-3.44555    c-3.52187,0.11957-5.875999,4.78725-2.33884,6.83387c3.275322,1.8951,2.196072,4.09427,0.774769,2.833779    c-2.734001-2.42465-5.647121,2.54759-1.926369,4.51026s7.931358-0.201,8.490162-2.60178    c1.058491-4.5477-2.417728-5.41239-4.015579-6.18815C43.701199,12.19164,47.250751,12.74848,47.252941,10.24921z"/><path class="st3" d="M57.313259,7.52281c-1.46051-0.3339-2.694172,1.18911-3.67342,4.98616    c-0.413582-0.12257-0.86462-0.22914-1.33955-0.3275c0.786812-3.31954,0.670719-5.20667-0.986172-5.58539    c-1.591202-0.36378-2.914001,1.46835-3.93082,6.05322s-1.008068,7.42252,1.118462,7.74869    c1.040901,0.15967,1.861881-1.606609,2.637772-4.05929c0.235512,0.046209,0.482632,0.086451,0.752319,0.115049    c0.342361,0.036301,0.65847,0.05337,0.959511,0.05868c-0.36132,2.842449,0.024189,4.563,1.64954,4.81229    c1.398201,0.214479,2.39959-3.04357,3.427769-6.77631C59.09042,10.33092,59.196701,7.95333,57.313259,7.52281z"/><path class="st4" d="M6.9282,17.49741c-2.18241,2.431999-2.112,2.9575-0.443,5.53936"/><path class="st4" d="M13.97694,10.59634c-0.150134,0.421283-0.053806,0.891091,0.25,1.2193"/><path class="st4" d="M33.65324,5.208c-0.150135,0.421286-0.053806,0.891097,0.25,1.21931"/><path class="st4" d="M15.51324,20.16876c0.17089,1.718611,0.970099,4.92721,1.837899,4.81329"/><path class="st4" d="M21.321739,12.55505c-0.270641,1.286554-0.270643,2.615345,0,3.901899"/><path class="st4" d="M33.927799,15.05993c-0.051922,1.0773,0.212608,3.64557,0.9613,3.87342"/><path class="st4" d="M42.831059,8.48226c-1.310188-0.059605-2.420624,0.954193-2.480232,2.264382    c-0.015137,0.332787,0.039909,0.665035,0.161564,0.975158"/><path class="st4" d="M48.679871,14.20154c-0.22657,1.08118-0.72377,3.328001,0.015999,4.01977"/><path class="st4" d="M59.514778,14.37586c1.19894-1.08677,2.213852-2.90309,4.237919-1.82081"/><path class="st4" d="M65.232002,23.17c-0.792236,1.027-1.477619,2.13377-1.35754,2.47743    c0.445477,0.83909,1.090046,1.556051,1.877163,2.087999"/><path class="st4" d="M66.919838,21.116461c-0.269058,0.203659-0.198799,0.271999-0.58976,0.722879"/><path class="st2" d="M37.390549,20.17617c1.962002,0.45182-17.566549,51.458122-19.975691,51.080452    S34.280769,19.459999,37.390549,20.17617z"/><path class="st2" d="M37.646919,24.1583c0,0,5.75806-3.98954,11.595001-0.26075    c4.56641,2.91713,3.459419,9.08827,10.282429,13.424089c5.459538,3.469379,10.022343-1.029831,10.022343-1.029831    S66.594551,49.66087,64.772789,55.17334c-2.175789,6.583729-13.720001,3.276909-20.153198-5.51247    c-2.95348-4.035198-10.547852-9.233929-14.151371-6.468781S37.646919,24.1583,37.646919,24.1583z"/><path class="st5" d="M37.246189,24.1583c0,0,5.75806-3.98954,11.595001-0.26075    c4.56641,2.91713,3.459419,9.08827,10.282429,13.424089c5.459564,3.46936,10.022385-1.029831,10.022385-1.029831    S66.193855,49.66087,64.372101,55.17334c-2.175789,6.583729-13.720001,3.276909-20.15321-5.51247    c-2.953468-4.035198-10.54784-9.233929-14.15136-6.468781S37.246189,24.1583,37.246189,24.1583z"/><path class="st6" d="M34.186539,30.347931c0,0,4.914848-2.762001,8.641998-1.240999    c7.475479,3.050699,5.732899,9.492479,13.140339,13.442999c7.718613,4.116539,11.148624,1.55167,11.148624,1.55167"/><path class="st6" d="M30.757549,38.022911c3.498508-2.207016,7.908482-2.380711,11.56974-0.4557    c5.698162,2.795872,6.112541,9.867111,13.341648,13.13924c6.987339,3.162701,10.08271,0.416691,10.08271,0.416691"/><line class="st6" x1="44.732231" x2="36.268051" y1="21.98271" y2="43.328812"/><line class="st6" x1="50.748428" x2="43.17654" y1="25.64743" y2="48.727169"/><line class="st6" x1="55.820839" x2="49.619061" y1="34.864761" y2="54.917332"/><line class="st6" x1="62.575619" x2="56.37262" y1="38.504101" y2="58.363209"/><path class="st7" d="M37.246189,24.1583l-2.48959,5.66762c2.266769-1.556999,7.332001-1.17614,7.332001-1.17614l2.51572-6.344471    C44.604321,22.305309,40.289188,21.54744,37.246189,24.1583z"/><path class="st7" d="M31.479071,37.838581l-2.083471,5.490231c2.266769-1.556999,6.957222-0.213791,6.957222-0.213791    l2.385551-6.776501C38.738373,36.33852,34.522072,35.227718,31.479071,37.838581z"/><path class="st7" d="M42.01107,28.845289l-3.009899,7.590792c1.557316-0.090698,3.078392,0.492905,4.175369,1.602001    c1.93544,1.889099,2.654678,2.597408,2.654678,2.597408l2.423382-7.070309c-0.592472-1.269108-1.56908-2.319735-2.791599-3.003181    C44.36034,29.897966,43.205959,29.323872,42.01107,28.845289z"/><path class="st7" d="M53.864891,41.189049l1.955952-6.71051c-1.048767-1.378414-1.952301-2.861506-2.696201-4.42565    c-0.633026-1.400578-1.430721-2.720718-2.376209-3.932489l-2.493832,7.44479    c0.773556,1.667149,1.733891,3.241085,2.862549,4.69157C51.965153,39.295677,52.883209,40.275394,53.864891,41.189049z"/><path class="st7" d="M45.831219,40.635502l-2.55838,7.798161c1.031796,1.480381,2.189632,2.868793,3.46059,4.149731    c0.875298,0.822826,1.898293,1.472729,3.015068,1.915451l1.937759-6.265499c0,0-1.732368-2.17878-3.19453-4.242859    C47.672325,42.820301,46.783916,41.699986,45.831219,40.635502z"/><path class="st7" d="M53.864891,41.189049l-2.178631,7.044289c1.005314,0.905624,2.149315,1.644215,3.388458,2.187664    c2.010811,0.86739,3.519508,1.349789,3.519508,1.349789l2.119492-7.30579c-1.587223-0.364262-3.109398-0.969147-4.513718-1.793678    L53.864891,41.189049z"/><path class="st7" d="M60.713718,44.465l1.649841-5.282001c1.636456-0.420345,3.228497-0.997753,4.753941-1.724178    c0.702179-0.341911,1.379951-0.731834,2.028481-1.167l-1.840103,7.940781c-1.22892,0.688034-2.642021,0.975124-4.042,0.821178    C60.8335,44.82592,60.713718,44.465,60.713718,44.465z"/><path class="st7" d="M58.594231,51.770748l-2.053391,6.053898c0,0-0.335461,0.708591,2.053398,0.819431    c2.270931,0.105358,3.313229,0.313492,5.429131-2.729549c0.656342-1.367836,1.128731-2.816532,1.404869-4.308342    c-1.466061,0.313625-2.954697,0.510437-4.451889,0.588589C60.159786,52.246651,59.342735,52.101212,58.594231,51.770748z"/><path class="st2" d="M17.47423,61.531479c-4.45829,0.199619-4.1514,12.513573-1.92739,15.023911    c1.479609,1.67009,8.468999,1.325996,10.77671-1.813339S28.5182,61.036999,17.47423,61.531479z"/><path class="st2" d="M20.246531,67.840187c-1.06518,0.047691-0.991859,2.989761-0.460489,3.589539    c0.862902,0.418991,1.896528,0.245064,2.574791-0.43325c0.600693-0.988243,0.286524-2.276329-0.701719-2.877022    C21.236069,67.862312,20.7356,67.763367,20.246531,67.840187z"/><path class="st2" d="M30.63875,61.998581c2.675261-0.374592,6.976,1.909599,7.127638,7.158142s-3.048,7.955002-5.976879,8.343216    c-2.64266,0.350311-6.34436-1.387489-6.69047-6.966423C24.815491,65.962898,26.70932,62.548771,30.63875,61.998581z"/><path class="st2" d="M31.395781,67.209106c0.37278-0.154823,0.997999,0.48819,1.066511,2.107803    s-0.356998,2.502617-0.765341,2.665367c-0.368401,0.146851-0.90449-0.336082-1.003309-2.054932    C30.612671,68.51915,30.848249,67.436523,31.395781,67.209106z"/><path class="st2" d="M38.153889,63.962769c-2.34407,0.87944-3.163261,13.784569,0.323841,13.674599    s2.538681-6.458618,2.538681-6.458618s2.006439,6.15538,4.92762,5.696297c3.348671-0.52626,3.66507-14.08823,0.980221-14.294949    c-3.617641-0.278542-3.959,5.51807-3.959,5.51807S41.060669,62.872211,38.153889,63.962769z"/><path class="st2" d="M56.96875,62.714741c-0.945202-1.281879-7.306412-0.747421-8.529251,3.000393    c-0.797932,2.445503-1.541,11.15123,2.604622,11.50988s7.51466-0.971191,7.270279-3.190491s-5.458778-1.639893-5.458778-1.639893    s4.437561-0.81971,4.340439-3.13813s-4.683182-0.932632-4.683182-0.932632S59.50473,66.15406,56.96875,62.714741z"/><path class="st2" d="M62.678501,61.791771c-1.2397-0.004349-2.762661,0.62944-3.44986,5.863708    c-0.613548,4.673317,1.222599,4.87722,1.697521,4.878891s3.26075,0.251297,3.743141-4.859802    S64.51535,61.798222,62.678501,61.791771z"/><circle class="st2" cx="61.075371" cy="75.537239" r="2.172958"/><path class="st8" d="M16.409149,60.806648c-4.45829,0.199619-4.1514,12.513573-1.92739,15.023911    c1.479609,1.67009,8.469001,1.325996,10.77671-1.813339S27.453119,60.312141,16.409149,60.806648z"/><path class="st2" d="M19.18145,67.115356c-1.06518,0.047691-0.991859,2.989761-0.460489,3.589539    c0.8629,0.418991,1.896528,0.245064,2.574789-0.43325c0.600693-0.988243,0.286522-2.276329-0.701719-2.877022    C20.170986,67.137482,19.670517,67.038536,19.18145,67.115356z"/><path class="st8" d="M29.573669,61.273739c2.675259-0.37458,6.975998,1.909611,7.12764,7.158154    s-3.048,7.955002-5.976879,8.343224c-2.64266,0.350311-6.344349-1.387497-6.69047-6.966431    C23.75041,65.238068,25.644239,61.82394,29.573669,61.273739z"/><path class="st2" d="M30.3307,66.484283c0.37278-0.154823,0.997999,0.48819,1.066509,2.107788s-0.357,2.502632-0.765329,2.665382    c-0.36841,0.146851-0.904501-0.336082-1.003321-2.054932C29.54759,67.794319,29.783171,66.711678,30.3307,66.484283z"/><path class="st8" d="M37.08881,63.237942c-2.344059,0.879436-3.163261,13.784573,0.323841,13.674603    s2.538681-6.458633,2.538681-6.458633s2.006439,6.155388,4.92762,5.696312c3.348671-0.526268,3.66507-14.08823,0.980221-14.294998    c-3.617641-0.278542-3.959,5.518066-3.959,5.518066S39.99559,62.147381,37.08881,63.237942z"/><path class="st8" d="M55.903671,61.98991c-0.945202-1.281879-7.306412-0.747421-8.529251,3.000393    c-0.797932,2.445503-1.541,11.15123,2.604622,11.50988s7.51466-0.971191,7.270279-3.190491S51.790543,71.6698,51.790543,71.6698    s4.437561-0.819717,4.340439-3.13813S51.4478,67.598999,51.4478,67.598999S58.439659,65.42923,55.903671,61.98991z"/><path class="st8" d="M61.613419,61.06694c-1.2397-0.004349-2.762661,0.629429-3.44986,5.863708    c-0.613548,4.673317,1.222599,4.87722,1.697521,4.878883s3.26075,0.251312,3.743141-4.859787    C64.086609,61.838646,63.450272,61.07338,61.613419,61.06694z"/><circle class="st8" cx="60.010288" cy="74.812408" r="2.172958"/><path class="st9" d="M15.09389,66.439423c-0.22784,1.644112-0.23517,5.28968,0.79381,7.340309"/><path class="st9" d="M29.731251,63.108849c-1.00444-0.377651-3.349279,1.063293-3.58193,3.151901"/><path class="st9" d="M36.706501,70.104218c-0.142376,1.474014,0.037312,2.961365,0.52663,4.359062"/><path class="st9" d="M49.619061,64.855682c-0.851192,1.55394-1.231415,3.322136-1.094231,5.088608"/><path class="st9" d="M61.593208,63.036179c-0.581059,0.05407-1.35667,0.447689-1.655899,3.298714"/><path class="st9" d="M59.872002,74.235428c-0.306461,0.210533-0.453033,0.587044-0.369579,0.949371"/></g></g></svg>