<svg xmlns="http://www.w3.org/2000/svg" viewBox="0 0 500 500"><g id="freepik--Background--inject-706"><path id="freepik--background--inject-706" d="M104.89,68C-2.47,119.94-31.65,306.25,65.1,403.62c114.23,115,320.11,79.15,383.42,12,30.12-31.94,44.4-68.68,44.32-108.22-.08-43.75-12.36-100.52-45.57-148.4C394.58,83,256.42-5.29,104.89,68Z" style="fill:#37474f"></path></g><g id="freepik--Floor--inject-706"><path id="freepik--floor--inject-706" d="M421.6,323c-95.17-55-249.48-55-344.66,0C58.32,333.72,43.36,345.78,32,358.63a191.24,191.24,0,0,0,33.07,45c114.23,115,320.11,79.15,383.42,12a168.16,168.16,0,0,0,29.35-42C466.05,355.15,447.31,337.81,421.6,323Z" style="fill:#455a64"></path></g><g id="freepik--Shadows--inject-706"><ellipse id="freepik--Shadow--inject-706" cx="402.22" cy="373.46" rx="61.55" ry="35.54" transform="translate(-1.16 1.25) rotate(-0.18)" style="opacity:0.2"></ellipse><ellipse id="freepik--shadow--inject-706" cx="121.97" cy="359.81" rx="40.97" ry="70.96" transform="translate(-238.22 480.67) rotate(-89.82)" style="opacity:0.2"></ellipse><ellipse id="freepik--shadow--inject-706" cx="212.98" cy="315.67" rx="27.64" ry="47.87" transform="translate(-103.35 527.68) rotate(-89.82)" style="opacity:0.2"></ellipse></g><g id="freepik--Pumpkins--inject-706"><g id="freepik--Pumpkin--inject-706"><path d="M232,264.11c-4.34-3.31-12-4.24-21.54-3.63-8.92.58-13.44,1.72-17.68,4.6a28.35,28.35,0,0,0-14.55,6.7c-6.86,6-12.85,20.48-8.68,31.14,0,0,0-.07,0-.11a36.88,36.88,0,0,0,.62,6.08c1.65,8.76,9.06,13.16,14.57,14.43a16.39,16.39,0,0,0,2.5,3.33c5,5.16,12.87,5.15,15.77,3.7a14.1,14.1,0,0,0,11,4.23,13.82,13.82,0,0,0,10-4.78c2.84,1.41,10.89,1.14,15.75-4.34a16.32,16.32,0,0,0,2.35-3.43c5.45-1.52,12.66-6.25,13.91-15.08a36.07,36.07,0,0,0,.12-9.38C258.76,278,246,265.85,232,264.11Z" style="fill:#455a64"></path><path d="M249.3,312.5c-1.14-.62.31-7.28-1.11-13.46a39.7,39.7,0,0,0-10.89-18.33c-4.76-4.18-11.21-5.08-11-7s6.17-2.12,11.54-.45a34.93,34.93,0,0,1,6,3.35,29.46,29.46,0,0,1,12.32,21,33.74,33.74,0,0,0-.78-13.56c-.27,1.37-.88,1.87-1.74.4-1.52-2.61-2.49-5.34-8.58-10.23s-14.79-5.52-20.44-5.91-3.53-2.48-.69-4a28.42,28.42,0,0,1,8.08-.15c-2.31-1.76-5.56-2.85-9.54-3.39,0,0,2,.9.89,1.77s-9.21,3.27-13.12,2.9-9.69-2.35-8.63-3.88a22.88,22.88,0,0,0-8.84,3.57,28.65,28.65,0,0,0-4.29,1c5.07-1.09,14.17-.41,12.2,1.45s-10,1.27-17,5.19c-10.71,6-11.14,14.09-12.77,14.32-1.14.16-.22-3.35.44-5.49-3.05,6.62-4.39,14.73-1.8,21.36-.23-10.54,4.32-19.48,11.45-24.87a32,32,0,0,1,8.84-4.85c4.48-1.08,9.69.16,7.87,2.07s-11.62,3.11-16.57,15.36-1.57,21-2.16,24.53-7.28-.31-9.27-9.65c.11,1.12.27,2.26.48,3.41,1.65,8.76,9.07,13.16,14.58,14.43a16.3,16.3,0,0,0,2.5,3.33c5,5.16,12.87,5.15,15.79,3.7l-.17-.15a14.1,14.1,0,0,0,11.18,4.38,13.82,13.82,0,0,0,10-4.78h0c2.84,1.41,10.89,1.14,15.75-4.34a16.51,16.51,0,0,0,2.35-3.44c5.45-1.52,12.65-6.24,13.9-15.07.11-.74.19-1.47.25-2.19C254.06,313.13,250.44,313.13,249.3,312.5Zm-9.51,6.95c-5.58,5.19-9.59,4.83-9.59,4.83,5-10.69.74-22-3.21-29.37a54.8,54.8,0,0,1,2.46,18.94c-.94,6.14-5.57,13.58-13.81,15.93s-15.06-3.32-16.94-7.65a50.33,50.33,0,0,1-1.6-12.44,69.15,69.15,0,0,1,1.56-14.11l0,0c-3.61,7.49-7.39,19-1.87,29.48,0,0-4,.54-9.8-4.38-5.48-4.65-6-13.06-6.06-14,0-.48,0-1,0-1.41.43-6,1.29-16.93,12-24.73a35.5,35.5,0,0,1,14-6.11,1.47,1.47,0,0,1-.38.21c2.09.2,3.8.48,4.95.69a9.32,9.32,0,0,1,.67-3.82,9.28,9.28,0,0,1,.9,3.63c1.1-.26,2.73-.6,4.73-.88h0c.63.35,2.27.58,3.16,1.09h0a43.68,43.68,0,0,1,11,5.23c11.09,7.31,12.35,17.26,13.05,23.24.06.47.1,1,.13,1.48C245.22,306.51,244.94,314.67,239.79,319.45Z" style="opacity:0.1"></path><path d="M217.9,278.46s-3.67-1.63-6.46-1.22-6.07,2.88-6.07,2.88-.39-3.71-6.08-3.81c0,0,2.13-2.66.82-4.63a6.69,6.69,0,0,0,5.65-4.32,9.32,9.32,0,0,0,.14-5.36,6,6,0,0,0-.75-1.93,3.12,3.12,0,0,1-.82-2.33,3.22,3.22,0,0,1,.82-1.35,4.47,4.47,0,0,1,2.52-1.78c.8-.11,1.59.22,2.39.17,1.1-.06,2-.83,3.08-1.14a4,4,0,0,1,3.17.47c.91.57.94,1.22,1.28,2.15a15.93,15.93,0,0,1,1.07,6.33c-.25,5-.71,8.25,3.86,9.8,0,0-1.86,1.26.73,3.47C223.25,275.86,218.31,274.83,217.9,278.46Z" style="fill:#263238"></path><path d="M204.59,259.14a2.06,2.06,0,0,1-.26-1.4,3.22,3.22,0,0,1,.82-1.35,4.47,4.47,0,0,1,2.52-1.78c.8-.11,1.59.22,2.39.17,1.1-.06,2-.83,3.08-1.14a4,4,0,0,1,3.17.47,2.13,2.13,0,0,1,.93,1.15,1.53,1.53,0,0,1-.52,1.53c-.54.39-1.3.41-1.76.89s-.4,1.41-.69,2.1a2,2,0,0,1-1.92,1.18,8.74,8.74,0,0,1-1.69-.54c-1.76-.55-3.85.25-5.42-.71A2.38,2.38,0,0,1,204.59,259.14Z"></path><path d="M203.75,277.59c2.75-2.68,5.35-9,5.72-12.34a26.78,26.78,0,0,1-.83,7.95c-1.09,3.71-2.16,4.58-3.27,6.92A4,4,0,0,0,203.75,277.59Z" style="opacity:0.2"></path><path d="M214,272.48a38.91,38.91,0,0,1,.26-7.31s-.39,6.49,1.6,9a11,11,0,0,0,2.86,2.49,2.78,2.78,0,0,0-.82,1.77A7.05,7.05,0,0,1,214,272.48Z" style="opacity:0.2"></path></g><g id="freepik--pumpkin--inject-706"><path d="M446.2,323.44A35.55,35.55,0,0,0,428,315.08c-5.3-3.6-10.94-5-22.07-5.74-12-.77-21.48.4-26.9,4.53-17.53,2.17-33.43,17.29-30.16,41.78a44.76,44.76,0,0,0,.15,11.71c1.56,11,10.56,16.92,17.36,18.82a20.89,20.89,0,0,0,2.93,4.29c6.07,6.85,16.13,7.17,19.67,5.42a17.27,17.27,0,0,0,12.45,6,17.62,17.62,0,0,0,13.77-5.29c3.62,1.82,13.43,1.83,19.69-4.61A20.85,20.85,0,0,0,438,387.8c6.88-1.59,16.14-7.08,18.2-18a45.65,45.65,0,0,0,.77-7.59.59.59,0,0,1,0,.14C462.24,349,454.76,331,446.2,323.44Z" style="fill:#455a64"></path><path d="M348.74,364.63c.08.89.18,1.81.31,2.73,1.56,11,10.55,16.92,17.36,18.82a20.51,20.51,0,0,0,2.93,4.29c6.07,6.84,16.12,7.18,19.67,5.42h0a17.27,17.27,0,0,0,12.45,6,17.62,17.62,0,0,0,14-5.47l-.2.19c3.65,1.81,13.46,1.82,19.71-4.62A20.75,20.75,0,0,0,438,387.8c6.88-1.59,16.14-7.08,18.2-18,.26-1.43.46-2.86.6-4.26C454.36,377.19,446,382,445.27,377.57s3.48-15.33-2.7-30.62-18.42-16.77-20.69-19.18,4.24-3.94,9.83-2.59a39.73,39.73,0,0,1,11,6.06c8.9,6.73,14.58,17.89,14.29,31.05,3.23-8.28,1.56-18.4-2.25-26.67.83,2.67,2,7.06.55,6.86-2-.29-2.57-10.43-15.94-17.88-8.79-4.9-18.77-4.17-21.24-6.48s8.9-3.17,15.23-1.81a34.86,34.86,0,0,0-5.35-1.23,28.5,28.5,0,0,0-11-4.45c1.32,1.91-5.93,4.39-10.78,4.84s-15-2.52-16.38-3.62,1.08-2.2,1.12-2.21c-5,.67-9,2-11.92,4.23a35.54,35.54,0,0,1,10.09.19c3.55,1.9,6.2,4.51-.86,5s-17.9,1.28-25.52,7.38S353.94,336,352,339.21c-1.08,1.83-1.84,1.21-2.17-.5a42,42,0,0,0-1,16.93,36.75,36.75,0,0,1,15.38-26.17,43.78,43.78,0,0,1,7.51-4.19c6.71-2.08,14.16-1.82,14.41.57s-7.82,3.53-13.76,8.75-11.83,15.17-13.6,22.88,0,16-1.39,16.81S351.5,375.08,348.74,364.63Zm13.8.63c0-.64.09-1.26.16-1.85.87-7.46,2.45-19.88,16.29-29a54.7,54.7,0,0,1,13.8-6.53h0c1.12-.64,3.16-.93,3.95-1.37h0c2.49.35,4.53.77,5.9,1.1a11.5,11.5,0,0,1,1.13-4.54,11.63,11.63,0,0,1,.83,4.77c1.44-.26,3.57-.61,6.18-.86a1.93,1.93,0,0,1-.46-.26,44.29,44.29,0,0,1,17.43,7.63c13.42,9.74,14.5,23.37,15,30.88,0,.55.06,1.15.07,1.76-.05,1.17-.72,11.66-7.57,17.48C428,390.61,423,389.93,423,389.93c6.89-13,2.18-27.45-2.33-36.8l0,0a86.31,86.31,0,0,1,1.95,17.62,63.08,63.08,0,0,1-2,15.53c-2.36,5.41-10.73,12.51-21.15,9.55S383.41,383.64,382.23,376a68.48,68.48,0,0,1,3.07-23.64c-4.93,9.14-10.3,23.32-4,36.67,0,0-5,.45-12-6C362.89,377,362.55,366.81,362.54,365.26Z" style="opacity:0.1"></path><path d="M396.65,331.78s4.59-2,8.07-1.52,7.58,3.6,7.58,3.6.48-4.63,7.59-4.76c0,0-2.66-3.32-1-5.78a8.35,8.35,0,0,1-7.05-5.39,11.55,11.55,0,0,1-.17-6.69,7.65,7.65,0,0,1,.93-2.42,3.89,3.89,0,0,0,1-2.9,4,4,0,0,0-1-1.68,5.47,5.47,0,0,0-3.15-2.23c-1-.14-2,.28-3,.21-1.37-.08-2.52-1-3.84-1.42a4.89,4.89,0,0,0-4,.58c-1.14.72-1.17,1.53-1.6,2.69a20,20,0,0,0-1.34,7.9c.32,6.26.88,10.31-4.82,12.24,0,0,2.33,1.57-.91,4.33C390,328.54,396.14,327.26,396.65,331.78Z" style="fill:#263238"></path><path d="M413.27,307.67a2.54,2.54,0,0,0,.32-1.75,4,4,0,0,0-1-1.68,5.47,5.47,0,0,0-3.15-2.23c-1-.14-2,.28-3,.21-1.37-.08-2.52-1-3.84-1.42a4.89,4.89,0,0,0-4,.58,2.68,2.68,0,0,0-1.16,1.44,1.9,1.9,0,0,0,.65,1.91c.67.48,1.62.51,2.19,1.11s.51,1.77.86,2.63a2.47,2.47,0,0,0,2.41,1.47,10.94,10.94,0,0,0,2.1-.68c2.2-.69,4.8.31,6.77-.88A3.26,3.26,0,0,0,413.27,307.67Z"></path><path d="M414.32,330.7c-3.44-3.35-6.68-11.22-7.15-15.41a33.67,33.67,0,0,0,1.05,9.92c1.35,4.64,2.69,5.73,4.08,8.65A5,5,0,0,1,414.32,330.7Z" style="opacity:0.2"></path><path d="M401.53,324.31a49.22,49.22,0,0,0-.33-9.12s.49,8.11-2,11.28a13.28,13.28,0,0,1-3.58,3.1,3.46,3.46,0,0,1,1,2.21A8.8,8.8,0,0,0,401.53,324.31Z" style="opacity:0.2"></path></g><g id="freepik--pumpkin--inject-706"><path d="M184.81,324.2c-3.7-22.12-19.42-46.79-40.28-50.93-4.59-2.67-9.74-3.79-19.09-4.36-11.28-.69-20.18.47-25.17,4.47-16,2.52-27.85,17.22-34.66,33.84a48.57,48.57,0,0,0-9.81,30.95c.27,9.69,3.78,25.41,17.61,32.32.28.45.57.91.89,1.35,5.73,8,23.41,12.71,28.42,11.09a24.89,24.89,0,0,0,16.87,6.88c7.25.29,14.59-1.72,20.24-7.26,5,1.56,22.74-3.19,28.78-11.33.25-.34.49-.68.72-1,13.35-7,16.78-22.46,17-32A49.58,49.58,0,0,0,184.81,324.2Z" style="fill:#455a64"></path><path d="M121.86,279c2-2.67,5.65-5.11,12.28-6a31.3,31.3,0,0,1,10.38.31,27.24,27.24,0,0,0-8.85-3.19c1.25,1.76-6.87,3-11.37,3.45s-12.49-1.22-13.77-2.24,1-2,1-2c-4.75.65-8.59,2-11.29,4.16a32.1,32.1,0,0,1,9.6-.06C116.18,274.22,119.82,276.46,121.86,279ZM125,276.1a14,14,0,0,0-1.7,1.28,10.93,10.93,0,0,0-1.48,1.61q.2.22.36.45l.26.36.22.33.31.55c.1.18.18.36.27.54a10.81,10.81,0,0,1,.6,1.6,3,3,0,0,1,.08.32,8.76,8.76,0,0,1,.23,1.18c0,.19.06.38.07.56s0,.07,0,.1c.73-.12,1.54-.23,2.41-.32-.58-.11-1.15-.2-1.69-.26.12-.36,1-.85,3.41-1.61,8.17-2.63,17.69-2.24,27.51,4.86,13.87,10,24.9,21.41,28.88,36.44a77.08,77.08,0,0,0-11.34-28.71c.21,1.89-2.07,2.18-3.34,1a73,73,0,0,0-13.15-10c-9.87-5.83-14.51-6-21.09-6.42s-5-5.27-1.72-7a31.07,31.07,0,0,0-5.28,1.31A19,19,0,0,0,125,276.1ZM86.27,287.65c9.82-7.1,19.34-7.49,27.51-4.86,4,1.27,3.9,1.79,2.73,2.22,1.18.1,2.27.24,3.22.38,0-.14,0-.28,0-.42s0-.33,0-.49,0-.3,0-.45a10.7,10.7,0,0,1,1-3.28l.19-.38c.12-.23.24-.45.38-.68.06-.08.11-.16.16-.24s.2-.28.3-.42l0,0a11.15,11.15,0,0,0-1.17-1.23,14.1,14.1,0,0,0-1.71-1.28,23.51,23.51,0,0,0-9.11-3.15c3.29,1.74,5.75,4.17-.82,4.63s-12.44.91-18.61,4.38c-8.18,4.6-11.36,8.35-14.53,11.1-1.6,1.39-5.39,4.83-4,1.46a82.93,82.93,0,0,0-6.25,12.29C71,299.9,78.12,293.54,86.27,287.65Zm100.07,48.23c-.94,9.13-5.22,16.54-10,2.16-4.51-13.48-11-28.24-23.85-39.43,10.13,11.92,17.12,28.08,20.2,42.58.26,1.2.56,2.76.82,4.55a32.05,32.05,0,0,1-6.78,18.15c-6.43,7.84-12.71,8.37-12.71,8.37,8.8-21.31-3.57-65.07-23.36-82l.33.67v0a53.61,53.61,0,0,1,5.65,8.07c8.71,14.74,13,33.25,14,50.11,0,.24,0,.48,0,.72a49.38,49.38,0,0,1-2.11,17.91c-3.35,6-16.2,16.94-32.23,13.73-13.46-2.69-22.5-11.37-23.18-23.35-1.31-22,5.19-41.9,16.26-59.83a39.82,39.82,0,0,1,3.18-4.49v0c-21,17.05-31.68,55.3-23.75,78.95,0,0-6.25-.49-12.35-8.2-5.28-6.68-6.17-15.32-6.15-17.84.32-1.83.69-3.42,1-4.65,4.43-18.54,13.52-37.51,28.67-49.32a35.83,35.83,0,0,1,4.35-2.91C85,298.53,71.89,320,65.86,338c-4.81,14.38-9.1,7-10-2.16,0,.76,0,1.51,0,2.29.27,9.69,3.78,25.42,17.62,32.32.28.45.57.91.88,1.35,5.73,8,23.41,12.7,28.41,11.09l-.32-.34.33.34a24.89,24.89,0,0,0,16.87,6.88c7.25.29,14.59-1.72,20.24-7.26,5,1.56,22.73-3.19,28.78-11.33.3-.4.57-.81.84-1.21l-.12.18c13.35-7,16.78-22.46,17-32C186.38,337.39,186.35,336.64,186.34,335.88Z" style="opacity:0.15"></path><path d="M136.85,281.8s-2.54,1.79,1.1,4.77c0,0-6.85-1.29-7.32,3.72,0,0-5.11-2.14-8.95-1.5s-8.31,4.14-8.31,4.14-.39-6.65-8.47-3.72c0,0,1.51-7.15-.34-9.84a18.47,18.47,0,0,0,6-1.43c2.75-1.38,3.5-2.22,4.25-4.22a9.12,9.12,0,0,0,.43-3.8c-.06-4.23-.44-9.54-4.22-12.31a5.66,5.66,0,0,0-5.39-.88,8.13,8.13,0,0,1-4.13.58,5.75,5.75,0,0,1-3.37-1.57,9.19,9.19,0,0,0-2.69-2.47,4.43,4.43,0,0,0-2.77-.42,4.36,4.36,0,0,0-2.12,1.09,4.88,4.88,0,0,0-1.77,3.65c-.07,1.62,0,3.17,1.2,4.36a3.27,3.27,0,0,0,3.25.9c1.32-.4.79-1.86,1.38-2.79.88-1.38,3.54-.93,4.85-.39-2-.14-3.34,1.85-3.79,3.47-.69,2.52-2.3,3.58-5.06,3.12-5.84-1-6.61-8.23-4.7-12.71a11.27,11.27,0,0,1,4.91-5.28c2-1.06,4.62-.34,6.7.11,4.18.89,8.6,1.78,12.88,1,2.26-.4,4.31-1.33,6.51-1.9,1.29-.33,2.92-.74,4,.26a15.5,15.5,0,0,1,2.33,3.61,70.66,70.66,0,0,1,5.2,9.7,33.1,33.1,0,0,1,2,12,10,10,0,0,0,1,4.73,8.78,8.78,0,0,0,2.33,2.5C134.17,280.58,136.41,282.11,136.85,281.8Z" style="fill:#263238"></path><path d="M112,289.75c3.52-3.82,6.05-7.88,6.68-17.46a37.06,37.06,0,0,1-.93,11c-1.41,5.15-2.86,6.39-4.34,9.65A5.45,5.45,0,0,0,112,289.75Z" style="opacity:0.2"></path><path d="M125.08,282.14a54.19,54.19,0,0,1,.17-10.09s-.37,9,2.45,12.42a15,15,0,0,0,4,3.36,3.84,3.84,0,0,0-1.09,2.46A9.73,9.73,0,0,1,125.08,282.14Z" style="opacity:0.2"></path></g></g><g id="freepik--Bats--inject-706"><path id="freepik--Bat--inject-706" d="M413.53,72.83c.48.28-.62,2-1.09,4.19s.78,2.75,2.21,1.74,2.28-3.45,2.72-6,.09-4,10.17-3.54S439.62,65.68,440.8,64s2.19-1.88,1.73,2.36-2.08,5.95-6.71,8.26-2.72,8-2.72,8-8.56-3.59-8.83,5.38c0,0-5.38-4-10.07-2.61-5.76,1.7-7.22,8.56-8.71,8.17s.56-7.09-3.66-11.37c-3.43-3.48-10.06-2.6-10.06-2.6,4.1-8-5.13-9-5.13-9s4.46-4.06,1.52-8.33-3.52-6.54-1.86-10.48,2.42-3.2,2.65-1.22,0,6.49,9.08,11,8,5.59,7.18,8-1.29,5-.53,6.56,2.11,1.72,2.78-.45.53-4.27,1.08-4.19-.08,2.78,1.81,3.27C412.42,75.34,413.19,72.64,413.53,72.83Z" style="fill:#e0e0e0"></path><path id="freepik--bat--inject-706" d="M457.65,139.28a1,1,0,0,1-1.84.85c-4.68-7.32-11.68-16.69-16.64-16.29-3.79.3-6.69,4.43-7.94,6.55a1,1,0,0,1-1.56.13c-1.37-1.56-4.15-4.24-7.35-4.4-2.79-.14-5.48,2.1-7.14,3.84a1,1,0,0,1-1.67-.57,10.13,10.13,0,0,0-2.21-5.9c-1.57-1.73-6.35-2.09-10.22-2.07a.85.85,0,0,1-.3-1.64c5.36-2,13.66-5.14,18.83-7.4,8.11-3.57,11.45-2.27,15.24,1.32,1.31,1.24,2.48,1.66,3.29,1.38,1.54-.52-2.13-8.55-.58-8.71,0,0,2.11,4.56,5.22,3.21s.77-6.23.77-6.23c1.08-.79,4.27,6.59,5.78,6.5,1.2-.08,2-1.37,1.91-3.69-.27-5.22.92-8.6,8.9-12.44C465.22,91.27,473,87,478,84.23a.84.84,0,0,1,1.05,1.29c-2.53,2.94-5.37,6.8-5.07,9.11a10.14,10.14,0,0,0,3,5.52,1,1,0,0,1-.65,1.64c-2.4.13-5.85.72-7.56,2.93-2,2.53-1.74,6.38-1.44,8.44a1,1,0,0,1-1.11,1.1c-2.43-.43-7.45-.91-10.14,1.77C452.6,119.54,455.15,131,457.65,139.28Z" style="fill:#e0e0e0"></path></g><g id="freepik--Moon--inject-706"><g id="freepik--moon--inject-706"><circle cx="80.59" cy="85.84" r="54.95" transform="translate(-11.87 12.94) rotate(-8.55)" style="fill:#BA68C8;opacity:0.05"></circle><circle cx="80.59" cy="85.84" r="47.61" transform="translate(-16.06 18.6) rotate(-11.98)" style="fill:#BA68C8;opacity:0.15"></circle><circle cx="80.59" cy="85.84" r="39.84" transform="translate(-16.34 19.01) rotate(-12.22)" style="fill:#BA68C8;opacity:0.25"></circle><g id="freepik--moon--inject-706"><circle cx="80.59" cy="85.84" r="31.87" transform="translate(-21.42 27.04) rotate(-16.85)" style="fill:#fff"></circle><path d="M68.85,101.1a1.83,1.83,0,0,0,1.35,1.76c.84.12,1.85-.55,2.45,0s.16,1.26.28,1.9a1.48,1.48,0,0,0,2.62.38c.23-.45.22-1,.46-1.43a1.32,1.32,0,0,1,2.39,1.1c-.25.67-1,1-1.5,1.48a2.58,2.58,0,0,0-.94,2.19A1.64,1.64,0,0,0,77.67,110,6,6,0,0,0,79,109.4a2.54,2.54,0,0,1,2.85.77c.24.31.41.67.67,1a2.35,2.35,0,0,0,3.17.18,2.89,2.89,0,0,0,.71-3.22c-.2-.48-.5-.9-.68-1.38a2.46,2.46,0,0,1,.66-2.73,1.92,1.92,0,0,1,2.67.26c.52.71.41,1.69.64,2.53s1.32,1.62,1.94,1,.2-1.54.79-2,1.25.1,1.47.69a7.28,7.28,0,0,1,.15,1.87c.05.63.38,1.33,1,1.44s1.27-.64,1.53-1.33.51-1.49,1.2-1.76,1.45.16,2.15,0c1.72-.48.9-3.62,2.46-4.47,1-.55,2.25.23,3.34,0,.73-.18,1.26-.8,1.93-1.14a4.31,4.31,0,0,1,1.12-.36,31.63,31.63,0,0,0,3.66-14.82,32,32,0,0,0-.26-4.06,10,10,0,0,0-1.91-3.48,29.65,29.65,0,0,1-2.75-2.86c-.56-.82-.87-1.8-1.49-2.59a2.26,2.26,0,0,0-2.6-.91,1.82,1.82,0,0,0-.89,1.89,2.94,2.94,0,0,0,1.19,1.83c.54.4,1.2.72,1.46,1.33a1.53,1.53,0,0,1-.52,1.74,2.07,2.07,0,0,1-1.84.27c-1.09-.34-.38-1.3-.14-2,.16-.46.12-1.09-.32-1.31s-.93.13-1.37.34a2.71,2.71,0,0,1-1.11.27,1.1,1.1,0,0,1-.48-.08c-.48-.23-.46-1-.21-1.42a4.74,4.74,0,0,0,.75-1.42,1.62,1.62,0,0,0-.85-1.56,3.78,3.78,0,0,0-1.82-.42,2.26,2.26,0,0,1-1.87-.63c-.51-.45-.92-1-1.47-1.43a3.52,3.52,0,0,0-5.61,2.76,2.07,2.07,0,0,1-.23,1.29,3,3,0,0,1-.77.54,1.82,1.82,0,0,0,.33,3c1.09.43,2.31-.17,3.42-.15,1.84,0,2,2.24.12,2.51-.55.08-1.58-.11-2.42,0s-1.39.36-1.34,1.28,1.25,1.79.66,2.49a1,1,0,0,1-1.23,0,8.51,8.51,0,0,1-1-.94,2.08,2.08,0,0,0-1.84-.57,1.32,1.32,0,0,0-1,1.5c.18.66,1,1.18.76,1.83s-1,.6-1.47.32-.87-.77-1.37-1.05c-1.16-.66-2.68,0-3.5,1.08s-1,2.83.22,3.34c.73.32,1.55,0,2.34-.13s1.81.46,1.59,1.22c-.15.51-.76.71-1.1,1.11a1.56,1.56,0,0,0,.18,2,2.82,2.82,0,0,0,2,.74c1.81,0,3.73-1.21,3.9-3,.09-1-.3-2.13.32-2.9A2.31,2.31,0,0,1,88.91,87a3.34,3.34,0,0,1,1.8.52,1.63,1.63,0,0,1,.72,1.64c-.15.61-.7,1-1.09,1.49s-.59,1.29-.09,1.66c.32.25.8.17,1.15.38.68.41.34,1.56-.38,1.88a3.69,3.69,0,0,1-2.32-.06,2.62,2.62,0,0,0-2.26.25c-.88.72-.56,2.18.17,3.06.4.48.93,1,.88,1.59a1.27,1.27,0,0,1-.85,1,1.87,1.87,0,0,1-2.41-1.36,10.73,10.73,0,0,1,0-1.27,2.42,2.42,0,0,0-1.57-2.17,1.92,1.92,0,0,0-2.34,1.09c-.17.52-.09,1.1-.31,1.6a1.62,1.62,0,0,1-2.62.22,2,2,0,0,1,.54-2.77c.7-.48,1.8-.72,1.87-1.56a1.2,1.2,0,0,0-.27-.79,1.8,1.8,0,0,0-2.94.42,3.22,3.22,0,0,1-.34.88c-.67.84-2.43,0-2.92.95-.25.46,0,1.08-.21,1.54s-1.06.53-1.67.62A3.14,3.14,0,0,0,68.85,101.1ZM49.36,79.46a5.07,5.07,0,0,0,1.19-.35c.69-.28,1.61-.46,2.09.11.3.35.31.86.54,1.26a1.64,1.64,0,0,0,2,.65,2.69,2.69,0,0,0,1.49-1.62,5.23,5.23,0,0,1,.79-1.86,1.55,1.55,0,0,1,2.62,1.48c-.26.92-1.27,1.4-1.74,2.23a2,2,0,0,0,.44,2.46,1.65,1.65,0,0,0,2.36-.45c.38-.7.28-1.78,1-2.06.91-.35,1.48,1,2.29,1.52a1.62,1.62,0,0,0,2.06-2.48c-.32-.32-.78-.52-1-.93-.37-.83.77-1.63,1.65-1.44a9.31,9.31,0,0,1,2.34,1.34,4.17,4.17,0,0,0,4.18-.13,2.52,2.52,0,0,0,1-1.11c.5-1.23-.44-2.79.28-3.92a1.53,1.53,0,0,1,2.72,1.37c-.27.72-1,1.13-1.4,1.8a2.55,2.55,0,0,0,1.17,3.23,5.87,5.87,0,0,0,3.71.44,2,2,0,0,0,1.16-.45c.83-.86-.32-2.26-.17-3.44.18-1.37,2-2,2.17-3.42.08-.74-.41-1.5-.2-2.21.4-1.35,2.72-1.28,3.13-2.62a1.56,1.56,0,0,0-.62-1.62,3.07,3.07,0,0,0-1.73-.56c-.82-.06-1.86-.1-2.17-.86s.59-1.64,1.44-2a4.36,4.36,0,0,1,2.38-.34A2.2,2.2,0,0,1,88.32,65c.07.27.07.56.16.82a2,2,0,0,0,2.1,1,14.06,14.06,0,0,1,2.48-.33c2.31.19,3.67,3.17,6,3.3a.74.74,0,0,0,.65-.2.82.82,0,0,0,.09-.67,6.59,6.59,0,0,0-4-4.93c-1.32-.53-2.8-.63-4-1.32a22.28,22.28,0,0,1-2.37-1.86,3.46,3.46,0,0,0-2.8-.84c-1.15.28-1.86,1.4-2.56,2.36S82.28,64.26,81.13,64a3.07,3.07,0,0,0-1.06-1.58c-.55-.33-1.45-.14-1.57.5-.08.42.22.82.3,1.25.18,1-.69,1.77-1.54,2.22A5,5,0,0,0,74.93,68a7.32,7.32,0,0,0-.42,1.22,2.83,2.83,0,0,1-2,1.91,1.82,1.82,0,0,1-2.15-1.37A2.83,2.83,0,0,1,71,68a3.2,3.2,0,0,0,.66-1.8c0-.64-.7-1.29-1.3-1s-.63,1.37-1.2,1.88-1.52.19-2.26-.12-1.78-.46-2.18.23.15,1.39.31,2.11a2.18,2.18,0,0,1-3.19,2.39c-.62-1,1.33-2.2.91-3.33-.29-.79-1.47-.77-2.18-.33a2.44,2.44,0,0,1-1.18.54c-.69,0-1.12-.86-1-1.53a3.58,3.58,0,0,1,1.18-1.68c.47-.44,1.09-.91,1.68-.67.39.16.6.57.91.87a1.77,1.77,0,0,0,2.39,0c.33-.33.52-.79.89-1.07.88-.66,2.24,0,3.18-.57a1.42,1.42,0,0,0,.38-2c-.26-.34-.71-.59-.79-1-.14-.78.81-1.38.77-2.21a2.83,2.83,0,0,0-1.14-1.93l0,0A32,32,0,0,0,53.64,68.84a2.78,2.78,0,0,0,.86,1.34,12.85,12.85,0,0,1,1.25.95,1,1,0,0,1,.11,1.4,1.23,1.23,0,0,1-.82.25A5.17,5.17,0,0,1,52.22,72L52,71.83A32,32,0,0,0,49.36,79.46Z" style="fill:#BA68C8;opacity:0.1"></path></g></g></g><g id="freepik--Ghost--inject-706"><g id="freepik--ghost--inject-706"><path d="M155.63,196.42c-3.2,12.92,3,25.53,4.35,38.53,1,9.61-6.27,13.2-15,12-3.85-.52-7.56-1.76-11.38-2.42-10.32-1.79-22,1.44-28,10-4.38,6.33-5.14,14.55-9,21.2-1.38,2.37-4.18,6.22-7.45,5.35-3.55-.95-2.77-4.93-1.92-7.52a21,21,0,0,0,.6-11.79c-1.53-5.76-6.15-9.37-11.7-11a9,9,0,0,1,5.43,9.93c-1.14,5.29-5.83,7.55-10.22,9.48a38.59,38.59,0,0,0-13.8,10.85A28,28,0,0,0,53,305.34c5.31,19.6,26.27,27.16,44.77,27.13,11.85,0,22.78-2.77,34.56-1,12.23,1.87,22.82,7,32.81,14.2,13.27,9.61,24.46,21,40,27.09a105.26,105.26,0,0,0,48,6.27c18.38-1.73,38.63-9.4,54.37-18.95,6.08-3.7,11.34-8.47,17-12.65s9.29-12.49,12.15-18.94c2.6-5.83,5-14.24,10.22-18.35,3.62-2.87,9.65-5,14-6.27,7.38-2.17,14.7-4.7,21.36-8.52,13.82-7.95,31-26.43,27.84-43.7-1.6-8.9-9.6-15.47-18.15-18.42-11.4-3.92-24.49-.7-35.1-6.31a17.37,17.37,0,0,1-8.17-8.47,21.09,21.09,0,0,1-1.13-9.31c.54-8.68,3.46-17.25,2.53-25.9a36.82,36.82,0,0,0-5.68-15.41c-2.44-3.92-6.81-7.08-8.49-11.22-4.14-10.18-2.12-21.86-6.6-32s-14.44-16.88-24.93-20.37c-4.57-1.52-9.31-2.52-13.72-4.44-8.05-3.51-14.56-9.87-22.49-13.64-9.6-4.57-20.85-5-31.15-2.41-13.35,3.4-24,11.57-34.14,20.38-10.3,9-25.33,12.37-33.16,23.56-5.77,8.24-6.31,19-5.54,29.05.58,7.67,1.77,15.64-.86,22.88-1.5,4.13-4.17,7.74-6,11.75A28.79,28.79,0,0,0,155.63,196.42Z" style="fill:#BA68C8;opacity:0.25"></path><path d="M159.37,355.35c3.31,2.52,6.51,5.2,9.73,7.71a106.38,106.38,0,0,0,14,9.75c1.74.95,5.34,1.79,5.12,4.31-.25,2.7-4.12,2.95-6.07,2.79-6.63-.57-12.66-2.87-18.79-5.35-6.67-2.69-13.28-5.2-20.1-7.52-5-1.71-10.16-3.48-14.23-6.87-2.68-2.23-4.93-5.65-4.06-9,.75-2.91,3.68-4.83,6.64-5.34A29.26,29.26,0,0,1,149,348.61,71.56,71.56,0,0,1,159.37,355.35Z" style="fill:#BA68C8;opacity:0.25"></path><path d="M153.83,177.43c-.18,4-2.36,7.63-4,11.3a44.08,44.08,0,0,0-3.66,14.12c-.27,3,1.79,9.93-2.23,11.16-4.56,1.39-8.18-7.57-9.3-10.62-3.65-10-2.36-21.81,3.89-30.48C143.4,166.12,154.25,168,153.83,177.43Z" style="fill:#BA68C8;opacity:0.25"></path><path d="M53.55,276.23a29,29,0,0,0-7.73,14.64c-.12.63-.29,1.36-.86,1.65a16.64,16.64,0,0,1-4-14.11,22.32,22.32,0,0,1,7.57-12.85c3.12-2.71,8.93-4.73,11.28.23C61.86,270.09,56.08,273.65,53.55,276.23Z" style="fill:#BA68C8;opacity:0.25"></path><g id="freepik--Arm--inject-706"><path d="M388.8,244.42c-8.77,0-20.07,2.24-33.33-.78-11.16-2.54-22.07-8.35-28.64-15.93.5,6.28.69,12.59.71,18.9a78.83,78.83,0,0,1,5.16,14.82,75.94,75.94,0,0,1,1.48,23.44c22.35,4.22,41.64-1.67,55.27-12.81C403.87,260.28,400.78,244.42,388.8,244.42Z" style="fill:#BA68C8"></path><path d="M388.8,244.42c-8.77,0-20.07,2.24-33.33-.78-11.16-2.54-22.07-8.35-28.64-15.93.5,6.28.69,12.59.71,18.9a78.83,78.83,0,0,1,5.16,14.82,75.94,75.94,0,0,1,1.48,23.44c22.35,4.22,41.64-1.67,55.27-12.81C403.87,260.28,400.78,244.42,388.8,244.42Z" style="fill:#fff;opacity:0.8"></path><path d="M388.8,244.42c-8.77,0-20.07,2.24-33.33-.78-11.16-2.54-22.07-8.35-28.64-15.93.07.89.12,1.79.18,2.68,5.36,7.9,14,13.6,23.19,16.48,11.71,3.65,24.31,3.29,36.49,1.76,4.62-.58,9.42.61,11,5.46a16.55,16.55,0,0,1,.84,4.4v.38C400.55,251,396.53,244.42,388.8,244.42Z" style="fill:#fff"></path></g><path d="M286,354.29c31.73-16.14,41.05-41.29,44.47-69,2.66-21.57,2.06-39.25.76-65-1-33.22-8.34-92.32-44.2-110.09a73.24,73.24,0,0,0-68.72-3.32,77.64,77.64,0,0,0-40,44c-8.48,24-4.58,50.29-3.68,75.71.5,13.86,3.77,30.07-13.7,34.29-9.88,2.39-18.38-1.9-28.05-1.56A33.84,33.84,0,0,0,109,270.22c-3.33,3.74-5.77,8.17-8.63,12.29s-6.33,8-10.91,10-10.51,1.66-14-2-3-10.63,1.55-12.79c-12.6,4.31-14,19.74-6.06,29.16,5.55,6.63,14.35,9.86,23,10.48,14.35,1.05,28.13-5.26,42.47-4.37,14.1.88,22.73,7.87,33,17.17,12.68,11.51,27.69,22.39,44.18,28.11C234.23,365.5,265.06,364.94,286,354.29Z" style="fill:#BA68C8"></path><path d="M286,354.29c31.73-16.14,41.05-41.29,44.47-69,2.66-21.57,2.06-39.25.76-65-1-33.22-8.34-92.32-44.2-110.09a73.24,73.24,0,0,0-68.72-3.32,77.64,77.64,0,0,0-40,44c-8.48,24-4.58,50.29-3.68,75.71.5,13.86,3.77,30.07-13.7,34.29-9.88,2.39-18.38-1.9-28.05-1.56A33.84,33.84,0,0,0,109,270.22c-3.33,3.74-5.77,8.17-8.63,12.29s-6.33,8-10.91,10-10.51,1.66-14-2-3-10.63,1.55-12.79c-12.6,4.31-14,19.74-6.06,29.16,5.55,6.63,14.35,9.86,23,10.48,14.35,1.05,28.13-5.26,42.47-4.37,14.1.88,22.73,7.87,33,17.17,12.68,11.51,27.69,22.39,44.18,28.11C234.23,365.5,265.06,364.94,286,354.29Z" style="fill:#fff;opacity:0.8"></path><path d="M267.68,102.09a74,74,0,0,0-49.36,4.75,77.64,77.64,0,0,0-40,44c-8.48,24-4.58,50.29-3.68,75.71.5,13.86,3.77,30.07-13.7,34.29a28.58,28.58,0,0,1-9.46.58,50.45,50.45,0,0,0,7.79.67c4.8,0,9.84-.79,13.66-3.7,9.3-7.11,9.93-21.33,9.7-31.64-.45-19.94-1.2-28.43-.69-44.85.4-13,5.25-44.33,29.82-62.58A90.94,90.94,0,0,1,267.68,102.09Z" style="fill:#fff"></path><path d="M99.77,289.05c9.76-13.32,12.92-23.84,27.08-29A33.3,33.3,0,0,0,109,270.22c-3.33,3.74-5.77,8.17-8.63,12.29s-6.33,8-10.91,10-10.51,1.66-14-2a8.15,8.15,0,0,1-1.92-3.46C72.88,301.69,91,301,99.77,289.05Z" style="fill:#fff"></path><ellipse cx="223.29" cy="202.19" rx="13.16" ry="9.5" style="fill:#BA68C8"></ellipse><path d="M336.46,183.32c.43,5.22-5.09,10-12.33,10.54s-13.46-3.16-13.89-8.39,5.09-9.95,12.33-10.54S336,178.09,336.46,183.32Z" style="fill:#BA68C8"></path><path d="M233.47,178.75a16.44,16.44,0,0,0-10.17,14.31c-.18,3.66,3.06,4.54,5.95,3.17,4.48-2.12,7.55-4.66,12.82-3.78,2,.33,4,1.11,6,1.52,2.71.55,5.85.7,6.1-2.73.22-3-1.45-6.1-3.34-8.27A15.58,15.58,0,0,0,233.47,178.75Z" style="fill:#37474f"></path><path d="M302.88,167.27a15,15,0,0,1,12.79,9.64c1.16,3.14-1.41,4.79-4.3,4.4-4.48-.61-7.85-2-12.19.24-1.68.86-3.16,2.07-4.81,3-2.21,1.22-4.89,2.22-6.06-.69-1-2.58-.42-5.71.63-8.12A14.21,14.21,0,0,1,302.88,167.27Z" style="fill:#37474f"></path><path d="M256.21,220.09c3.13,3.6,8.39,4.78,13.29,3.54,4.48-1.12,8.44-5,8.48-9.66a3.48,3.48,0,0,0-.7-2.38c-.91-1-2.54-1-3.87-.64a23.92,23.92,0,0,1-13.67-.16c-2.26-.74-5.2-1.2-6,1.76a5.9,5.9,0,0,0,.11,2.92A11.15,11.15,0,0,0,256.21,220.09Z" style="fill:#37474f"></path><path d="M253.6,213.93a7.27,7.27,0,0,0,.24,1.54,11.15,11.15,0,0,0,2.37,4.62c2.82,3.25,7.38,4.52,11.85,3.83A15.85,15.85,0,0,0,253.6,213.93Z" style="fill:#BA68C8"></path><g id="freepik--Pumpking--inject-706"><path d="M293.7,246.61c18.48,3.5,34.57,10.8,34.89,11.46,0,0,16.12-12.29,29.57-18.88-8.09-4.77-15.29-5.89-30.73-4.7C311.27,235.73,299.09,239.33,293.7,246.61Z" style="fill:#BA68C8"></path><path d="M293.7,246.61c18.48,3.5,34.57,10.8,34.89,11.46,0,0,16.12-12.29,29.57-18.88-8.09-4.77-15.29-5.89-30.73-4.7C311.27,235.73,299.09,239.33,293.7,246.61Z" style="opacity:0.25"></path><path d="M309,237.52c-.05,0-2.87,1.87-1,3s14.92,3.14,20.86,1.69,14.39-5.86,12.4-8.05a34.74,34.74,0,0,1,16.88,5c-13.45,6.59-29.57,18.9-29.57,18.88-.32-.66-16.41-8-34.89-11.46C296.77,242.47,302,239.52,309,237.52Z" style="opacity:0.1"></path><g id="freepik--pumpkin--inject-706"><path d="M329.17,258.5s-28.29-4.36-47.63,9.7c-6.08,4.41-15.47,20-16,35.44-10.36-36.45,15.52-60.85,42-60.2C325.21,243.88,328.64,253.12,329.17,258.5Z" style="fill:#BA68C8"></path><path d="M329.17,258.5s-28.29-4.36-47.63,9.7c-6.08,4.41-15.47,20-16,35.44-10.36-36.45,15.52-60.85,42-60.2C325.21,243.88,328.64,253.12,329.17,258.5Z" style="opacity:0.1"></path><path d="M265.57,303.64a55.55,55.55,0,0,1-2-22c.72,2.11,1.78,2.78,2.76.26,1.75-4.46,2.63-9,10.9-18.08s21.53-12,30.14-13.88,4.86-4.71.14-6.49c17.68.44,21.11,9.68,21.64,15.06,0,0-28.29-4.36-47.63,9.7C275.46,272.61,266.07,288.21,265.57,303.64Z" style="opacity:0.1"></path></g><g id="freepik--pumpkin--inject-706"><path d="M326.75,259.06s26.43-10.94,48.58-1.86c7,2.86,20.57,20.53,24.75,35.39,4-17.79-8.51-39.34-20.44-47.36a43.62,43.62,0,0,0-35.47-5.92C327.11,243.92,326,253.7,326.75,259.06Z" style="fill:#BA68C8"></path><path d="M344.17,239.31a43.21,43.21,0,0,1,18.38-.86c-8.07-.6-21.93,2.49-18.46,5s15.64-.18,27.37,4.46c17.85,7.08,20.36,19.83,22.93,19.84,1.79,0-.43-5.35-1.93-8.6,6.19,9.82,10.11,22.36,7.62,33.45-4.18-14.86-17.79-32.53-24.75-35.39-22.15-9.08-48.58,1.86-48.58,1.86C326,253.7,327.11,243.92,344.17,239.31Z" style="opacity:0.1"></path></g><path d="M279.68,267.38c12.09-11.43,23.65-13.79,35-11.73,9.87,1.82,2,2.69-.24,4.78-1.79,1.33-11.56,7.82-13.33,9.43-11.22,10.19-16.55,31.35-16.27,41,.23,7.95,1.83,19.55,7.82,28.06-8.73-1.2-20.91-7.09-24.84-20.79C261.91,297.61,267.59,278.8,279.68,267.38Z" style="fill:#BA68C8"></path><path d="M267.8,318.09c-.33-1.14-.62-2.27-.87-3.4,5.3,12.76,10.87,11.95,12.49,10.71s-2.14-11.46-1.35-21.55,6.22-23.73,12.6-31.41,16.11-10.53,15.37-13.53-10-2-17.92,1.86a35.77,35.77,0,0,1,26.54-5.12c9.87,1.82,2,2.69-.24,4.78-1.79,1.33-11.56,7.82-13.33,9.43-11.22,10.19-16.55,31.35-16.27,41,.23,7.95,1.83,19.55,7.82,28.06C283.91,337.68,271.73,331.79,267.8,318.09Z" style="opacity:0.1"></path><path d="M329.93,256.94s-9.68,10.39-13.79,22c-6.29,17.67-7.52,37.73-2.49,52.43,2.39,7,4.63,12.38,8.63,15.85-4,2.85-16.51,4.21-25.24-3.38a26.6,26.6,0,0,1-4.4-4.92c-6-8.51-8.49-20.25-8.72-28.2-.28-9.62-.6-25.64,14.81-39.67,11.19-10.16,25.55-16,31.18-14.08Z" style="fill:#BA68C8"></path><path d="M295.64,334.29c9.78,7,15.87,5.51,15.87,5.51-10.19-15.79-6.15-34.73-1.73-47.17l2.2,2c-2.32,13.08-1.91,26.23,1.67,36.68,2.39,7,4.63,12.38,8.63,15.85-4,2.85-16.51,4.21-25.24-3.38a26.6,26.6,0,0,1-4.4-4.92c-5.46-7.76-8-18.21-8.6-26C284.2,314,286.29,327.62,295.64,334.29Z" style="opacity:0.05"></path><path d="M376.79,255.72c-14.48-8.24-26.26-7.79-36.78-3.11-9.15,4.1-1.35,3.09,1.38,4.58,2.05.87,13.1,4.87,15.2,6,13.33,7.24,23.56,26.53,25.59,35.94,1.68,7.78,2.89,19.42-.89,29.1,8.2-3.23,18.61-11.83,19.16-26.06C401.28,280.88,391.26,264,376.79,255.72Z" style="fill:#BA68C8"></path><path d="M376.79,255.72c-14.48-8.24-26.26-7.79-36.78-3.11-9.15,4.1-1.35,3.09,1.38,4.58,2.05.87,13.1,4.87,15.2,6,13.33,7.24,23.56,26.53,25.59,35.94,1.68,7.78,2.89,19.42-.89,29.1,8.2-3.23,18.61-11.83,19.16-26.06C401.28,280.88,391.26,264,376.79,255.72Z" style="fill:#fff;opacity:0.1"></path><path d="M340,252.61a35.46,35.46,0,0,1,22.17-2.6c-7.16-.78-15,2.37-11.75,5s15.5,6.42,26.09,19.62c13.16,16.41,10.11,33.88,11.82,39.35s11.14-2.1,12.08-17.32c.09,1.8.11,3.63,0,5.5-.55,14.23-11,22.83-19.16,26.06,3.78-9.68,2.57-21.32.89-29.1-2-9.41-12.26-28.7-25.59-35.94-2.1-1.14-13.15-5.14-15.2-6C338.66,255.7,330.86,256.71,340,252.61Z" style="fill:#BA68C8;opacity:0.8"></path><path d="M325.49,257.48s11.88,7.79,18.64,18.06c10.33,15.68,16.32,34.87,14.95,50.34-.64,7.4-1.53,13.12-4.6,17.43,4.62,1.82,17,.19,23.71-9.25a26.29,26.29,0,0,0,3.1-5.82c3.78-9.68,3.41-21.68,1.73-29.46-2-9.4-5.82-26.49-24.15-36.46-13.29-7.23-28.35-8-33.36-4.86Z" style="fill:#BA68C8"></path><path d="M325.49,257.48s11.88,7.79,18.64,18.06c10.33,15.68,16.32,34.87,14.95,50.34-.64,7.4-1.53,13.12-4.6,17.43,4.62,1.82,17,.19,23.71-9.25a26.29,26.29,0,0,0,3.1-5.82c3.78-9.68,3.41-21.68,1.73-29.46-2-9.4-5.82-26.49-24.15-36.46-13.29-7.23-28.35-8-33.36-4.86Z" style="fill:#fff;opacity:0.15"></path><path d="M377.28,324.5c-7.83,9.08-16.51,10.32-16.51,10.32,3.2-14.13-.72-34.69-8-45.73l-.85.76c5.38,12.16,8.12,25,7.15,36-.64,7.4-1.53,13.12-4.6,17.43,4.62,1.82,17,.19,23.71-9.25a26.29,26.29,0,0,0,3.1-5.82c3.45-8.83,3.44-19.58,2.14-27.31C383.55,302.1,384.77,315.81,377.28,324.5Z" style="fill:#BA68C8;opacity:0.5"></path><path d="M359.17,309.41c1.39,9.75,1.42,24.52-3.07,32s-10.75,10.51-17.38,11.16a21.33,21.33,0,0,1-16.44-5.36c-4-3.47-7.39-8.69-9.79-15.73-5-14.7-5.25-35.26.67-53.06,6.67-20.09,16.71-19.66,16.71-19.66s6-1.33,17.27,15.09C351.72,280.52,357.28,296,359.17,309.41Z" style="fill:#BA68C8"></path><path d="M359.17,309.41c1.39,9.75,1.42,24.52-3.07,32s-10.75,10.51-17.38,11.16a21.33,21.33,0,0,1-16.44-5.36c-4-3.47-7.39-8.69-9.79-15.73-5-14.7-5.25-35.26.67-53.06,6.67-20.09,16.71-19.66,16.71-19.66s6-1.33,17.27,15.09C351.72,280.52,357.28,296,359.17,309.41Z" style="fill:#fff;opacity:0.1"></path><path d="M310.27,323.07c2.82,9.52,11.66,20.32,24.92,22.21,13.43,1.92,22.48-8.62,24.37-15.9-.54,4.66-1.62,8.95-3.46,12-4.49,7.44-10.75,10.51-17.38,11.16a21.33,21.33,0,0,1-16.44-5.36c-4-3.47-7.39-8.69-9.79-15.73A67.39,67.39,0,0,1,310.27,323.07Z" style="fill:#BA68C8"></path><path d="M321.6,262.35s4.56-2.71,8.28-2.61,8.42,2.81,8.42,2.81-.08-4.92,7.37-5.95c0,0-3.22-3.15-1.82-6a8.81,8.81,0,0,1-8.08-4.77,12.12,12.12,0,0,1-1-7,7.72,7.72,0,0,1,.67-2.65c.49-1,1.1-2.06.71-3.19a4.24,4.24,0,0,0-1.29-1.63c-1-.94-2.2-1.93-3.59-1.95-1.06,0-2.05.55-3.1.61-1.45.09-2.79-.77-4.22-1a5.18,5.18,0,0,0-4.08,1.11c-1.11.9-1,1.76-1.34,3a21,21,0,0,0-.41,8.47c1.13,6.53,2.24,10.71-3.51,13.46,0,0,2.65,1.36-.41,4.67C314.17,259.8,320.49,257.67,321.6,262.35Z" style="fill:#37474f"></path><path d="M336,234.92a2.7,2.7,0,0,0,.12-1.88,4.24,4.24,0,0,0-1.29-1.63c-1-.94-2.2-1.93-3.59-1.95-1.06,0-2.05.55-3.1.61-1.45.09-2.79-.77-4.22-1a5.18,5.18,0,0,0-4.08,1.11,2.83,2.83,0,0,0-1,1.66,2,2,0,0,0,.92,1.92c.77.43,1.78.34,2.45.9s.75,1.79,1.24,2.65a2.61,2.61,0,0,0,2.71,1.23,11,11,0,0,0,2.12-1c2.22-1,5.08-.28,7-1.78A3.41,3.41,0,0,0,336,234.92Z" style="fill:#455a64"></path><path d="M340,259c-4-3.08-8.43-10.94-9.46-15.28A35.63,35.63,0,0,0,332.91,254c2,4.69,3.56,5.67,5.39,8.56A5.26,5.26,0,0,1,340,259Z" style="fill:#263238"></path><path d="M325.78,253.89a52,52,0,0,0-1.51-9.54s1.54,8.46-.66,12.1a14.44,14.44,0,0,1-3.37,3.71,3.68,3.68,0,0,1,1.36,2.19A9.33,9.33,0,0,0,325.78,253.89Z" style="fill:#263238"></path><g id="freepik--Face--inject-706"><path d="M385.32,308a18.93,18.93,0,0,0-1.23-4.75,29,29,0,0,1-5.89,6.86,34.15,34.15,0,0,1,1,5.56,39.07,39.07,0,0,1-7.57,5.19C360,327,348.79,317.75,348,312a68.11,68.11,0,0,0,10.26-2.28c.2,1.49.49,3.88.52,5.53a27,27,0,0,0,8.32-3.51,48.13,48.13,0,0,0-.1-5.36c10.17-4.78,17.55-11.53,21.25-17.71C389.19,295.43,388.52,302.08,385.32,308Z" style="fill:#BA68C8"></path><path d="M385.32,308a18.93,18.93,0,0,0-1.23-4.75,29,29,0,0,1-5.89,6.86,34.15,34.15,0,0,1,1,5.56,39.07,39.07,0,0,1-7.57,5.19C360,327,348.79,317.75,348,312a68.11,68.11,0,0,0,10.26-2.28c.2,1.49.49,3.88.52,5.53a27,27,0,0,0,8.32-3.51,48.13,48.13,0,0,0-.1-5.36c10.17-4.78,17.55-11.53,21.25-17.71C389.19,295.43,388.52,302.08,385.32,308Z" style="opacity:0.2"></path><path d="M385.05,293A53.86,53.86,0,0,1,367,306.34a48.13,48.13,0,0,1,.1,5.36,27,27,0,0,1-8.32,3.51c0-1-.13-2.25-.26-3.42a30.46,30.46,0,0,1-3.29,1c0-.66-.07-1.44-.14-2.23A70,70,0,0,1,348,312c.28,2,1.81,4.42,4.17,6.47a16.66,16.66,0,0,0,15.91,0,38.65,38.65,0,0,0,7.57-5.2,34.14,34.14,0,0,0-1-5.55,28.73,28.73,0,0,0,5.88-6.87,18.68,18.68,0,0,1,1.24,4.76A28.18,28.18,0,0,0,385.05,293Z" style="fill:#263238"></path><path d="M380.53,300.8a28.73,28.73,0,0,1-5.88,6.87l3.55,2.42a29,29,0,0,0,5.89-6.86Z" style="fill:#BA68C8"></path><path d="M380.53,300.8a28.73,28.73,0,0,1-5.88,6.87l3.55,2.42a29,29,0,0,0,5.89-6.86Z" style="opacity:0.1"></path><path d="M378.2,310.09l-3.55-2.42a34.14,34.14,0,0,1,1,5.55l3.55,2.43A34.15,34.15,0,0,0,378.2,310.09Z" style="fill:#BA68C8"></path><path d="M378.2,310.09l-3.55-2.42a34.14,34.14,0,0,1,1,5.55l3.55,2.43A34.15,34.15,0,0,0,378.2,310.09Z" style="opacity:0.30000000000000004"></path><path d="M358.24,309.68c-1.07.34-2.13.64-3.17.88.07.79.13,1.57.14,2.23l3.55,2.42C358.73,313.56,358.44,311.17,358.24,309.68Z" style="fill:#BA68C8"></path><path d="M358.24,309.68c-1.07.34-2.13.64-3.17.88.07.79.13,1.57.14,2.23l3.55,2.42C358.73,313.56,358.44,311.17,358.24,309.68Z" style="opacity:0.30000000000000004"></path><path d="M345.29,300.16a12.83,12.83,0,0,0-1.73.32c-1.71.43-3.33,1.16-5.06,1.48a6.13,6.13,0,0,1-5-.91c-1.66-1.34-.92-4.42-.11-6.05a15.34,15.34,0,0,1,4.12-4.84c5.63-4.61,15.41-3,18.59,3.8a5.32,5.32,0,0,1,.57,2c.15,2.68-1.72,3.73-4.13,3.92S347.68,299.86,345.29,300.16Z" style="fill:#BA68C8"></path><path d="M345.29,300.16a12.83,12.83,0,0,0-1.73.32c-1.71.43-3.33,1.16-5.06,1.48a6.13,6.13,0,0,1-5-.91c-1.66-1.34-.92-4.42-.11-6.05a15.34,15.34,0,0,1,4.12-4.84c5.63-4.61,15.41-3,18.59,3.8a5.32,5.32,0,0,1,.57,2c.15,2.68-1.72,3.73-4.13,3.92S347.68,299.86,345.29,300.16Z" style="opacity:0.2"></path><path d="M338.66,289.33a11.81,11.81,0,0,0-1.17.83,15.34,15.34,0,0,0-4.12,4.84c-.81,1.63-1.55,4.71.11,6.05a6.13,6.13,0,0,0,5,.91c1.73-.32,3.35-1,5.06-1.48a12.83,12.83,0,0,1,1.73-.32c2.07-.26,4.17-.15,6.25-.23a3.51,3.51,0,0,0,.59-2.34,5.22,5.22,0,0,0-.57-2C349.3,290.75,343.72,288.56,338.66,289.33Z" style="fill:#263238"></path><path d="M386,278.65c1.37-.92,3.22-1.58,3.72-3.29a5.35,5.35,0,0,0-2.1-5.61,7.4,7.4,0,0,0-9.78,1.2,10.49,10.49,0,0,0-2.48,10.6,4.91,4.91,0,0,0,.9,1.61c1.61,1.76,3.43,1.23,5.05-.17,1.37-1.19,2.56-2.58,3.93-3.78A6.21,6.21,0,0,1,386,278.65Z" style="fill:#BA68C8"></path><path d="M386,278.65c1.37-.92,3.22-1.58,3.72-3.29a5.35,5.35,0,0,0-2.1-5.61,7.4,7.4,0,0,0-9.78,1.2,10.49,10.49,0,0,0-2.48,10.6,4.91,4.91,0,0,0,.9,1.61c1.61,1.76,3.43,1.23,5.05-.17,1.37-1.19,2.56-2.58,3.93-3.78A6.21,6.21,0,0,1,386,278.65Z" style="opacity:0.2"></path><path d="M381.62,268.68a8,8,0,0,0-3.76,2.27,10.49,10.49,0,0,0-2.48,10.6,5,5,0,0,0,.87,1.56c.17-.12.33-.24.5-.38,1.37-1.19,2.56-2.58,3.93-3.78a8.69,8.69,0,0,1,.75-.57c1.38-.91,3.23-1.58,3.73-3.28a5.35,5.35,0,0,0-2.1-5.61A6.24,6.24,0,0,0,381.62,268.68Z" style="fill:#263238"></path></g></g><g id="freepik--arm--inject-706"><path d="M216.79,248.07c5.69,9.73,20.84,21.2,34.11,24.22s25,.27,33.79-.32,12.39,13.12-2,24.9-35.17,17.7-59.18,12S204.28,240.15,216.79,248.07Z" style="fill:#BA68C8"></path><path d="M216.79,248.07c5.69,9.73,20.84,21.2,34.11,24.22s25,.27,33.79-.32,12.39,13.12-2,24.9-35.17,17.7-59.18,12S204.28,240.15,216.79,248.07Z" style="fill:#fff;opacity:0.8"></path><path d="M284.69,272c-8.74.59-20.53,3.34-33.79.32-11.49-2.62-24.39-11.57-31.33-20.25a31.08,31.08,0,0,0,4.9,8.27,64.9,64.9,0,0,0,11,9.72c12.14,8,29,9.31,43.18,7.86,9.14-1.84,11.84,4.05,10.86,11.39C295.3,279.92,291.58,271.51,284.69,272Z" style="fill:#fff"></path><path d="M250.71,274.23c7.23,1.86,14.79,1.94,22,1.35,3.64-.27,7.21-.77,10.69-1.06a6.67,6.67,0,0,1,3.87.39c3.59,2.3,2.95,7.44,1.15,11.23-2.87,5.95-8.61,10.4-14.16,13.92-15,9.54-33.42,11.66-50.81,8.79h0c24,5.72,44.76-.2,59.18-12s10.78-25.49,2-24.9-20.53,3.34-33.79.32-28.42-14.49-34.11-24.22C223.31,260.2,237.33,270.67,250.71,274.23Z" style="fill:#BA68C8;opacity:0.30000000000000004"></path></g></g></g></svg>
