<?xml version="1.0"?><svg id="Layer_1" style="enable-background:new 0 0 77.065231 80.401497;" version="1.1" viewBox="0 0 77.065231 80.401497" xml:space="preserve" xmlns="http://www.w3.org/2000/svg" xmlns:xlink="http://www.w3.org/1999/xlink"><style type="text/css">
	.st0{opacity:0.5;fill:#231F20;enable-background:new    ;}
	.st1{fill:#FFFFFF;}
	.st2{fill:#22093A;stroke:#22093A;stroke-linecap:round;stroke-linejoin:round;stroke-miterlimit:10;}
	.st3{fill:#22093A;stroke:#22093A;stroke-width:1;stroke-linecap:round;stroke-linejoin:round;stroke-miterlimit:9.999994;}
	.st4{fill:#9736FF;stroke:#22093A;stroke-linecap:round;stroke-linejoin:round;stroke-miterlimit:10;}
	.st5{fill:#9736FF;stroke:#22093A;stroke-width:1;stroke-linecap:round;stroke-linejoin:round;stroke-miterlimit:9.999995;}
	.st6{fill:#FCC707;stroke:#22093A;stroke-linecap:round;stroke-linejoin:round;stroke-miterlimit:10;}
	.st7{fill:#22093A;}
	.st8{fill:none;stroke:#050038;stroke-linecap:round;stroke-linejoin:round;stroke-miterlimit:10;}
	.st9{fill:none;stroke:#D9BBFF;stroke-linecap:round;stroke-linejoin:round;stroke-miterlimit:10;}
	.st10{fill:none;stroke:#FFFFFF;stroke-linecap:round;stroke-linejoin:round;stroke-miterlimit:10;}
	.st11{fill:#FCC707;}
</style><g><path class="st0" d="M71.791321,8.236458c-1.166016-0.778809-2.552734-1.470703-4.124023-2.057617   c-2.477539-0.925293-5.663082-1.902832-8.440426-1.550781c-0.542969-0.524902-1.149414-0.962891-1.80957-1.305664   c-0.955078-0.710449-2.044922-1.178711-3.244141-1.394531c-2.032227-0.365723-4.053711,0.099609-5.921875,1.296875   c-0.411133-0.384277-0.904297-0.71582-1.476562-0.993164c-2.109375-1.601562-5.433594-1.786621-7.828125-1.410645   c-2.202148,0.345703-4.115234,1.20752-5.575195,2.47168c-2.611328-1.603027-6.390625-1.678711-11.254883-0.223145   c-1.998047,0.597168-3.520508,1.53125-4.584961,2.823242c-1.865235-0.38916-4.144532-0.287598-6.826173,0.304199   c-5.329101,1.17627-8.90625,5.062987-9.568359,10.39795c-0.672852,5.427246,1.953125,10.799805,6.407227,13.174805   c1.154846,0.787354,2.421386,1.326111,3.765014,1.636536c-0.048279,0.602173-0.133728,1.574646-0.24353,2.16571   c-0.694336,0.128906-1.917969,0.224121-2.445312,0.265625C6.79816,33.979134,5.39191,35.499153,5.39191,37.32679   s1.40625,3.347656,3.228515,3.489258c0.527344,0.041504,1.750978,0.136719,2.445312,0.265625   c0.128906,0.693848,0.224609,1.917969,0.265625,2.445312c0.139221,1.791809,1.613647,3.173523,3.399902,3.219482   c-0.788696,0.957092-1.261841,2.123779-1.35498,3.38208c0,0.000488,0,0.000488,0,0.000977   c-0.063782,0.864807,0.064087,1.708435,0.348877,2.492859c-1.717285,1.55835-3.213623,4.454285-3.988525,9.568665   c-0.6875,4.537109-0.970703,9.472168,1.904297,12.192383c1.125977,1.647461,2.860352,2.626465,4.960938,2.778809   c0.148438,0.010742,0.292969,0.016113,0.435547,0.016113c0.959412-0.000122,1.783813-0.244934,2.501282-0.671875   c1.153015,1.525635,3.27594,2.612305,6.112976,3.061035c2.996094,0.474121,6.922853,0.174805,9.79785-1.784668   c1.240234,1.514648,2.925781,2.411621,4.839844,2.553711c0.583984,0.043457,1.157227,0.064941,1.719727,0.064941   c3.550781,0,6.629883-0.851562,8.626953-2.388672c0.876953,0.266602,1.65625,0.226074,2.120117,0.158203   c1.456055-0.216309,3.131836-1.004883,4.300781-3.197266c2.352539,1.714844,4.600586,0.928223,5.365234,0.569824   c3.246094-1.526367,4.853516-5.121582,4.000977-8.945312c-0.428711-1.929688-2.086914-8.438477-5.583981-12.169434   c-0.036865-0.048096-0.074341-0.088257-0.111328-0.135254c1.419922-0.362915,2.507568-1.583496,2.625977-3.106934   c0.078125-1.000977,0.254883-3.264648,0.532227-3.983887c0.718746-0.277344,2.982418-0.453613,3.983395-0.531738   c1.822266-0.141602,3.228516-1.661621,3.228516-3.489258s-1.40625-3.347656-3.228516-3.489258   c-1.000977-0.078125-3.263672-0.254395-3.983395-0.531738c-0.277344-0.719727-0.454102-2.98291-0.532227-3.983887   c-0.141602-1.822266-1.662109-3.228027-3.489258-3.228027c-1.828125,0-3.347656,1.40625-3.489258,3.228516   c-0.078125,1.000977,0.09491-3.162598-0.865234-6.81543c0.162109-0.026367,0.322266-0.057617,0.481445-0.094727   c0.40625,0.370117,0.874023,0.683105,1.397461,0.931641c0.416016,0.320312,0.876953,0.58252,1.379883,0.783203   c1.924805,0.76709,3.926758,0.62207,5.638668-0.408203c2.804688-1.688965,4.280273-5.567871,5.040039-8.726074   c1.611328,0.251953,3.362305,0.234375,4.799805-0.481445c1.321289-0.658203,2.251953-1.803223,2.620117-3.225098   C77.279602,15.551399,77.600891,11.519661,71.791321,8.236458z"/><path class="st1" d="M70.758842,7.580639c-1.166016-0.778809-2.552734-1.470703-4.124023-2.057617   c-2.477539-0.925293-5.663082-1.902832-8.440426-1.550781c-0.542969-0.524902-1.149414-0.962891-1.80957-1.305664   c-0.955078-0.710449-2.044922-1.178711-3.244141-1.394531c-2.032227-0.365723-4.053711,0.099609-5.921875,1.296875   c-0.411133-0.384277-0.904297-0.71582-1.476562-0.993164c-2.109375-1.601562-5.433594-1.786621-7.828125-1.410645   c-2.202148,0.345703-4.115234,1.20752-5.575195,2.47168c-2.61133-1.603027-6.390627-1.678711-11.254885-0.223145   c-1.998047,0.597168-3.520508,1.53125-4.584961,2.823242c-1.865232-0.38916-4.144529-0.287598-6.826171,0.304199   c-5.329102,1.17627-8.90625,5.062988-9.568359,10.397949c-0.672852,5.427246,1.953125,10.799805,6.407227,13.174805   c1.154846,0.787354,2.421387,1.326111,3.765015,1.636536c-0.048279,0.602173-0.133728,1.574646-0.24353,2.16571   c-0.694336,0.128906-1.917969,0.224121-2.445313,0.265625c-1.822266,0.141602-3.228516,1.661621-3.228516,3.489258   s1.40625,3.347656,3.228516,3.489258c0.527344,0.041504,1.750977,0.136719,2.445313,0.265625   c0.128906,0.693848,0.224609,1.917969,0.265625,2.445312c0.139221,1.791809,1.613647,3.173523,3.399902,3.219482   c-0.788696,0.957092-1.261841,2.123779-1.35498,3.38208c0,0.000488,0,0.000488,0,0.000977   c-0.063782,0.864807,0.064087,1.708435,0.348877,2.492859c-1.717285,1.55835-3.213623,4.454285-3.988525,9.568665   c-0.6875,4.537113-0.970704,9.472172,1.904297,12.192387c1.125977,1.647461,2.860352,2.626465,4.960938,2.778809   c0.148438,0.010742,0.292969,0.016113,0.435547,0.016113c0.959412-0.000122,1.783813-0.244934,2.501282-0.671875   c1.153015,1.525635,3.27594,2.612305,6.112976,3.061035c2.996094,0.474121,6.922852,0.174805,9.797855-1.784668   c1.240234,1.514648,2.925781,2.411621,4.839844,2.553711c0.583984,0.043457,1.157227,0.064941,1.719727,0.064941   c3.550781,0,6.629883-0.851562,8.626953-2.388672c0.876953,0.266602,1.65625,0.226074,2.120117,0.158203   c1.456055-0.216309,3.131836-1.004883,4.300781-3.197266c2.352539,1.714844,4.600586,0.928223,5.365234,0.569824   c3.246094-1.526367,4.853516-5.121582,4.000977-8.945312c-0.428711-1.929688-2.08691-8.43848-5.583981-12.169437   c-0.036865-0.048096-0.074341-0.088257-0.111328-0.135254c1.419922-0.362915,2.507568-1.583496,2.625977-3.106934   c0.078125-1.000977,0.254883-3.264648,0.532227-3.983887c0.71875-0.277344,2.982418-0.453613,3.983395-0.531738   c1.822266-0.141602,3.228516-1.661621,3.228516-3.489258s-1.40625-3.347656-3.228516-3.489258   c-1.000977-0.078125-3.263668-0.254395-3.983395-0.531738c-0.277344-0.719727-0.454102-2.98291-0.532227-3.983887   c-0.141602-1.822266-1.662109-3.228027-3.489258-3.228027c-1.828125,0-3.347656,1.40625-3.489258,3.228516   c-0.078125,1.000977,0.09491-3.162598-0.865234-6.81543c0.162109-0.026367,0.322266-0.057617,0.481445-0.094727   c0.40625,0.370117,0.874023,0.683105,1.397461,0.931641c0.416016,0.320312,0.876953,0.58252,1.379883,0.783203   c1.924805,0.76709,3.926758,0.62207,5.638672-0.408203c2.804684-1.688965,4.28027-5.567871,5.040035-8.726074   c1.611328,0.251953,3.362305,0.234375,4.799805-0.481445c1.321289-0.658203,2.251953-1.803223,2.620117-3.225098   C76.247124,14.89558,76.568413,10.863842,70.758842,7.580639z"/><g><g><g><path class="st2" d="M18.185884,54.927265c2.928614,0.394897,3.097292,3.478657,1.914148,9.03244      c-1.047153,4.915424-2.119509,9.214672-4.278996,9.057499c-3.28441-0.239052-3.692232-3.90789-2.780848-9.924267      S15.711684,54.593639,18.185884,54.927265z"/><ellipse class="st3" cx="19.455427" cy="50.966904" rx="2.622112" ry="2.753608" transform="matrix(0.073486 -0.997296 0.997296 0.073486 -32.803379 66.624374)"/></g><g><path class="st2" d="M26.213358,56.69479c-4.545919-0.642956-5.891998,11.339542-5.195972,16.497845      c0.331589,2.457443,9.905193,4.062912,12.792566-0.329208C36.770802,68.359535,37.474419,58.287498,26.213358,56.69479z"/><path class="st2" d="M27.648865,64.319054c-1.086119-0.153618-1.648376,3.164757-1.24143,3.941696      c0.270733,0.516876,1.975088,0.749359,2.694168,0.014236S30.339376,64.699585,27.648865,64.319054z"/></g><path class="st2" d="M46.901848,58.257336c-1.190895-1.565079-9.174416-0.823685-10.696678,3.804565     c-0.993298,3.019993-1.896408,13.74329,3.308941,14.130108c5.205345,0.386826,9.429966-1.294022,9.115612-4.021942     c-0.31435-2.727913-6.858105-1.946281-6.858105-1.946281s5.567753-1.067139,5.43792-3.918968     c-0.129837-2.851826-5.882061-1.086113-5.882061-1.086113S50.097065,62.456497,46.901848,58.257336z"/><path class="st2" d="M52.581581,54.440815c-3.084435,0.721996-4.460808,4.666542-4.627689,8.870396     c-0.181091,4.56089,0.772266,11.111641,3.251991,10.743301c1.81789-0.269989,2.505398-2.808807,2.717411-5.488785     l1.937332-0.265671c1.059868,2.294342,2.454815,4.165184,4.037247,3.421463     c1.816273-0.853683,2.563175-2.823257,2.074223-5.017403C61.443184,64.330711,58.507587,53.053703,52.581581,54.440815z      M54.001278,65.934731c-0.028069-2.184433-0.248318-3.954681-0.248318-3.954681s0.405476,1.769367,1.111423,3.811714     L54.001278,65.934731z"/><g><path class="st4" d="M17.307793,53.895329c2.928616,0.394897,3.097294,3.478657,1.914148,9.03244      c-1.047153,4.915424-2.119509,9.214672-4.278996,9.057499c-3.28441-0.239052-3.692232-3.90789-2.780848-9.924267      C13.073483,56.044624,14.833593,53.561703,17.307793,53.895329z"/><ellipse class="st5" cx="18.577339" cy="49.934967" rx="2.622114" ry="2.753608" transform="matrix(0.073487 -0.997296 0.997296 0.073487 -32.587803 64.792503)"/></g><g><path class="st4" d="M25.335266,55.662853c-4.545918-0.642956-5.891996,11.339542-5.195972,16.497845      c0.331589,2.457443,9.905193,4.062912,12.792568-0.329208C35.892708,67.327599,36.596329,57.255562,25.335266,55.662853z"/><path class="st2" d="M26.770773,63.287117c-1.086119-0.153614-1.648376,3.164757-1.24143,3.941696      c0.270735,0.516876,1.975088,0.749359,2.694168,0.014236C28.942593,66.507927,29.461285,63.667652,26.770773,63.287117z"/></g><path class="st4" d="M46.023758,57.225399c-1.190895-1.565079-9.174416-0.823685-10.696678,3.804565     c-0.993301,3.019993-1.896408,13.74329,3.308937,14.130108c5.205349,0.386826,9.429966-1.294022,9.115616-4.021942     c-0.31435-2.727913-6.858109-1.946281-6.858109-1.946281s5.567757-1.067139,5.43792-3.918968     c-0.129833-2.851826-5.882061-1.086113-5.882061-1.086113S49.218975,61.424561,46.023758,57.225399z"/><path class="st4" d="M51.703487,53.408878c-3.084431,0.721996-4.460804,4.666542-4.627689,8.870396     c-0.181091,4.56089,0.772266,11.111641,3.251995,10.743301c1.817886-0.269989,2.505398-2.808807,2.717407-5.488785     l1.937332-0.265671c1.059872,2.294342,2.454819,4.165184,4.037251,3.421463     c1.816273-0.853683,2.563175-2.823257,2.074223-5.017403C60.56509,63.298779,57.629498,52.021767,51.703487,53.408878z      M53.123188,64.902794c-0.028069-2.184433-0.248318-3.954681-0.248318-3.954681s0.405476,1.769367,1.111423,3.811714     L53.123188,64.902794z"/></g><g><path class="st2" d="M66.439575,9.434813c-5.740299-2.14447-8.373905-1.59906-9.004398,0.177307     c-0.581116-2.159119-1.737-3.875977-3.884399-4.261963c-3.148621-0.565918-6.004333,2.539734-7.842651,6.370178     c-0.943726,1.966431-1.824402,4.443359-2.237549,6.580933c-1.83197-1.09491-5.003662-1.227417-5.003662-1.227417     s5.471741-0.200928,5.756714-3.188843c0.284912-2.987976-5.463196-2.090454-5.463196-2.090454     s8.773438-1.441406,6.323303-6.331543c-0.913208-1.822632-8.645874-2.355103-10.763794,2.210999     c-0.80011,1.725037-1.938782,6.139526-1.803955,9.795471c-1.217344-1.454285-2.602232-2.580627-2.602232-2.580627     c3.573362-0.413757,7.518919-12.769653-6.798584-8.48877c-2.690918,0.804626-3.66394,2.188477-3.920044,4.492065     c-0.638123-1.376892-2.833862-2.382629-7.73938-1.299988c-10.087463,2.226257-8.356506,16.444702,0.063721,17.856873     c3.488403,0.585022,8.200073-0.675598,9.078552-3.997498c0.541565,1.171875,1.297363,1.801636,2.389832,1.637878     c2.636047-0.395142,2.857971-7.95575,2.857971-7.95575s3.974121,7.582642,7.160948,5.916931     c0.499756-0.26123,0.833435-0.575989,1.041687-0.925781c0.382996,0.370789,0.844727,0.646057,1.406067,0.789062     c3.431335,0.874023,6.545715,0.619385,8.148438-0.594238c0.19165,0.327576,0.453186,0.565796,0.817444,0.662842     c1.793396,0.477783,3.447571-1.600586,4.717407-4.000183l1.902405,0.529602     c0.063721,2.551453,0.607727,4.844543,2.372559,4.788818c2.025757-0.064026,3.506958-1.590881,3.932373-3.820801     c0.227722-1.193726,0.781006-4.644714,0.550049-7.958496c1.101135,1.529236,3.285339,2.021118,3.285339,2.021118     s-6.376038,9.851135-2.151733,11.533569c5.266666,2.097534,6.60767-10.305481,6.60767-10.305481     s6.109863,2.528687,6.807739-0.161865C73.03064,13.348021,70.703491,11.027769,66.439575,9.434813z M51.121212,16.787535     L50.26379,16.5744c0.848816-2.036377,1.353577-3.765686,1.353577-3.765686S51.284664,14.611387,51.121212,16.787535z"/><g><g><path class="st4" d="M22.083214,5.76839c-4.240339,1.267856-4.22159,3.965404-3.839424,9.452375       c0.38015,5.458029,1.075989,9.632071,3.71207,9.236925c2.636082-0.395147,2.857964-7.955709,2.857964-7.955709       s3.974154,7.582617,7.160934,5.916922c4.228268-2.210068-3.093018-8.161773-3.093018-8.161773       C32.455151,13.843399,36.400711,1.487475,22.083214,5.76839z"/><path class="st2" d="M23.547754,9.016413c0,0,2.437469-0.824995,2.364433,0.553343s-2.101618,1.716596-2.101618,1.716596       L23.547754,9.016413z"/></g><path class="st4" d="M44.051758,4.83128c-0.913185-1.82262-8.645897-2.355095-10.763786,2.211052      c-1.38195,2.979475-3.78244,13.987366,1.134586,15.239832c4.917023,1.252464,9.193707,0.19379,9.284618-2.695383      c0.090908-2.889172-6.272217-3.144667-6.272217-3.144667s5.471725-0.200895,5.756668-3.188839      c0.284939-2.987943-5.463188-2.090445-5.463188-2.090445S46.501862,9.721436,44.051758,4.83128z"/><path class="st4" d="M52.518822,4.718468c-3.148636-0.565939-6.004379,2.539711-7.842686,6.370143      c-1.994469,4.155741-3.734138,10.610556-1.287743,11.262178c1.793438,0.477745,3.447575-1.600574,4.717426-4.000195      l1.902439,0.529583c0.063717,2.551485,0.607681,4.844542,2.372559,4.788809      c2.025703-0.064026,3.506924-1.590834,3.932362-3.820782C56.773361,17.436069,58.568169,5.805815,52.518822,4.718468z       M49.231804,15.942708c0.848816-2.036363,1.353596-3.765716,1.353596-3.765716s-0.33271,1.802714-0.496181,3.978836      L49.231804,15.942708z"/><path class="st4" d="M65.407608,8.803116c-6.36224-2.376872-8.916878-1.454692-9.147034,0.792067      c-0.345848,3.376191,3.887959,4.315631,3.887959,4.315631s-6.376045,9.851155-2.151733,11.53358      c5.266678,2.097572,6.607677-10.305465,6.607677-10.305465s6.109879,2.528674,6.807762-0.161843      C71.998657,12.716288,69.671524,10.39607,65.407608,8.803116z"/><path class="st4" d="M15.940584,13.875132c3.064802,0.059737,5.014524-7.238954-5.516834-4.914692      c-10.087457,2.226294-8.35649,16.444719,0.063749,17.856882c4.81308,0.807203,11.961473-1.895863,8.145601-8.684826      c-1.871464-3.329593-5.764315-2.320445-6.399374,0.010132s2.467871,3.930073,2.467871,3.930073      c-3.431917,0.621918-6.362022-3.141697-4.650407-6.083336C11.116608,14.158303,12.756246,13.813064,15.940584,13.875132z"/></g></g><g><path class="st2" d="M42.738407,54.124729c0.276184-0.867825,0.429623-1.741631,0.510128-2.50996     c0.025642-0.006088,0.039803-0.009605,0.039803-0.009605l-0.038395-0.002655     c0.145191-1.396797,0.056564-2.439075,0.056564-2.439075s-0.022079,0.006744-0.054352,0.016411     c1.072575-6.174332,6.071861-5.677456,7.658043-11.152462c1.998692-6.862782,0.551758-18.691286-13.436344-18.927223     c-6.821526-0.099045-14.133749,4.735252-14.365059,14.584507c-0.222557,8.403893,7.49955,10.297298,7.274872,13.713783     c-0.026251,0.434433-0.060299,0.845486-0.096973,1.242306c-0.023821-0.006382-0.038036-0.010284-0.038036-0.010284     s-0.707108,2.095104-0.511063,4.380978l-0.06801-0.00584c0,0,0.028444,0.009109,0.06955,0.022041     c0.074392,0.848721,0.272161,1.722328,0.679657,2.525234l-0.225302-0.046165c0,0,0.084763,0.02816,0.241917,0.075844     c0.789978,1.533298,2.343273,2.800728,5.243076,3.118443c4.242985,0.46487,6.151127-1.895504,6.998394-4.383957"/><g><path class="st6" d="M36.595783,19.223969c-6.821554-0.099072-14.133762,4.735258-14.365074,14.584492      c-0.22257,8.403915,7.499565,10.297295,7.274851,13.71381c-0.245626,4.062557-1.101555,6.412487,0.335709,8.315468      c1.042337,1.410866,2.856272,2.60704,6.469225,2.404434c3.060074-0.163441,5.800816-1.508915,5.858749-6.58947      c0.107124-8.715794,6.098377-7.411034,7.862854-13.50153C52.030804,31.288395,50.583851,19.459906,36.595783,19.223969z"/><path class="st7" d="M42.428413,49.287258c0,0-2.790707,0.891159-6.245708,0.562481      c-4.150322-0.354984-6.812128-1.095467-6.812128-1.095467s-3.095638,9.136429,5.429804,10.070518      S42.428413,49.287258,42.428413,49.287258z"/><path class="st8" d="M33.061867,49.657425c0,0,3.266357-12.060154,0.036846-11.71579      c-2.320873,0.244431-0.138924,5.819756,2.838104,5.048756c2.977024-0.770996,3.205769-5.134636,1.634892-4.907776      c-2.025192,0.276829-1.996651,8.209538-0.343323,11.781952"/></g></g><path class="st9" d="M5.711588,15.121119c-0.562369,1.375069-0.727097,3.074503-0.076363,5.064867    c1.630533,4.987223,5.592143,4.959925,6.982779,4.929329"/><path class="st9" d="M9.394718,11.286351C8.641714,11.6134,7.719734,12.24249,6.933382,13.149247"/><path class="st9" d="M21.755478,7.768263c-0.910666,0.514883-1.423044,1.290577-1.481012,2.423449    c-0.055349,1.081689-0.205887,4.606421,0.113924,6.98527"/><path class="st9" d="M37.754292,5.764504c-1.467205,0.610816-3.195053,1.111585-3.70771,6.301075"/><path class="st9" d="M39.62886,5.485343c0.911392-0.135339,1.657928-0.194889,2.278481,0"/><path class="st9" d="M52.695892,6.626119c-1.879749-0.227848-3.914986,0.574745-5.574581,3.790537"/><path class="st9" d="M58.439022,10.028927c0.390621,1.257424,2.164558,2.148066,3.075951,2.148066"/><path class="st9" d="M58.439022,23.750885c0.715199,0.556614,1.479855,0.493591,2.335442-1.286419    c1.066284-2.218348,1.116188-2.744167,1.344036-3.531647"/><path class="st10" d="M39.105057,21.575726c-2.886074-0.456327-13.024361-0.399364-14.525316,10.081648"/><g><rect class="st1" height="2.043982" transform="matrix(0.707107 -0.707107 0.707107 0.707107 -10.457435 29.928322)" width="2.043982" x="29.875973" y="26.565411"/><path class="st7" d="M30.897949,32.710449c-0.26123,0-0.478027-0.200684-0.498535-0.461426     c-0.294922-3.790039-0.373047-3.868164-4.163086-4.163086c-0.260742-0.020508-0.461426-0.237305-0.461426-0.498535     s0.200684-0.478027,0.461426-0.498535c3.790039-0.294922,3.868164-0.373047,4.163086-4.163086     c0.020508-0.260742,0.237305-0.461426,0.498535-0.461426s0.478027,0.200684,0.498535,0.461426     c0.294922,3.790039,0.373047,3.868164,4.163086,4.163086c0.260742,0.020508,0.461426,0.237305,0.461426,0.498535     s-0.200684,0.478027-0.461426,0.498535c-3.790039,0.294922-3.868164,0.373047-4.163086,4.163086     C31.375977,32.509766,31.15918,32.710449,30.897949,32.710449z M29.452637,27.587402     c0.737793,0.275879,1.169434,0.70752,1.445312,1.445312c0.275879-0.737793,0.70752-1.169434,1.445312-1.445312     c-0.737793-0.275879-1.169434-0.70752-1.445312-1.445312C30.62207,26.879883,30.19043,27.311523,29.452637,27.587402z"/></g><path class="st10" d="M24.609762,34.031631c-0.113924,0.854431-0.1616,2.278481,0.317934,3.474682"/><path class="st9" d="M15.824333,56.481834c-1.473919,3.33128-3.467588,12.109695-1.132147,13.716812"/><path class="st9" d="M17.825098,49.211426c-0.170885,0.144505-0.227848,0.454506-0.227848,0.454506"/><path class="st9" d="M22.161221,67.291183c-0.050545,1.319389,0.064768,1.939102,0.064768,1.939102"/><path class="st9" d="M27.679529,58.317032c-1.082279-0.422188-3.603794-1.538929-4.704565,3.34116    c-0.286306,1.269291-0.477877,2.36784-0.603804,3.303913"/><path class="st9" d="M38.569534,60.732986c-0.727814,0.022682-1.163513,0.506176-1.486801,2.685314    c-0.323288,2.179142,0,3.647129,0,3.647129"/><path class="st9" d="M53.43058,55.36953c-0.858646-0.265823-3.304718-0.472282-3.875984,3.390438"/><path class="st9" d="M48.8694,65.112221c0.056965,0.985153,0,2.597687,0.685196,4.495934"/><g><polygon class="st11" points="58.830078,38.898438 57.718552,41.300545 54.864384,42.527832 57.851345,43.899483      58.830078,46.157227 60.278763,43.447578 63.13924,42.527832 59.976997,41.341404    "/><path class="st7" d="M58.830078,50.760742c-0.260742,0-0.478516-0.201172-0.498047-0.460938     c-0.511719-6.558594-0.71582-6.762695-7.274414-7.274414c-0.259766-0.019531-0.460938-0.237305-0.460938-0.498047     s0.201172-0.478516,0.460938-0.498047c6.558594-0.510742,6.762695-0.714844,7.274414-7.273926     c0.019531-0.260254,0.237305-0.460938,0.498047-0.460938l0,0c0.260742,0,0.478516,0.200684,0.498047,0.461426     c0.510742,6.558594,0.714844,6.762695,7.273438,7.273438c0.259766,0.019531,0.460938,0.237305,0.460938,0.498047     s-0.201172,0.478516-0.460938,0.498047c-6.558594,0.511719-6.762695,0.71582-7.273438,7.274414     C59.308594,50.55957,59.09082,50.760742,58.830078,50.760742z M55.200195,42.527344     c2.220703,0.491211,3.138672,1.40918,3.629883,3.629883c0.490234-2.220703,1.408203-3.138672,3.628906-3.629883     c-2.220703-0.490234-3.138672-1.408203-3.628906-3.628906C58.338867,41.119141,57.420898,42.037109,55.200195,42.527344z"/></g><g><rect class="st11" height="2.04398" transform="matrix(0.707107 -0.707107 0.707107 0.707107 -22.409019 20.912477)" width="2.043982" x="13.017094" y="36.484325"/><path class="st7" d="M14.039074,42.62936c-0.26123,0-0.478027-0.200684-0.498535-0.461426     c-0.294922-3.790039-0.373047-3.868164-4.163086-4.163086c-0.260742-0.020508-0.461426-0.237305-0.461426-0.498535     s0.200684-0.478027,0.461426-0.498535c3.790039-0.294922,3.868164-0.373047,4.163086-4.163086     c0.020508-0.260742,0.237305-0.461426,0.498535-0.461426s0.478027,0.200684,0.498535,0.461426     c0.294922,3.790039,0.373047,3.868164,4.163086,4.163086c0.260742,0.020508,0.461426,0.237305,0.461426,0.498535     s-0.200684,0.478027-0.461426,0.498535c-3.790039,0.294922-3.868164,0.373047-4.163086,4.163086     C14.517101,42.428677,14.300304,42.62936,14.039074,42.62936z M12.593761,37.506313     c0.737793,0.275879,1.169434,0.70752,1.445312,1.445312c0.275879-0.737793,0.70752-1.169434,1.445312-1.445312     c-0.737793-0.275879-1.169434-0.70752-1.445312-1.445312C13.763195,36.798794,13.331554,37.230434,12.593761,37.506313z"/></g></g></g></svg>