<?xml version="1.0"?><svg id="Layer_1" style="enable-background:new 0 0 85.237213 74.304993;" version="1.1" viewBox="0 0 85.237213 74.304993" xml:space="preserve" xmlns="http://www.w3.org/2000/svg" xmlns:xlink="http://www.w3.org/1999/xlink"><style type="text/css">
	.st0{opacity:0.5;fill:#231F20;enable-background:new    ;}
	.st1{fill:#FFFFFF;}
	.st2{fill:#22093A;stroke:#22093A;stroke-linecap:round;stroke-linejoin:round;}
	.st3{fill:#E9022C;stroke:#22093A;stroke-linecap:round;stroke-linejoin:round;}
	.st4{fill:none;stroke:#22093A;stroke-linecap:round;stroke-linejoin:round;}
	.st5{fill:none;stroke:#FFB3CE;stroke-linecap:round;stroke-linejoin:round;}
	.st6{fill:#9736FF;stroke:#22093A;stroke-linecap:round;stroke-linejoin:round;}
	.st7{fill:#FF4069;}
	.st8{fill:none;stroke:#D9BBFF;stroke-linecap:round;stroke-linejoin:round;}
</style><g id="Layer_2_00000126319853669564875770000011560009508634841504_"><g id="Layer_1-2"><path class="st0" d="M82.990639,49.118999c-1.961922-2.424309-5.766602-3.876461-11.323242-4.317379    c-0.162109-0.01318-0.322266-0.025715-0.480469-0.037601c8.457001-9.975101,7.143547-22.734859,4.80175-29.12793    C73.557999,9.00128,69.543373,4.63555,64.054108,2.659c-3.181587-1.333708-6.644653-1.856193-10.078106-1.52052    c-4.309456,0.209187-8.347996,2.163934-11.185562,5.41407c-1.913635-1.90837-4.224751-3.371029-6.768551-4.28369    C31.73234,0.408,26.86808,0.27813,21.563881,1.88555C14.83,3.92657,9.19865,9.41046,6.11368,16.931    c-3.29,8.02149-3.02587,16.90918,0.70752,23.77393c1.390492,2.575806,3.15273,4.932796,5.23,6.995121l-0.00732,0.009762    c-1.141666-0.980705-2.617126-1.484138-4.12014-1.405811c-1.576053,0.046947-3.064831,0.73447-4.12256,1.903809    c-1.94677,2.108398-2.70068,5.68066-2.4458,11.581539c0.28369,6.574223,1.312,10.173832,3.51172,12.130863    c1.15673,1.50573,2.948426,2.387238,4.84717,2.384789c0.241438-0.000076,0.482689-0.013428,0.72266-0.040001    c1.603497-0.161789,3.015749-1.125168,3.75146-2.559082c1.308523,1.244484,3.10493,1.838737,4.89746,1.620079    c0.377697-0.041946,0.74901-0.12899,1.105999-0.25927c0.280483,0.073357,0.566954,0.121552,0.856001,0.143997    c2.133915,0.163536,4.193991-0.819183,5.40966-2.580566l0.046881,0.042c1.263285,1.726433,3.422295,2.550552,5.514648,2.105003    c1.222126-0.257706,2.362885-0.809822,3.323238-1.608398c1.027271,0.766403,2.277988,1.173874,3.55957,1.159668    c1.782291,0.007896,3.497719-0.678032,4.783199-1.912598c0.299107,0.131271,0.607178,0.241081,0.921879,0.328613    c4.68359,1.300293,9.033199,0.981453,11.638672-0.849121c0.150394-0.105965,0.294926-0.216309,0.43359-0.331047    c0.173626,0.193794,0.358173,0.377525,0.552738,0.550293c1.306084,1.64006,3.303337,2.575829,5.39941,2.529778h0.008789    c1.819096,0.033638,3.523472-0.885948,4.494137-2.424797c1.362068,1.737846,3.518761,2.657753,5.71582,2.438004    c1.79451-0.124268,3.434372-1.060158,4.454102-2.542c1.755859-2.507317,1.72168-6.544922,1.265633-9.90136    c1.290085-0.022339,2.555725-0.355667,3.689453-0.97168c1.482651-0.849911,2.521835-2.303185,2.84668-3.980999    C85.562256,52.982224,84.753609,50.634037,82.990639,49.118999z"/><path class="st1" d="M81.683189,48.349461c-1.961922-2.424309-5.766602-3.876461-11.323189-4.317379    c-0.162117-0.01318-0.322273-0.025715-0.480469-0.037601c8.457001-9.97509,7.143547-22.734859,4.801758-29.12793    C72.250572,8.23179,68.235924,3.86607,62.74667,1.8895c-3.181599-1.333702-6.644669-1.85618-10.078129-1.5205    c-4.309444,0.209195-8.347973,2.163938-11.185539,5.41406c-1.913639-1.908368-4.224751-3.371028-6.768551-4.28369    c-4.289551-1.86084-9.153809-1.99073-14.458-0.3833C13.52254,3.15708,7.8912,8.641,4.80624,16.16148    c-3.29,8.021481-3.02588,16.90918,0.70751,23.773922c1.390488,2.575806,3.152727,4.9328,5.23,6.995121l-0.00733,0.009762    c-1.141668-0.980682-2.61712-1.4841-4.12012-1.405762c-1.57605,0.046947-3.064826,0.734467-4.12255,1.903809    C0.547,49.54673-0.20695,53.118999,0.04793,59.019871C0.33163,65.594093,1.36,69.193703,3.55965,71.150726    c1.156732,1.505722,2.948428,2.387222,4.84717,2.384773c0.241438-0.000069,0.482689-0.01342,0.72266-0.040001    c1.603497-0.161789,3.015749-1.125168,3.75146-2.559082c1.308525,1.244484,3.10493,1.838737,4.89746,1.620087    c0.377697-0.041954,0.749008-0.128998,1.105999-0.259277c0.280483,0.073357,0.566954,0.121552,0.856001,0.143997    c2.133883,0.163513,4.193924-0.819176,5.409599-2.580521l0.046869,0.042c1.263287,1.726433,3.422297,2.550545,5.51465,2.105003    c1.222128-0.257706,2.362886-0.809822,3.32324-1.608398c1.027271,0.766403,2.277988,1.173874,3.55957,1.159668    c1.782291,0.007904,3.497723-0.678024,4.783199-1.912598c0.299107,0.131271,0.607178,0.241081,0.921879,0.328613    c4.68359,1.300301,9.033199,0.981453,11.638672-0.849121c0.150387-0.105965,0.294922-0.216293,0.433601-0.331001    c0.173622,0.193802,0.358166,0.377533,0.552731,0.550293c1.30608,1.64006,3.303333,2.575836,5.39941,2.529793h0.008789    c1.819099,0.03363,3.523476-0.885963,4.494141-2.424812c1.362068,1.737846,3.518761,2.657753,5.71582,2.438004    c1.79451-0.124275,3.434372-1.060165,4.454109-2.542c1.755852-2.507332,1.721672-6.54493,1.265617-9.901371    c1.290085-0.022335,2.555725-0.355663,3.689453-0.97168c1.482651-0.849911,2.521835-2.303185,2.84668-3.980999    C84.254799,52.212776,83.446175,49.864536,81.683189,48.349461z"/><path class="st2" d="M42.804691,13.64839c0,0-5.191811-13.055039-20.202532-8.50633    C10.07051,8.93953,3.311,26.78763,9.91861,38.939529S28.45026,52.458511,40.905998,59.445862    c2.700367,1.677265,5.288162,3.529312,7.74683,5.544296c0,0,0.987301-7.215157,16.02528-20.261158    C75.492401,35.347191,73.646736,21.9245,71.5895,16.30666c-1.974678-5.392449-6.381859-12.63187-17.316502-11.7722    C48.887302,4.788059,44.267952,8.459085,42.804691,13.64839z"/><path class="st3" d="M41.66885,13.20817c0,0-5.191799-13.05504-20.20253-8.50633    C8.93468,8.49931,2.17518,26.34741,8.78278,38.49931S27.314419,52.018311,39.770119,59.00563    c2.700382,1.677273,5.288193,3.529327,7.74688,5.544312c0,0,0.987339-7.215191,16.025311-20.261208    c10.814289-9.381809,8.968632-22.804501,6.911396-28.42234C68.478996,10.474,64.0718,3.23457,53.137211,4.09424    C47.751499,4.347823,43.132122,8.01885,41.66885,13.20817z"/><path class="st4" d="M34.27319,21.538839c0,0-0.600811,4.6001,2.057419,4.06846s2.300098-4.06846,2.300098-4.06846"/><path class="st4" d="M42.703571,21.085159c0,0,0,4.183781,2.582279,3.723789s2.126579-4.409359,2.126579-4.409359"/><path class="st4" d="M29.258551,29.69441c0,0,5.408861-0.72175,6.72027,4.335939    c0.990871,3.821499-1.17831,7.759251-1.17831,7.759251"/><path class="st4" d="M50.45591,24.84428c-2.293118,1.513002-3.494953,4.223024-3.077,6.93833    c0.55233,4.403891,5.33765,4.93812,5.33765,4.93812"/><path class="st4" d="M48.226589,34.028198c0,0-2.100338-5.147261-6.817451-4.321621s-5.0811,5.920898-5.0811,5.920898"/><path class="st2" d="M33.205231,15.05709c-2.014931,0.00855-4.916691,0.49765-4.97648,1.584781    c-0.059561,1.0828,4.014669,1.12776,5.705698,0.9161C37.558369,17.104389,38.07766,15.03641,33.205231,15.05709z"/><path class="st2" d="M49.071419,14.04957c-2.00666-0.18255-4.94173,0.02918-5.104332,1.10574    c-0.161999,1.07229,3.889641,1.50337,5.593132,1.452999C53.210819,16.50042,53.923859,14.491,49.071419,14.04957z"/><path class="st5" d="M19.08563,8.72147c-9.43911,5.52526-10.93154,18.535-9.6307,23.786907"/><path class="st5" d="M26.922501,6.30584c-1.428257,0.116371-2.839411,0.389264-4.20808,0.81377"/><path class="st5" d="M15.73252,43.23193c0.358333,0.321335,0.735942,0.642845,1.132831,0.96455"/><path class="st5" d="M10.17033,35.65472c0.854207,2.152794,2.123929,4.116337,3.73672,5.778591"/><path class="st2" d="M30.16382,68.82341c2.171099-0.471207,3.464842-2.411377,3.48068-4.899872    c0.017139-2.691849-0.357239-15.586521-7.094761-15.557549c-3.506861,0.015079-5.96887,3.930191-7.190159,8.424698    c-1.325001,4.876228-1.918791,12.18042,0.848,12.397171c4.444519,0.34819,5.73877-12.397171,5.73877-12.397171    S25.933849,69.741463,30.16382,68.82341z"/><path class="st2" d="M55.254181,50.03231c-0.885059-1.828369-8.985611-2.646999-11.395851,1.765751    c-1.57272,2.87936-4.541748,13.620411,0.571999,15.040249s9.648911,0.541,9.861881-2.298721s-6.460209-3.333519-6.460209-3.333519    s5.755501,0.010769,6.176289-2.91872s-5.653351-2.26527-5.653351-2.26527S57.628841,54.937901,55.254181,50.03231z"/><path class="st2" d="M62.66312,48.44656c3.265438,0.197739,3.702541,3.588612,2.84811,9.81646    c-0.756218,5.512001-1.590401,10.345791-3.98735,10.347942c-3.645569,0.003281-4.394279-4.014091-3.877522-10.73056    S59.904369,48.279499,62.66312,48.44656z"/><ellipse class="st2" cx="62.16394" cy="44.19648" rx="3.04834" ry="2.902771"/><path class="st2" d="M71.061813,48.59029c7.366806,0.58535,10.008179,2.944641,9.501678,5.440151    c-0.761108,3.75-7.539001,1.467499-7.539001,1.467499s3.555748,12.743454-1.555763,13.136223    c-6.37281,0.489693-3.548897-13.895729-3.548897-13.895729s-5.862999-0.383999-5.285542-3.464199    S65.945999,48.1838,71.061813,48.59029z"/><path class="st2" d="M38.609268,47.77253c-7.655651,0.164478-9.946789,2.196129-9.25058,4.645489    c1.046169,3.680649,5.872761,2.89846,5.872761,2.89846s-2.569,12.978413,2.557621,12.978413    c6.39159,0,2.622059-13.550911,2.622059-13.550911s7.454639,0.0998,7.06324-3.009499    C47.14547,49.12178,43.740002,47.662289,38.609268,47.77253z"/><path class="st2" d="M16.372931,49.16283c-2.14577,0.078678-3.28967,2.644249-3.23905,8.264    c-0.618-0.016529-1.28194,0.002998-1.97592,0.042728c-0.14019-4.887379-0.9999-7.457119-3.43416-7.36776    c-2.33778,0.085701-3.49058,3.112259-3.20019,9.836689C4.814,66.66288,5.87719,70.588463,8.9422,70.252388    c1.50029-0.164467,1.98272-2.914001,2.148479-6.597141c0.34319-0.023258,0.70023-0.059078,1.08421-0.119362    c0.48745-0.076561,0.93143-0.169998,1.35019-0.274158c0.55259,4.069229,1.7236,6.308517,4.06625,6.051682    c2.01527-0.220932,2.194941-5.102638,2.23588-10.651501C19.873541,52.392441,19.139999,49.061279,16.372931,49.16283z"/><path class="st6" d="M25.76507,47.532299c-3.506901,0.015072-5.96887,3.930172-7.190189,8.424679    c-1.325001,4.876221-1.918819,12.18042,0.848,12.397163c2.060801,0.16143,3.44342-2.492622,4.33466-5.38538h2.04541    c0.560061,2.87463,1.608999,5.44788,3.576231,5.020939c2.17108-0.471199,3.464851-2.411377,3.480652-4.89991    C32.876999,60.397999,32.50256,47.503311,25.76507,47.532299z M24.52593,59.93074    c0.45557-2.202999,0.635679-3.973759,0.635679-3.973759s-0.001221,1.780701,0.212099,3.973759H24.52593z"/><path class="st6" d="M54.469479,49.198601c-0.885059-1.828369-8.985611-2.646999-11.395851,1.765751    c-1.57272,2.87936-4.541752,13.620411,0.571999,15.040249s9.648899,0.541,9.861881-2.298721s-6.46027-3.333519-6.46027-3.333519    s5.755501,0.010769,6.1763-2.91872s-5.653351-2.26527-5.653351-2.26527S56.844139,54.104191,54.469479,49.198601z"/><path class="st6" d="M61.878422,47.61285c3.265438,0.197739,3.702526,3.588612,2.848103,9.81646    c-0.756222,5.512001-1.590389,10.345791-3.987339,10.34795c-3.645569,0.003273-4.394279-4.014099-3.877522-10.730568    S59.119671,47.445789,61.878422,47.61285z"/><ellipse class="st6" cx="61.379238" cy="43.781872" rx="3.048343" ry="2.902771"/><path class="st6" d="M70.2771,47.75658c7.366821,0.58535,10.008194,2.944641,9.501694,5.440151    c-0.761124,3.75-7.539001,1.467499-7.539001,1.467499s3.55571,12.743446-1.555794,13.136223    c-6.37281,0.489693-3.548897-13.895729-3.548897-13.895729s-5.862999-0.383999-5.285542-3.464199    S65.161308,47.35009,70.2771,47.75658z"/><path class="st6" d="M37.82457,46.93882c-7.655651,0.164478-9.946789,2.196129-9.250591,4.645489    c1.046181,3.680649,5.872768,2.89846,5.872768,2.89846s-2.569,12.978413,2.55761,12.978413    c6.391602,0,2.62207-13.550911,2.62207-13.550911s7.454639,0.0998,7.063229-3.009499    C46.360771,48.288071,42.955311,46.828579,37.82457,46.93882z"/><path class="st6" d="M15.58823,48.329128c-2.14577,0.078671-3.28967,2.644241-3.239,8.264    c-0.618-0.016529-1.282,0.002998-1.97592,0.042728c-0.14019-4.887379-0.9999-7.457119-3.43416-7.36776    c-2.33778,0.085701-3.49058,3.112259-3.20019,9.836689c0.29038,6.724369,1.35358,10.649998,4.41859,10.313877    c1.50029-0.164467,1.98272-2.914001,2.14848-6.597141c0.34319-0.023258,0.70023-0.059078,1.08421-0.119362    c0.48745-0.076561,0.93143-0.169998,1.35019-0.274158c0.55258,4.069229,1.7236,6.308517,4.06625,6.051682    c2.01527-0.220932,2.194941-5.102638,2.23588-10.651501C19.08884,51.558731,18.35533,48.22757,15.58823,48.329128z"/><circle class="st7" cx="22.18367" cy="36.72073" r="6.947551"/><circle class="st7" cx="60.910938" cy="29.08972" r="5.495269"/><path class="st8" d="M5.87985,52.108002c-0.694444,3.001194-0.810438,6.10725-0.34177,9.151878"/><path class="st8" d="M14.72815,63.012001c0.104112,1.129837,0.546892,2.201927,1.270391,3.075951"/><path class="st8" d="M25.5443,49.411789c-1.730736,0.57444-3.109087,1.900402-3.75013,3.60759"/><path class="st8" d="M28.95311,65.723251c0,0,0.966061,0.58194,1.530519-0.927559"/><path class="st8" d="M30.483629,51.500389c0.45569,0.569618,1.10508,1.367088,3.459509,1.215191"/><path class="st8" d="M43.272331,56.437099c-0.34177,1.443001-0.987339,5.364922-0.227852,6.57486"/><path class="st8" d="M60.722561,42.802811c-0.536888,0.454296-0.645275,1.240116-0.251411,1.822788"/><path class="st8" d="M59.613998,51.842171c-0.530777,2.277229-0.836044,4.601185-0.911388,6.93824"/><path class="st8" d="M68.372139,61.031712c0.061768,2.258171,0.392326,4.839626,1.76088,5.056202"/><path class="st8" d="M68.386177,58.03371c0,0.29018-0.011452,0.71233-0.019241,1.213631"/></g></g></svg>