<svg xmlns="http://www.w3.org/2000/svg" viewBox="0 0 500 500"><g id="freepik--background-complete--inject-178"><rect x="42.32" y="323.64" width="405.25" height="5.02" style="fill:#ebebeb"></rect><polygon points="52.43 320.08 67.63 320.08 60.03 307.94 52.43 320.08" style="fill:#ebebeb"></polygon><polygon points="82.83 307.94 67.63 307.94 75.23 320.08 82.83 307.94" style="fill:#dbdbdb"></polygon><polygon points="82.83 320.08 98.03 320.08 90.43 307.94 82.83 320.08" style="fill:#ebebeb"></polygon><polygon points="113.22 307.94 98.03 307.94 105.62 320.08 113.22 307.94" style="fill:#dbdbdb"></polygon><polygon points="113.22 320.08 128.42 320.08 120.82 307.94 113.22 320.08" style="fill:#ebebeb"></polygon><polygon points="143.62 307.94 128.42 307.94 136.02 320.08 143.62 307.94" style="fill:#dbdbdb"></polygon><polygon points="143.62 320.08 158.81 320.08 151.22 307.94 143.62 320.08" style="fill:#ebebeb"></polygon><polygon points="174.01 307.94 158.81 307.94 166.41 320.08 174.01 307.94" style="fill:#dbdbdb"></polygon><polygon points="174.01 320.08 189.21 320.08 181.61 307.94 174.01 320.08" style="fill:#ebebeb"></polygon><polygon points="204.41 307.94 189.21 307.94 196.81 320.08 204.41 307.94" style="fill:#dbdbdb"></polygon><polygon points="204.41 320.08 219.6 320.08 212.01 307.94 204.41 320.08" style="fill:#ebebeb"></polygon><polygon points="234.8 307.94 219.6 307.94 227.2 320.08 234.8 307.94" style="fill:#dbdbdb"></polygon><polygon points="234.8 320.08 250 320.08 242.4 307.94 234.8 320.08" style="fill:#ebebeb"></polygon><polygon points="265.2 307.94 250 307.94 257.6 320.08 265.2 307.94" style="fill:#dbdbdb"></polygon><polygon points="265.2 320.08 280.39 320.08 272.8 307.94 265.2 320.08" style="fill:#ebebeb"></polygon><polygon points="295.59 307.94 280.39 307.94 287.99 320.08 295.59 307.94" style="fill:#dbdbdb"></polygon><polygon points="295.59 320.08 310.79 320.08 303.19 307.94 295.59 320.08" style="fill:#ebebeb"></polygon><polygon points="325.99 307.94 310.79 307.94 318.39 320.08 325.99 307.94" style="fill:#dbdbdb"></polygon><polygon points="325.99 320.08 341.19 320.08 333.59 307.94 325.99 320.08" style="fill:#ebebeb"></polygon><polygon points="356.38 307.94 341.19 307.94 348.78 320.08 356.38 307.94" style="fill:#dbdbdb"></polygon><polygon points="356.38 320.08 371.58 320.08 363.98 307.94 356.38 320.08" style="fill:#ebebeb"></polygon><polygon points="386.78 307.94 371.58 307.94 379.18 320.08 386.78 307.94" style="fill:#dbdbdb"></polygon><polygon points="386.78 320.08 401.98 320.08 394.38 307.94 386.78 320.08" style="fill:#ebebeb"></polygon><polygon points="417.17 307.94 401.98 307.94 409.57 320.08 417.17 307.94" style="fill:#dbdbdb"></polygon><polygon points="417.17 320.08 432.37 320.08 424.77 307.94 417.17 320.08" style="fill:#ebebeb"></polygon><polygon points="447.57 307.94 432.37 307.94 439.97 320.08 447.57 307.94" style="fill:#dbdbdb"></polygon><polygon points="447.57 346.58 432.37 346.58 439.97 334.44 447.57 346.58" style="fill:#dbdbdb"></polygon><polygon points="417.17 334.44 432.37 334.44 424.77 346.58 417.17 334.44" style="fill:#ebebeb"></polygon><polygon points="417.17 346.58 401.98 346.58 409.57 334.44 417.17 346.58" style="fill:#dbdbdb"></polygon><polygon points="386.78 334.44 401.98 334.44 394.38 346.58 386.78 334.44" style="fill:#ebebeb"></polygon><polygon points="386.78 346.58 371.58 346.58 379.18 334.44 386.78 346.58" style="fill:#dbdbdb"></polygon><polygon points="356.38 334.44 371.58 334.44 363.98 346.58 356.38 334.44" style="fill:#ebebeb"></polygon><polygon points="356.38 346.58 341.19 346.58 348.78 334.44 356.38 346.58" style="fill:#dbdbdb"></polygon><polygon points="325.99 334.44 341.19 334.44 333.59 346.58 325.99 334.44" style="fill:#ebebeb"></polygon><polygon points="325.99 346.58 310.79 346.58 318.39 334.44 325.99 346.58" style="fill:#dbdbdb"></polygon><polygon points="295.59 334.44 310.79 334.44 303.19 346.58 295.59 334.44" style="fill:#ebebeb"></polygon><polygon points="295.59 346.58 280.39 346.58 287.99 334.44 295.59 346.58" style="fill:#dbdbdb"></polygon><polygon points="265.2 334.44 280.39 334.44 272.8 346.58 265.2 334.44" style="fill:#ebebeb"></polygon><polygon points="265.2 346.58 250 346.58 257.6 334.44 265.2 346.58" style="fill:#dbdbdb"></polygon><polygon points="234.8 334.44 250 334.44 242.4 346.58 234.8 334.44" style="fill:#ebebeb"></polygon><polygon points="234.8 346.58 219.6 346.58 227.2 334.44 234.8 346.58" style="fill:#dbdbdb"></polygon><polygon points="204.41 334.44 219.6 334.44 212.01 346.58 204.41 334.44" style="fill:#ebebeb"></polygon><polygon points="204.41 346.58 189.21 346.58 196.81 334.44 204.41 346.58" style="fill:#dbdbdb"></polygon><polygon points="174.01 334.44 189.21 334.44 181.61 346.58 174.01 334.44" style="fill:#ebebeb"></polygon><polygon points="174.01 346.58 158.81 346.58 166.41 334.44 174.01 346.58" style="fill:#dbdbdb"></polygon><polygon points="143.62 334.44 158.81 334.44 151.22 346.58 143.62 334.44" style="fill:#ebebeb"></polygon><polygon points="143.62 346.58 128.42 346.58 136.02 334.44 143.62 346.58" style="fill:#dbdbdb"></polygon><polygon points="113.22 334.44 128.42 334.44 120.82 346.58 113.22 334.44" style="fill:#ebebeb"></polygon><polygon points="113.22 346.58 98.03 346.58 105.62 334.44 113.22 346.58" style="fill:#dbdbdb"></polygon><polygon points="82.83 334.44 98.03 334.44 90.43 346.58 82.83 334.44" style="fill:#ebebeb"></polygon><polygon points="82.83 346.58 67.63 346.58 75.23 334.44 82.83 346.58" style="fill:#dbdbdb"></polygon><polygon points="52.43 334.44 67.63 334.44 60.03 346.58 52.43 334.44" style="fill:#ebebeb"></polygon><path d="M318.39,284.4H284.75V38.6h33.64Zm-32.64-1h31.64V39.6H285.75Z" style="fill:#ebebeb"></path><path d="M144.6,284.4H111V38.6H144.6Zm-32.64-1H143.6V39.6H112Z" style="fill:#ebebeb"></path><path d="M431.87,458.56c-1.39-1.84-54.73-38-57.56-38.07-.33,0-8.22,10.94-8.22,10.94l-20.83-3.7,2.46,37H393s30.84.08,32,0C428.12,464.51,433.28,460.4,431.87,458.56Z" style="fill:#ebebeb"></path><g style="opacity:0.1"><path d="M431.87,458.56c-1.39-1.84-54.73-38-57.56-38.07-.33,0-8.22,10.94-8.22,10.94l-20.83-3.7,2.46,37H393s30.84.08,32,0C428.12,464.51,433.28,460.4,431.87,458.56Z"></path></g><path d="M294.49,400l15,65.61s-27.92-.77-59.47-.77c-35.49,0-28-34.11-4.91-46.11C264.29,408.67,290.76,400.29,294.49,400Z" style="fill:#a6a6a6"></path><path d="M350.67,461.49c-9.84,4.33-26.13,4-28.58,4.06-2.45.26-20.63.49-31-2.32-13.06-3.54-21.1-14.4-18.21-34.18,2.46-16.89,13.72-33.11,13.72-33.11l67.24-3.6s10,23.69,12.5,40.56C367.9,443.18,368.58,453.65,350.67,461.49Z" style="fill:#a6a6a6"></path><path d="M281.53,404.81c-.86,1.46-2.47,2.28-3.55,3.55-2.87,3-4.41,7-5.64,10.88-.25.8-.46,1.61-.73,2.42.32-5.06,1.94-10.39,5.83-13.86,1.23-1.2,2.91-1.79,4.09-3Z" style="fill:#a6a6a6"></path><path d="M411.93,458.56c-1.39-1.84-54.73-38-57.56-38.07-.33,0-8.22,10.94-8.22,10.94l-20.83-3.7,2.46,37h45.27s30.84.08,32,0C408.18,464.51,413.34,460.4,411.93,458.56Z" style="fill:#ebebeb"></path><path d="M325.32,427.73c-12-2.72-24.39-3.66-36.62-5.09-9.17-1.21-18.42.16-27.6.71l-9.23.73c10.71-1.43,21.48-2.93,32.31-2.85,7.71.63,15.35,1.66,23,2.75,6.09,1,12.24,1.87,18.14,3.75Z" style="fill:#a6a6a6"></path><path d="M325.55,319.19c4.29.09,8.15-6.77,8.27-12.28,0-.4-1.2-3.92-2.6-8.29-.84-2.66-1.71-5.64-2.3-8.41l-16.5,8a45.06,45.06,0,0,1,4,10.3,5.94,5.94,0,0,1,.12,1.16c0,.05,0,.12,0,.19C316.65,312.07,321.41,319.11,325.55,319.19Z" style="fill:#ebebeb"></path><path d="M328.25,264c4,6.78,5.31,25.8,1.22,31.74-5.92,8.62-18.12,12.19-26.06,4.5-7.71-7.45-9.1-31.52-4.3-37.18C306.17,254.73,322.4,254,328.25,264Z" style="fill:#ebebeb"></path><path d="M317.47,292.83c-3.33-1.28-4.15-12.88-4.15-12.88s-11,.51-10.75-8.6c0,0-8.45,1.34-10-3.52-1-3.19,1.5-6.77,6.59-9.17,7-3.26,18.38-6,26.26,1.9,0,0,4,.39,6.54,6.17,1.43,3.2,3.3,15.62.26,20.21-1,1.46-1.61,7.1-2.77,8C325.46,298.1,320.26,293.89,317.47,292.83Z" style="fill:#c7c7c7"></path><path d="M301.44,268.45a.09.09,0,0,1,.17.05c-.93,6.05,3.13,11.4,9.55,10.75a.17.17,0,0,1,0,.33C304.89,280.86,298.78,274.73,301.44,268.45Z" style="fill:#c7c7c7"></path><path d="M305.55,285.47s2.94-7.61,6.28-6.72,2.26,11.14-.88,13.28a3.62,3.62,0,0,1-5.17-.72Z" style="fill:#ebebeb"></path><path d="M311.45,281.68c.05,0,.08.05,0,.09-2.18,1.58-2.9,4.14-3.22,6.69a2,2,0,0,1,2.77-1.25c.08,0,0,.15,0,.15a2.21,2.21,0,0,0-2.19,1.34,10.64,10.64,0,0,0-.67,2.21c-.06.25-.48.23-.46,0a.17.17,0,0,0,0-.07C306.87,287.73,308.21,282.81,311.45,281.68Z" style="fill:#a6a6a6"></path><path d="M358.76,394.61l6.05,24.83s-22.2,2.35-35.94,2.22c-16.89-.17-76.47-6.84-76.47-6.84,17.51-10.42,27.45-13.11,27.45-13.11s18.22-73.79,37.63-94.23c8.93-9.41,19.72-5.09,24,3.24C355,337.06,358.76,394.61,358.76,394.61Z" style="fill:#c7c7c7"></path><path d="M323.82,322.18c1.13,22.53-1.72,59.45-6.45,66-4.19,5.78-30.41,16.2-40.36,18.63-4.6,1.12-17.71-25.34-13.12-27.48,5.75-2.67,31.78-14.07,32.63-15.42s6.27-27.33,13.4-43.75C316.38,305.24,323.4,313.66,323.82,322.18Z" style="fill:#ebebeb"></path><path d="M273.68,376.5s-12.36,1-18.7,3.49c-8.48,3.37-14.42,9.78-16.74,12.62-4.86,5.91-12.5,23.58-7.8,26.67,4.26,2.79,11.16-15.66,11.16-15.66s-10.14,17.65-4.39,20.08,12.54-19.45,12.54-19.45-10,18.37-3.7,19.93c4.78,1.18,12.05-18.28,12.05-18.28s-8.5,15.85-3.64,17.27c5.37,1.58,13.21-16,13.21-16,13,1.55,19.79-3.3,24.24-7.12C293,399.15,273.68,376.5,273.68,376.5Z" style="fill:#ebebeb"></path><path d="M244.72,397.29c-1.27,2-2.56,4.08-3.64,6.22s-2.09,4.31-3,6.54a40.57,40.57,0,0,0-2.59,9c1.32-5.41,5.07-13.12,6.15-15.26s2.05-4.31,3.13-6.45C244.83,397.28,244.75,397.25,244.72,397.29Z" style="fill:#a6a6a6"></path><path d="M252.5,401.06c-1.5,2.66-3.09,5.25-4.48,8s-2.45,5.41-3.64,8.22c-.1.21.05.19.15,0,1.3-2.76,2.72-5.2,4.05-7.94s2.56-5.53,4-8.21C252.59,401.05,252.52,401,252.5,401.06Z" style="fill:#a6a6a6"></path><path d="M259.76,403.09a68.84,68.84,0,0,0-5.92,12.73c-.08.21.11.16.2-.05,1.89-4.27,3.34-7.63,5.86-12.59C259.94,403.1,259.82,403,259.76,403.09Z" style="fill:#a6a6a6"></path><path d="M277.91,410.1l-10.28-36.43,24.59-10C297,350.82,306.4,325.18,311,316.8c5.4-9.82,12.58-6.72,13.56,4.66,2.26,26-1.07,61.86-4.71,67.28C314.27,397.05,277.91,410.1,277.91,410.1Z" style="fill:#c7c7c7"></path><path d="M284.35,404c-.21-2.45-2.74-12.28-3.4-14.72s-3.64-12.14-4.32-14.65c0-.14-.25-.12-.21,0,.63,2.49,6.77,27.12,7.8,29.38C284.26,404.09,284.36,404.06,284.35,404Z" style="fill:#a6a6a6"></path><path d="M325,334.09c.24,8.56.22,17.13-.14,25.69S324,377,321.74,385.29c-1,4.45-4.85,7.23-8.52,9.45-11.07,6.57-23.19,11.14-35.29,15.41l-.06,0v-.05l-1-3.75,1.1,3.72-.07,0c8-3,15.94-6.25,23.66-9.9a113.1,113.1,0,0,0,11.31-6c3.55-2.19,7.19-4.79,8.17-9.08,2.33-8.18,2.73-16.85,3.31-25.32s.68-17.1.7-25.66Z" style="fill:#a6a6a6"></path><path d="M325.08,340.66a36.25,36.25,0,0,1,.66-4.28,12.72,12.72,0,0,1-.66,4.28Z" style="fill:#a6a6a6"></path></g><g id="freepik--Floor--inject-178"><path d="M11.3,463.77c152.93-.61,324.47-.61,477.4,0-152.93.62-324.47.61-477.4,0Z" style="fill:#263238"></path></g><g id="freepik--Windows--inject-178"><polygon points="431.46 144.07 431.44 144.1 431.44 144.07 431.46 144.07" style="fill:#FFC727"></polygon><path d="M164.69,143.1h0l2,2V283.9h96V145.1l2-2c.37-.49,8.46-11.54,5.72-29.95-2.7-18.24-14.49-26.4-25.89-34.3-10.86-7.53-22.1-15.32-27.41-32.19l-2.39-7.56-2.38,7.56C207,63.53,195.73,71.32,184.87,78.85c-11.4,7.9-23.18,16.06-25.89,34.3C156.24,131.59,164.34,142.64,164.69,143.1Zm-.77-29.21c2.39-16.1,12.31-23,23.79-30.93,9.7-6.72,20.52-14.22,27-28.52,6.44,14.3,17.27,21.8,27,28.52,11.48,8,21.4,14.83,23.79,30.92,2.42,16.27-4.71,26.13-4.79,26.23l-2.93,4h-.05V278.9h-86V144.1l0,0-3-4C168.62,140,161.51,130.15,163.92,113.89Z" style="fill:#FFC727"></path><path d="M164.69,143.1h0l2,2V283.9h96V145.1l2-2c.37-.49,8.46-11.54,5.72-29.95-2.7-18.24-14.49-26.4-25.89-34.3-10.86-7.53-22.1-15.32-27.41-32.19l-2.39-7.56-2.38,7.56C207,63.53,195.73,71.32,184.87,78.85c-11.4,7.9-23.18,16.06-25.89,34.3C156.24,131.59,164.34,142.64,164.69,143.1Zm-.77-29.21c2.39-16.1,12.31-23,23.79-30.93,9.7-6.72,20.52-14.22,27-28.52,6.44,14.3,17.27,21.8,27,28.52,11.48,8,21.4,14.83,23.79,30.92,2.42,16.27-4.71,26.13-4.79,26.23l-2.93,4h-.05V278.9h-86V144.1l0,0-3-4C168.62,140,161.51,130.15,163.92,113.89Z" style="opacity:0.30000000000000004"></path><path d="M168.69,140.1l3,4,0,0V278.9h77V144.07h.05l2.93-4c.08-.1,7.21-10,4.79-26.23-2.39-16.09-10.81-23-22.29-30.92-9.69-6.72-13.06-14.22-19.5-28.52-6.44,14.3-17.26,21.8-27,28.52-11.48,8-21.4,14.83-23.79,30.93C161.51,130.15,168.62,140,168.69,140.1Z" style="fill:#fff"></path><path d="M257.65,224.62v9.82c-29.81.17-62.93.37-86,.52v-8.84c2.62-2,5.06-4.14,7.8-5.94a50.45,50.45,0,0,1,9.48-4.85,54.24,54.24,0,0,1,43.31,2c3.5,1.78,6.54,4.18,9.88,6.19a16.37,16.37,0,0,0,13.15,1.79C256.1,225.09,256.88,224.86,257.65,224.62Z" style="fill:#ebebeb"></path><path d="M265.42,113.89a44.54,44.54,0,0,1,.46,8.43c-23.69-.14-43.7-.26-46.46-.26-.46,0-.51-1.39-.25-1.72,1.08-1.34,2.61-1.39,4.22-1.19,1,.13,2.06.41,3.1.44a9.9,9.9,0,0,0,5.1-1.58c4.68-2.58,8.75-7.07,14.1-7.92s11.1-.19,15.93-3c.61-.36,1.2-.75,1.77-1.16A38.66,38.66,0,0,1,265.42,113.89Z" style="fill:#ebebeb"></path><path d="M235.39,169.49c-3.32.1-36.95-.07-63.7-.22V156.52c1.93-1.58,3.7-3.38,6-4.41a10.82,10.82,0,0,1,8.64.12c3.32,1.36,5.72,3.75,8.16,6.27,3,3.07,7,4.56,11.13,3a42.49,42.49,0,0,1,4.94-2.05,9.54,9.54,0,0,1,4.89.15,10,10,0,0,1,4.49,2.93c1.45,1.57,2.73,2.94,4.82,3.64,3.56,1.2,7.43.86,10.85,2.55C236,168.9,235.78,169.48,235.39,169.49Z" style="fill:#ebebeb"></path><path d="M214.67,54.44c6.44,14.3,9.81,21.8,19.5,28.52,11.48,8,19.9,14.83,22.29,30.92,2.42,16.27-4.71,26.13-4.79,26.23l-2.93,4h-.05V278.9h9V144.07h.05l2.93-4c.08-.1,7.21-10,4.79-26.23C263,97.79,253.11,90.92,241.63,83,231.94,76.24,221.11,68.74,214.67,54.44Z" style="fill:#FFC727"></path><path d="M338.48,143.1h0l2,2V283.9h96V145.1l2-2c.37-.49,8.46-11.54,5.72-29.95-2.7-18.24-14.49-26.4-25.89-34.3-10.86-7.53-22.1-15.32-27.41-32.19l-2.39-7.56-2.38,7.56c-5.32,16.87-16.56,24.66-27.42,32.19-11.4,7.9-23.18,16.06-25.89,34.3C330,131.59,338.13,142.64,338.48,143.1Zm-.77-29.21C340.1,97.79,350,90.92,361.5,83c9.7-6.72,20.52-14.22,27-28.52,6.44,14.3,17.27,21.8,27,28.52,11.48,8,21.4,14.83,23.79,30.92,2.42,16.27-4.71,26.13-4.79,26.23l-2.93,4h-.05V278.9h-86V144.1l0,0-3-4C342.41,140,335.3,130.15,337.71,113.89Z" style="fill:#FFC727"></path><path d="M338.48,143.1h0l2,2V283.9h96V145.1l2-2c.37-.49,8.46-11.54,5.72-29.95-2.7-18.24-14.49-26.4-25.89-34.3-10.86-7.53-22.1-15.32-27.41-32.19l-2.39-7.56-2.38,7.56c-5.32,16.87-16.56,24.66-27.42,32.19-11.4,7.9-23.18,16.06-25.89,34.3C330,131.59,338.13,142.64,338.48,143.1Zm-.77-29.21C340.1,97.79,350,90.92,361.5,83c9.7-6.72,20.52-14.22,27-28.52,6.44,14.3,17.27,21.8,27,28.52,11.48,8,21.4,14.83,23.79,30.92,2.42,16.27-4.71,26.13-4.79,26.23l-2.93,4h-.05V278.9h-86V144.1l0,0-3-4C342.41,140,335.3,130.15,337.71,113.89Z" style="opacity:0.30000000000000004"></path><path d="M342.48,140.1l3,4,0,0V278.9h77V144.07h0l2.93-4c.08-.1,7.21-10,4.79-26.23C427.86,97.79,419.44,90.92,408,83c-9.69-6.72-13.06-14.22-19.5-28.52C382,68.74,371.2,76.24,361.5,83c-11.48,8-21.4,14.83-23.79,30.93C335.3,130.15,342.41,140,342.48,140.1Z" style="fill:#fff"></path><path d="M352,122.6c-1.42.05-6.86.05-14.78,0a42.86,42.86,0,0,1,0-4.66l.18.06c4.87,1.64,10.18,1.18,14.86,3.5C352.86,121.8,352.57,122.58,352,122.6Z" style="fill:#ebebeb"></path><path d="M437.38,106.47c-27.2-.1-74.22-.4-78-.4-.33,0-.37-1-.18-1.25a3.09,3.09,0,0,1,3.08-.87c.76.09,1.5.3,2.27.32a7.3,7.3,0,0,0,3.72-1.16c3.41-1.88,6.39-5.16,10.29-5.78s8.11-.14,11.63-2.2c3-1.73,5.14-4.61,8.31-6a10.86,10.86,0,0,1,8.64.12c3.32,1.36,5.72,3.75,8.16,6.28,3,3.06,7,4.55,11.13,3a39.27,39.27,0,0,1,4.94-2l.19,0A33,33,0,0,1,437.38,106.47Z" style="fill:#ebebeb"></path><path d="M390.67,213.85c-2.58.08-23.46,0-45.19-.12V198.86a40.27,40.27,0,0,1,4.29,4c3,3.07,7,4.56,11.13,3a42.49,42.49,0,0,1,4.94-2,9.5,9.5,0,0,1,4.88.15,10,10,0,0,1,4.49,2.94c1.45,1.56,2.74,2.93,4.83,3.63,3.55,1.2,7.43.86,10.84,2.55A.42.42,0,0,1,390.67,213.85Z" style="fill:#ebebeb"></path><path d="M431.44,246V262c-34.56,0-70.24,0-70.29-.11-4.43,0-3.07-2.54-2.63-2.92a17.91,17.91,0,0,1,11.76-4.7c2.67,0,5.34.33,8,.14,3.47-.24,6.3-1.52,9.36-3a20.82,20.82,0,0,1,12.76-2.33c5.69.79,11.18,3,17,2.23C422.45,250.59,426.94,248.24,431.44,246Z" style="fill:#ebebeb"></path><path d="M388.46,54.44c6.44,14.3,9.81,21.8,19.5,28.52,11.48,8,19.9,14.83,22.29,30.92,2.42,16.27-4.71,26.13-4.79,26.23l-2.93,4h0V278.9h9V144.07h.05l2.93-4c.08-.1,7.21-10,4.79-26.23-2.39-16.09-12.31-23-23.79-30.92C405.73,76.24,394.9,68.74,388.46,54.44Z" style="fill:#FFC727"></path></g><g id="freepik--character-1--inject-178"><path d="M105.72,122.57c14.78,21.31,32.25,41.3,37.94,43.06,8.8,2.71,44.36-3.15,55.39-7.73,3.61-1.49-3.25-28.05-7.31-29.11s-42.88,9.91-45.44,9.68c-1.36-.11-19-13.56-31.64-22.15C102.89,108.34,101.23,116.1,105.72,122.57Z" style="fill:#d3766a"></path><path d="M194.44,159.45C197.81,158.89,213,155,217,153s15-8.53,13.73-11.63-4.66-1.44-4.66-1.44,4.2-3.47,2.63-6.48-6.75-.25-6.75-.25,4-3.87,2.25-6.76-6.51.72-6.51.72,3.87-3.37,1.35-5.15c-3-2.14-9.42,4.85-14,6.74-1,.42-21.64,7.22-21.64,7.22Z" style="fill:#d3766a"></path><path d="M218.08,126.88c-4.72,5.14-7.71,6.59-14.43,8.47-.13,0-.11.23,0,.21,6.76-1.26,10.78-2.57,14.67-8.47C218.54,126.8,218.3,126.64,218.08,126.88Z" style="fill:#263238"></path><path d="M222.3,132.81c-5.39,4.92-8.61,6.52-15.5,9-.1,0-.05.2,0,.17,7-1.87,11-3.26,15.66-8.86C222.73,132.86,222.54,132.58,222.3,132.81Z" style="fill:#263238"></path><path d="M225.7,140.07c-5.57,4.4-9,6.31-16,7.87a.13.13,0,0,0,.05.25c7.3-.92,11.63-3.27,16.11-7.94C226.12,139.93,226.05,139.79,225.7,140.07Z" style="fill:#263238"></path><path d="M178.08,134.12s5.54-6.74,8.64-9.18,18.16-7.44,19.46-4.36c1.68,4-6.42,8.51-10.69,10.23,0,0,3.89,9.2-1.19,13.67S178.08,134.12,178.08,134.12Z" style="fill:#d3766a"></path><path d="M206.27,121.82c-1.17,4.69-6.93,6.6-10.94,8.57a.39.39,0,0,0-.12.64c1.36,4,2.09,9.93-.63,13.46a.1.1,0,0,0,.15.14c3.46-3.41,3.24-9.33,1.45-13.57,4.15-2,9.83-4.12,10.14-9.23A0,0,0,0,0,206.27,121.82Z" style="fill:#263238"></path><path d="M188.85,164.63l-11-34.78s-28.16,6.47-31.68,7c-1.5.22-23.38-16.32-33.33-23.14-6.55-4.48-14.63-3.11-7.48,10.18,4.18,7.78,28.25,42.46,37.18,44.56C149.68,170.11,188.85,164.63,188.85,164.63Z" style="fill:#FFC727"></path><path d="M179.43,162.54c-1.11-2.1-4.13-11.42-4.86-13.75s-3.32-11.76-4.06-14.15c0-.13.14-.23.18-.09.78,2.35,4.14,11.6,4.89,13.92s3.65,11.65,4,14A.07.07,0,0,1,179.43,162.54Z" style="fill:#263238"></path><path d="M151.66,168.61a40.89,40.89,0,0,1-9.09-.17c-8.93-2.1-33-36.77-37.18-44.56-4.42-8.23-3-11.88.24-12.42Z" style="fill:#020100;opacity:0.1"></path><path d="M190,463.73c-2.69.84-79.25-.11-82.14-1.93-1.11-.68-1.62-11.47-1.85-24.52v-.41c0-2.69-.09-5.46-.09-8.27,0-.39,0-.77,0-1.16l3.71-38.39,51.21.49-5,38-.06,1.5-.31,7.87,0,.81s29.14,13,32.1,15.36S192.65,462.9,190,463.73Z" style="fill:#d3766a"></path><path d="M190,463.73c-2.69.84-79.25-.11-82.14-1.93-1.11-.68-1.62-11.47-1.85-24.52v-.41c0-2.69-.09-5.46-.09-8.27,0-.39,0-.77,0-1.16l49.88.13-.06,1.5-.31,7.87,0,.81s29.14,13,32.1,15.36S192.65,462.9,190,463.73Z" style="fill:#ebebeb"></path><path d="M190,463.72c-1.38.43-22.18.39-42.51,0-4.09-.08-8.15-.17-12-.27-14.5-.38-26.48-.95-27.59-1.66s-1.61-11.16-1.84-24c0-.18,0-.36,0-.54s0-.29,0-.42H106l49.34.08,0,.81s29.14,13,32.09,15.36S192.65,462.9,190,463.72Z" style="fill:#FFC727"></path><path d="M190,463.72c-1.38.43-22.18.39-42.51,0-4.09-.08-8.15-.17-12-.27-14.5-.38-26.48-.95-27.59-1.66s-1.61-11.16-1.84-24c0-.18,0-.36,0-.54s0-.29,0-.42H106l49.34.08,0,.81s29.14,13,32.09,15.36S192.65,462.9,190,463.72Z" style="opacity:0.30000000000000004"></path><path d="M189.14,460.85c-12.91-.47-65-1.17-77.78-.68-.1,0-.1.07,0,.08,12.78.73,64.87,1,77.77.8C189.41,461.05,189.41,460.86,189.14,460.85Z" style="fill:#263238"></path><path d="M160.88,437.15c-5.07-1-11.29-.3-15.22,3.14-.15.14.05.35.22.3a73,73,0,0,1,15-2.82A.31.31,0,0,0,160.88,437.15Z" style="fill:#263238"></path><path d="M164.52,439.33c-5.07-1-11.29-.3-15.22,3.15-.15.13,0,.34.21.29a73.08,73.08,0,0,1,15-2.82A.31.31,0,0,0,164.52,439.33Z" style="fill:#263238"></path><path d="M168.15,441.51c-5.06-1-11.28-.3-15.21,3.15-.15.13.05.34.21.29a73,73,0,0,1,15-2.82A.31.31,0,0,0,168.15,441.51Z" style="fill:#263238"></path><path d="M147.46,463.72c-4.09-.08-8.15-.17-12-.27-14.5-.38-26.48-.95-27.59-1.66s-1.61-11.16-1.84-24c0-.18,0-.36,0-.54s0-.29,0-.42H106C112.8,441.44,136.62,456.76,147.46,463.72Z" style="opacity:0.1"></path><path d="M158.33,437.11H103.19s11.07-124.47,10.64-126.64c-.55-2.79-3.81-15.39-8.15-31.84-1.36-5.15-2.82-10.68-4.35-16.4-4.11-15.49-8.65-32.41-12.6-47.13-5.93-22.06-10.56-33.43-10.56-33.43H124.9S163.32,288,164.85,309.93C166.18,329.09,158.33,437.11,158.33,437.11Z" style="fill:#263238"></path><path d="M155.89,428c-8.42-.17-6-.24-14.43-.32-4.12,0-31.2-.26-35.06.36a.09.09,0,0,0,0,.17c3.86.61,30.94.38,35.06.34,8.42-.08,6-.15,14.43-.32A.12.12,0,0,0,155.89,428Z" style="fill:#37474f"></path><path d="M124.2,302.87c-1.81-7.71-4.51-15.25-6.86-22.82Q110.16,257,102.9,234c-2.41-7.67-13.62-36.38-14.73-40.2-.45-1.55-.7-.7-.12,1.27,1.16,4,20.32,60.9,25.16,76.49q3.65,11.73,7.31,23.45a93.35,93.35,0,0,1,3,11.35,50.25,50.25,0,0,1,.49,12.13c-.53,8.16-1.5,16.3-2.28,24.43s-1.56,16.3-2.33,24.46q-2.32,24.33-4.61,48.67c-.19,2-.38,4.11-.54,6.17-.06.69,1,.64,1.1,0,1.81-16,3.2-32.13,4.75-48.2s3.1-32,4.64-48c.39-4,.83-8,.83-12.07A48.2,48.2,0,0,0,124.2,302.87Z" style="fill:#37474f"></path><path d="M119.6,181.67c-3.24,24.26-9.42,64-13.92,97-10.55-40-27.51-97-27.51-97Z" style="fill:#37474f"></path><path d="M132.94,464.45c-2.68.85-79.24.18-82.14-1.64-1.11-.67-1.66-11.46-1.94-24.51v-.41c-.07-2.69-.11-5.46-.13-8.27,0-.38,0-.77,0-1.16-.18-18.84,1.22-38.38,1.22-38.38l50.05.3-1.39,38,0,1.51-.28,7.87,0,.81s29.19,12.93,32.16,15.25S135.63,463.62,132.94,464.45Z" style="fill:#d3766a"></path><path d="M132.94,464.45c-2.68.85-79.24.18-82.14-1.64-1.11-.67-1.66-11.46-1.94-24.51v-.41c-.07-2.69-.11-5.46-.13-8.27,0-.38,0-.77,0-1.16l49.88,0,0,1.51-.28,7.87,0,.81s29.19,12.93,32.16,15.25S135.63,463.62,132.94,464.45Z" style="fill:#ebebeb"></path><path d="M132.94,464.45c-2.68.85-79.24.18-82.14-1.64-1.11-.67-1.66-11.46-1.94-24.51v-.41l49.4-.1,0,.81s29.19,12.93,32.16,15.25S135.63,463.62,132.94,464.45Z" style="fill:#FFC727"></path><path d="M132.94,464.45c-2.68.85-79.24.18-82.14-1.64-1.11-.67-1.66-11.46-1.94-24.51v-.41l49.4-.1,0,.81s29.19,12.93,32.16,15.25S135.63,463.62,132.94,464.45Z" style="opacity:0.30000000000000004"></path><path d="M132.1,461.58c-12.9-.42-65-.94-77.77-.41-.11,0-.11.08,0,.08,12.78.69,64.86.8,77.77.53C132.37,461.78,132.38,461.59,132.1,461.58Z" style="fill:#263238"></path><path d="M103.76,438c-5.07-1-11.29-.27-15.21,3.2-.15.13,0,.34.22.29a73.52,73.52,0,0,1,15-2.87A.31.31,0,0,0,103.76,438Z" style="fill:#263238"></path><path d="M107.4,440.14c-5.07-1-11.29-.26-15.2,3.2-.15.14,0,.34.21.3a73.08,73.08,0,0,1,15-2.88A.31.31,0,0,0,107.4,440.14Z" style="fill:#263238"></path><path d="M111.05,442.31c-5.07-1-11.29-.26-15.21,3.2-.15.14,0,.34.22.29a73.52,73.52,0,0,1,15-2.87A.31.31,0,0,0,111.05,442.31Z" style="fill:#263238"></path><path d="M124.58,181.67a169.35,169.35,0,0,1-6.18,33c-.41,1.42-.86,2.81-1.34,4.15,0,0-4.13,1.87-12.27,6.69,0,0-.53,17.39-1.07,36.78-.59,21.67-1.21,45.85-1.08,51,.48,19.19-2.45,124.68-2.45,124.68l-55.13.23S55,320.32,54.93,313.29c-.11-11.3,2.66-61.23,4.79-97.65,1.31-22.43,2.38-34,2.38-34Z" style="fill:#263238"></path><path d="M98.3,428.42c-8.42-.13-6-.21-14.43-.25-4.12,0-31.2-.13-35.05.5-.09,0-.09.16,0,.17,3.85.6,30.94.25,35.06.2,8.42-.12,6-.17,14.42-.38A.12.12,0,1,0,98.3,428.42Z" style="fill:#37474f"></path><path d="M66.73,189.4c-1,29.73-2.07,53.69-3.44,83.4s-3.23,59.62-5.8,89.36c-1.44,16.62-2.79,40-4.64,56.57,0,.11.16.15.17,0,4-29.49,6.24-65.95,8.21-95.63s3.3-59.38,4.34-89.1c.58-16.8,1-27.85,1.55-44.66C67.13,189.14,66.74,189.16,66.73,189.4Z" style="fill:#37474f"></path><path d="M68.85,208.72c1.36-.34,2.81-.45,4.2-.66,1.11-.17,2.23-.36,3.33-.6a14.65,14.65,0,0,0,5.89-2.39c2.75-2.08,5.9-12.6,6.29-13.27.66-1.15.86-.14.86,0,0,1.22-2.89,10.43-4,12.15-2,3.15-5.71,4.42-9.36,4.86-1,.13-2.11.2-3.16.26a24.17,24.17,0,0,1-4,0C68.7,209.05,68.64,208.77,68.85,208.72Z" style="fill:#37474f"></path><path d="M116.89,219a100.29,100.29,0,0,0-15.53,7,.17.17,0,0,0,.14.31c5.23-2.17,10.57-4.25,15.67-6.7A.33.33,0,0,0,116.89,219Z" style="fill:#37474f"></path><path d="M118.46,184.4c0-.18-.33-.22-.33,0a161.81,161.81,0,0,1-.88,16.89c-.24,2.61-2.41,17-7.08,16-.78-.18-1.18-.92-1.3-2.06a17.26,17.26,0,0,1,.62-4.42c.52-3,.93-6,1.2-9.07a80.13,80.13,0,0,0-.19-17,.15.15,0,0,0-.3,0,152.66,152.66,0,0,1-1.42,23.5c-.59,3.74-2.54,9.38,1.51,9.95s6.79-8.85,7.3-11.43A83.51,83.51,0,0,0,118.46,184.4Z" style="fill:#37474f"></path><path d="M110.29,217.59a24.66,24.66,0,0,0-1.05,3,6.46,6.46,0,0,0-.43,2.45c0,.16.23.17.32.07a8.63,8.63,0,0,0,1.09-2.39c.35-.92.73-1.84,1.06-2.77C111.49,217.32,110.56,217,110.29,217.59Z" style="fill:#37474f"></path><path d="M163.56,391.5s-7.11,0-22.21-.05c-2.88-1.5-9.75-67.28-9.75-67.28s-6.73,67.25-10.11,67.25c-31.36,0-71.19-.06-78.84.08-3.11.06,16.86-190.27,17.73-198,1-9.16,4.43-38.86,29.1-74.09,5.52-7.88,18.1-6.06,22.09-.06,9.17,13.8,13.64,62.29,15.62,67.39,0,.08,34.32,93.08,39.6,130.12C168.09,325.94,164.68,391.44,163.56,391.5Z" style="fill:#FFC727"></path><g style="opacity:0.1"><path d="M164.18,387.62c-.24,2.45-.45,3.87-.62,3.88,0,0-7.11,0-22.21-.05-2.88-1.5-9.75-67.28-9.75-67.28s-6.73,67.25-10.11,67.25c-31.36,0-71.19-.06-78.84.08-.27,0-.36-1.39-.32-3.95,23,0,58.41,0,76.72,0,2.14-7.63,5.9-37.07,8.57-63.76l8,0c2.78,26.64,6.51,55.9,8.48,63.81Z"></path></g><path d="M135.58,323.78l-8,0c0-6.25-6.12-54.55-10.94-90.09-3.48-25.7-5.63-41.59-5.78-44.24-.37-6.23-5.55-68.32-5.6-68.95l7-.54c.21,2.56,5.23,62.8,5.61,69.1.15,2.54,2.74,21.64,5.73,43.75C128.74,270.55,135.58,317.09,135.58,323.78Z" style="opacity:0.1"></path><path d="M82.61,130c-16.1,30.15-22.19,56.83-9.44,64,8.48,4.73,17.43-22.61,17.65-23.18a143.65,143.65,0,0,0,7.62-38.58C99.62,110.11,89.81,116.52,82.61,130Z" style="fill:#d3766a"></path><path d="M82.61,130c-16.1,30.15-22.19,56.83-9.44,64,8.48,4.73,19.18-17.08,19.4-17.66.75-2,4.8-24,5.87-44.1C99.62,110.11,89.81,116.52,82.61,130Z" style="fill:#FFC727"></path><path d="M98.28,134.72C97.13,148,96,161.44,93,174.51c2.16-12.56,3.51-27.14,5.24-39.79Z" style="fill:#263238"></path><path d="M99.32,136.84a12.33,12.33,0,0,1-1.83,5.35,51.86,51.86,0,0,0,1.83-5.35Z" style="fill:#263238"></path><path d="M76,192.66c7.8,3.47,30-4.54,49.38-17.47,3.69-2.47-9.85-28.21-13.92-25.76C100.64,156,78.77,166.15,72.38,176,67.41,183.57,70.62,190.26,76,192.66Z" style="fill:#d3766a"></path><path d="M129.55,149.44c-1.89-.18-1.8-1.14,1-2.89s15.58-6.34,13.55-10.51-19.93,2.58-24.41,5.84-10.57,10.06-10.57,10.06C112.91,151.3,122.16,150.59,129.55,149.44Z" style="fill:#d3766a"></path><path d="M117,178c10.51-2.16,23.72-4.24,32.65-12.16a5.7,5.7,0,0,0,2-3.29c4.07-3.48,3.59-6.39,3.59-6.39,2.76-4.36,1.85-7.26,1.85-7.26s4.73-4.14,2.62-7.31c-2.36-3.58-8.54,2.93-14.2,4.5-13,3.6-32.47,5.2-36.32,5.88Z" style="fill:#d3766a"></path><path d="M134.61,159.06a87.82,87.82,0,0,0,11.17-3.77,87.19,87.19,0,0,0,11.12-6.45.11.11,0,0,1,.13.17,46.57,46.57,0,0,1-22.37,10.22C134.47,159.26,134.42,159.12,134.61,159.06Z" style="fill:#263238"></path><path d="M135.71,167c3.63-1.3,10-3.62,19.41-10.91a0,0,0,0,1,0,.05,41.68,41.68,0,0,1-19.39,11C135.54,167.18,135.47,167,135.71,167Z" style="fill:#263238"></path><path d="M136.39,171.18c6.09-2.44,9.61-4.72,15.18-8.67,0,0,.08,0,.05.05-5.85,5.13-8.57,6.36-15.17,8.83C136.22,171.48,136.15,171.27,136.39,171.18Z" style="fill:#263238"></path><path d="M110.69,183.81c4-2.38,8.35-4.58,12.29-7.05a85.91,85.91,0,0,1-12.29,7.05Z" style="fill:#263238"></path><path d="M102.64,146.79l10.7,38s-32.76,13.92-38.7,9.54-10-12.59.35-26.73C77.59,164,102.64,146.79,102.64,146.79Z" style="fill:#FFC727"></path><path d="M96.23,155.57c.56,1.81,1,3.66,1.41,5.5s.88,3.67,1.29,5.52c.81,3.69,1.61,7.38,2.35,11.08.2,1,.4,2,.59,3s.25,2.2.46,3.29c0,.08-.12.11-.14,0-.21-.9-.56-1.77-.8-2.67s-.47-1.87-.68-2.81q-.64-2.76-1.26-5.53c-.82-3.68-1.62-7.38-2.31-11.09-.39-2.09-.85-4.2-1.11-6.31A.1.1,0,0,1,96.23,155.57Z" style="fill:#263238"></path><path d="M104.5,153.41l-1.86-6.62c-4.9,4.22-22.59,16.15-26.18,19.79a36.15,36.15,0,0,0-6.08,8.83,33,33,0,0,1,5.4-9.38c4.1-4.48,24.38-17.9,27.09-19.78Z" style="fill:#263238"></path><path d="M112.78,182.69s.59,2.06.59,2.08A178.27,178.27,0,0,1,92,192.7c-13.37,3.86-23.59,5.45-25.63-11.65-.31-3.8-.53-7.69.53-11.39A171.49,171.49,0,0,1,74.6,148.2c-1.4,3.53-2.74,7.09-4,10.68-1.72,5.36-4.13,10.75-4.12,16.45,0,5.52.42,11.67,4.11,16.08,2.46,3.05,6.42,3.79,10.16,3.28,7.53-.85,14.81-3.34,21.94-5.85,3.55-1.26,7.22-2.71,10.62-4.08l-.54-2.07Z" style="fill:#263238"></path><path d="M109.84,126.71c-4,.75-11.5-6-14-10.89-.17-.34.51-3.78,1.13-8,.36-2.57.71-5.43.82-8.06l16.9,4.73a41.07,41.07,0,0,0-2.1,10,5.55,5.55,0,0,0,.07,1.09c0,.05,0,.11,0,.18C112.93,117.87,113.75,126,109.84,126.71Z" style="fill:#d3766a"></path><path d="M112.65,115.63s0,.1,0,.17a11.26,11.26,0,0,1-1.76,0c-9.87-.64-11.67-12.43-12-15.74l4.22,1.18,11.53,3.24a40.43,40.43,0,0,0-2.1,10A6.4,6.4,0,0,0,112.65,115.63Z" style="fill:#263238"></path><path d="M95.81,80.84c-1.94,5.83,1,22.8,5.25,26.64,6.16,5.56,16.38,6.24,21.31-1,4.77-7,.54-29-4.22-32.52C111.14,68.85,98.68,72.23,95.81,80.84Z" style="fill:#d3766a"></path><path d="M112.42,91.28s-.08.07-.07.12c.2,1.14.24,2.48-.78,3,0,0,0,.07,0,.06C112.87,94.12,112.81,92.34,112.42,91.28Z" style="fill:#263238"></path><path d="M111.19,90.23c-1.93.12-1.54,3.84.25,3.73S112.81,90.13,111.19,90.23Z" style="fill:#263238"></path><path d="M119.17,90.41s.1,0,.1.09c.09,1.16.38,2.47,1.5,2.75,0,0,0,.07,0,.06C119.43,93.26,119.06,91.52,119.17,90.41Z" style="fill:#263238"></path><path d="M120.11,89.1c1.91-.33,2.44,3.38.68,3.68S118.51,89.38,120.11,89.1Z" style="fill:#263238"></path><path d="M109.59,88.84c.53-.13,1-.33,1.5-.5a2.58,2.58,0,0,0,1.43-.8.77.77,0,0,0-.12-1,2.1,2.1,0,0,0-2.05-.21,3,3,0,0,0-1.72,1.24C108.2,88.23,108.9,89,109.59,88.84Z" style="fill:#263238"></path><path d="M121.43,86.93c-.54,0-1-.15-1.57-.24a2.57,2.57,0,0,1-1.55-.53.78.78,0,0,1-.06-1,2.08,2.08,0,0,1,2-.56,3,3,0,0,1,1.93.92A.84.84,0,0,1,121.43,86.93Z" style="fill:#263238"></path><path d="M111.93,101.7c.32.24.64.59,1.08.58a3.29,3.29,0,0,0,1.25-.41s.08,0,.06,0a1.64,1.64,0,0,1-1.45.77,1.26,1.26,0,0,1-1.05-.92C111.8,101.7,111.89,101.67,111.93,101.7Z" style="fill:#263238"></path><path d="M112.83,98.13a4.16,4.16,0,0,0,2.89,1.48,5.21,5.21,0,0,0,1.47-.08,1.07,1.07,0,0,0,.27-.06,1.22,1.22,0,0,0,.26-.06.28.28,0,0,0,.21-.28h0a.5.5,0,0,0,0-.12h0v-.1c-.07-.89-.3-2.23-.3-2.23.35.13,2.14.71,2.06.25a57.09,57.09,0,0,0-2.81-11.73.11.11,0,0,0-.22,0c.47,3.69,1.6,7.28,2.12,11a7.42,7.42,0,0,0-2-.38c-.13,0,.49,2.59.49,3a.1.1,0,0,1,0,0,5.74,5.74,0,0,1-4.33-.85C112.83,98,112.75,98,112.83,98.13Z" style="fill:#263238"></path><path d="M116.66,99.31a4.68,4.68,0,0,1-1.81,1.56,2.2,2.2,0,0,1-1.3.17c-1-.17-1-1-.92-1.74a4.61,4.61,0,0,1,.34-1.12A6.34,6.34,0,0,0,116.66,99.31Z" style="fill:#263238"></path><path d="M114.85,100.87a2.2,2.2,0,0,1-1.3.17c-1-.17-1-1-.92-1.74A2.23,2.23,0,0,1,114.85,100.87Z" style="fill:#ff98b9"></path><path d="M121.88,80.67c-.78-1.47-2.12-3.25-3.08-3.5s-.89,2.58-3,2.84c-2.89.37-4.87-3.15-9.43-2.09-2.75.64-5.36,2.49-3.79,11.61,1.22,7-5.92,9-5.92,9s-4.51-15.65-.26-21.13,13.84-8.56,21.22-4C120.28,75,121.88,80.67,121.88,80.67Z" style="fill:#263238"></path><path d="M101.06,96s-4-5.46-6.55-4.08S95,101.25,98,102.33a3.09,3.09,0,0,0,4.1-1.62Z" style="fill:#d3766a"></path><path d="M95.43,94.21s-.05.06,0,.08c2.12.81,3.24,2.7,4,4.67a1.73,1.73,0,0,0-2.54-.44s0,.12.06.11a1.93,1.93,0,0,1,2.08.63,7.94,7.94,0,0,1,1,1.62c.1.18.45.08.37-.13l0,0C100.45,98.09,98.33,94.46,95.43,94.21Z" style="fill:#263238"></path><path d="M94.74,91.28s7.19-7.51,15.17-9.84,12-1.44,12-1.44-4.58-15.35-19.79-9.74C90.14,74.66,94.74,91.28,94.74,91.28Z" style="fill:#FFC727"></path><path d="M94.9,87.22a28.45,28.45,0,0,1,17.85-9.93,21.14,21.14,0,0,1,6.92.3h-2.58l-.85.07c-8,.47-15.35,4.48-21.34,9.58Z" style="opacity:0.1"></path><path d="M109.83,126.11s-1.2-6.59-1.73-7.36S96.64,110,96,110.17s-1.69,5.3-1,6.3,8.48,11.5,15.1,10.84c3.52-.35,3.24-9.4,3.19-9.77s-1.75,1.33-1.94,1.87S109.83,126.11,109.83,126.11Z" style="fill:#FFC727"></path><path d="M109.83,126.11s-1.2-6.59-1.73-7.36S96.64,110,96,110.17s-1.69,5.3-1,6.3,8.48,11.5,15.1,10.84c3.52-.35,3.24-9.4,3.19-9.77s-1.75,1.33-1.94,1.87S109.83,126.11,109.83,126.11Z" style="opacity:0.1"></path></g><g id="freepik--Podium--inject-178"><polygon points="191.25 204.74 89.57 204.74 39.79 235.45 39.79 464.08 191.25 464.08 191.25 204.74" style="fill:#FFC727"></polygon><polygon points="191.25 204.74 89.57 204.74 39.79 235.45 39.79 464.08 191.25 464.08 191.25 204.74" style="opacity:0.5"></polygon><rect x="89.57" y="204.74" width="101.68" height="259.34" style="opacity:0.1"></rect><polygon points="196.81 197 196.81 204.75 89.53 204.75 34.56 238.66 34.56 229.03 86.46 197 196.81 197" style="fill:#FFC727"></polygon><polygon points="196.81 197 196.81 204.75 89.53 204.75 34.56 238.66 34.56 229.03 86.46 197 196.81 197" style="opacity:0.5"></polygon><polygon points="39.79 235.45 89.53 204.75 89.53 210.66 39.79 237.15 39.79 235.45" style="opacity:0.1"></polygon><polygon points="89.53 210.66 89.53 204.75 191.25 204.74 191.25 206.92 89.53 210.66" style="opacity:0.1"></polygon><rect x="158.09" y="193.04" width="26.98" height="3.96" style="fill:#263238"></rect><path d="M144.72,138.16c2.81-3.85,12.41.57,9.37,4.74S142.21,141.61,144.72,138.16Z" style="fill:#263238"></path><path d="M172.58,193h-2v-36c0-3.45-2.28-6.66-6-8.38l-13.38-6.25.85-1.81,13.37,6.25c4.39,2.05,7.11,6,7.11,10.19Z" style="fill:#263238"></path></g><g id="freepik--character-3--inject-178"><path d="M480.32,458.56c-1.39-1.84-54.73-38-57.56-38.07-.33,0-8.22,10.94-8.22,10.94l-20.83-3.7,2.46,37h45.27s30.84.08,32,0C476.57,464.51,481.73,460.4,480.32,458.56Z" style="fill:#eb9481"></path><g style="opacity:0.1"><path d="M480.32,458.56c-1.39-1.84-54.73-38-57.56-38.07-.33,0-8.22,10.94-8.22,10.94l-20.83-3.7,2.46,37h45.27s30.84.08,32,0C476.57,464.51,481.73,460.4,480.32,458.56Z"></path></g><path d="M342.94,400l15,65.61s-27.92-.77-59.47-.77c-35.5,0-28-34.11-4.91-46.11C312.74,408.67,339.21,400.29,342.94,400Z" style="fill:#263238"></path><path d="M399.12,461.49c-9.84,4.33-26.13,4-28.58,4.06-2.45.26-20.63.49-31-2.32-13-3.54-21.09-14.4-18.21-34.18,2.47-16.89,13.73-33.11,13.73-33.11l67.24-3.6s9.95,23.69,12.5,40.56C416.35,443.18,417,453.65,399.12,461.49Z" style="fill:#263238"></path><path d="M330,404.81c-4.74,8.47-9.25,17.12-11.53,26.62.93-9.81,5.63-18.89,11.53-26.62Z" style="fill:#263238"></path><path d="M460.38,458.56c-1.39-1.84-54.73-38-57.56-38.07-.33,0-8.22,10.94-8.22,10.94l-20.83-3.7,2.46,37H421.5s30.84.08,32,0C456.63,464.51,461.79,460.4,460.38,458.56Z" style="fill:#eb9481"></path><path d="M373.77,427.73c-12-2.72-24.39-3.66-36.62-5.09-9.17-1.21-18.42.16-27.6.71l-9.23.73c10.71-1.43,21.48-2.93,32.31-2.85,7.71.63,15.35,1.66,23,2.75,6.09,1,12.24,1.87,18.14,3.75Z" style="fill:#37474f"></path><path d="M375.1,319.19c4.29.09,8.14-6.77,8.27-12.28,0-.4-1.2-3.92-2.6-8.29-.84-2.66-1.71-5.64-2.31-8.41l-16.49,8a45.57,45.57,0,0,1,4,10.3,5.94,5.94,0,0,1,.12,1.16,1.54,1.54,0,0,0,0,.19C366.2,312.07,371,319.11,375.1,319.19Z" style="fill:#eb9481"></path><path d="M377.8,264c4,6.78,5.3,25.8,1.22,31.74-5.93,8.62-18.12,12.19-26.07,4.5-7.7-7.45-9.09-31.52-4.29-37.18C355.72,254.73,371.94,254,377.8,264Z" style="fill:#eb9481"></path><path d="M379,295.74c-2.41,2.11-14.08-1-15.36-2.84s-.71-8.86-.92-11.69-3.51-2.63-4.26-2c-4.71,4.13-3.68,11.44-4.47,10.36s-3.31-4.37-4-7,2.11-11.63,1.41-13.69-3.31.08-5.3.21c0,0,1.86-16.22,23-12.13C383.11,259.71,384.27,291.13,379,295.74Z" style="fill:#263238"></path><path d="M347.05,264.69l17.37,7.41a150.14,150.14,0,0,0,17.2,6.19s2.08-19-11.93-23.26C354.41,250.36,347.05,264.69,347.05,264.69Z" style="fill:#FFC727"></path><path d="M350.75,262.05c7.93,3.23,19.95,8.28,28,11.56a111.82,111.82,0,0,1-28-11.56Z" style="opacity:0.1"></path><path d="M355.1,285.47s2.93-7.61,6.28-6.72,2.26,11.14-.88,13.28a3.63,3.63,0,0,1-5.18-.72Z" style="fill:#eb9481"></path><path d="M361,281.68c.05,0,.08.05,0,.09-2.18,1.58-2.9,4.14-3.22,6.69a2,2,0,0,1,2.77-1.25c.08,0,0,.15,0,.15a2.23,2.23,0,0,0-2.2,1.34,11.25,11.25,0,0,0-.66,2.21c-.06.25-.48.23-.46,0v-.07C356.42,287.73,357.75,282.81,361,281.68Z" style="fill:#263238"></path><path d="M407.21,394.61l6.05,24.83s-22.2,2.35-35.94,2.22c-16.89-.17-76.47-6.84-76.47-6.84,17.51-10.42,27.45-13.11,27.45-13.11s18.22-73.79,37.63-94.23c8.93-9.41,19.72-5.09,24,3.24C403.43,337.06,407.21,394.61,407.21,394.61Z" style="fill:#FFC727"></path><g style="opacity:0.5"><path d="M407.21,394.61l6.05,24.83s-22.2,2.35-35.94,2.22c-16.89-.17-76.47-6.84-76.47-6.84,17.51-10.42,27.45-13.11,27.45-13.11s18.22-73.79,37.63-94.23c8.93-9.41,19.72-5.09,24,3.24C403.43,337.06,407.21,394.61,407.21,394.61Z" style="fill:#fff"></path></g><path d="M372.27,322.18c1.13,22.53-1.72,59.45-6.46,66-4.18,5.78-30.4,16.2-40.35,18.63-4.6,1.12-17.71-25.34-13.12-27.48,5.75-2.67,31.78-14.07,32.63-15.42s6.27-27.33,13.4-43.75C364.83,305.24,371.84,313.66,372.27,322.18Z" style="fill:#eb9481"></path><path d="M322.13,376.5s-12.36,1-18.7,3.49c-8.48,3.37-14.42,9.78-16.74,12.62-4.86,5.91-12.5,23.58-7.8,26.67,4.26,2.79,11.16-15.66,11.16-15.66s-10.14,17.65-4.39,20.08,12.54-19.45,12.54-19.45-10,18.37-3.7,19.93c4.78,1.18,12.05-18.28,12.05-18.28s-8.5,15.85-3.64,17.27c5.37,1.58,13.21-16,13.21-16,13,1.55,19.79-3.3,24.24-7.12C341.44,399.15,322.13,376.5,322.13,376.5Z" style="fill:#eb9481"></path><path d="M293.17,397.29c-1.27,2-2.56,4.08-3.64,6.22s-2.09,4.31-3,6.54a40.57,40.57,0,0,0-2.59,9c1.32-5.41,5.07-13.12,6.15-15.26s2.05-4.31,3.13-6.45C293.28,397.28,293.2,397.25,293.17,397.29Z" style="fill:#263238"></path><path d="M301,401.06c-1.5,2.66-3.09,5.25-4.48,8s-2.46,5.41-3.64,8.22c-.1.21.05.19.15,0,1.3-2.76,2.72-5.2,4-7.94s2.56-5.53,4-8.21C301,401.05,301,401,301,401.06Z" style="fill:#263238"></path><path d="M308.21,403.09a68.2,68.2,0,0,0-5.92,12.73c-.08.21.1.16.2-.05,1.89-4.27,3.34-7.63,5.86-12.59C308.39,403.1,308.27,403,308.21,403.09Z" style="fill:#263238"></path><path d="M326.36,410.1l-10.28-36.43,24.59-10c4.73-12.83,14.18-38.47,18.78-46.85,5.4-9.82,12.57-6.72,13.56,4.66,2.26,26-1.07,61.86-4.71,67.28C362.72,397.05,326.36,410.1,326.36,410.1Z" style="fill:#FFC727"></path><path d="M326.36,410.1l-10.28-36.43,24.59-10c4.73-12.83,14.18-38.47,18.78-46.85,5.4-9.82,12.57-6.72,13.56,4.66,2.26,26-1.07,61.86-4.71,67.28C362.72,397.05,326.36,410.1,326.36,410.1Z" style="fill:#fff;opacity:0.5"></path><path d="M332.8,404c-.21-2.45-2.74-12.28-3.4-14.72s-3.64-12.14-4.32-14.65c0-.14-.25-.12-.21,0,.63,2.49,6.77,27.12,7.8,29.38C332.71,404.09,332.81,404.06,332.8,404Z" style="fill:#263238"></path><path d="M373.48,334.09c.24,8.56.23,17.13-.13,25.68s-.86,17.2-3.16,25.52c-1,4.45-4.85,7.23-8.52,9.45-11.07,6.57-23.2,11.14-35.29,15.41l-.06,0v-.05l-1-3.75,1.1,3.72-.07,0c8-3,15.94-6.25,23.66-9.9a111.86,111.86,0,0,0,11.3-6c3.56-2.19,7.2-4.79,8.18-9.08,2.33-8.18,2.72-16.85,3.31-25.32s.68-17.1.69-25.66Z" style="fill:#263238"></path><path d="M373.7,340.51a27.38,27.38,0,0,1,.49-4.13,12.52,12.52,0,0,1-.49,4.13Z" style="fill:#263238"></path></g><g id="freepik--character-2--inject-178"><path d="M380.46,458.56c-1.39-1.84-54.73-38-57.56-38.07-.33,0-8.22,10.94-8.22,10.94l-20.84-3.7,2.47,37h45.27s30.84.08,32,0C376.71,464.51,381.86,460.4,380.46,458.56Z" style="fill:#c95f50"></path><g style="opacity:0.1"><path d="M380.46,458.56c-1.39-1.84-54.73-38-57.56-38.07-.33,0-8.22,10.94-8.22,10.94l-20.84-3.7,2.47,37h45.27s30.84.08,32,0C376.71,464.51,381.86,460.4,380.46,458.56Z"></path></g><path d="M243.08,400,258,465.56s-27.91-.77-59.47-.77c-35.49,0-28-34.11-4.91-46.11C212.88,408.67,239.35,400.29,243.08,400Z" style="fill:#37474f"></path><path d="M299.26,461.49c-9.84,4.33-26.13,4-28.58,4.06-2.45.26-20.63.49-31-2.32-13-3.54-21.1-14.4-18.21-34.18,2.47-16.89,13.73-33.11,13.73-33.11l67.23-3.6s10,23.69,12.51,40.56C316.49,443.18,317.16,453.65,299.26,461.49Z" style="fill:#37474f"></path><path d="M230.12,404.81c-4.74,8.47-9.25,17.12-11.53,26.62.93-9.81,5.62-18.89,11.53-26.62Z" style="fill:#263238"></path><path d="M360.52,458.56c-1.39-1.84-54.73-38-57.56-38.07-.33,0-8.22,10.94-8.22,10.94l-20.84-3.7,2.47,37h45.27s30.84.08,32,0C356.77,464.51,361.92,460.4,360.52,458.56Z" style="fill:#c95f50"></path><path d="M273.9,427.73c-12-2.72-24.38-3.66-36.61-5.09-9.17-1.21-18.42.16-27.61.71l-9.22.73c10.71-1.43,21.47-2.93,32.31-2.85,7.71.63,15.34,1.66,23,2.75,6.09,1,12.24,1.87,18.13,3.75Z" style="fill:#263238"></path><path d="M274.14,319.19c4.29.09,8.14-6.77,8.27-12.28,0-.4-1.21-3.92-2.6-8.29-.84-2.66-1.71-5.64-2.31-8.41l-16.49,8a45.25,45.25,0,0,1,4,10.3,5.29,5.29,0,0,1,.13,1.16,1.54,1.54,0,0,0,0,.19C265.24,312.07,270,319.11,274.14,319.19Z" style="fill:#c95f50"></path><path d="M276.84,264c4,6.78,5.3,25.8,1.22,31.74-5.93,8.62-18.12,12.19-26.07,4.5-7.7-7.45-9.09-31.52-4.29-37.18C254.76,254.73,271,254,276.84,264Z" style="fill:#c95f50"></path><path d="M275,260.52s5.26,3.54,6.39,6,3,12.7.15,20.14c-1,2.69.19,7.53-2,9.82S264,294.73,262.7,292.9s-.71-8.86-.92-11.69-3.51-2.63-4.26-2c-4.71,4.13-3.68,11.44-4.47,10.36s-3.32-4.37-4-7,2.11-11.63,1.41-13.69-3.31.08-5.3.21c-1.22.07-2.58-7.08-1.27-8.7s4.92-1.79,6.36-2.24,2.81-2.75,6.72-3.77,9.12.07,11.2.36C271.44,255.26,275,260.52,275,260.52Z" style="fill:#263238"></path><path d="M254.14,285.47s2.93-7.61,6.28-6.72,2.26,11.14-.88,13.28a3.63,3.63,0,0,1-5.18-.72Z" style="fill:#c95f50"></path><path d="M260,281.68s.08.05,0,.09c-2.18,1.58-2.9,4.14-3.22,6.69a2,2,0,0,1,2.77-1.25c.08,0,0,.15,0,.15a2.23,2.23,0,0,0-2.2,1.34,11.25,11.25,0,0,0-.66,2.21c-.06.25-.48.23-.46,0v-.07C255.46,287.73,256.79,282.81,260,281.68Z" style="fill:#263238"></path><path d="M307.35,394.61l6,24.83s-22.2,2.35-35.95,2.22c-16.89-.17-76.46-6.84-76.46-6.84,17.51-10.42,27.45-13.11,27.45-13.11s18.22-73.79,37.63-94.23c8.93-9.41,19.72-5.09,24,3.24C303.57,337.06,307.35,394.61,307.35,394.61Z" style="fill:#263238"></path><path d="M272.41,322.18c1.13,22.53-1.73,59.45-6.46,66-4.19,5.78-30.4,16.2-40.36,18.63-4.59,1.12-17.7-25.34-13.11-27.48,5.75-2.67,31.78-14.07,32.63-15.42s6.27-27.33,13.4-43.75C265,305.24,272,313.66,272.41,322.18Z" style="fill:#c95f50"></path><path d="M222.27,376.5s-12.36,1-18.7,3.49c-8.48,3.37-14.42,9.78-16.74,12.62-4.86,5.91-12.5,23.58-7.8,26.67,4.26,2.79,11.16-15.66,11.16-15.66s-10.14,17.65-4.4,20.08,12.54-19.45,12.54-19.45-10,18.37-3.69,19.93c4.78,1.18,12.05-18.28,12.05-18.28s-8.5,15.85-3.64,17.27c5.37,1.58,13.21-16,13.21-16,13,1.55,19.78-3.3,24.24-7.12C241.58,399.15,222.27,376.5,222.27,376.5Z" style="fill:#c95f50"></path><path d="M193.31,397.29c-1.27,2-2.57,4.08-3.65,6.22s-2.09,4.31-3,6.54a39.87,39.87,0,0,0-2.59,9c1.31-5.41,5.07-13.12,6.15-15.26s2.05-4.31,3.13-6.45C193.42,397.28,193.34,397.25,193.31,397.29Z" style="fill:#263238"></path><path d="M201.09,401.06c-1.51,2.66-3.1,5.25-4.48,8s-2.46,5.41-3.65,8.22c-.09.21.06.19.16,0,1.3-2.76,2.71-5.2,4-7.94s2.56-5.53,4-8.21C201.18,401.05,201.11,401,201.09,401.06Z" style="fill:#263238"></path><path d="M208.35,403.09a68.2,68.2,0,0,0-5.92,12.73c-.08.21.1.16.2-.05,1.89-4.27,3.34-7.63,5.86-12.59C208.53,403.1,208.4,403,208.35,403.09Z" style="fill:#263238"></path><path d="M226.5,410.1l-10.28-36.43,24.59-10c4.73-12.83,14.18-38.47,18.78-46.85,5.4-9.82,12.57-6.72,13.56,4.66,2.26,26-1.07,61.86-4.71,67.28C262.86,397.05,226.5,410.1,226.5,410.1Z" style="fill:#455a64"></path><path d="M232.94,404c-.21-2.45-2.75-12.28-3.41-14.72s-3.63-12.14-4.32-14.65c0-.14-.24-.12-.2,0,.63,2.49,6.77,27.12,7.8,29.38C232.85,404.09,233,404.06,232.94,404Z" style="fill:#263238"></path><path d="M273.62,334.09c.24,8.56.23,17.13-.13,25.68s-.86,17.2-3.16,25.52c-1,4.45-4.86,7.23-8.52,9.45-11.08,6.57-23.2,11.14-35.3,15.41l0,0v-.05l-1-3.75,1.11,3.72-.07,0c8-3,15.94-6.25,23.66-9.9a111.86,111.86,0,0,0,11.3-6c3.56-2.19,7.19-4.79,8.18-9.08,2.33-8.18,2.72-16.85,3.31-25.32s.68-17.1.69-25.66Z" style="fill:#263238"></path><path d="M273.66,340.51a38.57,38.57,0,0,1,.66-4.13,11.39,11.39,0,0,1-.66,4.13Z" style="fill:#263238"></path></g><g id="freepik--speech-bubble--inject-178"><polygon points="199.63 88.94 158.38 88.94 144.5 88.94 144.5 82.08 137.2 82.08 144.5 74.78 144.5 56.75 199.63 56.75 199.63 61.22 199.63 88.94" style="fill:#fff"></polygon><path d="M199.63,88.94c-.35,0-55.09.28-55.38.26v-.26l-.06-6.86.32.33-7.3,0h-.89l.63-.64,7.26-7.34-.13.3,0-18v-.48h.48c13.94,0,41.58,0,55.52.09-.07,8.22-.24,24.36-.39,32.58Zm0,0c-.16-8-.33-24.17-.4-32.19l.4.4c-13.75.05-41.39.08-55.13.08l.48-.48,0,18V75l-.13.12-7.33,7.26-.27-.63,7.3,0h.33v.32l-.07,6.86c-1.55-.7,55.17.21,54.87,0Z" style="fill:#263238"></path><path d="M181.32,72.84a2.45,2.45,0,1,1,2.44,2.45A2.44,2.44,0,0,1,181.32,72.84Z" style="fill:#263238"></path><path d="M169.13,72.84a2.44,2.44,0,1,1,2.44,2.45A2.44,2.44,0,0,1,169.13,72.84Z" style="fill:#263238"></path><path d="M156.93,72.84a2.45,2.45,0,1,1,2.45,2.45A2.45,2.45,0,0,1,156.93,72.84Z" style="fill:#263238"></path></g></svg>
