<svg xmlns="http://www.w3.org/2000/svg" viewBox="0 0 750 500"><g id="freepik--background-complete--inject-575"><path d="M167.38,52.46c43.42-.67,91.7-.65,135.16,0-43.47.64-91.73.66-135.16,0Z" style="fill:#ebebeb"></path><path d="M152.07,70.77c44.75-.66,94.49-.65,139.27,0-44.79.65-94.51.66-139.27,0Z" style="fill:#ebebeb"></path><path d="M181.37,52.46a81.83,81.83,0,0,1,0,18.31,81.24,81.24,0,0,1,0-18.31Z" style="fill:#ebebeb"></path><path d="M249.54,52.46a81.83,81.83,0,0,1,0,18.31,81.24,81.24,0,0,1,0-18.31Z" style="fill:#ebebeb"></path><path d="M215.45,70.69a81.33,81.33,0,0,1,0,18.32,81.92,81.92,0,0,1,0-18.32Z" style="fill:#ebebeb"></path><path d="M104.63,317.05c43.43-.66,91.71-.65,135.16,0-43.46.65-91.72.66-135.16,0Z" style="fill:#ebebeb"></path><path d="M72.22,335.36c44.75-.66,94.49-.64,139.27,0-44.79.65-94.51.67-139.27,0Z" style="fill:#ebebeb"></path><path d="M560.38,298.86c27.91-.66,58.79-.66,86.71,0-27.92.66-58.8.66-86.71,0Z" style="fill:#ebebeb"></path><path d="M591.06,317.05c27.92-.66,58.8-.66,86.72,0-27.92.66-58.8.66-86.72,0Z" style="fill:#ebebeb"></path><path d="M139.57,317.05a81.83,81.83,0,0,1,0,18.31,81.24,81.24,0,0,1,0-18.31Z" style="fill:#ebebeb"></path><path d="M207.77,317.05a81.83,81.83,0,0,1,0,18.31,81.83,81.83,0,0,1,0-18.31Z" style="fill:#ebebeb"></path><path d="M602,317.05a81.24,81.24,0,0,1,0,18.31,81.83,81.83,0,0,1,0-18.31Z" style="fill:#ebebeb"></path><path d="M670.17,317.05a81.24,81.24,0,0,1,0,18.31,81.83,81.83,0,0,1,0-18.31Z" style="fill:#ebebeb"></path><path d="M105.45,335.29a81.24,81.24,0,0,1,0,18.31,81.83,81.83,0,0,1,0-18.31Z" style="fill:#ebebeb"></path><path d="M173.77,335.29a81.83,81.83,0,0,1,0,18.31,81.24,81.24,0,0,1,0-18.31Z" style="fill:#ebebeb"></path><path d="M636.39,298.35a81.92,81.92,0,0,1,0,18.32,81.33,81.33,0,0,1,0-18.32Z" style="fill:#ebebeb"></path><path d="M436.38,159.75c44.75-.66,94.49-.65,139.27,0-44.79.65-94.51.67-139.27,0Z" style="fill:#ebebeb"></path><path d="M484.6,178.07c30.07-.67,63.5-.65,93.59,0-30.09.65-63.52.66-93.59,0Z" style="fill:#ebebeb"></path><path d="M533.85,141.44a81.24,81.24,0,0,1,0,18.31,81.83,81.83,0,0,1,0-18.31Z" style="fill:#ebebeb"></path><path d="M499.77,159.75a81.92,81.92,0,0,1,0,18.32,81.33,81.33,0,0,1,0-18.32Z" style="fill:#ebebeb"></path><path d="M567.94,159.75a81.92,81.92,0,0,1,0,18.32,81.33,81.33,0,0,1,0-18.32Z" style="fill:#ebebeb"></path><path d="M484.16,426.46c44.75-.66,94.49-.65,139.27,0-44.79.65-94.51.67-139.27,0Z" style="fill:#ebebeb"></path><path d="M484.6,408.15c30.07-.67,63.5-.65,93.59,0-30.09.64-63.52.66-93.59,0Z" style="fill:#ebebeb"></path><path d="M533.85,444.78a81.92,81.92,0,0,1,0-18.32,81.33,81.33,0,0,1,0,18.32Z" style="fill:#ebebeb"></path><path d="M499.77,426.46a81.24,81.24,0,0,1,0-18.31,81.83,81.83,0,0,1,0,18.31Z" style="fill:#ebebeb"></path><path d="M567.94,426.46a81.24,81.24,0,0,1,0-18.31,81.83,81.83,0,0,1,0,18.31Z" style="fill:#ebebeb"></path><path d="M89.35,231.08c19.26-.68,38.66-.68,57.93,0-19.27.67-38.67.67-57.93,0Z" style="fill:#ebebeb"></path><path d="M75.8,249.39c30.07-.66,63.5-.65,93.59,0-30.09.65-63.51.67-93.59,0Z" style="fill:#ebebeb"></path><path d="M105.48,212.76a81.33,81.33,0,0,1,0,18.32,81.92,81.92,0,0,1,0-18.32Z" style="fill:#ebebeb"></path><path d="M139.57,231.08a81.83,81.83,0,0,1,0,18.31,81.24,81.24,0,0,1,0-18.31Z" style="fill:#ebebeb"></path><path d="M552.49,0H371.42s36.21,43.33,93.43,43.33S552.49,0,552.49,0Z" style="fill:#ebebeb"></path><g style="opacity:0.2"><path d="M381.49,2.58c23.11,17.16,50.35,31.57,79.57,33,14.58.57,29-3.25,42.23-9.2A146.8,146.8,0,0,0,539.82,2.58a140.34,140.34,0,0,1-36.21,24.48c-16.52,7.77-35.35,11.61-53.53,8.4-25.31-4.34-48.62-17.12-68.59-32.88Z"></path><path d="M392.62,2.58a137.33,137.33,0,0,0,61.14,27.85c-2.53-.4-6-.76-8.41-1.32A112.21,112.21,0,0,1,392.62,2.58Z"></path><path d="M531.29,2.58c-21.68,18-51.57,28.59-79.63,22.15a87.75,87.75,0,0,0,10.58,1.16c24.86,1.23,49.34-8.6,69-23.31Z"></path><path d="M408.85,2.58C419.89,12.22,434,18,448.39,20.2a94.49,94.49,0,0,0,29.07-.71A116.11,116.11,0,0,0,518.11,3.55a107.11,107.11,0,0,1-29.74,14.23A100.45,100.45,0,0,1,463,22c-19.54.6-39.77-5.9-54.13-19.38Z"></path></g><path d="M197.51,0H378.58s-36.21,43.33-93.43,43.33S197.51,0,197.51,0Z" style="fill:#ebebeb"></path><g style="opacity:0.2"><path d="M368.51,2.58c-20,15.76-43.28,28.54-68.59,32.88-18.18,3.21-37-.63-53.53-8.4A140.34,140.34,0,0,1,210.18,2.58a146.8,146.8,0,0,0,36.53,23.78c13.22,6,27.65,9.77,42.23,9.2,29.22-1.41,56.45-15.82,79.57-33Z"></path><path d="M357.38,2.58a112.21,112.21,0,0,1-52.73,26.53c-2.44.56-5.91.93-8.41,1.32A137.33,137.33,0,0,0,357.38,2.58Z"></path><path d="M218.71,2.58c19.71,14.71,44.19,24.54,69,23.31a87.75,87.75,0,0,0,10.58-1.16c-28.06,6.44-57.95-4.14-79.63-22.15Z"></path><path d="M341.15,2.58C326.79,16.06,306.56,22.56,287,22a100.45,100.45,0,0,1-25.39-4.18A107.52,107.52,0,0,1,231.89,3.55a116.11,116.11,0,0,0,40.65,15.94,94.49,94.49,0,0,0,29.07.71c14.4-2.2,28.5-8,39.54-17.62Z"></path></g><path d="M220-.14H0S44,65.42,113.53,65.42,220-.14,220-.14Z" style="fill:#dbdbdb"></path><g style="opacity:0.2"><path d="M12.24,3.77C35.15,25.38,64.17,45.61,95.36,52.25c18.19,4,37.3.87,54.08-6.86,21.12-9.62,39.68-24.45,55.18-41.62A174.22,174.22,0,0,1,162.19,39.7c-16,9.48-34.35,16-53.12,15.22C72.5,53,37.71,28.64,12.24,3.77Z"></path><path d="M25.76,3.77c17.64,18,39.6,32.18,63.8,39.42,1.52.53,3.64,1.07,5.22,1.43l5.28,1.28A115.72,115.72,0,0,1,69,36.2,136.27,136.27,0,0,1,25.76,3.77Z"></path><path d="M194.27,3.77C169.89,29,132.83,47.11,97.51,37.28c1.15.23,3.82.74,4.91,1l5,.68c32.54,3.35,63.81-13.35,86.88-35.17Z"></path><path d="M45.49,3.77A86.9,86.9,0,0,0,92.7,30.48c24.24,4.66,49.43-2.42,70.39-14.78A117.31,117.31,0,0,0,178.24,5.23a121.82,121.82,0,0,1-35.61,21.12c-2.07.77-4.47,1.51-6.58,2.25l-6.71,1.81-6.82,1.35-6.9.86-4.63.21c-24.73,1-49.54-10.26-65.5-29.06Z"></path></g><path d="M750-.14H530s44,65.56,113.53,65.56S750-.14,750-.14Z" style="fill:#dbdbdb"></path><g style="opacity:0.2"><path d="M542.22,3.77c22.91,21.61,51.94,41.84,83.12,48.48,18.19,4,37.3.87,54.09-6.86,21.11-9.62,39.67-24.45,55.18-41.62A174.45,174.45,0,0,1,692.17,39.7c-16,9.48-34.35,16-53.12,15.22-36.57-2-71.36-26.28-96.83-51.15Z"></path><path d="M555.74,3.77c17.64,18,39.6,32.18,63.8,39.42,1.52.53,3.64,1.07,5.22,1.43L630,45.9A115.72,115.72,0,0,1,599,36.2,136.27,136.27,0,0,1,555.74,3.77Z"></path><path d="M724.25,3.77C699.87,29,662.81,47.11,627.49,37.28c1.15.23,3.82.74,4.92,1l5,.68c32.54,3.35,63.81-13.35,86.88-35.17Z"></path><path d="M575.47,3.77a86.9,86.9,0,0,0,47.21,26.71c24.24,4.66,49.43-2.42,70.39-14.78A117.31,117.31,0,0,0,708.22,5.23a121.69,121.69,0,0,1-35.61,21.12c-2.07.77-4.47,1.51-6.58,2.25l-6.71,1.81-6.82,1.35-6.9.86-4.63.21c-24.73,1-49.54-10.26-65.5-29.06Z"></path></g></g><g id="freepik--Floor--inject-575"><path d="M46.91,476.53c210.2-.61,446-.62,656.18,0-210.2.62-446,.61-656.18,0Z" style="fill:#263238"></path></g><g id="freepik--Light--inject-575"><circle cx="375" cy="250" r="192.94" style="fill:#FFC727;opacity:0.2"></circle></g><g id="freepik--character-1--inject-575"><path d="M172.44,477.43c-2.31.76-70.11-.08-72.61-1.71-.3-.18-.35-6.31-.29-14.7v-.17c0-5.32,12.56-50.76,12.56-50.76h42.44L143,454.87s9.13,3.9,17.07,7.76l0,0A95.24,95.24,0,0,1,170.24,468C172.77,470,174.75,476.7,172.44,477.43Z" style="fill:#eb9481"></path><path d="M172.72,477.69c-2.38.76-70.27-.25-72.83-1.92-1-.63-1.84-11.11-.74-22.67l43.76.7s25,12,27.59,14.15S175.1,476.93,172.72,477.69Z" style="fill:#FFC727"></path><path d="M171.79,475c-11.38-.45-57.3-1.18-68.58-.76-.09,0-.09.07,0,.07,11.26.69,57.19,1.06,68.57.88C172,475.15,172,475,171.79,475Z" style="fill:#263238"></path><path d="M146.47,455c-4.56-.13-9.86,1.4-12.75,5.08-.11.15.1.3.23.24a62.69,62.69,0,0,1,12.59-4.75A.29.29,0,0,0,146.47,455Z" style="fill:#263238"></path><path d="M150,456.42c-4.55-.13-9.86,1.39-12.74,5.08-.11.14.09.3.23.23A62.6,62.6,0,0,1,150,457,.28.28,0,0,0,150,456.42Z" style="fill:#263238"></path><path d="M153.46,457.84c-4.56-.13-9.86,1.4-12.75,5.08-.11.14.1.3.23.23a63.3,63.3,0,0,1,12.59-4.75A.29.29,0,0,0,153.46,457.84Z" style="fill:#263238"></path><path d="M157,459.26c-4.55-.13-9.85,1.4-12.74,5.08-.11.15.09.3.23.24A62.86,62.86,0,0,1,157,459.82.28.28,0,0,0,157,459.26Z" style="fill:#263238"></path><path d="M147.17,454.31,97.62,453.1s23.11-80,20.65-86-39.17-17.53-50.72-27c-18.3-15-3.24-43-3.24-43l40.39-1.21s-2.39,12.5,3.26,21.09c0,0,45.47,15.44,53.76,30.52C170.58,363.55,147.17,454.31,147.17,454.31Z" style="fill:#263238"></path><path d="M103.78,444.09a21.74,21.74,0,0,1,4-.18c1.35,0,2.71,0,4.06,0l8.26.08c5.51.06,11,.17,16.52.39,3.11.12,6.2.36,9.29.59.13,0,.11.18,0,.18-11,.35-22,0-33.06-.34l-4.5-.17a26.26,26.26,0,0,1-4.52-.37C103.67,444.27,103.69,444.11,103.78,444.09Z" style="fill:#37474f"></path><path d="M161.46,384.7l-43.11-17.27a1.84,1.84,0,0,0-.08-.3c-2.51-6.09-39.17-17.53-50.73-27-18.29-15.06-3.24-43-3.24-43l40.4-1.22s-2.39,12.51,3.26,21.1c0,0,45.47,15.44,53.76,30.52C164.89,353.21,164,368,161.46,384.7Z" style="opacity:0.1"></path><path d="M108.51,440c5.83-20.46,13.66-44.39,16.73-65.46.29-3.34,1-7.18-.36-10.3a12.1,12.1,0,0,0-3.51-3.7c-13.24-8.94-29.07-13.12-42.72-21.62A31.16,31.16,0,0,1,70.44,332c-6-9.14-5.21-21.11-1.64-31a39.42,39.42,0,0,0-1.44,5.13c-1.82,8.49-1.47,18.17,3.51,25.54A31,31,0,0,0,79,338.33c12.2,7.3,25.92,11.7,38.37,18.58,3.24,2,6.88,3.95,8.55,7.57a14.23,14.23,0,0,1,.53,4.77c-.4,8.92-2.54,17.66-4.56,26.31-3.38,13.82-8.09,30.19-12.41,43.74Z" style="fill:#37474f"></path><path d="M64.87,340.91h45.94A10.24,10.24,0,0,1,121,351.14V362.4a0,0,0,0,1,0,0H54.64a0,0,0,0,1,0,0V351.14A10.24,10.24,0,0,1,64.87,340.91Z" style="fill:#455a64"></path><rect x="51.52" y="362.4" width="72.65" height="4.68" style="fill:#FFC727"></rect><rect x="51.52" y="362.4" width="72.65" height="4.68" style="opacity:0.6000000000000001"></rect><rect x="51.52" y="472.1" width="72.65" height="4.68" style="fill:#FFC727"></rect><rect x="51.52" y="472.1" width="72.65" height="4.68" style="opacity:0.5"></rect><rect x="61.16" y="377.2" width="53.37" height="6.38" style="fill:#FFC727"></rect><rect x="61.16" y="377.2" width="53.37" height="6.38" style="opacity:0.6000000000000001"></rect><rect x="49.17" y="367.08" width="77.33" height="10.11" style="fill:#FFC727"></rect><rect x="49.17" y="367.08" width="77.33" height="10.11" style="opacity:0.5"></rect><rect x="82.54" y="383.57" width="10.6" height="88.5" style="fill:#FFC727"></rect><rect x="82.54" y="383.57" width="10.6" height="88.5" style="opacity:0.5"></rect><path d="M266.82,466.26c-2.16,1.11-69.24,11-72,9.75-.32-.12-4.24-22.23-4.24-22.23-.81-5.25-15.75-41.58-15.75-41.58l42.59-6.32,16.77,42.74s9.62,2.41,18.07,5l0,0c5.21,1.57,9.75,3,10.84,3.66C266,458.91,269,465.17,266.82,466.26Z" style="fill:#eb9481"></path><path d="M266.82,466.26c-2.16,1.12-69.25,11-72,9.75-.33-.13-4.24-22.23-4.24-22.23a32.07,32.07,0,0,0-1.17-4.1c-3.71-11-14.59-37.48-14.59-37.48l42.59-6.32,14.85,37.86,1.92,4.88s9.62,2.4,18.08,5l0,0a99.57,99.57,0,0,1,10.84,3.65C266,458.91,269,465.17,266.82,466.26Z" style="fill:#eb9481"></path><path d="M266.82,466.26c-2.16,1.12-69.25,11-72,9.75-.33-.13-4.24-22.23-4.24-22.23a32.07,32.07,0,0,0-1.17-4.1l42.85-5.94,1.92,4.88s9.62,2.4,18.08,5l0,0a99.57,99.57,0,0,1,10.84,3.65C266,458.91,269,465.17,266.82,466.26Z" style="fill:#ebebeb"></path><path d="M267.14,466.47c-2.23,1.13-69.43,10.83-72.22,9.58-1.07-.46-3.57-10.68-4.31-22.27l43.33-6.2s26.56,7.92,29.48,9.62S269.37,465.35,267.14,466.47Z" style="fill:#FFC727"></path><path d="M265.79,463.92C254.48,465.28,209,471.79,198,474c-.09,0-.08.08,0,.07,11.23-1.09,56.64-8,67.85-9.94C266.05,464.07,266,463.9,265.79,463.92Z" style="fill:#263238"></path><path d="M237.64,448.2c-4.52.58-9.52,2.93-11.79,7-.08.16.14.28.27.2a62.8,62.8,0,0,1,11.68-6.68A.28.28,0,0,0,237.64,448.2Z" style="fill:#263238"></path><path d="M241.31,449.05c-4.51.59-9.51,2.93-11.78,7-.09.16.14.28.26.19a63.12,63.12,0,0,1,11.68-6.68A.28.28,0,0,0,241.31,449.05Z" style="fill:#263238"></path><path d="M245,449.9c-4.52.59-9.51,2.94-11.78,7-.09.16.14.28.26.19a62.75,62.75,0,0,1,11.68-6.67A.29.29,0,0,0,245,449.9Z" style="fill:#263238"></path><path d="M248.67,450.76c-4.52.59-9.52,2.93-11.79,7-.08.16.14.29.27.2a63,63,0,0,1,11.67-6.68A.28.28,0,0,0,248.67,450.76Z" style="fill:#263238"></path><path d="M238,447l-51,6.54s-34.61-84.23-38-87.38C141.51,359,78,350.71,61.22,335.94c-12-10.6-2.87-38.76-2.87-38.76l46.57-1.38s-.21,10.17,2.15,10.82c25.54,7.12,68.43,24.08,79.66,33.42C206.89,356.82,238,447,238,447Z" style="fill:#263238"></path><path d="M187,442.4a21.06,21.06,0,0,1,3.78-.74l3.92-.56,8-1.09c5.33-.71,10.65-1.39,16-2,3-.32,6-.52,9.05-.73.12,0,.13.17,0,.19-10.6,1.9-21.26,3.14-31.95,4.34-1.45.17-2.91.32-4.36.48a25.18,25.18,0,0,1-4.42.27C186.87,442.59,186.87,442.43,187,442.4Z" style="fill:#37474f"></path><path d="M63,299.28c-4.5,9.52-6,22.16,1.32,30.69,8.27,8.22,30.15,13.77,41.73,17.22,8.39,2.3,16.83,4.39,25.28,6.43,5.24,1.44,15.66,3.44,20.6,5.47a12.86,12.86,0,0,1,3.36,3.74c9.08,15.14,26,60.64,33.27,75.22-7.74-15.58-28.7-67.79-33.9-74.74a20.07,20.07,0,0,0-3.14-3.53c-4.74-1.89-15.31-4-20.39-5.32-8.45-2.06-16.9-4.18-25.29-6.52C94.06,344.43,72.38,338.8,64,330.29c-7.33-8.69-5.66-21.47-1-31Z" style="fill:#37474f"></path><path d="M54.26,315.79c.16.15,58.52-7.38,58.52-7.38l-.27-5.75s-17.11-57.83-20.43-61.3c-4-4.2-10.69-5.19-15.36-2.06C66.93,245.86,54.07,315.59,54.26,315.79Z" style="fill:#ebebeb"></path><path d="M76.72,239.3s14.17,33.32,16.44,40.4S109,330.77,109,330.77l-54.45,7.35a119.87,119.87,0,0,1-.28-26.34c2-17,7.31-42.14,16.18-64C73,241.53,76.72,239.3,76.72,239.3Z" style="fill:#FFC727"></path><rect x="77" y="311.74" width="16.9" height="2.74" transform="translate(-70.31 28.37) rotate(-13.41)" style="fill:#263238"></rect><path d="M76.72,239.3s13.92,31,16.25,38.51,11.34,37.51,11.34,37.51S92.42,281.93,91.4,280.24,80.54,266,80.54,266l2.8-6.5-7.29-5Z" style="fill:#263238"></path><polygon points="90.91 239.72 99.08 252.51 98.05 255.05 101.9 259.8 104.01 274.47 111.14 298.07 90.91 239.72" style="fill:#263238"></polygon><path d="M90.47,250.78c-3.58.94-10.7-4.84-13.26-9.23-.17-.3.21-3.54.5-7.49.16-2.4.28-5.07.22-7.52l15.45,3.34a39.41,39.41,0,0,0-1.24,9.44,6.35,6.35,0,0,0,.13,1,.65.65,0,0,1,0,.16C92.66,242.38,93.93,249.86,90.47,250.78Z" style="fill:#eb9481"></path><path d="M92.27,240.32s0,.1,0,.16a9.62,9.62,0,0,1-1.58.13c-8.89,0-11.26-10.79-11.75-13.84l3.86.83,10.55,2.28a38.54,38.54,0,0,0-1.23,9.44A5.37,5.37,0,0,0,92.27,240.32Z" style="fill:#263238"></path><path d="M68.56,215.32c.72,5.65,9.81,18.82,14.78,20.43,7.21,2.33,15.8-1,17-8.93,1.14-7.69-11-24.64-16.26-25.77C76.3,199.38,67.5,207,68.56,215.32Z" style="fill:#eb9481"></path><path d="M87.47,219.11s0,.09,0,.12c.64.87,1.22,2,.61,2.82,0,0,0,.07,0,0C89,221.29,88.22,219.83,87.47,219.11Z" style="fill:#263238"></path><path d="M86.05,218.72c-1.51.87.34,3.82,1.73,3S87.31,218,86.05,218.72Z" style="fill:#263238"></path><path d="M92.84,215.93s.1,0,.12,0c.54.93,1.32,1.91,2.34,1.69,0,0,.06,0,0,.06C94.23,218.2,93.2,216.89,92.84,215.93Z" style="fill:#263238"></path><path d="M93.06,214.46c1.39-1,3.36,1.84,2.06,2.8S91.88,215.33,93.06,214.46Z" style="fill:#263238"></path><path d="M84.53,219a13.74,13.74,0,0,0,.92-1.1,2.31,2.31,0,0,0,.73-1.29.74.74,0,0,0-.56-.71,1.84,1.84,0,0,0-1.68.77,2.67,2.67,0,0,0-.74,1.78A.79.79,0,0,0,84.53,219Z" style="fill:#263238"></path><path d="M92.61,211.1a14,14,0,0,1-1.3.6,2.37,2.37,0,0,1-1.44.36.75.75,0,0,1-.53-.72,1.8,1.8,0,0,1,1.19-1.42,2.7,2.7,0,0,1,1.91-.25A.79.79,0,0,1,92.61,211.1Z" style="fill:#263238"></path><path d="M91,228a1.62,1.62,0,0,0,1.1.12,3.05,3.05,0,0,0,.88-.8s.07,0,.07,0a1.48,1.48,0,0,1-.92,1.17,1.15,1.15,0,0,1-1.2-.42C90.84,228,90.9,228,91,228Z" style="fill:#263238"></path><path d="M90.37,224.62a3.64,3.64,0,0,0,2.94.24,4.62,4.62,0,0,0,1.18-.58l.21-.15.19-.15a.26.26,0,0,0,.07-.31h0a.47.47,0,0,0-.06-.09h0l0-.08c-.38-.74-1.06-1.8-1.06-1.8.33,0,2-.16,1.79-.52a54.94,54.94,0,0,0-6.63-9,.1.1,0,0,0-.16.12c1.74,3,4,5.65,5.78,8.62a7,7,0,0,0-1.77.38c-.08.09,1.36,2,1.51,2.38a.1.1,0,0,0,0,0,5.1,5.1,0,0,1-3.89.81C90.32,224.48,90.28,224.58,90.37,224.62Z" style="fill:#263238"></path><path d="M93.84,224.15a4.26,4.26,0,0,1-.85,2,1.93,1.93,0,0,1-1,.62c-.85.21-1.24-.45-1.42-1.1a4.87,4.87,0,0,1-.16-1.07A5.56,5.56,0,0,0,93.84,224.15Z" style="fill:#263238"></path><path d="M93,226.13a1.93,1.93,0,0,1-1,.62c-.85.21-1.24-.45-1.42-1.1A2,2,0,0,1,93,226.13Z" style="fill:#ff9abb"></path><path d="M74.69,226.55s-7.34-4.27-8.31-8.16c-.53-2.14,1.5-4.3,1.5-4.3s-1.44-3.76-.76-5.24c1.06-2.31,4.58-4.08,7.51-7.08,2.52-2.58,5-6.72,7.66-8.52,4.44-2.94,12.45,3.06,8.91,10.84-2.12,4.64-14.56,6.41-16.76,9.11-.83,1-.18,5.16.79,6.45,1.85,2.45,5.08,5.41,5.25,5.81l-.5,1.39c-.32-.29-2-1.92-2-1.92C77.3,226.66,74.69,226.55,74.69,226.55Z" style="fill:#263238"></path><path d="M90,216.75c-1-1.6-3.62-.35-5.82,1-1.87,1.18-3,2.44-3.14,3.34-.34,2.32,4.2,6.12,6.9,4.41C90.37,224,91.64,219.43,90,216.75Z" style="fill:#37474f;opacity:0.9"></path><g style="opacity:0.4"><path d="M84.48,225.53a3.75,3.75,0,0,0,3.13.17Z" style="fill:#455a64"></path><path d="M81.77,223.35l7.78.43a5.51,5.51,0,0,0,.38-.67l-8.61-.48A4.05,4.05,0,0,0,81.77,223.35Z" style="fill:#455a64"></path><path d="M81,221.62l9.32.52a1.06,1.06,0,0,0,.06-.19L81,221.42A.67.67,0,0,0,81,221.62Z" style="fill:#455a64"></path><path d="M85.27,217.12l5,.28a3.64,3.64,0,0,0-.34-.65.18.18,0,0,0,0-.07l-3.36-.19A13.45,13.45,0,0,0,85.27,217.12Z" style="fill:#455a64"></path></g><path d="M86.34,226.09a5.27,5.27,0,0,1-2.82-1c-1.71-1.11-2.83-2.8-2.65-4,.14-1,1.33-2.25,3.19-3.43,3.19-2,5.15-2.34,6-1h0c1.78,2.81.33,7.43-2.1,9A3,3,0,0,1,86.34,226.09Zm2.14-10c-1,0-2.41.59-4.28,1.77s-3,2.37-3.09,3.26c-.16,1.11.94,2.74,2.55,3.79s3.09,1.18,4.16.5c2.33-1.48,3.73-5.92,2-8.63A1.49,1.49,0,0,0,88.48,216.12Z" style="fill:#263238"></path><path d="M91.85,216.22a2.21,2.21,0,0,0-1.81.88,1.06,1.06,0,0,1,1.81-.88Z" style="fill:#263238"></path><path d="M91.47,214.65A4.49,4.49,0,0,1,88.81,216a4.49,4.49,0,0,1,2.66-1.37Z" style="fill:#263238"></path><path d="M81.4,220.46c-1,.81-5.88,4.67-6.76,5.42-.21.2-.47.36-.53.5-.67,1.24-1.23,2.56-2,3.81l-.07,0c.41-1.54.67-3.38,1.74-4.6,2.46-1.71,5.08-3.7,7.58-5.1Z" style="fill:#263238"></path><path d="M91.6,216c-.83-1.7,1-2.95,2.74-3.81,1.51-.73,2.82-.86,3.52-.43,1.81,1.1,3,6.77.87,7.82C96.73,220.54,93,218.85,91.6,216Z" style="fill:#37474f;opacity:0.9"></path><g style="opacity:0.4"><path d="M92,213.77l7.4.41a7.26,7.26,0,0,0-.64-1.43l-5-.27A6.64,6.64,0,0,0,92,213.77Z" style="fill:#455a64"></path><path d="M92.65,217.53l7.14.39a3.6,3.6,0,0,0,.09-.69l-7.81-.43A5.81,5.81,0,0,0,92.65,217.53Z" style="fill:#455a64"></path><path d="M91.57,214.4l8,.45c0-.07,0-.13,0-.19l-7.9-.44A1.12,1.12,0,0,0,91.57,214.4Z" style="fill:#455a64"></path></g><path d="M97.42,220a7.34,7.34,0,0,1-5.94-3.92h0a2,2,0,0,1,.42-2.36,7.69,7.69,0,0,1,2.39-1.61c1.51-.74,2.87-.89,3.63-.43,1.2.73,2.19,3.37,2.08,5.56a2.69,2.69,0,0,1-1.21,2.48A3.23,3.23,0,0,1,97.42,220Zm-.59-8.33a5.93,5.93,0,0,0-2.43.66,7.69,7.69,0,0,0-2.31,1.56,1.74,1.74,0,0,0-.38,2.08h0c1.39,2.88,5.11,4.42,7,3.52a2.46,2.46,0,0,0,1.07-2.26c.1-2.07-.85-4.66-2-5.34A1.82,1.82,0,0,0,96.83,211.64Z" style="fill:#263238"></path><path d="M78,224.93s-5.16-3.45-6.85-1.43,3.48,7.93,6.37,7.88a2.75,2.75,0,0,0,2.9-2.72Z" style="fill:#eb9481"></path><path d="M72.7,225.16a0,0,0,0,0,0,.07c2.06,0,3.63,1.31,4.94,2.75a1.53,1.53,0,0,0-2.27.44.06.06,0,0,0,.09.08,1.69,1.69,0,0,1,2-.13,8.07,8.07,0,0,1,1.38,1.09c.15.12.4-.07.27-.23l0,0C78.2,226.92,75.21,224.44,72.7,225.16Z" style="fill:#263238"></path><polygon points="92.74 242.68 91.67 249.88 77.1 237.19 76.26 241.26 90.75 256.09 91.96 250.7 95.53 253.7 94.6 245.72 92.74 242.68" style="fill:#ebebeb"></polygon><path d="M76.26,241.26c4.79,5.18,9.69,10.25,14.63,15.29l.09-.41,1.18-5.39-.33.11,3.6,3,.31.25c-.35-2.79-.75-5.57-1.14-8.35.25,2.67.49,5.33.78,8l.26-.14-3.54-3-.26-.22-.08.34L90.53,256l.39-.11c-4.83-4.94-9.69-9.85-14.66-14.66Z" style="fill:#263238"></path><path d="M73.63,261.93c9.19,15.69,24.39,31.42,29.51,36.21,3.07,2.87,21.6,9.95,37.89,13,4.05.76,3.76-28.66-.55-29.59-11.62-2.51-28.3-4.86-29.34-5.79S93.75,262,80.84,252.21C69.58,243.65,68.73,253.58,73.63,261.93Z" style="fill:#eb9481"></path><path d="M153.53,282.9c8.38,2,10.22,3.84,18.21,1.8,5.24-1.34,8.34,1.43,4.16,5.2-6.83,6.16-18.19,5.81-22.09,4.55Z" style="fill:#eb9481"></path><path d="M129.41,282.21s10.89-1.43,20-.14c6.33.88,19.87,4.34,27.18,21.95,1.74,4.17,1.25,11.35-4.06,5.56-3.77-4.11-4.92-7.86-7.55-9.85,0,0-1.71,9-6,10.63a84.12,84.12,0,0,1-11.4,3.32,16.8,16.8,0,0,1-.81-2.08s-4.11,1.1-9.87-1.84Z" style="fill:#eb9481"></path><path d="M155.34,283.88c2.19,2.53,6.75,8,8.93,13.71,2.42,6.38,5.36,19.33.63,21.06-3.47,1.28-5-3.57-5-3.57s.09,5.61-3.29,6.08c-3.09.42-4.07-3.4-4.07-3.4s-.53,3.41-3.58,3.25c-3.67-.2-2-7.31-5.49-10.72C142.64,309.52,155.34,283.88,155.34,283.88Z" style="fill:#eb9481"></path><path d="M157.1,299A27.24,27.24,0,0,1,160,315c0,.13-.14.19-.15.06A67.24,67.24,0,0,0,157,299S157.08,299,157.1,299Z" style="fill:#263238"></path><path d="M150.73,301.65c1.2,2.49,3.15,10,1.91,16.1,0,.14-.15.18-.15.05a71.7,71.7,0,0,0-1.82-16.13S150.71,301.62,150.73,301.65Z" style="fill:#263238"></path><path d="M140.41,280.53l-4.25,32.13s-31.16-11.75-33.81-13.4S81.8,278.58,74.37,265s-4.6-22.26,9-11.66,28.21,21.48,29.19,21.75S140.41,280.53,140.41,280.53Z" style="fill:#FFC727"></path><path d="M130.11,308.31c-.12-2.17.93-10.93,1.22-13.11s1.76-10.84,2.06-13.08c0-.12.21-.12.19,0-.26,2.22-2.69,24.16-3.35,26.2A.06.06,0,0,1,130.11,308.31Z" style="fill:#263238"></path><path d="M75.71,268.25c3.84,5.18,8.05,10.06,12.23,15,4.51,5.12,8.84,10.45,13.86,15,2.22,1.61,5,2.38,7.49,3.52l9,3.6,17.93,7.23-.1.05.51-2.43-.37,2.46v.09l-.09,0c-9.12-3.2-18.2-6.53-27.19-10.11-2.6-1.17-5.46-1.91-7.78-3.62a164.12,164.12,0,0,1-13.8-15.31,190.22,190.22,0,0,1-11.65-15.44Z" style="fill:#263238"></path><path d="M75.85,271.05c1.53.94,2.78,2.1,4.25,3.12a7.52,7.52,0,0,1-4.25-3.12Z" style="fill:#263238"></path></g><g id="freepik--character-2--inject-575"><rect x="241.68" y="358.33" width="3.91" height="118.2" style="fill:#263238"></rect><rect x="233.87" y="358.33" width="3.91" height="118.2" style="fill:#263238"></rect><rect x="189.11" y="470.53" width="62.55" height="6.01" style="fill:#263238"></rect><path d="M195.53,288.6V123.92a5.54,5.54,0,0,1,5.53-5.53H296a38.11,38.11,0,0,1,38.11,38.11v29.86c0,32.45,26.31,50.16,58.76,50.16h40.43a17.12,17.12,0,0,1,17.12,17.12v35Z" style="fill:#263238"></path><path d="M450.42,253.64v35H195.52V123.92a5.54,5.54,0,0,1,5.54-5.53H296a38.13,38.13,0,0,1,38.13,38.12v29.85c0,32.45,26.29,50.16,58.75,50.16h40.43A17.12,17.12,0,0,1,450.42,253.64Z" style="fill:#FFC727"></path><path d="M450.42,253.64v35H195.52V123.92a5.54,5.54,0,0,1,5.54-5.53H296a38.13,38.13,0,0,1,38.13,38.12v29.85c0,32.45,26.29,50.16,58.75,50.16h40.43A17.12,17.12,0,0,1,450.42,253.64Z" style="opacity:0.5"></path><path d="M450.42,253.64v35H195.52V267C288.76,261.16,296,197.46,296,118.39a38.13,38.13,0,0,1,38.13,38.12v29.85c0,32.45,26.29,50.16,58.75,50.16h40.43A17.12,17.12,0,0,1,450.42,253.64Z" style="opacity:0.1"></path><rect x="254.7" y="167.43" width="7.38" height="121.17" style="fill:#FFC727"></rect><rect x="254.7" y="167.43" width="7.38" height="121.17" style="opacity:0.5"></rect><path d="M450.43,288.6v69.73H139.11V332.55a9,9,0,0,1,8.95-8.94h26.18a21.29,21.29,0,0,0,21.29-21.29V288.6Z" style="fill:#FFC727"></path><path d="M450.43,288.6v69.73H139.11V332.55a9,9,0,0,1,8.95-8.94h26.18a21.29,21.29,0,0,0,21.29-21.29V288.6Z" style="opacity:0.5"></path><g style="opacity:0.30000000000000004"><polygon points="347.8 358.33 327.65 358.33 378.07 288.6 398.22 288.6 347.8 358.33" style="fill:#FFC727"></polygon><polygon points="367.55 358.33 357.48 358.33 407.9 288.6 417.97 288.6 367.55 358.33" style="fill:#FFC727"></polygon><polygon points="205.6 358.33 195.53 358.33 245.94 288.6 256.02 288.6 205.6 358.33" style="fill:#FFC727"></polygon></g><rect x="201.75" y="294.68" width="242.61" height="3.91" style="fill:#263238"></rect><rect x="145.5" y="349.8" width="298.54" height="3.91" style="fill:#FFC727"></rect><rect x="185.16" y="358.33" width="37.44" height="22.42" style="fill:#FFC727"></rect><rect x="185.16" y="358.33" width="37.44" height="22.42" style="opacity:0.5"></rect><polygon points="222.6 362.96 185.16 367.59 185.16 358.33 222.6 358.33 222.6 362.96" style="opacity:0.1"></polygon><polygon points="210.17 476.54 197.59 476.54 193.68 380.75 214.08 380.75 210.17 476.54" style="fill:#FFC727"></polygon><polygon points="210.17 476.54 197.59 476.54 193.68 380.75 214.08 380.75 210.17 476.54" style="opacity:0.5"></polygon><polygon points="197.59 476.54 197.32 471.63 210.44 471.63 210.17 476.54 197.59 476.54" style="fill:#FFC727"></polygon><polygon points="197.59 476.54 197.32 471.63 210.44 471.63 210.17 476.54 197.59 476.54" style="opacity:0.2"></polygon><polygon points="193.68 380.75 193.91 384.81 213.92 383.66 214.08 380.75 193.68 380.75" style="opacity:0.1"></polygon><rect x="366.94" y="358.33" width="37.44" height="22.42" style="fill:#FFC727"></rect><rect x="366.94" y="358.33" width="37.44" height="22.42" style="opacity:0.5"></rect><polygon points="404.38 362.96 366.94 367.59 366.94 358.33 404.38 358.33 404.38 362.96" style="opacity:0.1"></polygon><polygon points="391.95 476.54 379.37 476.54 375.46 380.75 395.86 380.75 391.95 476.54" style="fill:#FFC727"></polygon><polygon points="391.95 476.54 379.37 476.54 375.46 380.75 395.86 380.75 391.95 476.54" style="opacity:0.5"></polygon><polygon points="379.37 476.54 379.1 471.63 392.22 471.63 391.95 476.54 379.37 476.54" style="fill:#FFC727"></polygon><polygon points="379.37 476.54 379.1 471.63 392.22 471.63 391.95 476.54 379.37 476.54" style="opacity:0.2"></polygon><polygon points="375.46 380.75 375.68 384.81 395.7 383.66 395.86 380.75 375.46 380.75" style="opacity:0.1"></polygon><path d="M405.13,269.12c-2.78,17.29-27.77,45.79-27.77,45.79L356,284.23l2-6.62s-60.42,11.25-81.27,3.43c-22.27-8.34-13.48-40.62-13.48-40.62l47.46-3.08s1.12,5.34,4.42,5c20.61-2.21,50.92-2.9,61.81-2.15C390.92,241.15,407.68,253.26,405.13,269.12Z" style="fill:#ad6359"></path><path d="M432.21,380.29c-.58.78-9.92,3.81-20,7-4.35,1.36-54.36-13.67-56.66-15.33s1.85-13.07,2-14.05L344.36,326,382,314.13l13.73,37.14s13.25,13.61,17,15.66a40.7,40.7,0,0,0,13.41,3.95C429,371,433.88,378,432.21,380.29Z" style="fill:#ad6359"></path><path d="M355.51,372c2.3,1.66,52.31,16.69,56.66,15.33,10.12-3.18,19.46-6.2,20-7,1.67-2.27-3.22-9.31-6.16-9.4a39.94,39.94,0,0,1-10.39-2.59h0c4.91,3.12,10.2,11.69-22.63,3-22.27-5.94-31.73-10.81-35.5-13.33C357.26,359.15,353.26,370.32,355.51,372Z" style="fill:#263238"></path><path d="M355,371.21a48.7,48.7,0,0,0,3.7,9.68c1,1.62,4.21,5,5,7.4s6,13.09,6,13.09l3-1s-3.36-10.19-4.37-13.28-2.8-10.62,5.14-9.17Z" style="fill:#263238"></path><path d="M395.93,351.53c.44,1.58-.89,3-2.05,4-4.63,3-10.41,3.56-15.76,3.91a83.09,83.09,0,0,1-10.35-.15,86.09,86.09,0,0,1-10.24-1.31c5.16-.3,10.26-.16,15.4-.35,4.64-.23,22.69,0,23-6.05Z" style="fill:#263238"></path><path d="M386.64,329l-37.57,6.35-24.52-48.6s-54.92,9.14-63.07-10.56c-4.47-10.81,1.7-35.52,1.7-35.52l35.75-2.53s2,7.31,5,7.09c7.34-.55,31.56-.63,42.83,2.38C363,251.94,386.64,329,386.64,329Z" style="fill:#ad6359"></path><path d="M303.9,245.19a228.22,228.22,0,0,1,33.79.12c3.5.4,7.13.81,10.41,2.27A17.28,17.28,0,0,1,353,251.8c10.5,13.34,16.57,29.57,23,45.11,4.1,10.49,7.91,21.1,11.33,31.82-7.72-21.1-15.62-42.28-26-62.21-3.35-5.87-8.81-17-15.52-18.88-8.1-2.18-16.67-2.25-25-2.51-5.62-.12-11.25-.08-16.88.06Z" style="fill:#263238"></path><path d="M395,384l-1.76-.45-3.54-1c-1.17-.32-2.36-.64-3.55-1-4.29-1.2-8.64-2.46-12.66-3.67h0c-7.93-1.44-6.15,6.08-5.13,9.17s4.37,13.28,4.37,13.28l-3,1s-5.19-10.68-6-13.09-4-5.77-5-7.4a48.7,48.7,0,0,1-3.7-9.68,6.39,6.39,0,0,1-.15-2.41c0-.2.05-.41.07-.63a.68.68,0,0,1,0-.14c0-.11,0-.21,0-.32l.06-.42c0-.14.05-.28.08-.43.24-1.37.61-2.85,1-4.2.09-.3.17-.59.25-.88.23-.8.45-1.53.64-2.14.06-.18.11-.35.16-.51s.14-.47.2-.66l.06-.19,0-.1a1.67,1.67,0,0,1,0-.19s0,0,0-.06a0,0,0,0,0,0,0L344.36,326l-1.76-3.5,23.68-47.17.14-.28c2.63,5.68,5.16,11.73,7.48,17.65.06.17.13.34.2.5C381,310,386.28,325.56,387.2,328.3l.08.23c.05.13.07.2.07.2l5.51,14.9Z" style="opacity:0.1"></path><path d="M391.42,397c-.93.27-10.18-3-20.14-6.69-4.28-1.57-34.73-44-35.53-46.71s9.44-9.23,10.18-9.9l8.88-33.46L392,313.89,380.19,351.7s2.19,18.87,3.88,22.75a40.76,40.76,0,0,0,8.22,11.31C394.56,387.62,394.14,396.19,391.42,397Z" style="fill:#ad6359"></path><path d="M335.75,343.57c.8,2.72,31.25,45.14,35.53,46.71,10,3.66,19.2,7,20.15,6.69,2.71-.79,3.13-9.35.86-11.21a39.75,39.75,0,0,1-6.65-8.39h0c2,5.47.95,15.49-19.73-11.45-14-18.3-18.55-27.93-20-32.23C344.94,334.5,335,340.91,335.75,343.57Z" style="fill:#263238"></path><path d="M335.81,342.68a49.09,49.09,0,0,0-3,9.93c-.16,1.92.29,6.53-.55,8.91s-3.25,14-3.25,14l3,1,4.64-13.19c1.08-3.07,4.27-10.12,9.67-4.13Z" style="fill:#263238"></path><path d="M380.23,352.05c-.73,1.72-3,2-4.7,1.82-5.26-.64-9.93-3.58-14.21-6.46a82.5,82.5,0,0,1-8.1-6.43,85.35,85.35,0,0,1-7.32-7.29c4.27,2.91,8.23,6.14,12.42,9.12,3.82,2.65,18,13.84,21.91,9.24Z" style="fill:#263238"></path><path d="M350.38,317.31c2.11-10.74,11.8-45.87,14.51-52.09,0,0,40.51-6.25,40.22,3.13-.31,9.92-9.39,36.57-19.73,65.85Z" style="fill:#ad6359"></path><path d="M346.74,330.63c2.31-11.56,5.12-23,8.1-34.42,3.24-11.3,6-22.89,11.24-33.49-4.47,10.89-7.13,22.43-10.28,33.75-3,11-6.06,23.11-9.06,34.16Z" style="fill:#263238"></path><path d="M387.35,329c-1.93,7.57-4.2,15.07-6.59,22.51a4,4,0,0,0,0,1.69c.29,2.91.87,7.1,1.24,10,.19,1.69.42,3.36.59,5-1.12-5-2.11-9.94-2.78-15a4.72,4.72,0,0,1,0-2.08c2.32-7.46,4.76-14.91,7.52-22.22Z" style="fill:#263238"></path><path d="M310.64,237.34l-47.46,3.08s-7.22,25-2.71,35.7,23.47,16.43,58,12.3c0,0-6.49-29.81,19.24-42.7,0,0,3.19-3.34,18.65-5.75,0,0-24.08-1.36-41.78,1.24Z" style="fill:#FFC727"></path><path d="M285.69,142s-4-3.94-7.46-2.28-3.22,5.33-5.29,6.5-6.94,2.29-8.49,5.25.84,6.91.24,8.58-4.06,3.2-3.71,6.68c.4,4,3.6,5.34,4.19,7.28,1,3.24-.38,6.67,2.8,9.69,3.42,3.24,7,1.78,9.87,2.18s4.75,4.42,10,2.75,5.43-5.27,8-7.52,7.62-2,10.07-5.26.33-5.9.64-7.8,2.88-3,2.87-6.09-3.49-4.66-4.08-5.66c-1-1.73-.07-3.24-1.51-5.7s-5.46-3-6.42-3.59c-2.31-1.33-2.21-6-5.44-6.76A6.21,6.21,0,0,0,285.69,142Z" style="fill:#263238"></path><path d="M263.92,154.23c1,3.63,1.15,5-1.63,7.79-1.76,2-2.63,4.79-1.24,7.19.89,1.88,3.12,2.83,4,4.83a7.85,7.85,0,0,1,.18,2.22,13.72,13.72,0,0,0,.5,4.05A6.67,6.67,0,0,0,268,183.7c-2.57-1.45-3.35-4.67-3.49-7.41,0-.35-.09-1.2-.12-1.54a3.47,3.47,0,0,0-1.3-1.85c-4-3-5.09-7.59-1.35-11.38.91-1,2.09-1.8,2.38-3.19a15.4,15.4,0,0,0-.17-4.1Z" style="fill:#263238"></path><path d="M303.54,177.82c3-1.91,4.9-3.57,3.8-7.4a5.08,5.08,0,0,1-.15-2.63c.57-1.24,1.58-2.24,2.06-3.43a4.35,4.35,0,0,0,.24-2.85c-.27-2-2.2-3.34-3.75-4.76a23.61,23.61,0,0,1,2.69,1.78,5.53,5.53,0,0,1,1.69,6.19,36,36,0,0,1-2,3.43,1.09,1.09,0,0,0-.07.57c1,5,.45,7.1-4.5,9.1Z" style="fill:#263238"></path><path d="M292.36,195.32c11,14.22,32,29.92,41.11,29.06,6.2-.59,18.75-23.92,22.08-33.51,3.05-8.78-18.13-15.07-21-10.4-4.4,7.23-8.27,17.52-10.11,17.72-2.3.25-9.25-3.13-27.12-11.2C289.79,183.58,287.66,189.27,292.36,195.32Z" style="fill:#ad6359"></path><path d="M359,173.45c.58,5.3-2.48,16.61-4.26,19.05s-21.19-2.11-22.47-4.94-1.86-20.82,1.06-25.42S358.35,168,359,173.45Z" style="fill:#ad6359"></path><polygon points="325.65 160.94 362.41 175.42 359.82 182.63 322.25 170.41 325.65 160.94" style="fill:#263238"></polygon><path d="M310.23,160.75h0a8,8,0,0,0,4.8,10.19l2.6.93a7.46,7.46,0,0,0,9.55-4.5l.34-1a7.47,7.47,0,0,0-4.51-9.55l-2.59-.93A8,8,0,0,0,310.23,160.75Z" style="fill:#a6a6a6"></path><rect x="310.95" y="163.16" width="16.95" height="1.74" transform="translate(57.11 409.23) rotate(-70.25)" style="fill:#c7c7c7"></rect><path d="M330.2,170.11c1.72,2.24,3.38-1.06,3.38-1.06s-1.24,5.34,1.42,7,4.44-2.51,4.58-2.8c-.06.29-1.08,5.22,1.77,6.58s4.13-3,4.2-3.27c0,.28.41,4.06,2.81,4.6,4.12.93,3.41-8.75,5.75-11.24,0,0,4.68,3.49,4.84,3.56,0,0-.49-9.23-4-12.2a2.94,2.94,0,0,0-3.69-.14s.17-3-2-4.13c-1.13-.59-3.07.71-3.07.71a3.73,3.73,0,0,0-2-3.3c-1.62-.71-3.31.7-3.31.7s-1-2.33-2.93-2.52C334.09,152.16,326.53,165.3,330.2,170.11Z" style="fill:#ad6359"></path><path d="M340.51,155.27a0,0,0,1,0-.06-.05,26.25,26.25,0,0,0-7,14c0,.16.24.27.3.09A53.92,53.92,0,0,1,340.51,155.27Z" style="fill:#263238"></path><path d="M346.13,157.61c0-.05-.05-.11-.09-.06a24.61,24.61,0,0,0-6.66,15.75c0,.2.19.39.22.15C340,169.47,343.33,161.63,346.13,157.61Z" style="fill:#263238"></path><path d="M345.69,177c.32-5.74,2.45-10.8,5.38-15.69,0-.06-.06-.11-.1-.06-2.09,2-3.63,5.3-4.62,8a15.23,15.23,0,0,0-.86,7.76C345.51,177,345.68,177.07,345.69,177Z" style="fill:#263238"></path><path d="M333.58,169.05a16.66,16.66,0,0,0-.14,3.15,5.76,5.76,0,0,0,.8,2.91,1.86,1.86,0,0,0,1.12.79,2.76,2.76,0,0,0,1.4,0,3.39,3.39,0,0,0,2-1.93l.94-2.12-.14,2.32a9.2,9.2,0,0,0,.28,3,3.37,3.37,0,0,0,1.6,2.26,1.94,1.94,0,0,0,2.41-.39,5.86,5.86,0,0,0,1.29-2.63l.65-2.67.26,2.72a8.93,8.93,0,0,0,.5,2.22,3.63,3.63,0,0,0,1.21,1.74,1.74,1.74,0,0,0,1.83.14,3.86,3.86,0,0,0,1.32-1.71,30,30,0,0,0,1.47-4.53c.21-.77.43-1.55.68-2.32a5.72,5.72,0,0,1,1.09-2.14,6.18,6.18,0,0,0-.88,2.21c-.19.77-.34,1.56-.5,2.35a25.5,25.5,0,0,1-1.25,4.7,4.54,4.54,0,0,1-1.52,2.1,2.49,2.49,0,0,1-2.72-.1,4.55,4.55,0,0,1-1.55-2.13,9.4,9.4,0,0,1-.59-2.46l.9.06a6.7,6.7,0,0,1-1.49,3.12,2.78,2.78,0,0,1-1.68.9,3.19,3.19,0,0,1-1.84-.35,4.25,4.25,0,0,1-2-2.86,10.27,10.27,0,0,1-.26-3.36l.8.19a4,4,0,0,1-2.56,2.26,3.38,3.38,0,0,1-1.73-.06,2.46,2.46,0,0,1-1.38-1.06,6,6,0,0,1-.66-3.19A14.57,14.57,0,0,1,333.58,169.05Z" style="fill:#263238"></path><path d="M331.58,184.52s-11.12-19.71-1.29-20.28c2.93-.17,15.13,2.62,14.61,5.08-.66,3.18-6,3-9.28,2.3,0,0,4.72,6.17,1.41,10.74A5.61,5.61,0,0,1,331.58,184.52Z" style="fill:#ad6359"></path><path d="M329.48,164.34a12.08,12.08,0,0,1,3.45-.11,26.47,26.47,0,0,1,3.42.55,39.52,39.52,0,0,1,6.63,2,6.29,6.29,0,0,1,1.59.93,2.35,2.35,0,0,1,.66.82,1.69,1.69,0,0,1,.17.55,1.84,1.84,0,0,1,0,.58,2.92,2.92,0,0,1-1.1,1.69,5.56,5.56,0,0,1-1.7.82,10.54,10.54,0,0,1-3.56.31,23.57,23.57,0,0,1-3.47-.49l.39-.64a14.75,14.75,0,0,1,1.33,2.3,12.87,12.87,0,0,1,.86,2.49,9.25,9.25,0,0,1,.2,2.62,6.83,6.83,0,0,1-.67,2.51,7.76,7.76,0,0,0,.39-2.52,9.39,9.39,0,0,0-.41-2.48,12.16,12.16,0,0,0-1-2.33,13.65,13.65,0,0,0-1.36-2.09l-.65-.8,1,.16a25.22,25.22,0,0,0,3.35.36,10,10,0,0,0,3.25-.32c1-.29,2-.91,2.13-1.78s-.85-1.41-1.82-1.86a32.34,32.34,0,0,0-3.16-1.23c-1.07-.38-2.15-.74-3.25-1A21.61,21.61,0,0,0,329.48,164.34Z" style="fill:#263238"></path><path d="M263.18,240.42l47.43-3.08-3.47-17.6s4.27-6.44,3.47-10c-1.59-7-13.8-21.93-14.94-22.86-4.59-3.71-13.43-5-17.87,1.2-6.69,9.38-7.53,35.76-10.62,41.45Z" style="fill:#FFC727"></path><path d="M300.34,217.7a37.13,37.13,0,0,0-6.25,1.72c-1,.39-2,.84-3,1.31-.49.23-1,.45-1.48.66a5.76,5.76,0,0,1-1.61.49s0,.09,0,.09a9.19,9.19,0,0,0,1.57-.16,10,10,0,0,0,1.48-.44c1-.39,2-.83,3.06-1.23,2.06-.8,4.13-1.61,6.24-2.23C300.48,217.88,300.44,217.68,300.34,217.7Z" style="fill:#263238"></path><path d="M305.78,219.54a39.37,39.37,0,0,0-5.32.1,26.48,26.48,0,0,0-2.63.39l-1.24.26c-.46.11-.9.29-1.36.38-.05,0,0,.1,0,.09.43-.07.88-.06,1.32-.11l1.31-.14,2.64-.28c1.77-.21,3.52-.39,5.29-.52C305.89,219.7,305.87,219.54,305.78,219.54Z" style="fill:#263238"></path><polygon points="301.8 256.79 302.46 255.59 303.12 256.79 304.32 257.45 303.12 258.11 302.46 259.31 301.8 258.11 300.6 257.45 301.8 256.79" style="fill:#fff"></polygon><polygon points="333 241.72 333.66 240.52 334.32 241.72 335.52 242.38 334.32 243.03 333.66 244.24 333 243.03 331.8 242.38 333 241.72" style="fill:#fff"></polygon><polygon points="298.06 223.12 298.72 221.92 299.38 223.12 300.58 223.78 299.38 224.44 298.72 225.64 298.06 224.44 296.86 223.78 298.06 223.12" style="fill:#fff"></polygon><polygon points="280.69 243.58 281.35 242.38 282 243.58 283.21 244.24 282 244.9 281.35 246.1 280.69 244.9 279.49 244.24 280.69 243.58" style="fill:#fff"></polygon><polygon points="303.9 197.91 304.32 197.15 304.74 197.91 305.5 198.33 304.74 198.74 304.32 199.5 303.9 198.74 303.14 198.33 303.9 197.91" style="fill:#fff"></polygon><polygon points="314.92 283.5 315.33 282.74 315.75 283.5 316.51 283.92 315.75 284.34 315.33 285.1 314.92 284.34 314.15 283.92 314.92 283.5" style="fill:#fff"></polygon><polygon points="321.65 244.45 322.07 243.69 322.49 244.45 323.25 244.87 322.49 245.29 322.07 246.05 321.65 245.29 320.89 244.87 321.65 244.45" style="fill:#fff"></polygon><polygon points="302.74 217.01 303.16 216.25 303.57 217.01 304.33 217.42 303.57 217.84 303.16 218.6 302.74 217.84 301.98 217.42 302.74 217.01" style="fill:#fff"></polygon><polygon points="282.79 281.91 283.21 281.15 283.63 281.91 284.39 282.33 283.63 282.74 283.21 283.5 282.79 282.74 282.03 282.33 282.79 281.91" style="fill:#fff"></polygon><polygon points="343.3 438.64 343.71 437.88 344.13 438.64 344.89 439.06 344.13 439.47 343.71 440.24 343.3 439.47 342.54 439.06 343.3 438.64" style="fill:#fff"></polygon><polygon points="267.52 449.34 267.94 448.58 268.36 449.34 269.12 449.75 268.36 450.17 267.94 450.93 267.52 450.17 266.76 449.75 267.52 449.34" style="fill:#fff"></polygon><polygon points="255.88 382.57 256.3 381.81 256.71 382.57 257.48 382.99 256.71 383.41 256.3 384.17 255.88 383.41 255.12 382.99 255.88 382.57" style="fill:#fff"></polygon><polygon points="302.52 416.42 302.94 415.66 303.36 416.42 304.12 416.83 303.36 417.25 302.94 418.01 302.52 417.25 301.76 416.83 302.52 416.42" style="fill:#fff"></polygon><polygon points="300.18 264.2 300.6 263.44 301.01 264.2 301.77 264.62 301.01 265.04 300.6 265.8 300.18 265.04 299.42 264.62 300.18 264.2" style="fill:#fff"></polygon><polygon points="269.02 266.92 269.68 265.72 270.33 266.92 271.54 267.58 270.33 268.24 269.68 270.79 269.02 268.24 267.82 267.58 269.02 266.92" style="fill:#fff"></polygon><polygon points="270.88 228.91 271.54 227.71 272.2 228.91 273.4 229.57 272.2 230.23 271.54 232.78 270.88 230.23 269.68 229.57 270.88 228.91" style="fill:#fff"></polygon><polygon points="274.42 378.15 275.07 376.95 275.73 378.15 276.94 378.81 275.73 379.47 275.07 380.67 274.42 379.47 273.21 378.81 274.42 378.15" style="fill:#fff"></polygon><polygon points="268.75 384.19 269.41 382.99 270.07 384.19 271.27 384.85 270.07 385.51 269.41 388.06 268.75 385.51 267.55 384.85 268.75 384.19" style="fill:#fff"></polygon><polygon points="307.61 372.54 308.27 371.34 308.93 372.54 310.13 373.2 308.93 373.86 308.27 376.41 307.61 373.86 306.41 373.2 307.61 372.54" style="fill:#fff"></polygon><polygon points="286.29 191.86 286.95 190.66 287.6 191.86 288.81 192.52 287.6 193.18 286.95 195.73 286.29 193.18 285.08 192.52 286.29 191.86" style="fill:#fff"></polygon><polygon points="308.9 278.38 309.56 277.18 310.22 278.38 311.42 279.04 310.22 279.7 309.56 282.25 308.9 279.7 307.7 279.04 308.9 278.38" style="fill:#fff"></polygon><path d="M283.7,186c.24,1.07,5.27,8,10.12,7.78,1.58-.07,1.59-8.72,1.59-8.72l.15-.64,2-8.94-10.46-6.79-1.52-.9s-.4,2.48-.86,5.58c0,.14,0,.28-.07.44s-.06.34-.08.5q-.12.69-.21,1.41c-.06.35-.11.7-.15,1.08s-.09.75-.14,1.13A59.36,59.36,0,0,0,283.7,186Z" style="fill:#ad6359"></path><path d="M284.76,173.32a18.35,18.35,0,0,0,10.8,11.05l2-8.94-10.46-6.79-1.52-.9S285.22,170.22,284.76,173.32Z" style="fill:#263238"></path><path d="M305.53,155.5c7,14.51-.92,20.32-4,21.82-2.83,1.37-12.67,5.64-21.09-8.07s-3.9-21.53,2.42-25S298.56,141,305.53,155.5Z" style="fill:#ad6359"></path><path d="M302.55,154.13a9.87,9.87,0,0,1-1.08.23,1.78,1.78,0,0,1-1.14,0,.58.58,0,0,1-.29-.64,1.44,1.44,0,0,1,1.13-.87,2.13,2.13,0,0,1,1.49.13A.61.61,0,0,1,302.55,154.13Z" style="fill:#263238"></path><path d="M292.54,158.61c.33-.2.59-.43.89-.65s.64-.43.78-.84a.57.57,0,0,0-.28-.64,1.44,1.44,0,0,0-1.41.28,2.1,2.1,0,0,0-.88,1.2A.61.61,0,0,0,292.54,158.61Z" style="fill:#263238"></path><path d="M299.9,169.4c.34.14.7.38,1.08.27a2.93,2.93,0,0,0,1-.67,0,0,0,0,1,.07,0,1.49,1.49,0,0,1-1.09,1.05,1.16,1.16,0,0,1-1.14-.6S299.85,169.38,299.9,169.4Z" style="fill:#263238"></path><path d="M303,166.06a4.4,4.4,0,0,1-.93,2,2,2,0,0,1-1,.63c-.89.2-1.28-.5-1.46-1.18a5.31,5.31,0,0,1-.14-1.12A5.74,5.74,0,0,0,303,166.06Z" style="fill:#263238"></path><path d="M302.09,168.1a2,2,0,0,1-1,.63c-.89.2-1.28-.5-1.46-1.18A2.06,2.06,0,0,1,302.09,168.1Z" style="fill:#ff9cbd"></path><path d="M302.45,164s.87,1.39,1.18,2.09c0,.07-.12.17-.35.29l0,0a3.67,3.67,0,0,1-3.79.2c-.08-.05,0-.16.06-.15a5.47,5.47,0,0,0,3.43-.48c0-.22-1.57-2.34-1.46-2.4a6.87,6.87,0,0,1,1.75-.35c-1.72-2.95-3.91-5.61-5.58-8.58a.1.1,0,0,1,.16-.12,55,55,0,0,1,6.41,9C304.46,163.82,302.79,163.94,302.45,164Z" style="fill:#263238"></path><path d="M296.51,161.18s-.06.08,0,.12c.49,1,.88,2.14.15,2.88,0,0,0,.07,0,0C297.66,163.57,297.12,162,296.51,161.18Z" style="fill:#263238"></path><path d="M294.38,161.66a2.77,2.77,0,0,0,.26.55,1.78,1.78,0,0,1-.06.47.81.81,0,0,1-.61.63c-.64.13-1.11-.42-1.35-1,0-.05,0-.08,0-.06.37.24.77.48,1.11.3s.41-.56.6-.84h0Z" style="fill:#263238"></path><path d="M297,162.22a1.61,1.61,0,0,1,0,.87,1.18,1.18,0,0,1-.62.71,1.08,1.08,0,0,1-1-.05,1.88,1.88,0,0,1-.62-.6,3.88,3.88,0,0,1-.24-.45,2.28,2.28,0,0,1-.22-1,3.75,3.75,0,0,0,.36.69,4.09,4.09,0,0,0,.42.56c.32.36.72.6,1.05.42a.92.92,0,0,0,.43-1,8,8,0,0,0-.34-1.45A3.42,3.42,0,0,1,297,162.22Z" style="fill:#263238"></path><path d="M301.87,158.49s.1,0,.12,0c.44,1,1.12,2,2.15,1.91,0,0,.05.05,0,.06C303,160.89,302.14,159.49,301.87,158.49Z" style="fill:#263238"></path><path d="M303.57,157.13a3,3,0,0,1,.26.54,1.61,1.61,0,0,0,.41.25.82.82,0,0,0,.88-.09c.5-.42.36-1.13,0-1.7,0,0-.06,0-.07,0,0,.44-.1.9-.45,1.06s-.7,0-1-.06h0Z" style="fill:#263238"></path><path d="M302.36,159.55a1.71,1.71,0,0,0,.68.55,1.23,1.23,0,0,0,.94,0,1.08,1.08,0,0,0,.56-.78,1.88,1.88,0,0,0-.09-.86,2.76,2.76,0,0,0-.2-.47,2.19,2.19,0,0,0-.68-.82,3.68,3.68,0,0,1,.32.7,5.78,5.78,0,0,1,.17.69c.08.47,0,.93-.32,1.08a.93.93,0,0,1-1.08-.31,7.32,7.32,0,0,1-.92-1.17A3.3,3.3,0,0,0,302.36,159.55Z" style="fill:#263238"></path><path d="M279.19,170.81c1.86-.56,6.21-1.9,8-5.13,1-1.78,1.51-4.34.88-8.35-1.11-7,1.67-12.94,10-11.78,0,0-.84-6.57-5.81-7.4s-7.56,4.75-7.56,4.75-9.33,2.52-11.55,11.15S279.19,170.81,279.19,170.81Z" style="fill:#263238"></path><path d="M281.09,158.19a5.49,5.49,0,0,1,3,5.05c-.26,3.47-3.72,4.83-3.72,4.83a3.44,3.44,0,0,1-3.3,2.66,3.85,3.85,0,0,1-3.82-2,5,5,0,0,1-3.06-3.05c-.58-2.16.8-4.24.59-4.28,0,0,0-3.38,2.31-4.43a4,4,0,0,1,3.77-.12A3.14,3.14,0,0,1,281.09,158.19Z" style="fill:#FFC727"></path><path d="M272,166.53a2.91,2.91,0,0,1-.31-4.17s-.62-3.27,2.6-3.62a3.8,3.8,0,0,1,6.74,2.45,2.73,2.73,0,0,1,1.29,2.7,3.53,3.53,0,0,1-2.19,3s-.55,1.93-1.9,2.4a3.56,3.56,0,0,1-2.78-.53S272.21,169.75,272,166.53Z" style="opacity:0.1"></path><path d="M280.15,161.49a3.44,3.44,0,0,1,.53,3.65,3.83,3.83,0,0,1-3.31,1.93,2.16,2.16,0,0,1-2.55.76,2.43,2.43,0,0,1-1.75-2.09,3.16,3.16,0,0,1-1.06-2.5c.18-1.4,1.48-2.28,1.36-2.36s.81-2,2.4-2a2.55,2.55,0,0,1,2.23.83A2,2,0,0,1,280.15,161.49Z" style="fill:#FFC727"></path><path d="M279.79,162.21a1.88,1.88,0,0,1-.6,2.63,1.9,1.9,0,0,1-2.29,1.73,2.45,2.45,0,0,1-3.68-2.79,1.78,1.78,0,0,1-.28-1.91,2.3,2.3,0,0,1,1.91-1.39s.7-1.09,1.62-1.12a2.3,2.3,0,0,1,1.61.86S280.28,160.2,279.79,162.21Z" style="opacity:0.1"></path><path d="M276.18,165.87a2.19,2.19,0,0,1-2.11-1,2.42,2.42,0,0,1,.14-2.41,1.36,1.36,0,0,1,.48-1.61,1.52,1.52,0,0,1,1.71-.18,2,2,0,0,1,1.68.31c.68.58.69,1.56.77,1.53s.75,1.11.23,2a1.61,1.61,0,0,1-1.21.88A1.24,1.24,0,0,1,276.18,165.87Z" style="fill:#FFC727"></path><path d="M277.73,163.76q-.45-.24-.87-.51l1.3-.22a.17.17,0,0,0,0-.33c-.45,0-.9.1-1.34.18a9.28,9.28,0,0,1,.93-.84c.16-.14,0-.4-.2-.27a9.08,9.08,0,0,0-1.07,1,5.09,5.09,0,0,0-.1-.94.17.17,0,0,0-.33,0c0,.31.07.66.08,1a6.19,6.19,0,0,0-.75-.51c-.18-.11-.39.13-.21.26l.78.55-1,.43a.17.17,0,0,0,.12.31l.77-.25-.72.88a.17.17,0,0,0,.23.24,5.88,5.88,0,0,0,1-1c0,.22,0,.45,0,.68s.27.21.32.05a1.89,1.89,0,0,0,0-.91c.27.17.54.33.82.47S277.93,163.85,277.73,163.76Z" style="opacity:0.1"></path><path d="M284.46,169.09s-5.06-3.46-6.74-1.48,3.35,7.85,6.2,7.84a2.72,2.72,0,0,0,2.89-2.66Z" style="fill:#ad6359"></path><path d="M279.2,169.26a0,0,0,0,0,0,.07c2,0,3.56,1.32,4.85,2.77a1.5,1.5,0,0,0-2.25.41c0,.05,0,.1.09.07a1.67,1.67,0,0,1,1.92-.1,8.27,8.27,0,0,1,1.36,1.08c.14.13.39-.07.26-.22l0,0C284.61,171.05,281.69,168.57,279.2,169.26Z" style="fill:#263238"></path><path d="M283.7,186c.19,2,7.93,13.16,10,15.7,2.32,2.8,8.82,9,8.82,9s.15-6-.46-8.63-6.89-14.24-6.89-14.24Z" style="fill:#ad6359"></path><path d="M280.3,187.39c7.51,0,8.64,29.82-3.28,29.35C264.83,216.27,271.29,187.39,280.3,187.39Z" style="fill:#ad6359"></path><path d="M273.54,192.49c-12.23,21.1-30.51,63.25-33.81,70.18-2.24,4.7,23.13,16.68,24.17,13.26,1.34-4.38,17.91-53.59,19-78.75C283.43,185.52,277.45,185.74,273.54,192.49Z" style="fill:#ad6359"></path><path d="M264.56,273.57c-.57,4.26-3.46,12.84-5.62,14.15s-13.46,1-19.16,1-6.82-1.59-6.73-3.55,12.06-2.34,12.06-2.34-16,4.58-20,5.33-13.28,3.08-14.62-.25c-.6-1.5,1.93-3,1.93-3s-3.88,1.13-4.5-.8c-.7-2.2,2.38-3.41,2.38-3.41s-2.42.49-2.48-1.3c-.12-4,15.07-6,15.07-6s-11.63,5.67-12,2.4c-.51-4.52,23.33-9.48,25.81-11.45a46.46,46.46,0,0,0,5.05-4.91Z" style="fill:#ad6359"></path><path d="M233.14,286.19a1.75,1.75,0,0,1,.54-1.52,4.82,4.82,0,0,1,1.39-.9,18,18,0,0,1,3.26-1.06c2.25-.57,4.55-1,6.85-1.57a28.32,28.32,0,0,0-7,.79,12.62,12.62,0,0,0-3.36,1.29,4.35,4.35,0,0,0-1.4,1.2A1.81,1.81,0,0,0,233.14,286.19Z" style="fill:#263238"></path><path d="M212.43,284.92c1.65-.4,3.27-.87,4.88-1.33s3.23-1,4.84-1.45l4.81-1.51c1.6-.5,3.21-1,4.83-1.48a36.45,36.45,0,0,0-5,.89c-1.65.37-3.27.84-4.89,1.33s-3.21,1-4.79,1.63S214,284.21,212.43,284.92Z" style="fill:#263238"></path><path d="M227.93,275.16a32.54,32.54,0,0,0-4.61.63c-1.52.3-3,.71-4.51,1.16a42.3,42.3,0,0,0-4.36,1.63,32.87,32.87,0,0,0-4.13,2.13c1.46-.5,2.89-1.07,4.36-1.55s2.9-1,4.37-1.44,2.94-.9,4.42-1.33S226.43,275.56,227.93,275.16Z" style="fill:#263238"></path><path d="M225.58,271.34a28.85,28.85,0,0,0-7.34,1.55,28.2,28.2,0,0,0-6.74,3.27c2.36-.84,4.66-1.73,7-2.51S223.2,272.11,225.58,271.34Z" style="fill:#263238"></path><path d="M280.39,215.92A116,116,0,0,1,283.75,201a115.24,115.24,0,0,1-3.36,14.94Z" style="fill:#263238"></path><path d="M284.19,203.07a3.76,3.76,0,0,1-1.48,2.76,7.32,7.32,0,0,1,1.48-2.76Z" style="fill:#263238"></path></g><g id="freepik--character-3--inject-575"><path d="M445.9,388.2s-21.07,35.43-21.09,35.45c-3.42,7.17-6.28,13.51-7.46,16.93a.08.08,0,0,0,0,.05,5.51,5.51,0,0,0-.53,2.47s0,0,0,.06c1.45,2.46,57.9,31.45,60.2,31.79s3.49-6.2,2.19-9.07-17.95-23.64-17.95-23.64L482,406.66Z" style="fill:#f7a9a0"></path><path d="M476.12,474.73c-2.31-.35-57.86-29.11-59.29-31.56a.36.36,0,0,1,0-.07,5.61,5.61,0,0,1,.53-2.46s0,0,0-.06c1.18-3.42,4-9.76,7.46-16.93,0,0,3.55-6.19,5-8.34l35.88,19.55-4.39,7.38s15.74,20.53,17,23.4S478.43,475.08,476.12,474.73Z" style="fill:#ebebeb"></path><path d="M477.18,474c-2.33-.4-58.53-30.94-59.93-33.46-.55-.95,3.42-9.4,8.51-19.47l.17-.31L462.41,440l-.35.61s16.29,21.31,17.53,24.25S479.49,474.39,477.18,474Z" style="fill:#37474f"></path><path d="M465.05,442.4c-3.35-2.73-8.22-4.63-12.52-3.52-.16,0-.1.28,0,.3a59.44,59.44,0,0,1,12.21,3.68A.27.27,0,0,0,465.05,442.4Z" style="fill:#263238"></path><path d="M466.86,445.48c-3.35-2.72-8.22-4.63-12.52-3.52-.16,0-.1.28,0,.31a60,60,0,0,1,12.21,3.67A.27.27,0,0,0,466.86,445.48Z" style="fill:#263238"></path><path d="M468.67,448.56c-3.35-2.72-8.22-4.62-12.52-3.51-.16,0-.1.27,0,.3A59.44,59.44,0,0,1,468.4,449,.27.27,0,0,0,468.67,448.56Z" style="fill:#263238"></path><path d="M464.49,443.83,468,469.44a96.7,96.7,0,0,0,9.15,4.53c2.32.42,3.66-6.17,2.43-9.1C478.65,462.66,469.08,449.89,464.49,443.83Z" style="opacity:0.1"></path><path d="M479.13,472.42c.79.94-1.26,4.2-2.13,4.08S415,442.81,414.07,442s1.5-4.33,2.81-3.86S479.13,472.42,479.13,472.42Z" style="fill:#263238"></path><path d="M423.82,419.75l40.64,21.51S521,359.77,521.83,340.43c1.11-26.71-22.66-111.19-22.66-111.19l-36.36.17s15.79,87,14.76,101.87C477,339.06,423.82,419.75,423.82,419.75Z" style="fill:#FFC727"></path><path d="M468.18,433c-2.09-1.54-21.35-12.91-36-20.2-.09-.05-.16.09-.07.15,4.44,3,33.19,19.06,36,20.2C468.16,433.14,468.27,433,468.18,433Z" style="fill:#263238"></path><path d="M482.4,312.6q-2.75-19.11-6.1-38.11c-2.28-12.72-4.67-25.44-7.48-38.05-.35-1.54-.7-3.08-1.06-4.62a.19.19,0,0,0-.37.08c2.39,12.52,4.83,25,7,37.58s4.28,25.13,6.15,37.74c.46,3.12.91,6.25,1.35,9.37a81.71,81.71,0,0,1,1,9.73,24.74,24.74,0,0,1-1.45,9.14,53.31,53.31,0,0,1-4.09,8.26c-6.45,11.2-40.63,67.35-41.37,68.77-.05.09.08.19.13.09,6.95-11.05,33.75-53.51,40.29-64.9,2.95-5.13,6.34-10.34,7.25-16.3C484.68,325.18,483.29,318.73,482.4,312.6Z" style="fill:#263238"></path><path d="M469.28,412.1s.07,41.49.07,41.52c.31,7.93.73,14.87,1.27,18.45a.07.07,0,0,0,0,.05,5.44,5.44,0,0,0,.69,2.43.1.1,0,0,0,0,.05c2.43,1.51,65.88.87,68.08.1s.2-7.11-2.29-9.05-26.89-12.56-26.89-12.56l-.46-41.45Z" style="fill:#f7a9a0"></path><path d="M469.34,445.1s0,8.49,0,8.52c.31,7.93.73,14.87,1.27,18.45a.07.07,0,0,0,0,.05,10.7,10.7,0,0,0,.69,2.43.1.1,0,0,0,0,.05c2.43,1.51,65.88.87,68.08.1s.2-7.11-2.29-9.05-26.89-12.56-26.89-12.56l-.1-8.65Z" style="fill:#ebebeb"></path><path d="M539.47,474.62c-2.24.74-66.2.36-68.62-1.21-.93-.57-1.42-9.9-1.69-21.18v-.35l41.27-.22,0,.7s24.41,11.1,26.9,13.1S541.71,473.89,539.47,474.62Z" style="fill:#37474f"></path><path d="M513.87,452.51c-4.23-.82-9.43-.2-12.69,2.81-.12.11,0,.29.18.25A59.66,59.66,0,0,1,513.85,453,.27.27,0,0,0,513.87,452.51Z" style="fill:#263238"></path><path d="M516.93,454.37c-4.24-.81-9.44-.19-12.7,2.81-.12.12,0,.29.18.25a59.73,59.73,0,0,1,12.5-2.52A.27.27,0,0,0,516.93,454.37Z" style="fill:#263238"></path><path d="M520,456.24c-4.24-.82-9.43-.2-12.69,2.8-.13.12,0,.3.17.26a59.75,59.75,0,0,1,12.5-2.53A.27.27,0,0,0,520,456.24Z" style="fill:#263238"></path><path d="M540.46,472.33c1.15.45.88,4.3,0,4.6s-70.57-.43-71.76-.7-.72-4.52.66-4.73S540.46,472.33,540.46,472.33Z" style="fill:#263238"></path><path d="M494.92,229.21l0,0c-.23.76-12.88,36.71-14.11,37.3-1.38.65,29.46,51.13,31.52,74.72,1.32,15.08.18,110.69.18,110.69l-44.23.51s1.12-87,1.85-111.33c.28-9.44-31-56.09-31.74-85.35-.22-9.22,6.21-26.16,6.21-26.16Z" style="fill:#FFC727"></path><path d="M470.36,340.47c0-.39-.32-.51-.34-.11-.85,13.18-.93,26.29-1.41,39.49s-.06,18-.49,31.19c-.25,7.45.25,23.35.16,30.8a.1.1,0,0,0,.19,0C469.69,428.7,470.43,347.93,470.36,340.47Z" style="fill:#263238"></path><path d="M512.32,341.78a64.19,64.19,0,0,0-1-9.69,48.25,48.25,0,0,0-2.83-9.08c-2.52-6.13-5.48-12.11-8.31-18.1s-5.79-12.12-8.81-18.11q-2.53-5.06-5.12-10.1c-1.74-3.4-3.61-6.74-5.43-10.09-.07-.13-.28,0-.21.1,2.91,6.06,5.77,12.13,8.68,18.18S495,297,497.9,303.1s5.62,12,8.27,18a60.54,60.54,0,0,1,3.26,8.91,52.18,52.18,0,0,1,1.41,9.62c.51,7.56.81,15.13,1.64,22.66,0,.09.16.08.17,0C512.79,355.46,512.61,348.6,512.32,341.78Z" style="fill:#263238"></path><path d="M509.19,443.09c-2.58-.29-22.19-.58-38.57.45a.09.09,0,0,0,0,.17c5.35.37,35.54,0,38.54-.43C509.27,443.26,509.31,443.1,509.19,443.09Z" style="fill:#263238"></path><path d="M486.89,264.9a87.93,87.93,0,0,0-13.78,4.56.14.14,0,1,0,.1.26c4.63-1.39,9.33-2.7,13.87-4.32C487.44,265.28,487.25,264.81,486.89,264.9Z" style="fill:#263238"></path><path d="M491,237c0-.14-.27-.19-.28,0a126.57,126.57,0,0,1-2.11,13.59c-.42,2.09-3.43,13.57-7.32,12.4-.65-.2-.93-.83-.94-1.76a13.36,13.36,0,0,1,.88-3.52c.69-2.4,1.29-4.82,1.76-7.26a62,62,0,0,0,1.21-13.78.13.13,0,0,0-.25,0,117.89,117.89,0,0,1-3.11,18.9c-.8,3-2.92,7.4.48,8.15s6.5-6.68,7.14-8.73A64.66,64.66,0,0,0,491,237Z" style="fill:#263238"></path><path d="M481.4,263.28a18.72,18.72,0,0,0-1.14,2.34,5.27,5.27,0,0,0-.57,1.95c0,.13.19.16.27.08a7.2,7.2,0,0,0,1.12-1.86c.37-.72.77-1.43,1.12-2.16C482.44,263.14,481.67,262.82,481.4,263.28Z" style="fill:#263238"></path><path d="M475,353.41c.15-6.29.77-12.89-1.36-18.93a63.71,63.71,0,0,0-4.13-8.57q-2.35-4.41-4.62-8.86c-6.05-11.87-11.76-23.93-16.88-36.23a77.47,77.47,0,0,1-5.6-18.38,56.53,56.53,0,0,1,1-20.08c.36-1.64.73-3.28,1.16-4.9a.09.09,0,0,0-.18-.06,65.81,65.81,0,0,0-3.23,19.23,54.42,54.42,0,0,0,3.54,18.3c2.19,6.15,4.92,12.12,7.6,18.06q4.16,9.19,8.62,18.25c3,6,6.12,11.89,9.24,17.81a32.37,32.37,0,0,1,3.5,9,46.74,46.74,0,0,1,.48,9.89c-.36,13.92-.91,70.36-.92,84.23,0,1.77,0,3.53,0,5.29a.13.13,0,0,0,.25,0C474.22,423.62,474.7,367.29,475,353.41Z" style="fill:#263238"></path><path d="M463.86,238.58c0-.09-.14-.07-.15,0-.41,3.26-.62,6.65-2.19,9.63A13.65,13.65,0,0,1,454.7,254c-1.62.72-3.31,1.29-5,1.85-.13,0-.1.22,0,.19,3.19-.67,6.43-1.43,9.19-3.21a11.13,11.13,0,0,0,4.88-8.28A28.18,28.18,0,0,0,463.86,238.58Z" style="fill:#263238"></path><path d="M493.29,233.89c0-.06,0,0,.06,0a33.1,33.1,0,0,0,2.62,6.46,9.12,9.12,0,0,0,3.81,3.52,20.07,20.07,0,0,0,2.36.95c.06,0,.08.15,0,.14a9.89,9.89,0,0,1-4.31-1.62,11,11,0,0,1-3.48-5.37A34.55,34.55,0,0,1,493.29,233.89Z" style="fill:#263238"></path><path d="M501.94,239.39l-5.26,2-.54.2-5.46,2-.81.3-.2.07-6,2.22-1,.36-9.62,3.59-1.44-.12-.84-.09-4.48-.39-4-.36-1.34-.11-18.45-1.63-.54-.05-2.64-.23a134.55,134.55,0,0,1,5.21-17.53l18.24-.16a.28.28,0,0,1,0-.06l17.72-.08,14.39-.12v0h0l4.27,0S500.26,233.08,501.94,239.39Z" style="opacity:0.1"></path><path d="M465.35,162.41c21.46,9.31,32.49,16,34.81,23.7,4.25,14.22-1.16,23.35-10.11,17-10.33-7.27-20.4-20.17-30.8-33.64C449.1,156.35,460.05,160.11,465.35,162.41Z" style="fill:#ebebeb"></path><path d="M498.13,203.41c5.1-3.09,3.82-4.2,11.75-24,1.22-3-19-26-20.1-22.69-1.35,4.2-5.59,20.59-5.75,21.84C482.67,189.08,494.67,205.51,498.13,203.41Z" style="fill:#d3766a"></path><path d="M486.13,161.34l25.41,23.6s-9,18.22-14.35,19.83c-3.84,1.15-15.34-14.71-13.81-26.41Z" style="fill:#ebebeb"></path><path d="M505.13,187.93c-2.55-2.17-5-4.48-7.41-6.79s-4.86-4.63-7.23-7c-1.34-1.34-2.69-2.68-4-4.06,0,0,0-.11.06-.07,2.55,2.17,5,4.47,7.43,6.76s4.86,4.63,7.26,7c1.35,1.32,2.68,2.68,4,4.06C505.3,187.87,505.2,188,505.13,187.93Z" style="fill:#263238"></path><path d="M485.83,161.31a29.06,29.06,0,0,0-.83,3.81c-.23,1.29-.48,2.57-.63,3.87a114.56,114.56,0,0,0-1.13,13.44c.55,9.36,4.12,13.76,4.89,15.1,0,.05.28-.22.25-.27a37.81,37.81,0,0,1-4.21-12.82c-.52-5,1.95-21.8,2-22.78.09.05,1.74,1.51,1.84,1.55s.15,0,.1-.11-1.82-1.69-1.95-1.85A.19.19,0,0,0,485.83,161.31Z" style="fill:#263238"></path><path d="M439.63,243.72l34.61,2.9,11-11.68,11.93,4.24,5-7.5c.05-.18-4.07-18.69-7.67-25.34-7.67-14.21-23.48-36.7-37.19-44.29-4-2.21-16-.49-17.32,6.6-3.1,16.76.13,36.53,3.09,50.18C443.82,222.1,439.47,243.64,439.63,243.72Z" style="fill:#FFC727"></path><path d="M485.25,234.94c-1-5.74-2.48-19.3-3.95-24.7-4.86-9.8-10.94-19.61-16.25-29.23L461,173.68c1.54,2.33,3,4.71,4.5,7.07,5.72,9.49,11.9,19.15,16.66,29.15,1.91,8.22,2.28,16.66,3.11,25Z" style="fill:#263238"></path><path d="M438,177.6c1.2,16.88,8.24,50.57,12.35,55,3.64,3.92,33.11,2.41,42.6,2.48,3.55,0,2.35-27.34-1.45-27.29-4.55.06-26.23,3.18-27,2.24S455,186.39,448.2,174.81C442,164.31,437.57,171.21,438,177.6Z" style="fill:#d3766a"></path><path d="M489.9,239.18l-1.51-32.64-23.18,2.74c-4.68-9.12-13.94-31-18.12-36.85-4.91-6.83-10-3.86-9.68,4.7.69,19.59,9.08,53.84,12.44,57.41C454.66,239.65,489.9,239.18,489.9,239.18Z" style="fill:#ebebeb"></path><path d="M482.67,234.43c-.48-2-1.09-10.28-1.22-12.35s-.36-10.41-.49-12.55c0-.11.16-.16.17,0,.16,2.11,1.05,10.44,1.2,12.51s.65,10.38.45,12.42A.06.06,0,0,1,482.67,234.43Z" style="fill:#37474f"></path><path d="M452.41,182.34c4.57,8.24,8.18,17,12.42,25.37.18.29.46.91.66,1.17l-.05,0c1.59-.06,7.67-.73,9.72-1,4.42-.48,8.85-1,13.29-1.41v.06l-.07.81,0-.81.06.05c-7.1,1.24-14.23,2.36-21.41,3.1a5.44,5.44,0,0,1-2.05,0,2.48,2.48,0,0,1-.58-.77c-4.41-8.53-8-17.82-11.95-26.57Z" style="fill:#37474f"></path><path d="M453.53,182.88a3,3,0,0,1,.75,3.11,4.19,4.19,0,0,1-.75-3.11Z" style="fill:#37474f"></path><path d="M462.56,238c9.12-.11,18.24.2,27.35.7l-.46.47a34.46,34.46,0,0,1,.24-4.42,33.45,33.45,0,0,1,.69,4.86h-.5c-9.12-.27-18.24-.72-27.32-1.6Z" style="fill:#37474f"></path><path d="M442.33,163.86c.87,3.56,19.52,11.26,19.52,11.26s-2.69-11.24-4.9-14.42S441.87,162,442.33,163.86Z" style="fill:#ebebeb"></path><path d="M456.34,171.57c-2.67,1-10-2.25-13.54-5.81-.25-.25-.71-3.46-1.45-7.32-.46-2.35-1-4.95-1.72-7.29l15.7-.77a38.91,38.91,0,0,0,1.24,9.39,5.17,5.17,0,0,0,.38.93,1.07,1.07,0,0,1,.07.15C457.85,162.58,460.53,170,456.34,171.57Z" style="fill:#d3766a"></path><path d="M441.21,157.76c4.26,3.55,10.08,6.53,16.2,4-.16-.37-.28-.67-.39-.88a1,1,0,0,1-.07-.15,4.89,4.89,0,0,1-.38-.93,38.91,38.91,0,0,1-1.24-9.39l-15.7.78C440.26,153.26,440.78,155.6,441.21,157.76Z" style="fill:#263238"></path><path d="M429.05,139.15c.56,5.63,9.23,19,14.13,20.71,7.11,2.51,15.73-.56,17.11-8.42,1.34-7.61-10.27-24.79-15.46-26.06C437.18,123.51,428.22,130.82,429.05,139.15Z" style="fill:#d3766a"></path><path d="M444.78,143a1.65,1.65,0,0,1-.12-.82,1.14,1.14,0,0,1,.5-.75,1,1,0,0,1,.9-.08,1.75,1.75,0,0,1,.67.48,3.58,3.58,0,0,1,.29.39,2.42,2.42,0,0,1,.35,1,3.82,3.82,0,0,0-.43-.6,4.23,4.23,0,0,0-.48-.47c-.35-.29-.76-.46-1-.26a.89.89,0,0,0-.27,1,7.61,7.61,0,0,0,.52,1.33A3.29,3.29,0,0,1,444.78,143Z" style="fill:#263238"></path><path d="M443,140.71a10.51,10.51,0,0,0,.91-1.09,2.23,2.23,0,0,0,.72-1.29.74.74,0,0,0-.55-.7,1.79,1.79,0,0,0-1.67.78,2.66,2.66,0,0,0-.73,1.77A.78.78,0,0,0,443,140.71Z" style="fill:#263238"></path><path d="M452.35,135.14a12.68,12.68,0,0,1-1.37.4,2.29,2.29,0,0,1-1.46.13.71.71,0,0,1-.42-.78,1.8,1.8,0,0,1,1.37-1.22,2.7,2.7,0,0,1,1.92,0A.78.78,0,0,1,452.35,135.14Z" style="fill:#263238"></path><path d="M451.14,151a1.56,1.56,0,0,0,1.1.08,2.88,2.88,0,0,0,.85-.82,0,0,0,0,1,.07,0,1.45,1.45,0,0,1-.87,1.19,1.14,1.14,0,0,1-1.21-.38C451,151,451.09,151,451.14,151Z" style="fill:#263238"></path><path d="M451.1,147.28a3,3,0,0,0,3.34-.54.27.27,0,0,0,.07-.32h0l-1.23-1.94c.34,0,2-.21,1.77-.57a55.13,55.13,0,0,0-6.86-8.77.1.1,0,0,0-.16.13c1.82,2.92,4.14,5.5,6,8.4a6.32,6.32,0,0,0-1.75.43,24.88,24.88,0,0,0,1.58,2.36,4.28,4.28,0,0,1-2.72.69C451,147.14,451,147.24,451.1,147.28Z" style="fill:#263238"></path><path d="M449.13,151.32c2.47-2.18,2.17-5.34-.38-7.23,3.71.79,3.63,5.82.38,7.23Z" style="fill:#263238"></path><path d="M455.35,141.94c-1.53,2.12-.37,4.71,1.81,5.81a3.08,3.08,0,0,1-1.71-.75,3.36,3.36,0,0,1-.1-5.06Z" style="fill:#263238"></path><path d="M451.76,138.45a1.58,1.58,0,0,1-.14-.82,1.12,1.12,0,0,1,.48-.76,1,1,0,0,1,.91-.09,1.78,1.78,0,0,1,.67.46q.17.19.3.39a2.26,2.26,0,0,1,.36,1,2.93,2.93,0,0,0-.44-.59,3.46,3.46,0,0,0-.48-.46c-.36-.29-.77-.45-1.05-.24a.87.87,0,0,0-.25,1,7.34,7.34,0,0,0,.54,1.32A3.14,3.14,0,0,1,451.76,138.45Z" style="fill:#263238"></path><path d="M436.35,151.66c2.74-1.67-.36-6.33-.36-6.33s4.93-4.25,1.08-11.64c0,0,9.6-2.19,11.12-8.82s-15.62-9.93-22.25,7.49c0,0-5.32,4.76-3.18,10.21S433,153.68,436.35,151.66Z" style="fill:#263238"></path><path d="M436.39,133a.08.08,0,0,0-.11.12c3.81,4.1,3.48,10.23-1.71,13a.15.15,0,0,0,.13.28C440.14,144.16,441.61,136.39,436.39,133Z" style="fill:#263238"></path><path d="M435.06,121.09s0,0,0,0a19.79,19.79,0,0,1,5.7-1.83c3-.36,7.79.58,7.92,4.4.17,5.23-6.27,7.81-10.39,9.11a.22.22,0,0,0,.09.44c4.55-.64,12.25-4.83,10.82-10.48C447.63,116.5,438.81,118.88,435.06,121.09Z" style="fill:#263238"></path><path d="M437.69,149.54s-5.28-3.2-6.87-1.12,3.8,7.72,6.67,7.55a2.74,2.74,0,0,0,2.77-2.83Z" style="fill:#d3766a"></path><path d="M432.4,150s0,.07,0,.07c2-.07,3.66,1.14,5,2.52a1.51,1.51,0,0,0-2.24.53.06.06,0,0,0,.09.08,1.68,1.68,0,0,1,1.93-.22,8,8,0,0,1,1.42,1c.15.12.4-.09.26-.24l0,0C438,151.5,434.87,149.17,432.4,150Z" style="fill:#263238"></path><path d="M456.37,158.47l.52,9.7-15-5.62-1.34,4.65s17.58,11.82,17.3,11.05l.09-8.61,7.15,2.64L459,160.15Z" style="fill:#ebebeb"></path><path d="M462.43,166.11c-1.07-2-2.1-4-3.27-5.89,0-.07-.17-.05-.15,0,.51,2.15,4.66,9.66,5.52,11.52h0c-.3-.12-6.51-2.22-6.53-2.13-.21,1.45-.29,7.74-.25,8.28-2.78-1.88-13.22-8.57-16.23-10.17a.07.07,0,1,0-.08.12C444.07,170,458,179.06,458.09,179a85.26,85.26,0,0,0,.06-9.09c1.15.55,7.65,3.16,7.52,2.85A71.07,71.07,0,0,0,462.43,166.11Z" style="fill:#263238"></path><path d="M519.51,192.22c.46-.48,13.29-3.74,14.7-3.89s22,1.73,22.65,2.71a7.79,7.79,0,0,1,0,2.11c0,.52-2,1.68-2,2.35-.61,7.67-.79,23.56-1.83,26.58-2.52,7.33-12.91,19.2-14.92,20.69s-14.17,4-15.66,3.85-16.2-10.84-19.5-16.79-24.67-81.45-25.08-82.78-4.87-3.05-6.42-3.34-16.57,2.82-17.39,3,.32-1,.75-1.31,14.89-8.73,16.76-8.93,13.54,2.34,15.44,3.78,34.1,76.21,35.35,77a1.83,1.83,0,0,0,2.62-1.07c.26-.57-1.73-12.83-3.16-19.47-.12-.58-2.11-1.68-2.19-2.15C519.38,193.26,519.33,192.41,519.51,192.22Z" style="fill:#FFC727"></path><path d="M519.51,192.22c.46-.48,13.29-3.74,14.7-3.89s22,1.73,22.65,2.71a7.79,7.79,0,0,1,0,2.11c0,.52-2,1.68-2,2.35-.61,7.67-.79,23.56-1.83,26.58-2.52,7.33-12.91,19.2-14.92,20.69s-14.17,4-15.66,3.85-16.2-10.84-19.5-16.79-24.67-81.45-25.08-82.78-4.87-3.05-6.42-3.34-16.57,2.82-17.39,3,.32-1,.75-1.31,14.89-8.73,16.76-8.93,13.54,2.34,15.44,3.78,34.1,76.21,35.35,77a1.83,1.83,0,0,0,2.62-1.07c.26-.57-1.73-12.83-3.16-19.47-.12-.58-2.11-1.68-2.19-2.15C519.38,193.26,519.33,192.41,519.51,192.22Z" style="opacity:0.1"></path><path d="M512.06,215.77c.22,0,8.13-3.31,8.22-3.49s-.53-1.48-.63-1.71-7.95,4.13-8,4.3S511.88,215.76,512.06,215.77Z" style="fill:#FFC727"></path><path d="M511.44,213a2.05,2.05,0,0,1,1.38,3.86,2.19,2.19,0,0,1-2.52-1.31A2.07,2.07,0,0,1,511.44,213Z" style="fill:#FFC727"></path><g style="opacity:0.2"><path d="M512.06,215.77c.22,0,8.13-3.31,8.22-3.49s-.53-1.48-.63-1.71-7.95,4.13-8,4.3S511.88,215.76,512.06,215.77Z"></path><path d="M511.44,213a2.05,2.05,0,0,1,1.38,3.86,2.19,2.19,0,0,1-2.52-1.31A2.07,2.07,0,0,1,511.44,213Z"></path></g><path d="M507.19,204.69c.21,0,8.12-3.31,8.22-3.49a6.75,6.75,0,0,0-.63-1.71c-.1-.23-7.95,4.13-8,4.3S507,204.68,507.19,204.69Z" style="fill:#FFC727"></path><path d="M506.56,202a2.05,2.05,0,0,1,1.38,3.86,2.19,2.19,0,0,1-2.52-1.31A2.09,2.09,0,0,1,506.56,202Z" style="fill:#FFC727"></path><g style="opacity:0.2"><path d="M507.19,204.69c.21,0,8.12-3.31,8.22-3.49a6.75,6.75,0,0,0-.63-1.71c-.1-.23-7.95,4.13-8,4.3S507,204.68,507.19,204.69Z"></path><path d="M506.56,202a2.05,2.05,0,0,1,1.38,3.86,2.19,2.19,0,0,1-2.52-1.31A2.09,2.09,0,0,1,506.56,202Z"></path></g><path d="M502.32,193.61c.21,0,8.12-3.3,8.21-3.49a6.51,6.51,0,0,0-.63-1.71c-.1-.23-7.94,4.14-8,4.31S502.13,193.6,502.32,193.61Z" style="fill:#FFC727"></path><path d="M501.69,190.88a2,2,0,0,1,1.38,3.85,2.17,2.17,0,0,1-2.52-1.3A2.07,2.07,0,0,1,501.69,190.88Z" style="fill:#FFC727"></path><g style="opacity:0.2"><path d="M502.32,193.61c.21,0,8.12-3.3,8.21-3.49a6.51,6.51,0,0,0-.63-1.71c-.1-.23-7.94,4.14-8,4.31S502.13,193.6,502.32,193.61Z"></path><path d="M501.69,190.88a2,2,0,0,1,1.38,3.85,2.17,2.17,0,0,1-2.52-1.3A2.07,2.07,0,0,1,501.69,190.88Z"></path></g><path d="M498,182.37c.21,0,7.86-2.89,8-3.08a6.89,6.89,0,0,0-.63-1.71c-.1-.23-7.69,3.72-7.76,3.89S497.78,182.36,498,182.37Z" style="fill:#FFC727"></path><path d="M497.34,179.63a2.05,2.05,0,0,1,1.38,3.86,2.19,2.19,0,0,1-2.52-1.31A2.09,2.09,0,0,1,497.34,179.63Z" style="fill:#FFC727"></path><g style="opacity:0.2"><path d="M498,182.37c.21,0,7.86-2.89,8-3.08a6.89,6.89,0,0,0-.63-1.71c-.1-.23-7.69,3.72-7.76,3.89S497.78,182.36,498,182.37Z"></path><path d="M497.34,179.63a2.05,2.05,0,0,1,1.38,3.86,2.19,2.19,0,0,1-2.52-1.31A2.09,2.09,0,0,1,497.34,179.63Z"></path></g><path d="M493.63,171.13c.21,0,7.43-2.64,7.53-2.82a6.75,6.75,0,0,0-.63-1.71c-.1-.23-7.26,3.46-7.33,3.63S493.44,171.12,493.63,171.13Z" style="fill:#FFC727"></path><path d="M493,168.39a2,2,0,0,1,1.38,3.85,2.17,2.17,0,0,1-2.52-1.3A2.07,2.07,0,0,1,493,168.39Z" style="fill:#FFC727"></path><g style="opacity:0.2"><path d="M493.63,171.13c.21,0,7.43-2.64,7.53-2.82a6.75,6.75,0,0,0-.63-1.71c-.1-.23-7.26,3.46-7.33,3.63S493.44,171.12,493.63,171.13Z"></path><path d="M493,168.39a2,2,0,0,1,1.38,3.85,2.17,2.17,0,0,1-2.52-1.3A2.07,2.07,0,0,1,493,168.39Z"></path></g><path d="M489.28,159.88c.21,0,7.16-2.54,7.25-2.73a6.51,6.51,0,0,0-.63-1.71c-.1-.23-7,3.38-7,3.55S489.09,159.87,489.28,159.88Z" style="fill:#FFC727"></path><path d="M488.65,157.15A2,2,0,0,1,490,161a2.15,2.15,0,0,1-2.51-1.3A2.08,2.08,0,0,1,488.65,157.15Z" style="fill:#FFC727"></path><g style="opacity:0.2"><path d="M489.28,159.88c.21,0,7.16-2.54,7.25-2.73a6.51,6.51,0,0,0-.63-1.71c-.1-.23-7,3.38-7,3.55S489.09,159.87,489.28,159.88Z"></path><path d="M488.65,157.15A2,2,0,0,1,490,161a2.15,2.15,0,0,1-2.51-1.3A2.08,2.08,0,0,1,488.65,157.15Z"></path></g><path d="M552.6,192.67c-.11.86-10.89,3.68-13.45,4.18s-16.71-2-16.63-2.55,11.43-3.85,12.6-3.91S552.73,191.51,552.6,192.67Z" style="opacity:0.30000000000000004"></path><path d="M540.72,201.13c1.61-.5,12.65-4.49,13.12-4.66l-.17-.46c-.12,0-11.5,4.15-13.09,4.65-1.86.57-17.29-3.11-18-3.33l-.17.47C523.06,198,538.66,201.77,540.72,201.13Z" style="fill:#263238"></path><path d="M488.57,165.2a4.79,4.79,0,0,1,.44,1.47c-.07.08-5.4,1.88-5.52,1.9s-.4-.83-.36-.92A56.73,56.73,0,0,1,488.57,165.2Z" style="fill:#263238"></path><path d="M469.16,136a8.06,8.06,0,0,1,2.38-.21c.08.14.31,8.78.29,9s-1.41.21-1.53.12A83.64,83.64,0,0,1,469.16,136Z" style="fill:#263238"></path><path d="M465.23,137.82a6.49,6.49,0,0,1,1.95-.65c.1.1,2,7.59,2.06,7.76s-1.19.47-1.31.4A71.92,71.92,0,0,1,465.23,137.82Z" style="fill:#263238"></path><path d="M489.63,168.07a4.58,4.58,0,0,1,.36,1.49c-.07.07-5.48,1.62-5.59,1.64s-.37-.86-.33-.94A55.81,55.81,0,0,1,489.63,168.07Z" style="fill:#263238"></path><path d="M483.84,148.73c.72-.17,2.13,1,2.42,2,.45,1.55.17,3-.49,3.26-.84.36-2-.68-2.64-2.08C482.8,151.2,482.82,149,483.84,148.73Z" style="fill:#263238"></path><path d="M460.69,141.36c.23.3,1.41,3.64,1.11,3.93s-9.87,2.39-10,2C451.55,146.47,460.46,141,460.69,141.36Z" style="fill:#263238"></path><path d="M546.75,199s.44,21.09.1,22.7-8.72,15.29-10.36,16.79c-1.07,1-8.26,4.44-8.26,4.44s8.48-2.22,9.64-2.94,11.86-13.91,12.31-18.57.71-23.9.71-23.9Z" style="fill:#fff;opacity:0.30000000000000004"></path><path d="M490.68,208.16c6.86-4.23,9.27-4.26,13.16-10.91,2.56-4.36,6.44-4.6,6.2.65-.4,8.59-8.11,15.91-11.51,17.68Z" style="fill:#d3766a"></path><path d="M489,208.16c3.86-2.39,14.38-8.17,30.89-1.45,3.91,1.59,8.36,6.64,1,6.36-5.21-.2-8.46-1.9-11.51-1.47,0,0,4.89,7.09,3.15,11a79.55,79.55,0,0,1-5.29,9.76,17.2,17.2,0,0,1-1.92-.83,19.2,19.2,0,0,1-15,3.41Z" style="fill:#d3766a"></path><path d="M492.51,207.6c3.12.21,9.73.76,15,3.09,5.83,2.59,16.37,9.15,14.41,13.43-1.43,3.14-5.67,1-5.67,1s3.78,3.63,1.86,6.19c-1.74,2.32-4.93.46-4.93.46s1.92,2.6-.19,4.52c-2.55,2.31-6.15-3.51-10.74-3.4C501.2,232.9,492.51,207.6,492.51,207.6Z" style="fill:#d3766a"></path><path d="M503.73,216.39A25.46,25.46,0,0,1,516.21,225c.08.11,0,.22-.05.14a62.68,62.68,0,0,0-12.46-8.67S503.7,216.39,503.73,216.39Z" style="fill:#263238"></path><path d="M501.29,222.36c2.44.84,8.68,4.45,11.95,9.31.07.11,0,.22-.06.14a67.14,67.14,0,0,0-11.92-9.4A0,0,0,1,1,501.29,222.36Z" style="fill:#263238"></path><path d="M485.37,159.54c0,3.07,3.61,1.3,3.61,1.3s-4.57,3.79-3.34,6.94,5.48.75,5.78.59c-.24.2-4.35,3.8-2.78,6.84s5.52.12,5.78-.07c-.17.26-2.32,3.77-.6,5.81,2.94,3.5,8.67-5.32,12.33-5.94,0,0,2.47,5.92,2.56,6.09,0,0,4.9-8.13,3.8-13a3.21,3.21,0,0,0-3.1-2.54s2.11-2.47.95-4.9c-.6-1.24-3.12-1.4-3.12-1.4a4,4,0,0,0,.44-4.15c-.92-1.67-3.31-1.57-3.31-1.57s.63-2.68-.87-4.09C500.48,146.59,485.35,153,485.37,159.54Z" style="fill:#d3766a"></path><path d="M504,153.49a0,0,0,0,0,0-.09,28.46,28.46,0,0,0-15.19,7.52c-.13.13,0,.39.19.28A58.2,58.2,0,0,1,504,153.49Z" style="fill:#263238"></path><path d="M507.3,159.19c.06,0,0-.12,0-.11a26.65,26.65,0,0,0-16.06,9.22c-.14.18-.09.47.09.28C494.21,165.39,502.25,160.83,507.3,159.19Z" style="fill:#263238"></path><path d="M494.26,175.59c4-4.75,9.18-7.72,14.91-10,.08,0,0-.14,0-.13-3.11.36-6.61,2.2-9.21,3.87a16.41,16.41,0,0,0-5.83,6.13C494,175.55,494.17,175.69,494.26,175.59Z" style="fill:#263238"></path><path d="M488.88,160.82c-.15.16.24.21.09.38-.63.67-4.08,5.08-3,6.72.92,1.31,3.32,1,4.19.52l2.2-1.22-1.65,1.91A10.6,10.6,0,0,0,489,172a3.66,3.66,0,0,0-.09,3,2.09,2.09,0,0,0,2.33,1.24,6.26,6.26,0,0,0,2.85-1.43l2.3-1.88-1.56,2.52a9.69,9.69,0,0,0-1,2.25,3.93,3.93,0,0,0-.11,2.29,1.89,1.89,0,0,0,1.49,1.32,4.13,4.13,0,0,0,2.26-.61,32.07,32.07,0,0,0,4.23-2.94c.69-.53,1.39-1.06,2.11-1.56a6.34,6.34,0,0,1,2.35-1.14,6.76,6.76,0,0,0-2.21,1.33c-.67.55-1.32,1.13-2,1.71a28.18,28.18,0,0,1-4.16,3.23,4.83,4.83,0,0,1-2.69.81,2.66,2.66,0,0,1-2.27-1.86,4.84,4.84,0,0,1,0-2.85,10.76,10.76,0,0,1,1.1-2.51l.74.64a7.27,7.27,0,0,1-3.34,1.72,3,3,0,0,1-2-.33,3.36,3.36,0,0,1-1.36-1.51,4.61,4.61,0,0,1,.11-3.8,11,11,0,0,1,2-3.07l.55.69c-1.13.57-3.77,1.22-5.45-.64C483.4,165.82,488,161.55,488.88,160.82Z" style="fill:#263238"></path><path d="M489,160.84a5.85,5.85,0,0,1-1.86.2,1.4,1.4,0,0,1-1.23-.75,2.85,2.85,0,0,1-.1-1.64c.11-.61.25-1.24.43-1.89a5,5,0,0,0-1.08,1.72,2.85,2.85,0,0,0,0,2.19,2.1,2.1,0,0,0,.86.86,2.21,2.21,0,0,0,1.14.18A3.3,3.3,0,0,0,489,160.84Z" style="fill:#263238"></path><path d="M510.61,177.37c.9-3.16,2.36-6.92,1.15-10.12-.58-1.34-2.32-1.26-3.6-1.11.95-1.27,2.13-2.89,2-4.53s-2.22-1.84-3.51-2.13c.7-1.14,1.44-2.69.84-4s-2.09-1.62-3.3-1.89a3.46,3.46,0,0,0,.26-2.31,3.28,3.28,0,0,1,.07,2.27l-.11-.2c1.37.15,2.9.52,3.64,1.84a4.5,4.5,0,0,1-.36,4.19l-.31-.66,1.14.21c3.71.95,2.92,4.54,1.06,6.91l-.42-.79c6.54-.06,3.16,8.91,1.47,12.28Z" style="fill:#263238"></path></g><g id="freepik--character-4--inject-575"><path d="M532.5,475.14c2.24.72,68,0,70.38-1.55.93-.58-4.11-62.89-4.11-62.89l-41.13.34,3.82,41.69S537.09,464,534.62,466,530.25,474.42,532.5,475.14Z" style="fill:#ad6359"></path><path d="M602.88,473.59c-2.42,1.58-68.14,2.27-70.38,1.54s-.34-7.16,2.12-9.17,26.84-13.23,26.84-13.23l-.51-5.55h40.6C602.53,460.92,603.3,473.34,602.88,473.59Z" style="fill:#dbdbdb"></path><path d="M531.07,474.53c2.33.77,69.29.68,71.81-.94,1-.6-.54-23.24-.54-23.24l-41.07.34,0,.73s-25.38,11.51-28,13.59S528.75,473.77,531.07,474.53Z" style="fill:#263238"></path><path d="M557.69,451.57c4.4-.85,9.8-.2,13.19,2.92.13.12,0,.31-.19.26a62.28,62.28,0,0,0-13-2.63A.28.28,0,0,1,557.69,451.57Z" style="fill:#FFC727"></path><path d="M557.69,451.57c4.4-.85,9.8-.2,13.19,2.92.13.12,0,.31-.19.26a62.28,62.28,0,0,0-13-2.63A.28.28,0,0,1,557.69,451.57Z" style="opacity:0.6000000000000001"></path><path d="M554.52,453.5c4.4-.85,9.8-.2,13.18,2.93.14.12,0,.3-.18.26a61.77,61.77,0,0,0-13-2.63A.28.28,0,0,1,554.52,453.5Z" style="fill:#FFC727"></path><path d="M554.52,453.5c4.4-.85,9.8-.2,13.18,2.93.14.12,0,.3-.18.26a61.77,61.77,0,0,0-13-2.63A.28.28,0,0,1,554.52,453.5Z" style="opacity:0.6000000000000001"></path><path d="M551.34,455.44c4.41-.85,9.81-.2,13.19,2.92.13.12,0,.31-.18.26a62.41,62.41,0,0,0-13-2.63A.28.28,0,0,1,551.34,455.44Z" style="fill:#FFC727"></path><path d="M551.34,455.44c4.41-.85,9.81-.2,13.19,2.92.13.12,0,.31-.18.26a62.41,62.41,0,0,0-13-2.63A.28.28,0,0,1,551.34,455.44Z" style="opacity:0.6000000000000001"></path><path d="M530.05,472.15c-1.19.46-.91,4.46,0,4.77s73.33-.39,74.56-.67.75-4.7-.68-4.92S530.05,472.15,530.05,472.15Z" style="fill:#FFC727"></path><path d="M530.05,472.15c-1.19.46-.91,4.46,0,4.77s73.33-.39,74.56-.67.75-4.7-.68-4.92S530.05,472.15,530.05,472.15Z" style="opacity:0.6000000000000001"></path><path d="M671.18,227.77s-59.46,107.65-60.86,113.89c-2.14,9.58-5.25,109.59-5.25,109.59l-49.23-1S556.12,364,565,336.46c5.23-16.22,41.73-85.77,53.79-102.72a43.86,43.86,0,0,0,3.7-6Z" style="fill:#FFC727"></path><path d="M559.79,440.51c7-.07,31.59-.42,40.85.54.07,0,.07.14,0,.15-3.19.52-33.91-.24-40.86-.48C559.65,440.72,559.66,440.51,559.79,440.51Z" style="fill:#263238"></path><path d="M599.12,437.38c.26-29.79-.1-63.88,1.76-93.48.47-2.85,2.07-5.4,3.18-8q1.46-3.07,3-6.12c4.05-8.11,8.23-16.15,12.42-24.19,11.62-22.31,26.46-49.69,38.61-71.85L632.84,281.9c-10.3,20.13-21.39,40-30.64,60.58-1,4.27-.75,9-1.07,13.37-.74,18.43-1.53,62.54-2,81.53Z" style="fill:#263238"></path><polygon points="625.58 295.51 635.83 227.77 671.18 227.77 625.58 295.51" style="opacity:0.1"></polygon><path d="M628.85,474.75c2.24.74,68,.19,70.38-1.38.39-.24-1.46-23.24-1.46-23.24-6-10.75-15.47-39.66-15.47-39.66l-41.13.25,18,40.25S633.47,463.58,631,465.58,626.61,474,628.85,474.75Z" style="fill:#ad6359"></path><path d="M628.85,474.75c2.24.73,68,.19,70.38-1.38.4-.24-1.46-23.24-1.46-23.24-.48-.87-1-1.86-1.58-2.95H657.12l2,3.79S633.47,463.58,631,465.58,626.61,474,628.85,474.75Z" style="fill:#ebebeb"></path><path d="M627.42,474.14c2.33.77,69.29.85,71.81-.77,1-.59-.48-23.24-.48-23.24l-41.07.24,0,.73s-25.41,11.46-28,13.53S625.1,473.37,627.42,474.14Z" style="fill:#263238"></path><path d="M654.09,451.24c4.41-.83,9.81-.17,13.18,3,.13.12,0,.3-.18.26a61.7,61.7,0,0,0-13-2.66A.28.28,0,0,1,654.09,451.24Z" style="fill:#FFC727"></path><path d="M654.09,451.24c4.41-.83,9.81-.17,13.18,3,.13.12,0,.3-.18.26a61.7,61.7,0,0,0-13-2.66A.28.28,0,0,1,654.09,451.24Z" style="opacity:0.6000000000000001"></path><path d="M650.92,453.17c4.4-.84,9.8-.18,13.18,2.95.13.13-.05.31-.19.27a61.61,61.61,0,0,0-13-2.66A.28.28,0,0,1,650.92,453.17Z" style="fill:#FFC727"></path><path d="M650.92,453.17c4.4-.84,9.8-.18,13.18,2.95.13.13-.05.31-.19.27a61.61,61.61,0,0,0-13-2.66A.28.28,0,0,1,650.92,453.17Z" style="opacity:0.6000000000000001"></path><path d="M647.74,455.1c4.41-.84,9.8-.18,13.18,2.95.13.12,0,.31-.19.26a62.24,62.24,0,0,0-13-2.66A.28.28,0,0,1,647.74,455.1Z" style="fill:#FFC727"></path><path d="M647.74,455.1c4.41-.84,9.8-.18,13.18,2.95.13.12,0,.31-.19.26a62.24,62.24,0,0,0-13-2.66A.28.28,0,0,1,647.74,455.1Z" style="opacity:0.6000000000000001"></path><path d="M626.4,471.76c-1.19.46-.92,4.45-.06,4.77s73.33-.22,74.56-.5.77-4.69-.66-4.92S626.4,471.76,626.4,471.76Z" style="fill:#FFC727"></path><path d="M626.4,471.76c-1.19.46-.92,4.45-.06,4.77s73.33-.22,74.56-.5.77-4.69-.66-4.92S626.4,471.76,626.4,471.76Z" style="opacity:0.6000000000000001"></path><path d="M651.74,450.81h47.81s-36-92.59-34.86-98.85c1-5.54,16.85-79.6,19.23-88.73,1.25-4.83-4-25.2-7.39-35.46h-47s2.26,11.75,3.41,16.57l6.83,4.14s-15.94,79.76-18.92,97S651.74,450.81,651.74,450.81Z" style="fill:#FFC727"></path><path d="M652.32,440.9c6.86-.19,4.89-.24,11.76-.35,3.36-.06,25.43-.4,28.57.14.07,0,.07.14,0,.15-3.13.58-25.21.51-28.57.49-6.86,0-4.89-.1-11.76-.21C652.2,441.12,652.19,440.91,652.32,440.9Z" style="fill:#263238"></path><path d="M632.94,244.34a90.75,90.75,0,0,1,13,8.28.16.16,0,0,1-.17.26c-4.42-2.63-8.94-5.18-13.21-8C632.27,244.62,632.59,244.16,632.94,244.34Z" style="fill:#263238"></path><path d="M639,243.84a20.69,20.69,0,0,1,.56,2.82,5.89,5.89,0,0,1,.07,2.25c0,.14-.23.13-.3,0a7.77,7.77,0,0,1-.66-2.28c-.2-.88-.42-1.75-.59-2.63C637.94,243.44,638.83,243.27,639,243.84Z" style="fill:#263238"></path><path d="M639.55,239.3c-.1-.79-.21-1.59-.32-2.38s-.3-1.64-.36-2.46c0-.13-.22-.1-.21,0,.1.8.09,1.61.13,2.41s.09,1.61.15,2.41c.1,1.49.31,3,.56,4.48a5.18,5.18,0,0,1-2.15-1,4.16,4.16,0,0,1-1.09-2.31c-.2-.91-.37-1.83-.59-2.73a17.88,17.88,0,0,1-.6-3.05c0-.13-.21-.1-.2,0a32.4,32.4,0,0,0,1,6.41,3.48,3.48,0,0,0,1.13,2.14,6.88,6.88,0,0,0,2.62.87.16.16,0,0,0,.26-.12A47.37,47.37,0,0,0,639.55,239.3Z" style="fill:#263238"></path><path d="M671.06,247.31c-.88-.27-2.25-.12-6.14-.88a21.61,21.61,0,0,1-3.16-.93,7.15,7.15,0,0,1-2.84-1.6,15.7,15.7,0,0,1-2.83-5.13,24.41,24.41,0,0,1-1.66-6.1c0-.13-.2-.09-.19,0,.06,1.17,0,2.33.19,3.51a20.54,20.54,0,0,0,.76,3.26,12.84,12.84,0,0,0,2.85,5.62c1.61,1.56,4.05,2.12,6.18,2.53,1.23.25,6.11.73,6.86.11C671.21,247.63,671.23,247.36,671.06,247.31Z" style="fill:#263238"></path><path d="M672,230.47c1.11,4.33,2.19,8.68,3.2,13s2,8.72,2.68,13.17a17.19,17.19,0,0,1-.46,6.72c-5.57,28.36-12.26,57.06-18.09,85.37-.24,1.59-.83,3.2-.68,4.81a63.2,63.2,0,0,0,2.09,8c2.66,8.53,5.68,16.95,8.69,25.38,5.21,14.78,13.05,35.51,18.54,50.39q-5-12.47-9.84-25c-6.37-16.73-12.81-33.44-18.29-50.5a64.08,64.08,0,0,1-2.16-8.19c-.19-1.74.43-3.43.68-5.12,4.36-21.39,14.19-64,18.53-85.28a17.13,17.13,0,0,0,.54-6.56c-.59-4.42-1.52-8.81-2.45-13.18s-1.94-8.74-3-13.09Z" style="fill:#263238"></path><path d="M625,160.1c-23.85,11.6-53.27,35.47-54.49,45.24-.93,7.39,11.74,12.86,13.42,13.1,10.26,1.52,37.38-29.93,46.18-46C638.18,157.74,630.93,157.23,625,160.1Z" style="fill:#ebebeb"></path><path d="M630.15,172.42c-3.76,6.87-10.84,16.53-18.54,25.23L628.16,159C633,157.83,636.77,160.31,630.15,172.42Z" style="opacity:0.1"></path><path d="M676.47,225.68l-60.3,6.41c-.14-.14-2.2-2.24-2.21-4.4-.08-12.9,4.33-56,13.1-69.26,2.56-3.88,13.76-7.62,18.71-2.22,15.23,16.6,29.64,51,32.15,63.92A6.46,6.46,0,0,1,676.47,225.68Z" style="fill:#ebebeb"></path><g style="opacity:0.5"><path d="M645.77,156.21c15.23,16.6,29.64,51,32.15,63.92" style="fill:#fff"></path></g><path d="M628,156.53l-2.46,3s-2.76,14.06-3.44,21c-.57,5.74-1.81,51.25-1.81,51.25l4.91-.44s-.18-47.45-.09-51.15S628,156.53,628,156.53Z" style="fill:#263238"></path><rect x="616.38" y="228.31" width="60.96" height="4.61" transform="translate(1311.77 402.37) rotate(174.86)" style="fill:#FFC727"></rect><rect x="616.38" y="228.31" width="60.96" height="4.61" transform="translate(1311.77 402.37) rotate(174.86)" style="opacity:0.4"></rect><path d="M624.34,229.07l.6,6.76,13.66-1.23-.61-6.76Zm2,1.08,9.91-.89.39,4.27-9.92.89Z" style="fill:#FFC727"></path><rect x="643.44" y="227.54" width="6.25" height="3.95" transform="translate(1311.09 400.18) rotate(174.86)" style="fill:#FFC727"></rect><rect x="619" y="229.73" width="6.25" height="3.95" transform="translate(1262.51 406.77) rotate(174.86)" style="fill:#FFC727"></rect><path d="M633.5,167c2.68-1.14,5.77-8.63,5.92-13.77,0-.35-1.9-3-4-6.41-1.31-2.05-2.71-4.37-3.83-6.57l-12.12,10.42a39.48,39.48,0,0,1,5.66,7.79,5.63,5.63,0,0,1,.37,1l0,.16C626.1,161.42,629.32,168.77,633.5,167Z" style="fill:#f7a9a0"></path><path d="M635,146.22c-.66,5.6-2.87,11.87-9.16,14.26-.15-.38-.27-.69-.34-.92,0-.05,0-.12,0-.16a4.89,4.89,0,0,0-.37-1,39.48,39.48,0,0,0-5.66-7.79l12.12-10.42C632.55,142.24,633.8,144.33,635,146.22Z" style="fill:#263238"></path><path d="M626.8,123.11c4.13,4,9.24,19.36,7.51,24.35-2.5,7.24-10.41,12.15-17.53,8.27-6.89-3.76-13.2-23.87-10.92-28.8C609.23,119.66,620.71,117.17,626.8,123.11Z" style="fill:#f7a9a0"></path><path d="M619.41,139.24c0-.05.1,0,.11.06.32,1,.85,2.19,1.9,2.22,0,0,.05,0,0,.06C620.23,141.8,619.54,140.28,619.41,139.24Z" style="fill:#263238"></path><path d="M620,137.85c1.62-.68,2.86,2.61,1.36,3.24S618.62,138.42,620,137.85Z" style="fill:#263238"></path><path d="M613.31,141.31s-.06.07,0,.12c.42,1,.73,2.22-.06,2.91a0,0,0,0,0,0,.06C614.29,143.81,613.87,142.19,613.31,141.31Z" style="fill:#263238"></path><path d="M612,140.59c-1.69.49-.57,3.83,1,3.37S613.41,140.17,612,140.59Z" style="fill:#263238"></path><path d="M619.9,134.39a13,13,0,0,1-1.32.59,2.24,2.24,0,0,1-1.46.35.73.73,0,0,1-.53-.73,1.84,1.84,0,0,1,1.21-1.42,2.67,2.67,0,0,1,1.94-.23A.79.79,0,0,1,619.9,134.39Z" style="fill:#263238"></path><path d="M610.52,140.53a14.26,14.26,0,0,0,1.28-.69,2.39,2.39,0,0,0,1.16-.94.75.75,0,0,0-.26-.87,1.85,1.85,0,0,0-1.87.1,2.68,2.68,0,0,0-1.35,1.4A.79.79,0,0,0,610.52,140.53Z" style="fill:#263238"></path><path d="M623.72,148.81c-.16.33-.27.75-.63.92a2.84,2.84,0,0,1-1.19.16s-.06.05,0,.07a1.47,1.47,0,0,0,1.5.06,1.15,1.15,0,0,0,.46-1.2C623.83,148.75,623.74,148.76,623.72,148.81Z" style="fill:#263238"></path><path d="M621.71,145.64a3.71,3.71,0,0,1-1.73,2.41,5,5,0,0,1-1.23.53,1.05,1.05,0,0,1-.24.06l-.24.05a.28.28,0,0,1-.29-.15h0a.45.45,0,0,1,0-.11h0l0-.09c-.31-.78-.68-2-.68-2-.24.25-1.45,1.46-1.58,1a56,56,0,0,1-2.6-11c0-.12.17-.16.2-.05,1.16,3.29,1.74,6.75,2.85,10.07a6.76,6.76,0,0,1,1.45-1.11c.12,0,.67,2.37.84,2.7l0,0a5.18,5.18,0,0,0,3.16-2.46C621.63,145.5,621.74,145.54,621.71,145.64Z" style="fill:#263238"></path><path d="M632.68,135.09c-1.86,1.55-3.86.28-5-.79s-4.35-9.36-6.28-10.87-4.64-1.61-6.15-.3-3.76,4.78-5.1,5.25-1.89-2.33-2.79-1.92c-2,.89-1.84,6.71-1.21,9,0,0-4.66-9.38,5.39-14.72,9-4.77,14.1.29,16.17,2.7C631.66,128.11,632.68,135.09,632.68,135.09Z" style="fill:#263238"></path><path d="M605.38,140.75s-3.88-6.18-4.32-9.63-.45-8.64,1.4-10.8c.85-1,7.34-1.85,7.88-2.3,1.44-1.2,3.66-4.83,5.23-5.2,3.47-.81,12.26,6.83,12.26,6.83s-8.88,7.84-12.63,11.1S605.38,140.75,605.38,140.75Z" style="fill:#FFC727"></path><path d="M605.38,140.75s6.07-6.74,9.82-10,12.63-11.1,12.63-11.1-.91-.79-2.26-1.83c-1.69,1.29-8.26,6.35-11.77,9.78-1.29,1.25-7.93,8.39-9.93,10.55C604.69,139.66,605.38,140.75,605.38,140.75Z" style="fill:#263238"></path><path d="M634.94,118.49s-14.74,11.07-18.84,15.39-12.42,13.69-12.42,13.69l1.7-6.82s5.65-6.32,8-8.79,14.4-12.31,14.4-12.31Z" style="fill:#FFC727"></path><path d="M629.59,136.56s.8-6.23,3.46-6.17,3.72,7.91,1.77,10.09a2.79,2.79,0,0,1-4,.4Z" style="fill:#f7a9a0"></path><path d="M633.3,132.65s.07,0,.05.06c-1.35,1.58-1.42,3.62-1.19,5.59a1.54,1.54,0,0,1,1.85-1.44c.06,0,0,.1,0,.11a1.7,1.7,0,0,0-1.39,1.41,8.06,8.06,0,0,0-.1,1.77c0,.19-.32.26-.35,0v0C631,138,631.08,134.09,633.3,132.65Z" style="fill:#263238"></path><path d="M624.31,157.35l6.41,7.51,7.1-14.62,4.25,2.5s-4.69,21-5,20.25L631,166.7l-3.42,7-4-13.22Z" style="fill:#ebebeb"></path><path d="M625.2,167.23c-.59-2.21-1.24-4.41-1.72-6.64,0-.08.09-.15.14-.07,1.14,1.94,3.32,10.38,4,12.35v0c.14-.29,3.25-6.19,3.32-6.14,1.18.93,5.64,5.5,6,5.94.74-3.34,3.75-15.58,4.84-18.86a.08.08,0,0,1,.16,0c-.49,3.42-4.39,19.85-4.54,19.86A90.17,90.17,0,0,1,631,167c-.46,1.21-3.42,7.68-3.54,7.36A68.72,68.72,0,0,1,625.2,167.23Z" style="fill:#263238"></path><polygon points="630.99 167.01 633.76 170.06 632.66 173.84 629.6 173.5 629.07 170.34 630.99 167.01" style="fill:#FFC727"></polygon><polygon points="632.66 173.84 641.18 211.84 636.33 226.72 627.71 214.54 629.6 173.5 632.66 173.84" style="fill:#FFC727"></polygon><path d="M652.62,159.45c17.43,18.69,30.86,40,28.59,49.33-1.72,7.05-8.17,16.52-9.81,16.47-10.14-.27-23-41.22-26.61-56.72C641.08,152.7,648.31,154.83,652.62,159.45Z" style="fill:#ebebeb"></path><path d="M645.92,173.06c3.64,11,13.61,49,24.78,51.81.24,0,.68.19.92.1,2.33-1.47,3.76-4.24,5.36-6.45-1.51,2.44-2.74,5.25-5.2,6.91-.33.16-.84,0-1.19-.05-12.33-2.86-21.89-40.62-24.67-52.32Z" style="fill:#263238"></path><path d="M645.62,175.45a19.82,19.82,0,0,1,1.89,3.36,4.65,4.65,0,0,1-1.89-3.36Z" style="fill:#263238"></path><path d="M670.52,224.81c-6.43-1.75-8.86-7.38-19.27-24.87-1.52-2.56,16.91-22.67,18.88-19.07,2.37,4.32,7.38,13.41,7.94,14.71C682.79,206.49,674.88,226,670.52,224.81Z" style="fill:#f7a9a0"></path><path d="M676.9,186.33l-24,20.76s9,20.07,16,20.17c6.09.08,13.06-16.83,12.13-25.57C680.58,198.05,676.9,186.33,676.9,186.33Z" style="fill:#ebebeb"></path><path d="M676.78,195.39c-1.27,1-2.46,2-3.66,3.08s-2.41,2.08-3.59,3.15q-3.56,3.18-7,6.43c-.63.6-1.27,1.19-1.9,1.8s-1.26,1.38-1.93,2a.06.06,0,0,0,.08.08c.59-.51,1.25-.94,1.85-1.44s1.24-1,1.85-1.59l3.57-3.17c2.36-2.12,4.72-4.26,7-6.46,1.3-1.24,2.64-2.46,3.87-3.78A.08.08,0,0,0,676.78,195.39Z" style="fill:#263238"></path><path d="M654.6,205.6,653,207.18l0-.14c1.5,2.87,3,5.72,4.77,8.45,2.57,3.95,5.17,8.29,9.27,10.75,4.31,2.51,8.25-4.56,10-7.72-1.44,3.78-5.29,11.24-10.38,8.54-4.4-2.46-7.07-7-9.58-11.14a78.06,78.06,0,0,1-4.26-8.78l0-.09c.61-.49,1.24-1,1.87-1.45Z" style="fill:#263238"></path><path d="M649.16,229.12s-5.5-44.09-5.85-51.45c-.25-5.37,3.55-20.88,3.55-20.88s-2.16-2.51-3.53-2.83a188.13,188.13,0,0,0-4.07,23c-.66,6.8,5,52.63,5,52.63Z" style="fill:#263238"></path><polygon points="574.87 445.13 578.66 446.11 573.46 476.44 571.55 476.24 574.87 445.13" style="fill:#a6a6a6"></polygon><rect x="656.48" y="167.95" width="8.98" height="4.05" transform="translate(1109.01 -344.82) rotate(116.61)" style="fill:#263238"></rect><rect x="664.34" y="169.06" width="2.78" height="6.6" transform="translate(1118.04 -345.62) rotate(116.61)" style="fill:#263238"></rect><path d="M663.78,255.66c-4.29-1.26-18.86-19-12.64-46.53l-11.6,40.34Z" style="fill:#FFC727"></path><path d="M691.19,282.88c-.94,17.85-9.77,34.87-7.18,42,0,0-15.34,3.8-15.9,22s15.74,27,15.74,27-9.66,10.85-11.4,23.92.89,35.27-7.43,44.73-28.73,18.52-69.56,8.37h0c-.71-.1-1.43-.23-2.14-.38s-1.39-.27-2.07-.44c-.48-.09-1-.2-1.43-.33-.91-.23-1.83-.47-2.72-.74-.58-.15-1.14-.32-1.7-.51-.25-.08-.5-.18-.75-.25-.77-.25-1.54-.54-2.31-.83s-1.68-.66-2.52-1c-.62-.28-1.25-.55-1.85-.84-.23-.1-.44-.22-.65-.32-.81-.39-1.61-.8-2.38-1.24a48.13,48.13,0,0,1-4.63-2.87.42.42,0,0,0-.12-.08c-.67-.48-1.35-1-2-1.49s-1.56-1.24-2.31-1.9-1.29-1.17-1.92-1.79a43.65,43.65,0,0,1-3.65-4,.83.83,0,0,1-.21-.24c-.56-.69-1.11-1.42-1.62-2.15-22.37-31.66,3.65-60.07,7.13-71.12s2-17.88,2-17.88,11.87-5.1,16.71-16.86-4.3-21.15-4.3-21.15c7.8-3.61,10.63-13.62,14-29.47s19.85-38.83,42.64-35.67c.69.1,1.35.19,2,.32q.75.1,1.47.27c.5.09,1,.2,1.49.31.67.15,1.31.32,2,.49l.67.19c9.22,2.06,23.24,5.52,28.29,8.14C679.42,250.63,692.1,265.05,691.19,282.88Z" style="fill:#FFC727"></path><path d="M691.19,282.88c-.94,17.85-9.77,34.87-7.18,42,0,0-15.34,3.8-15.9,22s15.74,27,15.74,27-9.66,10.85-11.4,23.92.89,35.27-7.43,44.73-28.73,18.52-69.56,8.37h0c-.71-.1-1.43-.23-2.14-.38s-1.39-.27-2.07-.44c-.48-.09-1-.2-1.43-.33-.91-.23-1.83-.47-2.72-.74-.58-.15-1.14-.32-1.7-.51-.25-.08-.5-.18-.75-.25-.77-.25-1.54-.54-2.31-.83s-1.68-.66-2.52-1c-.62-.28-1.25-.55-1.85-.84-.23-.1-.44-.22-.65-.32-.81-.39-1.61-.8-2.38-1.24a48.13,48.13,0,0,1-4.63-2.87.42.42,0,0,0-.12-.08c-.67-.48-1.35-1-2-1.49s-1.56-1.24-2.31-1.9-1.29-1.17-1.92-1.79a43.65,43.65,0,0,1-3.65-4,.83.83,0,0,1-.21-.24c-.56-.69-1.11-1.42-1.62-2.15-22.37-31.66,3.65-60.07,7.13-71.12s2-17.88,2-17.88,11.87-5.1,16.71-16.86-4.3-21.15-4.3-21.15c7.8-3.61,10.63-13.62,14-29.47s19.85-38.83,42.64-35.67c.69.1,1.35.19,2,.32q.75.1,1.47.27c.5.09,1,.2,1.49.31.67.15,1.31.32,2,.49l.67.19c9.22,2.06,23.24,5.52,28.29,8.14C679.42,250.63,692.1,265.05,691.19,282.88Z" style="opacity:0.4"></path><path d="M691.19,282.88c-.94,17.85-9.77,34.87-7.18,42,0,0-15.34,3.8-15.9,22s15.74,27,15.74,27-9.66,10.85-11.4,23.92.89,35.27-7.43,44.73-28.75,18.52-69.6,8.37c21.87,3.52,44.64-3.19,51.61-14.77,11.52-19.14-6.17-41.66,15.82-66.2,0,0-15.48-16.06-12.79-31.88s14.64-18.19,14.64-18.19-2.53-4.74,2.3-17.54c4.52-12,12.52-53.35-22.83-63.45,9.22,2.06,23.24,5.52,28.29,8.14C679.42,250.63,692.1,265.05,691.19,282.88Z" style="opacity:0.2"></path><polygon points="601.62 307.86 622.09 313.07 660.1 177.96 648.93 176.37 601.62 307.86" style="fill:#263238"></polygon><polygon points="583.93 370.78 602.96 376.36 580.58 450.78 573.32 447.6 583.93 370.78" style="fill:#263238"></polygon><path d="M595.83,319.19s0,3.78,3.66,3.12,3.33-8.15-2.36-8.18c-5.24,0-8.73,4-9,12.05s.48,19.46-3.47,20.64a4.11,4.11,0,0,1-5.17-2.07,2.5,2.5,0,0,0,1.27-3.18c-.67-2.37-4.88-2.62-5.72,1.56-.72,3.56,2.3,8.79,8.87,8.16,6.07-.59,8.07-5.51,8.48-12.54C592.8,331.42,589.92,320.8,595.83,319.19Z" style="fill:#263238"></path><path d="M624.64,326.9s-2,3.36-5,.7,1.45-9.09,6.65-5.9c4.79,2.92,5.74,8.48,1.6,15.74s-11.14,16.93-8.2,20.2a4.46,4.46,0,0,0,5.86,1.1,2.59,2.59,0,0,1,.58-3.53c1.92-1.73,5.9.43,4.37,4.6-1.31,3.55-6.93,6.48-12.57,2.21-5.21-3.95-4.33-9.43-.84-15.87C620.68,339.42,629.14,331.66,624.64,326.9Z" style="fill:#263238"></path><path d="M580.42,406.72l16.15-75.58v-.06l14-41.06,14.2-41c9.5-27.31,16.27-45.16,26.09-72.37-9.13,27.45-15.6,45.4-25,72.74l-14.23,41-14.39,40.94v-.06Z" style="fill:#fff"></path><polygon points="590.23 409.71 608.61 343.26 615.84 318.19 630.49 268.11 650.1 202.56 657.76 177.62 650.65 202.73 631.62 268.44 616.71 318.45 609.16 343.42 590.23 409.71" style="fill:#fff"></polygon><path d="M655.43,177.29l-7.55,24.94-20.33,65.21-15.78,49.67-4,12.4c-.64,2.08-1.39,4.12-1.94,6.22l-1.57,6.32-17.62,66.61,17.08-66.76,1.48-6.34c.53-2.11,1.25-4.16,1.86-6.24l3.83-12.45,15.52-49.76,20.91-65.05Z" style="fill:#fff"></path><polygon points="583.38 407.61 600.97 332.67 600.97 332.65 600.98 332.63 614.46 291.27 628.09 249.96 639.04 218.13 653.07 176.96 639.8 218.39 629.14 250.31 615.47 291.6 601.63 332.85 601.64 332.81 583.38 407.61" style="fill:#fff"></polygon><path d="M685.58,170.91c-.15.56-.34,1.11-.52,1.62s-.39,1-.59,1.52-.43,1-.66,1.44-.45.88-.7,1.3a18.94,18.94,0,0,1-1.37,2.13,4.69,4.69,0,0,1-.42.55,9.92,9.92,0,0,1-.63.79c-.33.4-.66.78-1,1.15-.18.18-.36.38-.55.55a23.84,23.84,0,0,1-6.45,4.43,11,11,0,0,1-1.06.47,27.93,27.93,0,0,1-3.15,1.13c-.29.09-.59.18-.87.25s-.78.2-1.15.28a9.39,9.39,0,0,1-1,.21l-.64.13-1.25.18c-.55.08-1.08.15-1.59.18a.15.15,0,0,1-.09,0c-.47,0-.91.07-1.34.09s-.84,0-1.22,0a21.84,21.84,0,0,1-2.38-.06L660.11,178l-11.18-1.59c26.5-1.55,22.43-12.86,22.43-12.86a30.61,30.61,0,0,1-9-1c-4.53-1.27-7-5.26-6.74-11.78s8.08-9.89,9.26-10.11A36.88,36.88,0,0,1,677.19,142C682.75,143.6,691.58,150.33,685.58,170.91Z" style="fill:#FFC727"></path><path d="M685.58,170.91c-.15.56-.34,1.11-.52,1.62s-.39,1-.59,1.52-.43,1-.66,1.44-.45.88-.7,1.3a18.94,18.94,0,0,1-1.37,2.13,4.69,4.69,0,0,1-.42.55,9.92,9.92,0,0,1-.63.79c-.33.4-.66.78-1,1.15-.18.18-.36.38-.55.55a23.84,23.84,0,0,1-6.45,4.43,11,11,0,0,1-1.06.47,27.93,27.93,0,0,1-3.15,1.13c-.29.09-.59.18-.87.25s-.78.2-1.15.28a9.39,9.39,0,0,1-1,.21l-.64.13-1.25.18c-.55.08-1.08.15-1.59.18a.15.15,0,0,1-.09,0c-.47,0-.91.07-1.34.09s-.84,0-1.22,0a21.84,21.84,0,0,1-2.38-.06L660.11,178l-11.18-1.59c26.5-1.55,22.43-12.86,22.43-12.86a30.61,30.61,0,0,1-9-1c-4.53-1.27-7-5.26-6.74-11.78s8.08-9.89,9.26-10.11A36.88,36.88,0,0,1,677.19,142C682.75,143.6,691.58,150.33,685.58,170.91Z" style="opacity:0.4"></path><path d="M685.58,170.91c-4.81,16.49-20.3,18.37-26.28,18.46l-2.38-.06L660.11,178c20.62-1.17,18.75-17,18.75-17-6.31,4.4-11.7,1.33-12.4-7S673,141.65,677.19,142C682.75,143.6,691.58,150.33,685.58,170.91Z" style="opacity:0.1"></path><path d="M660.11,178l-11.18-1.59c26.5-1.55,22.43-12.87,22.43-12.87a12.77,12.77,0,0,0,3-.6,11.57,11.57,0,0,0,4.5-1.94.82.82,0,0,0,0,.1C679,162.37,679.8,176.85,660.11,178Z" style="opacity:0.2"></path><path d="M678.86,161a5.31,5.31,0,0,0,1.33-2.69,13.74,13.74,0,0,0,.35-3,11.8,11.8,0,0,0-1.2-5.8,3.57,3.57,0,0,0-4.8-1.72c-1.79.7-2.74,2.67-2.93,4.59a7.54,7.54,0,0,0,1.27,5.52,2.16,2.16,0,0,0,2.37.77,3.29,3.29,0,0,0,1.88-1.93,6.69,6.69,0,0,0,.52-2.87c0-.94-.27-2.08-1.08-2.46a1.7,1.7,0,0,0-1.34.1,1.72,1.72,0,0,0-.79,1.15,3.6,3.6,0,0,0,.49,2.89,3.69,3.69,0,0,1-.68-2.93,2,2,0,0,1,.83-1.35,2,2,0,0,1,1.62-.22,2.07,2.07,0,0,1,1.11,1.23,5.24,5.24,0,0,1,.33,1.56,7.27,7.27,0,0,1-.45,3.13,3.81,3.81,0,0,1-2.23,2.35,2.81,2.81,0,0,1-1.72,0,3.2,3.2,0,0,1-1.4-1,8.25,8.25,0,0,1-1.51-6.08,7.69,7.69,0,0,1,1-3,4.84,4.84,0,0,1,2.45-2.12,4.63,4.63,0,0,1,3.24-.12,4.44,4.44,0,0,1,2.34,2.21,12.07,12.07,0,0,1,1.06,6.1,13.57,13.57,0,0,1-.55,3A5.43,5.43,0,0,1,678.86,161Z" style="fill:#263238"></path><rect x="675.18" y="183.29" width="8.98" height="4.05" transform="translate(206.99 707.68) rotate(-63.11)" style="fill:#263238"></rect><rect x="673.53" y="179.61" width="2.78" height="6.6" transform="translate(206.54 702.13) rotate(-63.11)" style="fill:#263238"></rect><rect x="684.56" y="167.94" width="8.98" height="4.05" transform="translate(330.31 782.33) rotate(-73.49)" style="fill:#263238"></rect><rect x="682.56" y="165.15" width="2.78" height="6.6" transform="translate(328.14 776.37) rotate(-73.5)" style="fill:#263238"></rect><path d="M657.71,171.92c-2.56,1.76,1,3.77,1,3.77s-5.8-1.67-7.74,1.17,2.5,5,2.81,5.19c-.31-.09-5.68-1.49-7.34,1.57s3.06,4.71,3.36,4.81c-.31,0-4.49.22-5.22,2.82-1.26,4.48,9.43,4.25,12,7,0,0-3.56,5.46-3.65,5.63,0,0,9.63-.52,13.1-4.25a3.24,3.24,0,0,0,.36-4s3.28.36,4.67-2c.7-1.22-.61-3.43-.61-3.43a4.05,4.05,0,0,0,3.73-2c.89-1.73-.57-3.68-.57-3.68s2.61-1,2.94-3.07C677.24,177.2,663.21,168.15,657.71,171.92Z" style="fill:#f7a9a0"></path><path d="M673.45,184.09a0,0,0,1,0,.06-.06,29,29,0,0,0-15-8.47c-.18,0-.32.25-.12.33A59.36,59.36,0,0,1,673.45,184.09Z" style="fill:#263238"></path><path d="M670.56,190.14c.05,0,.11,0,.07-.1a27.16,27.16,0,0,0-16.94-8.22c-.23,0-.44.2-.19.23C657.86,182.69,666.29,186.83,670.56,190.14Z" style="fill:#263238"></path><path d="M649.31,188.56c6.3.68,11.74,3.3,17,6.8.07,0,.12-.05.08-.1-2.08-2.41-5.63-4.3-8.52-5.53a16.73,16.73,0,0,0-8.48-1.39C649.22,188.35,649.18,188.54,649.31,188.56Z" style="fill:#263238"></path><path d="M658.65,175.6c-.23,0,0,.32-.26.29-.93-.15-6.61-.53-7.34,1.36-.58,1.52,1.05,3.36,2,3.82l2.27,1.15-2.53-.29a10.35,10.35,0,0,0-3.38.13,3.77,3.77,0,0,0-2.58,1.64,2.14,2.14,0,0,0,.29,2.67,6.45,6.45,0,0,0,2.83,1.57l2.9.86-3,.14a9.47,9.47,0,0,0-2.47.42,4.07,4.07,0,0,0-2,1.23,1.92,1.92,0,0,0-.26,2,4.26,4.26,0,0,0,1.8,1.55,35.44,35.44,0,0,0,4.9,1.87c.84.28,1.68.55,2.51.88a6.29,6.29,0,0,1,2.3,1.32,6.7,6.7,0,0,0-2.38-1.09c-.84-.26-1.7-.47-2.56-.68a29.14,29.14,0,0,1-5.1-1.65,5,5,0,0,1-2.22-1.79,2.72,2.72,0,0,1,.27-3,4.92,4.92,0,0,1,2.42-1.59,11,11,0,0,1,2.74-.51l-.11,1a7.32,7.32,0,0,1-3.35-1.82,3.05,3.05,0,0,1-.89-1.9,3.47,3.47,0,0,1,.48-2,4.71,4.71,0,0,1,3.26-2.07,11.07,11.07,0,0,1,3.72-.09l-.26.86c-1.13-.62-3.19-2.48-2.58-4.95C651.31,173.85,657.53,175.26,658.65,175.6Z" style="fill:#263238"></path><path d="M658.69,175.69a6.14,6.14,0,0,1-1.24-1.45,1.45,1.45,0,0,1-.07-1.46,3,3,0,0,1,1.32-1c.58-.25,1.19-.49,1.84-.72a5.12,5.12,0,0,0-2.06.08,3,3,0,0,0-1.86,1.24,2.05,2.05,0,0,0-.22,1.21,2.09,2.09,0,0,0,.5,1.07A3.33,3.33,0,0,0,658.69,175.69Z" style="fill:#263238"></path><path d="M608.67,200.55s10.18-.05,15.53,1.58a35.93,35.93,0,0,1,14.56,9.18c4.38,4.51,11.84,18.44,8.2,21.28-3.29,2.58-10.2-12-10.2-12s9.5,13.75,5,16.12-11.59-15-11.59-15,9.45,14.34,4.39,16c-3.83,1.29-11.11-14.13-11.11-14.13s8,12.38,4.16,13.88c-4.29,1.66-11.9-12.16-11.9-12.16-10.5,2.15-15.21-1.4-19.12-4.22C595.62,220.35,608.67,200.55,608.67,200.55Z" style="fill:#f7a9a0"></path><path d="M633.78,215.58c1.18,1.58,2.38,3.16,3.41,4.84s2,3.38,2.87,5.14a34.12,34.12,0,0,1,2.73,7.18c-1.45-4.33-5-10.38-6.07-12.06s-2-3.39-3-5.06C633.69,215.58,633.75,215.55,633.78,215.58Z" style="fill:#263238"></path><path d="M627.67,219.2c1.41,2.07,2.89,4.08,4.21,6.22s2.38,4.26,3.55,6.47c.09.17,0,.17-.13,0-1.26-2.17-2.58-4.07-3.86-6.22s-2.47-4.35-3.82-6.44C627.6,219.19,627.65,219.16,627.67,219.2Z" style="fill:#263238"></path><path d="M621.87,221.35a56.26,56.26,0,0,1,5.71,10c.09.17-.07.14-.16,0-1.84-3.36-3.26-6-5.66-9.9C621.72,221.37,621.82,221.29,621.87,221.35Z" style="fill:#263238"></path><path d="M574,207.38c2.5,6.18,8.38,7.93,27,16.2,2.72,1.21,20.52-19.46,16.71-21-4.56-1.83-14.19-5.74-15.54-6.14C590.7,193,572.26,203.19,574,207.38Z" style="fill:#f7a9a0"></path><path d="M611.41,196.51l-17.78,26.31s-21-6.58-21.91-13.48c-.8-6,15.17-15,24-15.06C599.34,194.23,611.41,196.51,611.41,196.51Z" style="fill:#ebebeb"></path><path d="M610.82,197.38l.55-.9,0,.08c-2.71-.49-5.41-1-8.11-1.44a52.62,52.62,0,0,0-8.56-.32,22.83,22.83,0,0,0-4,.46,26.09,26.09,0,0,0-7.6,2.93,21.52,21.52,0,0,1,7.47-3.5,19.23,19.23,0,0,1,4.14-.59,46.18,46.18,0,0,1,8.69.4c2.69.58,5.37,1.21,8,1.95l.08,0,0,.06Z" style="fill:#263238"></path><path d="M602.42,197.7c-.8,1.37-1.73,2.68-2.61,4s-1.79,2.63-2.71,3.93q-2.75,3.9-5.56,7.76c-.52.7-1,1.4-1.56,2.09s-1.22,1.42-1.78,2.16a.05.05,0,1,1-.09-.06c.44-.65.79-1.36,1.21-2s.9-1.35,1.36-2c.91-1.31,1.81-2.61,2.73-3.91,1.83-2.6,3.67-5.2,5.59-7.74,1.08-1.44,2.13-2.92,3.29-4.29A.08.08,0,0,1,602.42,197.7Z" style="fill:#263238"></path></g><g id="freepik--musical-notes--inject-575"><path d="M509.64,128.49a5,5,0,1,1-2.4-6.69A5,5,0,0,1,509.64,128.49Z" style="fill:#37474f"></path><rect x="511.4" y="103.55" width="3.84" height="25.27" transform="translate(98.51 -207.73) rotate(25.23)" style="fill:#37474f"></rect><path d="M527.47,128.81a5,5,0,1,1-2.4-6.69A5,5,0,0,1,527.47,128.81Z" style="fill:#37474f"></path><rect x="529.23" y="103.88" width="3.84" height="25.27" transform="translate(100.33 -215.29) rotate(25.23)" style="fill:#37474f"></rect><polygon points="538.25 105.95 515.52 107 516.96 103.94 539.69 102.89 538.25 105.95" style="fill:#37474f"></polygon><polygon points="535.54 111.71 512.81 112.76 514.25 109.7 536.98 108.65 535.54 111.71" style="fill:#37474f"></polygon><path d="M541.72,74.8A2.12,2.12,0,1,1,540,72.33,2.11,2.11,0,0,1,541.72,74.8Z" style="fill:#37474f"></path><rect x="541.12" y="64.08" width="1.62" height="10.64" transform="translate(22.5 -99.99) rotate(10.76)" style="fill:#37474f"></rect><path d="M549,73.06a2.12,2.12,0,1,1-1.69-2.48A2.12,2.12,0,0,1,549,73.06Z" style="fill:#37474f"></path><rect x="548.42" y="62.34" width="1.62" height="10.64" transform="translate(22.32 -101.45) rotate(10.77)" style="fill:#37474f"></rect><polygon points="551.02 62.6 541.86 65.42 542.13 64.02 551.28 61.2 551.02 62.6" style="fill:#37474f"></polygon><path d="M494.18,51.37a3.89,3.89,0,1,1-1.86-5.17A3.89,3.89,0,0,1,494.18,51.37Z" style="fill:#37474f"></path><rect x="495.53" y="32.11" width="2.97" height="19.52" transform="translate(65.25 -207.84) rotate(25.23)" style="fill:#37474f"></rect><rect x="509.75" y="32.52" width="2.97" height="5.64" transform="translate(63.84 -214.55) rotate(25.23)" style="fill:#37474f"></rect><polygon points="513.45 34.1 498.72 34.77 499.84 32.41 514.57 31.74 513.45 34.1" style="fill:#37474f"></polygon><polygon points="511.36 38.55 496.63 39.22 497.74 36.86 512.47 36.19 511.36 38.55" style="fill:#37474f"></polygon><path d="M549.8,160.07a4.06,4.06,0,1,1-3.72-4.38A4.06,4.06,0,0,1,549.8,160.07Z" style="fill:#37474f"></path><rect x="547.53" y="139.5" width="3.1" height="20.43" transform="translate(13.89 -43.86) rotate(4.63)" style="fill:#37474f"></rect><rect x="559.06" y="135.13" width="3.1" height="5.91" transform="translate(12.99 -44.85) rotate(4.64)" style="fill:#37474f"></rect><polygon points="562.33 136.05 548.14 142.13 548.36 139.4 562.55 133.32 562.33 136.05" style="fill:#37474f"></polygon><polygon points="561.92 141.18 547.73 147.26 547.95 144.54 562.14 138.46 561.92 141.18" style="fill:#37474f"></polygon><path d="M482.71,96.87a2.44,2.44,0,1,1-2.38-2.49A2.42,2.42,0,0,1,482.71,96.87Z" style="fill:#37474f"></path><rect x="480.99" y="84.57" width="1.86" height="12.25" transform="translate(2.07 -10.39) rotate(1.24)" style="fill:#37474f"></rect><rect x="487.47" y="81.56" width="1.86" height="3.54" transform="translate(1.91 -10.53) rotate(1.24)" style="fill:#37474f"></rect><polygon points="489.36 82.05 481.08 86.19 481.12 84.56 489.39 80.41 489.36 82.05" style="fill:#37474f"></polygon><polygon points="489.29 85.14 481.02 89.28 481.05 87.64 489.33 83.5 489.29 85.14" style="fill:#37474f"></polygon></g></svg>
