<?xml version="1.0" encoding="utf-8"?>
<!-- Uploaded to: SVG Repo, www.svgrepo.com, Generator: SVG Repo Mixer Tools -->
<svg width="800px" height="800px" viewBox="0 0 1024 1024" class="icon"  version="1.1" xmlns="http://www.w3.org/2000/svg"><path d="M1012.15744 383.17056V251.50464c0-0.75776-0.18944-1.46944-0.22528-2.22208v-5.1456h-0.51712c-3.60448-25.15456-25.02656-44.55424-51.17952-44.55424H69.94944c-26.15296 0-47.57504 19.39968-51.18464 44.55424H18.0224v186.84416h0.22528v37.24288c-0.03072 0.75264-0.22528 1.4592-0.22528 2.22208v284.1344c0 0.75776 0.18944 1.46944 0.22528 2.22208v5.1456h0.51712c3.60448 25.15456 25.02656 44.55424 51.17952 44.55424h890.28608c26.15296 0 47.57504-19.39968 51.18464-44.55424h0.7424V422.63552h-0.22528v-37.24288c0.03584-0.75264 0.22528-1.4592 0.22528-2.22208z" fill="#E6E4E2" /><path d="M205.71648 637.50144h393.65632v71.8592H205.71648zM634.3168 637.50144h76.0576v71.8592H634.3168zM746.86464 637.50144h76.0576v71.8592h-76.0576zM859.41248 637.50144h76.0576v71.8592h-76.0576zM94.71488 637.50144h76.0576v71.8592H94.71488z" fill="#C8C6C4" /><path d="M205.71648 625.26976h393.65632v71.8592H205.71648zM634.3168 625.26976h76.0576v71.8592H634.3168zM746.86464 625.26976h76.0576v71.8592h-76.0576zM859.41248 625.26976h76.0576v71.8592h-76.0576z" fill="#FFFFFF" /><path d="M753.03424 512.10752h179.3536v71.8592h-179.3536z" fill="#C8C6C4" /><path d="M753.03424 499.87584h179.3536v71.8592h-179.3536z" fill="#FFFFFF" /><path d="M427.8016 392.36608h73.35936v71.8592H427.8016zM536.35072 392.36608h73.35936v71.8592h-73.35936zM644.89984 392.36608h73.35936v71.8592h-73.35936z" fill="#C8C6C4" /><path d="M427.8016 380.1344h73.35936V451.9936H427.8016zM536.35072 380.1344h73.35936V451.9936h-73.35936zM644.89984 380.1344h73.35936V451.9936h-73.35936z" fill="#FFFFFF" /><path d="M94.71488 392.36608h73.35936v71.8592H94.71488zM203.264 392.36608h73.35936v71.8592H203.264zM311.81312 392.36608h73.35936v71.8592H311.81312z" fill="#C8C6C4" /><path d="M94.71488 380.1344h73.35936V451.9936H94.71488zM203.264 380.1344h73.35936V451.9936H203.264zM311.81312 380.1344h73.35936V451.9936H311.81312z" fill="#FFFFFF" /><path d="M427.8016 511.08352h73.35936v71.8592H427.8016zM536.35072 511.08352h73.35936v71.8592h-73.35936zM644.89984 511.08352h73.35936v71.8592h-73.35936z" fill="#C8C6C4" /><path d="M427.8016 498.84672h73.35936v71.8592H427.8016zM536.35072 498.84672h73.35936v71.8592h-73.35936zM644.89984 498.84672h73.35936v71.8592h-73.35936z" fill="#FFFFFF" /><path d="M94.71488 511.08352h73.35936v71.8592H94.71488zM203.264 511.08352h73.35936v71.8592H203.264zM311.81312 511.08352h73.35936v71.8592H311.81312z" fill="#C8C6C4" /><path d="M94.71488 498.84672h73.35936v71.8592H94.71488zM203.264 498.84672h73.35936v71.8592H203.264zM311.81312 498.84672h73.35936v71.8592H311.81312z" fill="#FFFFFF" /><path d="M427.8016 306.176h73.35936v34.9696H427.8016zM536.35072 306.176h73.35936v34.9696h-73.35936zM644.89984 306.176h73.35936v34.9696h-73.35936z" fill="#C8C6C4" /><path d="M427.8016 296.72448h73.35936v34.9696H427.8016zM536.35072 296.72448h73.35936v34.9696h-73.35936zM644.89984 296.72448h73.35936v34.9696h-73.35936z" fill="#FFFFFF" /><path d="M750.47936 392.36608h73.35936v71.8592h-73.35936zM859.02848 392.36608h73.35936v71.8592h-73.35936z" fill="#C8C6C4" /><path d="M750.47936 380.1344h73.35936V451.9936h-73.35936zM859.02848 380.1344h73.35936V451.9936h-73.35936z" fill="#FFFFFF" /><path d="M750.47936 306.176h73.35936v34.9696h-73.35936zM859.02848 306.176h73.35936v34.9696h-73.35936z" fill="#C8C6C4" /><path d="M750.47936 296.72448h73.35936v34.9696h-73.35936zM859.02848 296.72448h73.35936v34.9696h-73.35936z" fill="#FFFFFF" /><path d="M94.71488 306.176h73.35936v34.9696H94.71488zM203.264 306.176h73.35936v34.9696H203.264zM311.81312 306.176h73.35936v34.9696H311.81312z" fill="#C8C6C4" /><path d="M94.71488 296.72448h73.35936v34.9696H94.71488zM203.264 296.72448h73.35936v34.9696H203.264zM311.81312 296.72448h73.35936v34.9696H311.81312zM94.71488 625.26976h76.0576v71.8592H94.71488z" fill="#FFFFFF" /></svg>