<svg xmlns="http://www.w3.org/2000/svg" viewBox="0 0 500 500"><g id="freepik--background-complete--inject-223"><path d="M300.18,462.31c-.16-1.83-1.09-3.69-2.74-4.5-2.9-1.41-6.11,.9-8.94,2.46-6.18,3.4-13.71,3.35-20.64,2.05-6.93-1.29-13.63-3.73-20.6-4.82-6.97-1.1-14.55-.71-20.42,3.21l1.89,17.54c2.09,1.41,4.26,2.85,6.75,3.23,2.49,.38,5.38-.64,6.35-2.96,.93-2.23-.06-5.09,1.39-7.02,1.25-1.66,3.67-1.78,5.74-1.56,12.54,1.35,23.94,9.56,36.54,9.01,4.03-.18,8.27-1.44,10.83-4.56,1.55-1.9,2.34-4.3,3.03-6.66,.51-1.76,.99-3.58,.83-5.41Z" style="fill:#f5f5f5;"></path><g><g><path d="M380.73,346.59c-3.46-2.18-7.43-3.54-11.5-3.96-1.88-.19-3.93-.14-5.44,1-.32,.24-.63,.6-.56,.99,.05,.29,.3,.5,.53,.68,4.68,3.57,11.76,4.02,16.97,1.29" style="fill:#e0e0e0;"></path><path d="M380.44,346.26c-2.6-2.03-5.22-4.08-7.43-6.54-2.21-2.46-4-5.38-4.66-8.61-.2-.98-.26-2.1,.37-2.88,5.92,4.63,10.57,10.61,11.72,18.03" style="fill:#e0e0e0;"></path><path d="M380.67,346.54c-.45-3.24-.61-6.57,.14-9.76,.74-3.18,2.48-6.23,5.2-8.05,1.02,2.39,.58,5.15-.14,7.65-1.11,3.86-2.86,7.54-5.15,10.85" style="fill:#e0e0e0;"></path><path d="M386.48,356.95c-3.52,.43-6.59,2.29-9.23,4.67-2.63,2.38-4.5,5.59-5.28,9.06,3.46-.21,6.39-2.65,8.52-5.38,2.13-2.73,3.6-5.73,5.94-8.29" style="fill:#e0e0e0;"></path><path d="M387.74,358.61c-2.84-6.99-1.81-15.42,2.63-21.52,2.01,7.14,1.27,15.21-2.63,21.52" style="fill:#e0e0e0;"></path><path d="M395.41,367.75c-3.2-.2-6.45,.56-9.23,2.16-2.78,1.6-5.07,4.03-6.5,6.89-.2,.39-.37,.88-.11,1.23,.23,.3,.67,.33,1.04,.31,3.1-.2,5.85-2.07,8.12-4.19,2.27-2.12,4.24-4.58,6.75-6.41" style="fill:#e0e0e0;"></path><path d="M395.16,367.25c-1.65-5.28-1.75-11.03-.29-16.37,.58-2.11,1.54-4.32,3.49-5.31,.17-.08,.36-.16,.53-.09,.17,.06,.26,.23,.34,.39,.69,1.45,.89,3.09,.82,4.7s-.4,3.18-.74,4.75c-.61,2.91-.94,6.03-2.53,8.53-.38,.59-.71,1.24-1.01,1.87-.3,.64-.3,.86-.58,1.37" style="fill:#e0e0e0;"></path><path d="M415.47,370.27c-1.5-5.72,.09-12.66,3.7-17.35,.27-.35,.62-.72,1.05-.68,.66,.06,.84,.95,.81,1.61-.26,5.85-2.21,11.61-5.56,16.41" style="fill:#e0e0e0;"></path><path d="M417.3,371.53c6.95,1.81,14.93,.05,20.71-4.21-3.43-1.74-7.47-2.23-11.21-1.38-3.75,.86-7.17,2.53-9.5,5.59" style="fill:#e0e0e0;"></path><path d="M418.84,367.72c3.89-6.35,11.36-10.49,18.8-10.87-.86,3.03-3.34,5.38-6.15,6.8s-5.94,2.04-9.02,2.64c-1.2,.23-2.85,.49-3.63,1.43" style="fill:#e0e0e0;"></path><path d="M415.86,349.23c1.05-3.61,2.11-7.26,2.4-11.01s-.25-7.67-2.19-10.89c-3.64,7.04-4.01,15.26-.32,22.27" style="fill:#e0e0e0;"></path><path d="M428.1,343.04c4.25-7.73,12.93-13.91,21.71-14.77-3.39,8.43-12.63,14.95-21.71,14.77" style="fill:#e0e0e0;"></path><path d="M425.43,344.55c6.34,.97,11.75,5.02,17.68,7.47,1.27,.53,2.64,.94,4,.77s2.7-1.09,3.01-2.43c.25-1.11-.25-2.29-1.05-3.1-.8-.81-1.85-1.32-2.9-1.76-6.46-2.69-13.38-2.76-20.18-1.13" style="fill:#e0e0e0;"></path><path d="M421.76,349c1.44,.41,1.93,1.15,3.06,2.12,3.86,3.29,8.49,5.66,13.4,6.89,.51,.13,1.18,.18,1.44-.28,.22-.4-.06-.89-.35-1.25-2.06-2.58-5-4.34-8.09-5.49-3.09-1.15-5.77-2.54-9.47-2.24" style="fill:#e0e0e0;"></path><path d="M417.61,322.13c5.16,4.81,12.42,7.29,19.45,6.62,.32-.03,.67-.08,.89-.32,.49-.53-.1-1.35-.67-1.8-5.72-4.46-12.64-6.31-19.67-4.5" style="fill:#e0e0e0;"></path><path d="M422.52,320.33c6.82-5.11,16.17-6.65,24.27-4-3.06,3.01-7.3,4.63-11.56,5.08-4.27,.44-8.54-.03-12.7-1.07" style="fill:#e0e0e0;"></path><path d="M420.57,307.98c-.56-5.71-.2-10.21-.59-15.95-.03-.46-.13-1.01-.56-1.17-.6-.23-1.09,.5-1.29,1.11-1.7,5.29-.77,11.35,2.43,15.88" style="fill:#e0e0e0;"></path><path d="M420.16,308.61c3.87-2.39,6.77-5.52,9.45-9.19,1.87-2.55,3.44-5.62,3.02-8.75-2.62-.05-5.11,1.39-6.82,3.39-1.71,1.99-2.72,4.48-3.48,6.99-.76,2.51-1.29,5.09-2.18,7.56" style="fill:#e0e0e0;"></path><path d="M429.45,306.03c8.49-3.14,16.41-7.81,23.27-13.72-2.78-1.12-5.96-.45-8.74,.67-6.35,2.56-11.53,6.89-14.65,12.98" style="fill:#e0e0e0;"></path><path d="M422.77,311.74c4.29,.47,8.66,.78,12.92,.06,4.19-.7,8.15-2.36,12.06-4.01,.32-.14,.68-.3,.82-.62,.15-.35-.01-.78-.29-1.03-.28-.26-.66-.38-1.03-.48-4.25-1.19-8.85-.63-13.03,.78-4.19,1.41-7.62,3.09-11.44,5.3" style="fill:#e0e0e0;"></path><path d="M398.25,322.32c-2.93-5.91-2.74-12.82-.21-18.91,1.78,2.71,2,6.17,1.67,9.4s-1.31,6.56-1.37,9.8" style="fill:#e0e0e0;"></path><path d="M386.54,316.42c-7.32-.14-14.63,2.98-19.6,8.35,3.65,.57,7.41-.37,10.73-1.99,3.32-1.62,6.27-3.9,9.2-6.16" style="fill:#e0e0e0;"></path><path d="M378.67,313.79c-3.58-.29-7.02-.73-10.46,.32-3.44,1.05-6.57,3.45-7.98,6.76,3.35,.38,6.74-.46,9.81-1.85,3.07-1.39,5.86-3.32,8.63-5.23" style="fill:#e0e0e0;"></path><path d="M390.33,313.91c-3.22-2.11-6.53-4.26-10.27-5.13-3.75-.87-8.09-.23-10.71,2.6,3.03,1.78,6.72,1.99,10.24,1.99,3.52,0,7.83-.04,11.15,1.13" style="fill:#e0e0e0;"></path><path d="M390.35,314.08c-5.5-5.4-7.59-15.11-5.38-22.5,4.33,6.57,6.26,14.68,5.38,22.5" style="fill:#e0e0e0;"></path><path d="M405.48,298.76c1.04-2.41,1.77-4.95,2.7-7.4,.93-2.46,2.09-4.87,3.85-6.82,1.76-1.95,4.19-3.4,6.82-3.53-1.64,7.44-6.58,14.08-13.23,17.8" style="fill:#e0e0e0;"></path><path d="M402.74,301.96c-1.72-2.36-3.7-5.57-6.03-7.34-2.33-1.76-5.36-2.83-8.21-2.16,2.89,5.17,8.36,8.81,14.24,9.49" style="fill:#e0e0e0;"></path><path d="M403.29,298.96c-1.13-2.86-2.26-5.75-2.72-8.79s-.18-6.29,1.38-8.94c3.02,5.71,3.99,11.84,1.49,17.8" style="fill:#e0e0e0;"></path><path d="M405.51,281.23c1.71-5.66,6.9-9.83,12.49-11.74,.71-.24,1.45-.44,2.19-.33,.74,.11,1.46,.62,1.61,1.35,.2,.96-.59,1.83-1.34,2.47-4.36,3.73-9.48,6.56-14.96,8.26" style="fill:#e0e0e0;"></path><path d="M405.57,276.6c.22-3.65,.45-7.35,1.63-10.81,1.19-3.46,3.48-6.7,6.8-8.22,.57,3.69-1.06,7.36-3.02,10.53-1.96,3.17-4.33,6.17-5.5,9.71" style="fill:#e0e0e0;"></path><path d="M405.48,279.11c-1.41-4.13-1.56-9.37-4.03-12.96-1.73-2.51-4.49-4.22-5.98-6.89-.99,2.49-.69,5.35,.35,7.82,1.03,2.47,2.74,4.59,4.57,6.54s3.39,3.42,5.09,5.49" style="fill:#e0e0e0;"></path><path d="M405.51,400.63c-.11,0-.21-27.53-.21-61.48,0-33.96,.08-61.48,.19-61.48s.21,27.52,.21,61.48c0,33.95-.08,61.48-.19,61.48Z" style="fill:#e0e0e0;"></path><path d="M429.56,318.17s-.36,.16-1.03,.39c-.74,.25-1.7,.57-2.85,.96-2.4,.82-5.7,2-9.28,3.47-3.55,1.52-6.89,2.76-8.79,4.41-.95,.81-1.5,1.7-1.77,2.34-.27,.65-.32,1.04-.36,1.03-.01,0,0-.1,.01-.29,.03-.19,.08-.46,.2-.8,.23-.68,.76-1.62,1.72-2.49,.96-.87,2.29-1.66,3.82-2.37,1.53-.71,3.22-1.46,5.01-2.19,3.59-1.47,6.92-2.62,9.35-3.37,1.21-.38,2.2-.66,2.89-.84,.69-.18,1.07-.27,1.08-.24Z" style="fill:#e0e0e0;"></path><path d="M437.45,298.8s-.09,.12-.29,.31c-.23,.22-.53,.49-.88,.83-.82,.75-1.94,1.76-3.3,3-2.85,2.54-6.71,5.97-10.98,9.77-4.28,3.81-7.99,7.46-10.55,10.2-1.28,1.37-2.3,2.51-2.99,3.3-.32,.37-.59,.67-.8,.91-.18,.21-.29,.31-.3,.3-.01,0,.07-.13,.24-.35,.17-.22,.41-.55,.74-.96,.66-.82,1.64-1.99,2.9-3.39,2.52-2.8,6.2-6.49,10.49-10.31,4.3-3.8,8.21-7.22,11.05-9.69,1.4-1.2,2.54-2.18,3.38-2.9,.38-.31,.69-.57,.93-.77,.22-.17,.33-.26,.34-.25Z" style="fill:#e0e0e0;"></path><path d="M417.38,316.59c-.11-.05,.78-2.12,1.67-4.73,.9-2.61,1.32-4.82,1.44-4.8,.1,.01-.15,2.28-1.06,4.93-.45,1.32-.94,2.48-1.33,3.31-.39,.82-.67,1.32-.72,1.29Z" style="fill:#e0e0e0;"></path><path d="M405.53,333.25s-.26-.26-.66-.77c-.45-.57-1.01-1.3-1.69-2.17-1.42-1.84-3.38-4.37-5.59-7.15-2.2-2.77-4.23-5.26-5.69-7.06-.69-.86-1.27-1.57-1.73-2.14-.4-.51-.62-.8-.6-.82,.02-.02,.27,.24,.71,.72,.44,.48,1.06,1.18,1.83,2.06,1.52,1.76,3.58,4.22,5.79,7,2.2,2.78,4.14,5.34,5.5,7.22,.68,.94,1.23,1.71,1.59,2.25,.37,.54,.56,.84,.54,.86Z" style="fill:#e0e0e0;"></path><path d="M400.26,326.48c-.07,.07-1.47-1.6-2.21-4.14-.54-1.79-.57-3.42-.5-4.17h.18c-.08,.33-.14,.5-.17,.5-.03,0-.03-.18,0-.51h.18c.06,.76,.18,2.33,.71,4.07,.71,2.46,1.93,4.18,1.83,4.25Z" style="fill:#e0e0e0;"></path><path d="M393.45,317.91c-.05,.06-.5-.52-1.54-.9-1.03-.4-2.58-.49-4.28-.34-1.7,.13-3.22,.43-4.31,.7-1.09,.27-1.75,.48-1.77,.43-.02-.05,.62-.35,1.7-.7,1.08-.34,2.62-.69,4.36-.82,1.72-.15,3.35-.02,4.42,.48,1.08,.48,1.47,1.15,1.44,1.16Z" style="fill:#e0e0e0;"></path><path d="M391.84,315.84c-.03,.06-.9-.36-2.36-.86-1.46-.5-3.55-1.03-5.9-1.21-2.35-.18-4.49,.03-6.01,.31-1.52,.27-2.45,.56-2.47,.49,0-.03,.21-.12,.63-.27,.41-.15,1.02-.33,1.78-.5,1.53-.35,3.7-.61,6.1-.43,2.39,.19,4.51,.77,5.96,1.35,.73,.29,1.31,.55,1.69,.77,.39,.21,.59,.33,.58,.36Z" style="fill:#e0e0e0;"></path><path d="M405.48,307.06c-.11,.03-.88-2.65-1.72-5.99-.85-3.33-1.44-6.06-1.34-6.09,.11-.03,.88,2.65,1.72,5.99,.85,3.33,1.44,6.06,1.34,6.09Z" style="fill:#e0e0e0;"></path><path d="M405.59,307.06c-.12,.04-.61-1.75-1.91-3.58-1.26-1.87-2.87-2.81-2.81-2.9,.02-.04,.47,.12,1.09,.56,.62,.43,1.39,1.17,2.05,2.11,1.35,1.91,1.68,3.81,1.58,3.81Z" style="fill:#e0e0e0;"></path><path d="M405.51,385.95s-.12-.66-.43-1.83c-.31-1.17-.88-2.83-1.84-4.77-1.9-3.89-5.36-8.81-9.76-13.75-2.18-2.49-4.29-4.84-6.09-7.09-1.8-2.25-3.27-4.39-4.35-6.28-1.08-1.89-1.79-3.51-2.2-4.66-.2-.57-.35-1.02-.43-1.33-.09-.31-.13-.47-.11-.48,.04-.01,.24,.63,.69,1.75,.45,1.12,1.19,2.71,2.3,4.57,1.1,1.86,2.59,3.97,4.4,6.19,1.8,2.23,3.92,4.56,6.1,7.05,4.41,4.95,7.86,9.94,9.71,13.89,.93,1.97,1.47,3.66,1.74,4.85,.13,.6,.21,1.06,.24,1.38,.04,.32,.05,.49,.04,.49Z" style="fill:#e0e0e0;"></path><path d="M427.25,361.4s-.4,.24-1.14,.64c-.73,.41-1.77,1.04-2.96,1.95-1.19,.91-2.52,2.1-3.88,3.54-1.36,1.44-2.77,3.11-4.2,4.9-2.86,3.59-5.54,6.77-7.14,9.31-.81,1.26-1.41,2.32-1.79,3.06-.39,.74-.6,1.16-.63,1.15-.01,0,.02-.12,.11-.32,.08-.2,.2-.51,.38-.89,.35-.77,.9-1.86,1.69-3.15,1.56-2.6,4.21-5.82,7.07-9.41,1.43-1.79,2.85-3.47,4.24-4.91,1.39-1.43,2.75-2.62,3.98-3.51,1.22-.89,2.29-1.49,3.05-1.87,.38-.19,.69-.31,.89-.39,.21-.08,.32-.12,.32-.11Z" style="fill:#e0e0e0;"></path><path d="M427.67,369.37c0,.06-.92,.17-2.41,.35-1.48,.19-3.55,.44-5.71,1.12-2.16,.7-3.95,1.77-5.11,2.68-1.18,.91-1.73,1.66-1.79,1.62-.02-.01,.1-.22,.36-.55,.26-.34,.68-.79,1.25-1.28,1.15-.99,2.96-2.12,5.17-2.84,2.22-.7,4.31-.9,5.8-1.03,1.5-.11,2.43-.12,2.44-.07Z" style="fill:#e0e0e0;"></path><path d="M413.35,374.27c-.13-.07,.96-1.73,1.8-3.96,.79-2.25,.97-4.22,1.12-4.2,.05,0,.05,.5-.04,1.29-.09,.79-.28,1.89-.7,3.04-.42,1.15-.97,2.12-1.4,2.79-.43,.67-.73,1.06-.78,1.03Z" style="fill:#e0e0e0;"></path><path d="M434.29,340.02s-.13,.08-.39,.2c-.3,.14-.67,.31-1.13,.51-.5,.21-1.1,.48-1.78,.84-.68,.35-1.47,.71-2.3,1.21-.42,.24-.86,.49-1.31,.75-.46,.26-.91,.57-1.39,.87-.97,.59-1.94,1.31-2.97,2.05-2.03,1.54-4.16,3.36-6.21,5.46-2.03,2.12-3.78,4.31-5.25,6.39-.7,1.06-1.39,2.05-1.95,3.04-.28,.49-.58,.95-.83,1.41-.24,.46-.48,.91-.7,1.34-.47,.84-.8,1.65-1.13,2.34-.33,.69-.58,1.3-.78,1.8-.19,.47-.35,.85-.48,1.15-.11,.26-.18,.4-.19,.39-.01,0,.03-.15,.12-.42,.11-.31,.24-.7,.41-1.18,.17-.51,.4-1.13,.72-1.84,.31-.7,.63-1.52,1.08-2.38,.22-.43,.45-.89,.68-1.36,.24-.47,.53-.94,.81-1.44,.55-1,1.23-2.01,1.93-3.08,1.46-2.1,3.21-4.32,5.26-6.46,2.07-2.12,4.22-3.95,6.28-5.48,1.05-.74,2.03-1.45,3.02-2.03,.49-.3,.94-.6,1.41-.86,.46-.25,.91-.5,1.33-.73,.84-.48,1.65-.83,2.34-1.16,.69-.34,1.3-.59,1.81-.78,.47-.18,.86-.33,1.16-.45,.27-.1,.41-.14,.41-.13Z" style="fill:#e0e0e0;"></path><path d="M417.08,351.54s.16-.67,.95-1.41c.77-.73,2.18-1.41,3.81-1.46,1.63-.04,3.05,.41,4.01,.78,.97,.38,1.54,.69,1.52,.74-.02,.06-.63-.16-1.61-.47-.98-.3-2.36-.69-3.91-.65-1.54,.05-2.87,.64-3.64,1.28-.79,.63-1.07,1.23-1.13,1.2Z" style="fill:#e0e0e0;"></path><path d="M414.51,354.2c-.11-.06,.86-1.48,1.08-3.52,.25-2.03-.36-3.64-.24-3.68,.04-.02,.26,.36,.45,1.03,.19,.67,.31,1.64,.19,2.7-.13,1.06-.47,1.97-.81,2.58-.34,.61-.63,.92-.67,.9Z" style="fill:#e0e0e0;"></path></g><path d="M386.5,389.9c.59,10.52,3.76,21.22,8.64,32.03h21.2c4.65-10.71,7.6-21.39,8.13-32.03h-37.97Z" style="fill:#e0e0e0;"></path><path d="M421.03,406.92c0,.11-6.98,.2-15.59,.2s-15.59-.09-15.59-.2,6.98-.2,15.59-.2,15.59,.09,15.59,.2Z" style="fill:#fafafa;"></path><path d="M420.55,410.73c0,.11-6.54,.2-14.62,.2s-14.62-.09-14.62-.2,6.54-.2,14.62-.2,14.62,.09,14.62,.2Z" style="fill:#fafafa;"></path><path d="M395.48,396.8c.11,0,.2,2.19,.2,4.88s-.09,4.88-.2,4.88-.2-2.19-.2-4.88,.09-4.88,.2-4.88Z" style="fill:#fafafa;"></path><path d="M406.84,396.8c.11,0,.2,2.26,.2,5.06s-.09,5.06-.2,5.06-.2-2.26-.2-5.06,.09-5.06,.2-5.06Z" style="fill:#fafafa;"></path><path d="M417.5,396.72c.11,0,.2,2.31,.2,5.16s-.09,5.16-.2,5.16-.2-2.31-.2-5.16,.09-5.16,.2-5.16Z" style="fill:#fafafa;"></path><path d="M423.79,396.8c0,.11-8.19,.2-18.29,.2s-18.29-.09-18.29-.2,8.19-.2,18.29-.2,18.29,.09,18.29,.2Z" style="fill:#fafafa;"></path></g><path d="M462.12,248.38s-.09-.81-.24-2.4c-.15-1.6-.38-3.98-.67-7.12-.58-6.3-1.45-15.65-2.59-27.87l.12,.06c-3.38,2.11-7.12,4.44-11.11,6.93l-.1,.06-.04-.1c-4.96-12.41-11.03-27.56-17.99-44.97l.25-.03c-3,16.66-6.45,35.77-10.23,56.75l-.15,.85-.16-.85c-5.32-27.82-11.37-59.5-17.99-94.15h.39c-4.88,37.39-10.35,79.38-16.22,124.34l-.24,1.84-.21-1.84c-3.81-33.11-7.82-67.98-11.99-104.24l.46,.08c-12.19,23.47-25.18,48.46-38.48,74.05l-.18,.35-.24-.31c-3.73-4.74-7.84-9.97-11.97-15.23l.42-.03c-4.01,6.83-8.4,14.32-12.83,21.86l-.25,.42-.21-.44c-6.21-13.22-12.91-27.5-19.67-41.92l.48-.04c-6.48,24.26-13.34,49.96-20.29,75.99-2.37,8.88-4.73,17.72-7.08,26.52l-.23,.85-.27-.83c-8.69-26.52-17.25-52.65-25.65-78.29l.46,.07c-15.43,22.26-30.55,44.08-45.33,65.41l-.23,.33-.2-.36c-4.31-7.8-8.59-15.53-12.83-23.2l.45-.02c-3.46,7.81-6.88,15.54-10.27,23.2l-.21,.47-.23-.46c-7.87-15.47-15.55-30.57-23.08-45.38h.43c-6.41,13.5-12.68,26.7-18.82,39.64l-.23,.49-.19-.5c-9.84-25.4-19.23-49.65-28.21-72.84l.41-.04c-5.94,33.62-11.44,65.11-16.85,94.09-.18,.9-.35,1.81-.53,2.71-.17,.9-.36,1.8-.59,2.71l-.02,.09v.04s-.06,.08-.09,.11c-.22,.11-.3-.04-.32-.05-.03-.04-.06-.07-.07-.1-.07-.12-.11-.23-.15-.34-.08-.22-.16-.44-.22-.66-.14-.44-.26-.88-.38-1.31-.23-.88-.45-1.76-.68-2.63-.87-3.5-1.66-6.98-2.43-10.43-1.54-6.88-2.99-13.62-4.4-20.2-2.8-13.16-5.4-25.69-7.83-37.53l.31-.03c-.01,25.13-.03,46.57-.04,64.94v.33l-.21-.25c-6.22-7.52-10.99-13.3-15.38-18.62l.18-.05c-1.96,18.19-3.47,32.27-4.49,41.79-.52,4.76-.91,8.38-1.18,10.82-.27,2.43-.42,3.67-.42,3.67,0,0,.11-1.25,.36-3.68,.25-2.44,.63-6.06,1.13-10.82,1-9.53,2.48-23.6,4.4-41.8l.02-.24,.15,.18c4.4,5.31,9.18,11.08,15.41,18.59l-.21,.07c-.01-18.37-.02-39.81-.04-64.94v-1.52l.31,1.49c2.44,11.84,5.05,24.36,7.87,37.52,1.41,6.58,2.86,13.32,4.41,20.2,.78,3.44,1.57,6.92,2.44,10.42,.23,.87,.45,1.75,.68,2.62,.12,.44,.24,.87,.38,1.3,.07,.21,.14,.43,.22,.63,.04,.1,.08,.21,.13,.28,.01,.02,.02,.03,.03,.04,.02,0-.06,.05-.07,.08-.02,.07-.02,.03-.02,.04-.03-.05-.06-.06-.12-.08v-.04l.03-.08c.21-.86,.4-1.74,.57-2.65,.18-.9,.35-1.8,.53-2.7,5.38-28.98,10.87-60.48,16.79-94.09l.13-.76,.28,.72c8.99,23.18,18.39,47.43,28.24,72.83l-.43-.02c6.14-12.94,12.4-26.14,18.81-39.65l.21-.44,.22,.43c7.54,14.8,15.22,29.9,23.1,45.37h-.44c3.39-7.65,6.8-15.37,10.26-23.19l.2-.46,.24,.44c4.24,7.67,8.52,15.4,12.83,23.2l-.43-.02c14.78-21.33,29.9-43.16,45.32-65.42l.3-.43,.16,.49c8.4,25.64,16.97,51.77,25.66,78.29h-.5c2.35-8.79,4.71-17.63,7.08-26.51,6.95-26.03,13.81-51.73,20.29-75.99l.18-.69,.3,.64c6.76,14.42,13.46,28.7,19.67,41.92l-.45-.02c4.42-7.53,8.82-15.02,12.83-21.86l.19-.32,.23,.29c4.13,5.26,8.24,10.49,11.97,15.23l-.42,.04c13.3-25.59,26.29-50.58,38.49-74.04l.37-.71,.09,.79c4.16,36.26,8.16,71.13,11.96,104.24h-.45c5.89-44.97,11.38-86.95,16.28-124.35l.16-1.21,.23,1.2c6.6,34.65,12.63,66.34,17.92,94.17h-.31c3.8-20.97,7.27-40.08,10.29-56.74l.08-.45,.17,.42c6.94,17.42,12.98,32.58,17.93,44.99l-.14-.05c4-2.48,7.74-4.8,11.12-6.91l.11-.07v.13c1.11,12.23,1.95,21.58,2.52,27.88,.28,3.15,.49,5.53,.63,7.13,.14,1.6,.2,2.41,.2,2.41Z" style="fill:#e0e0e0;"></path><path d="M407.14,63.93c1.28-.77,2.64-1.36,4.04-1.76l.83-4,6.76-.12,.97,3.97c1.42,.35,2.8,.89,4.1,1.61l3.42-2.24,4.86,4.7-2.12,3.49c.77,1.28,1.36,2.64,1.76,4.04l4,.83,.12,6.76-3.97,.97c-.35,1.42-.89,2.8-1.61,4.1l2.24,3.42-4.69,4.86-3.49-2.12c-1.28,.77-2.64,1.36-4.04,1.76l-.83,4-6.76,.12-.97-3.97c-1.42-.35-2.8-.89-4.1-1.61l-3.42,2.24-4.86-4.7,2.12-3.49c-.77-1.28-1.36-2.64-1.76-4.04l-4-.83-.12-6.76,3.97-.97c.35-1.42,.89-2.8,1.61-4.1l-2.24-3.42,4.69-4.86,3.49,2.12h0Zm3.6,9c-2.78,2.88-2.7,7.47,.18,10.25,2.88,2.78,7.47,2.7,10.25-.18,2.78-2.88,2.7-7.47-.18-10.25-2.88-2.78-7.47-2.7-10.25,.18Z" style="fill:#f5f5f5;"></path><path d="M100.86,343.17c1.85-1.12,3.82-1.97,5.85-2.54l1.21-5.79,9.78-.17,1.41,5.74c2.05,.51,4.05,1.28,5.94,2.34l4.94-3.24,7.04,6.8-3.06,5.05c1.12,1.85,1.97,3.82,2.54,5.85l5.79,1.2,.17,9.78-5.74,1.41c-.51,2.05-1.28,4.05-2.34,5.94l3.24,4.94-6.8,7.04-5.06-3.06c-1.85,1.12-3.82,1.97-5.85,2.54l-1.21,5.79-9.78,.17-1.41-5.74c-2.05-.51-4.05-1.28-5.94-2.34l-4.94,3.24-7.04-6.8,3.06-5.05c-1.12-1.85-1.97-3.82-2.54-5.85l-5.79-1.21-.17-9.78,5.74-1.41c.51-2.05,1.28-4.05,2.34-5.94l-3.24-4.94,6.8-7.04,5.06,3.07h0Zm5.22,13.03c-4.03,4.17-3.91,10.82,.26,14.84,4.17,4.03,10.82,3.91,14.84-.26,4.03-4.17,3.91-10.82-.26-14.84-4.17-4.03-10.82-3.91-14.84,.26Z" style="fill:#f5f5f5;"></path><path d="M219.39,126.43c1.15-.7,2.38-1.22,3.64-1.58l.75-3.61,6.09-.11,.88,3.58c1.28,.31,2.52,.8,3.7,1.45l3.08-2.02,4.38,4.23-1.91,3.15c.7,1.15,1.22,2.38,1.58,3.64l3.61,.75,.11,6.09-3.58,.88c-.31,1.28-.8,2.52-1.45,3.7l2.02,3.08-4.23,4.38-3.15-1.91c-1.15,.7-2.38,1.22-3.64,1.58l-.75,3.61-6.09,.11-.88-3.58c-1.28-.31-2.52-.8-3.7-1.45l-3.08,2.02-4.38-4.23,1.91-3.15c-.7-1.15-1.22-2.38-1.58-3.64l-3.61-.75-.11-6.09,3.58-.88c.31-1.28,.8-2.52,1.45-3.7l-2.02-3.08,4.23-4.38,3.15,1.91h0Zm3.25,8.12c-2.51,2.6-2.44,6.74,.16,9.24,2.6,2.51,6.74,2.43,9.24-.16,2.51-2.6,2.44-6.74-.16-9.24-2.6-2.51-6.74-2.43-9.24,.16Z" style="fill:#f5f5f5;"></path></g><g id="freepik--Floor--inject-223"><path d="M466.07,422c0,.14-97.58,.26-217.93,.26s-217.95-.12-217.95-.26,97.56-.26,217.95-.26,217.93,.12,217.93,.26Z" style="fill:#263238;"></path></g><g id="freepik--Speech_Bubble--inject-223"><g><g><path d="M53.06,193.52l5.83-4.95c.11-4.56,1.44-9.14,4.1-13.24,7.66-11.8,23.43-15.16,35.23-7.5,11.8,7.66,15.16,23.43,7.5,35.23-7.66,11.8-23.43,15.16-35.23,7.5-4.93-3.2-8.38-7.81-10.17-12.96h0l-7.25-4.07Z" style="fill:#fff;"></path><path d="M53.06,193.52s.14,.09,.45,.27c.32,.18,.77,.45,1.37,.79,1.23,.71,3.04,1.75,5.4,3.1l.12,.07v-.14h-.01l-.15,.02c1.07,3.1,3.11,7.03,6.87,10.48,.93,.86,1.98,1.68,3.12,2.44,1.17,.7,2.37,1.47,3.73,2.02,2.66,1.2,5.71,2.01,8.96,2.19,3.25,.19,6.71-.26,10.06-1.46,3.35-1.19,6.58-3.14,9.3-5.8,2.74-2.64,4.92-6.03,6.24-9.82,1.31-3.78,1.84-7.98,1.19-12.12-.62-4.2-2.21-8.19-4.65-11.45-2.4-3.29-5.53-5.91-8.95-7.7-3.43-1.77-7.16-2.67-10.75-2.81-3.6-.13-7.07,.5-10.14,1.68-3.08,1.17-5.76,2.89-7.94,4.86-1.12,.96-2.04,2.05-2.94,3.09-.8,1.12-1.61,2.17-2.22,3.29-2.53,4.46-3.25,8.81-3.31,12.04l.03-.05c-1.88,1.63-3.33,2.88-4.32,3.73-.48,.41-.84,.73-1.1,.95-.24,.21-.36,.32-.36,.32,0,0,.14-.11,.4-.32,.26-.22,.64-.53,1.13-.94,1-.83,2.45-2.05,4.34-3.63l.02-.02v-.03c.09-3.21,.84-7.52,3.36-11.93,.61-1.11,1.42-2.15,2.22-3.25,.89-1.03,1.81-2.11,2.92-3.05,2.17-1.94,4.82-3.62,7.87-4.78,3.04-1.16,6.47-1.77,10.02-1.63,3.55,.14,7.22,1.03,10.61,2.79,3.38,1.77,6.46,4.35,8.83,7.6,2.41,3.22,3.98,7.16,4.58,11.3,1.23,8.2-1.91,16.45-7.32,21.65-2.69,2.63-5.87,4.56-9.18,5.74-3.3,1.19-6.72,1.64-9.93,1.46-3.22-.17-6.23-.97-8.87-2.14-1.34-.54-2.53-1.3-3.7-1.99-1.13-.74-2.17-1.55-3.1-2.4-3.75-3.4-5.79-7.29-6.89-10.36l-.2-.55,.05,.58h0l.11-.06c-2.35-1.3-4.16-2.31-5.4-2.99-.61-.34-1.08-.59-1.4-.77-.32-.17-.49-.26-.49-.26Z" style="fill:#263238;"></path></g><path d="M89.59,189.21c0,1.74,1.41,3.15,3.15,3.15s3.15-1.41,3.15-3.15-1.41-3.15-3.15-3.15-3.15,1.41-3.15,3.15Z" style="fill:#263238;"></path><path d="M80.18,189.21c0,1.74,1.41,3.15,3.15,3.15s3.15-1.41,3.15-3.15-1.41-3.15-3.15-3.15-3.15,1.41-3.15,3.15Z" style="fill:#263238;"></path><path d="M70.76,189.21c0,1.74,1.41,3.15,3.15,3.15s3.15-1.41,3.15-3.15-1.41-3.15-3.15-3.15-3.15,1.41-3.15,3.15Z" style="fill:#263238;"></path></g></g><g id="freepik--Hand--inject-223"><g><g><g><polygon points="307.03 112.63 334.03 104.62 334.03 101.67 308.82 100.37 265.97 112.63 191.64 112.63 175.93 117.54 175.93 121.46 235.08 121.46 195.57 132.77 195.57 136.7 220.34 138.33 277.23 121.46 355.97 121.46 363.17 117.05 363.17 112.63 307.03 112.63" style="fill:#FF725E;"></polygon><polygon points="195.57 136.7 195.57 132.77 219.87 134.32 220.34 138.33 195.57 136.7" style="opacity:.3;"></polygon><polygon points="355.97 117.24 363.17 112.63 363.17 117.05 355.97 121.46 355.97 117.24" style="opacity:.5;"></polygon><polygon points="276.99 117.46 219.87 134.32 220.34 138.33 277.23 121.46 276.99 117.46" style="opacity:.5;"></polygon><polygon points="276.99 117.46 355.97 117.24 355.97 121.46 277.23 121.46 276.99 117.46" style="opacity:.3;"></polygon><polygon points="175.93 121.46 175.93 117.54 243.52 119.35 235.08 121.46 175.93 121.46" style="opacity:.5;"></polygon><polygon points="334.03 101.67 296.32 112.04 307.03 112.63 334.03 104.62 334.03 101.67" style="opacity:.3;"></polygon><path d="M217.96,129.56c0,.92-.75,1.67-1.67,1.67s-1.67-.75-1.67-1.67,.75-1.67,1.67-1.67,1.67,.75,1.67,1.67Z" style="fill:#263238;"></path><path d="M351.5,112.63c0,.92-.75,1.67-1.67,1.67s-1.67-.75-1.67-1.67,.75-1.67,1.67-1.67,1.67,.75,1.67,1.67Z" style="fill:#263238;"></path><path d="M316.84,100.87c0,.92-.75,1.67-1.67,1.67s-1.67-.75-1.67-1.67,.75-1.67,1.67-1.67,1.67,.75,1.67,1.67Z" style="fill:#263238;"></path><circle cx="194.69" cy="114.06" r="1.67" style="fill:#263238;"></circle></g><g><path d="M241.48,119.86c2.04-7.23-2.68-29.27-3.1-30.53-.42-1.26,0-2.73,2.1-2.35s14.07,25.03,14.07,25.03c0,0,3.55,13.67,4.39,17.66,.84,3.99,1.94,8.87,7.16,9.55,4.95,.64,7.42-3.92,7.14-9.15-.22-4.03-2.62-20.69-3.46-24.05-.84-3.36-10.2-22.57-11.46-24.46-1.26-1.89,1.68-3.78,4.2-3.55,2.52,.23,18.48,10.27,18.48,10.27,0,0,10.91,13.73,11.33,14.36,.42,.63,1.03,2.88,3.97,9.4l14.37,.59c-.63-3.99-4.04-13.42-4.04-13.42,0,0,1.68-4.2,2.31-8.19,.63-3.99-2.52-26.04-3.99-27.93s-34.18-18.96-34.18-18.96c-6.06-2.2-80.37-17.61-95.23-18.72-14.86-1.1-127.37,39.3-127.37,39.3-1.21,.51-.69,19.86,4.14,33.72,4.83,13.86,22.86,34.34,22.86,34.34l95.98-63.81s10.29,10.5,19.53,13.02c9.24,2.52,26.67,5.88,26.67,5.88l8.97,22.8s1.84,8.01,2.51,12.58l12.62-3.38Z" style="fill:#ffbf9d;"></path><path d="M164.28,51.34c.08,0,.25,1.14,.64,2.98,.39,1.83,1.03,4.34,2.03,7.02,1,2.68,2.16,5,3.06,6.64,.91,1.64,1.53,2.62,1.47,2.67-.05,.04-.79-.88-1.78-2.48-1-1.6-2.22-3.93-3.23-6.64-1.01-2.71-1.61-5.27-1.9-7.13-.3-1.87-.34-3.04-.28-3.05Z" style="fill:#ff9a6c;"></path><path d="M167.82,67.48c-.09,.1-2.07-1.75-3.8-4.58-1.75-2.82-2.5-5.43-2.37-5.46,.15-.06,1.11,2.42,2.82,5.19,1.69,2.78,3.47,4.75,3.36,4.86Z" style="fill:#ff9a6c;"></path><path d="M232.02,77.58c-.09,.01-.23-.71-.65-1.82-.42-1.1-1.16-2.56-2.31-3.94-1.16-1.37-2.47-2.37-3.48-2.97-1.01-.61-1.7-.88-1.67-.96,.02-.05,.76,.1,1.85,.64,1.09,.54,2.5,1.52,3.7,2.96,1.2,1.44,1.93,2.99,2.26,4.16,.34,1.17,.36,1.93,.31,1.94Z" style="fill:#ff9a6c;"></path><path d="M249.01,63.72c-.09,.02-.22-.88-.76-2.2-.53-1.32-1.53-3.06-3.16-4.5-1.62-1.44-3.48-2.23-4.85-2.59-1.38-.37-2.28-.4-2.28-.49,0-.06,.91-.16,2.36,.13,1.44,.28,3.41,1.05,5.11,2.56,1.7,1.51,2.71,3.37,3.16,4.76,.46,1.4,.47,2.33,.42,2.33Z" style="fill:#ff9a6c;"></path><path d="M265.73,55.71c-.09,.04-.47-.91-1.37-2.27-.89-1.36-2.37-3.08-4.4-4.5-2.04-1.41-4.17-2.21-5.75-2.57-1.58-.37-2.61-.4-2.6-.49,0-.04,.26-.05,.72-.06,.46-.01,1.14,.05,1.96,.19,1.64,.28,3.87,1.04,5.97,2.5,2.1,1.47,3.59,3.29,4.42,4.73,.42,.72,.71,1.33,.86,1.77,.16,.44,.23,.68,.2,.7Z" style="fill:#ff9a6c;"></path><path d="M261.29,77.96c-.03,.08-.71-.27-1.37-1.18-.35-.42-.71-.99-1.31-1.26-.57-.29-1.48-.33-1.7,.32-.2,.63,.19,1.47,.35,2.16,.2,.7,.4,1.32,.57,1.85,.34,1.05,.57,1.7,.5,1.73-.06,.03-.41-.57-.84-1.6-.22-.51-.45-1.13-.68-1.83-.12-.35-.23-.72-.34-1.11-.1-.39-.22-.86-.04-1.37,.16-.51,.71-.83,1.16-.85,.47-.04,.88,.09,1.24,.27,.74,.38,1.08,1.04,1.39,1.48,.57,.95,1.1,1.34,1.07,1.4Z" style="fill:#ff9a6c;"></path><path d="M306.64,99.21s-.12-.17-.29-.5c-.2-.39-.45-.88-.75-1.48-.67-1.36-1.58-3.21-2.69-5.48-1.15-2.33-2.51-5.08-4.01-8.11-.76-1.52-1.57-3.12-2.44-4.75-.22-.41-.43-.82-.67-1.23l-.35-.61-.4-.56c-.25-.38-.58-.73-.91-1.08-.32-.36-.65-.71-1.01-1.04-2.82-2.71-5.75-5.06-8.4-7.18-2.67-2.12-5.1-3.98-7.15-5.54-2.01-1.52-3.66-2.77-4.87-3.68-.53-.41-.97-.74-1.32-1.01-.3-.24-.45-.36-.44-.38,.01-.01,.18,.09,.5,.29,.36,.24,.82,.55,1.37,.93,1.18,.82,2.89,2.03,4.97,3.55,2.08,1.52,4.54,3.36,7.23,5.46,2.68,2.11,5.62,4.44,8.47,7.19,.36,.33,.7,.69,1.03,1.06,.33,.36,.67,.71,.95,1.13,.14,.2,.3,.4,.43,.6l.35,.62c.24,.41,.45,.83,.67,1.24,.86,1.65,1.67,3.24,2.42,4.78,1.5,3.06,2.82,5.83,3.91,8.17,1.09,2.34,1.96,4.23,2.55,5.55,.27,.62,.49,1.12,.66,1.52,.15,.35,.21,.54,.2,.55Z" style="fill:#ff9a6c;"></path></g><path d="M86.44,51.34l-53.22,16.56s-.7,94.81,0,96.09l69.13-44.49-15.9-68.16Z" style="fill:#FF725E;"></path></g><path d="M219.73,449.11s-.02-.28-.03-.81c0-.55-.02-1.35-.04-2.39-.02-2.12-.05-5.21-.1-9.19-.1-7.98-.27-19.54-.56-33.81-.56-28.55-1.63-67.98-2.78-111.53-1.16-43.57-2.16-83-2.63-111.56-.24-14.28-.36-25.83-.4-33.81,0-3.98,0-7.08,0-9.19v-2.39c.02-.54,.04-.81,.04-.81,0,0,.02,.28,.03,.81,0,.55,.02,1.35,.04,2.39,.02,2.12,.05,5.21,.1,9.19,.1,7.98,.27,19.53,.56,33.81,.56,28.55,1.63,67.98,2.78,111.55,1.16,43.55,2.16,82.99,2.63,111.54,.24,14.28,.36,25.83,.4,33.82,0,3.98,0,7.08,0,9.2v2.39c-.02,.54-.04,.81-.04,.81Z" style="fill:#263238;"></path><path d="M189.23,119.35c.14,0,.26,27.63,.26,61.71s-.12,61.72-.26,61.72-.26-27.63-.26-61.72,.12-61.71,.26-61.71Z" style="fill:#263238;"></path><path d="M339.6,326.59s0-.19,.02-.55c.02-.38,.06-.92,.1-1.61,.1-1.43,.25-3.51,.44-6.17,.21-2.68,.41-5.96,.65-9.77,.26-3.81,.51-8.15,.78-12.95,1.1-19.19,2.21-45.72,3.03-75.04,.81-29.33,1.21-55.88,1.42-75.1,.09-9.6,.16-17.37,.21-22.76,.03-2.67,.05-4.75,.06-6.19,.01-.69,.02-1.23,.03-1.61,0-.36,.03-.55,.03-.55,0,0,.02,.19,.03,.55,0,.38,.01,.92,.02,1.61,0,1.44,.02,3.52,.04,6.19,.02,5.38,.02,13.15-.04,22.77-.11,19.22-.45,45.78-1.27,75.11-.82,29.32-1.98,55.86-3.18,75.04-.29,4.8-.57,9.14-.85,12.94-.28,3.81-.5,7.09-.74,9.77-.23,2.66-.41,4.74-.53,6.17-.07,.69-.12,1.22-.15,1.6-.04,.36-.07,.54-.07,.54Z" style="fill:#263238;"></path><path d="M301.94,450.82s-.02-.3-.02-.9c0-.61,0-1.49,0-2.64,0-2.33,0-5.75,.01-10.15-.01-4.41,.09-9.8,.17-16.06,.07-6.26,.23-13.39,.4-21.27,.68-31.52,2.23-75.05,4.06-123.12,1.83-48.08,3.44-91.61,4.21-123.13,.2-7.88,.38-15.01,.48-21.27,.1-6.26,.24-11.65,.26-16.06,.05-4.4,.09-7.82,.11-10.15,.02-1.15,.03-2.03,.04-2.64,.01-.59,.03-.9,.03-.9,0,0,.02,.3,.02,.9,0,.61,0,1.49,0,2.64,0,2.33,0,5.75-.01,10.15,.01,4.41-.09,9.8-.17,16.06-.07,6.26-.23,13.39-.4,21.27-.68,31.52-2.23,75.05-4.06,123.14-1.83,48.07-3.44,91.59-4.21,123.11-.2,7.88-.38,15.01-.48,21.27-.1,6.26-.24,11.65-.26,16.06-.05,4.4-.09,7.82-.11,10.15-.02,1.15-.03,2.03-.04,2.64-.01,.59-.03,.9-.03,.9Z" style="fill:#263238;"></path></g></g><g id="freepik--Character--inject-223"><g><path d="M261.28,214c-3.9,5.39-8.78,11.94-8.99,18.59-.06,1.89,.17,3.9-.74,5.56-1.26,2.3-4.37,3.22-5.33,5.66-.84,2.14,.32,4.47,.73,6.73,.56,3.05-.29,6.17-1.3,9.1-1.01,2.93-2.21,5.86-2.41,8.95-.19,3.09,.84,6.48,3.43,8.19l13.46-2.94,8.88-52.55-7.73-7.3Z" style="fill:#263238;"></path><g><g><path d="M217.45,318.46c-.62,.84-8.6,20.6-3.28,37.45,2.92,9.25,12.32,47.49,12.32,47.49,0,0-2.68,22.66-5.37,38.57-2.69,15.91-2.57,15.56-2.57,15.56l14.29,2.71s13.12-42.35,14.1-53.75c.99-11.4-3.2-53.9-3.2-53.9l3.35-12.58-29.64-21.54Z" style="fill:#263238;"></path><g><path d="M234.19,447.89l-4.08,15.66,.53,13.35c.04,.96-.78,1.74-1.79,1.69h0c-.56-.03-1.08-.31-1.4-.77-1.99-2.9-9.26-13.59-8.89-14.72,.42-1.31,3.15-16.82,3.15-16.82l12.48,1.6Z" style="fill:#263238;"></path><path d="M228.85,478.6l-10.04-16.55-.16,.67c-.14,.58-.05,1.19,.24,1.72,.78,1.42,3.01,5.31,8.51,13.39,.32,.47,.86,.76,1.45,.78h0Z" style="fill:#455a64;"></path><g style="opacity:.6;"><path d="M223.41,457.76c.35,.37,.35,1-.02,1.34-.37,.34-1.04,.33-1.39-.03-.36-.36-.38-1.12,.03-1.42,.4-.3,1.19-.24,1.45,.19" style="fill:#fff;"></path></g><path d="M226.67,470.83c.08,.07,.65-.67,1.74-.89,1.08-.24,1.95,.19,1.99,.1,.02-.04-.16-.21-.53-.35-.37-.14-.95-.22-1.55-.1-.6,.13-1.08,.43-1.34,.71-.27,.28-.35,.51-.31,.53Z" style="fill:#fff;"></path><path d="M227.36,473.21c.06,.09,.72-.3,1.63-.33,.91-.05,1.62,.27,1.67,.18,.07-.07-.65-.59-1.69-.54-1.04,.04-1.68,.63-1.6,.69Z" style="fill:#fff;"></path><path d="M225.11,467.61c.06,.09,1.06-.51,2.47-.68,1.41-.19,2.56,.14,2.59,.03,.05-.08-1.13-.58-2.65-.38-1.51,.19-2.49,.97-2.42,1.03Z" style="fill:#fff;"></path><path d="M225.93,462.74c.02,.1,1.02-.04,2.23,.19,1.21,.22,2.08,.73,2.14,.64,.06-.07-.78-.75-2.08-.99-1.29-.25-2.33,.07-2.29,.16Z" style="fill:#fff;"></path></g><path d="M238.48,407.4c-.04,.13-2.19-.54-4.52-2-2.34-1.45-3.88-3.08-3.79-3.18,.1-.11,1.77,1.32,4.06,2.73,2.28,1.43,4.3,2.29,4.25,2.44Z" style="fill:#455a64;"></path><path d="M235.36,452.69c0,.06-.88,.21-2.34,.26-1.45,.04-3.49-.05-5.66-.59-2.17-.55-4.01-1.42-5.27-2.14-1.26-.73-1.97-1.28-1.94-1.33,.09-.18,3.09,1.89,7.34,2.97,4.25,1.04,7.88,.63,7.87,.83Z" style="fill:#455a64;"></path><path d="M234.76,454.74c0,.06-.88,.21-2.34,.26-1.45,.04-3.49-.05-5.66-.59-2.17-.55-4.01-1.42-5.27-2.14-1.26-.73-1.97-1.28-1.94-1.33,.09-.18,3.09,1.89,7.34,2.97,4.25,1.04,7.88,.63,7.87,.83Z" style="fill:#455a64;"></path><g><path d="M220.09,449.01c0,.05-.96,.18-2.46-.21-.74-.2-1.61-.53-2.48-1.07-.43-.28-.89-.56-1.27-1.04-.38-.46-.56-1.28-.08-1.88,.25-.3,.65-.41,.97-.39,.33,.01,.62,.09,.88,.18,.53,.17,1.03,.39,1.48,.63,.9,.5,1.61,1.1,2.12,1.68,1.04,1.15,1.34,2.09,1.29,2.1-.08,.05-.49-.81-1.55-1.85-.53-.52-1.23-1.06-2.09-1.51-.43-.22-.9-.42-1.4-.57-.49-.17-1.05-.25-1.3,.06-.27,.33-.21,.87,.09,1.23,.29,.38,.72,.67,1.12,.94,.81,.53,1.63,.88,2.33,1.12,1.41,.46,2.36,.47,2.35,.56Z" style="fill:#455a64;"></path><path d="M220.64,448.8s-.17-.22-.36-.68c-.19-.45-.42-1.13-.61-2-.18-.87-.3-1.92-.25-3.09,.02-.59,.09-1.2,.2-1.83,.07-.32,.15-.68,.45-1,.3-.34,.89-.35,1.22-.11,.68,.46,.93,1.13,1.15,1.74,.2,.63,.25,1.27,.22,1.87-.06,1.2-.46,2.22-.84,3.01-.39,.79-.78,1.39-1.05,1.8-.28,.4-.45,.62-.48,.6-.08-.04,.49-.97,1.19-2.55,.33-.79,.67-1.76,.7-2.88,.01-.55-.04-1.14-.23-1.7-.18-.54-.48-1.16-.93-1.45-.22-.14-.43-.12-.59,.03-.16,.16-.26,.44-.31,.73-.12,.6-.19,1.19-.22,1.76-.07,1.13,0,2.16,.13,3.01,.27,1.7,.69,2.71,.6,2.74Z" style="fill:#455a64;"></path></g></g><g><path d="M242.51,336.21s10.84,62.55,14.82,69.89c3.98,7.34,32.23,54.14,32.23,54.14l13.92-5.74s-14.31-34.69-23.18-48.35c-8.87-13.66-.43-32.1-1-46.35-.57-14.24-1.41-22.72-7.65-30.62-6.24-7.91-29.14,7.04-29.14,7.04Z" style="fill:#263238;"></path><g><path d="M286.68,447.17l5.18,15.34,.41,13.36c.03,.96,.91,1.68,1.91,1.56h0c.56-.07,1.06-.39,1.34-.86,1.78-3.03,8.28-14.21,7.83-15.31-.52-1.27-4.33-16.55-4.33-16.55l-12.33,2.48Z" style="fill:#263238;"></path><path d="M294.37,477.6l8.85-17.22,.2,.65c.18,.57,.14,1.18-.11,1.73-.68,1.47-2.63,5.5-7.55,13.95-.29,.49-.81,.82-1.39,.88h0Z" style="fill:#455a64;"></path><path d="M295.99,469.7c-.08,.07-.7-.62-1.8-.76-1.1-.17-1.93,.33-1.98,.24-.03-.03,.14-.22,.51-.39,.36-.17,.93-.29,1.54-.21,.61,.08,1.1,.35,1.39,.61,.29,.26,.39,.48,.35,.5Z" style="fill:#fff;"></path><path d="M295.48,472.13c-.06,.09-.74-.25-1.65-.22-.91,.01-1.59,.39-1.65,.3-.07-.06,.61-.63,1.65-.65,1.04-.03,1.72,.51,1.65,.58Z" style="fill:#fff;"></path><path d="M297.33,466.38c-.05,.1-1.09-.43-2.52-.5-1.42-.09-2.55,.32-2.58,.21-.05-.07,1.09-.66,2.61-.57,1.52,.08,2.55,.79,2.48,.86Z" style="fill:#fff;"></path><path d="M296.16,461.58c-.01,.11-1.03,.03-2.21,.35-1.19,.31-2.03,.88-2.09,.79-.07-.06,.73-.8,2-1.14,1.27-.34,2.33-.09,2.3,0Z" style="fill:#fff;"></path></g><g><path d="M302.05,451.15c.03,.07-.75,.43-2,1.01-1.44,.65-3.09,1.39-4.91,2.21-3.84,1.72-7.1,2.8-7.15,2.65-.03-.07,.76-.41,2.02-.97,1.45-.64,3.1-1.36,4.92-2.17,3.84-1.72,7.06-2.88,7.11-2.74Z" style="fill:#455a64;"></path><path d="M300.47,448.49s-.39,.86-1.49,1.87c-1.09,1.02-2.89,2.1-5.07,2.76-2.17,.65-4.22,.85-5.68,.95-1.47,.09-2.37,.09-2.38,.02,0-.07,.89-.2,2.34-.39,1.45-.19,3.45-.44,5.56-1.08,2.11-.63,3.87-1.63,4.98-2.54,1.13-.9,1.66-1.64,1.73-1.59Z" style="fill:#455a64;"></path><path d="M301.22,449.99s.03-.41,.2-1.12c.17-.71,.43-1.73,.85-2.97,.42-1.23,1.01-2.7,1.95-4.16,.47-.73,1.04-1.46,1.7-2.14,.33-.35,.67-.67,1.07-.99,.21-.15,.45-.31,.78-.35,.33-.05,.71,.13,.88,.41,.34,.56,.25,1.1,.25,1.59-.03,.5-.1,.99-.22,1.46-.23,.94-.61,1.79-1.06,2.54-.9,1.52-2.05,2.62-3.04,3.47-1,.84-1.87,1.44-2.48,1.84-.61,.4-.95,.61-.97,.58-.06-.08,1.27-1,3.21-2.7,.95-.87,2.03-1.97,2.87-3.43,.42-.73,.77-1.54,.98-2.42,.11-.44,.17-.9,.19-1.36,.01-.46,.03-.97-.17-1.27-.18-.3-.56-.22-.91,.06-.34,.28-.7,.61-1.02,.94-.64,.65-1.19,1.35-1.66,2.05-.94,1.41-1.55,2.83-2.01,4.03-.9,2.42-1.3,3.98-1.39,3.96Z" style="fill:#263238;"></path><path d="M301.13,450.14s-.28-.31-.59-.98c-.31-.67-.64-1.68-.98-2.93-.18-.62-.36-1.31-.61-2.02-.27-.7-.56-1.5-.76-2.34-.2-.85-.33-1.77-.32-2.73,0-.48,.05-.96,.13-1.47,.05-.26,.13-.52,.28-.76,.14-.24,.4-.5,.75-.55,.34-.06,.69,.11,.89,.31,.21,.21,.35,.44,.46,.68,.2,.47,.37,.91,.51,1.37,.29,.91,.48,1.81,.6,2.67,.23,1.73,.2,3.3,.12,4.6-.09,1.3-.24,2.35-.36,3.07-.12,.72-.21,1.11-.25,1.11-.09-.01,.14-1.61,.24-4.19,.04-1.29,.02-2.83-.22-4.51-.13-.84-.32-1.71-.61-2.58-.14-.44-.31-.88-.49-1.3-.18-.4-.49-.77-.8-.7-.3,.03-.53,.48-.61,.9-.08,.45-.12,.92-.13,1.37-.02,.91,.09,1.79,.27,2.62,.18,.83,.44,1.58,.7,2.31,.24,.74,.41,1.43,.56,2.07,.3,1.27,.56,2.27,.81,2.95,.24,.68,.44,1.03,.4,1.05Z" style="fill:#263238;"></path></g><path d="M271.45,397.83c.13-.02,.07,2.47-1.48,5.03-1.52,2.57-3.69,3.8-3.73,3.67-.1-.13,1.84-1.49,3.29-3.94,1.48-2.43,1.76-4.79,1.92-4.76Z" style="fill:#455a64;"></path></g></g><g><path d="M231.5,251.91s-.7,2.09-3.41,14.62c-1.27,5.88,.31,16.12-2.14,22.77-1.15,3.14-11.74,17.95-12.16,20.02s6.8,18.93,11.5,22.12c4.7,3.18,18.65,7.35,27.09,4.31,8.44-3.04,14.94-8.72,18.4-7.75,3.46,.97,.83-2.51,.83-2.51l-2.77-6.34s.97-1.11-.14-3.04c-1.11-1.94-1.52-2.91-1.52-2.91l11.07-28.36,6.18-20.69-5.9-5.58s-22.94-16.12-28.51-17.58l-18.54,10.93Z" style="fill:#FF725E;"></path><path d="M239.56,320.19c-.14,.03-1.52-6.64-3.08-14.9-1.56-8.26-2.71-14.97-2.57-14.99,.14-.03,1.52,6.64,3.08,14.9,1.56,8.25,2.71,14.97,2.57,14.99Z" style="fill:#263238;"></path><path d="M253.93,313.27s-.37-.16-.98-.53c-.62-.36-1.48-.95-2.5-1.72-2.06-1.53-4.72-3.91-7.19-6.97-2.46-3.06-4.23-6.17-5.29-8.5-.53-1.17-.92-2.13-1.15-2.81-.23-.68-.35-1.06-.31-1.07,.08-.03,.65,1.45,1.79,3.72,1.14,2.27,2.93,5.31,5.37,8.33,2.44,3.01,5.03,5.41,7.01,7,1.98,1.6,3.31,2.46,3.26,2.54Z" style="fill:#263238;"></path><path d="M251.06,291.59c.07-.04,.8,1.3,2.06,3.4,1.26,2.1,3.1,4.94,5.37,7.92,2.27,2.97,4.53,5.5,6.22,7.27,1.69,1.77,2.79,2.83,2.73,2.89-.02,.03-.33-.21-.85-.65-.53-.44-1.26-1.12-2.14-1.97-1.77-1.71-4.08-4.22-6.37-7.21-2.28-2.99-4.08-5.89-5.27-8.05-.59-1.08-1.05-1.96-1.34-2.59-.29-.62-.44-.98-.41-.99Z" style="fill:#263238;"></path><g style="opacity:.3;"><path d="M237.38,295.97c.25-.55-.36-1.19-.96-1.13s-1.04,.63-1.16,1.21c-.12,.59,0,1.19,.13,1.78,.55,2.56,1.11,5.12,1.66,7.69,1.27,5.86,2.81,12.18,7.45,15.98,1.97,1.61,4.54,2.66,7.05,2.29,2.52-.37,4.85-2.43,5.01-4.97,.13-2.04-1.08-3.95-2.59-5.31-1.51-1.37-3.34-2.33-4.98-3.54-4.53-3.33-7.47-8.33-10.29-13.19"></path></g></g><g><path d="M192.19,232.44s8.74-8.68,10.15-9.45c2.7-1.47,4.68-.57,7.12,.15,9.75,2.86,26.77,10.97,29.82,12.24,3.81,1.59,10.77,5.6,10.77,5.6l-19.46,25.54,1.13-13.4-26.46-14.15-8.71,8.8-11.32-7.96s4.57-5.12,6.97-7.38Z" style="fill:#FF725E;"></path><path d="M185.15,239.82s3.53-4.2,9.03-1.06c5.5,3.15,2.9,9.02,2.9,9.02-8.75,1.3-9.21-4.27-11.93-7.96Z" style="fill:#455a64;"></path><path d="M188.86,237.72l-.22,4.86-2.18,3.04s-6.52,7.31-7.79,10.01-4.93,6.68-3.66,8.9c0,0,1.02,.35,1.83-1.05,.82-1.4,2.8-4.49,3.15-4.73,.35-.23,0,.99-.18,1.4-.18,.41-2.81,5.87-3.44,7.65-.42,1.19,.71,1.59,1.28,1.34,1.08-.46,2.94-5.08,2.94-5.08,0,0-3,8-2.59,8.81,.41,.82,.88,1.17,1.63,.41,.76-.76,2.63-5.66,2.98-6.6,.35-.93,1.34-3.44,1.75-3.79,.41-.35,1.05-.58,.88,.12-.18,.7-2.63,7.76-3.09,8.81-.47,1.05-.76,2.86,.58,2.92,1.34,.06,3.05-4.67,3.71-6.6,.66-1.93,2.94-5.95,2.94-5.95,0,0-.99,2.8-.82,4.61,.18,1.81,.53,2.69,1.58,2.22,1.05-.47,1.05-.93,1.05-2.45s2.8-7.41,3.09-9.81c.29-2.39,.79-8.17,.79-8.17v-2.8l2.55-2.02c0-4.04-4.86-6.95-8.79-6.04Z" style="fill:#ae7461;"></path><path d="M203.03,227.7c.1-.07,1.51,2.27,2.09,5.54,.6,3.27,.09,5.95-.03,5.92-.16-.01,.1-2.65-.48-5.83-.56-3.18-1.72-5.56-1.58-5.63Z" style="fill:#263238;"></path><path d="M207.38,228.18c.11-.05,.85,2.5,.26,5.64-.56,3.15-2.14,5.27-2.23,5.18-.15-.08,1.19-2.25,1.72-5.28,.57-3.02,.09-5.52,.26-5.55Z" style="fill:#263238;"></path><path d="M230.12,241.81c.07-.02,.35,.83,.66,2.25,.31,1.41,.65,3.4,.67,5.62,.04,2.22-.24,4.22-.54,5.64-.31,1.42-.61,2.26-.67,2.25-.18-.04,.76-3.51,.68-7.88-.08-4.36-1-7.84-.81-7.88Z" style="fill:#263238;"></path><path d="M182.44,260.68c.13,.09-.84,1.64-1.77,3.69-.94,2.04-1.48,3.79-1.63,3.75-.13-.03,.19-1.88,1.16-3.97,.95-2.09,2.14-3.55,2.25-3.47Z" style="fill:#6f4439;"></path><g><path d="M189.22,243.16c0,.06-1.06-.02-2.63-.62-.78-.3-1.69-.74-2.62-1.36-.46-.31-.93-.67-1.39-1.07-.23-.2-.48-.44-.65-.76-.19-.29-.22-.87,.15-1.17,.36-.29,.75-.28,1.07-.28,.32,.02,.63,.05,.94,.12,.61,.12,1.18,.32,1.69,.56,1.03,.49,1.82,1.16,2.37,1.81,.56,.64,.88,1.26,1.06,1.7,.18,.44,.22,.7,.19,.71-.1,.05-.4-.98-1.53-2.15-.56-.58-1.33-1.18-2.3-1.62-.49-.21-1.02-.39-1.58-.49-.53-.08-1.26-.2-1.57,.05-.31,.24,.06,.82,.49,1.16,.43,.39,.88,.74,1.32,1.06,.88,.62,1.74,1.08,2.49,1.42,1.5,.67,2.51,.88,2.49,.96Z" style="fill:#263238;"></path><path d="M189.27,243.05c-.06,0-.1-.98,.3-2.51,.2-.76,.53-1.64,1.03-2.56,.25-.46,.55-.92,.88-1.38,.16-.23,.36-.48,.66-.67,.29-.21,.84-.22,1.12,.12,.5,.66,.3,1.34,.21,1.89-.13,.57-.34,1.09-.59,1.56-.5,.94-1.14,1.65-1.69,2.2-1.13,1.08-1.93,1.62-1.97,1.58-.06-.06,.66-.71,1.7-1.84,.51-.57,1.09-1.27,1.53-2.16,.22-.44,.41-.93,.52-1.45,.11-.5,.18-1.12-.09-1.43-.24-.29-.69,.06-.99,.51-.33,.43-.62,.87-.87,1.31-.5,.87-.86,1.71-1.1,2.43-.48,1.45-.57,2.41-.65,2.4Z" style="fill:#263238;"></path></g><path d="M188.05,243.41s.37-.35,1.15-.45c.78-.1,1.83,.13,2.91,.45,1.13,.33,2.01,.98,2.53,1.54,.52,.56,.72,.99,.66,1.03-.11,.11-1.23-1.45-3.34-2.07-1.08-.32-2.03-.59-2.74-.58-.7,0-1.14,.16-1.17,.08Z" style="fill:#263238;"></path></g><g><g><path d="M338.81,326.53s6.61,6.03,8.03,8.36,5.11,5.6,4.17,7.74c0,0-.89,.41-1.77-.78-.88-1.2-2.97-3.82-3.31-4-.34-.18,.09,.9,.29,1.26,.2,.35,3.47,4.95,3.85,6.62,.39,1.68-.04,1.72-1.04,1.34s-3.15-4.34-3.15-4.34c0,0,3.48,6.98,3.19,7.77s-.69,1.14-1.45,.53c-.76-.62-2.92-4.9-3.33-5.71s-1.55-3-1.95-3.28c-.4-.28-1.01-.43-.78,.19,.23,.62,3.12,6.81,3.65,7.72,.52,.91,.96,2.53-.25,2.71-1.21,.18-3.21-3.95-4-5.64-.79-1.69-3.24-5.13-3.24-5.13,0,0,1.17,2.45,1.18,4.11,.01,1.66-.22,2.49-1.22,2.17-1-.32-1.04-.75-1.19-2.13-.14-1.38-3.25-6.47-3.74-8.62-.49-2.15-1.29-7.21-1.29-7.21l-.27-2.55-4.59-4.4s.21-6.24,6.67-5.95l1.26,.3,2.01,6.39,2.27,2.55Z" style="fill:#ae7461;"></path><path d="M343.29,338.99c.1-.09,1.45,1.21,2.65,3.17,1.21,1.96,1.75,3.76,1.62,3.8-.14,.06-.89-1.62-2.07-3.53-1.17-1.92-2.32-3.35-2.2-3.45Z" style="fill:#6f4439;"></path></g><path d="M303.03,282.9c-3.46-3.6-17.9-20.21-18.58-20.75-.68-.54-6.6,9.71-6.6,9.71l-2.49,9.66c.55,.55,24.99,18.45,25.22,20.23,.17,1.32,24.14,24.05,27.54,28.36l9.94-9.33c-4.29-5.89-31.57-34.28-35.03-37.88Z" style="fill:#FF725E;"></path><path d="M338.62,326.27c-.04,.07-.49-.13-1.24-.27-.75-.15-1.83-.2-2.93,.15-1.1,.35-1.96,1.01-2.49,1.56-.54,.55-.79,.97-.86,.93-.06-.03,.08-.52,.58-1.18,.49-.65,1.39-1.43,2.61-1.81,1.22-.38,2.41-.26,3.18,0,.78,.25,1.18,.58,1.15,.63Z" style="fill:#263238;"></path><path d="M337.18,325.38s-.26,.29-.91,.28c-.64,0-1.47-.41-2.4-.9-.99-.52-2.11-1.1-3.33-1.73-.61-.34-1.32-.64-1.93-1.22-.6-.56-1.01-1.58-.51-2.48,.26-.44,.74-.68,1.18-.73,.45-.06,.9,.04,1.28,.21,.76,.36,1.29,.89,1.85,1.33,1.1,.9,2.05,1.76,2.77,2.58,.72,.81,1.19,1.56,1.46,2.1,.27,.54,.35,.87,.33,.88-.08,.04-.58-1.21-2.06-2.74-.73-.76-1.69-1.58-2.8-2.45-.56-.42-1.12-.94-1.76-1.23-.61-.3-1.47-.25-1.81,.32-.33,.57-.08,1.39,.43,1.85,.5,.5,1.18,.81,1.8,1.16,1.2,.67,2.3,1.29,3.28,1.83,.93,.54,1.67,.96,2.24,1.02,.57,.08,.87-.12,.89-.07Z" style="fill:#263238;"></path><path d="M336.51,324.77s-.26-.33-.56-1.02c-.31-.68-.68-1.71-.89-3.05-.21-1.33-.25-2.96,.09-4.72,.18-.88,.45-1.78,.84-2.68,.19-.45,.42-.89,.67-1.33,.14-.22,.29-.46,.55-.65,.25-.19,.65-.26,.97-.11,.61,.31,.81,.88,.98,1.35,.16,.48,.28,.97,.37,1.45,.16,.97,.19,1.92,.13,2.81-.12,1.79-.57,3.34-1.01,4.6-.44,1.26-.89,2.25-1.2,2.93-.31,.68-.5,1.04-.54,1.03-.09-.03,.57-1.55,1.38-4.07,.39-1.26,.79-2.79,.88-4.52,.05-.86,0-1.77-.15-2.69-.08-.46-.2-.92-.36-1.37-.14-.44-.37-.89-.69-1.04-.31-.15-.64,.14-.87,.55-.23,.42-.46,.84-.64,1.27-.38,.86-.65,1.73-.83,2.57-.36,1.69-.36,3.27-.2,4.57,.33,2.62,1.2,4.07,1.09,4.12Z" style="fill:#263238;"></path></g><g><path d="M310.8,289.67c-1-3.69-1.1-7.69-2.99-11.01-1.59-2.78-4.37-4.99-4.95-8.14-.71-3.9,2.27-7.62,2.16-11.59-.12-4.48-4.01-7.83-5.98-11.86-4.18-8.59-2.96-19.66-5.01-27.19l-14.04,20.18-6.38,15.12c19.02,11.41-4.68,30.3-2.56,46.53,7.96,3.61,19.45,5.98,28.01,4.24-.32-1.87-.63-3.74-.95-5.61,.76,1.59,2.42,2.85,4.2,3.23,2.59,.57,5.29-.27,7.72-1.33,2.9-1.27,5.65-2.89,8.16-4.81-3.82-.21-6.39-4.07-7.39-7.76Z" style="fill:#263238;"></path><g><path d="M294.42,221.13c-1.66-6.04-5.4-10.75-11.08-13.38-3.21-1.49-4.84-1.41-7.45-1.81-2.6-.4-5.26-.09-7.52,1.26-2.69,1.61-5.23,3.61-6.81,6.32-1.62,2.78-3.24,5.58-4.32,8.6-1.08,3.03-1.59,6.33-.92,9.47l6.89,4.6c4.06,1.97,8.17,3.95,12.61,4.79,4.43,.84,9.29,.41,13-2.15,5.15-3.56,7.27-11.68,5.61-17.71Z" style="fill:#263238;"></path><path d="M287.8,218.14l-8.19-8.36-2.73-.85c-5.86-2.57-12.75,2.08-14.88,6.8-2.37,5.24-5.07,11.72-5.95,15.97-1.78,8.53,4.59,12.13,4.59,12.13l-1.02,2.13-3.96-2.38-2.42,25.43,23.03-12-2.65-1.83,15.63-33.21c.59-1.46-.04-3.12-1.45-3.83Z" style="fill:#ae7461;"></path><path d="M268.55,235.05c.13-.43,.06-.9-.12-1.28-.36-.76-1.19-1.18-2.01-1.03-.81,.15-1.56,.88-1.81,1.75h0c.14,.64,.53,1.2,1.1,1.51,.09,.05,.18,.09,.27,.13,.45,.19,.98,.24,1.47,.06,.49-.18,.94-.61,1.09-1.14Z" style="fill:#6f4439;"></path><path d="M261.14,223.38c-.23,.54,.04,1.17,.6,1.42,.56,.25,1.19,.01,1.42-.53,.23-.54-.04-1.17-.6-1.42-.56-.25-1.19-.01-1.42,.53Z" style="fill:#263238;"></path><path d="M262.61,219.14c.08,.18,1.08-.1,2.19,.33,1.12,.41,1.71,1.29,1.89,1.2,.08-.04,.04-.33-.21-.72-.25-.39-.75-.87-1.45-1.13-.69-.26-1.37-.22-1.81-.09-.44,.13-.65,.33-.61,.42Z" style="fill:#263238;"></path><path d="M265.81,230.74c.03-.06-.62-.44-1.68-1.01-.27-.14-.52-.3-.49-.51,.01-.23,.25-.49,.51-.77,.53-.59,1.08-1.2,1.66-1.84,2.33-2.63,4.14-4.84,4.03-4.93-.11-.09-2.09,1.97-4.42,4.6-.57,.65-1.11,1.27-1.63,1.87-.23,.28-.55,.58-.57,1.06,0,.24,.15,.47,.31,.59,.16,.12,.32,.19,.46,.25,1.1,.49,1.8,.76,1.83,.7Z" style="fill:#263238;"></path><path d="M260.62,243.81s5.29,2.4,11.88,1.22c0,0-4.99,4.49-12.77,.68l.89-1.89Z" style="fill:#6f4439;"></path><path d="M263.71,216.78c.08,.34,1,.48,1.97,.94,.98,.43,1.69,1.03,2,.87,.14-.08,.13-.39-.11-.79-.24-.4-.73-.87-1.4-1.18-.67-.3-1.35-.37-1.8-.28-.46,.08-.69,.28-.66,.44Z" style="fill:#263238;"></path><path d="M272.29,228.07c-.21,.55-.84,.82-1.42,.61-.57-.21-.87-.81-.66-1.36,.21-.55,.84-.82,1.41-.61,.57,.21,.87,.82,.66,1.36Z" style="fill:#263238;"></path><path d="M277.48,225.23c-.18,.08-.71-.82-1.81-1.28-1.09-.48-2.13-.25-2.19-.44-.03-.08,.2-.27,.65-.38,.45-.11,1.14-.11,1.82,.19,.68,.29,1.15,.79,1.37,1.18,.23,.4,.24,.69,.15,.72Z" style="fill:#263238;"></path><path d="M278.37,221.47c-.32,.16-1.06-.46-2.07-.9-1-.47-1.95-.63-2.04-.97-.03-.16,.21-.35,.68-.43,.47-.08,1.17,0,1.86,.31,.69,.31,1.2,.8,1.44,1.2,.25,.41,.26,.71,.11,.79Z" style="fill:#263238;"></path><path d="M282.03,234.57c.23-.6,1.46-1.75,2.09-1.62,1.68,.35,4.48,1.56,2.98,5.59-2.05,5.5-7.15,2.31-7.1,2.15,.04-.13,1.25-4.05,2.04-6.12Z" style="fill:#ae7461;"></path><path d="M282.27,239.25s.07,.1,.21,.24c.13,.13,.38,.28,.71,.28,.66,0,1.49-.74,1.89-1.72,.2-.5,.27-1.01,.24-1.47-.02-.47-.17-.84-.45-1-.27-.18-.54-.08-.66,.05-.13,.13-.14,.25-.17,.25-.02,0-.08-.14,.04-.35,.06-.1,.18-.21,.35-.26,.17-.06,.39-.04,.58,.06,.41,.19,.65,.72,.68,1.23,.06,.52-.01,1.1-.24,1.66-.45,1.1-1.4,1.92-2.28,1.86-.42-.04-.7-.28-.82-.47-.12-.2-.1-.33-.08-.34Z" style="fill:#6f4439;"></path><path d="M284.33,233.07l-1.99,.81c-3.39-8.23-8.63-27.41-8.36-26.29,0,0,4.76,.13,8.81,2.81,4.04,2.68,11.37,8.55,8.95,13.64-2.41,5.1-7.41,9.02-7.41,9.02Z" style="fill:#263238;"></path></g><path d="M269.39,234.98c-.04,.15-1.2-.08-2.6-.4-1.39-.34-2.53-.39-2.55-.53-.02-.15,1.22-.33,2.66,.02,1.43,.33,2.52,.78,2.49,.91Z" style="fill:#263238;"></path></g></g></g></svg>
