<svg version="1.1" id="Layer_1" xmlns="http://www.w3.org/2000/svg" xmlns:xlink="http://www.w3.org/1999/xlink" x="0px" y="0px" viewBox="0 0 500 500" style="width: 188px;" xml:space="preserve" data-imageid="marketing-1-30" imageName="Marketing 1" class="illustrations_image">
<style type="text/css">
	.st0_marketing-1-30{fill:#D1D3D4;}
	.st1_marketing-1-30{fill:#FFFFFF;}
	.st2_marketing-1-30{fill:#231F20;}
	.st3_marketing-1-30{fill:#68E1FD;}
</style>
<path id="Floor_marketing-1-30" class="st0_marketing-1-30" d="M404.5,385.2H91.8c-0.4,0-0.7-0.3-0.7-0.7c0-0.4,0.3-0.7,0.7-0.7h312.7c0.4,0,0.7,0.3,0.7,0.7&#10;&#9;S404.9,385.2,404.5,385.2C404.5,385.2,404.5,385.2,404.5,385.2z"/>
<g id="Monitor_marketing-1-30">
	<path class="st1_marketing-1-30" d="M112.5,174.9h271.2c5,0,9,4.1,9,9.1v167.2c0,5-4.1,9-9,9H112.5c-5,0-9.1-4.1-9.1-9V184&#10;&#9;&#9;C103.5,179,107.5,174.9,112.5,174.9z"/>
	<path class="st2_marketing-1-30" d="M383.7,360.9H112.5c-5.4,0-9.7-4.4-9.8-9.8V184c0-5.4,4.4-9.8,9.8-9.8h271.2c5.4,0,9.8,4.4,9.8,9.8v167.1&#10;&#9;&#9;C393.5,356.5,389.1,360.9,383.7,360.9z M112.5,175.6c-4.6,0-8.4,3.7-8.4,8.4v167.1c0,4.6,3.7,8.3,8.4,8.4h271.2&#10;&#9;&#9;c4.6,0,8.3-3.7,8.4-8.4V184c0-4.6-3.7-8.4-8.4-8.4L112.5,175.6z"/>
	<path class="st2_marketing-1-30" d="M392.8,331.6H103.5c-0.4,0-0.7-0.3-0.7-0.7c0-0.4,0.3-0.7,0.7-0.7h289.3c0.4,0,0.7,0.3,0.7,0.7&#10;&#9;&#9;C393.5,331.2,393.2,331.6,392.8,331.6z"/>
	<polygon class="st1_marketing-1-30" points="285.1,396 211.1,396 224.8,360.2 271.5,360.2 &#9;"/>
	<path class="st2_marketing-1-30" d="M285.1,396.7h-74c-0.2,0-0.4-0.1-0.6-0.3c-0.1-0.2-0.2-0.4-0.1-0.6l13.6-35.8c0.1-0.3,0.4-0.4,0.6-0.5h46.7&#10;&#9;&#9;c0.3,0,0.5,0.2,0.6,0.5l13.6,35.8c0.1,0.2,0.1,0.5-0.1,0.6C285.5,396.5,285.3,396.7,285.1,396.7z M212.2,395.3h71.9L271,360.9&#10;&#9;&#9;h-45.7L212.2,395.3z"/>
	<path class="st1_marketing-1-30" d="M202.5,393.9h91.3c2.4,0,4.3,1.9,4.3,4.3v1c0,2.4-1.9,4.3-4.3,4.3h-91.3c-2.4,0-4.3-1.9-4.3-4.3v-1&#10;&#9;&#9;C198.1,395.8,200.1,393.9,202.5,393.9z"/>
	<path class="st2_marketing-1-30" d="M293.8,404.2h-91.3c-2.8,0-5-2.2-5-5v-1c0-2.8,2.2-5,5-5h91.3c2.8,0,5,2.2,5,5v1&#10;&#9;&#9;C298.8,402,296.5,404.2,293.8,404.2z M202.5,394.6c-2,0-3.6,1.6-3.6,3.6l0,0v1c0,2,1.6,3.6,3.6,3.6h91.3c2,0,3.6-1.6,3.6-3.6v-1&#10;&#9;&#9;c0-2-1.6-3.6-3.6-3.6H202.5z"/>
	<rect x="113.8" y="183.6" class="st3_marketing-1-30 targetColor" width="268.7" height="135.9" style="fill: rgb(104, 225, 253);"/>
	<rect x="113.8" y="183.6" class="st2_marketing-1-30" width="268.7" height="135.9"/>
	<polygon class="st2_marketing-1-30" points="218,376.5 273.1,365.8 270.9,360.2 224.3,360.2 &#9;"/>
	<path class="st2_marketing-1-30" d="M218,377.2c-0.2,0-0.4-0.1-0.5-0.2c-0.2-0.2-0.2-0.5-0.1-0.7l6.2-16.4c0.1-0.3,0.4-0.5,0.6-0.5h46.7&#10;&#9;&#9;c0.3,0,0.6,0.2,0.7,0.5l2.1,5.7c0.1,0.4,0,0.8-0.4,0.9c0,0-0.1,0-0.1,0l-55.1,10.7L218,377.2z M224.7,360.9l-5.6,14.7l53-10.3&#10;&#9;&#9;l-1.7-4.4L224.7,360.9z"/>
</g>
<g id="Character_marketing-1-30">
	<path class="st1_marketing-1-30" d="M192.7,196.3c-0.5-8.4-2.4-16.6-5.7-24.3c-0.5-1.2-1.6-2.5-2.7-1.9c0.6,3.6,1.3,7.1,1.9,10.6&#10;&#9;&#9;c-6.6-4.3-12.3-9.9-16.9-16.4c-0.4-0.7-0.9-1.2-1.6-1.6c-0.7-0.4-1.6-0.1-2,0.5c-0.2,0.6,0,1.3,0.4,1.8c1.9,3.5,4.2,6.8,6.7,9.9&#10;&#9;&#9;c-3.3-4.8-10.1-13-11.6-11.1s2.4,9.3,5.9,13.7l-8.1-9.1c-0.7-0.8-2-1.7-2.8-1s-0.3,2,0.3,2.9l5.7,8.5c-2.9-2.5-6.9-8.6-9-7.2&#10;&#9;&#9;s4.5,9.3,8.7,12.3s8.9,5.5,12.4,9.4c2.1,2.5,3.8,5.3,5.3,8.2"/>
	<path class="st2_marketing-1-30" d="M179.4,202.3c-0.2,0-0.5-0.1-0.6-0.3c-1.4-2.9-3.1-5.6-5.2-8.1c-2.5-2.6-5.4-4.8-8.5-6.7&#10;&#9;&#9;c-1.3-0.8-2.6-1.7-3.8-2.6c-3.7-2.7-9.4-9.1-9.4-12c0-0.5,0.2-1.1,0.7-1.4c1.3-0.9,2.9,0.1,4.6,1.8l-1.5-2.2&#10;&#9;&#9;c-1.1-1.6-1.1-3-0.2-3.8s2.4-0.4,3.7,1.1l2.9,3.3c-1.7-3.2-2.8-6.5-1.6-7.9c0.3-0.4,0.8-0.5,1.2-0.5c1.3,0.3,2.5,1,3.4,2&#10;&#9;&#9;c-0.3-0.6-0.4-1.3-0.2-1.9c0.2-0.4,0.6-0.8,1-0.9c0.6-0.2,1.3-0.2,1.8,0.1c0.8,0.4,1.4,1.1,1.8,1.8c4.2,6,9.4,11.2,15.4,15.4&#10;&#9;&#9;c-0.6-3-1.1-6.1-1.7-9.1c0-0.3,0.1-0.5,0.3-0.7c0.5-0.2,1-0.3,1.5-0.1c1,0.5,1.7,1.3,2.1,2.4c3.3,7.8,5.3,16.1,5.8,24.5&#10;&#9;&#9;c0,0.4-0.2,0.7-0.6,0.7c-0.4,0-0.7-0.2-0.7-0.6l0,0c-0.5-8.3-2.4-16.5-5.7-24.1c-0.2-0.7-0.7-1.3-1.4-1.6l0,0&#10;&#9;&#9;c0.6,3.3,1.2,6.7,1.8,10c0,0.3-0.1,0.5-0.3,0.6c-0.2,0.1-0.5,0.1-0.7,0c-6.6-4.4-12.4-10-17-16.5c-0.3-0.6-0.8-1.1-1.4-1.4&#10;&#9;&#9;c-0.3-0.1-0.6-0.1-0.8,0c-0.1,0-0.2,0.1-0.3,0.3c-0.1,0.3,0.1,0.8,0.3,1.2c0.9,1.7,1.9,3.3,3,4.8c1.6,2,3,3.9,3.7,5&#10;&#9;&#9;c0.2,0.3,0,0.7-0.3,0.9c-0.2,0.1-0.5,0.1-0.7-0.1c-1.3-1.6-2.6-3.3-3.8-5c-2.8-3.3-5.5-6-6.7-6.1c-0.1,0-0.1,0-0.2,0.1&#10;&#9;&#9;c-1.1,1.3,1.8,7.7,5.9,12.9c0.2,0.3,0.2,0.7-0.1,0.9s-0.7,0.2-0.9-0.1l-8.2-9.2c-0.5-0.5-1.5-1.4-2-0.9s0.1,1.5,0.4,2.1l5.7,8.5&#10;&#9;&#9;c0.2,0.3,0.2,0.7-0.1,0.9s-0.7,0.2-0.9-0.1c-1-0.9-2-1.9-2.9-3c-1.8-2-4.3-4.8-5.3-4.1c0,0-0.1,0.1-0.1,0.3c0,2.2,5.1,8.3,8.8,11&#10;&#9;&#9;c1.2,0.9,2.5,1.7,3.8,2.6c3.2,1.9,6.1,4.2,8.7,6.9c2.1,2.6,3.9,5.4,5.4,8.4c0.2,0.3,0.1,0.7-0.3,0.9c0,0,0,0,0,0&#10;&#9;&#9;C179.6,202.3,179.5,202.3,179.4,202.3z"/>
	<path class="st1_marketing-1-30" d="M331.7,172.5c-1.5-6.1-3-12.2-4.5-18.3c-4.9-19.7-11.7-40.1-33.3-46.2c-6.4-1.8-12.9-1.1-17.1,4.7&#10;&#9;&#9;c-4.4-3.7-11.2-1.7-15.7,1.8c-10.1,7.8-14.7,19.9-14.9,32.1c-0.3,13.8-1.7,28.2-9,40.2c-3,4.9-6.8,9.2-9.4,14.4s-3.8,11.4-1,16.5&#10;&#9;&#9;c1.7,2.8,4,5.1,6.8,6.7c14,9.1,31.7,10.1,48.3,9c17-1.2,35.5-5.1,46.4-18.3c4.7-5.8,7.5-12.9,8.1-20.3&#10;&#9;&#9;C336.8,186.4,333.6,180.2,331.7,172.5z"/>
	<path class="st2_marketing-1-30" d="M271.1,234.3c-12.1,0-26.5-1.8-38.2-9.5c-2.2-1.4-5.2-3.7-7-7c-2.5-4.6-2.1-10.9,1-17.1c1.6-3,3.4-5.9,5.5-8.6&#10;&#9;&#9;c1.4-1.9,2.7-3.8,3.9-5.8c7.4-12.2,8.7-27,9-39.9c0.3-13.5,5.8-25.3,15.2-32.6c4.5-3.5,11.3-5.5,16-2.2c3.9-4.9,10.1-6.5,17.4-4.4&#10;&#9;&#9;c22,6.2,28.7,26.5,33.8,46.7l4.5,18.3c0.5,2.1,1.1,4.1,1.7,6c1.6,5.3,3.2,10.3,2.7,16.4c-0.6,7.6-3.5,14.7-8.2,20.6&#10;&#9;&#9;c-9.1,11.1-24,16.9-46.8,18.5C278.5,234.1,274.9,234.3,271.1,234.3z M270.9,111.3c-3.5,0.2-6.8,1.4-9.6,3.6&#10;&#9;&#9;c-9.1,7-14.4,18.5-14.7,31.6s-1.6,28.1-9.1,40.6c-1.2,2-2.6,4-4,5.9c-2,2.7-3.8,5.5-5.4,8.4c-1.4,2.8-4.3,9.8-1.1,15.9&#10;&#9;&#9;c1.2,2.3,3.3,4.4,6.6,6.5c15,9.9,34.6,9.8,47.9,8.9c22.5-1.5,37-7.3,45.9-18c4.6-5.7,7.4-12.6,8-19.9c0.5-5.9-1-10.8-2.6-15.9&#10;&#9;&#9;c-0.6-2-1.2-4-1.8-6.1l0,0l-4.5-18.3c-5-19.9-11.6-39.8-32.9-45.8c-5-1.4-11.9-1.8-16.5,4.4c-0.1,0.1-0.3,0.2-0.4,0.3&#10;&#9;&#9;c-0.2,0-0.4,0-0.5-0.2C274.8,111.9,272.9,111.2,270.9,111.3L270.9,111.3z"/>
	<path class="st3_marketing-1-30 targetColor" d="M246.1,195.6c-5.6,5.2-18,24.8-29.3,45.3l-23.4-49.2l-19.1,5.7c0,0,17.2,91,34.2,94.7s40.2-36.8,40.2-36.8&#10;&#9;&#9;l26-71.4C274.7,183.9,254.4,187.8,246.1,195.6z" style="fill: rgb(104, 225, 253);"/>
	<path class="st1_marketing-1-30" d="M313.2,319.1c-2.5-25-7.8-84.1-3-99.6c6.2-19.8,6-25.3,0-27.3s-22.4-12.4-33.6,0c0,0-25.7,14.5-30.7,39.4&#10;&#9;&#9;c-3.6,18.3,0.6,64.2,3.1,87.4H313.2z"/>
	<path class="st3_marketing-1-30 targetColor" d="M262.3,319.1c1.9-27.5,4.3-48.8,4.9-57.5c0.9-12.6,4.1-49,7.6-64.9c4.5-9.9,2.5-12.8,2.5-12.8&#10;&#9;&#9;s-25.3-3.6-32.9,34.3c-1.9,9.3-6.1,56.3-10.7,100.9H262.3z" style="fill: rgb(104, 225, 253);"/>
	<path class="st1_marketing-1-30" d="M274.8,177.2l-0.1,19.5c0,0,2,10.9,13.8,7.6c7.1-2.1,12.9-7.2,15.7-14l-1.3-33.7c-0.1-1.4-2.2-5.7-2-18.1&#10;&#9;&#9;c-14.4-0.2-25.7-11.1-25.7-11.1s-5,7.4-7.1,9.8c-1.7,1.8-3.2,3.7-4.5,5.9c-2,3.8-1.9,8.4-1.8,12.6c0,4.9,0.5,9.8,1.5,14.7&#10;&#9;&#9;C265.2,179.5,274.8,177.2,274.8,177.2z"/>
	<path class="st2_marketing-1-30" d="M284.2,205.6c-1.9,0-3.8-0.5-5.4-1.5c-2.5-1.7-4.2-4.3-4.8-7.3l0.1-18.8c-2.6,0.4-5.2-0.1-7.5-1.4&#10;&#9;&#9;c-2.1-1.4-3.5-3.7-3.9-6.2c-0.9-4.9-1.4-9.8-1.5-14.8c-0.1-4-0.2-8.9,1.9-12.9c1.3-2.2,2.8-4.2,4.5-6c2.1-2.3,7-9.6,7-9.7&#10;&#9;&#9;c0.1-0.2,0.3-0.3,0.5-0.3c0.2,0,0.4,0,0.5,0.2c0.1,0.1,11.3,10.7,25.3,10.9c0.2,0,0.3,0.1,0.5,0.2c0.1,0.1,0.2,0.3,0.2,0.4&#10;&#9;&#9;c-0.2,9.4,1,14.1,1.6,16.4c0.2,0.5,0.3,1.1,0.3,1.7l0,0c0,0,0,0.6,1.3,33.7c0,0.1,0,0.2,0,0.2c-2.9,7-8.9,12.3-16.2,14.4&#10;&#9;&#9;C287.2,205.3,285.7,205.5,284.2,205.6z M275.2,196.7c0.6,2.5,2.1,4.8,4.2,6.3c2.3,1.4,5.2,1.6,8.8,0.7c6.8-2,12.4-6.9,15.3-13.4&#10;&#9;&#9;c-0.1-2.3-1.3-33.4-1.3-33.6c-0.1-0.5-0.2-0.9-0.3-1.4c-0.6-2.3-1.8-6.9-1.7-16.1c-12.5-0.5-22.5-8.6-25-10.7&#10;&#9;&#9;c-1.2,1.8-4.9,7.2-6.8,9.2c-1.7,1.7-3.1,3.6-4.4,5.7c-1.9,3.6-1.8,8.2-1.8,12.3c0,4.9,0.5,9.8,1.5,14.6c0.3,2.2,1.6,4.1,3.4,5.4&#10;&#9;&#9;c3.1,2,7.3,1.1,7.3,1.1c0.2,0,0.4,0,0.5,0.1c0.2,0.1,0.2,0.3,0.2,0.5L275.2,196.7L275.2,196.7z"/>
	<path class="st2_marketing-1-30" d="M274.9,186.8c0,0,7.9,0.4,13-4.9s4.3-10.6,4.3-10.6s-8.5,5.7-17.4,5.9L274.9,186.8z"/>
	<path class="st2_marketing-1-30" d="M275.2,187.4h-0.4c-0.3,0-0.6-0.3-0.6-0.6l-0.1-9.6c0-0.3,0.3-0.6,0.6-0.6c8.6-0.2,17-5.8,17.1-5.8&#10;&#9;&#9;c0.2-0.1,0.4-0.1,0.6,0c0.2,0.1,0.3,0.3,0.4,0.5c0,0.2,0.7,5.7-4.5,11.1C283.7,187.1,276.9,187.4,275.2,187.4z M275.4,177.8&#10;&#9;&#9;l0.1,8.4c1.9-0.1,7.9-0.5,11.9-4.7c2.5-2.4,3.9-5.6,4.2-9C289.2,173.9,282.5,177.5,275.4,177.8z"/>
	<path class="st1_marketing-1-30" d="M281.6,149.3c0,0-6.3,9.4-4.8,11s5.7,0.6,5.7,0.6"/>
	<path class="st2_marketing-1-30" d="M279.8,161.8c-1.2,0.1-2.4-0.3-3.4-1.1c-1.6-1.8,2.8-8.8,4.7-11.7c0.1-0.3,0.5-0.5,0.8-0.4s0.5,0.5,0.4,0.8&#10;&#9;&#9;c0,0.1-0.1,0.2-0.2,0.2c-3.2,4.8-5.5,9.6-4.8,10.2c1,1.1,4,0.6,5,0.4c0.3-0.1,0.7,0.1,0.8,0.4c0.1,0.3-0.1,0.7-0.4,0.8c0,0,0,0,0,0&#10;&#9;&#9;C281.7,161.6,280.7,161.7,279.8,161.8z"/>
	
		<ellipse transform="matrix(3.996804e-02 -0.9992 0.9992 3.996804e-02 110.9891 410.5886)" class="st2_marketing-1-30" cx="269.2" cy="147.5" rx="2" ry="1.1"/>
	
		<ellipse transform="matrix(3.996804e-02 -0.9992 0.9992 3.996804e-02 129.4786 426.7709)" class="st2_marketing-1-30" cx="286.8" cy="146" rx="2" ry="1.1"/>
	<path class="st1_marketing-1-30" d="M277.4,165.7l5-1.3c0,0,1,7.3-1.8,7.9S277.4,165.7,277.4,165.7z"/>
	<path class="st2_marketing-1-30" d="M280.2,173c-0.4,0-0.9-0.2-1.2-0.4c-1.9-1.4-2.2-6.3-2.2-6.8c0-0.3,0.2-0.6,0.5-0.6l5-1.3c0.2,0,0.4,0,0.5,0.1&#10;&#9;&#9;c0.1,0.1,0.2,0.3,0.3,0.4c0.1,0.8,1,7.9-2.3,8.6C280.6,173,280.4,173,280.2,173z M278,166.2c0.2,1.9,0.7,4.7,1.7,5.4&#10;&#9;&#9;c0.2,0.2,0.4,0.2,0.7,0.1c1.5-0.4,1.6-4.2,1.4-6.5L278,166.2z"/>
	<path class="st1_marketing-1-30" d="M296.3,146.6c1.3-3.4,5.6-4.7,9-4c2.2,0.4,4,2,4.5,4.2c0.3,1.3,0.3,2.7,0,4.1c-0.4,2.5-1.2,4.9-2.4,7.1&#10;&#9;&#9;c-0.6,1.1-1.4,2.1-2.4,2.8c-1.4,0.8-3.1,0.7-4.3-0.3"/>
	<path class="st2_marketing-1-30" d="M303.2,161.9c-1,0-2-0.3-2.8-0.9c-0.3-0.2-0.3-0.6-0.1-0.9c0.2-0.3,0.6-0.3,0.9-0.2c1,0.8,2.5,0.9,3.6,0.3&#10;&#9;&#9;c0.9-0.7,1.7-1.6,2.2-2.6c1.2-2.1,2-4.4,2.4-6.9c0.2-1.3,0.2-2.5,0-3.8c-0.4-1.9-2-3.4-4-3.8c-3.1-0.6-7.1,0.6-8.2,3.6&#10;&#9;&#9;c-0.1,0.3-0.4,0.5-0.8,0.5s-0.5-0.4-0.5-0.8c0,0,0-0.1,0-0.1c1.4-3.7,6-5.1,9.7-4.4c2.5,0.4,4.4,2.3,5,4.7c0.3,1.4,0.3,2.9,0,4.3&#10;&#9;&#9;c-0.4,2.6-1.2,5-2.5,7.3c-0.6,1.2-1.5,2.3-2.6,3.1C304.7,161.7,303.9,161.9,303.2,161.9z"/>
	<path class="st3_marketing-1-30 targetColor" d="M337.9,319.1c-0.1-0.8-0.2-1.6-0.2-2.4c-2-23.1,0-101.6-4.9-117.2c-2.4-7.5-27.5-12.9-27.5-12.9&#10;&#9;&#9;s-15.5,82.5-21.6,132.6H337.9z" style="fill: rgb(104, 225, 253);"/>
	<path class="st1_marketing-1-30" d="M300.2,280.2c-5.9-1-11.3-3.8-16.8-6.1c-2.2-0.9-4.5-1.8-6.8-2.5c-2.7-0.8-5.3-2.4-8.2-2.5&#10;&#9;&#9;c-1.8,0-1.3,2.5-0.6,3.4c0.7,0.8,1.5,1.5,2.5,2.1c1.7,1.1,5.2,3.3,5.9,5.3c-2.2,0.6-4.5,0.3-6.8,0.5c-2.4,0.3-4.8,0.6-7.2,1.1&#10;&#9;&#9;c-2.4,0.5-4.7,1-7,1.7c-2,0.6-4.2,0.8-6.1,1.6c-0.5,0.2-1,0.6-1,1.1c-0.1,1.8,4,1.6,5,1.5l18.9-1.9c-6.6,0.6-13.2,1.8-19.6,3.5&#10;&#9;&#9;c-0.6,0.1-1.2,0.4-1.6,0.9c-1.6,2.4,5.2,2.5,5.9,2.6c3.5,0.1,7,0,10.5-0.3l-8.5,1.4c-1.9,0.3-3.8,0.6-5.7,1.1c-1,0.2-2,0.7-2.8,1.4&#10;&#9;&#9;c-0.1,0.1-0.2,0.2-0.2,0.4c0,0.2,0.2,0.3,0.4,0.4c1.6,0.6,3.3,0.9,5,0.9c3.5,0.1,7.1-0.2,10.6-0.7l-10.5,1.1&#10;&#9;&#9;c-0.9,0-1.8,0.3-2.6,0.9c-0.2,0.6,0.1,1.3,0.6,1.6c0.5,0.3,1.2,0.5,1.8,0.5c3.9,0.5,7.7,0,11.6,0c4.2,0,8.4-0.2,12.6-0.8&#10;&#9;&#9;c8.3-1,16.3-3.4,23.8-7.1"/>
	<path class="st2_marketing-1-30" d="M259.5,302.3c-1.4,0-2.8-0.1-4.2-0.2c-0.7,0-1.5-0.3-2.1-0.6c-0.8-0.5-1.2-1.5-0.9-2.4c0-0.1,0.1-0.1,0.1-0.2&#10;&#9;&#9;c0.2-0.2,0.3-0.3,0.5-0.4c-1-0.1-2-0.4-2.9-0.8c-0.4-0.1-0.7-0.5-0.8-1c0-0.3,0.1-0.6,0.4-0.8c0.9-0.8,1.9-1.3,3.1-1.5&#10;&#9;&#9;c1.6-0.4,3.2-0.7,4.8-1h-1c-3.8-0.1-6-0.7-6.6-1.8c-0.3-0.6-0.2-1.2,0.2-1.7c0.5-0.6,1.2-1.1,2-1.2l1.7-0.5l-0.8,0.1&#10;&#9;&#9;c-0.6,0.1-4,0.3-5.2-0.9c-0.4-0.3-0.6-0.8-0.5-1.3c0.1-0.8,0.6-1.4,1.4-1.6c1.3-0.6,2.7-1,4.1-1.2c0.7-0.1,1.4-0.3,2.1-0.5&#10;&#9;&#9;c2.3-0.7,4.7-1.2,7-1.7s4.9-0.9,7.3-1.1c0.9-0.1,1.8-0.1,2.6-0.1c1.1,0,2.2-0.1,3.4-0.2c-0.9-1.4-3.1-2.9-4.5-3.8l-1-0.7&#10;&#9;&#9;c-0.9-0.5-1.7-1.2-2.4-2.1c-0.7-1-0.9-2.3-0.5-3.5c0.3-0.6,1-1,1.6-0.9c2,0.2,3.9,0.7,5.8,1.6c0.9,0.4,1.7,0.7,2.6,1&#10;&#9;&#9;c2.3,0.7,4.6,1.6,6.8,2.5l3,1.3c4.4,1.9,8.9,3.9,13.6,4.7c0.3,0.1,0.6,0.4,0.5,0.8c-0.1,0.3-0.4,0.5-0.7,0.5&#10;&#9;&#9;c-4.9-0.8-9.5-2.9-13.9-4.8c-1-0.4-2-0.9-3-1.3c-2.2-0.9-4.4-1.8-6.7-2.5c-0.9-0.3-1.8-0.7-2.7-1c-1.7-0.8-3.5-1.3-5.3-1.5&#10;&#9;&#9;c-0.2,0-0.4,0.1-0.5,0.2c-0.2,0.7-0.1,1.5,0.4,2.2c0.6,0.7,1.2,1.3,2,1.8l1,0.7c1.9,1.3,4.8,3.2,5.4,5.1c0.1,0.2,0.1,0.3,0,0.5&#10;&#9;&#9;c-0.1,0.1-0.2,0.3-0.4,0.3c-1.4,0.4-2.9,0.5-4.4,0.5c-0.9,0-1.7,0-2.5,0.1c-2.4,0.3-4.8,0.6-7.2,1.1s-4.7,1-6.9,1.7&#10;&#9;&#9;c-0.7,0.2-1.4,0.4-2.2,0.5c-1.3,0.2-2.6,0.6-3.8,1.1c-0.4,0.2-0.6,0.4-0.6,0.6c0,0.1,0,0.2,0.1,0.3c0.6,0.6,2.6,0.7,4.2,0.5&#10;&#9;&#9;l18.9-1.9l0,0c0.3-0.1,0.7,0.2,0.7,0.5c0.1,0.3-0.2,0.7-0.5,0.7c0,0-0.1,0-0.1,0l0,0c-6.6,0.6-13.1,1.8-19.5,3.5&#10;&#9;&#9;c-0.5,0.1-0.9,0.3-1.2,0.6c-0.2,0.3-0.1,0.4-0.1,0.4c0.3,0.5,2.1,1.1,5.5,1.1c3.5,0.1,7,0,10.4-0.3c0.3,0,0.6,0.2,0.7,0.6&#10;&#9;&#9;c0,0.3-0.2,0.7-0.5,0.7l-8.5,1.4c-1.9,0.3-3.8,0.6-5.6,1.1c-0.8,0.2-1.6,0.5-2.3,1c1.5,0.6,3,0.8,4.6,0.8c1.7,0,3.3,0,5-0.1&#10;&#9;&#9;l5.5-0.6c0.3,0,0.7,0.2,0.7,0.5c0.1,0.3-0.2,0.7-0.5,0.7c0,0,0,0,0,0c-1.9,0.3-3.7,0.5-5.6,0.6l-4.9,0.5c-0.7,0-1.4,0.2-2.1,0.6&#10;&#9;&#9;c0,0.3,0.2,0.6,0.4,0.8c0.5,0.3,1,0.4,1.5,0.4c2.5,0.3,5.1,0.3,7.7,0.1c1.3,0,2.6-0.1,3.9-0.1c4.2,0,8.4-0.2,12.5-0.8&#10;&#9;&#9;c8.2-1,16.2-3.4,23.6-7.1c0.3-0.2,0.7,0,0.9,0.3s0,0.7-0.3,0.9l0,0c-7.5,3.7-15.7,6.1-24,7.2c-4.2,0.6-8.5,0.8-12.7,0.8&#10;&#9;&#9;c-1.3,0-2.6,0-3.8,0.1S260.7,302.3,259.5,302.3z"/>
	<path class="st3_marketing-1-30 targetColor" d="M332.7,199.5c0,0,49.4,89.8,31.7,95.9c-7.2,2.5-72.1,6.3-72.1,6.3l-6.9-28l48.7-7.6L332.7,199.5z" style="fill: rgb(104, 225, 253);"/>
	<path class="st2_marketing-1-30" d="M268.9,159c-6.3,0-11.4-5.1-11.4-11.4c0-6.3,5.1-11.4,11.4-11.4c6.3,0,11.4,5.1,11.4,11.4c0,0,0,0,0,0&#10;&#9;&#9;C280.2,153.9,275.1,159,268.9,159z M268.9,137.6c-5.6,0-10.1,4.6-10,10.1s4.6,10.1,10.1,10c5.6,0,10.1-4.6,10-10.1&#10;&#9;&#9;C279,142,274.5,137.5,268.9,137.6C268.9,137.5,268.9,137.5,268.9,137.6L268.9,137.6z"/>
	<path class="st2_marketing-1-30" d="M291,157.1c-6.3,0-11.4-5.1-11.4-11.4s5.1-11.4,11.4-11.4c6.3,0,11.4,5.1,11.4,11.4c0,0,0,0,0,0&#10;&#9;&#9;C302.4,152,297.3,157.1,291,157.1z M291,135.7c-5.6,0-10.1,4.5-10.1,10.1s4.5,10.1,10.1,10.1s10.1-4.5,10.1-10.1c0,0,0,0,0,0&#10;&#9;&#9;C301.1,140.2,296.6,135.7,291,135.7L291,135.7z"/>
	<path class="st2_marketing-1-30" d="M285.3,274.2c-0.3,0-0.6-0.2-0.6-0.5c-0.1-0.3,0.2-0.7,0.5-0.7c0,0,0,0,0,0l48-7.4l-11.6-49.9&#10;&#9;&#9;c-0.1-0.3,0.1-0.7,0.5-0.8c0.3-0.1,0.7,0.1,0.8,0.5c0,0,0,0,0,0l11.7,50.5c0,0.2,0,0.4-0.1,0.5c-0.1,0.1-0.3,0.2-0.4,0.3l-48.6,7.5&#10;&#9;&#9;L285.3,274.2z"/>
	<path class="st2_marketing-1-30" d="M239.7,265.2L239.7,265.2c-0.4,0-0.7-0.4-0.6-0.7c0,0,0,0,0,0c2.2-18,6.3-52.2,6.4-52.9h0.6l0.1-0.6&#10;&#9;&#9;c0.6,0.1,0.6,0.1-0.5,9l-5.4,44.7C240.3,265,240.1,265.2,239.7,265.2z"/>
	<path class="st2_marketing-1-30" d="M226.1,258.4c-0.2,0-0.5-0.1-0.6-0.4l-29.1-58.3c-0.2-0.3-0.1-0.7,0.2-0.9c0.3-0.2,0.7-0.1,0.9,0.2&#10;&#9;&#9;c0,0,0,0.1,0.1,0.1l29.1,58.3c0.1,0.3,0,0.7-0.3,0.9C226.3,258.4,226.2,258.4,226.1,258.4z"/>
	<path class="st2_marketing-1-30" d="M301.8,248c-0.2,0-0.3-0.1-0.4-0.2c-0.3-0.2-0.3-0.6-0.1-0.9l14.4-16.6l-9.8-10c-0.1-0.1-0.2-0.3-0.2-0.5&#10;&#9;&#9;c0-0.2,0.1-0.3,0.2-0.4l9.8-9.1c-3.7-5.6-9.1-13.6-9.6-14.1c-0.2-0.2-0.2-0.7,0-0.9c0.2-0.2,0.6-0.3,0.9,0c0,0,0,0,0,0&#10;&#9;&#9;c0.7,0.7,8.5,12.4,10,14.8c0.2,0.3,0.1,0.6-0.1,0.8l-9.7,9.1l9.7,9.9c0.2,0.2,0.2,0.6,0,0.9l-14.8,17.1&#10;&#9;&#9;C302.1,247.9,301.9,248,301.8,248z"/>
	<path class="st2_marketing-1-30" d="M265.4,243.9c-0.2,0-0.4-0.1-0.5-0.3l-12-17.1c-0.2-0.3-0.1-0.7,0.1-0.9l12.1-9.6l-7.4-7.7&#10;&#9;&#9;c-0.1-0.1-0.2-0.3-0.2-0.5c0-0.2,0.1-0.3,0.2-0.4l13.3-12.1c0.3-0.2,0.7-0.2,0.9,0.1c0.2,0.2,0.2,0.6,0,0.8L259,207.8l7.4,7.8&#10;&#9;&#9;c0.1,0.1,0.2,0.3,0.2,0.5c0,0.2-0.1,0.3-0.2,0.4l-12.2,9.7l11.7,16.6c0.2,0.3,0.1,0.7-0.2,0.9C265.6,243.8,265.5,243.9,265.4,243.9&#10;&#9;&#9;z"/>
	<path class="st2_marketing-1-30" d="M181.3,188.8c-0.3,0-0.6-0.3-0.6-0.6c-0.4-5.1,5-8,5.3-8.1c0.3-0.2,0.7,0,0.9,0.3c0.2,0.3,0,0.7-0.3,0.9&#10;&#9;&#9;c0,0,0,0,0,0c-0.1,0-5,2.6-4.6,6.8C182,188.5,181.7,188.8,181.3,188.8L181.3,188.8z"/>
	<path class="st2_marketing-1-30" d="M301,302.3c-0.3,0-0.6-0.3-0.6-0.6c0-0.3,0.2-0.6,0.6-0.7c0,0,0,0,0,0l35.7-2.7c0.3,0,0.6,0.2,0.7,0.5&#10;&#9;&#9;c0,0,0,0.1,0,0.1c0,0.3-0.2,0.7-0.6,0.7c0,0,0,0,0,0L301,302.3L301,302.3z"/>
</g>
<g id="Icon_marketing-1-30">
	<circle class="st1_marketing-1-30" cx="112.5" cy="303.8" r="30.6"/>
	<path class="st0_marketing-1-30" d="M112.5,335.1c-17.3,0-31.3-14-31.3-31.3c0-17.3,14-31.3,31.3-31.3s31.3,14,31.3,31.3c0,0,0,0,0,0&#10;&#9;&#9;C143.8,321.1,129.8,335.1,112.5,335.1z M112.5,273.9c-16.5,0-29.9,13.4-29.9,29.9s13.4,29.9,29.9,29.9s29.9-13.4,29.9-29.9l0,0&#10;&#9;&#9;C142.4,287.3,129.1,273.9,112.5,273.9z"/>
	<path class="st0_marketing-1-30" d="M111.4,282.1h2.5c0.1,0,0.2,0.1,0.3,0.1c3.7,0.2,7.3,1.4,10.3,3.5c7.1,4.9,10.4,11.8,9.7,20.4&#10;&#9;&#9;c-0.4,4.8-2.5,9.3-5.9,12.7c-4.6,4.9-11.3,7.4-18,6.6c-3.5-0.3-6.8-1.5-9.7-3.5c-5.2-3.4-8.6-8.9-9.5-15c-0.1-0.6-0.2-1.2-0.2-1.9&#10;&#9;&#9;v-2.4c0-0.1,0-0.3,0.1-0.5c0.1-0.9,0.2-1.9,0.4-2.8c1.9-8.9,9.1-15.7,18.2-17.1L111.4,282.1z M128.5,315.9c2.5-3.2,3.8-7.2,4-11.2&#10;&#9;&#9;h-8.6c-0.1,1.5-0.2,3.1-0.4,4.6s-0.5,3-0.8,4.4L128.5,315.9z M92.6,304.7c0.2,4.1,1.6,8,4.1,11.2l5.8-2.3c-0.7-2.9-1.1-6-1.2-9&#10;&#9;&#9;L92.6,304.7z M132.5,302.9c0.2-3.2-2.2-9.5-4.1-11.2l-5.8,2.3c0.8,2.9,1.2,6,1.2,9L132.5,302.9z M102.5,293.9l-5.8-2.2&#10;&#9;&#9;c-2.1,2.2-4.4,8.6-4,11.2h8.6C101.4,299.9,101.8,296.9,102.5,293.9L102.5,293.9z M113.5,312.4c1.3,0.1,2.5,0.2,3.8,0.3&#10;&#9;&#9;s2.5,0.4,3.7,0.5c0-0.1,0.1-0.2,0.1-0.3c0.6-2.6,1-5.2,1.1-7.9c0-0.4-0.1-0.5-0.4-0.5c-2.6,0-5.2,0-7.8,0h-0.4L113.5,312.4z&#10;&#9;&#9; M103,304.7c0,2.9,0.4,5.8,1.1,8.6l7.5-0.9v-7.7H103z M122.1,302.9c0-2.9-0.4-5.8-1.1-8.5l-7.5,0.9v7.7L122.1,302.9z M104.1,294.4&#10;&#9;&#9;c-0.7,2.8-1.1,5.7-1.1,8.5h8.6v-7.7L104.1,294.4z M120.4,292.6c-0.6-1.9-1.5-3.7-2.6-5.3c-0.7-1.1-1.7-2.1-2.9-2.8&#10;&#9;&#9;c-0.5-0.2-1-0.4-1.5-0.6v9.5C115.8,293.3,118.1,293.1,120.4,292.6L120.4,292.6z M113.4,314.3v9.4c1-0.2,2-0.7,2.8-1.4&#10;&#9;&#9;c1.6-1.6,2.9-3.5,3.6-5.6c0.2-0.5,0.4-1,0.6-1.5C118.1,314.6,115.8,314.3,113.4,314.3L113.4,314.3z M111.6,323.7v-9.5&#10;&#9;&#9;c-2.4,0-4.7,0.3-7,0.8c0.4,1,0.8,2,1.2,2.9c0.7,1.7,1.8,3.2,3.2,4.4C109.8,323,110.7,323.5,111.6,323.7L111.6,323.7z M104.6,292.6&#10;&#9;&#9;c2.3,0.5,4.7,0.8,7.1,0.8v-9.4c-0.7,0.1-1.4,0.4-2,0.9c-1.4,1-2.6,2.4-3.3,4C105.7,290,105.2,291.2,104.6,292.6L104.6,292.6z&#10;&#9;&#9; M127.2,317.4c-1.6-0.8-3.3-1.5-5.1-1.9c-1.6,4.2-2.1,5-4.2,7.6C121.5,322.1,124.7,320.1,127.2,317.4L127.2,317.4z M107.1,284.6&#10;&#9;&#9;c-2.2,0.1-8.2,3.8-9.3,5.7l5,1.9c0.6-1.4,1.2-2.8,1.8-4C105.3,286.9,106.2,285.7,107.1,284.6L107.1,284.6z M97.8,317.4&#10;&#9;&#9;c2.5,2.7,5.8,4.7,9.4,5.7c-2-2.2-3.4-4.8-4.3-7.6C101.2,315.9,99.5,316.5,97.8,317.4L97.8,317.4z M118,284.6c1,1.1,1.8,2.3,2.4,3.6&#10;&#9;&#9;c0.6,1.3,1.2,2.6,1.8,4c1.7-0.5,3.4-1.1,5-1.9C124.7,287.6,121.5,285.6,118,284.6z"/>
	<circle class="st1_marketing-1-30" cx="406.3" cy="267.5" r="23.7"/>
	<path class="st0_marketing-1-30" d="M406.3,291.9c-13.5,0-24.4-10.9-24.4-24.4c0-13.5,10.9-24.4,24.4-24.4c13.5,0,24.4,10.9,24.4,24.4l0,0&#10;&#9;&#9;C430.7,281,419.8,291.9,406.3,291.9z M406.3,244.5c-12.7,0-23,10.3-23,23s10.3,23,23,23s23-10.3,23-23l0,0&#10;&#9;&#9;C429.3,254.8,419,244.5,406.3,244.5C406.3,244.5,406.3,244.5,406.3,244.5L406.3,244.5z"/>
	<path class="st0_marketing-1-30" d="M418.9,280.1h-25.2c-3,0-5.5-2.4-5.5-5.4v0v-14.3c0-3,2.4-5.4,5.5-5.4h25.2c3,0,5.5,2.4,5.5,5.4v14.3&#10;&#9;&#9;C424.4,277.7,421.9,280.1,418.9,280.1z M393.7,256.3c-2.2,0-4,1.8-4,4v14.3c0,2.2,1.8,4,4,4h25.2c2.2,0,4.1-1.8,4.1-4c0,0,0,0,0,0&#10;&#9;&#9;v-14.3c0-2.2-1.8-4-4.1-4H393.7z"/>
	<path class="st0_marketing-1-30" d="M400.5,275.5c-0.1,0-0.3,0-0.4-0.1c-0.2-0.1-0.3-0.4-0.3-0.6v-14.5c0-0.4,0.3-0.7,0.7-0.7c0.1,0,0.2,0,0.3,0.1&#10;&#9;&#9;l15,7.3c0.2,0.1,0.4,0.4,0.4,0.6c0,0.3-0.2,0.5-0.4,0.6l-15,7.3C400.8,275.5,400.7,275.5,400.5,275.5z M401.2,261.4v12.3l12.6-6.1&#10;&#9;&#9;L401.2,261.4z"/>
	<circle class="st1_marketing-1-30" cx="112.7" cy="211.7" r="43.1"/>
	<path class="st0_marketing-1-30" d="M112.7,255.5c-24.2,0-43.8-19.6-43.8-43.8s19.6-43.8,43.8-43.8s43.8,19.6,43.8,43.8c0,0,0,0,0,0&#10;&#9;&#9;C156.5,235.9,136.9,255.5,112.7,255.5z M112.7,169.3c-23.4,0-42.4,19-42.4,42.4s19,42.4,42.4,42.4s42.4-19,42.4-42.4&#10;&#9;&#9;C155.1,188.3,136.1,169.3,112.7,169.3z"/>
	<path class="st0_marketing-1-30" d="M140.2,231.6h-55c-0.4,0-0.7-0.3-0.7-0.7v-38.4c0-0.4,0.3-0.7,0.7-0.7h55c0.4,0,0.7,0.3,0.7,0.7v38.4&#10;&#9;&#9;C140.9,231.3,140.6,231.6,140.2,231.6z M85.9,230.2h53.6v-37H85.9L85.9,230.2z"/>
	<path class="st0_marketing-1-30" d="M85.2,231.6c-0.2,0-0.3,0-0.4-0.1c-0.3-0.2-0.4-0.6-0.2-1c0,0,0,0,0,0l21.7-29.2c0.1-0.2,0.3-0.3,0.5-0.3&#10;&#9;&#9;c0.2,0,0.4,0.1,0.6,0.2l17,20.1c0.2,0.3,0.2,0.7-0.1,1c-0.3,0.2-0.7,0.2-0.9-0.1l-16.4-19.5l-21.2,28.6&#10;&#9;&#9;C85.6,231.5,85.4,231.6,85.2,231.6z"/>
	<path class="st0_marketing-1-30" d="M119.2,217c-0.1,0-0.3,0-0.4-0.1c-0.3-0.2-0.4-0.6-0.2-1c0,0,0,0,0,0l8.8-12.7c0.1-0.2,0.3-0.3,0.5-0.3&#10;&#9;&#9;c0.2,0,0.4,0.1,0.6,0.2l12.2,12.7c0.3,0.3,0.3,0.7,0,1s-0.7,0.3-1,0l-11.6-12.1l-8.3,12C119.7,216.9,119.5,217,119.2,217z"/>
	<path class="st0_marketing-1-30" d="M120.2,204.3c-2.3,0-4.1-1.8-4.1-4.1c0-2.3,1.8-4.1,4.1-4.1c2.3,0,4.1,1.8,4.1,4.1c0,0,0,0,0,0&#10;&#9;&#9;C124.3,202.4,122.4,204.3,120.2,204.3z M120.2,197.5c-1.5,0-2.7,1.2-2.7,2.7s1.2,2.7,2.7,2.7c1.5,0,2.7-1.2,2.7-2.7l0,0&#10;&#9;&#9;C122.9,198.7,121.7,197.5,120.2,197.5L120.2,197.5L120.2,197.5z"/>
	<circle class="st1_marketing-1-30" cx="390.9" cy="174.9" r="39.6"/>
	<path class="st0_marketing-1-30" d="M390.9,215.2c-22.2,0-40.3-18-40.2-40.3s18-40.3,40.3-40.2c22.2,0,40.2,18,40.2,40.3&#10;&#9;&#9;C431.1,197.1,413.1,215.2,390.9,215.2z M390.9,136c-21.5,0-38.9,17.4-38.9,38.9s17.4,38.9,38.9,38.9c21.5,0,38.9-17.4,38.9-38.9&#10;&#9;&#9;C429.7,153.5,412.3,136.1,390.9,136L390.9,136z"/>
	<path class="st0_marketing-1-30" d="M416.7,189.8H365c-0.4,0-0.7-0.3-0.7-0.7c0,0,0,0,0,0v-28.4c0-0.4,0.3-0.7,0.7-0.7l0,0h51.6&#10;&#9;&#9;c0.4,0,0.7,0.3,0.7,0.7c0,0,0,0,0,0v28.4C417.3,189.5,417,189.8,416.7,189.8z M365.7,188.4H416v-27.1h-50.3L365.7,188.4z"/>
	<path class="st0_marketing-1-30" d="M390.9,179.1c-0.1,0-0.3,0-0.4-0.1l-25.8-17.8c-0.3-0.2-0.3-0.7-0.1-1c0.2-0.3,0.6-0.3,0.9-0.2l25.4,17.5&#10;&#9;&#9;l25.4-17.5c0.3-0.2,0.8-0.2,1,0.2c0,0,0,0,0,0c0.2,0.3,0.2,0.7-0.1,1c0,0,0,0,0,0L391.3,179C391.1,179.1,391,179.1,390.9,179.1z"/>
	<path class="st0_marketing-1-30" d="M365,189.8c-0.2,0-0.4-0.1-0.6-0.3c-0.2-0.3-0.2-0.7,0.1-1c0,0,0,0,0,0l20.7-14.2c0.3-0.2,0.8-0.1,1,0.2&#10;&#9;&#9;c0.2,0.3,0.2,0.8-0.2,1c0,0,0,0,0,0l-20.7,14.2C365.3,189.8,365.1,189.8,365,189.8z"/>
	<path class="st0_marketing-1-30" d="M416.7,189.8c-0.1,0-0.3,0-0.4-0.1l-20.7-14.2c-0.3-0.2-0.4-0.7-0.2-1c0,0,0,0,0,0c0.2-0.3,0.7-0.4,1-0.2&#10;&#9;&#9;c0,0,0,0,0,0l20.7,14.2c0.3,0.2,0.4,0.6,0.2,1c0,0,0,0,0,0C417.1,189.7,416.9,189.9,416.7,189.8z"/>
	<circle class="st1_marketing-1-30" cx="184.2" cy="129" r="32.5"/>
	<path class="st0_marketing-1-30" d="M184.2,162.2c-18.4,0-33.2-14.9-33.2-33.2s14.9-33.2,33.2-33.2c18.4,0,33.2,14.9,33.2,33.2&#10;&#9;&#9;C217.4,147.4,202.5,162.2,184.2,162.2z M184.2,97.2c-17.6,0-31.8,14.2-31.8,31.8s14.2,31.8,31.8,31.8S216,146.6,216,129&#10;&#9;&#9;c0,0,0,0,0,0C216,111.4,201.7,97.2,184.2,97.2z"/>
	<path class="st0_marketing-1-30" d="M179.9,134.3h-12.4c-3.2,0-5.9-2.6-5.9-5.9c0,0,0,0,0,0v-1.6c0-3.2,2.6-5.9,5.9-5.9h12.4&#10;&#9;&#9;c0.4,0,0.7,0.3,0.7,0.7v11.9C180.6,133.9,180.2,134.3,179.9,134.3z M167.4,122.3c-2.5,0-4.5,2-4.5,4.5v1.6c0,2.5,2,4.5,4.5,4.5&#10;&#9;&#9;h11.7v-10.5L167.4,122.3z"/>
	<path class="st0_marketing-1-30" d="M199.9,144.2c-0.1,0-0.2,0-0.3-0.1l-20-9.9c-0.2-0.1-0.4-0.4-0.4-0.6v-12.3c0-0.3,0.2-0.5,0.4-0.6l20-9.9&#10;&#9;&#9;c0.3-0.2,0.8,0,0.9,0.3c0,0.1,0.1,0.2,0.1,0.3v32.1c0,0.2-0.1,0.5-0.3,0.6C200.1,144.1,200,144.2,199.9,144.2z M180.6,133.2&#10;&#9;&#9;l18.6,9.2v-29.8l-18.6,9.2V133.2z"/>
	<path class="st0_marketing-1-30" d="M199.9,134.4c-0.4,0-0.7-0.3-0.7-0.7c0-0.4,0.3-0.7,0.7-0.7c3.1,0,5.5-2.5,5.5-5.5c0-3.1-2.5-5.5-5.5-5.5&#10;&#9;&#9;c-0.4,0-0.7-0.3-0.7-0.7c0-0.4,0.3-0.7,0.7-0.7c3.8,0,6.9,3.1,6.9,6.9C206.8,131.3,203.7,134.4,199.9,134.4z"/>
	<path class="st0_marketing-1-30" d="M172.8,147.3c-2,0-3.5-1.6-3.5-3.5v-10.2c0-0.4,0.3-0.7,0.7-0.7h5.7c0.4,0,0.7,0.3,0.7,0.7v10.2&#10;&#9;&#9;C176.3,145.7,174.7,147.3,172.8,147.3z M170.6,134.3v9.5c0,1.2,1,2.1,2.1,2.1c1.2,0,2.1-1,2.1-2.1v-9.5H170.6z"/>
	<path class="st0_marketing-1-30" d="M171.7,126.1h-5.3c-0.4,0-0.7-0.3-0.7-0.7c0-0.4,0.3-0.7,0.7-0.7h5.3c0.4,0,0.7,0.3,0.7,0.7&#10;&#9;&#9;C172.4,125.7,172,126.1,171.7,126.1L171.7,126.1z"/>
</g>
<g id="line_of_text_marketing-1-30">
	<path class="st0_marketing-1-30" d="M187.9,309.6h-35.7c-0.4,0-0.7-0.3-0.7-0.7c0-0.4,0.3-0.7,0.7-0.7c0,0,0,0,0,0h35.7c0.4,0,0.7,0.3,0.7,0.7&#10;&#9;&#9;C188.6,309.3,188.3,309.6,187.9,309.6z"/>
	<path class="st0_marketing-1-30" d="M196.3,300.9h-44.1c-0.4,0-0.7-0.3-0.7-0.7c0-0.4,0.3-0.7,0.7-0.7c0,0,0,0,0,0h44.1c0.4,0,0.7,0.3,0.7,0.7&#10;&#9;&#9;C197,300.6,196.7,300.9,196.3,300.9z"/>
	<path class="st0_marketing-1-30" d="M194.3,292.4h-42.1c-0.4,0-0.7-0.3-0.7-0.7c0-0.4,0.3-0.7,0.7-0.7c0,0,0,0,0,0h42.1c0.4,0,0.7,0.3,0.7,0.7&#10;&#9;&#9;C195,292,194.7,292.4,194.3,292.4z"/>
</g>
</svg>