<?xml version="1.0"?><svg viewBox="0 0 64 64" xmlns="http://www.w3.org/2000/svg"><g data-name="2-message" id="_2-message"><polygon points="13 43 13 63 33 43 13 43" style="fill:#95c590"/><ellipse cx="32" cy="27" rx="31" ry="26" style="fill:#95c590"/><circle cx="32" cy="27" r="4" style="fill:#899c69"/><circle cx="50" cy="27" r="4" style="fill:#899c69"/><circle cx="14" cy="27" r="4" style="fill:#899c69"/><path d="M32,0C14.355,0,0,12.112,0,27c0,8.263,4.366,15.915,12,21.073V63a1,1,0,0,0,1.707.707L24.223,53.192A37.8,37.8,0,0,0,32,54c17.645,0,32-12.112,32-27S49.645,0,32,0Zm0,52a35.737,35.737,0,0,1-7.877-.877h-.011a33.828,33.828,0,0,1-4.75-1.444,1,1,0,0,0-.724,1.864c1.079.419,2.195.767,3.324,1.082L14,60.586V47.537a1,1,0,0,0-.454-.838C6.208,41.917,2,34.736,2,27,2,13.215,15.458,2,32,2S62,13.215,62,27,48.542,52,32,52Z"/><path d="M32,22a5,5,0,1,0,5,5A5.006,5.006,0,0,0,32,22Zm0,8a3,3,0,1,1,3-3A3,3,0,0,1,32,30Z"/><path d="M50,22a5,5,0,1,0,5,5A5.006,5.006,0,0,0,50,22Zm0,8a3,3,0,1,1,3-3A3,3,0,0,1,50,30Z"/><path d="M14,22a5,5,0,1,0,5,5A5.006,5.006,0,0,0,14,22Zm0,8a3,3,0,1,1,3-3A3,3,0,0,1,14,30Z"/><path d="M56.191,15.42A27.549,27.549,0,0,0,41.277,5.3a1,1,0,1,0-.554,1.922A25.549,25.549,0,0,1,54.562,16.58a1,1,0,1,0,1.629-1.16Z"/><rect height="2" width="2" x="36" y="5"/></g></svg>