<?xml version="1.0"?><svg id="Layer_1" style="enable-background:new 0 0 70.7202 79.349472;" version="1.1" viewBox="0 0 70.7202 79.349472" xml:space="preserve" xmlns="http://www.w3.org/2000/svg" xmlns:xlink="http://www.w3.org/1999/xlink"><style type="text/css">
	.st0{opacity:0.5;fill:#231F20;enable-background:new    ;}
	.st1{fill:#FFFFFF;}
	.st2{fill:#22093A;stroke:#22093A;stroke-linecap:round;stroke-linejoin:round;}
	.st3{fill:#E6E7E8;stroke:#22093A;stroke-linecap:round;stroke-linejoin:round;}
	.st4{fill:none;stroke:#22093A;stroke-linecap:round;stroke-linejoin:round;}
	.st5{fill:none;stroke:#FFFFFF;stroke-linecap:round;stroke-linejoin:round;}
	.st6{fill:#9736FF;stroke:#22093A;stroke-linecap:round;stroke-linejoin:round;}
	.st7{fill:#71C1F2;stroke:#22093A;stroke-linecap:round;stroke-linejoin:round;}
	.st8{fill:#71C1F2;stroke:#FFFFFF;stroke-linecap:round;stroke-linejoin:round;}
</style><g id="Layer_2_00000054948133518448334090000012501640705442158516_"><g id="Layer_1-2"><path class="st0" d="M66.304337,23.33433c0.606369-1.065689,0.862572-2.294964,0.732422-3.51416    c-0.207993-1.582439-1.114326-2.988335-2.469757-3.831059c-0.184669-0.120732-0.376778-0.229672-0.575191-0.32617    c-0.278347-0.271082-0.582161-0.51472-0.90723-0.72754c-1.24369-0.684803-2.598747-1.144134-4.002499-1.35675    c2.203732-1.216326,3.603943-3.503411,3.68512-6.01922c0.065506-2.220992-1.16412-4.278056-3.151371-5.272    c-1.967747-1.111665-4.366711-1.14241-6.362301-0.08154c-1.931206,1.153774-3.140095,3.213295-3.206028,5.46194    c-0.05835,0.831084,0.051331,1.665406,0.322498,2.45317c-0.056-0.02142-0.110001-0.0462-0.166199-0.06738    c-2.0886-0.778903-4.239147-1.380332-6.428799-1.7979c-0.333023-2.257402-1.738476-4.213826-3.771481-5.25    c-0.528278-0.465678-1.110962-0.865722-1.735352-1.19141c-3.251999-1.71289-15.80957-0.751-18.61133,3.563    c-1.073355,1.57588-1.354061,3.560848-0.759769,5.37256c0.536182,1.565342,1.657513,2.862348,3.128929,3.61913    c0.10644,0.102054,0.216791,0.200197,0.331051,0.29443c-0.469582,0.54994-0.867607,1.15715-1.18457,1.80713    c-0.390141,0.835476-0.635553,1.731144-0.725771,2.6488c-0.362246-0.309149-0.760983-0.572777-1.187309-0.785    c-0.626688-0.612741-1.381941-1.078268-2.210939-1.362789c-1.267794-0.317913-2.574565-0.452723-3.88056-0.40033    c1.431842-1.13867,2.291189-2.848855,2.35029-4.67731c0.05889-1.995037-1.045282-3.842944-2.83008-4.73633    c-1.732155-0.967662-3.838283-0.984783-5.58594-0.04541c-1.703115,1.004491-2.774965,2.809507-2.8418,4.785649    c-0.145469,1.948211,0.763805,3.82507,2.38282,4.918449c0.223134,0.151112,0.456722,0.286179,0.699,0.404181    c-2.39459,0.564569-4.548,1.54266-5.55933,3.12463c-0.993999,1.500214-1.211716,3.384945-0.58593,5.072269    c0.493719,1.262234,1.410084,2.31407,2.59277,2.97607c-0.317305,0.419201-0.590559,0.869989-0.81543,1.345221    c-0.78898,1.61241-0.86759,3.481321-0.2168,5.154291c0.562983,1.360504,1.597594,2.472435,2.91407,3.13184    C6.684568,38.948681,7.930449,39.578705,9.275,39.847c0.99237,0.189278,2.001618,0.275673,3.01172,0.25782    c0.17352,0,0.36011-0.009521,0.53937-0.013371c-2.373357,1.975307-2.696042,5.500595-0.720736,7.873951    c0.000885,0.001064,0.00177,0.002125,0.002656,0.003189c0.551709,0.623127,1.225279,1.126568,1.97913,1.47924    c-2.769995-0.639141-5.369629-1.867985-7.62171-3.602779c-1.503753-1.214905-3.70766-0.980747-4.922565,0.523006    c-0.503007,0.622601-0.777448,1.398781-0.777584,2.199184c0.235946,6.244823,2.259799,12.290623,5.83105,17.418941    c2.912945,4.360092,7.001456,7.805786,11.792,9.937996c4.811193,2.216507,10.038883,3.384117,15.335939,3.425301    c14.875,0,26.477539-9.76416,31.616215-18.391121C70.067001,53.023781,74.157852,36.283058,66.304337,23.33433z"/><path class="st1" d="M65.539062,22.321711c0.606369-1.065689,0.862579-2.294964,0.732422-3.51416    c-0.207993-1.582413-1.114311-2.988284-2.469719-3.831c-0.184669-0.120734-0.376785-0.229674-0.575199-0.32617    c-0.278339-0.271084-0.58215-0.514723-0.907219-0.72754c-1.24369-0.684841-2.598751-1.144202-4.002518-1.35684    c2.203747-1.216305,3.603977-3.50338,3.685169-6.01919c0.06551-2.22099-1.164108-4.278055-3.15136-5.272    c-1.967751-1.11167-4.366714-1.142415-6.362309-0.08154c-1.931206,1.153762-3.140106,3.213271-3.206051,5.46191    c-0.058372,0.831068,0.051292,1.665377,0.322449,2.45313c-0.056-0.02143-0.110001-0.04621-0.166199-0.06739    c-2.088589-0.778872-4.239124-1.380275-6.428761-1.797819c-0.333038-2.257398-1.738487-4.213817-3.771488-5.25    c-0.528275-0.465677-1.110962-0.865718-1.735352-1.1914c-3.251999-1.7129-15.80957-0.751-18.61133,3.563    c-1.073351,1.575881-1.354055,3.560849-0.75976,5.37256c0.536173,1.56534,1.657494,2.86235,3.128901,3.61914    c0.106453,0.102047,0.216806,0.200194,0.33106,0.29444c-0.469587,0.549947-0.867613,1.157167-1.18457,1.80716    c-0.390144,0.835474-0.635557,1.731144-0.725769,2.6488c-0.362247-0.309149-0.760988-0.572779-1.187321-0.785    c-0.626688-0.612741-1.381941-1.078268-2.210939-1.36279c-1.26779-0.317913-2.574558-0.452723-3.88055-0.40033    c1.431842-1.138664,2.291186-2.848848,2.35028-4.6773c0.058915-1.995056-1.045263-3.842991-2.830081-4.73638    c-1.732152-0.967671-3.838284-0.984793-5.58594-0.04541c-1.703114,1.004486-2.774961,2.809501-2.84179,4.785639    c-0.145475,1.948213,0.763796,3.825077,2.38281,4.91846c0.223136,0.151104,0.456724,0.286166,0.699,0.40417    c-2.39459,0.564581-4.548,1.542669-5.55932,3.12464c-0.994007,1.500206-1.211728,3.384937-0.58594,5.07226    c0.493715,1.26222,1.410069,2.314043,2.592741,2.976042C2.70712,27.799999,2.433873,28.25078,2.209,28.726    c-0.78897,1.612415-0.867577,3.481329-0.21679,5.154299c0.562976,1.360504,1.597585,2.472427,2.91406,3.131828    c1.013044,0.923912,2.258946,1.553955,3.60352,1.822269c0.992368,0.189266,2.001613,0.275661,3.01171,0.257809    c0.17353,0,0.36011-0.009521,0.53937-0.013359c-2.373355,1.975307-2.696034,5.500599-0.720726,7.873951    c0.000882,0.00106,0.001764,0.002121,0.002646,0.003178c0.551711,0.623127,1.22528,1.126572,1.97913,1.479252    c-2.769989-0.639149-5.369618-1.867996-7.6217-3.602779c-1.503733-1.214939-3.707651-0.980824-4.922589,0.522907    C0.274591,45.97797,0.000132,46.754185,0,47.554619c0.23595,6.244827,2.259802,12.290627,5.83105,17.418953    c2.912946,4.360092,7.001456,7.805786,11.792001,9.938004c4.811197,2.216507,10.038891,3.384109,15.335949,3.425278    c14.875,0,26.477539-9.76416,31.616219-18.391109C69.301758,52.011169,73.392578,35.270451,65.539062,22.321711z"/><path class="st2" d="M29.43145,47.394169C17.947001,59.611641,3.495,47.54538,3.495,47.54538s0.6017,17.477112,15.5516,24.161552    c20.166809,9.016998,36.303669-3.13147,42.5168-13.56139c6.685432-11.22279,9.788322-36.471691-12.74585-44.960289    c-5.913692-2.055954-12.122341-3.136632-18.38291-3.199733c0,0,9.887732,5.09677,8.616728,15.49915    C37.043369,41.91914,23.159748,41.04073,23.159748,41.04073L29.43145,47.394169z"/><path class="st3" d="M28.813339,46.515759C17.328911,58.733231,3.495,47.54538,3.495,47.54538    S3.47855,64.144081,18.42845,70.828522c20.166811,9.016998,36.303665-3.13147,42.516785-13.56139    c6.68544-11.22279,9.788322-36.471691-12.745842-44.960289c-5.695248-2.002803-11.746151-2.793472-17.764799-2.32132    c0,0,9.269621,4.21836,7.998621,14.620739c-2.007999,16.434471-15.27351,16.434471-15.27351,16.434471L28.813339,46.515759z"/><path class="st4" d="M38.953838,35.741119c0,0-5.182621,6.214531-1.099579,7.842442    c3.455349,1.377651,6.719608-5.375679,6.719608-5.375679"/><path class="st4" d="M49.601051,46.574268c-2.892509-1.061749-10.345169-1.061749-12.918129,5.164242    c-2.914391,7.052189,1.717739,11.32935,1.717739,11.32935"/><path class="st2" d="M30.121161,55.5037c0.323919,1.798462-1.323879,2.72213-3.354231,3.374802    s-4.839849,0.495861-5.39909-1.243858s1.770491-3.115421,3.858999-3.547001    C27.661341,53.584461,29.78318,53.627178,30.121161,55.5037z"/><path class="st5" d="M39.470501,14.6183c3.000393,4.874068,3.16856,10.979648,0.441002,16.011478"/><path class="st5" d="M37.952831,12.50088c0.221127,0.248112,0.429527,0.507278,0.624401,0.7765"/><path class="st5" d="M6.97589,52.506271c2.912142,2.092323,6.434706,3.162384,10.01859,3.043381"/><path class="st5" d="M29.441401,60.804401c0.515078-0.259991,0.978369-0.611824,1.36709-1.0382"/><path class="st5" d="M21.28517,61.32317c1.481398,0.883465,3.243975,1.168667,4.928391,0.797459    c0.546598-0.087505,1.081156-0.238335,1.59288-0.44944"/><path class="st4" d="M63.125,39.643002c0,4.666111-1.962662,11.600079-3.677528,14.17107"/><path class="st4" d="M57.96711,56.46262c-0.789795,1.274929-1.678612,2.485786-2.65823,3.62138"/><path class="st6" d="M15.18126,41.330448c-1.126197,0.246643-1.839216,1.35955-1.592573,2.485748    c0.065952,0.301147,0.197787,0.583946,0.386033,0.828083c1.07954,1.236851,3.61964,1.35429,4.00066-0.535252    c0.396452-1.140347-0.206594-2.386166-1.346939-2.782616C16.15958,41.16341,15.649204,41.164833,15.18126,41.330448z"/><path class="st6" d="M52.768471,6.8876c-0.091808,1.498195,1.048294,2.787146,2.54649,2.878953    c0.400646,0.02455,0.801758-0.039948,1.174511-0.188863c1.933121-0.912,2.98394-4.05141,0.752998-5.20086    S52.950371,4.25414,52.768471,6.8876z"/><path class="st2" d="M16.58729,20.30213c-1.6546-0.590269-9.88749,0.002769-11.14008,1.96217    c-1.1719,1.833189,0.4625,3.67384,2.56311,3.4932s5.164929-0.783091,5.164929-0.783091    c-0.30231,0.591-5.35659,4.203859-6.30669,6.263109c-0.73133,1.585091-0.40711,3.542629,2.40148,4.17234    c2.54051,0.569599,10.075001-0.240089,10.12125-2.212292c0.07136-3.045269-4.15505-3.047001-6.520639-2.63166    C12.87065,30.56591,21.405001,22.02084,16.58729,20.30213z"/><path class="st2" d="M37.35284,4.945c-1.95705-1.03087-12.44927-0.08425-14.04377,2.3717    c-1.4918,2.29775,0.54973,4.6298,3.19619,4.421s6.510052-0.94015,6.510052-0.94015    c-0.38588,0.74145-6.746099,4.61215-7.96063,7.196509c-1.055704,1.967556-0.316504,4.418392,1.651052,5.474096    c0.405466,0.217556,0.845097,0.364298,1.299948,0.433903c3.19367,0.739719,12.009928-0.328711,12.763178-2.695669    c1.375809-4.32325-5.20454-3.87326-8.18671-3.371349C32.58218,17.834999,44.355171,8.63344,37.35284,4.945z"/><path class="st2" d="M61.87664,17.8936c-1.310871-0.86182-8.579449-2.08718-10.080341-0.651831    c-1.404221,1.342899-0.37513,3.285339,1.48563,3.57254s4.646839,0.41209,4.646839,0.41209    c-0.387199,0.4489-5.53606,2.51543-6.795609,4.101339c-0.969509,1.220739-1.10191,2.98772,1.201881,4.12764    c2.083881,1.031111,8.792309,1.92091,9.24921,0.21949c0.70549-2.627131-2.961189-3.52179-5.101448-3.66139    C56.4828,26.013479,65.693489,20.403,61.87664,17.8936z"/><path class="st7" d="M15.10181,19.24613c-1.6546-0.590269-9.8875,0.002769-11.14008,1.96217    c-1.1719,1.833189,0.4625,3.67384,2.56311,3.4932s5.164929-0.783091,5.164929-0.783091    c-0.30231,0.591-5.35659,4.203859-6.30669,6.263109c-0.73133,1.585079-0.40712,3.542629,2.40148,4.17234    c2.5405,0.569599,10.074999-0.240089,10.12125-2.212299c0.07136-3.045259-4.155001-3.047001-6.520639-2.631649    C11.38517,29.509911,19.919531,20.96484,15.10181,19.24613z"/><path class="st7" d="M35.867352,3.889c-1.957001-1.03087-12.449261-0.08425-14.04376,2.3717    c-1.4918,2.29775,0.54973,4.629789,3.19618,4.421s6.510059-0.94015,6.510059-0.94015    c-0.38588,0.74145-6.746109,4.61215-7.96063,7.1965c-1.055706,1.967554-0.316505,4.418392,1.651049,5.474096    c0.405468,0.217558,0.8451,0.3643,1.299952,0.433905c3.19367,0.739719,12.009928-0.328699,12.763178-2.69566    c1.375809-4.32325-5.20454-3.87327-8.18672-3.371349C31.096689,16.778999,42.869678,7.57744,35.867352,3.889z"/><path class="st7" d="M60.391151,16.837601c-1.31086-0.86182-8.579441-2.08718-10.08033-0.651831    c-1.404221,1.342899-0.37513,3.285339,1.48563,3.57254s4.646832,0.41209,4.646832,0.41209    c-0.387199,0.4489-5.536049,2.51543-6.795601,4.101339c-0.969521,1.220739-1.10191,2.98772,1.20187,4.12764    c2.083889,1.031111,8.79232,1.9209,9.24921,0.21949c0.70549-2.627131-2.961182-3.521801-5.101448-3.66139    C54.997311,24.957479,64.208,19.347,60.391151,16.837601z"/><path class="st5" d="M9.11253,20.91674c-1.67089,0.075951-4.02532,0.816401-3.60733,1.632799"/><path class="st5" d="M28.492001,5.537c-2.25153,0.316-5.851879,1.02893-5.08927,2.62679    c0.210392,0.442621,0.608604,0.767223,1.084551,0.88407"/><path class="st5" d="M25.45406,17.423071c-0.769913,1.123667-0.483137,2.658716,0.64053,3.428627    c0.25461,0.174454,0.539701,0.299568,0.840469,0.368843"/><path class="st5" d="M7.28444,32.38509c0,0.212269,0.77722,0.341782,0.77722,0.341782"/><path class="st8" d="M52.36359,24.261221c0,0-2.295719,1.23691-1.294312,2.056999"/><path class="st5" d="M51.586369,17.77379c0,0.212259,0.777222,0.34177,0.777222,0.34177"/><path class="st7" d="M6.98115,11.11709c-0.068387,1.11604,0.780905,2.076208,1.896945,2.144594    C9.176541,13.279972,9.475332,13.231927,9.753,13.121c1.440001-0.67935,2.22282-3.018,0.561-3.87426    C9.355254,8.574592,8.033153,8.806924,7.361003,9.76567C7.084594,10.159937,6.950629,10.636552,6.98115,11.11709z"/></g></g></svg>