<?xml version="1.0"?><svg id="Layer_1" style="enable-background:new 0 0 71.344994 75.653313;" version="1.1" viewBox="0 0 71.344994 75.653313" xml:space="preserve" xmlns="http://www.w3.org/2000/svg" xmlns:xlink="http://www.w3.org/1999/xlink"><style type="text/css">
	.st0{opacity:0.5;fill:#231F20;enable-background:new    ;}
	.st1{fill:#FFFFFF;}
	.st2{fill:#22093A;stroke:#22093A;stroke-linecap:round;stroke-linejoin:round;}
	.st3{fill:#FCC707;stroke:#22093A;stroke-linecap:round;stroke-linejoin:round;}
	.st4{fill:#35CCAD;stroke:#22093A;stroke-linecap:round;stroke-linejoin:round;}
	.st5{fill:none;stroke:#FFFFFF;stroke-linecap:round;stroke-linejoin:round;}
</style><g id="Layer_2_00000169542974138985213710000017012423254892142015_"><g id="Layer_1-2"><path class="st0" d="M70.396606,6.51659c-1.259964-2.030457-3.275505-3.476672-5.602539-4.02    c-3.322075-1.045966-6.917873-0.786853-10.05566,0.72461c-0.091801-0.043947-0.184574-0.086754-0.27832-0.12842    C50.232552,0.2412,42.793098,1.02635,40.286259,1.87743c-1.041073,0.337341-1.97435,0.944139-2.705082,1.75879    c-0.432327-0.271564-0.881474-0.515388-1.344719-0.73c-1.865978-1.251737-4.078568-1.884493-6.324221-1.8086    c-2.321812,0.094894-4.557299,0.906303-6.399418,2.32278c-0.557922-0.611778-1.266308-1.066811-2.05468-1.31983    c-0.559189-0.299249-1.174349-0.479309-1.806641-0.52881C16.942566,1.336768,14.324208,2.611979,12.839,4.88963    c-0.18946-0.099613-0.381193-0.18978-0.5752-0.2705c-1.825105-1.367818-4.222414-1.708687-6.35645-0.90381    C3.53821,4.604,2.01282,7.33788,1.24427,12.07225c-0.08008,0.49365-1.873,11.92432,2.625,16.0625    c1.317178,1.461302,3.201872,2.281694,5.16894,2.25c2.109105,0.010521,4.094761-0.993204,5.33692-2.69775    c0.221324,0.121941,0.448845,0.232275,0.68164,0.330561c1.415139,1.065191,3.198014,1.519087,4.950231,1.26026    c1.700109-0.284937,3.184364-1.313711,4.047859-2.80567c0.413002,0.259726,0.843378,0.49074,1.28808,0.69141    c0.05744,0.037661,0.1178,0.069401,0.17584,0.1059c-2.181843,1.229612-4.211451,2.711645-6.04697,4.415539    c-4.649853,4.716398-6.483141,11.527185-4.8291,17.940428c0.508023,4.108921,2.586863,7.861683,5.800779,10.47168    c3.299824,2.667828,7.267174,4.381149,11.47168,4.954109c1.669369,0.290009,3.319298,0.682518,4.94043,1.175293    c0.80957,0.253418,2.266602,1.719238,3.552731,3.012688c1.895927,2.04438,4.030323,3.853859,6.357418,5.389648    c1.040833,0.659378,2.245461,1.014244,3.477539,1.024422c1.324085-0.00061,2.611103-0.43734,3.662109-1.242683    c2.638672-2.000488,3.53418-5.820801,2.335941-9.969727c-0.457561-1.584236-1.118679-3.102436-1.966801-4.516602    c-0.676441-1.311882-1.488491-2.549271-2.422852-3.691891c4.370121-1.979488,6.608398-5.139648,6.161129-8.995609    c-0.172405-2.473518-1.625893-4.676731-3.832001-5.80859c0.489433-1.565884,0.520947-3.239067,0.09082-4.822269    c-0.139977-0.545086-0.332275-1.075378-0.574219-1.583488c-0.206097-0.433849-0.45575-0.845631-0.74511-1.229    c-0.161957-0.21637-0.336407-0.423103-0.522461-0.619141c-0.025398-0.027828-0.051762-0.055168-0.078129-0.08252    c-0.526642-0.555019-1.136082-1.025108-1.806641-1.393551c0.34309-1.358173,0.250156-2.789865-0.265629-4.092289    c-0.139416-0.354782-0.299183-0.701225-0.478512-1.0376c-0.366043-0.695635-0.827702-1.336582-1.371521-1.904169    c0.621906-0.775724,1.100258-1.656292,1.412529-2.60022c0.604294,1.791668,1.969864,3.224459,3.73045,3.914082    c0.535671,0.399277,1.133541,0.707451,1.769531,0.912109c3.495079,1.12989,8.347656,1.544889,11.480465-0.677231    c1.664658-1.151873,2.669815-3.037403,2.69825-5.061531c0.023468-0.898424-0.189354-1.787264-0.617188-2.577629    c0.359009-0.569683,0.607788-1.201742,0.733398-1.863291c0.176147-0.931297,0.084717-1.893448-0.26368-2.7749    c0.655052-0.574887,1.176079-1.28642,1.526367-2.08447C71.629364,10.099898,71.440865,8.100491,70.396606,6.51659z"/><path class="st1" d="M69.571671,5.43361c-1.259972-2.03045-3.275505-3.476662-5.602531-4.02    c-3.322083-1.04596-6.917877-0.786848-10.055672,0.72461c-0.091801-0.04394-0.184574-0.086743-0.27832-0.12841    c-4.227535-2.85159-11.666988-2.06643-14.173828-1.21536c-1.041069,0.337345-1.974342,0.944142-2.705078,1.75879    c-0.432327-0.271564-0.881474-0.515388-1.344719-0.73c-1.865982-1.251728-4.078571-1.884473-6.324223-1.80857    c-2.321808,0.094877-4.557295,0.906277-6.39941,2.32275C22.129965,1.72564,21.421577,1.27061,20.6332,1.0176    c-0.559189-0.299252-1.174349-0.479311-1.806641-0.52881c-2.708935-0.234997-5.327294,1.040215-6.8125,3.31787    c-0.18946-0.099607-0.381193-0.189777-0.5752-0.27051c-1.825106-1.367808-4.222406-1.708675-6.35644-0.90381    C2.71328,3.521,1.18789,6.2549,0.41933,10.98928c-0.08008,0.49365-1.873,11.92431,2.625,16.0625    c1.317184,1.461298,3.20188,2.281691,5.16895,2.25c2.109108,0.010513,4.094761-0.993223,5.33691-2.697781    c0.221321,0.121946,0.448843,0.232286,0.68164,0.33057c1.415133,1.06518,3.197995,1.519072,4.9502,1.26025    c1.700104-0.284939,3.184355-1.313707,4.04785-2.80566c0.413002,0.259726,0.843378,0.49074,1.28808,0.69141    c0.05744,0.037649,0.1178,0.069389,0.17585,0.10589c-2.181835,1.229631-4.211432,2.711681-6.04694,4.41559    c-4.64985,4.7164-6.483137,11.527187-4.8291,17.94043c0.508035,4.108917,2.586872,7.861675,5.800779,10.47168    c3.299822,2.667831,7.267172,4.381153,11.47168,4.954102c1.669369,0.290009,3.319298,0.682518,4.94043,1.175293    c0.80957,0.253418,2.266602,1.719238,3.552731,3.012703c1.895931,2.044373,4.030334,3.853859,6.35743,5.389648    c1.040833,0.659378,2.245457,1.014236,3.477531,1.024406c1.324081-0.000603,2.611099-0.437325,3.662109-1.242668    c2.63868-2.000488,3.53418-5.820801,2.335941-9.96973c-0.457561-1.58424-1.118675-3.102436-1.966801-4.516602    c-0.676437-1.311886-1.488491-2.549278-2.422852-3.691898c4.370121-1.979488,6.608398-5.139641,6.16114-8.995598    c-0.172417-2.473518-1.6259-4.676727-3.832001-5.808601c0.489445-1.56588,0.520958-3.239059,0.09082-4.822258    c-0.139973-0.54509-0.332272-1.075386-0.574211-1.5835c-0.206104-0.433849-0.455761-0.845631-0.745121-1.229    c-0.161953-0.216377-0.336403-0.423107-0.522461-0.619141c-0.025391-0.027828-0.051762-0.05518-0.078129-0.08252    c-0.526642-0.555023-1.136082-1.025116-1.806641-1.39356c0.343086-1.35817,0.250156-2.789858-0.265621-4.092279    c-0.139416-0.354782-0.299191-0.701225-0.478519-1.0376c-0.366035-0.695639-0.827694-1.336588-1.371521-1.904169    c0.621895-0.775717,1.100243-1.656271,1.412514-2.600187c0.604317,1.791639,1.969887,3.224398,3.730461,3.914    c0.535671,0.399277,1.133545,0.707449,1.769531,0.912109c3.49511,1.129879,8.347649,1.54492,11.480469-0.67725    c1.664665-1.151863,2.669823-3.037392,2.698242-5.06152c0.023468-0.898428-0.189354-1.787271-0.617188-2.577641    c0.359009-0.569679,0.607788-1.201735,0.733398-1.86328c0.17614-0.931296,0.084717-1.893444-0.263672-2.774899    c0.655045-0.574892,1.176064-1.286424,1.52636-2.08447C70.804413,9.016898,70.615913,7.017505,69.571671,5.43361z"/><path class="st2" d="M21.700899,34.16534c2.375999-2.359829,8.92779-6.55571,14.548639-7.505001    c5.545002-0.936529,8.39019-2.802219,9.960728,1.149799c1.4505,3.65-4.663509,7.187859-4.663509,7.187859    s7.071732-4.17935,8.521561,1.402569c1.324741,5.1003-4.9786,7.6371-4.9786,7.6371s7.932091-3.530201,8.632519,2.519402    c0.664001,5.735149-9.955002,6.984631-9.955002,6.984631c2.927002,2.45113,6.76276,5.468998,8.297371,10.786762    c1.47139,5.098671-1.50169,7.956551-4.269928,6.242249c-4.705528-2.914001-7.5755-7.785648-10.706661-8.766689    c-6.47575-2.028938-9.223-0.885849-15.328911-5.567348C15.9821,51.807339,15.11513,40.706291,21.700899,34.16534z"/><path class="st3" d="M21.12451,33.085918c2.375999-2.359829,8.92779-6.55571,14.548639-7.505001    c5.544998-0.936529,8.966579-1.722799,10.537121,2.229219c1.4505,3.65-5.239899,6.108438-5.239899,6.108438    s7.648121-3.09993,9.09795,2.481998c1.324741,5.1003-5.555,6.557678-5.555,6.557678s8.15868-2.460152,8.859077,3.589447    C54.0364,52.282848,43.1908,52.462227,43.1908,52.462227c2.926998,2.45113,6.762772,5.469002,8.297382,10.78677    c1.47139,5.098667-1.50169,7.956547-4.269928,6.242252c-4.705528-2.914001-7.5755-7.785648-10.706669-8.766689    c-6.47574-2.028938-10.24675-0.355469-15.328899-5.567348S14.53873,39.626869,21.12451,33.085918z"/><path class="st2" d="M30.746149,4.3078c3.471739-0.19769,8.747648,3.18747,8.3873,9.93693s-4.751419,9.88328-8.549999,10.07169    c-3.427349,0.17-7.992569-2.450861-7.84672-9.64475C22.85623,8.778,25.646839,4.59817,30.746149,4.3078z"/><path class="st2" d="M31.278259,9.53636c0.50169-0.25647,1.205421,1.05185,1.04623,4.17869s-0.83964,4.77984-1.388109,5.0476    c-0.494881,0.24159-1.108721-0.748449-0.973249-4.06983C30.07411,11.97174,30.54138,9.91305,31.278259,9.53636z"/><path class="st2" d="M7.77081,6.708C4.49778,7.936,0.97892,25.802931,8.223,25.802    c4.87149-0.00066,3.54478-9.01824,3.54478-9.01824s2.80161,8.59481,6.880479,7.953791    c4.675779-0.734819,4.38312-20.14925,0.634239-20.437901c-5.05134-0.38893-4.79355,8.18268-4.79355,8.18268    S11.82959,5.18523,7.77081,6.708z"/><path class="st2" d="M42.047871,4.90689c-2.748859,0.93427-2.21138,4.20916-2.771141,10.94554    c-0.47261,5.68741,1.637482,6.51528,3.620701,6.49777c3.962879-0.035,3.310928-7.60638,3.310928-7.60638    s8.419899,2.55179,8.460999-6.27689C54.692509,3.50866,44.87265,3.94682,42.047871,4.90689z"/><path class="st2" d="M46.396851,8.499c0,0,2.439999-0.30578,2.107761,0.9707s-2.296249,1.20483-2.296249,1.20483L46.396851,8.499z    "/><path class="st2" d="M66.58709,7.24489c-2.323357-3.84022-8.796619-3.254-10.878769-0.01814    c-1.56451,2.43141-4.555,13.812209-0.1045,15.250129s9.519363,0.939831,9.603577-2.49382    c0.061531-2.508751-5.565788-3.17234-5.565788-3.17234s5.261002,0.741131,5.73909-1.8228s-5.088291-2.72244-5.088291-2.72244    S69.073288,11.35427,66.58709,7.24489z"/><path class="st4" d="M29.297609,3.50919c3.471739-0.19769,8.747648,3.18747,8.3873,9.936941s-4.751419,9.88327-8.549999,10.07168    c-3.427349,0.17-7.992569-2.45085-7.84672-9.64475C21.40769,7.97937,24.198299,3.79957,29.297609,3.50919z"/><path class="st2" d="M29.82972,8.73775c0.50169-0.25646,1.20542,1.05185,1.04623,4.17869s-0.83964,4.77984-1.388121,5.047599    c-0.494869,0.24159-1.108709-0.748449-0.97324-4.06983C28.62557,11.17313,29.09284,9.11444,29.82972,8.73775z"/><path class="st4" d="M6.32227,5.90938c-3.273,1.228-4.41688,19.24752,0.45219,19.094s3.54478-9.01824,3.54478-9.01824    s2.80161,8.594809,6.880479,7.9538c4.67577-0.734831,5.11758-19.67152,1.3687-19.960171    c-5.05135-0.38893-5.528,7.70494-5.528,7.70494S10.38105,4.38662,6.32227,5.90938z"/><path class="st4" d="M40.599331,4.10828c-2.748859,0.93427-2.21138,4.20916-2.771141,10.94555    c-0.47261,5.687409,1.63747,6.515281,3.620701,6.49776c3.962879-0.035,3.310928-7.60638,3.310928-7.60638    s8.419891,2.55179,8.460999-6.27689C53.243999,2.71006,43.42411,3.14822,40.599331,4.10828z"/><path class="st2" d="M44.948311,7.70041c0,0,2.439999-0.30579,2.107761,0.97069s-2.296249,1.20483-2.296249,1.20483    L44.948311,7.70041z"/><path class="st4" d="M65.13855,6.44628c-0.723618-2.51692-8.796631-3.254-10.878769-0.01814    c-1.56451,2.43142-4.555,13.81221-0.1045,15.25013s9.51936,0.939831,9.60358-2.493811    c0.061531-2.508751-5.565792-3.17235-5.565792-3.17235s5.261002,0.741131,5.73909-1.82279s-5.088291-2.72245-5.088291-2.72245    S66.46563,11.06224,65.13855,6.44628z"/><path class="st5" d="M8.61183,8.17911c-0.40037-0.32949-1.49946-0.54262-1.82278,0C5.90937,9.65545,5.422,11.83733,5.422,15.89354    "/><path class="st5" d="M29.49361,5.63185c-2.36912-0.28626-5.21619,1.56455-5.931999,5.41837"/><path class="st5" d="M40.059761,13.37489c0.000439,1.18806-0.850128,5.100289,0.67865,5.82244"/><path class="st5" d="M42.144791,5.37484c-1.117424,0.208495-1.911583,1.206791-1.86348,2.34248"/><path class="st5" d="M53.818779,16.57708c0,0-0.605679,2.56329,1.217098,3.24684    c1.207008,0.42683,2.469566,0.676262,3.748211,0.740499"/><path class="st5" d="M23.66622,54.453461c0.263332,0.237263,0.530611,0.456818,0.80183,0.658661"/><path class="st5" d="M21.43161,36.007759c-2.06761,2.67424-3.58461,6.837601-1.237499,13.15176    c0.466814,1.287598,1.117197,2.501007,1.931,3.602619"/><path class="st5" d="M24.46946,33.07761c-0.28157,0.213699-0.58886,0.45546-0.909479,0.727772"/><path class="st5" d="M40.281311,26.74057c1.862171-0.081209,3.298222,0.05271,3.609001,1.39081"/><path class="st5" d="M45.711349,45.122059c0,0,3.70451-1.120941,4.761929,0.68327"/><path class="st5" d="M5.422,17.99861c0.068633,1.04282,0.201798,2.080387,0.39873,3.106741"/><path class="st5" d="M23.32007,13.51327c-0.035469,1.445631,0.200142,2.885116,0.694651,4.244"/></g></g></svg>