<svg xmlns="http://www.w3.org/2000/svg" viewBox="0 0 750 500"><g id="freepik--background-complete--inject-218"><g><rect x="55.98" y="171.32" width="60.88" height="41.05" rx="7.28" ry="7.28" transform="translate(70.98 -18) rotate(20.04)" style="fill:#f5f5f5;"></rect><rect x="58.5" y="180.63" width="60.88" height="8.6" transform="translate(68.77 -19.28) rotate(20.04)" style="fill:#fafafa;"></rect><path d="M79.16,201.27c-.03,.09-4.72-1.53-10.47-3.63-5.75-2.1-10.39-3.87-10.35-3.97,.03-.09,4.72,1.53,10.47,3.63,5.75,2.1,10.38,3.87,10.35,3.97Z" style="fill:#fff;"></path><path d="M84.22,201.03c-.03,.09-5.71-1.89-12.67-4.43-6.96-2.54-12.58-4.67-12.55-4.77,.03-.09,5.7,1.89,12.67,4.43,6.96,2.54,12.58,4.67,12.54,4.77Z" style="fill:#fff;"></path></g><g><g><path d="M259.51,192.66c3.07,21.16-11.63,40.82-32.84,43.9-21.21,3.08-40.9-11.57-43.97-32.74-3.08-21.16,11.63-40.81,32.84-43.9,21.21-3.08,40.9,11.57,43.97,32.73Z" style="fill:#f5f5f5;"></path><path d="M250.37,193.99c2.34,16.13-8.86,31.1-25.02,33.45-16.16,2.35-31.17-8.82-33.51-24.95-2.34-16.13,8.86-31.1,25.02-33.45,16.16-2.35,31.17,8.82,33.51,24.95Z" style="fill:#ebebeb;"></path><path d="M250.23,193.07c-.18,.03-.49-1.23-1.29-3.41-.81-2.16-2.16-5.25-4.68-8.48-1.26-1.61-2.8-3.24-4.65-4.76-1.86-1.5-4.01-2.9-6.46-3.99-1.22-.55-2.51-1.04-3.85-1.42-1.35-.39-2.74-.71-4.19-.89-1.44-.19-2.92-.3-4.42-.26-1.5,.04-3.02,.18-4.54,.44-1.52,.28-3,.67-4.42,1.15-1.42,.48-2.78,1.09-4.07,1.76-1.29,.67-2.5,1.45-3.62,2.28-1.13,.82-2.17,1.73-3.13,2.66-1.92,1.87-3.46,3.93-4.69,5.98-1.21,2.06-2.1,4.12-2.73,6.06-1.25,3.9-1.46,7.27-1.47,9.57,0,2.31,.14,3.61-.03,3.64-.13,.03-.57-1.22-.85-3.59-.26-2.36-.31-5.89,.81-10.07,.56-2.08,1.41-4.31,2.63-6.54,1.24-2.22,2.82-4.47,4.84-6.52,1-1.03,2.1-2.02,3.31-2.92,1.2-.91,2.49-1.77,3.87-2.5,1.38-.74,2.84-1.41,4.37-1.94,1.53-.53,3.13-.95,4.76-1.25,1.64-.28,3.28-.43,4.9-.46,1.62-.03,3.22,.1,4.77,.31,1.55,.21,3.06,.58,4.5,1.02,1.44,.43,2.82,.99,4.11,1.6,2.6,1.23,4.87,2.79,6.79,4.45,1.92,1.68,3.48,3.48,4.72,5.24,2.49,3.53,3.66,6.87,4.23,9.17,.56,2.32,.57,3.64,.44,3.67Z" style="fill:#e0e0e0;"></path></g><path d="M226.95,215.22l.81,5.09-4.54,.73-.79-4.95c-4.54,.45-9.08-.27-11.89-1.82l1.61-5.94c2.54,1.32,6.01,2.02,9.33,1.81l-1.22-7.59c-5.24-.42-11.14-1.2-12.18-7.69-.77-4.81,2.06-9.51,9.11-11.47l-.81-5.04,4.54-.73,.79,4.95c3.45-.27,6.91,.1,9.66,1.29l-1.38,5.95c-2.53-.95-5.01-1.34-7.33-1.25l1.24,7.72c5.23,.37,11.04,1.17,12.07,7.57,.76,4.72-2.04,9.36-9.03,11.37Zm-7.75-19.35l-1.03-6.45c-2.32,.93-3.06,2.4-2.82,3.9,.25,1.59,1.76,2.23,3.86,2.55Zm9.56,9.7c-.25-1.59-1.71-2.24-3.77-2.61l1,6.27c2.19-.86,3-2.2,2.77-3.66Z" style="fill:#e0e0e0;"></path></g><g><g><path d="M178.1,123.61c2.09,14.42-7.92,27.8-22.37,29.9-14.45,2.1-27.86-7.88-29.95-22.3-2.1-14.41,7.92-27.8,22.37-29.9,14.45-2.1,27.86,7.88,29.95,22.3Z" style="fill:#f5f5f5;"></path><path d="M171.88,124.52c1.6,10.98-6.04,21.19-17.05,22.79-11.01,1.6-21.23-6.01-22.83-16.99-1.6-10.99,6.04-21.19,17.05-22.79,11.01-1.6,21.23,6.01,22.83,16.99Z" style="fill:#ebebeb;"></path><path d="M171.78,123.89c-.12,.02-.33-.84-.88-2.32-.55-1.47-1.47-3.58-3.19-5.78-.86-1.09-1.91-2.21-3.17-3.24-1.27-1.02-2.73-1.98-4.4-2.72-.83-.38-1.71-.71-2.62-.97-.92-.26-1.87-.48-2.85-.61-.98-.13-1.99-.2-3.01-.18-1.02,.02-2.06,.12-3.09,.3-1.03,.19-2.04,.45-3.01,.78-.97,.33-1.89,.75-2.77,1.2-.88,.46-1.7,.99-2.47,1.55-.77,.56-1.48,1.18-2.13,1.81-1.31,1.27-2.36,2.68-3.2,4.07-.83,1.4-1.43,2.81-1.86,4.13-.85,2.65-.99,4.95-1,6.52,0,1.58,.1,2.46-.02,2.48-.09,.02-.39-.83-.58-2.45-.18-1.61-.21-4.01,.55-6.86,.38-1.42,.96-2.93,1.79-4.46,.84-1.51,1.92-3.04,3.3-4.44,.68-.7,1.43-1.38,2.25-1.99,.82-.62,1.69-1.2,2.64-1.7,.94-.5,1.93-.96,2.98-1.32,1.04-.36,2.13-.65,3.24-.85,1.12-.19,2.24-.3,3.34-.32,1.1-.02,2.19,.07,3.25,.21,1.06,.14,2.08,.39,3.06,.69,.98,.29,1.92,.67,2.8,1.09,1.77,.84,3.31,1.9,4.63,3.03,1.3,1.14,2.37,2.37,3.22,3.57,1.7,2.41,2.5,4.68,2.88,6.25,.38,1.58,.39,2.48,.3,2.5Z" style="fill:#e0e0e0;"></path></g><path d="M155.92,138.98l.56,3.47-3.09,.49-.54-3.37c-3.09,.3-6.19-.18-8.1-1.24l1.1-4.05c1.73,.9,4.09,1.38,6.35,1.24l-.83-5.17c-3.57-.28-7.59-.82-8.3-5.24-.52-3.28,1.41-6.48,6.21-7.81l-.55-3.43,3.09-.5,.54,3.37c2.35-.19,4.71,.07,6.58,.88l-.94,4.05c-1.72-.64-3.41-.91-4.99-.85l.84,5.26c3.56,.25,7.52,.8,8.22,5.16,.52,3.22-1.39,6.38-6.15,7.74Zm-5.28-13.18l-.7-4.39c-1.58,.63-2.09,1.64-1.92,2.66,.17,1.08,1.2,1.52,2.63,1.74Zm6.52,6.6c-.17-1.08-1.16-1.53-2.57-1.78l.68,4.27c1.49-.59,2.04-1.5,1.89-2.49Z" style="fill:#e0e0e0;"></path></g><g><g><path d="M329.15,160.84c1.71,11.8-6.48,22.75-18.3,24.47-11.82,1.72-22.8-6.45-24.51-18.25-1.71-11.8,6.48-22.75,18.3-24.47,11.82-1.72,22.8,6.45,24.51,18.25Z" style="fill:#f5f5f5;"></path><path d="M324.06,161.58c1.31,8.99-4.94,17.34-13.95,18.65-9.01,1.31-17.37-4.92-18.68-13.91-1.31-8.99,4.94-17.34,13.95-18.65,9.01-1.31,17.37,4.92,18.68,13.91Z" style="fill:#ebebeb;"></path><path d="M323.98,161.07c-.1,.02-.27-.69-.72-1.9-.45-1.2-1.2-2.93-2.61-4.73-.7-.9-1.56-1.81-2.59-2.65-1.04-.83-2.24-1.62-3.6-2.23-.68-.31-1.4-.58-2.15-.79-.75-.22-1.53-.39-2.33-.5-.8-.1-1.63-.17-2.47-.14-.84,.02-1.68,.1-2.53,.25-.85,.16-1.67,.37-2.46,.64-.79,.27-1.55,.61-2.27,.98-.72,.37-1.39,.81-2.02,1.27-.63,.46-1.21,.96-1.74,1.49-1.07,1.04-1.93,2.19-2.61,3.33-.68,1.15-1.17,2.3-1.52,3.38-.7,2.17-.81,4.05-.82,5.33,0,1.29,.08,2.01-.02,2.03-.07,.01-.32-.68-.47-2-.14-1.31-.17-3.28,.45-5.61,.31-1.16,.79-2.4,1.47-3.65,.69-1.24,1.57-2.49,2.7-3.63,.56-.57,1.17-1.13,1.84-1.63,.67-.51,1.39-.98,2.16-1.39,.77-.41,1.58-.79,2.44-1.08,.85-.3,1.74-.53,2.66-.7,.91-.16,1.83-.24,2.73-.26,.9-.02,1.79,.05,2.66,.17,.87,.12,1.7,.32,2.51,.57,.81,.24,1.57,.55,2.29,.89,1.45,.69,2.71,1.56,3.79,2.48,1.07,.94,1.94,1.94,2.63,2.92,1.39,1.97,2.04,3.83,2.36,5.11,.31,1.29,.32,2.03,.25,2.04Z" style="fill:#e0e0e0;"></path></g><path d="M311,173.41l.45,2.84-2.53,.4-.44-2.76c-2.53,.25-5.06-.15-6.63-1.02l.9-3.31c1.42,.73,3.35,1.13,5.2,1.01l-.68-4.23c-2.92-.23-6.21-.67-6.79-4.29-.43-2.68,1.15-5.3,5.08-6.4l-.45-2.81,2.53-.41,.44,2.76c1.92-.15,3.85,.06,5.39,.72l-.77,3.32c-1.41-.53-2.79-.75-4.08-.7l.69,4.3c2.92,.21,6.15,.65,6.73,4.22,.42,2.63-1.14,5.22-5.04,6.34Zm-4.32-10.79l-.58-3.59c-1.29,.52-1.71,1.34-1.57,2.17,.14,.89,.98,1.25,2.15,1.42Zm5.33,5.4c-.14-.89-.95-1.25-2.1-1.46l.56,3.49c1.22-.48,1.67-1.23,1.54-2.04Z" style="fill:#e0e0e0;"></path></g><g><path d="M268.91,373.31h5.46c-.35-.27-.71-.53-1.06-.8,.81,2.62,1.61,5.24,2.42,7.87,1.28,4.16,2.56,8.32,3.84,12.48,.29,.96,.59,1.92,.88,2.88,.14,.46,.57,.8,1.06,.8,5.21-.01,10.42-.03,15.64-.04,.75,0,1.49,0,2.24,0,1.42,0,1.42-2.18,0-2.18-5.21,.01-10.42,.03-15.64,.04-.75,0-1.49,0-2.24,0,.35,.27,.71,.53,1.06,.8-.81-2.62-1.61-5.24-2.42-7.87-1.28-4.16-2.56-8.32-3.84-12.48-.29-.96-.59-1.92-.88-2.88-.14-.46-.57-.8-1.06-.8h-5.46c-1.42,0-1.42,2.18,0,2.18h0Z" style="fill:#ebebeb;"></path><path d="M302.88,376.09c-1.03,4.56-2.06,9.12-3.09,13.69-.15,.66-.3,1.31-.44,1.97,.27-.2,.53-.4,.8-.6-2.23-.02-4.46-.04-6.69-.06-3.58-.03-7.16-.07-10.74-.1-.82,0-1.64-.02-2.45-.02,.27,.2,.53,.4,.8,.6-1.44-4.52-2.87-9.03-4.31-13.55-.2-.64-.4-1.27-.61-1.91-.27,.35-.53,.69-.8,1.04h28.33c1.06,0,1.07-1.64,0-1.64h-28.33c-.52,0-.96,.52-.8,1.04,1.44,4.52,2.87,9.03,4.31,13.55,.2,.64,.4,1.27,.61,1.91,.11,.35,.42,.6,.8,.6,2.23,.02,4.46,.04,6.69,.06,3.58,.03,7.16,.07,10.74,.1,.82,0,1.64,.02,2.45,.02,.35,0,.72-.25,.8-.6,1.03-4.56,2.06-9.12,3.09-13.69,.15-.66,.3-1.31,.44-1.97,.23-1.03-1.36-1.46-1.59-.43Z" style="fill:#ebebeb;"></path><path d="M280.98,376.79c.87,4.99,1.98,9.94,2.85,14.93,.18,1.04,1.77,.6,1.59-.43-.87-4.99-1.98-9.94-2.85-14.93-.18-1.04-1.77-.6-1.59,.43h0Z" style="fill:#ebebeb;"></path><path d="M289.72,376.57c.08,5.12,.18,10.24,.26,15.35,.02,1.05,1.67,1.05,1.65,0-.08-5.12-.18-10.24-.26-15.35-.02-1.05-1.67-1.05-1.65,0h0Z" style="fill:#ebebeb;"></path><path d="M297.78,392.11c.7-4.55,1.4-9.09,2.1-13.64,.1-.65,.2-1.3,.3-1.95,.07-.44-.11-.87-.58-1.01-.39-.11-.95,.14-1.02,.57-.7,4.55-1.4,9.09-2.1,13.64-.1,.65-.2,1.3-.3,1.95-.07,.44,.11,.87,.58,1.01,.39,.11,.95-.13,1.02-.57h0Z" style="fill:#ebebeb;"></path><path d="M277.15,381.91h25.02c1.06,0,1.07-1.64,0-1.64h-25.02c-1.06,0-1.07,1.64,0,1.64h0Z" style="fill:#ebebeb;"></path><path d="M279.5,387.66h21.67c1.06,0,1.07-1.64,0-1.64h-21.67c-1.06,0-1.07,1.64,0,1.64h0Z" style="fill:#ebebeb;"></path><path d="M302.33,400.81c0,1.61-1.32,2.91-2.94,2.91s-2.94-1.3-2.94-2.91,1.32-2.91,2.94-2.91,2.94,1.3,2.94,2.91Z" style="fill:#ebebeb;"></path><path d="M286.15,400.81c0,1.61-1.32,2.91-2.94,2.91s-2.94-1.3-2.94-2.91,1.32-2.91,2.94-2.91,2.94,1.3,2.94,2.91Z" style="fill:#ebebeb;"></path></g><g><g><polygon points="257.9 82.58 238.39 82.72 238.39 82.85 235.7 132.02 277.36 131.73 277.16 101.66 257.9 82.58" style="fill:#FF725E;"></polygon><polygon points="257.9 82.58 238.39 82.72 238.39 82.85 235.7 132.02 277.36 131.73 277.16 101.66 257.9 82.58" style="fill:#e0e0e0;"></polygon><polygon points="238.39 82.72 219.01 101.11 219.23 132.13 258.24 131.86 258.03 101.49 238.39 82.72" style="fill:#ebebeb;"></polygon><rect x="243.99" y="104.33" width="8.31" height="8.31" transform="translate(-.75 1.72) rotate(-.4)" style="fill:#fafafa;"></rect><rect x="223.71" y="104.47" width="8.31" height="8.31" transform="translate(-.75 1.58) rotate(-.4)" style="fill:#fafafa;"></rect><rect x="223.59" y="86.13" width="4.16" height="12.33" transform="translate(-.64 1.57) rotate(-.4)" style="fill:#ebebeb;"></rect><rect x="232.13" y="116.74" width="9.67" height="15.27" transform="translate(-.86 1.65) rotate(-.4)" style="fill:#fafafa;"></rect></g><path d="M257.9,82.58s.04,.02,.1,.08c.07,.07,.16,.15,.28,.25,.25,.24,.61,.58,1.06,1.01,.93,.91,2.27,2.21,3.96,3.86,3.41,3.35,8.23,8.1,13.98,13.76l.28,.28h-.4c-5.76-.05-12.25-.1-19.13-.15h-.07l-.05-.05c-1.07-1.02-2.21-2.11-3.36-3.21-5.87-5.62-11.42-10.93-16.26-15.58h.23c-6.12,5.78-11.28,10.64-14.92,14.07-1.81,1.69-3.24,3.03-4.24,3.96-.48,.44-.86,.79-1.13,1.04-.12,.11-.22,.19-.29,.26-.07,.06-.1,.09-.11,.08,0,0,.03-.04,.09-.1,.07-.07,.16-.17,.28-.28,.26-.26,.63-.62,1.1-1.07,.98-.95,2.39-2.31,4.18-4.03,3.62-3.46,8.74-8.35,14.83-14.17l.11-.11,.11,.11c4.85,4.63,10.41,9.94,16.29,15.55,1.15,1.1,2.29,2.19,3.36,3.21l-.12-.05c6.88,.07,13.36,.13,19.13,.19l-.12,.28c-5.71-5.7-10.5-10.48-13.89-13.85-1.66-1.68-2.98-3-3.9-3.92-.44-.45-.78-.79-1.02-1.05-.11-.11-.19-.2-.26-.27-.06-.06-.08-.1-.08-.1Z" style="fill:#e0e0e0;"></path><path d="M241.8,131.98s-.02-.1-.03-.3c0-.23-.02-.51-.03-.85-.02-.79-.04-1.86-.06-3.18-.03-2.76-.06-6.55-.1-10.91l.18,.18c-1.53,0-3.15,.01-4.82,.02-1.66,0-3.27,0-4.79,.01l.18-.18c-.01,4.36-.02,8.16-.03,10.93-.02,1.32-.03,2.4-.04,3.19-.01,.34-.02,.62-.03,.86,0,.19-.02,.3-.03,.3s-.02-.1-.03-.3c0-.23-.02-.51-.03-.86-.02-.79-.04-1.87-.06-3.19-.03-2.77-.06-6.57-.1-10.93v-.18h.18c1.52,0,3.13-.02,4.79-.02,1.67,0,3.29,0,4.82-.01h.18v.18c-.01,4.35-.02,8.14-.03,10.91-.02,1.32-.03,2.39-.04,3.18l-.03,.85c0,.19-.02,.3-.03,.3Z" style="fill:#e0e0e0;"></path></g><path d="M411.84,226.22c2.74-1.66,5.67-2.92,8.68-3.77l1.79-8.59,14.52-.25,2.09,8.52c3.04,.75,6.01,1.9,8.81,3.46l7.34-4.81,10.44,10.09-4.55,7.5c1.66,2.75,2.92,5.67,3.77,8.68l8.59,1.79,.25,14.52-8.52,2.09c-.75,3.04-1.9,6.01-3.46,8.81l4.81,7.34-10.08,10.44-7.5-4.55c-2.75,1.66-5.67,2.92-8.68,3.77l-1.79,8.59-14.52,.25-2.09-8.52c-3.04-.75-6.01-1.9-8.81-3.47l-7.34,4.81-10.44-10.08,4.55-7.5c-1.66-2.75-2.92-5.67-3.77-8.68l-8.59-1.79-.25-14.52,8.52-2.09c.75-3.04,1.9-6.01,3.46-8.81l-4.81-7.34,10.08-10.44,7.5,4.55h0Zm7.74,19.34c-5.97,6.19-5.8,16.05,.39,22.02,6.19,5.97,16.05,5.8,22.02-.39,5.97-6.19,5.8-16.05-.39-22.02-6.19-5.97-16.05-5.8-22.02,.39Z" style="fill:#ebebeb;"></path><path d="M551.52,273.28c1.52-.92,3.15-1.62,4.82-2.09l.99-4.77,8.06-.14,1.16,4.73c1.69,.42,3.33,1.06,4.89,1.92l4.07-2.67,5.8,5.6-2.52,4.16c.92,1.52,1.62,3.15,2.09,4.82l4.77,.99,.14,8.06-4.73,1.16c-.42,1.69-1.06,3.33-1.92,4.89l2.67,4.07-5.6,5.8-4.16-2.52c-1.52,.92-3.15,1.62-4.82,2.09l-.99,4.77-8.06,.14-1.16-4.73c-1.69-.42-3.33-1.06-4.89-1.92l-4.07,2.67-5.8-5.6,2.52-4.16c-.92-1.52-1.62-3.15-2.09-4.82l-4.77-.99-.14-8.06,4.73-1.16c.42-1.69,1.06-3.33,1.92-4.89l-2.67-4.07,5.6-5.8,4.16,2.52h0Zm4.3,10.74c-3.32,3.44-3.22,8.91,.21,12.23,3.44,3.32,8.91,3.22,12.23-.22,3.32-3.44,3.22-8.91-.21-12.23s-8.91-3.22-12.23,.21Z" style="fill:#ebebeb;"></path><path d="M556.8,149.98c1.29-.78,2.67-1.37,4.08-1.77l.84-4.04,6.83-.12,.98,4.01c1.43,.35,2.83,.9,4.14,1.63l3.45-2.26,4.91,4.74-2.14,3.53c.78,1.29,1.37,2.67,1.77,4.08l4.04,.84,.12,6.83-4.01,.98c-.35,1.43-.9,2.82-1.63,4.14l2.26,3.45-4.74,4.91-3.53-2.14c-1.29,.78-2.67,1.37-4.08,1.77l-.84,4.04-6.83,.12-.98-4.01c-1.43-.35-2.83-.9-4.14-1.63l-3.45,2.26-4.91-4.74,2.14-3.53c-.78-1.29-1.37-2.67-1.77-4.08l-4.04-.84-.12-6.83,4.01-.98c.35-1.43,.9-2.82,1.63-4.14l-2.26-3.45,4.74-4.91,3.53,2.14h0Zm3.64,9.1c-2.81,2.91-2.73,7.55,.18,10.36,2.91,2.81,7.55,2.73,10.36-.18,2.81-2.91,2.73-7.55-.18-10.36-2.91-2.81-7.55-2.73-10.36,.18Z" style="fill:#f5f5f5;"></path><path d="M262.24,302.77c1.29-.78,2.67-1.37,4.08-1.77l.84-4.04,6.83-.12,.98,4.01c1.43,.35,2.83,.9,4.14,1.63l3.45-2.26,4.91,4.74-2.14,3.53c.78,1.29,1.37,2.67,1.77,4.08l4.04,.84,.12,6.83-4.01,.98c-.35,1.43-.9,2.82-1.63,4.14l2.26,3.45-4.74,4.91-3.53-2.14c-1.29,.78-2.67,1.37-4.08,1.77l-.84,4.04-6.83,.12-.98-4.01c-1.43-.35-2.83-.9-4.14-1.63l-3.45,2.26-4.91-4.74,2.14-3.53c-.78-1.29-1.37-2.67-1.77-4.08l-4.04-.84-.12-6.83,4.01-.98c.35-1.43,.9-2.82,1.63-4.14l-2.26-3.45,4.74-4.91,3.53,2.14h0Zm3.64,9.1c-2.81,2.91-2.73,7.55,.18,10.36,2.91,2.81,7.55,2.73,10.36-.18,2.81-2.91,2.73-7.55-.18-10.36-2.91-2.81-7.55-2.73-10.36,.18Z" style="fill:#f5f5f5;"></path><path d="M459.28,311.69c1.29-.78,2.67-1.37,4.08-1.77l.84-4.04,6.83-.12,.98,4.01c1.43,.35,2.83,.9,4.14,1.63l3.45-2.26,4.91,4.74-2.14,3.53c.78,1.29,1.37,2.67,1.77,4.08l4.04,.84,.12,6.83-4.01,.98c-.35,1.43-.9,2.82-1.63,4.14l2.26,3.45-4.74,4.91-3.53-2.14c-1.29,.78-2.67,1.37-4.08,1.77l-.84,4.04-6.83,.12-.98-4.01c-1.43-.35-2.82-.9-4.14-1.63l-3.45,2.26-4.91-4.74,2.14-3.53c-.78-1.29-1.37-2.67-1.77-4.08l-4.04-.84-.12-6.83,4.01-.98c.35-1.43,.9-2.83,1.63-4.14l-2.26-3.45,4.74-4.91,3.53,2.14h0Zm3.64,9.1c-2.81,2.91-2.73,7.55,.18,10.36,2.91,2.81,7.55,2.73,10.36-.18,2.81-2.91,2.73-7.55-.18-10.36s-7.55-2.73-10.36,.18Z" style="fill:#f5f5f5;"></path><path d="M633.08,144.69c.74-.45,1.53-.79,2.35-1.02l.48-2.32,3.93-.07,.57,2.31c.82,.2,1.63,.52,2.38,.94l1.99-1.3,2.83,2.73-1.23,2.03c.45,.74,.79,1.53,1.02,2.35l2.32,.48,.07,3.93-2.31,.57c-.2,.82-.52,1.62-.94,2.38l1.3,1.99-2.73,2.83-2.03-1.23c-.74,.45-1.53,.79-2.35,1.02l-.48,2.32-3.93,.07-.57-2.31c-.82-.2-1.63-.52-2.38-.94l-1.99,1.3-2.83-2.73,1.23-2.03c-.45-.74-.79-1.53-1.02-2.35l-2.32-.48-.07-3.93,2.31-.57c.2-.82,.52-1.62,.94-2.38l-1.3-1.99,2.73-2.83,2.03,1.23h0Zm2.09,5.23c-1.62,1.67-1.57,4.34,.1,5.96,1.67,1.62,4.34,1.57,5.96-.1s1.57-4.34-.1-5.96-4.34-1.57-5.96,.1Z" style="fill:#f5f5f5;"></path><path d="M594.16,182.09c2.34-1.41,4.83-2.49,7.4-3.22l1.52-7.33,12.38-.22,1.78,7.27c2.59,.64,5.12,1.62,7.51,2.96l6.26-4.1,8.91,8.6-3.88,6.4c1.42,2.34,2.49,4.83,3.22,7.41l7.33,1.52,.22,12.38-7.27,1.78c-.64,2.59-1.62,5.12-2.96,7.51l4.1,6.26-8.6,8.91-6.4-3.88c-2.34,1.41-4.83,2.49-7.4,3.22l-1.53,7.33-12.38,.22-1.78-7.27c-2.59-.64-5.12-1.62-7.51-2.96l-6.26,4.1-8.91-8.6,3.88-6.4c-1.41-2.34-2.49-4.83-3.22-7.4l-7.33-1.52-.22-12.38,7.27-1.78c.64-2.59,1.62-5.12,2.96-7.51l-4.1-6.26,8.6-8.91,6.4,3.88h0Zm6.6,16.49c-5.1,5.28-4.95,13.69,.33,18.78,5.28,5.1,13.69,4.95,18.78-.33,5.1-5.28,4.95-13.69-.33-18.78-5.28-5.1-13.69-4.95-18.78,.33Z" style="fill:#ebebeb;"></path></g><g id="freepik--Floor--inject-218"><path d="M732.12,429.66c0,.14-159.19,.26-355.52,.26s-355.56-.12-355.56-.26,159.16-.26,355.56-.26,355.52,.12,355.52,.26Z" style="fill:#263238;"></path></g><g id="freepik--Plant--inject-218"><g><path d="M370.94,393.46c1.67,.72,2.9,2.27,3.51,3.98,.62,1.71,.67,3.58,.47,5.39-.4,3.5-2.38,7.02-4.52,9.82-2.94-2.57-3.62-7.05-3.82-9.35-.32-3.63,1.31-10.38,4.37-9.84" style="fill:#FF725E;"></path><path d="M373.82,418.41c-.47-1.98,.35-4.14,1.87-5.49,1.52-1.35,3.64-1.92,5.66-1.77,.94,.07,1.95,.34,2.48,1.12,.5,.72,.45,1.73,.04,2.51-.41,.78-1.11,1.36-1.85,1.83-2.55,1.6-5.31,2.68-8.2,1.82" style="fill:#FF725E;"></path><path d="M370.04,429.13s.02-.26,.1-.72c.09-.51,.21-1.16,.36-1.94,.33-1.62,.74-3.95,2-6.2,1.24-2.25,2.98-3.91,4.45-4.73,.73-.42,1.36-.67,1.81-.8,.22-.07,.4-.1,.52-.13,.12-.03,.18-.03,.19-.03,.02,.06-1.02,.24-2.43,1.12-1.42,.85-3.1,2.49-4.32,4.7-1.24,2.21-1.68,4.5-2.05,6.11-.18,.81-.32,1.47-.44,1.93-.11,.45-.19,.7-.2,.7Z" style="fill:#263238;"></path><path d="M370.15,398.7s.02,.11,.04,.31c.01,.23,.03,.53,.05,.9,.04,.78,.09,1.92,.13,3.32,.09,2.8,.16,6.67,.14,10.95-.02,4.28-.12,8.15-.24,10.95-.06,1.4-.11,2.53-.16,3.31-.03,.37-.05,.67-.06,.9-.02,.21-.03,.31-.04,.31s-.01-.11-.01-.32c0-.23,0-.53,.01-.9,.02-.82,.05-1.94,.08-3.32,.07-2.8,.14-6.67,.16-10.94,.02-4.27-.02-8.14-.07-10.94-.02-1.38-.04-2.5-.05-3.32,0-.37,0-.67,0-.9,0-.21,0-.31,.02-.32Z" style="fill:#263238;"></path><path d="M368.72,420.54c-.67-4.23-3.52-8.05-7.38-9.9-.98-.47-2.27-.78-3.08-.05-.81,.73-.63,2.05-.23,3.07,1.65,4.24,6.08,7.23,10.62,7.17" style="fill:#FF725E;"></path><path d="M361.82,413.95s.23,.08,.62,.27c.2,.09,.44,.21,.71,.38,.26,.17,.58,.33,.9,.56,.32,.23,.68,.47,1.03,.77,.37,.29,.72,.63,1.09,.99,.73,.75,1.46,1.64,2.08,2.67,.61,1.04,1.06,2.1,1.37,3.1,.14,.5,.27,.98,.35,1.44,.1,.45,.14,.88,.18,1.28,.05,.39,.04,.75,.05,1.06,.01,.31,0,.58-.02,.8-.03,.44-.06,.68-.08,.68-.06,0,.04-.97-.13-2.52-.05-.39-.1-.81-.2-1.25-.08-.45-.22-.92-.36-1.41-.32-.97-.76-2.02-1.36-3.04-.61-1.01-1.32-1.89-2.03-2.64-.36-.36-.71-.71-1.06-1-.34-.31-.69-.55-1-.79-1.26-.91-2.15-1.31-2.13-1.36Z" style="fill:#263238;"></path></g></g><g id="freepik--Characters--inject-218"><g><g><path d="M666.61,331.19s5.35-1.32,8.09-5.27c2.74-3.95,8.19-16.8,8.19-25.54s1.24-51.01,1.24-51.01l-22.23,3.06-7.64,67.7,12.35,11.06Z" style="fill:#455a64;"></path><polygon points="697.95 271.09 682.89 275.49 682.89 291.65 704.33 287.91 697.95 271.09" style="fill:#263238;"></polygon><polygon points="698.25 271.89 699.97 271.09 706.67 281.37 703.31 285.23 698.25 271.89" style="fill:#e0e0e0;"></polygon></g><g><g><path d="M504.4,202.24c-1.41,6.26-3.24,13.93-.9,19.91,.66,1.7,1.64,3.39,1.46,5.21-.24,2.52-2.65,4.52-2.57,7.05,.07,2.21,1.98,3.84,3.21,5.69,1.65,2.49,2.09,5.58,2.31,8.57,.22,2.98,.26,6.03,1.27,8.85,1,2.82,3.21,5.43,6.15,5.96l10.82-7.72-12.11-49.97-9.64-3.53Z" style="fill:#263238;"></path><path d="M577.09,250.49c-2.29-2.89-3.9-6.4-6.84-8.62-2.46-1.86-5.78-2.76-7.48-5.33-2.12-3.19-.89-7.62-2.49-11.1-1.81-3.93-6.54-5.42-9.81-8.24-6.98-6.02-10.1-16.31-14.79-22.2l-9.09,39.89c6.91,14.2,11.79,27.83,19.84,41.42,8.43,.17,19.52-2.09,26.45-6.9l-2.97-4.62c1.28,1.13,3.23,1.6,4.95,1.27,2.52-.48,4.59-2.25,6.34-4.12,2.09-2.23,3.91-4.71,5.41-7.37-3.47,1.26-7.22-1.18-9.5-4.07Z" style="fill:#263238;"></path><g><path d="M536.49,195.95c-3.77-4.72-8.88-7.47-14.92-7.65-3.41-.1-4.83,.59-7.29,1.23-2.46,.63-4.7,1.92-6.19,3.98-1.77,2.45-3.27,5.19-3.63,8.19-.38,3.08-.75,6.18-.56,9.27,.19,3.09,1,6.22,2.79,8.75l7.86,1.46c4.35,.2,8.75,.4,13-.54,4.25-.94,8.39-3.17,10.71-6.85,3.22-5.12,2.01-13.12-1.76-17.84Z" style="fill:#263238;"></path><path d="M529.49,195.81l-10.44-4.29-2.75,.29c-6.17-.05-10.51,6.7-10.61,11.69-.11,5.55-.03,12.32,.8,16.42,1.67,8.24,8.69,9.01,8.69,9.01l.74,7.94-1.98,2.52-.96,17.63,20.15,2.44,2.11-31.12-3.8,.69,.8-30.37c-.03-1.52-1.22-2.75-2.74-2.85Z" style="fill:#ae7461;"></path><path d="M518.85,218.14c-.05-.43-.29-.82-.59-1.09-.61-.53-1.51-.6-2.17-.15-.66,.45-1.05,1.37-.94,2.24h0c.36,.51,.92,.86,1.55,.92,.1,0,.19,.01,.29,.01,.47,0,.96-.16,1.33-.51,.37-.34,.6-.9,.53-1.43Z" style="fill:#6f4439;"></path><path d="M507.84,210.61c0,.56,.48,1.02,1.07,1.03,.59,0,1.06-.44,1.06-1.01,0-.56-.48-1.02-1.07-1.03-.59,0-1.06,.44-1.06,1.01Z" style="fill:#263238;"></path><path d="M507.53,206.29c.14,.13,.92-.5,2.07-.54,1.14-.06,2.01,.49,2.13,.35,.06-.06-.09-.31-.46-.56-.37-.25-1-.48-1.71-.45-.71,.03-1.3,.32-1.64,.61-.34,.29-.45,.54-.38,.6Z" style="fill:#263238;"></path><path d="M514.78,215.35c0-.07-.72-.16-1.88-.26-.29-.02-.57-.06-.63-.26-.08-.21,.03-.53,.16-.88,.25-.72,.5-1.47,.77-2.26,1.07-3.22,1.83-5.87,1.7-5.91-.13-.04-1.1,2.54-2.17,5.76-.26,.79-.5,1.55-.73,2.28-.1,.34-.27,.72-.1,1.15,.09,.22,.31,.36,.5,.41,.19,.05,.35,.05,.5,.05,1.16,.01,1.89-.01,1.89-.08Z" style="fill:#263238;"></path><path d="M515.16,228.92s5.6,.12,11-3.44c0,0-2.44,5.99-10.79,5.57l-.21-2.13Z" style="fill:#6f4439;"></path><path d="M507.78,203.26c.11,.32,1,.38,1.97,.75,.98,.33,1.71,.86,1.99,.68,.13-.09,.1-.38-.17-.75-.26-.37-.77-.78-1.44-1.02-.67-.24-1.32-.24-1.75-.13-.44,.12-.65,.32-.6,.48Z" style="fill:#263238;"></path><path d="M520.24,210.21c.02,.56-.44,1.05-1.02,1.08-.59,.03-1.08-.39-1.1-.95-.02-.56,.44-1.05,1.02-1.08,.59-.03,1.08,.39,1.11,.95Z" style="fill:#263238;"></path><path d="M523.04,206.03c-.13,.14-.94-.45-2.09-.44-1.15,0-1.99,.59-2.11,.45-.06-.06,.07-.31,.44-.58,.36-.27,.97-.53,1.69-.53,.71,0,1.32,.26,1.66,.53,.35,.27,.47,.52,.41,.58Z" style="fill:#263238;"></path><path d="M522.26,202.8c-.11,.32-1.04,.4-2.03,.78-1.01,.35-1.76,.89-2.06,.71-.13-.09-.1-.38,.18-.76,.27-.37,.8-.8,1.49-1.05,.69-.25,1.36-.26,1.81-.15,.45,.11,.66,.31,.62,.47Z" style="fill:#263238;"></path><path d="M530.63,212.58c-.02-.62,.63-2.11,1.23-2.23,1.62-.32,4.57-.32,4.77,3.82,.28,5.66-5.46,4.77-5.48,4.61-.01-.13-.44-4.07-.52-6.2Z" style="fill:#ae7461;"></path><path d="M532.61,216.64s.1,.06,.27,.13c.17,.07,.45,.1,.74-.02,.59-.25,1.04-1.22,1.02-2.24-.01-.52-.14-1-.34-1.4-.19-.41-.48-.68-.78-.72-.3-.05-.51,.14-.57,.3-.07,.16-.03,.27-.06,.28-.02,.02-.13-.09-.09-.32,.02-.11,.08-.25,.21-.37,.13-.12,.33-.18,.54-.17,.44,0,.85,.39,1.07,.83,.25,.44,.41,.98,.42,1.56,.02,1.14-.51,2.24-1.32,2.51-.39,.12-.73,.02-.91-.11-.18-.13-.22-.26-.2-.27Z" style="fill:#6f4439;"></path><path d="M532.09,210.37l-1.46,1.47c-6.13-6.01-18.08-21.02-17.41-20.13,0,0,4.27-1.7,8.88-.86,4.61,.84,13.33,3.25,13.13,8.69-.2,5.44-3.14,10.82-3.14,10.82Z" style="fill:#263238;"></path></g><path d="M518.61,217.97c-.03,.14-.91,.06-1.94,.32-1.03,.24-1.83,.64-1.91,.51-.08-.11,.65-.75,1.8-1.02,1.15-.28,2.11,.06,2.06,.19Z" style="fill:#263238;"></path></g><g><path d="M532.23,229.6c.78-.24,9.66-3.08,14.49-3.26,4.82-.18,32.72,6.57,33.81,7.75s-.12,2.31-.12,2.31l-19.02,8.58-5.97,.62s7.13,24.34,7.85,29.75c.72,5.41,.99,10.46,.21,11.18-.78,.73-42.39,7.13-42.41,6.65-.02-.34,1.14-5.93,1.08-10.01-.03-1.96-1.1-4.06-1.1-4.06-6.58-1.98-16.58-20.63-18.13-24.7-1.55-4.07,.73-10.37,.73-10.37,0,0,11.84-7.65,12.49-7.55,.66,.09,9.53,13.44,9.53,13.44h0l6.56-20.33Z" style="fill:#FF725E;"></path><path d="M550.06,241.7c-.06,.03-.55-.7-1.26-1.93-.7-1.24-1.64-3-2.21-5.13-.57-2.14-.51-4.2-.13-5.6,.37-1.41,.93-2.14,.97-2.11,.08,.04-.35,.82-.61,2.19-.27,1.36-.27,3.33,.28,5.39,.55,2.06,1.42,3.82,2.03,5.09,.62,1.27,1,2.07,.94,2.1Z" style="fill:#263238;"></path><path d="M503.64,244.04s-3.2,2.66-3.56,3.55-6.87,28.67-6.87,28.67c0,0-12.43-.57-12.37,.04,.06,.6,7.44,14.98,7.44,14.98,0,0,6.66,6.36,14.07,1.36,.77-.52,8.98-27.52,8.98-27.52l-5.58-17.16-2.11-3.91Z" style="fill:#FF725E;"></path><path d="M500.79,249.47c.06-.03,.67,.98,1.59,2.63s2.16,3.96,3.5,6.52c1.34,2.56,2.53,4.89,3.36,6.59,.84,1.7,1.32,2.77,1.26,2.8-.06,.03-.66-.97-1.58-2.63-.92-1.66-2.16-3.96-3.5-6.53-1.34-2.56-2.53-4.9-3.37-6.6-.84-1.7-1.32-2.77-1.26-2.8Z" style="fill:#263238;"></path><path d="M507.99,251.65c.07,0,.21,1.26,.39,3.3,.2,2.04,.39,4.87,.96,7.93,.57,3.06,1.72,5.65,2.83,7.35,1.09,1.72,1.92,2.69,1.85,2.75-.03,.02-.25-.2-.64-.63-.39-.42-.93-1.07-1.51-1.92-1.21-1.68-2.45-4.34-3.03-7.46-.58-3.11-.71-5.95-.81-8-.09-2.05-.09-3.32-.02-3.33Z" style="fill:#263238;"></path><polygon points="474.68 264.83 493.21 276.26 488.28 291.27 470.88 269.46 474.68 264.83" style="fill:#ae7461;"></polygon></g><g><path d="M535.53,291.27l-13.08,2.03-.28,7.43s-34.89,43.85-35.92,49.01c-.67,3.35-15.05,63.21-15.05,63.21l20.12,4.04,24.3-72.41,25.07-37.91-5.16-15.39Z" style="fill:#263238;"></path><g><path d="M547.16,414.53l-19.79,3.94s-16.1-47.17-17.15-52.76c-1.22-6.49-3.48-9.81,.37-18.17,3.85-8.36,22.59-38.14,22.59-38.14l-.71-17.61,27.96-4.68,.35,.71c-.17,.5,14.55,10.96,6.53,28.53-9.38,20.54-31.17,38.01-31.17,41.53,0,0,.33,8.66,1.15,13.41,1.06,6.18,9.87,43.25,9.87,43.25Z" style="fill:#263238;"></path><path d="M534.07,308.67c.18,.08-1.4,3.13-4.17,7.9-2.77,4.78-6.67,11.33-11.19,18.45-2.28,3.55-4.52,6.87-6.25,10.07-.86,1.6-1.58,3.17-2.17,4.67-.54,1.51-.98,2.95-1.2,4.31-.5,2.7-.3,4.95,0,6.45,.28,1.51,.57,2.32,.51,2.34-.02,0-.09-.19-.22-.58-.11-.39-.36-.95-.49-1.72-.36-1.5-.63-3.79-.17-6.55,.2-1.38,.62-2.85,1.16-4.4,.58-1.53,1.29-3.12,2.15-4.74,1.72-3.24,3.96-6.59,6.23-10.13,4.51-7.11,8.46-13.63,11.31-18.36,1.38-2.33,2.51-4.24,3.33-5.62,.36-.63,.64-1.14,.87-1.55,.2-.35,.25-.55,.28-.55Z" style="fill:#455a64;"></path><path d="M557.72,298.55c0,.09-1.22,.13-3.17,.41-1.94,.28-4.61,.86-7.4,1.94-2.79,1.09-5.15,2.46-6.77,3.56-1.63,1.11-2.56,1.9-2.62,1.83-.02-.03,.19-.25,.59-.63,.4-.39,1.02-.9,1.81-1.5,1.59-1.2,3.96-2.64,6.79-3.75,2.84-1.1,5.56-1.63,7.54-1.82,.99-.1,1.79-.13,2.35-.11,.56,0,.86,.03,.86,.07Z" style="fill:#455a64;"></path></g><g><path d="M478.23,404.17l-3.13,16.73s-16.77,6.26-16.96,9.36l32.45-.07,.03-9.05,3.53-15.58-15.92-1.39Z" style="fill:#263238;"></path><path d="M485.13,419.47c.63,.17,1.06,.88,.92,1.51-.14,.63-.86,1.08-1.49,.92-.63-.16-1.18-.99-.97-1.6,.21-.61,1.08-1.1,1.66-.79" style="fill:#e0e0e0;"></path><path d="M490.59,430.19l-.09-2.63-31.07,1.05s-1.44,.63-1.28,1.65l32.45-.07Z" style="fill:#455a64;"></path><path d="M474.57,420.74c0,.16,.8,.23,1.58,.74,.79,.49,1.2,1.17,1.34,1.11,.15-.03-.09-.98-1.05-1.58-.95-.61-1.91-.42-1.87-.27Z" style="fill:#fff;"></path><path d="M471.17,422.15c-.04,.15,.65,.42,1.19,1.09,.56,.65,.7,1.38,.85,1.37,.15,.02,.26-.9-.43-1.72-.68-.82-1.61-.89-1.61-.74Z" style="fill:#fff;"></path><path d="M469.25,426.23c.14,.03,.36-.76-.05-1.63-.4-.87-1.15-1.21-1.22-1.08-.09,.13,.39,.59,.72,1.31,.34,.71,.39,1.38,.55,1.39Z" style="fill:#fff;"></path><path d="M475.64,417.71c.07,.14,.79-.08,1.69-.02,.9,.04,1.59,.34,1.68,.2,.09-.11-.59-.7-1.65-.75-1.06-.06-1.8,.44-1.72,.57Z" style="fill:#fff;"></path></g><g><path d="M528.57,407.46l4.4,16.13s-14.92,9.9-14.4,12.96l31.59-7.42-5.83-25.42-15.77,3.75Z" style="fill:#263238;"></path><path d="M542.42,419.94c.65,.02,1.23,.61,1.24,1.26,0,.65-.59,1.25-1.24,1.24-.65-.01-1.37-.7-1.3-1.34,.07-.65,.8-1.31,1.43-1.14" style="fill:#e0e0e0;"></path><path d="M550.17,429.14l-.69-2.54-30.03,8.06s-1.26,.94-.87,1.9l31.59-7.42Z" style="fill:#455a64;"></path><path d="M532.42,423.56c.04,.15,.83,.04,1.7,.36,.88,.3,1.43,.87,1.56,.78,.13-.06-.31-.93-1.38-1.3-1.06-.38-1.95,.03-1.89,.16Z" style="fill:#fff;"></path><path d="M529.43,425.71c0,.16,.73,.26,1.41,.79,.69,.51,.99,1.18,1.14,1.14,.15,0,.05-.94-.81-1.58-.85-.65-1.77-.5-1.74-.35Z" style="fill:#fff;"></path><path d="M528.48,430.11c.15,0,.18-.82-.41-1.57-.59-.76-1.39-.92-1.43-.77-.06,.15,.52,.49,1,1.12,.49,.61,.69,1.25,.85,1.23Z" style="fill:#fff;"></path><path d="M531.83,419.77c.1,.13,.76-.25,1.64-.4,.88-.16,1.63-.03,1.68-.18,.06-.13-.73-.55-1.77-.36-1.04,.18-1.65,.84-1.55,.94Z" style="fill:#fff;"></path></g></g></g><g><path d="M608.71,303.28c-.79,.79-5.34,6.06-6.22,12.9-.88,6.85,.36,16.85,0,20.8-.36,3.95-6.68,27.91-6.68,27.91,0,0-30.58,50.87-30.31,51.66,.26,.79,18.43,9.74,18.43,9.74,0,0,28.25-41.81,32.72-50.23,4.48-8.43,20.5-42.74,20.5-42.74l29.99,28.51,5.17,55.14,22.49-1.02s-5.38-56.04-7.49-61.83c-2.11-5.79-26.99-36.63-26.99-36.63l-51.61-14.22Z" style="fill:#263238;"></path><g><path d="M587.08,410.59l-7.32,10.96-.1,1.7s16.62,6.65,16.73,9.76l-32.44-.83,.16-7.6,6.19-16.48,16.78,2.5Z" style="fill:#263238;"></path><path d="M569.66,421.58c-.63,.16-1.08,.85-.95,1.49s.83,1.1,1.47,.96c.63-.14,1.2-.96,1-1.58-.2-.62-1.05-1.12-1.64-.83" style="fill:#e0e0e0;"></path><path d="M563.95,432.17l.16-2.63,31.04,1.78s1.43,.67,1.24,1.68l-32.44-.83Z" style="fill:#455a64;"></path><path d="M580.19,423.09c0,.16-.8,.21-1.6,.7-.81,.47-1.22,1.14-1.37,1.08-.14-.03,.12-.98,1.09-1.55,.96-.58,1.92-.37,1.88-.23Z" style="fill:#fff;"></path><path d="M583.55,424.59c.03,.15-.66,.41-1.22,1.06-.57,.64-.73,1.36-.89,1.35-.15,.02-.24-.91,.47-1.71,.7-.81,1.63-.85,1.63-.7Z" style="fill:#fff;"></path><path d="M585.38,428.71c-.14,.03-.34-.77,.08-1.62,.42-.86,1.18-1.18,1.24-1.05,.09,.13-.41,.59-.75,1.29-.36,.7-.42,1.37-.58,1.38Z" style="fill:#fff;"></path></g><g><path d="M692.58,403.41l-.64,16.71s16.77,6.26,16.96,9.36l-32.45-.07-.08-26.08,16.2,.08Z" style="fill:#263238;"></path><path d="M681.91,418.7c-.63,.17-1.06,.88-.92,1.51,.14,.63,.86,1.08,1.49,.92,.63-.16,1.18-.99,.97-1.6-.21-.61-1.08-1.1-1.66-.79" style="fill:#e0e0e0;"></path><path d="M676.45,429.42l.09-2.63,31.07,1.05s1.44,.63,1.28,1.65l-32.45-.07Z" style="fill:#455a64;"></path><path d="M692.47,419.96c0,.16-.8,.23-1.58,.74-.79,.49-1.2,1.17-1.34,1.11-.15-.03,.09-.98,1.05-1.58,.95-.61,1.91-.42,1.87-.27Z" style="fill:#fff;"></path><path d="M695.87,421.38c.04,.15-.65,.42-1.19,1.09-.56,.65-.7,1.38-.85,1.37-.15,.02-.26-.9,.43-1.72,.68-.82,1.61-.89,1.61-.74Z" style="fill:#fff;"></path><path d="M697.79,425.45c-.14,.03-.36-.76,.05-1.63,.4-.87,1.15-1.21,1.22-1.08,.09,.13-.39,.59-.72,1.31-.34,.71-.39,1.38-.55,1.39Z" style="fill:#fff;"></path></g></g><path d="M306.26,259.22s-2.15-.49-5.26-1.5c-3.12-1.01-5.44,.36-7.67,1.21-2.24,.85-6.61,4.67-4.61,5.1,2,.43,3.01-.33,3.01-.33,0,0-.55,1.45,1,2.49s12.87,4.95,12.87,4.95l.66-11.93Z" style="fill:#ffbf9d;"></path><path d="M698.23,253.56c0,.24,.71,2.61,.79,3.08s-.08,9.02,.4,10.6,1.03,4.51,1.03,4.51l-2.77,1.66,5.93,8.7s5.14-5.06,6.33-7.2,3.32-8.94,3.4-10.28c.08-1.34-7.44-9.33-8.54-9.57s-2.06,.08-2.06,.08c0,0-2.29-2.61-3.32-2.61s-1.19,1.03-1.19,1.03Z" style="fill:#ffbf9d;"></path><g><g><path d="M660.28,232.8l-.4-32.73c-.36-8.14,4.07-15.13,12.21-15.27l.75,.03c7.58,.31,13.66,6.39,13.95,13.98,.28,7.06,.49,14.85,.29,18.62-.42,7.81-8.28,8.7-8.28,8.7-.02,0-.05,4.75-.04,7.05l1.83,5.36-12.32,3.02-8-8.75Z" style="fill:#ffbf9d;"></path><path d="M678.81,226.13s-4.93,.09-10.04-3.43c0,0,2.2,5.97,10.03,5.59l.02-2.16Z" style="fill:#ff9a6c;"></path><path d="M677.15,211.38c0-.07,.75-.17,1.96-.27,.31-.02,.6-.07,.66-.27,.08-.22-.03-.55-.17-.92-.26-.75-.53-1.54-.81-2.37-1.12-3.37-1.92-6.14-1.78-6.19,.14-.04,1.16,2.66,2.28,6.03,.27,.83,.53,1.62,.77,2.38,.1,.35,.28,.76,.11,1.21-.09,.23-.32,.38-.52,.43-.2,.05-.37,.05-.52,.05-1.22,.02-1.97-.01-1.98-.08Z" style="fill:#263238;"></path><path d="M660.28,205.88c-.13-.06-5.3-1.81-5.35,3.54-.05,5.35,5.33,4.29,5.34,4.14,.01-.15,.01-7.68,.01-7.68Z" style="fill:#ffbf9d;"></path><path d="M658.66,211.52s-.09,.06-.25,.14c-.15,.07-.42,.11-.7,0-.56-.21-1.03-1.11-1.05-2.08,0-.49,.1-.95,.27-1.33,.17-.39,.42-.66,.71-.71,.28-.06,.48,.11,.55,.26,.07,.15,.04,.26,.06,.27,.01,.01,.12-.09,.07-.31-.02-.11-.08-.23-.21-.34-.13-.11-.32-.16-.51-.14-.41,.02-.79,.4-.98,.82-.22,.42-.35,.94-.34,1.49,.02,1.08,.57,2.09,1.34,2.32,.38,.1,.69,0,.85-.13,.17-.13,.2-.25,.18-.26Z" style="fill:#ff9a6c;"></path><path d="M690,196.41c-3.35,.52-6.79,.27-9.47-1.81-.77-.6-1.49-1.28-2.14-2.03-1.19-1.35-2.11-3.03-3.71-3.84-2.06-1.05-4.54-.33-6.74,.4l.09-.08c-1.14,.51-2.19,1.25-3.05,2.15,.53,5.15-.28,10.44-2.35,15.19-.17,.39-.48,.71-.88,.87-1.25,.5-.86-1.17-1.79-1.49-.71-.25-1.06-.1-2.48-.14-.49-1.34-.78-5-1.2-6.98-1.17-1.24-2.25-3.54-2.3-5.33-.04-1.8,.95-4.08,.95-4.08,1.36-2.57,2.14-3.89,4.22-4.6l.05,.02c1.87-.73,4.16-.71,5.67,.6,.41-2.78,2.88-4.96,5.61-5.65,2.73-.68,7.09-.21,9.69,.87,1.77,.74,3.49,2.14,5.48,4.16h0c.26,.27,.53,.55,.81,.84,.02,.02,.04,.05,.07,.08,.58,.37,1.29,.54,2.03,.62,1.19,.13,1.93-.24,2.73-1.12,.25-.27,.55-.61,.9-.49,.22,.07,.34,.3,.41,.52,.38,1.16-.13,2.47-1,3.33-.42,.41-.92,.73-1.45,.99,0,0,.79,.98,2.15,1.2,.73,.12,1.39,.54,1.81,1.16,.2,.3,.35,.65,.35,1.04,0,2.25-2.25,3.28-4.43,3.62Z" style="fill:#263238;"></path><path d="M691.44,194.07s-.02,.02-.06,.05c-.05,.04-.12,.08-.2,.14-.09,.06-.2,.14-.33,.21-.14,.08-.29,.17-.48,.25-.73,.34-1.9,.67-3.36,.56-1.44-.1-3.17-.63-4.7-1.8-1.55-1.14-2.9-2.81-4-4.72-.56-.95-1.01-1.93-1.51-2.83-.5-.9-1.05-1.74-1.72-2.4-.66-.67-1.44-1.16-2.24-1.39-.4-.12-.8-.16-1.19-.15-.39,.02-.75,.09-1.09,.2-.68,.22-1.23,.59-1.64,.96-.42,.38-.7,.79-.9,1.14-.36,.72-.39,1.18-.42,1.17,0,0,0-.03,0-.08,.01-.06,.02-.14,.04-.24,.04-.21,.13-.51,.31-.88,.19-.36,.47-.78,.89-1.18,.42-.39,.98-.78,1.67-1.01,.35-.11,.73-.19,1.13-.21,.4,0,.82,.02,1.24,.15,.83,.23,1.63,.74,2.32,1.42,.69,.68,1.26,1.53,1.76,2.43,.51,.91,.96,1.88,1.51,2.83,1.09,1.89,2.43,3.55,3.95,4.68,1.51,1.16,3.19,1.69,4.61,1.8,1.43,.12,2.59-.19,3.32-.5,.74-.32,1.09-.6,1.1-.58Z" style="fill:#455a64;"></path><path d="M692.19,190.64s-.09,.08-.28,.19c-.19,.12-.47,.26-.84,.41-.36,.16-.81,.3-1.32,.42-.51,.11-1.08,.19-1.68,.2-.6,0-1.18-.05-1.69-.13-.51-.1-.97-.22-1.34-.36-.37-.14-.66-.27-.85-.38-.19-.11-.3-.17-.29-.18,.02-.03,.45,.2,1.18,.44,.37,.12,.82,.23,1.32,.32,.51,.08,1.07,.13,1.66,.12,.59-.02,1.15-.09,1.65-.19,.5-.11,.95-.24,1.31-.37,.73-.27,1.15-.51,1.17-.48Z" style="fill:#455a64;"></path><path d="M662.28,194.71s.05,.18,.07,.5c.02,.33,.03,.8-.03,1.4-.04,.3-.04,.61-.16,.99-.06,.18-.27,.41-.54,.39-.26-.02-.44-.16-.59-.29-.59-.55-1.23-1.14-1.91-1.77l.28-.16c.09,.37,.18,.75,.28,1.15,.25,1.08,.49,2.1,.71,3.04l.12,.51-.38-.36c-1.01-.95-1.7-1.91-2.12-2.61-.42-.71-.6-1.15-.57-1.17,.08-.06,.9,1.71,2.91,3.55l-.26,.15c-.23-.94-.48-1.96-.74-3.03-.09-.39-.18-.78-.27-1.15l-.13-.56,.41,.39c.67,.64,1.3,1.24,1.88,1.79,.13,.12,.28,.23,.41,.23,.12,0,.22-.07,.28-.21,.1-.28,.14-.63,.19-.91,.16-1.16,.13-1.87,.18-1.87Z" style="fill:#455a64;"></path></g><g><path d="M682.06,205.55c0,.6-.51,1.1-1.13,1.11-.62,0-1.12-.47-1.12-1.08,0-.6,.51-1.1,1.13-1.11,.62,0,1.12,.47,1.12,1.08Z" style="fill:#263238;"></path><path d="M684.48,202.18c-.15,.14-.97-.53-2.18-.58-1.21-.07-2.12,.53-2.25,.37-.06-.07,.09-.33,.49-.6,.39-.27,1.05-.52,1.81-.48,.75,.04,1.38,.34,1.73,.65,.36,.31,.48,.58,.4,.64Z" style="fill:#263238;"></path><path d="M671.02,205.55c0,.6-.51,1.1-1.13,1.11-.62,0-1.12-.47-1.12-1.08,0-.6,.51-1.1,1.13-1.11,.62,0,1.12,.47,1.12,1.08Z" style="fill:#263238;"></path><path d="M672.59,201.97c-.15,.14-.97-.53-2.18-.58-1.21-.06-2.12,.53-2.25,.37-.06-.07,.09-.33,.49-.6,.39-.27,1.05-.52,1.81-.48,.75,.04,1.38,.34,1.73,.65,.36,.31,.48,.58,.4,.64Z" style="fill:#263238;"></path><path d="M673.14,199.33c-.18,.31-1.34-.07-2.77-.16-1.43-.12-2.63,.08-2.76-.25-.06-.16,.2-.43,.71-.66,.51-.23,1.29-.4,2.14-.34,.86,.06,1.6,.34,2.07,.65,.48,.31,.69,.61,.61,.76Z" style="fill:#263238;"></path><path d="M684.71,197.42c-.11,.36-1.13,.52-2.21,1.01-1.09,.46-1.9,1.1-2.24,.94-.15-.08-.13-.41,.16-.83,.28-.42,.84-.93,1.59-1.25,.75-.33,1.5-.4,1.99-.32,.5,.08,.75,.28,.71,.45Z" style="fill:#263238;"></path></g><path d="M678.8,215.25c-.1,.11-.78-.42-1.77-.74-.98-.34-1.85-.43-1.84-.58,0-.13,.92-.29,2.01,.09,1.1,.37,1.71,1.14,1.6,1.23Z" style="fill:#263238;"></path></g><g><g><path d="M297.98,404.93l-2.43,15.86s-16.77,6.26-16.96,9.36l32.45-.07,2.11-25.24-15.17,.08Z" style="fill:#263238;"></path><path d="M305.58,419.36c.63,.17,1.06,.88,.92,1.51-.14,.63-.86,1.08-1.49,.92-.63-.16-1.18-.99-.97-1.6,.21-.61,1.08-1.1,1.66-.79" style="fill:#e0e0e0;"></path><path d="M311.04,430.08l-.09-2.63-31.07,1.05s-1.44,.63-1.28,1.65l32.45-.07Z" style="fill:#455a64;"></path><path d="M295.02,420.63c0,.16,.8,.23,1.58,.74,.79,.49,1.2,1.17,1.34,1.11,.15-.03-.09-.98-1.05-1.58-.95-.61-1.91-.42-1.87-.27Z" style="fill:#fff;"></path><path d="M291.62,422.04c-.04,.15,.65,.42,1.19,1.09,.56,.65,.7,1.38,.85,1.37,.15,.02,.26-.9-.43-1.72-.68-.82-1.61-.89-1.61-.74Z" style="fill:#fff;"></path><path d="M289.7,426.12c.14,.03,.36-.76-.05-1.63-.4-.87-1.15-1.21-1.22-1.08-.09,.13,.39,.59,.72,1.31,.34,.71,.39,1.38,.55,1.39Z" style="fill:#fff;"></path></g><g><path d="M407.86,212.96c1.58-2.91,3.16-5.84,4.22-8.97,1.06-3.13,1.59-6.51,1.03-9.77-.09-.49-.97-3.87-1.47-3.91-.36-.03,0,3.03-.23,3.3-2.24,2.59-3.35,6-3.71,9.4-.36,3.4-.22,6.55,.16,9.95" style="fill:#263238;"></path><path d="M400.92,183.14l-.76-.1c-7.67-1.01-14.83,4.03-16.45,11.59-1.51,7.03-3.1,14.82-3.55,18.64-.95,7.91,6.79,10.18,6.79,10.18,.02,0-1.88,8.21-1.88,8.21l8.23,1.66,9.93-1.01,7.28-31.7c1.79-8.1-1.43-15.9-9.58-17.47Z" style="fill:#ffbf9d;"></path><path d="M386.99,222.82s4.63,.89,10.01-1.57c0,0-3.23,5.51-10.53,3.86l.52-2.29Z" style="fill:#ff9a6c;"></path><path d="M384.93,202.3c-.1,.59,.32,1.17,.94,1.28,.62,.12,1.2-.27,1.3-.86,.1-.59-.32-1.17-.94-1.28-.62-.12-1.2,.27-1.3,.86Z" style="fill:#263238;"></path><path d="M384.92,198.33c.12,.17,1.06-.35,2.27-.19,1.21,.15,2.02,.89,2.17,.76,.07-.06-.03-.34-.38-.68-.34-.33-.96-.69-1.72-.79-.76-.1-1.43,.1-1.83,.33-.41,.24-.57,.49-.51,.56Z" style="fill:#263238;"></path><path d="M395.54,204.22c-.1,.59,.32,1.17,.94,1.28,.62,.12,1.2-.27,1.3-.86,.1-.59-.32-1.17-.94-1.28-.62-.12-1.2,.27-1.3,.86Z" style="fill:#263238;"></path><path d="M396.78,200.19c.12,.17,1.06-.35,2.27-.19,1.21,.15,2.02,.89,2.17,.76,.07-.06-.03-.34-.38-.68-.34-.33-.96-.69-1.72-.79-.76-.1-1.43,.1-1.83,.33-.41,.24-.57,.49-.51,.56Z" style="fill:#263238;"></path><path d="M391.2,208.93c.01-.07-.72-.3-1.92-.62-.31-.07-.59-.17-.61-.39-.04-.23,.13-.55,.33-.89,.39-.71,.8-1.46,1.23-2.24,1.72-3.19,3-5.83,2.87-5.9-.13-.07-1.63,2.46-3.34,5.65-.42,.79-.81,1.54-1.19,2.26-.16,.34-.42,.71-.32,1.19,.05,.24,.26,.44,.45,.52,.19,.09,.36,.11,.52,.14,1.22,.23,1.98,.34,2,.27Z" style="fill:#263238;"></path><path d="M396.27,198.16c.21,.28,1.33-.23,2.76-.49,1.42-.29,2.65-.23,2.74-.58,.04-.16-.25-.4-.79-.57-.54-.17-1.34-.24-2.19-.08-.85,.17-1.56,.53-2,.89-.44,.36-.62,.69-.52,.82Z" style="fill:#263238;"></path><path d="M385.39,195.78c.11,.36,1.13,.54,2.21,1.06,1.1,.48,1.9,1.14,2.24,.98,.15-.08,.13-.4-.15-.83-.28-.43-.84-.94-1.59-1.28-.75-.34-1.5-.43-2-.36-.51,.07-.76,.27-.72,.44Z" style="fill:#263238;"></path><path d="M409.09,206.37c.14-.04,5.64-.89,4.75,4.49-.89,5.38-6.64,3.47-6.63,3.32,.02-.16,1.88-7.8,1.88-7.8Z" style="fill:#ffbf9d;"></path><path d="M409.73,212.31s.08,.08,.23,.18c.14,.1,.4,.19,.7,.13,.6-.11,1.23-.94,1.41-1.9,.09-.49,.07-.97-.04-1.38-.1-.42-.31-.74-.59-.83-.27-.11-.5,.03-.59,.17-.1,.14-.08,.25-.11,.26-.02,.01-.1-.11-.02-.32,.04-.1,.12-.22,.27-.3,.15-.08,.34-.11,.54-.05,.41,.1,.72,.54,.84,.99,.14,.46,.18,1,.08,1.55-.21,1.08-.93,2-1.75,2.1-.39,.04-.69-.13-.83-.28-.14-.16-.15-.28-.13-.29Z" style="fill:#ff9a6c;"></path><path d="M388.73,186.34c-.79-.63,2.31-2.99,4.61-3.59,3.48-.9,8.56-.95,11.39,.41,3.4,1.64,6.07,3.94,7.3,7.51,1.23,3.57,1.25,7.49,.49,11.19-.23,1.13-.55,2.29-1.33,3.15-.96,1.06-2.52,1.55-2.75,3.2-.08,.6-.36,1.18-.84,1.54-1.16,.87-2.19-.32-2.58-1.4-.81-2.31-.51-4.84-.19-7.27,.22-1.72,.46-3.49,1.23-5.05,.42-.85,.99-1.62,1.36-2.49,.37-.87,.52-1.91,.09-2.75-.07-.14-.2-.31-.36-.52-1.29-1.6-3.35-2.37-5.37-2.02-3.21,.54-8.65,1.24-9.82-.02-1.68-1.81-1.98-2.86-1.98-2.86l-1.26,.94Z" style="fill:#263238;"></path><path d="M394.99,211.3c-.03,.14-.89,.06-1.9,.3-1.01,.23-1.8,.61-1.88,.48-.08-.11,.64-.73,1.77-.99,1.13-.27,2.06,.08,2.01,.21Z" style="fill:#263238;"></path></g><g><path d="M440.2,398.79l5.91,20.81,9.42,15.11c.68,1.09,.29,2.53-.84,3.13h0c-.63,.34-1.39,.35-2.03,.03-4.09-2.05-19.1-9.67-19.44-11.22-.4-1.79-7.7-21.54-7.7-21.54l14.67-6.33Z" style="fill:#263238;"></path><path d="M454.7,437.84l-21.9-12.58,.27,.88c.23,.76,.73,1.41,1.39,1.83,1.79,1.14,6.8,4.17,18.15,9.92,.66,.33,1.45,.32,2.09-.05h0Z" style="fill:#455a64;"></path><g style="opacity:.6;"><path d="M434.98,417.28c.63,.2,1.04,.93,.87,1.57-.17,.64-.91,1.06-1.54,.87-.63-.19-1.15-1.05-.91-1.66,.24-.61,1.14-1.06,1.71-.73" style="fill:#fff;"></path></g><path d="M447.18,430.27c.13,.02,.27-1.21,1.32-2.17,1.02-.99,2.25-1.06,2.24-1.19,0-.06-.31-.14-.81-.05-.5,.08-1.18,.36-1.75,.9-.57,.54-.89,1.2-1,1.7-.11,.5-.05,.81,0,.82Z" style="fill:#fff;"></path><path d="M449.51,432.58c.13,.06,.58-.82,1.56-1.45,.96-.66,1.94-.75,1.94-.88,.03-.12-1.1-.25-2.2,.49-1.11,.73-1.42,1.83-1.29,1.85Z" style="fill:#fff;"></path><path d="M443.35,427.57c.13,.07,.82-1.28,2.25-2.41,1.41-1.15,2.88-1.52,2.85-1.66,0-.12-1.62,.07-3.14,1.29-1.53,1.21-2.07,2.75-1.95,2.78Z" style="fill:#fff;"></path><path d="M441.02,421.39c.09,.11,1.09-.72,2.56-1.24,1.46-.53,2.76-.52,2.76-.66,.03-.12-1.35-.35-2.92,.21-1.58,.55-2.49,1.61-2.4,1.68Z" style="fill:#fff;"></path><path d="M439.13,415.33c.1,.1,1.04-.94,2.63-1.36,1.58-.45,2.92-.02,2.95-.16,.02-.05-.29-.24-.85-.37-.56-.13-1.38-.16-2.23,.07-.85,.23-1.55,.67-1.96,1.07-.42,.39-.59,.71-.54,.75Z" style="fill:#fff;"></path><path d="M441.36,412.83s-.01-.3-.21-.79c-.2-.49-.57-1.18-1.25-1.86-.34-.32-.73-.74-1.39-.83-.33-.05-.74,.14-.9,.49-.16,.34-.13,.7-.04,1.03,.43,1.31,1.95,2.23,3.48,1.96,1.53-.3,2.61-1.56,2.85-2.87,.04-.33,.02-.72-.25-1.02-.27-.3-.73-.31-1.01-.17-.59,.28-.86,.75-1.14,1.13-.54,.79-.79,1.53-.91,2.04-.12,.51-.12,.81-.1,.81,.09,.03,.21-1.18,1.28-2.66,.28-.35,.59-.78,1.02-.96,.21-.09,.42-.06,.55,.09,.13,.14,.17,.42,.13,.68-.21,1.08-1.2,2.23-2.5,2.46-1.29,.24-2.62-.57-2.98-1.62-.08-.25-.09-.53,0-.72,.09-.19,.28-.29,.49-.28,.45,.04,.86,.39,1.19,.68,1.34,1.25,1.61,2.45,1.7,2.4Z" style="fill:#fff;"></path></g><g><path d="M411.03,324.5s26.21,44.38,28.32,48.79c2.11,4.41,9,46.8,8.1,46.8s-18.68,4.41-18.68,4.41l-9.91-46.21s-19.28-21.75-23.8-26.45c-4.52-4.7-16.27-15.56-18.38-14.98-2.11,.58-41.87,27.03-45.19,34.38-3.31,7.35-19.28,50.26-19.28,50.26l-18.98-3.82s13.25-52.02,18.07-59.96c4.82-7.94,33.44-35.56,33.44-35.56l6.93-14.4,51.21-2.35,8.13,19.1Z" style="fill:#263238;"></path><path d="M411.03,324.5s-.19-.41-.55-1.23c-.36-.83-.89-2.05-1.58-3.66-1.39-3.23-3.44-8-6.09-14.18l.09,.06c-12.19,.58-29.65,1.4-51.21,2.43l.15-.1c-2.16,4.51-4.49,9.36-6.91,14.41v.03l-.04,.02c-5.58,5.42-11.4,11.21-17.4,17.38-2.99,3.09-6.03,6.28-9.04,9.61-1.5,1.67-3,3.37-4.44,5.15-.7,.9-1.44,1.79-2.06,2.75-.16,.24-.33,.47-.48,.72l-.39,.77c-.25,.52-.54,1.01-.74,1.56-1.78,4.3-3.23,8.85-4.67,13.47-1.43,4.63-2.81,9.36-4.17,14.18-2.72,9.63-5.39,19.6-8.03,29.85l-.19-.31c5.97,1.2,12.43,2.5,18.98,3.82l-.29,.16c3.43-9.13,6.95-18.48,10.53-28,1.81-4.76,3.64-9.55,5.53-14.37,.95-2.41,1.89-4.83,2.93-7.23,.24-.59,.55-1.23,.95-1.76,.38-.56,.82-1.04,1.25-1.55,.9-.96,1.83-1.9,2.81-2.78,3.61-3.28,7.42-6.26,11.25-9.16,3.83-2.89,7.71-5.67,11.59-8.38,3.88-2.71,7.77-5.34,11.68-7.88,.98-.63,1.96-1.25,2.94-1.87,1.01-.61,1.93-1.23,3.06-1.76,.33-.14,.74-.05,1.01,.05,.3,.1,.56,.23,.83,.37,.52,.28,1.02,.59,1.49,.92,.96,.65,1.87,1.36,2.77,2.07,3.57,2.88,6.92,5.96,10.15,9.09,.8,.79,1.6,1.58,2.38,2.38,.75,.83,1.5,1.66,2.24,2.48,1.49,1.65,2.97,3.3,4.44,4.93,5.88,6.54,11.64,12.94,17.25,19.18l.04,.05v.06c3.51,16.33,6.81,31.76,9.9,46.22l-.26-.16c4.52-1.09,8.94-2.17,13.25-3.21,1.08-.25,2.16-.5,3.23-.75,.54-.12,1.07-.24,1.61-.34,.13-.03,.27-.05,.42-.07,.05,0,.2-.02,.17-.02-.16,.09-.08,.09-.1,.06v-.07c.03-.24,.02-.52,0-.78-.15-2.15-.46-4.27-.74-6.36-1.18-8.36-2.51-16.26-3.85-23.66-.68-3.7-1.36-7.27-2.12-10.69-.4-1.7-.75-3.41-1.35-4.95-.75-1.49-1.57-2.94-2.37-4.35-3.19-5.65-6.19-10.8-8.89-15.45-5.41-9.28-9.66-16.56-12.55-21.53-1.44-2.48-2.55-4.37-3.3-5.66-.74-1.28-1.11-1.95-1.11-1.95,0,0,.41,.65,1.17,1.92,.76,1.28,1.89,3.17,3.35,5.63,2.92,4.95,7.2,12.21,12.66,21.47,2.71,4.64,5.72,9.78,8.94,15.43,.8,1.42,1.62,2.85,2.39,4.37,.63,1.61,.98,3.29,1.38,5,.77,3.43,1.46,7,2.15,10.7,1.36,7.4,2.7,15.29,3.89,23.66,.28,2.1,.59,4.21,.75,6.39,.01,.28,.03,.54,0,.85,0,.04,0,.08-.02,.13-.03,.04,.03,.11-.19,.23l-.24,.04c-.12,.01-.25,.04-.38,.07-.53,.1-1.06,.22-1.6,.34-1.07,.25-2.14,.5-3.22,.75-4.31,1.05-8.73,2.13-13.25,3.23l-.22,.05-.05-.22c-3.11-14.45-6.42-29.88-9.93-46.21l.05,.11c-5.61-6.23-11.37-12.62-17.25-19.16-1.47-1.63-2.95-3.28-4.44-4.93-.74-.82-1.49-1.65-2.24-2.48-.77-.8-1.57-1.59-2.37-2.37-3.22-3.12-6.56-6.19-10.11-9.05-.89-.71-1.8-1.41-2.74-2.05-.47-.32-.95-.62-1.45-.89-.48-.24-1.05-.53-1.43-.38-.97,.46-1.98,1.11-2.95,1.71-.98,.62-1.95,1.25-2.94,1.87-3.9,2.54-7.78,5.17-11.66,7.88-3.87,2.71-7.74,5.49-11.57,8.37-3.82,2.89-7.63,5.86-11.21,9.12-.97,.88-1.89,1.8-2.77,2.75-.87,.98-1.65,1.95-2.11,3.17-1.03,2.38-1.97,4.81-2.92,7.21-1.86,4.83-3.7,9.62-5.53,14.36-3.58,9.52-7.1,18.87-10.54,28l-.08,.2-.21-.04c-6.55-1.32-13.01-2.62-18.98-3.83l-.26-.05,.07-.25c2.64-10.26,5.32-20.23,8.05-29.86,1.36-4.82,2.75-9.55,4.19-14.18,1.44-4.63,2.89-9.17,4.7-13.51,.2-.55,.51-1.06,.76-1.6l.4-.79c.15-.25,.33-.49,.49-.73,.64-.99,1.37-1.88,2.08-2.78,1.45-1.79,2.96-3.49,4.46-5.16,3.02-3.33,6.07-6.52,9.06-9.61,6.01-6.17,11.85-11.95,17.44-17.37l-.04,.05c2.43-5.04,4.77-9.89,6.94-14.39l.05-.09h.1c21.57-.96,39.02-1.74,51.22-2.28h.07l.03,.06c2.61,6.19,4.63,10.97,6,14.21,.67,1.61,1.19,2.84,1.54,3.68,.34,.83,.51,1.26,.51,1.26Z" style="fill:#455a64;"></path></g><g><path d="M337.6,258.03s10.9-10.65,11.77-11.04c.86-.39,3.06,.26,2.99-.33-.07-.58,8.32-16.51,8.32-16.51l3.45,29.28-19.84,13.48c-1.26,.89-2.79,1.33-4.33,1.24l-34.56,.51,.92-16.51,31.27-.13Z" style="fill:#455a64;"></path><path d="M337.92,265.38c-.14,0-.34-1.6-.43-3.6-.1-2-.06-3.62,.09-3.62,.14,0,.34,1.6,.43,3.6,.1,1.99,.06,3.62-.09,3.62Z" style="fill:#263238;"></path><g style="opacity:.3;"><path d="M359.11,245.79s-4.27,10.53,1.14,22.14l-1.14-22.14Z"></path></g><path d="M359.11,239.62s.09,.46,.15,1.3c.06,.94,.14,2.14,.23,3.56,.17,3.01,.37,7.17,.55,11.76,.27,6.64,.44,12.37,.46,14.99h-.22c.02-1.07,.06-1.65,.1-1.65,.04,0,.08,.57,.13,1.65h-.22c-.19-2.61-.49-8.34-.75-14.98-.19-4.59-.32-8.75-.4-11.77-.02-1.43-.05-2.62-.06-3.57,0-.84,.01-1.31,.05-1.31Z" style="fill:#263238;"></path></g><g><path d="M385.23,227.51l.87-2.34,6.38,4.59,13.24-5.62,.44,1.01-2.45,35.21-15.81,20.07s-9.76,4.55-9.76,4.03-5.33-29.63-5.19-29.11c.13,.52,12.28-27.85,12.28-27.85Z" style="fill:#fff;"></path><path d="M390.92,237.54l-9.84,32.26c1.08,4.14,2.48,8.17,4.15,12.1,2.33-3.68,4.76-8.1,7.26-12.93l1.69-31.44h-3.25Z" style="fill:#FF725E;"></path><path d="M406.16,225.16l5.12,5.58,17.33,6.17-19.22,54.97,10.19,38.69s-17.94,9.21-24.57,5.39c-6.63-3.82-13.86-23.81-13.86-23.81,0,0-12.05,25.8-18.38,24.66-6.33-1.14-21.39-12.31-21.39-12.31l18.68-40.56,.6-53.78,24.55-2.65s-6.78,19.4-6.18,30.57,6.18,23.83,6.18,23.83c0,0,13.1-20.6,16.12-36.47s4.82-20.28,4.82-20.28Z" style="fill:#455a64;"></path><g style="opacity:.3;"><path d="M383.19,279.22c-5.02-4.94-9.22-10.85-11.49-17.52-2.27-6.67-2.52-14.15,.04-20.71,0,0-.52,13.45,2.35,20.05,2.87,6.6,9.09,18.18,9.09,18.18Z"></path></g><path d="M385.23,227.51s-.05,.06-.17,.15c-.12,.09-.31,.21-.57,.36-.51,.29-1.29,.66-2.28,1.15-.98,.49-2.21,1.07-3.45,1.98-.6,.46-1.24,1.01-1.6,1.76-.39,.74-.25,1.67,.28,2.44l.18,.27-.33,.05c-.7,.11-1.45,.12-2.18,.06-.68-.03-1.39,.22-1.9,.73-.26,.25-.46,.56-.6,.9-.14,.33-.17,.73-.23,1.14-.1,.81-.27,1.63-.33,2.48-.32,3.39-.19,7.09,.4,10.88,1.41,9,4.7,16.71,7.58,21.9,.68,1.33,1.44,2.45,2.03,3.48,.65,.97,1.21,1.82,1.68,2.53,.46,.64,.84,1.16,1.12,1.56,.25,.36,.38,.56,.36,.57-.01,.01-.17-.16-.45-.5l-1.21-1.51c-.5-.67-1.08-1.52-1.76-2.49-.61-1.02-1.4-2.13-2.1-3.46-2.99-5.18-6.35-12.92-7.78-22.01-.59-3.82-.72-7.57-.37-11.01,.06-.86,.24-1.69,.35-2.51,.07-.4,.1-.82,.27-1.23,.16-.4,.41-.76,.71-1.06,.6-.6,1.45-.89,2.24-.84,.74,.07,1.43,.06,2.1-.03l-.14,.32c-.27-.43-.48-.91-.53-1.41-.06-.5,.05-1,.26-1.42,.43-.84,1.11-1.4,1.74-1.87,1.3-.91,2.55-1.46,3.55-1.92,1.01-.45,1.8-.79,2.33-1.04,.53-.25,.78-.43,.79-.41Z" style="fill:#263238;"></path><path d="M408.19,227.51s.14,.23,.45,.63c.3,.41,.78,.98,1.38,1.73,.59,.76,1.34,1.69,1.91,2.97,.28,.63,.52,1.38,.43,2.2-.06,.82-.51,1.63-1.16,2.24l-.03-.31c.3,.18,.63,.34,.98,.46,.32,.11,.79,.18,1.13,.49,.7,.58,.94,1.55,.84,2.44-.36,1.72-.86,3.45-1.52,5.25-1.31,3.58-3.18,7.32-5.42,11.05-4.82,7.97-10.26,14.46-14.55,18.79-1.05,1.1-2.08,2.02-2.95,2.86-.9,.81-1.7,1.48-2.34,2.04-.64,.49-1.16,.89-1.56,1.19-.36,.27-.55,.4-.56,.39-.01-.01,.16-.18,.5-.47,.38-.32,.88-.74,1.49-1.26,.64-.59,1.4-1.29,2.28-2.09,.85-.85,1.86-1.79,2.89-2.9,4.2-4.37,9.58-10.87,14.37-18.8,2.22-3.71,4.09-7.41,5.41-10.95,.66-1.76,1.18-3.52,1.53-5.13,.1-.78-.12-1.61-.66-2.07-.26-.25-.61-.29-1-.43-.37-.13-.73-.3-1.05-.5l-.22-.13,.19-.17c.6-.56,1-1.26,1.07-1.99,.09-.73-.11-1.44-.37-2.05-.52-1.24-1.23-2.19-1.8-2.96-.57-.77-1.03-1.37-1.3-1.8-.29-.42-.36-.69-.36-.69Z" style="fill:#263238;"></path><polygon points="391.17 232.3 389.08 234.86 390.92 237.54 394.17 237.54 394.93 234.92 393.54 232.42 391.17 232.3" style="fill:#FF725E;"></polygon><path d="M385.23,281.91c.14,.02-.61,6.85-1.67,15.25-1.07,8.41-2.04,15.2-2.19,15.19-.14-.02,.61-6.85,1.67-15.25,1.07-8.4,2.04-15.2,2.19-15.19Z" style="fill:#263238;"></path><path d="M392.53,293.08c-.05,.14-5.48-1.62-12.13-3.93-6.65-2.3-12.01-4.28-11.96-4.42,.05-.14,5.48,1.62,12.13,3.93,6.65,2.3,12.01,4.28,11.96,4.42Z" style="fill:#263238;"></path><path d="M388.06,294.8c.02,.14-1.98,.51-4.47,.83-2.49,.32-4.52,.46-4.54,.31-.02-.14,1.98-.51,4.47-.83,2.49-.32,4.52-.45,4.54-.31Z" style="fill:#263238;"></path><path d="M392.67,230.2c.11,.09-1.8,2.59-4.28,5.59-.17,.18-.39,.44-.8,.45-.42-.02-.61-.34-.74-.52-.25-.38-.49-.75-.72-1.11-.42-.66-.82-1.29-1.2-1.89-.67-1.08-1.05-1.77-.99-1.81,.06-.04,.55,.58,1.3,1.61,.41,.58,.84,1.18,1.29,1.82,.24,.35,.49,.72,.75,1.09,.27,.39,.38,.37,.72,.01,2.47-2.98,4.56-5.34,4.67-5.25Z" style="fill:#263238;"></path><path d="M404.01,232.49c.03,.07-.73,.48-1.99,1.08-1.26,.6-3.01,1.4-4.98,2.21-.25,.1-.5,.19-.74,.29-.13,.04-.24,.09-.39,.13l-.11,.03s-.07,.02-.17,.01c-.16-.03-.23-.1-.29-.14-.44-.43-.63-.85-.87-1.26-.44-.82-.78-1.58-1.05-2.23-.54-1.29-.81-2.11-.74-2.14,.07-.03,.45,.74,1.08,1.98,.31,.62,.68,1.36,1.14,2.15,.22,.38,.48,.83,.77,1.1,.01,0,.04,.03,.04,.03h0s-.02,.07-.02,.08c0,.01,0,.02,0,.03v.02h0c-.04-.26-.01-.07-.02-.13h.04l.07-.03c.1-.03,.23-.08,.34-.12,.24-.09,.48-.19,.73-.29,1.86-.76,3.55-1.46,5.03-2.06,1.29-.52,2.11-.81,2.14-.74Z" style="fill:#263238;"></path></g></g><path d="M717.75,324.65c2.09-10.58,.46-22.1-1.22-32.62-.89-5.59-2-11.17-3.53-16.63-1.04-3.73-2.17-7.89-4.4-11.12-1.98-2.86-4.9-5.21-7.43-7.55-4.52-4.17-9.14-8.22-13.8-12.23-4.99-4.3-10.02-8.55-15.12-12.71-5.27-4.3-10.32-8.3-17.45-8.49-3.96-.11-7.78,.92-11.49,2.21-3.76,1.31-7.54,2.58-11.34,3.79-7.75,2.48-15.55,4.77-23.41,6.89-15.43,4.17-31.02,7.72-46.7,10.79-26.39,5.18-53.04,9.04-79.79,11.83-8.56,.89-17.13,1.67-25.71,2.32-3.86,.29-7.82,.3-11.66,.8-.76,.1-1.49,.16-1.92,.96-.58,1.09-.07,2.39,1.12,2.75h0c.17-1.23,.33-2.45,.5-3.68l-17.17,.15c-13.83,.12-27.65,.25-41.48,.37-16.66,.15-33.32,.3-49.98,.44-14.41,.13-28.82,.26-43.23,.38-4.79,.04-9.58,.09-14.37,.13-2.23,.02-4.52-.11-6.74,.06-.1,0-.2,0-.29,0-2.41,.02-2.42,3.77,0,3.75,5.72-.05,11.45-.1,17.17-.15,13.83-.12,27.65-.25,41.48-.37l49.98-.44c14.41-.13,28.82-.26,43.23-.38,4.79-.04,9.58-.09,14.37-.13,2.23-.02,4.52,.11,6.74-.06,.1,0,.2,0,.29,0,2.14-.02,2.52-3.06,.5-3.68h0c.37,.92,.75,1.84,1.12,2.75h0c-.37,.29-.75,.57-1.12,.86-.72,.21-.25,.03,.18,.01,.56-.03,1.11-.07,1.67-.11,2.09-.13,4.18-.27,6.28-.42,7.57-.54,15.13-1.19,22.68-1.92,24.65-2.4,49.22-5.71,73.6-10.07,30.33-5.41,60.47-12.4,89.7-22.2,7.26-2.43,14.89-5.86,22.42-2.35,2.88,1.34,5.29,3.51,7.73,5.5,2.43,1.97,4.84,3.97,7.23,5.98,8.87,7.44,17.78,14.94,26.07,23.04,2.14,2.09,3.56,3.77,4.7,6.57,1.8,4.42,2.94,9.15,3.95,13.8,2.41,11.06,4.08,22.65,3.65,34-.08,2.07-.24,4.14-.65,6.17-.47,2.36,3.15,3.37,3.62,1h0Z" style="fill:#6f4439;"></path><path d="M703.81,253.56s1.27-.08,1.66,.55c.4,.63,0,2.58,0,2.58,0,0,1.5-1.06,2.69,0s.55,2.57,.55,2.57c0,0,1.27,.47,1.66,1.27s0,1.61,0,1.61c0,0,1.57,.68,1.27,2.19-.3,1.51-2.69,3.64-3.4,3.95s-3.01,.24-3.01-.63v-1.19s-1.34-1.11-1.42-1.9l-.08-.79s-1.74-.55-1.82-1.5l-.08-.95s-1.03,.63-1.03-1.74,1.27-3.01,1.27-3.01v-1.9s.72-1.22,1.74-1.1Z" style="fill:#ffbf9d;"></path><g><path d="M428.61,236.92l4.27,5.29v3.23s19.58,19.69,19.28,27.92c-.3,8.23,.9,6.76-3.61,8.23-4.52,1.47-40.07-2.65-40.07-2.65v-18.52l11.44,1.42,8.7-24.94Z" style="fill:#455a64;"></path><path d="M427.36,241.67c.14,.05-1.37,4.59-3.35,10.15-1.99,5.56-3.71,10.02-3.84,9.97-.14-.05,1.37-4.59,3.35-10.15,1.99-5.55,3.71-10.02,3.84-9.97Z" style="fill:#263238;"></path><path d="M408.69,261.92s-.16-.1-.42-.26c-1.25-.78-4.94-3.06-6.26-3.56-1.6-.61-7.37,.54-7.37,.54,0,0-2.29,1.36-2.16,2.71s1.32,1.76,1.32,1.76c0,0-.97,3.8,.83,4.14,0,0-.56,1.97,.9,2.65,0,0-.49,1.83,1.74,2.17,2.23,.34,11.54,1.02,11.4,.81" style="fill:#ffbf9d;"></path><path d="M418.5,280.02s-.24,.01-.68-.02c-.5-.04-1.15-.09-1.95-.16-1.76-.17-4.2-.4-7.19-.69l-.16-.02v-.17c-.08-4.9-.18-11.36-.29-18.54v-.29l.28,.03c1.11,.13,2.28,.27,3.47,.41,8.84,1.07,16.83,2.03,22.61,2.73l-.13,.04c2.3-1.74,4.56-2.44,6.1-2.75,.78-.15,1.39-.21,1.8-.23,.42-.02,.63-.01,.63,0,0,.05-.87,.07-2.4,.43-1.51,.36-3.71,1.11-5.92,2.84l-.06,.05h-.07c-5.79-.67-13.78-1.58-22.63-2.58-1.19-.14-2.36-.28-3.47-.41l.28-.26c.06,7.18,.11,13.64,.14,18.54l-.17-.18c2.99,.36,5.42,.65,7.17,.85,.8,.11,1.44,.19,1.94,.26,.44,.06,.67,.11,.67,.13Z" style="fill:#263238;"></path><path d="M438.19,257.2c.05,.15-1.88,.88-4.04,2.19-2.17,1.29-3.73,2.64-3.83,2.53-.1-.09,1.34-1.65,3.56-2.98,2.22-1.34,4.27-1.87,4.3-1.74Z" style="fill:#263238;"></path></g><g><g><path d="M290.57,268.88s-1.17-.2-1.21-1.45c-.02-.47,.15-1.05,.36-1.6,.4-1.02,1.12-1.87,2.06-2.43,.73-.44,1.57-.93,1.9-1.09,.63-.3,2.02-.22,2.02-.22,0,0,.95-.85,1.97-1.1s2.09,1.21,2.09,1.21c0,0,.67-1.23,1.75-.93,1.08,.3,1.08,.81,1.08,.81,0,0,1.01-.48,1.74,.51s-.51,5.12-.54,5.26c-.03,.14-.35,3.62-1.81,3.78-1.46,.16-2.53-1.3-2.53-1.3,0,0-.96,.8-2.14,.42-1.19-.38-1.32-1.57-1.32-1.57,0,0-.34,1.15-1.69,.65-1.34-.5-1.63-2.19-1.63-2.19,0,0-1.72,1.38-2.1,1.25Z" style="fill:#ffbf9d;"></path><path d="M290.57,268.89c.02,.07,.81-.31,2.02-1.34,.05-.04,.12-.03,.16,.01,.01,.01,.02,.03,.02,.05h0c.14,.56,.42,1.27,1.02,1.75,.29,.23,.69,.41,1.1,.42,.4,.03,.78-.25,.91-.65,.03-.1,.14-.16,.24-.12,.07,.02,.12,.08,.13,.15h0c.1,.58,.51,1.19,1.15,1.38,.63,.23,1.41,.07,1.98-.38,.1-.08,.25-.06,.33,.04,.47,.58,1.18,1.13,1.97,1.2,.82,.18,1.26-.74,1.53-1.58,.14-.43,.23-.89,.31-1.36,.05-.25,.05-.44,.12-.75l.19-.71c.24-.95,.46-1.94,.53-2.93,.02-.57,.05-1.17-.29-1.48-.33-.37-.87-.45-1.29-.28-.13,.06-.29,0-.35-.14,0-.02-.02-.04-.02-.07v-.03c-.04-.25-.78-.62-1.2-.6-.47,.02-.91,.42-1.16,.85-.07,.12-.22,.16-.35,.09-.03-.02-.05-.04-.07-.06-.47-.61-1.17-1.23-1.8-1.13-.7,.16-1.38,.6-1.92,1.04-.05,.04-.1,.06-.16,.06-.81-.01-1.63-.06-2.23,.36-.65,.38-1.31,.71-1.86,1.06-1.1,.74-1.68,1.81-1.95,2.72-.33,.91-.14,1.7,.26,2.02,.38,.33,.68,.37,.67,.4,0,.01-.07,.01-.21-.02-.13-.04-.33-.11-.55-.28-.21-.17-.44-.45-.52-.85-.09-.4-.03-.86,.1-1.34,.24-.95,.83-2.13,2-2.95,.59-.39,1.22-.73,1.89-1.13,.3-.22,.77-.36,1.17-.4,.42-.05,.83-.06,1.27-.04l-.16,.06c.6-.5,1.26-.96,2.12-1.17,.5-.1,.97,.12,1.33,.37,.37,.26,.67,.57,.96,.93l-.42,.03c.32-.54,.82-1.06,1.57-1.12,.38,0,.68,.11,.98,.24,.29,.17,.65,.31,.75,.87l-.37-.23c.63-.29,1.42-.13,1.89,.38,.11,.12,.22,.25,.3,.44,.06,.17,.11,.33,.12,.49,.05,.32,.03,.63,.02,.94-.08,1.06-.3,2.05-.55,3.02l-.19,.72c-.04,.17-.07,.47-.11,.69-.08,.49-.19,.96-.34,1.43-.15,.46-.34,.92-.65,1.33-.15,.2-.37,.38-.62,.5-.28,.09-.53,.11-.78,.08-1.01-.11-1.75-.73-2.29-1.41l.33,.04c-.71,.54-1.64,.71-2.41,.42-.8-.27-1.29-1.01-1.39-1.73l.37,.03c-.18,.57-.75,.94-1.28,.89-.52-.03-.94-.25-1.29-.53-.67-.59-.93-1.33-1.05-1.94l.19,.07c-.64,.48-1.16,.82-1.54,1.01-.37,.21-.64,.18-.62,.15Z" style="fill:#ff9a6c;"></path></g><path d="M295.87,262.14c.12,.09-.64,1.29-1.55,2.77-.91,1.49-1.62,2.71-1.76,2.65-.13-.06,.39-1.41,1.31-2.92,.92-1.51,1.88-2.59,1.99-2.5Z" style="fill:#ff9a6c;"></path><path d="M295.91,269.46c-.06,0-.07-.5,.16-1.24,.22-.74,.71-1.7,1.35-2.66,.64-.96,1.23-1.8,1.61-2.44,.39-.63,.6-1.05,.67-1.02,.06,.02-.03,.49-.35,1.19-.31,.7-.87,1.6-1.5,2.55-.63,.95-1.14,1.83-1.44,2.51-.3,.67-.43,1.12-.5,1.1Z" style="fill:#ff9a6c;"></path><path d="M302.63,262.34c.13,.06-.51,1.85-1.45,4-.93,2.16-1.79,3.86-1.92,3.8-.13-.06,.52-1.85,1.45-4,.93-2.15,1.79-3.85,1.92-3.8Z" style="fill:#ff9a6c;"></path></g><path d="M471.38,269.89s-9.29,.12-11.01-1.05c-1.72-1.18-4.21-4.19-4.21-4.19,0,0,.41-3.56,1.64-4.26,1.23-.7,1.83,.62,1.83,.62,0,0,1.15-1.07,2.42-.28,0,0,1.35-1.25,2.98-.31,0,0,1.24-.93,2.07-.62,.82,.31,1.24,4.13,1.24,4.13,0,0,5.39-.13,6.92,1.16s2.58,1.95,2.58,1.95l-3.8,4.63-2.67-1.77Z" style="fill:#ae7461;"></path><g><path d="M581.01,233.78s7.82,2.8,8.47,6.03l.02,.1c.51,2.6-.93,5.18-3.39,6.14-3.99,1.55-10.41,3.83-16.04,4.77-8.95,1.5-11.8,1.22-11.8,1.22l-4.84-5.82,27.58-12.44Z" style="fill:#ae7461;"></path><path d="M541.56,248.28l11.87-2.06,4.84,5.82s-5.92,4.39-7.67,4.69c-1.75,.3-2.46,.25-2.46,.25,.06,.14-.36,2.82-1.16,2.79-.81-.03-1.4-1.16-1.4-1.16,0,0-1.95,.42-2.33-.29l-.38-.71s-2.03,.74-2.66,.25c-.63-.49-.47-2.36-.47-2.36,0,0-1.52,.35-1.93-.38-.41-.73,.76-6.32,3.76-6.84Z" style="fill:#ae7461;"></path></g><g><g style="opacity:.3;"><polygon points="604.96 308.67 648.07 333.33 651.13 326.33 604.96 308.67"></polygon></g><path d="M651.5,221.77c-.72,.24-5.31,2.41-8.45,8.45-3.14,6.04-14.49,38.87-14.49,38.87l-26.08,38.39,54.09,25.84s14.97-38.63,17.14-55.78-2.17-50.22-7-54.33c-4.83-4.1-15.21-1.45-15.21-1.45Z" style="fill:#263238;"></path><path d="M627.34,297.3s.17,.07,.44,.19c.32,.15,.7,.33,1.17,.55,1.06,.51,2.49,1.19,4.25,2.03,3.59,1.72,8.51,4.08,14.07,6.84l-.35,.13c.53-1.24,1.07-2.53,1.63-3.84,.22-.5,.43-1.01,.64-1.49l.13,.34c-6.47-3.1-12.22-5.88-16.17-7.83h.16c-1.81,.97-3.27,1.72-4.31,2.25-.48,.25-.88,.45-1.2,.62-.28,.14-.43,.22-.45,.22-.02,0,.1-.08,.35-.22,.3-.18,.67-.4,1.11-.66,.98-.58,2.45-1.45,4.33-2.51l.08-.04,.08,.04c4,1.86,9.77,4.58,16.25,7.67l.22,.11-.1,.23c-.21,.49-.42,.99-.64,1.49-.56,1.32-1.11,2.61-1.64,3.84l-.11,.25-.24-.12c-5.68-2.83-10.66-5.39-14.17-7.19-1.69-.87-3.08-1.59-4.11-2.12-.95-.49-1.46-.76-1.42-.76Z" style="fill:#455a64;"></path><g><g style="opacity:.3;"><path d="M645.17,250.43c.59,.81,18.44,35.54,24.84,39.86l4.28-11.99-29.12-27.86Z"></path></g><g><g><g><path d="M665.7,222.42v1.37s6.64,8.97,7.28,10.56c.63,1.58,1.31,4.64,1.31,4.64l10.28,5.37-2.65-10.24s.08-7.44-.47-8.54c-.55-1.11-1.5-1.27-1.5-1.27,0,0-.71-1.42-1.5-1.74l-.79-.32s-.87-1.5-1.66-1.5-1.9,.4-1.9,.4c0,0-2.21-.86-2.93-.83-.71,.03-2.93,.67-2.93,.67,0,0-.05-.03-.13-.07-1.11-.54-2.4,.28-2.4,1.51Z" style="fill:#ffbf9d;"></path><path d="M665.7,222.42s-.1-.34,.19-.9c.15-.26,.42-.57,.85-.75,.42-.19,1.02-.19,1.54,.1h-.08c.75-.22,1.6-.48,2.62-.68,.54-.12,1.11,.07,1.64,.2,.55,.16,1.11,.35,1.69,.56h-.13c.63-.2,1.26-.43,2.07-.41,.45,.07,.75,.37,1.02,.64,.27,.29,.5,.6,.71,.94l-.1-.09c.23,.09,.47,.19,.71,.28,.27,.09,.53,.28,.72,.48,.4,.41,.71,.87,.98,1.39l-.16-.12c.91,.23,1.62,.94,1.82,1.87,.17,.87,.22,1.74,.27,2.63,.09,1.78,.11,3.63,.1,5.54v-.07c.54,2.12,1.11,4.31,1.69,6.55,.32,1.25,.64,2.48,.95,3.68l.15,.57-.52-.27c-3.67-1.92-7.13-3.74-10.27-5.39l-.1-.05-.02-.11c-.23-1.05-.48-2.06-.76-3.02-.14-.48-.28-.95-.45-1.4-.16-.44-.4-.83-.64-1.23-.98-1.57-1.96-2.97-2.81-4.21-1.69-2.4-2.96-4.21-3.75-5.34v-.04c0-.43,.01-.77,.02-1.04,.01-.22,.02-.33,.04-.33s.02,.11,.04,.33c0,.27,.02,.6,.03,1.04v-.04c.76,.99,2.13,2.79,3.9,5.24,.88,1.23,1.88,2.61,2.89,4.19,.24,.39,.51,.82,.69,1.29,.18,.46,.33,.94,.47,1.42,.29,.97,.55,1.99,.79,3.05l-.12-.16c3.14,1.63,6.62,3.44,10.29,5.34l-.37,.29c-.31-1.21-.63-2.44-.96-3.68-.58-2.25-1.15-4.44-1.69-6.56v-.07c0-1.9,0-3.74-.09-5.51-.05-.88-.09-1.75-.24-2.55-.13-.73-.79-1.37-1.44-1.53l-.12-.03-.05-.09c-.24-.47-.54-.93-.89-1.28-.18-.18-.35-.31-.57-.39-.24-.1-.48-.19-.71-.29l-.06-.03-.04-.06c-.37-.6-.87-1.28-1.42-1.4-.62-.02-1.32,.18-1.9,.36l-.07,.02-.06-.02c-.57-.22-1.12-.42-1.65-.58-.54-.15-1.03-.33-1.5-.23-.98,.16-1.86,.4-2.6,.59h-.08c-.47-.29-.98-.3-1.37-.15-.4,.14-.66,.41-.81,.65-.31,.5-.25,.84-.29,.84Z" style="fill:#ff9a6c;"></path></g><polygon points="673.02 238.98 672.84 234.87 684.32 238.18 686 245.11 673.02 238.98" style="fill:#fff;"></polygon></g><g><g><path d="M642.23,241.39c-.05,3.25,1.03,6.42,2.94,9.04,5.41,7.42,20.18,27.26,25.27,29.81,6.28,3.14,11.35,3.02,12.8-1.39,1.45-4.41,5.07-32.66,5.07-32.66l-15.77-7.44-.72,1.93s-6.93-22.25-16.34-20.8c-7.56,1.16-13.1,12.3-13.24,21.52Z" style="fill:#263238;"></path><path d="M642.23,241.39s0-.09,0-.26l.02-.78c0-.69,.1-1.71,.3-3.01,.43-2.59,1.34-6.46,3.92-10.65,1.3-2.05,3.02-4.27,5.61-5.75,1.28-.73,2.76-1.31,4.39-1.31,1.63,.03,3.23,.75,4.56,1.8,1.36,1.03,2.51,2.35,3.57,3.78,1.05,1.44,2.01,2.99,2.89,4.64,1.75,3.3,3.28,6.9,4.56,10.76h-.46c.22-.61,.47-1.27,.72-1.94l.09-.25,.24,.11c4.99,2.35,10.29,4.85,15.78,7.43l.17,.08-.02,.19c-.47,3.5-.96,7.19-1.46,10.93-.82,5.86-1.64,11.58-2.6,17.08-.26,1.37-.5,2.73-.85,4.08-.33,1.34-1.05,2.71-2.29,3.44-1.2,.78-2.64,.94-3.97,.86-1.34-.08-2.63-.41-3.86-.82-1.23-.42-2.4-.92-3.5-1.55l-.81-.52-.73-.6c-.49-.38-.93-.82-1.37-1.24-1.76-1.7-3.34-3.45-4.83-5.18-2.98-3.46-5.62-6.79-7.99-9.85-2.37-3.07-4.47-5.88-6.3-8.36-.91-1.24-1.75-2.4-2.53-3.47-.79-1.05-1.43-2.1-1.88-3.09-.92-1.99-1.21-3.68-1.32-4.82-.1-1.14-.03-1.74-.03-1.74,0,0,.02,.15,.03,.44,.01,.29,.04,.73,.1,1.29,.14,1.12,.46,2.79,1.4,4.74,.46,.97,1.1,1.99,1.9,3.03,.79,1.06,1.64,2.21,2.56,3.44,1.85,2.46,3.97,5.25,6.35,8.3,2.39,3.05,5.04,6.36,8.03,9.8,1.49,1.72,3.08,3.46,4.82,5.13,.44,.41,.87,.84,1.35,1.21l.71,.58,.76,.49c1.06,.6,2.24,1.1,3.43,1.5,1.2,.4,2.45,.71,3.73,.78,1.27,.08,2.6-.09,3.67-.79,1.11-.66,1.75-1.87,2.07-3.16,.34-1.3,.58-2.67,.84-4.03,.96-5.49,1.77-11.2,2.59-17.06,.5-3.74,1-7.43,1.47-10.92l.15,.27c-5.48-2.59-10.78-5.1-15.77-7.45l.33-.14c-.25,.67-.5,1.33-.72,1.93l-.24,.65-.22-.66c-1.25-3.82-2.76-7.42-4.49-10.69-.86-1.64-1.81-3.18-2.84-4.6-1.03-1.41-2.17-2.71-3.47-3.71-1.28-1.02-2.79-1.7-4.31-1.74-1.52,0-2.98,.53-4.21,1.23-2.51,1.42-4.23,3.59-5.53,5.6-2.58,4.12-3.54,7.94-4.02,10.51-.22,1.3-.34,2.31-.38,2.99-.02,.33-.04,.58-.06,.78-.02,.17-.03,.26-.03,.26Z" style="fill:#455a64;"></path></g><path d="M667.75,264.05s-.04-.36-.01-1.01c.02-.65,.09-1.58,.19-2.73,.21-2.3,.6-5.48,1.22-8.95,.63-3.47,1.37-6.59,1.98-8.82,.3-1.12,.57-2.01,.77-2.63,.2-.61,.33-.95,.36-.94,.07,.02-.26,1.41-.78,3.66-.52,2.25-1.2,5.36-1.82,8.82-.62,3.46-1.07,6.61-1.37,8.9-.3,2.29-.47,3.7-.55,3.7Z" style="fill:#455a64;"></path></g></g></g><path d="M603.06,307.86s.1,.03,.28,.1c.21,.09,.47,.2,.79,.34,.72,.32,1.74,.78,3.02,1.35,2.65,1.21,6.42,2.93,11.07,5.05,9.35,4.32,22.22,10.27,36.43,16.84,.85,.4,1.7,.79,2.49,1.16l-.36,.15c4.82-14.26,9.12-27.06,12.08-36.34,.74-2.32,1.36-4.42,1.83-6.3,.49-1.86,.91-3.46,1.26-4.78,.35-1.28,.62-2.29,.82-3.01,.09-.32,.17-.58,.22-.78,.05-.17,.08-.26,.09-.26,0,0,0,.09-.04,.27-.05,.21-.1,.47-.18,.79-.17,.73-.42,1.74-.72,3.04-.33,1.33-.72,2.94-1.18,4.81-.44,1.88-1.04,4-1.76,6.33-2.87,9.31-7.12,22.14-11.93,36.4l-.09,.27-.26-.12c-.79-.37-1.64-.76-2.49-1.16-14.19-6.62-27.03-12.62-36.37-16.97-4.62-2.18-8.37-3.95-11-5.2-1.27-.61-2.26-1.09-2.98-1.44-.32-.16-.57-.29-.77-.39-.17-.09-.26-.14-.25-.15Z" style="fill:#455a64;"></path></g></g></g><g id="freepik--Weight--inject-218"><g><circle cx="148.74" cy="309.5" r="122" transform="translate(-175.28 195.83) rotate(-45)" style="fill:#FF725E;"></circle><path d="M258.01,264.42c2.75-1.66,7.03-4.82,10.55-3.79,3.05,.9,3.98,4.6,4.83,7.3,1.48,4.73-2.56,5.54-6.17,7.36-4.11,2.07-8.23,4.1-12.36,6.12-6.5,3.18-.81,12.88,5.68,9.71,6.63-3.24,15.48-6.06,20.9-11.19,5.21-4.94,4.18-11.64,1.85-17.74-2.16-5.63-5.49-10.86-11.72-12.41-6.96-1.74-13.42,1.41-19.22,4.92-6.19,3.75-.54,13.48,5.68,9.71h0Z" style="fill:#FF725E;"></path><g style="opacity:.2;"><path d="M165.14,385.61c-3.66-2.61-8.12-3.78-12.29-5.48-14.05-5.74-25.17-18.23-29.22-32.86-5.67-20.44,1.77-43.76-7.9-62.63-5.15-10.06-15.04-17.56-26.11-19.82-11.07-2.26-23.11,.77-31.79,8-17.79,12.33-20.13,35.73-14.55,55.5,7.16,31.9,29.5,60.03,58.93,74.25,19.13,9.23,42.76,12.4,61.2,1.86,2.98-1.7,5.96-3.98,6.91-7.28,1.25-4.32-1.51-8.93-5.18-11.54Z" style="fill:#fff;"></path></g><path d="M270.65,304.57s-.05-.22-.08-.65c-.03-.48-.08-1.1-.14-1.86-.05-.81-.11-1.79-.24-2.94-.12-1.14-.21-2.45-.42-3.88-.18-1.43-.38-3-.68-4.67-.25-1.68-.62-3.46-1-5.33-.81-3.73-1.86-7.8-3.2-11.99-1.36-4.19-2.88-8.11-4.36-11.63-1.52-3.5-2.99-6.61-4.32-9.18-1.32-2.57-2.43-4.63-3.23-6.04-.37-.67-.67-1.21-.9-1.63-.2-.38-.3-.58-.28-.59s.14,.17,.37,.53c.25,.41,.58,.93,.98,1.58,.85,1.38,2.02,3.41,3.38,5.97,1.37,2.55,2.89,5.65,4.43,9.16,1.52,3.52,3.05,7.45,4.42,11.66,1.35,4.22,2.38,8.31,3.17,12.06,.36,1.88,.72,3.67,.95,5.36,.28,1.68,.46,3.26,.62,4.7,.19,1.44,.25,2.75,.34,3.9,.1,1.15,.13,2.14,.15,2.95,.02,.77,.03,1.38,.04,1.86,0,.43,0,.65-.02,.65Z" style="fill:#263238;"></path><path d="M256.51,289.56s.04,.13,.1,.38c.06,.28,.14,.65,.24,1.12,.18,.99,.55,2.43,.8,4.32,.64,3.76,1.21,9.28,1.15,16.12-.05,1.71-.11,3.5-.23,5.36-.17,1.86-.28,3.8-.58,5.78-.47,3.99-1.32,8.21-2.45,12.58-1.11,4.38-2.68,8.87-4.59,13.4-1.93,4.52-4.23,9.08-7.04,13.48-2.79,4.41-5.82,8.51-8.93,12.32-3.17,3.76-6.33,7.3-9.58,10.44-6.4,6.38-12.87,11.39-18.55,15.16-1.43,.93-2.78,1.84-4.13,2.59-1.34,.76-2.56,1.55-3.79,2.13-1.21,.61-2.33,1.18-3.37,1.71-1.06,.46-2.04,.88-2.92,1.26-.44,.19-.85,.37-1.24,.54-.4,.14-.77,.27-1.12,.4-.69,.24-1.27,.44-1.76,.61-.46,.15-.81,.28-1.08,.37-.24,.08-.37,.12-.37,.11,0,0,.12-.06,.36-.16l1.06-.41c.48-.18,1.06-.4,1.73-.66,.34-.13,.71-.27,1.11-.42,.39-.17,.8-.36,1.23-.56,.87-.39,1.83-.83,2.89-1.3,1.03-.54,2.14-1.12,3.34-1.74,1.22-.59,2.43-1.39,3.75-2.16,1.34-.75,2.67-1.67,4.09-2.61,5.64-3.8,12.06-8.82,18.42-15.19,3.23-3.14,6.37-6.67,9.52-10.42,3.09-3.8,6.1-7.89,8.88-12.27,2.8-4.37,5.09-8.91,7.02-13.4,1.91-4.5,3.48-8.97,4.59-13.33,1.13-4.35,2-8.55,2.48-12.52,.31-1.98,.43-3.91,.61-5.76,.13-1.85,.2-3.63,.26-5.33,.11-6.81-.4-12.32-.98-16.08-.22-1.89-.56-3.34-.7-4.33-.08-.47-.14-.85-.19-1.13-.04-.25-.06-.39-.05-.39Z" style="fill:#263238;"></path><g><path d="M273.28,267.08c.21-.46,.45-.9,.73-1.32,.07-.1,.14-.19,.21-.29,.19-.28-.29,.33-.06,.08,.19-.2,.36-.41,.55-.6,.17-.17,.36-.33,.54-.5,.27-.24-.05-.04-.07,.04,.02-.07,.31-.22,.38-.27,.44-.3,.91-.56,1.39-.79,.28-.14,.05-.08-.06,.02,.07-.07,.29-.11,.39-.14,.26-.09,.53-.17,.8-.24,.31-.08,.61-.13,.92-.19,.36-.08-.41,.03-.04,0,.14,0,.28-.03,.42-.04,.6-.04,1.19-.02,1.79,.03,.29,.02,.17-.01-.04,0,.17,0,.35,.06,.52,.09,.31,.06,.61,.14,.91,.23,1.25,.37,2.78-.45,3.08-1.75,.31-1.34-.4-2.68-1.75-3.08-5.58-1.65-12.45,.64-14.92,6.18-.53,1.19-.38,2.74,.9,3.42,1.09,.58,2.85,.38,3.42-.9h0Z" style="fill:#6f4439;"></path><path d="M272.77,272.05c.65-.17,1.3-.33,1.96-.47,.33-.07,.66-.13,.99-.19,.08-.01,.77-.1,.33-.05,.66-.07,1.33-.12,2-.1,.33,0,.67,.03,1,.06-.55-.05,.15,.03,.27,.05,.49,.1,.96,.25,1.44,.41,.26,.1,.25,.09-.05-.03,.12,.05,.24,.11,.36,.17,.21,.1,.41,.22,.6,.34,.2,.12,.39,.25,.57,.39-.5-.38,.15,.16,.23,.24,.09,.09,.62,.73,.25,.23,.16,.21,.29,.43,.43,.66,.66,1.13,2.29,1.63,3.42,.9,1.14-.74,1.6-2.21,.9-3.42-1.4-2.42-3.92-4.06-6.62-4.66-3.14-.7-6.35-.15-9.41,.66-1.26,.33-2.16,1.8-1.75,3.08,.42,1.3,1.72,2.1,3.08,1.75h0Z" style="fill:#6f4439;"></path></g></g></g><g id="freepik--Text--inject-218"><g><path d="M67.32,308.65c-1.5-.18-2.83-.73-3.98-1.62-1.15-.9-2-2.08-2.55-3.54-.55-1.47-.69-2.91-.41-4.35,.27-1.43,.92-2.71,1.93-3.84,1.01-1.13,2.3-1.99,3.88-2.58,1.58-.59,3.12-.79,4.62-.61,1.5,.18,2.83,.73,3.98,1.62,1.15,.9,2,2.08,2.55,3.55,.55,1.46,.69,2.91,.41,4.35-.27,1.43-.92,2.71-1.93,3.84-1.01,1.13-2.3,1.99-3.88,2.58-1.58,.59-3.12,.8-4.62,.61Zm4.61-5.68c.38-.49,.62-1.06,.7-1.72,.09-.66,0-1.36-.29-2.1-.28-.74-.67-1.33-1.17-1.77-.5-.44-1.05-.72-1.66-.83-.61-.11-1.22-.06-1.83,.17-.61,.23-1.11,.59-1.5,1.07-.38,.49-.62,1.06-.7,1.72-.09,.66,0,1.36,.29,2.1,.28,.74,.67,1.33,1.17,1.77,.5,.44,1.05,.72,1.66,.83,.61,.12,1.22,.06,1.83-.17s1.11-.59,1.5-1.07Z" style="fill:#263238;"></path><path d="M93.86,293.58c.67,.49,1.14,1.17,1.4,2.06,.39,1.32,.14,2.49-.73,3.53-.88,1.04-2.34,1.86-4.4,2.47l-8.45,2.48-4.4-15.02,8.02-2.35c2-.59,3.62-.67,4.85-.26,1.23,.42,2.02,1.22,2.37,2.4,.21,.7,.22,1.38,.03,2.04-.19,.66-.57,1.26-1.16,1.81,.98,.07,1.81,.35,2.48,.83Zm-10.58-2.4l.65,2.23,2.36-.69c1.1-.32,1.54-.86,1.32-1.6-.22-.74-.88-.95-1.98-.63l-2.36,.69Zm6.7,5.38c-.23-.79-.9-1.02-2.02-.69l-3.05,.89,.69,2.36,3.05-.89c1.12-.33,1.56-.88,1.33-1.67Z" style="fill:#263238;"></path><path d="M94.63,284.18l5.15-1.15,2.52,11.28,6.89-1.54,.89,3.99-12.04,2.69-3.42-15.27Z" style="fill:#263238;"></path><path d="M108.66,281.18l5.2-.91,2.7,15.41-5.2,.91-2.7-15.42Z" style="fill:#263238;"></path><path d="M128.16,285.8l4.55-.54,.78,6.57c-.84,.75-1.85,1.36-3.02,1.85-1.17,.48-2.34,.8-3.51,.94-1.66,.2-3.19,.03-4.59-.5-1.4-.53-2.55-1.37-3.44-2.52-.9-1.15-1.44-2.5-1.62-4.07-.19-1.57,.02-3.02,.62-4.34,.6-1.32,1.53-2.41,2.79-3.26,1.26-.85,2.73-1.37,4.42-1.57,1.53-.18,2.92-.09,4.19,.28,1.27,.37,2.36,.99,3.27,1.87l-3,3.35c-1.11-1.02-2.34-1.46-3.69-1.29-1.15,.14-2.03,.59-2.63,1.37-.6,.78-.83,1.76-.68,2.96,.14,1.17,.59,2.07,1.35,2.7,.76,.63,1.7,.88,2.82,.75,.67-.08,1.29-.28,1.86-.61l-.47-3.93Z" style="fill:#263238;"></path><path d="M146.2,290.18l-5.94,.21-.96,2.76-5.36,.19,6.3-15.88,5.19-.18,7.38,15.4-5.45,.19-1.14-2.69Zm-1.58-3.75l-1.66-3.88-1.38,3.99,3.04-.11Z" style="fill:#263238;"></path><path d="M156.52,281.45l-4.58-.23,.2-4.09,14.43,.72-.21,4.09-4.58-.23-.58,11.54-5.27-.26,.58-11.54Z" style="fill:#263238;"></path><path d="M168.63,278.16l5.24,.58-1.73,15.55-5.24-.58,1.73-15.55Z" style="fill:#263238;"></path><path d="M178.19,294.42c-1.19-.93-2.05-2.08-2.57-3.44-.52-1.36-.64-2.81-.36-4.35,.28-1.54,.91-2.85,1.88-3.94,.97-1.09,2.18-1.85,3.63-2.3,1.45-.45,3-.52,4.65-.21,1.66,.3,3.08,.92,4.27,1.85,1.19,.93,2.05,2.08,2.57,3.44,.52,1.36,.64,2.81,.36,4.35-.28,1.54-.91,2.85-1.88,3.94-.97,1.09-2.18,1.85-3.63,2.3-1.45,.45-3,.52-4.65,.21-1.66-.3-3.08-.92-4.27-1.85Zm6.88-2.5c.58-.22,1.07-.59,1.49-1.11,.41-.52,.69-1.17,.84-1.95,.14-.78,.11-1.48-.09-2.12-.2-.64-.53-1.16-1-1.57-.46-.41-1.02-.68-1.66-.79-.64-.12-1.26-.07-1.83,.15-.58,.22-1.08,.59-1.49,1.11s-.69,1.17-.84,1.95c-.14,.78-.11,1.48,.09,2.12,.2,.64,.53,1.16,1,1.57,.46,.41,1.02,.67,1.66,.79,.64,.12,1.26,.07,1.84-.15Z" style="fill:#263238;"></path><path d="M211.87,287.15l-4.33,15.04-4.17-1.2-3.75-8.48-1.96,6.83-4.94-1.42,4.33-15.04,4.17,1.2,3.75,8.48,1.96-6.83,4.94,1.42Z" style="fill:#263238;"></path><path d="M211.55,303.62c-1.04-.72-1.84-1.45-2.39-2.2l2.98-2.96c.54,.67,1.19,1.3,1.95,1.88,.77,.58,1.54,1.02,2.33,1.33,.68,.27,1.19,.39,1.53,.37,.34-.02,.57-.16,.67-.42,.12-.3,.02-.61-.3-.91-.32-.3-.89-.71-1.69-1.24-1.03-.68-1.87-1.3-2.51-1.86-.64-.56-1.12-1.26-1.44-2.1-.31-.83-.27-1.78,.15-2.83,.36-.92,.94-1.65,1.75-2.2,.81-.55,1.8-.84,2.99-.87,1.19-.03,2.51,.24,3.97,.81,1,.39,1.94,.88,2.82,1.47,.88,.59,1.61,1.24,2.18,1.94l-2.87,2.98c-1.15-1.28-2.36-2.17-3.64-2.67-1.26-.49-2.02-.44-2.25,.18-.11,.29-.01,.58,.31,.88,.32,.29,.88,.69,1.67,1.19,1.03,.64,1.87,1.25,2.53,1.82,.66,.57,1.15,1.27,1.47,2.1,.32,.83,.28,1.77-.13,2.83-.36,.92-.94,1.65-1.74,2.19-.8,.54-1.8,.83-2.99,.87-1.19,.04-2.52-.23-3.97-.8-1.21-.47-2.33-1.07-3.37-1.79Z" style="fill:#263238;"></path></g></g><g id="freepik--Speech_Bubble--inject-218"><g><polygon points="468.24 112.18 485.58 98.77 487.25 120.56 510.44 119.01 495.08 139.08 509.35 153.14 485.14 157.08 490.63 183.78 472.89 164.19 451.39 176.74 451.64 154.88 428.5 148.29 446.23 135.1 433.16 117.26 452.17 120.29 452.65 98.92 468.24 112.18" style="fill:#fff;"></polygon><path d="M510.98,118.72c-.05-.09-.14-.14-.24-.13l-23.15,1.57-1.27-16.23-.42-5.35c0-.09-.06-.17-.15-.21-.08-.04-.18-.02-.25,.03l-16.3,12.7c-.46,.36-.78,.62-.96,.76-.16-.15-.46-.4-.87-.76l-14.65-12.56c-.07-.06-.18-.08-.26-.04-.09,.04-.15,.13-.15,.22l-.51,21.13-18.93-3.04c-.1-.01-.2,.03-.25,.12-.05,.09-.05,.2,.01,.28l13.16,18.01-17.08,12.7-.1-.03c-.06-.02-.13-.01-.19,.02-.06,0-.13,0-.18,.05l-.28,.21c-.08,.06-.11,.15-.1,.25,.02,.09,.09,.17,.18,.2l23.15,6.61-.25,21.86c0,.09,.05,.17,.12,.22,.08,.05,.17,.04,.25,0l21.48-12.53,17.97,19.84c.05,.05,.12,.08,.19,.08,.04,0,.08,0,.11-.03,.1-.05,.15-.16,.13-.27l-5.54-26.93,24.11-3.94c.09-.02,.17-.08,.2-.17,.03-.09,0-.19-.06-.25l-14.26-14.04,15.32-20.05c.06-.08,.07-.18,.02-.27Zm-42.64-6.31s.03-.02,.05-.03c.04-.03,.42-.31,1.12-.85l15.78-12.11,1.58,21.17v.12c.02,.14,.13,.23,.28,.23l22.44-1.47-14.84,19.36-.09,.12c-.08,.1-.07,.24,.02,.33l13.77,13.58-23.57,3.83c-.07,.01-.13,.05-.17,.1-.04,.06-.05,.13-.04,.19l5.2,25.3-16.75-18.5c-.05-.05-.12-.08-.19-.08-.04,0-.09,.01-.13,.03l-20.96,12.24,.23-21.08v-.14c0-.11-.07-.21-.18-.24l-22.44-6.39,17.16-12.78c.11-.08,.13-.24,.05-.35l-12.61-17.19,18.2,2.88c.07,.01,.14,0,.2-.06,.06-.05,.09-.11,.09-.19l.44-20.8,14.08,11.89c.64,.54,.99,.82,1.03,.85,.02,.01,.03,.02,.05,.03,.03,.02,.07,.02,.1,.03,.03,0,.08,0,.11-.02h0Z" style="fill:#263238;"></path><path d="M468.01,124.93l3.66-.21c1.15-.07,2.09,.89,2.02,2.04l-1.01,15.15c-.09,1.29-1.17,2.29-2.47,2.27h0c-1.23-.02-2.25-.95-2.38-2.18l-1.6-14.96c-.12-1.09,.7-2.05,1.79-2.11Zm3.29,21.66c-1.95-.55-3.97,.58-4.53,2.52-.55,1.95,.58,3.97,2.52,4.53,1.95,.55,3.97-.58,4.53-2.52,.55-1.95-.58-3.97-2.52-4.53Z" style="fill:#FF725E;"></path></g></g></svg>
