<svg version="1.1" id="Layer_1" xmlns="http://www.w3.org/2000/svg" xmlns:xlink="http://www.w3.org/1999/xlink" x="0px" y="0px" viewBox="0 0 500 500" style="width: 188px;" xml:space="preserve" data-imageid="office-work-61" imageName="Office Work" class="illustrations_image">
<style type="text/css">
	.st0_office-work-61{fill:#FFFFFF;}
	.st1_office-work-61{fill:#093F68;}
	.st2_office-work-61{fill:#68E1FD;}
	.st3_office-work-61{fill:#70CC40;}
	.st4_office-work-61{fill:#F56132;}
	.st5_office-work-61{fill:#FFBC0E;}
	.st6_office-work-61{fill:#725858;}
	.st7_office-work-61{fill:#DFEAEF;}
</style>
<g id="table_office-work-61">
	<path class="st0_office-work-61" d="M29.7,332.5h441.7c2.5,0,4.5,2,4.5,4.5v7.9c0,2.5-2,4.5-4.5,4.5H29.7c-2.5,0-4.5-2-4.5-4.5V337&#10;&#9;&#9;C25.2,334.5,27.2,332.5,29.7,332.5z"/>
	<path class="st1_office-work-61" d="M467.5,351.3h-434c-5.7-0.2-10.2-5-10-10.7c0.2-5.5,4.6-9.9,10-10h434c5.7,0.2,10.2,5,10,10.7&#10;&#9;&#9;C477.4,346.8,473,351.1,467.5,351.3z M33.5,334.3c-3.7,0.1-6.5,3.2-6.4,6.9c0.1,3.5,2.9,6.3,6.4,6.4h434c3.7-0.1,6.5-3.2,6.4-6.9&#10;&#9;&#9;c-0.1-3.5-2.9-6.3-6.4-6.4H33.5z"/>
</g>
<g id="mouse_office-work-61">
	<path class="st0_office-work-61" d="M312.5,331.5c0-8.9,9.8-16.1,22-16.1s22,7.2,22,16.1H312.5z"/>
	<path class="st1_office-work-61" d="M356.4,333.4h-43.9c-1,0-1.9-0.8-1.9-1.9l0,0c0-9.9,10.7-17.9,23.8-17.9s23.8,8,23.8,17.9&#10;&#9;&#9;C358.2,332.6,357.4,333.4,356.4,333.4z M314.5,329.7h39.9c-1.3-7-9.7-12.4-19.9-12.4S315.8,322.7,314.5,329.7L314.5,329.7z"/>
	<path class="st1_office-work-61" d="M334.4,322.4c-1,0-1.9-0.8-1.9-1.9l0,0v-8.1c0-1,0.8-1.9,1.9-1.9s1.9,0.8,1.9,1.9v8.1&#10;&#9;&#9;C336.3,321.6,335.5,322.4,334.4,322.4L334.4,322.4z"/>
</g>
<g id="glass_office-work-61">
	<path class="st2_office-work-61 targetColor" d="M110.4,332.5H76.3c-3.1,0-5.7-2.6-5.7-5.7l0,0v-46.7l0,0h45.5l0,0v46.7C116.1,329.9,113.6,332.5,110.4,332.5z" style="fill: rgb(104, 225, 253);"/>
	<path class="st1_office-work-61" d="M105.6,334.3H81.2c-6.8,0-12.4-5.6-12.4-12.4v-41.8c0-1,0.8-1.9,1.8-1.9c0,0,0,0,0,0h45.6c1,0,1.8,0.8,1.8,1.9&#10;&#9;&#9;v41.8C118,328.8,112.4,334.3,105.6,334.3z M72.5,282v40c0,4.8,3.9,8.7,8.7,8.7h24.4c4.8,0,8.7-3.9,8.7-8.7v-40H72.5z"/>
	<path class="st1_office-work-61" d="M65.4,319.5c-3.3,0-6.3-0.3-8.7-2.6s-3.5-6.5-3.5-12.9s1.1-10.5,3.5-12.9c2.7-2.7,6.4-2.6,10.3-2.6h3.6&#10;&#9;&#9;c1,0,1.8,0.8,1.8,1.9l0,0v27.2c0,1-0.8,1.9-1.8,1.9c0,0,0,0,0,0h-1.9h-1.7L65.4,319.5z M65.4,292.2c-2.6,0-4.7,0.2-6,1.5&#10;&#9;&#9;c-1.6,1.6-2.4,5-2.4,10.2s0.8,8.7,2.4,10.3s4.3,1.6,7.6,1.5h1.8v-23.5H67L65.4,292.2z"/>
</g>
<g id="books_office-work-61">
	<rect x="370.2" y="251.5" class="st3_office-work-61" width="18.7" height="80.6"/>
	<path class="st1_office-work-61" d="M388.9,333.9h-18.7c-1,0-1.9-0.8-1.9-1.9l0,0v-80.6c0-1,0.8-1.9,1.9-1.9l0,0h18.7c1,0,1.9,0.8,1.9,1.8v0v80.6&#10;&#9;&#9;C390.7,333.1,389.9,333.9,388.9,333.9L388.9,333.9z M372.1,330.2h15v-76.9h-15V330.2z"/>
	<rect x="388.9" y="262.1" class="st4_office-work-61" width="21.1" height="70.4"/>
	<path class="st1_office-work-61" d="M410,334.3h-21.1c-1,0-1.9-0.8-1.9-1.9l0,0v-70.4c0-1,0.8-1.9,1.9-1.9l0,0H410c1,0,1.9,0.8,1.9,1.9l0,0v70.4&#10;&#9;&#9;C411.9,333.5,411,334.3,410,334.3L410,334.3z M390.8,330.6h17.4v-66.7h-17.4V330.6z"/>
	<rect x="411.5" y="248.7" class="st5_office-work-61" width="26.8" height="83.8"/>
	<path class="st1_office-work-61" d="M438.2,334.3h-26.8c-1,0-1.9-0.8-1.9-1.9l0,0v-83.8c0-1,0.8-1.9,1.9-1.9l0,0h26.8c1,0,1.9,0.8,1.9,1.8v0v83.8&#10;&#9;&#9;C440.1,333.5,439.3,334.3,438.2,334.3L438.2,334.3z M413.3,330.6h23.1v-80.1h-23.1V330.6z"/>
	<rect x="438.2" y="274.9" class="st6_office-work-61" width="24.5" height="57.2"/>
	<path class="st1_office-work-61" d="M462.7,333.9h-24.5c-1,0-1.9-0.8-1.9-1.8c0,0,0,0,0,0v-57.2c0-1,0.8-1.9,1.8-1.9c0,0,0,0,0,0h24.5&#10;&#9;&#9;c1,0,1.9,0.8,1.9,1.9l0,0v57.2C464.6,333.1,463.7,333.9,462.7,333.9L462.7,333.9z M440.1,330.2h20.8v-53.5h-20.8L440.1,330.2z"/>
	<path class="st1_office-work-61" d="M462.7,295.5h-24.5c-1,0.1-1.9-0.7-2-1.7c-0.1-1,0.7-1.9,1.7-2c0.1,0,0.2,0,0.3,0h24.5c1,0.1,1.8,1,1.7,2&#10;&#9;&#9;C464.4,294.7,463.6,295.4,462.7,295.5z"/>
	<path class="st1_office-work-61" d="M438.2,270.2h-26.8c-1,0-1.9-0.8-1.9-1.9s0.8-1.9,1.9-1.9h26.8c1,0,1.9,0.8,1.9,1.9S439.3,270.2,438.2,270.2z"/>
	<path class="st1_office-work-61" d="M438.2,314.3h-26.8c-1,0-1.9-0.8-1.9-1.9s0.8-1.9,1.9-1.9h26.8c1,0,1.9,0.8,1.9,1.9S439.3,314.3,438.2,314.3z"/>
	<circle class="st1_office-work-61" cx="398.9" cy="278.6" r="3.8"/>
	<path class="st1_office-work-61" d="M398.9,284.2c-3.1,0-5.6-2.5-5.6-5.6s2.5-5.6,5.6-5.6s5.6,2.5,5.6,5.6v0C404.5,281.7,402,284.2,398.9,284.2z&#10;&#9;&#9; M398.9,276.7c-1.1,0-1.9,0.9-1.9,1.9s0.9,1.9,1.9,1.9s1.9-0.9,1.9-1.9S399.9,276.7,398.9,276.7L398.9,276.7z"/>
	<path class="st1_office-work-61" d="M388.9,276.7h-18.7c-1,0-1.9-0.8-1.9-1.9s0.8-1.9,1.9-1.9h18.7c1,0,1.9,0.8,1.9,1.9S389.9,276.7,388.9,276.7z"/>
	<path class="st1_office-work-61" d="M388.9,310.5h-18.7c-1-0.1-1.8-1-1.7-2c0.1-0.9,0.8-1.7,1.7-1.7h18.7c1,0.1,1.8,1,1.7,2&#10;&#9;&#9;C390.5,309.7,389.8,310.5,388.9,310.5z"/>
	<path class="st1_office-work-61" d="M385.6,317.3h-15.4c-1,0-1.9-0.8-1.9-1.9s0.8-1.9,1.9-1.9h15.4c1,0,1.9,0.8,1.9,1.9S386.6,317.3,385.6,317.3&#10;&#9;&#9;L385.6,317.3z"/>
</g>
<g id="notes_office-work-61">
	<rect x="362.7" y="163.2" class="st0_office-work-61" width="36.2" height="36.2"/>
	<path class="st7_office-work-61" d="M398.9,201.3h-36.2c-1,0-1.9-0.8-1.9-1.8v0v-36.2c0-1,0.8-1.9,1.8-1.9c0,0,0,0,0,0h36.2c1,0,1.9,0.8,1.9,1.8&#10;&#9;&#9;c0,0,0,0,0,0v36.2C400.8,200.5,400,201.3,398.9,201.3z M364.6,197.6h32.5v-32.5h-32.5V197.6z"/>
	<path class="st7_office-work-61" d="M380.8,171.6c-1,0-1.9-0.8-1.9-1.8v0v-10.2c0-1,0.8-1.9,1.9-1.9s1.9,0.8,1.9,1.9v10.2&#10;&#9;&#9;C382.7,170.8,381.9,171.6,380.8,171.6L380.8,171.6z"/>
	<rect x="421.2" y="189.3" class="st0_office-work-61" width="32.9" height="32.9"/>
	<path class="st7_office-work-61" d="M454.1,224.1h-32.9c-1,0-1.9-0.8-1.9-1.8v0v-32.9c0-1,0.8-1.9,1.9-1.9l0,0h32.9c1,0,1.9,0.8,1.9,1.8v0v32.9&#10;&#9;&#9;C455.9,223.3,455.1,224.1,454.1,224.1z M423,220.4h29.2v-29.2H423V220.4z"/>
	<path class="st7_office-work-61" d="M437.6,197.1c-1,0-1.9-0.8-1.9-1.8v0V186c0-1,0.8-1.9,1.9-1.9s1.9,0.8,1.9,1.9v9.3&#10;&#9;&#9;C439.5,196.3,438.7,197.1,437.6,197.1C437.6,197.1,437.6,197.1,437.6,197.1z"/>
</g>
<g id="calendar_office-work-61">
	<rect x="38.7" y="169.9" class="st0_office-work-61" width="64.7" height="64.7"/>
	<path class="st7_office-work-61" d="M103.4,236.4H38.7c-1,0-1.8-0.8-1.8-1.9l0,0v-64.6c0-1,0.8-1.9,1.8-1.9c0,0,0,0,0,0h64.7c1,0,1.8,0.8,1.8,1.9&#10;&#9;&#9;l0,0v64.6C105.2,235.5,104.4,236.4,103.4,236.4C103.4,236.4,103.4,236.4,103.4,236.4z M40.6,232.7h61v-60.9h-61L40.6,232.7z"/>
	<rect x="38.7" y="169.9" class="st0_office-work-61" width="64.7" height="14.8"/>
	<path class="st7_office-work-61" d="M103.4,186.5H38.7c-1,0-1.8-0.8-1.8-1.9l0,0v-14.8c0-1,0.8-1.9,1.8-1.9c0,0,0,0,0,0h64.7c1,0,1.8,0.8,1.8,1.9&#10;&#9;&#9;l0,0v14.8C105.2,185.7,104.4,186.5,103.4,186.5C103.4,186.5,103.4,186.5,103.4,186.5z M40.6,182.8h61v-11.1h-61L40.6,182.8z"/>
	<path class="st7_office-work-61" d="M54.3,215.6l8.6-8.4c0.3-0.3,0.5-0.5,0.8-0.8c0.3-0.3,0.5-0.6,0.7-0.9c0.2-0.3,0.4-0.6,0.6-1&#10;&#9;&#9;c0.1-0.3,0.2-0.7,0.2-1.1c0-0.4-0.1-0.8-0.2-1.2c-0.2-0.3-0.4-0.7-0.7-0.9c-0.3-0.3-0.6-0.4-1-0.6c-0.4-0.1-0.8-0.2-1.2-0.2&#10;&#9;&#9;c-0.8,0-1.7,0.3-2.3,0.8c-0.6,0.6-1,1.4-1.1,2.2l-4-0.3c0.1-0.9,0.3-1.9,0.7-2.7c0.4-0.8,0.9-1.5,1.6-2c0.7-0.5,1.4-0.9,2.3-1.2&#10;&#9;&#9;c0.9-0.3,1.8-0.4,2.8-0.4c1,0,1.9,0.1,2.8,0.4c0.8,0.2,1.6,0.6,2.3,1.2c0.7,0.5,1.2,1.2,1.5,2c0.4,0.9,0.6,1.8,0.6,2.8&#10;&#9;&#9;c0,1.3-0.3,2.5-1,3.6c-0.7,1.1-1.5,2-2.5,2.9l-6.9,6.4h10.3v3.4H54.3V215.6z"/>
	<path class="st7_office-work-61" d="M72.9,215.6l8.6-8.4l0.8-0.8c0.3-0.3,0.5-0.6,0.7-0.9c0.2-0.3,0.4-0.6,0.6-1c0.1-0.3,0.2-0.7,0.2-1.1&#10;&#9;&#9;c0-0.4-0.1-0.8-0.3-1.2c-0.2-0.3-0.4-0.7-0.7-0.9c-0.3-0.3-0.6-0.4-1-0.6c-0.4-0.1-0.8-0.2-1.2-0.2c-0.9,0-1.7,0.3-2.3,0.8&#10;&#9;&#9;c-0.6,0.6-1,1.4-1.1,2.2l-4-0.3c0.1-0.9,0.3-1.9,0.7-2.7c0.4-0.8,0.9-1.5,1.6-2c0.7-0.5,1.4-0.9,2.3-1.2c0.9-0.3,1.9-0.4,2.8-0.4&#10;&#9;&#9;c1,0,1.9,0.1,2.8,0.4c0.8,0.2,1.6,0.6,2.3,1.2c0.7,0.5,1.2,1.2,1.5,2c0.4,0.9,0.6,1.8,0.6,2.8c0,1.3-0.3,2.5-1,3.6&#10;&#9;&#9;c-0.7,1.1-1.5,2-2.5,2.9l-6.9,6.4h10.3v3.4H72.9V215.6z"/>
	<path class="st7_office-work-61" d="M51.9,175.5c-1,0-1.9-0.8-1.9-1.8c0,0,0,0,0,0v-9.3c0-1,0.8-1.9,1.8-1.9c1,0,1.9,0.8,1.9,1.9v9.3&#10;&#9;&#9;C53.8,174.7,53,175.5,51.9,175.5C51.9,175.5,51.9,175.5,51.9,175.5z"/>
	<path class="st7_office-work-61" d="M64.7,175.5c-1,0-1.9-0.8-1.9-1.8c0,0,0,0,0,0v-9.3c0-1,0.8-1.9,1.8-1.9s1.9,0.8,1.9,1.8c0,0,0,0,0,0v9.3&#10;&#9;&#9;C66.5,174.7,65.7,175.5,64.7,175.5C64.7,175.5,64.7,175.5,64.7,175.5z"/>
	<path class="st7_office-work-61" d="M77.4,175.5c-1,0-1.9-0.8-1.9-1.8c0,0,0,0,0,0v-9.3c0-1,0.8-1.8,1.9-1.8c1,0,1.8,0.8,1.8,1.8v9.3&#10;&#9;&#9;C79.3,174.7,78.5,175.5,77.4,175.5C77.4,175.5,77.4,175.5,77.4,175.5z"/>
	<path class="st7_office-work-61" d="M90.2,175.5c-1,0-1.9-0.8-1.9-1.8c0,0,0,0,0,0v-9.3c0-1,0.8-1.8,1.9-1.8c1,0,1.8,0.8,1.8,1.8v9.3&#10;&#9;&#9;C92,174.7,91.2,175.5,90.2,175.5C90.2,175.5,90.2,175.5,90.2,175.5z"/>
</g>
<g id="device_office-work-61">
	<path class="st2_office-work-61 targetColor" d="M331,160.6v119.2c0,5.7-4.6,10.4-10.4,10.4l0,0H148.7c-5.7,0-10.4-4.6-10.4-10.4l0,0V160.6&#10;&#9;&#9;c0-5.7,4.6-10.4,10.4-10.4c0,0,0,0,0,0h171.8C326.3,150.2,331,154.8,331,160.6C331,160.6,331,160.6,331,160.6z" style="fill: rgb(104, 225, 253);"/>
	<path class="st1_office-work-61" d="M320.6,292H148.7c-3.4,0-6.6-1.4-8.9-3.9c-2.1-2.3-3.3-5.3-3.3-8.4V160.6c0-6.7,5.5-12.2,12.2-12.2h171.8&#10;&#9;&#9;c6.7,0,12.2,5.5,12.2,12.2v119.2C332.8,286.5,327.3,292,320.6,292z M148.7,152.1c-4.7,0-8.5,3.8-8.5,8.5v119.2&#10;&#9;&#9;c0,2.2,0.8,4.3,2.3,5.8c1.6,1.7,3.9,2.7,6.2,2.7h171.8c4.7,0,8.5-3.8,8.5-8.5V160.6c0-4.7-3.8-8.5-8.5-8.5H148.7z"/>
	<rect x="148.7" y="159.8" class="st0_office-work-61" width="171.8" height="101.8"/>
	<path class="st1_office-work-61" d="M320.6,263.4H148.7c-1,0-1.9-0.8-1.9-1.9l0,0V159.8c0-1,0.8-1.9,1.8-1.9c0,0,0,0,0,0h171.8&#10;&#9;&#9;c1,0,1.9,0.8,1.9,1.8c0,0,0,0,0,0v101.8C322.4,262.6,321.6,263.4,320.6,263.4L320.6,263.4z M150.6,259.7h168.1v-98.1H150.6&#10;&#9;&#9;L150.6,259.7z"/>
	<polygon class="st2_office-work-61 targetColor" points="271.3,332.5 198,332.5 205.8,290.2 263.5,290.2 &#9;" style="fill: rgb(104, 225, 253);"/>
	<path class="st1_office-work-61" d="M271.3,334.3H198c-1,0-1.9-0.8-1.8-1.9c0-0.1,0-0.2,0-0.3l7.8-42.3c0.2-0.9,0.9-1.5,1.8-1.5h57.8&#10;&#9;&#9;c0.9,0,1.7,0.6,1.8,1.5l7.8,42.3c0.2,1-0.5,2-1.5,2.2C271.5,334.3,271.4,334.3,271.3,334.3L271.3,334.3z M200.2,330.6h68.8L262,292&#10;&#9;&#9;h-54.7L200.2,330.6z"/>
	<path class="st7_office-work-61" d="M233.3,253h-60.6c-1,0-1.9-0.8-1.9-1.8v0v-47c0-1,0.8-1.9,1.8-1.9h0h60.6c1,0,1.9,0.8,1.9,1.8v0v47&#10;&#9;&#9;C235.2,252.2,234.3,253,233.3,253L233.3,253z M174.6,249.3h56.9V206h-56.9L174.6,249.3z"/>
	<path class="st7_office-work-61" d="M172.7,243.4c-1,0-1.8-0.9-1.8-1.9c0-0.6,0.3-1.2,0.8-1.5l22.7-15c0.8-0.5,1.8-0.4,2.4,0.4l6.9,8.4l17-16.4&#10;&#9;&#9;c0.7-0.7,1.9-0.7,2.6,0.1c0.7,0.7,0.7,1.9,0,2.6l-18.5,17.8c-0.4,0.4-0.9,0.6-1.4,0.5c-0.5,0-1-0.3-1.3-0.7L195,229l-21.3,14.1&#10;&#9;&#9;C173.4,243.3,173.1,243.4,172.7,243.4z"/>
	<path class="st7_office-work-61" d="M223.6,229h-0.1c-1-0.1-1.8-0.9-1.7-1.9c0,0,0,0,0-0.1l0.6-9h-9.2c-1,0-1.8-0.8-1.8-1.9c0-1,0.8-1.8,1.8-1.8&#10;&#9;&#9;h11.1c1,0,1.9,0.8,1.9,1.9c0,0,0,0.1,0,0.1l-0.7,11C225.4,228.3,224.6,229,223.6,229z"/>
	<path class="st7_office-work-61" d="M296.6,211.1H249c-1,0-1.8-0.8-1.8-1.9c0-1,0.8-1.8,1.8-1.8h47.6c1,0,1.9,0.8,1.9,1.8&#10;&#9;&#9;C298.4,210.3,297.6,211.1,296.6,211.1C296.6,211.1,296.6,211.1,296.6,211.1L296.6,211.1z"/>
	<path class="st7_office-work-61" d="M287,221.7h-38c-1,0-1.8-0.8-1.8-1.9c0-1,0.8-1.8,1.8-1.8h38c1,0,1.8,0.8,1.8,1.9&#10;&#9;&#9;C288.8,220.9,288,221.7,287,221.7z"/>
	<path class="st7_office-work-61" d="M296.6,235.2H249c-1,0-1.9-0.8-1.9-1.8s0.8-1.9,1.8-1.9c0,0,0,0,0,0h47.6c1,0,1.9,0.8,1.9,1.8&#10;&#9;&#9;C298.4,234.4,297.6,235.2,296.6,235.2C296.6,235.2,296.6,235.2,296.6,235.2L296.6,235.2z"/>
	<path class="st7_office-work-61" d="M275.4,245.8H249c-1,0-1.8-0.8-1.8-1.9c0-1,0.8-1.8,1.8-1.8h26.4c1,0,1.8,0.8,1.8,1.9&#10;&#9;&#9;C277.3,245,276.5,245.8,275.4,245.8L275.4,245.8z"/>
	<path class="st7_office-work-61" d="M296.6,197.4H172.7c-1,0-1.9-0.8-1.9-1.8v0v-12.4c0-1,0.8-1.9,1.8-1.9h0h123.9c1,0,1.9,0.8,1.9,1.8v0v12.4&#10;&#9;&#9;C298.4,196.6,297.6,197.4,296.6,197.4L296.6,197.4z M174.6,193.7h120.2V185H174.6L174.6,193.7z"/>
	<circle class="st1_office-work-61" cx="234.6" cy="274.9" r="4.5"/>
	<path class="st1_office-work-61" d="M234.6,281.2c-3.5,0-6.4-2.8-6.4-6.4c0-3.5,2.8-6.4,6.4-6.4s6.4,2.8,6.4,6.4c0,0,0,0,0,0&#10;&#9;&#9;C241,278.4,238.2,281.2,234.6,281.2z M234.6,272.2c-1.5,0-2.7,1.2-2.7,2.7c0,1.5,1.2,2.7,2.7,2.7c1.5,0,2.7-1.2,2.7-2.7&#10;&#9;&#9;C237.3,273.4,236.1,272.2,234.6,272.2C234.7,272.2,234.7,272.2,234.6,272.2L234.6,272.2z"/>
	<path class="st2_office-work-61 targetColor" d="M183.1,320.2h103c1.5,0,2.6,1.2,2.6,2.6v6.6c0,1.5-1.2,2.6-2.6,2.6h-103c-1.5,0-2.6-1.2-2.6-2.6v-6.6&#10;&#9;&#9;C180.5,321.4,181.7,320.2,183.1,320.2z" style="fill: rgb(104, 225, 253);"/>
	<path class="st1_office-work-61" d="M283.9,333.9h-98.5c-3.7,0-6.7-3-6.7-6.7v-2.1c0-3.7,3-6.7,6.7-6.7h98.5c3.7,0,6.7,3,6.7,6.7v2.1&#10;&#9;&#9;C290.6,330.9,287.6,333.9,283.9,333.9z M185.4,322.1c-1.7,0-3,1.3-3,3v2.1c0,1.7,1.3,3,3,3h98.6c1.7,0,3-1.3,3-3v-2.1&#10;&#9;&#9;c0-1.7-1.3-3-3-3H185.4z"/>
</g>
</svg>