<?xml version="1.0"?><svg id="Layer_1" style="enable-background:new 0 0 70.151321 75.669472;" version="1.1" viewBox="0 0 70.151321 75.669472" xml:space="preserve" xmlns="http://www.w3.org/2000/svg" xmlns:xlink="http://www.w3.org/1999/xlink"><style type="text/css">
	.st0{opacity:0.5;fill:#231F20;enable-background:new    ;}
	.st1{fill:#FFFFFF;}
	.st2{fill:#22093A;stroke:#22093A;stroke-linecap:round;stroke-linejoin:round;}
	.st3{fill:#FCC707;stroke:#22093A;stroke-linecap:round;stroke-linejoin:round;}
	.st4{fill:none;stroke:#22093A;stroke-linecap:round;stroke-linejoin:round;}
	.st5{fill:none;stroke:#FFFFFF;stroke-linecap:round;stroke-linejoin:round;}
	.st6{fill:#35CCAD;stroke:#22093A;stroke-linecap:round;stroke-linejoin:round;}
</style><g id="Layer_2_00000085229774773510653280000005005917250105545902_"><g id="Layer_1-2"><path class="st0" d="M69.299156,31.982c-0.515396-1.930252-1.652901-3.636692-3.236328-4.855    c-1.229836-0.993662-2.740723-1.575918-4.319328-1.664551c-0.076168-0.244633-0.158833-0.489748-0.248001-0.73535    c-2.2481-7.2271-9.294968-13.7461-17.295948-12.18165c-1.966862,0.393157-3.809746,1.255302-5.37207,2.51318    C37.172211,10.12992,32.635101,1.273,26.48764,0.92972c-3.856449-0.206-5.93652,1.46827-7.02149,2.91749    c-1.13814,1.649079-1.731012,3.613305-1.695311,5.61669c-0.13867,0.002-0.279289,0.00831-0.41992,0.01905    c-1.813527,0.146656-3.481102,1.051359-4.59277,2.4917c-2.166,2.67382-2.09473,6.35693-1.584,9.1455    c-0.445026,0.254297-0.857268,0.562088-1.22754,0.91651c-1.245269,1.207621-1.916628,2.888863-1.8457,4.62207    c0.01876,0.973927,0.217753,1.935953,0.58691,2.8374c0.568757,1.611244,1.401036,3.116899,2.4629,4.455568    c1.50145,1.981686,2.701606,4.174503,3.561529,6.507301c0.32129,1.050289,0.6875,2.536129,1.041,4.098148    c-1.163165-0.300159-2.370493-0.39077-3.56543-0.267578c-7.03222,0.78125-11.39355,6.742191-11.11132,15.186001    c0.18945,5.642578,2.5,8.849609,4.50488,10.581062c2.35275,2.650459,5.829329,4.018661,9.35742,3.68261    c1.868559-0.194717,3.66674-0.819061,5.25391-1.824211c0.312788,0.522392,0.704458,0.993286,1.161129,1.396004    c0.669353,1.023026,1.682514,1.772942,2.856449,2.114258c1.644794,0.478661,3.414997,0.244637,4.878901-0.644997    c0.874443-0.538353,1.632456-1.246063,2.22949-2.081543l0.040001,0.038567c0.911598,1.357162,2.299934,2.322174,3.889698,2.703682    c1.654686,0.354439,3.382061,0.080292,4.845699-0.769051c1.028049,0.651772,2.220253,0.997749,3.4375,0.997559    c3.088604,0.00235,5.72982-2.220512,6.25489-5.26416c9.480469-3.328117,13.233398-10.27,15.125-13.76807    C66.517906,53.665081,72.305,40.011761,69.299156,31.982z"/><path class="st1" d="M68.23558,31.06954c-0.515396-1.930252-1.652908-3.63669-3.236328-4.855    c-1.229843-0.993652-2.740734-1.575903-4.319344-1.664541c-0.076168-0.244633-0.158833-0.48975-0.248001-0.73535    c-2.248051-7.226999-9.29493-13.74609-17.295898-12.18164c-1.966873,0.393155-3.809776,1.255303-5.372108,2.51319    C36.10862,9.21749,31.57151,0.36056,25.424049,0.0173c-3.85644-0.20606-5.93652,1.46826-7.021481,2.91748    c-1.138145,1.64908-1.731018,3.613312-1.695311,5.6167c-0.13868,0.002-0.279301,0.0083-0.41993,0.019    c-1.813524,0.146664-3.481096,1.051366-4.59277,2.4917c-2.166,2.67383-2.09473,6.356929-1.584,9.145511    c-0.445025,0.254295-0.857267,0.562082-1.22754,0.9165C7.637747,22.331823,6.966392,24.013081,7.03733,25.7463    c0.018758,0.973927,0.217755,1.935955,0.58692,2.8374c0.568758,1.611242,1.401032,3.116896,2.46289,4.455568    c1.501453,1.981689,2.701609,4.174519,3.561521,6.507332c0.32129,1.050289,0.6875,2.536129,1.041,4.098141    c-1.163165-0.300159-2.370493-0.39077-3.56543-0.267578C4.092,44.158409-0.26931,50.11935,0.01292,58.563202    c0.18945,5.64257,2.5,8.849609,4.50488,10.581001c2.352752,2.650459,5.829337,4.018669,9.357431,3.682617    c1.868556-0.194717,3.666735-0.819069,5.253901-1.824219c0.312792,0.522392,0.70446,0.993286,1.161129,1.396004    c0.669353,1.023026,1.682514,1.772934,2.856449,2.11425c1.644796,0.478661,3.415005,0.244644,4.87891-0.644997    c0.874445-0.538353,1.632458-1.246063,2.22949-2.081543l0.040001,0.038582c0.911594,1.357124,2.299913,2.322121,3.88965,2.703613    c1.654678,0.354454,3.382053,0.080322,4.845699-0.768997c1.028053,0.651764,2.220253,0.997734,3.4375,0.997551    c3.088608,0.002365,5.729828-2.220505,6.254879-5.26416c9.480469-3.328117,13.233398-10.27,15.125-13.768059    C65.45433,52.752651,71.24144,39.099331,68.23558,31.06954z"/><path class="st2" d="M63.162201,29.778c-5.308102-3.94842-6.05719,5.140259-9.367611,8.962158    c-3.470001,4.0061-7.23468,2.985722-9.02552-1.713871c-1.72662-4.530941-1.618-10.364,3.282902-9.6499    c3.765442,0.54871,5.006531,8.754,8.103939,5.912001c5.349998-4.90876-2.60107-19.31958-12.096741-17.465269    c-3.514503,0.582737-6.477139,2.942745-7.830872,6.238001l0.11652-0.77606c-0.331833,0.895281-0.605614,1.811018-0.819641,2.74152    c-0.057621,0.192261-0.032539,0.12262,0.071468-0.31995C37.01614,17.6661,30.45676,4.545,25.480379,4.26718    c-8.04248-0.449-4.012819,10.908381-4.012819,10.908381s-0.1311-0.13879-0.35071-0.34277    c-0.052851-0.062-0.08905-0.10364-0.08905-0.10364l0.011999,0.03266c-1.12225-1.02009-4.22448-3.39472-6.373711-0.74128    c-2.48578,3.068911,0.003,9.415531,0.003,9.415531s-3.93378-0.237551-3.88007,3.00909    c0.05371,3.24671,3.92761,5.32844,6.290649,12.298592c1.135799,3.350342,2.87079,12.6264,2.87079,12.6264    c1.601191,6.557308,8.527649,18.469486,22.996212,15.996708c11.300598-1.931396,15.336491-8.71521,17.819889-13.308109    C63.149078,49.652431,68.812592,33.980999,63.162201,29.778z"/><path class="st3" d="M19.69611,50.614159c1.601191,6.557281,8.527641,18.469482,22.99622,15.996689    C53.993,64.679482,58.028801,57.89563,60.51223,53.302738c2.382549-4.406319,8.046089-20.077679,2.39566-24.280701    c-5.308109-3.948391-6.057152,5.140259-9.36758,8.962162c-3.470001,4.006088-7.234692,2.985699-9.02552-1.71384    c-1.726601-4.531-1.618-10.364,3.282921-9.64991c3.76545,0.54867,5.006489,8.754002,8.103931,5.911999    c5.349998-4.908751-2.60112-19.319559-12.09676-17.46526C37.00742,16.394581,34.701,25.68,35.342388,22.950649    c1.419498-6.040531-5.1399-19.16161-10.11632-19.43944c-8.042471-0.449-4.012791,10.90836-4.012791,10.90836    s-4.13608-4.44582-6.801519-1.15505c-2.48577,3.069,0.003,9.41552,0.003,9.41552s-3.93375-0.23752-3.88005,3.00915    s3.92762,5.32839,6.29065,12.29859C17.96117,41.338112,19.69611,50.614159,19.69611,50.614159z"/><path class="st4" d="M14.41474,22.68c1.517,1.06192,3.47616,3.961,4.636909,5.926941    c2.065701,3.498711,3.764339,9.91938,3.764339,9.91938"/><path class="st4" d="M20.77354,13.97318c1.921682,2.256267,3.41049,4.847791,4.39163,7.644389    c2.296089,7.34716,2.55028,9.14226,2.99423,12.541901"/><path class="st4" d="M36.090561,20.52907c-1.17635,3.271725-1.697559,6.742916-1.533939,10.215841"/><path class="st5" d="M16.919609,14.559c-0.83544-0.11392-2.504869,1.784809-1.21519,5.468359"/><path class="st5" d="M19.436831,40.30917c0.17152,0.82338,0.31349,1.62571,0.43392,2.389"/><path class="st5" d="M12.5045,26.29805c0.591396,1.428387,1.416113,2.748535,2.44043,3.906469"/><path class="st5" d="M45.93227,17.10326c-1.74942-0.56962-6.471119,1.29114-8.240501,6.68354"/><path class="st5" d="M37.0462,25.951361c-0.219376,1.037363-0.346455,2.092115-0.379749,3.151899"/><path class="st5" d="M58.065182,33.96957c0.626591-1.923279,2.29747-4.14864,3.379749-3.499229"/><path class="st5" d="M44.508221,41.00832c1.366829,1.885517,3.850044,2.584904,6,1.689869"/><path class="st5" d="M23.658091,5.90072c-2.8081,1.29742-2.08707,4.71654-0.165001,8.07246"/><path class="st2" d="M12.53057,47.85413c3.71584-0.412998,9.575761,2.91634,9.579091,10.183399    s-4.529751,10.885361-8.597,11.307251c-3.66978,0.380661-8.72251-2.169167-8.98182-9.901001    C4.31839,53.10944,7.07275,48.46067,12.53057,47.85413z"/><path class="st2" d="M13.40413,53.436741c0.52379-0.30434,1.355,1.059582,1.36481,4.425751s-0.62511,5.18018-1.19847,5.499359    c-0.51733,0.287998-1.23358-0.739441-1.28016-4.313099C12.25215,56.120998,12.63479,53.883759,13.40413,53.436741z"/><path class="st2" d="M24.62191,50.629532c-3.292881,0.742161-4.1861,19.501999-0.544821,20.509064    c4.284521,1.184998,5.52422-7.444,5.52422-7.444s3.2241,7.056999,5.159239,7.38134    c5.13979,0.86158,4.615662-5.474998-0.534161-10.972851c0,0,8.173378-6.406719,3.061901-9.00412    c-3.539631-1.79866-7.540751,7.206799-7.540751,7.206799S29.225109,49.592049,24.62191,50.629532z"/><path class="st2" d="M45.244228,50.424091c-1.64072-0.032719-3.670208,0.772999-4.693592,7.685909    c-0.9137,6.171997,1.512119,6.48185,2.140652,6.494377s4.310322,0.403526,5.05994-6.350792    S47.675259,50.472569,45.244228,50.424091z"/><circle class="st2" cx="42.456669" cy="68.382103" r="2.876411"/><path class="st6" d="M11.50867,46.855c3.71584-0.412998,9.575761,2.91634,9.579091,10.183392s-4.529751,10.885368-8.597,11.307259    c-3.66978,0.380661-8.72251-2.169167-8.98182-9.901001C3.29649,52.110271,6.05085,47.461498,11.50867,46.855z"/><path class="st2" d="M12.38223,52.437569c0.52378-0.30434,1.355,1.059582,1.36481,4.425751s-0.62511,5.18018-1.19847,5.499352    c-0.51733,0.287998-1.23358-0.739429-1.28016-4.313091C11.23025,55.121811,11.61289,52.88459,12.38223,52.437569z"/><path class="st6" d="M23.67021,49.560108c-3.292879,0.742161-4.18611,19.502003-0.54483,20.50906    c4.284521,1.184998,5.524229-7.444,5.524229-7.444s3.224091,7.056953,5.159229,7.38134    c5.13979,0.86158,4.615662-5.474998-0.534149-10.972862c0,0,8.173378-6.406719,3.061901-9.004112    c-3.539631-1.79866-7.54076,7.206799-7.54076,7.206799S28.273411,48.522621,23.67021,49.560108z"/><path class="st6" d="M44.277908,49.36871c-1.64072-0.032719-3.670212,0.772999-4.693581,7.685909    c-0.913712,6.172001,1.512112,6.48185,2.140652,6.494381s4.31031,0.40353,5.059929-6.350788    S46.708939,49.417191,44.277908,49.36871z"/><circle class="st6" cx="41.85717" cy="67.526711" r="2.876411"/><path class="st5" d="M10.78843,48.907051c-2.41312,0-5.94476,3.489128-5.37514,9.693581"/><path class="st5" d="M22.7938,59.826809c-0.107183,1.925999-0.002625,3.857941,0.3118,5.76112    c0.66917,3.291847,1.65048,1.793571,1.65048,1.793571"/><path class="st5" d="M43.549358,51.071609c-0.478748,0.16394-1.88982,2.364811-2.26778,5.335541s-0.251999,3.872398,0,4.746738"/><path class="st5" d="M41.157001,66.508324c-0.523098,0.350616-0.662922,1.058899-0.312309,1.581993    c0.029865,0.044563,0.06284,0.086952,0.098671,0.126869"/><path class="st5" d="M5.6981,60.790459c0.141659,0.93811,0.492037,1.832478,1.02531,2.617168"/></g></g></svg>