<svg version="1.1" id="Layer_1" xmlns="http://www.w3.org/2000/svg" xmlns:xlink="http://www.w3.org/1999/xlink" x="0px" y="0px" viewBox="0 0 500 500" style="width: 188px;" xml:space="preserve" data-imageid="online-payment-40" imageName="Online Payment" class="illustrations_image">
<style type="text/css">
	.st0_online-payment-40{fill:#FFC9B0;}
	.st1_online-payment-40{fill:#093F68;}
	.st2_online-payment-40{fill:#FFFFFF;}
	.st3_online-payment-40{fill:#68E1FD;}
	.st4_online-payment-40{fill:#DFEAEF;}
	.st5_online-payment-40{fill:#FFBC0E;}
</style>
<g id="hand-1_online-payment-40">
	<path class="st0_online-payment-40" d="M265.7,415.6V370c0-9.2-49.3-58.8-49.3-58.8l46.5-84.6c0,0,83.7,39.6,96.4,71.1s5.2,117.9,5.2,117.9&#10;&#9;&#9;L265.7,415.6z"/>
	<path class="st1_online-payment-40" d="M364.4,417.4h-98.7c-1,0-1.8-0.8-1.8-1.8V370c0-6.1-29.9-38.5-48.8-57.5c-0.6-0.6-0.7-1.5-0.3-2.2l46.5-84.6&#10;&#9;&#9;c0.5-0.9,1.5-1.2,2.4-0.8c0.2,0.1,21.3,10.1,43.6,23.8c30.2,18.6,48.3,34.8,53.6,48.3c12.6,31.6,5.6,115.2,5.3,118.7&#10;&#9;&#9;C366.1,416.7,365.3,417.4,364.4,417.4z M267.5,413.8h95.1c0.9-12.1,6.2-87-5.2-115.4c-11.3-28.2-82.5-63.8-93.9-69.4l-45,81.9&#10;&#9;&#9;c10.1,10.2,48.9,50,48.9,59.1L267.5,413.8z"/>
</g>
<g id="device_online-payment-40">
	<path class="st2_online-payment-40" d="M147.6,85.7h140.5c7.8,0,14.1,6.3,14.1,14.1v264c0,7.8-6.3,14.1-14.1,14.1H147.6c-7.8,0-14.1-6.3-14.1-14.1&#10;&#9;&#9;v-264C133.4,92.1,139.8,85.7,147.6,85.7z"/>
	<path class="st1_online-payment-40" d="M286.9,379.8H148.8c-9.5,0-17.2-7.7-17.2-17.2V101.1c0-9.5,7.7-17.2,17.2-17.2h138.1c9.5,0,17.1,7.7,17.2,17.2&#10;&#9;&#9;v261.6C304.1,372.1,296.4,379.8,286.9,379.8z M148.8,87.6c-7.5,0-13.5,6-13.5,13.5v261.6c0,7.5,6.1,13.5,13.5,13.5h138.1&#10;&#9;&#9;c7.5,0,13.5-6.1,13.5-13.5V101.1c0-7.5-6.1-13.5-13.5-13.5H148.8z"/>
	<circle class="st2_online-payment-40" cx="216.9" cy="356.3" r="10.3"/>
	<path class="st1_online-payment-40" d="M216.9,368.5c-6.7,0-12.2-5.4-12.2-12.1s5.4-12.2,12.1-12.2s12.2,5.4,12.2,12.1c0,0,0,0,0,0&#10;&#9;&#9;C229,363,223.6,368.4,216.9,368.5z M216.9,347.8c-4.7,0-8.5,3.8-8.5,8.5s3.8,8.5,8.5,8.5s8.5-3.8,8.5-8.5l0,0&#10;&#9;&#9;C225.4,351.6,221.6,347.8,216.9,347.8z"/>
	<rect x="133.4" y="108.1" class="st3_online-payment-40 targetColor" width="168.8" height="227.6" style="fill: rgb(104, 225, 253);"/>
	<path class="st1_online-payment-40" d="M302.2,337.5H133.4c-1,0-1.8-0.8-1.8-1.8c0,0,0,0,0,0V108.1c0-1,0.8-1.8,1.8-1.8l0,0h168.8&#10;&#9;&#9;c1,0,1.8,0.8,1.8,1.8c0,0,0,0,0,0v227.6C304.1,336.7,303.3,337.5,302.2,337.5C302.3,337.5,302.3,337.5,302.2,337.5z M135.2,333.9&#10;&#9;&#9;h165.2v-224H135.2V333.9z"/>
	<path class="st1_online-payment-40" d="M209.4,99.1H206c-1,0.1-1.9-0.7-2-1.7s0.7-1.9,1.7-2c0.1,0,0.2,0,0.3,0h3.4c1,0.1,1.8,1,1.7,2&#10;&#9;&#9;C211.1,98.3,210.3,99,209.4,99.1L209.4,99.1z"/>
	<path class="st1_online-payment-40" d="M229.7,99.1h-15.5c-1-0.1-1.8-1-1.7-2c0.1-0.9,0.8-1.6,1.7-1.7h15.5c1,0.1,1.8,1,1.7,2&#10;&#9;&#9;C231.3,98.3,230.6,99,229.7,99.1z"/>
</g>
<g id="bill_online-payment-40">
	<polygon class="st2_online-payment-40" points="278.9,123 278.9,335.7 156.8,335.7 156.8,123 167,129.7 177.1,123 187.3,129.7 197.5,123 207.7,129.7 &#10;&#9;&#9;217.9,123 228,129.7 238.2,123 248.4,129.7 258.6,123 268.7,129.7 &#9;"/>
	<path class="st1_online-payment-40" d="M278.9,337.5H156.8c-1,0-1.8-0.8-1.8-1.8c0,0,0,0,0,0V123c0-0.7,0.4-1.3,0.9-1.6c0.6-0.3,1.3-0.3,1.9,0.1&#10;&#9;&#9;l9.2,6l9.2-6c0.6-0.4,1.4-0.4,2,0l9.2,6l9.2-6c0.6-0.4,1.4-0.4,2,0l9.2,6l9.2-6c0.6-0.4,1.4-0.4,2,0l9.2,6l9.2-6&#10;&#9;&#9;c0.6-0.4,1.4-0.4,2,0l9.2,6l9.2-6c0.6-0.4,1.4-0.4,2,0l9.2,6l9.1-6c0.8-0.6,2-0.3,2.5,0.5c0.2,0.3,0.3,0.6,0.3,1v212.7&#10;&#9;&#9;C280.7,336.7,279.9,337.5,278.9,337.5z M158.6,333.9h118.5V126.4l-7.3,4.8c-0.6,0.4-1.4,0.4-2,0l-9.2-6l-9.2,6&#10;&#9;&#9;c-0.6,0.4-1.4,0.4-2,0l-9.2-6l-9.2,6c-0.6,0.4-1.4,0.4-2,0l-9.2-6l-9.2,6c-0.6,0.4-1.4,0.4-2,0l-9.2-6l-9.2,6c-0.6,0.4-1.4,0.4-2,0&#10;&#9;&#9;l-9.2-6l-9.2,6c-0.6,0.4-1.4,0.4-2,0l-7.4-4.8L158.6,333.9z"/>
	<path class="st4_online-payment-40" d="M251.4,147.7h-59.8c-1,0-1.8-0.8-1.8-1.8c0-1,0.8-1.8,1.8-1.8h59.8c1,0,1.8,0.8,1.8,1.8&#10;&#9;&#9;S252.5,147.7,251.4,147.7C251.5,147.7,251.5,147.7,251.4,147.7z"/>
	<path class="st4_online-payment-40" d="M218.7,161.9h-45.2c-1,0-1.8-0.8-1.8-1.8s0.8-1.8,1.8-1.8c0,0,0,0,0,0h45.2c1,0,1.8,0.8,1.8,1.8&#10;&#9;&#9;S219.7,161.9,218.7,161.9C218.7,161.9,218.7,161.9,218.7,161.9z"/>
	<path class="st4_online-payment-40" d="M265.8,161.9h-20.4c-1,0-1.8-0.8-1.8-1.8s0.8-1.8,1.8-1.8c0,0,0,0,0,0h20.4c1,0,1.8,0.8,1.8,1.8&#10;&#9;&#9;S266.8,161.9,265.8,161.9C265.8,161.9,265.8,161.9,265.8,161.9z"/>
	<path class="st4_online-payment-40" d="M218.7,180.6h-45.2c-1,0.1-1.9-0.7-2-1.7c-0.1-1,0.7-1.9,1.7-2c0.1,0,0.2,0,0.3,0h45.2c1,0.1,1.8,1,1.7,2&#10;&#9;&#9;C220.3,179.9,219.6,180.6,218.7,180.6z"/>
	<path class="st4_online-payment-40" d="M265.8,180.6h-20.4c-1,0.1-1.9-0.7-2-1.7c-0.1-1,0.7-1.9,1.7-2c0.1,0,0.2,0,0.3,0h20.4c1-0.1,1.9,0.7,2,1.7&#10;&#9;&#9;c0.1,1-0.7,1.9-1.7,2C266,180.6,265.9,180.6,265.8,180.6z"/>
	<path class="st4_online-payment-40" d="M218.7,199.4h-45.2c-1,0-1.8-0.8-1.8-1.8s0.8-1.8,1.8-1.8c0,0,0,0,0,0h45.2c1,0,1.8,0.8,1.8,1.8&#10;&#9;&#9;S219.7,199.4,218.7,199.4C218.7,199.4,218.7,199.4,218.7,199.4z"/>
	<path class="st4_online-payment-40" d="M265.8,199.4h-20.4c-1,0-1.8-0.8-1.8-1.8s0.8-1.8,1.8-1.8c0,0,0,0,0,0h20.4c1,0,1.8,0.8,1.8,1.8&#10;&#9;&#9;S266.8,199.4,265.8,199.4C265.8,199.4,265.8,199.4,265.8,199.4z"/>
	<path class="st4_online-payment-40" d="M218.7,218.1h-45.2c-1,0.1-1.9-0.7-2-1.7c-0.1-1,0.7-1.9,1.7-2c0.1,0,0.2,0,0.3,0h45.2c1,0.1,1.8,1,1.7,2&#10;&#9;&#9;C220.3,217.3,219.6,218.1,218.7,218.1z"/>
	<path class="st4_online-payment-40" d="M265.8,218.1h-20.4c-1,0.1-1.9-0.7-2-1.7c-0.1-1,0.7-1.9,1.7-2c0.1,0,0.2,0,0.3,0h20.4c1-0.1,1.9,0.7,2,1.7&#10;&#9;&#9;c0.1,1-0.7,1.9-1.7,2C266,218.1,265.9,218.1,265.8,218.1z"/>
	<path class="st4_online-payment-40" d="M265.8,236.5h-96c-1-0.1-1.8-1-1.7-2c0.1-0.9,0.8-1.6,1.7-1.7h96c1-0.1,1.9,0.7,2,1.7c0.1,1-0.7,1.9-1.7,2&#10;&#9;&#9;C266,236.5,265.9,236.5,265.8,236.5z"/>
	<path class="st4_online-payment-40" d="M265.8,251.8h-20.4c-1,0.1-1.9-0.7-2-1.7c-0.1-1,0.7-1.9,1.7-2c0.1,0,0.2,0,0.3,0h20.4c1-0.1,1.9,0.7,2,1.7&#10;&#9;&#9;c0.1,1-0.7,1.9-1.7,2C266,251.8,265.9,251.8,265.8,251.8z"/>
	<path class="st5_online-payment-40" d="M188,264.1h59.6c8.5,0,15.3,6.9,15.3,15.3v8c0,8.5-6.9,15.3-15.3,15.3H188c-8.5,0-15.3-6.9-15.3-15.3v-8&#10;&#9;&#9;C172.7,271,179.5,264.1,188,264.1z"/>
	<path class="st1_online-payment-40" d="M247.6,304.6h-59.5c-9.5,0-17.2-7.7-17.2-17.2v-7.8c0-9.5,7.7-17.2,17.2-17.2h59.5c9.5,0,17.2,7.7,17.2,17.2&#10;&#9;&#9;v7.8C264.8,296.8,257.1,304.6,247.6,304.6z M188.1,265.9c-7.5,0-13.6,6.1-13.6,13.6v7.8c0,7.5,6.1,13.6,13.6,13.6h59.5&#10;&#9;&#9;c7.5,0,13.6-6.1,13.6-13.6v-7.8c0-7.5-6.1-13.6-13.6-13.6H188.1z"/>
	<path class="st1_online-payment-40" d="M198.6,275.2h6.1c0.8,0,1.6,0.1,2.4,0.2c0.7,0.1,1.4,0.4,2,0.8c0.6,0.4,1,0.9,1.4,1.5c0.4,0.8,0.5,1.6,0.5,2.4&#10;&#9;&#9;c0,0.8-0.1,1.7-0.5,2.4c-0.3,0.6-0.7,1.2-1.3,1.6c-0.6,0.4-1.2,0.7-1.9,0.8c-0.8,0.2-1.6,0.3-2.4,0.2h-2.6v6.4h-3.7V275.2z&#10;&#9;&#9; M202.2,282.2h2.4c0.3,0,0.6,0,0.9-0.1c0.3-0.1,0.6-0.2,0.8-0.3c0.2-0.1,0.4-0.4,0.6-0.6c0.2-0.3,0.2-0.7,0.2-1&#10;&#9;&#9;c0-0.4-0.1-0.7-0.3-1c-0.2-0.3-0.5-0.5-0.8-0.6c-0.3-0.1-0.7-0.2-1-0.3c-0.4,0-0.7-0.1-1.1,0h-1.9L202.2,282.2z"/>
	<path class="st1_online-payment-40" d="M217,275.2h3l7.2,16.5h-4.1l-1.4-3.5h-6.4l-1.4,3.5h-4L217,275.2z M218.4,280l-2,5.1h4L218.4,280z"/>
	<path class="st1_online-payment-40" d="M231.1,284.6l-6.2-9.5h4.5l3.5,6.2l3.7-6.2h4.4l-6.2,9.5v7h-3.6L231.1,284.6z"/>
</g>
<g id="hand-2_online-payment-40">
	<path class="st0_online-payment-40" d="M340.9,342.3c0,0-59.9-68.4-74.3-66.8s-24,14.2-18.2,28.9s54.5,59.9,54.5,59.9c-10.3,7.3-17.8,17.8-21.4,29.8"/>
	<path class="st1_online-payment-40" d="M281.6,395.8c-0.2,0-0.3,0-0.5-0.1c-1-0.3-1.5-1.3-1.2-2.2c3.5-11.7,10.6-22,20.3-29.5&#10;&#9;&#9;c-8.7-8.1-47.9-45.5-53.3-59c-2.8-7.1-2.4-14.2,1.1-20.1c3.7-6.2,10.5-10.3,18.6-11.2c0.2,0,0.4,0,0.6,0&#10;&#9;&#9;c15.8,0,69.1,60.5,75.2,67.4c0.7,0.8,0.6,1.9-0.2,2.6c-0.8,0.7-1.9,0.6-2.6-0.2l0,0c-22.9-26.2-62.9-67.3-72.7-66.2&#10;&#9;&#9;c-6.9,0.8-12.7,4.2-15.9,9.5c-2.9,4.9-3.2,10.9-0.8,16.9c5.7,14.1,53.6,58.7,54,59.2c0.7,0.7,0.8,1.9,0.1,2.6&#10;&#9;&#9;c-0.1,0.1-0.2,0.2-0.3,0.3c-9.9,7-17.1,17.1-20.6,28.7C283.1,395.2,282.4,395.8,281.6,395.8z"/>
</g>
</svg>