<?xml version="1.0"?><svg id="Layer_1" style="enable-background:new 0 0 74.616447 82.197128;" version="1.1" viewBox="0 0 74.616447 82.197128" xml:space="preserve" xmlns="http://www.w3.org/2000/svg" xmlns:xlink="http://www.w3.org/1999/xlink"><style type="text/css">
	.st0{opacity:0.5;fill:#231F20;enable-background:new    ;}
	.st1{fill:#FFFFFF;}
	.st2{fill:#22093A;stroke:#22093A;stroke-linecap:round;stroke-linejoin:round;}
	.st3{fill:#FD32B0;stroke:#22093A;stroke-linecap:round;stroke-linejoin:round;}
	.st4{fill:none;stroke:#FFFFFF;stroke-linecap:round;stroke-linejoin:round;}
	.st5{fill:#E6E7E8;stroke:#22093A;stroke-linecap:round;stroke-linejoin:round;}
	.st6{fill:none;stroke:#22093A;stroke-linecap:round;stroke-linejoin:round;}
	.st7{fill:#E9022C;stroke:#22093A;stroke-linecap:round;stroke-linejoin:round;}
	.st8{fill:#D1D3D4;stroke:#22093A;stroke-linecap:round;stroke-linejoin:round;}
	.st9{fill:#EC6509;stroke:#22093A;stroke-linecap:round;stroke-linejoin:round;}
	.st10{fill:#FCC707;stroke:#22093A;stroke-linecap:round;stroke-linejoin:round;}
	.st11{fill:#71C1F2;stroke:#22093A;stroke-linecap:round;stroke-linejoin:round;}
</style><g id="Layer_2_00000122696081060103534430000017459574855252969144_"><g id="Layer_1-2"><path class="st0" d="M72.078148,19.4652c2.571289-4.47754,3.191399-8.03614,1.849609-10.59278    c-1.196922-3.145972-4.717537-4.725988-7.863503-3.529066c-0.305305,0.116157-0.600784,0.256672-0.883568,0.420186    c-0.933868-1.856473-2.860424-3.002066-4.9375-2.936c-0.707573,0.02681-1.406963,0.160992-2.074219,0.39795    c-1.644184-0.687072-3.37595-1.142098-5.145512-1.352c-2.75211-0.508597-5.581253-0.421519-8.296871,0.25537    C42.39846,0.76158,39.03616,0.43053,34.67873,1.14781c-2.008232,0.225483-3.873207,1.150022-5.268551,2.61182    c-1.681726-1.867058-4.169491-2.794817-6.66309-2.48486c-1.744959,0.230806-3.361752,1.041252-4.59082,2.30123    c-0.224607-0.096667-0.456051-0.183257-0.69433-0.25977c-4.915-1.57715-11.96778,1.56934-14.082,3.14649    C-0.35447,9.2484,0.73733,13.37438,1.8926,17.743c0.2793,1.05566,0.59375,2.2456,0.91016,3.591801    c0.274385,1.241953,0.684736,2.449903,1.22363,3.601999c1.50977,3.723631,4.248051,5.563471,7.50684,5.143549    c-0.386067,2.420792-0.259937,4.895649,0.37024,7.264648c-1.696501-0.816196-3.6814-0.769897-5.338,0.124512    c-1.745302,1.032536-2.842446,2.884861-2.90918,4.911621c-0.149692,1.994106,0.780978,3.915451,2.43848,5.03418    c0.950202,0.652431,2.07492,1.00346,3.22754,1.007328c0.78125,0-2.39063,0.983391-3.56543,3.175289    c-1.40918,2.62891-0.61524,5.741699,2.10254,8.587399c-0.016968,2.019302,0.861269,3.942429,2.398439,5.251999    c0.196404,0.210526,0.404748,0.409584,0.624,0.596199c-1.8584,4.552727-2.737309,9.497551,0.42187,12.138672    c0.692013,0.77636,1.584788,1.346764,2.58008,1.648438c1.901028,0.628677,3.988064,0.310356,5.61524-0.856453    c0.684687-0.501793,1.279932-1.115364,1.76074-1.814941c0.314518,0.843628,0.840031,1.59256,1.526369,2.175293    c1.166864,1.260498,2.835913,1.933678,4.550781,1.835472c1.177233,0.025261,2.337555-0.283356,3.34668-0.890137    c0.11525,0.107719,0.235842,0.209572,0.36132,0.305183c0.94187,1.030624,2.272778,1.619026,3.668949,1.62207    c0.023441,0,0.046879,0,0.070309-0.000488c1.97134-0.034538,3.75959-1.163399,4.638668-2.928223    c0.552219,0.151291,1.126347,0.206459,1.697269,0.163094c0.516273-0.042122,1.023949-0.157372,1.507809-0.342293    c0.094727,0.094727,0.191391,0.185547,0.290001,0.272461c1.138687,1.36013,2.869568,2.078842,4.636765,1.925331    c1.303776-0.11705,2.510929-0.736557,3.366211-1.727531c0.835258,0.345154,1.734406,0.508606,2.637699,0.479492    c4.453121-0.126999,8.04882-1.544441,9.865231-3.88916c1.096825-1.369186,1.508575-3.1642,1.118149-4.874542    c-0.233887-1.029221-0.7939-1.955399-1.59668-2.640633c-0.06739-0.081047-0.137699-0.15918-0.210941-0.23584    c3.426762-2.033203,5.099613-5.046391,4.252934-7.991699c-0.620117-2.15918-2.644531-3.568851-6.668999-4.585941    l-0.793941-3.830559c2.960999-1.950439,5.751888-5.928101,4.638607-13.984798    c0.134888,0.009819,0.26947,0.030701,0.404358,0.030701c0.783966,0.00219,1.558693-0.169247,2.268547-0.501999    c2.14016-1.041672,3.525558-3.18486,3.59668-5.563999c0.059639-2.037416-1.068573-3.924248-2.891602-4.835939    c-0.37487-0.190413-0.766045-0.346882-1.168823-0.467529C68.525642,24.476875,70.438545,22.062515,72.078148,19.4652z"/><path class="st1" d="M71.278549,18.685949c2.571289-4.47754,3.191406-8.03613,1.849609-10.59277    c-1.196922-3.145977-4.717545-4.725994-7.863518-3.529068c-0.305305,0.116156-0.600769,0.256668-0.883553,0.420178    c-0.933868-1.856473-2.860424-3.002066-4.9375-2.936c-0.707577,0.026823-1.406967,0.161022-2.074219,0.398    c-1.64418-0.687094-3.375946-1.142138-5.145512-1.35205c-2.752106-0.508602-5.581253-0.421524-8.296871,0.25537    c-2.328125-1.36727-5.690426-1.69832-10.047848-0.98104c-2.008236,0.225477-3.873217,1.150017-5.26856,2.61182    C26.92886,1.113327,24.441097,0.185562,21.9475,0.49552c-1.744963,0.230822-3.361755,1.041282-4.59082,2.30127    c-0.224613-0.096667-0.45606-0.183253-0.69434-0.25976C11.7473,0.95988,4.69457,4.10636,2.58031,5.68351    C-1.15406,8.46916-0.06227,12.59513,1.093,16.963791c0.27929,1.05566,0.59375,2.2456,0.91015,3.591789    c0.274384,1.24197,0.684735,2.449936,1.22363,3.602051c1.50977,3.72364,4.24805,5.56348,7.50684,5.14356    c-0.386061,2.420792-0.259931,4.895651,0.37024,7.26465c-1.6965-0.8162-3.681401-0.769901-5.338,0.124512    c-1.745316,1.032532-2.842464,2.884876-2.90918,4.911648c-0.149698,1.994106,0.780968,3.915451,2.43847,5.03418    c0.950202,0.652428,2.074921,1.003452,3.22754,1.00732c0.78125,0-2.39062,0.983398-3.56543,3.175301    c-1.40918,2.628899-0.61523,5.741699,2.10254,8.587402c-0.016947,2.019283,0.861288,3.942387,2.39844,5.251953    c0.196404,0.210526,0.404748,0.409584,0.624,0.596191c-1.8584,4.552742-2.7373,9.497559,0.42188,12.138672    c0.692013,0.77636,1.584788,1.346764,2.58008,1.648438c1.901021,0.628685,3.98806,0.310371,5.615231-0.856438    c0.6847-0.501816,1.279951-1.11541,1.760759-1.815018c0.314529,0.843628,0.84004,1.592552,1.526371,2.175293    c1.166874,1.260475,2.835917,1.933647,4.550779,1.835449c1.177233,0.025261,2.337557-0.283356,3.34668-0.890137    c0.115253,0.107719,0.235849,0.209572,0.36133,0.305183c0.941868,1.030624,2.272774,1.619026,3.668941,1.62207    c0.023441,0,0.046879,0,0.07032-0.000488c1.971336-0.034554,3.759586-1.163406,4.638672-2.928223    c0.552216,0.151291,1.126343,0.206451,1.697262,0.163078c0.516273-0.042107,1.023952-0.157333,1.507816-0.342232    c0.094719,0.094719,0.191387,0.185539,0.290001,0.272461c1.138687,1.360092,2.869541,2.078789,4.636711,1.925293    c1.30378-0.117058,2.510933-0.736565,3.366219-1.727539c0.835255,0.345161,1.734402,0.508614,2.637691,0.479492    c4.453129-0.126999,8.048832-1.544434,9.865238-3.88916c1.096844-1.369179,1.508606-3.164192,1.118198-4.874542    c-0.233883-1.029221-0.7939-1.955391-1.59668-2.640617c-0.067379-0.081062-0.137699-0.15918-0.210941-0.23584    c3.426758-2.033211,5.099609-5.046391,4.25293-7.991699c-0.620117-2.15918-2.644531-3.568851-6.668941-4.585941l-0.793999-3.83057    c2.960999-1.950439,5.751888-5.928101,4.638611-13.984802c0.134892,0.00983,0.26947,0.030701,0.404362,0.030701    c0.783966,0.00219,1.558693-0.169247,2.268547-0.501999c2.14016-1.041664,3.525566-3.18486,3.59668-5.563999    c0.059647-2.037415-1.068573-3.924246-2.891602-4.83593c-0.37487-0.190418-0.766045-0.346886-1.168823-0.467529    C67.726067,23.69763,69.638962,21.28327,71.278549,18.685949z"/><path class="st2" d="M68.252258,8.5c-3.675468-0.74927-5.904541,7.691219-5.904541,7.691219s1.202583-10.001799-2.408447-9.8536    c-0.814899,0.016499-1.592838,0.343109-2.175289,0.91327c-1.708778-1.067027-3.644997-1.716273-5.651611-1.89508    c-4.759998-0.63684-7.314331-0.09955-8.327271,1.05511c-1.005371-1.644-3.62891-2.678-8.986629-1.79687    c-4.27124,0.70251-4.588631,3.32177-4.900391,8.6922c-0.01123,0.19378-0.02033,0.38226-0.030279,0.57275    c-0.91571-4.0589-2.95331-9.63666-7.13739-9.11792c-2.091,0.25928-3.561001,2.06934-4.467529,4.484    c-0.042999-0.15454-0.082211-0.3064-0.13336-0.46692C16.62336,4.0541,7.41652,7.49746,5.02515,9.28139    c-2.32709,1.736-0.80646,4.68579,0.73718,11.266789c1.30329,5.55621,3.5658,5.69342,5.44709,5.06555    c3.759151-1.2547,0.80548-8.256529,0.80548-8.256529c1.86048-0.067455,3.648973-0.736145,5.097351-1.90582    c-0.210819,3.910001,0.32007,8.090001,2.28076,8.00982c1.807619-0.07391,2.7309-2.53088,3.20215-5.138359l1.761049-0.21064    c0.78326,2.441839,1.961121,4.576729,3.626341,4.001221c0.923395-0.314405,1.679214-0.990833,2.093748-1.873823    c0.341669,1.571529,1.024111,2.515739,2.273859,2.489191c2.606449-0.05542,3.76215-7.36236,3.76215-7.36236    s2.912109,7.850279,6.210812,6.630791c4.376839-1.618-1.985291-8.30249-1.985291-8.30249    c1.382149,0.01691,3.044498-1.74823,3.684879-3.75262c1.36438,1.63837,4.05756,1.62939,4.05756,1.62939    s-4.065189,11.140499,0.475342,11.8475c5.660999,0.88147,4.191162-11.64026,4.191162-11.64026    c1.16888,0.180826,2.352871,0.244719,3.53442,0.19073c0.006294,2.376602,0.694347,4.7015,1.982491,6.69874    c-0.686531,1.2257-3.130741,8.56756,2.011101,6.78125c2.797192-0.971809,7.11237-7.00959,7.971622-8.50647    C69.936157,13.99991,71.951912,9.25412,68.252258,8.5z M22.945679,15.5846c0.161751-1.93287,0.135071-3.4607,0.135071-3.4607    s0.180849,1.51776,0.585699,3.37445L22.945679,15.5846z"/><path class="st3" d="M4.67629,8.48926c-2.32711,1.736-0.80647,4.68581,0.73719,11.2668    c1.30326,5.55621,3.56578,5.693449,5.44707,5.06555c3.75918-1.25466,0.80546-8.25654,0.80546-8.25654    s8.79649-0.167459,6.11462-8.579C16.274469,3.262,7.06767,6.70532,4.67629,8.48926z"/><path class="st2" d="M9.92066,10.56616c0,0,2.227-1.04291,2.30433,0.27383s-1.81314,1.853889-1.81314,1.853889L9.92066,10.56616z"/><path class="st3" d="M22.38155,3.969c-3.037189,0.37658-4.764801,4.024281-5.357241,8.04554    c-0.642691,4.3627-0.40012,10.753519,2.01981,10.654551c1.807659-0.073931,2.73093-2.530941,3.202169-5.13838l1.761061-0.210661    c0.783239,2.441839,1.9611,4.576759,3.626329,4.001249c1.83252-0.63339,2.75246-2.448679,2.508221-4.60664    C29.877729,14.38036,28.216749,3.24559,22.38155,3.969z M22.596819,14.79245c0.16177-1.93286,0.13509-3.460649,0.13509-3.460649    s0.18082,1.51777,0.585661,3.37443L22.596819,14.79245z"/><path class="st3" d="M34.449631,3.822c-4.27129,0.7025-4.58865,3.32173-4.900431,8.692209    c-0.31015,5.34214-0.15432,9.478001,2.452101,9.422531s3.762138-7.36237,3.762138-7.36237s2.91214,7.850281,6.21085,6.630791    c4.37677-1.618-1.985298-8.30252-1.985298-8.30252C43.507,12.94578,48.871601,1.45,34.449631,3.822z"/><path class="st2" d="M35.466358,7.1551c0,0,2.46722-0.49713,2.224918,0.83091s-2.252277,1.40386-2.252277,1.40386    L35.466358,7.1551z"/><path class="st3" d="M51.763512,4.56372c-6.803181-0.91013-9.112602,0.57329-8.83379,2.83867    c0.418999,3.40418,4.801689,3.377049,4.801689,3.377049s-4.065189,11.140501,0.475349,11.847521    c5.660999,0.881491,4.19117-11.64022,4.19117-11.64022s6.588711,1.11648,6.67086-1.69136    C59.137821,6.936,56.322929,5.17368,51.763512,4.56372z"/><path class="st3" d="M67.903389,7.7079c-3.675461-0.74924-5.90453,7.691239-5.90453,7.691239s1.202572-10.00175-2.408428-9.85359    c-4.72979,0.19407-4.418999,8.46561-1.675652,12.330641c-0.68652,1.225679-3.13068,8.567589,2.01115,6.781219    c2.797161-0.97179,7.112339-7.009581,7.971638-8.50642C69.587303,13.20784,71.602997,8.46207,67.903389,7.7079z"/><path class="st4" d="M22.381929,5.79253c-1.27817,0.26583-2.83787,2.09319-3.40674,5.64153"/><path class="st4" d="M6.92924,19.018419c0.64948,2.121519,1.507689,4.204491,2.35143,4.204491"/><path class="st4" d="M6.01485,15.51405c0.09276,0.421,0.21769,0.955931,0.36851,1.54714"/><path class="st4" d="M31.374399,13.48164c-0.303789,1.86076-0.481279,4.88051,0.57716,5.886841"/><path class="st4" d="M58.066109,13.4817c0.131577,0.44523,0.28772,0.882829,0.46772,1.310781"/><path class="st4" d="M59.848808,8.22692C59.521179,7.064,58.07814,7.34949,57.666161,9.59    c-0.106007,0.654295-0.112041,1.320893-0.017899,1.977"/><path class="st4" d="M48.415352,14.48874c-0.40266,1.02531-1.45771,5.089141,0,6.266089"/><path class="st4" d="M64.192062,18.324181c-1.155586,1.622948-2.522469,3.084522-4.064491,4.346069"/><path class="st5" d="M17.548,20.754829c1.057301-2.312851,6.909599-1.90428,13.07148,0.91256s10.299999,6.9753,9.242661,9.288151"/><path class="st5" d="M19.949471,41.436749l-4.250999,9.61937c0,0-6.73415-0.29945-7.653,1.415642    c-1.25589,2.34428,2.231,5.91021,6.20071,7.797001c4.80224,2.282501,9.1017,1.286469,9.69227-0.654652    c0.622589-2.046391-4.555-7.242779-4.555-7.242779l3.943649-9.319271"/><path class="st5" d="M17.548,20.754829c0,0-10.14089,16.216892,4.011629,22.218479    C35.540211,48.902,39.86216,30.95554,39.86216,30.95554"/><path class="st6" d="M39.86216,30.95554c-1.057301,2.312851-6.909599,1.904282-13.07148-0.912571    s-10.299999-6.97529-9.242661-9.288139"/><path class="st7" d="M34.33836,36.911999c-0.05505,2.758469-4.403721,5.928692-11.217651,3.840569    c-5.143209-1.576141-6.397409-4.249531-6.285099-7.360279L34.33836,36.911999z"/><ellipse class="st7" cx="25.586985" cy="35.152092" rx="2.787371" ry="8.926571" transform="matrix(0.197148 -0.980374 0.980374 0.197148 -13.919631 53.306725)"/><path class="st8" d="M54.694489,48.993l1.862,8.988262c0,0,5.80114,0.980331,6.270401,2.612419    c0.641418,2.230839-2.94553,4.840363-6.721909,5.515152c-4.45689,0.796402-8.00248-0.572601-8.150169-2.337318    c-0.155701-1.860432,5.215881-5.34428,5.215881-5.34428l-1.654808-8.67577"/><path class="st8" d="M39.916561,24.599119l2.589088,15.7628c0.58535,2.585079,2.161449,10.203651,10.190491,9.314682    c7.191669-0.796249,8.125679-6.798,7.067619-12.90736L56.61544,21.3715"/><ellipse class="st8" cx="48.265999" cy="22.985306" rx="8.503971" ry="3.335199" transform="matrix(0.981828 -0.189772 0.189772 0.981828 -3.48488 9.577194)"/><path class="st9" d="M44.656898,37.350788c0,0,2.31736,10.301361,7.43478,9.846119s6.62384-3.334759,4.563999-14.147251"/><ellipse class="st9" cx="50.656288" cy="35.200237" rx="6.373192" ry="2.413029" transform="matrix(0.941347 -0.337439 0.337439 0.941347 -8.906813 19.158003)"/><polygon class="st10" points="38.147999,30.472 42.005001,26.625999 43.182999,31.702999 48.597,31.476999 45.702999,37.216     49.571999,40.125 43.493999,42.318001 42.282001,49.276001 37.951,43.210999 32.123001,45.380001 34.700001,39.389     29.438,36.058998 33.922001,33.536999 33.018002,26.723   "/><polygon class="st9" points="39.237,33.957001 41.042999,32.470001 41.339001,34.688999 43.664001,34.813999 42.191002,37.150002     43.726002,38.553001 41.036999,39.241001 40.234001,42.167 38.631001,39.396999 36.049999,40.084999 37.396999,37.629002     35.283001,35.988998 37.304001,35.095001 37.196999,32.144001   "/><polyline class="st4" points="9.921,53.831001 16.42,52.805 20.179001,44.174   "/><polyline class="st4" points="53.216999,51.039001 54.755001,58.821999 59.540001,62.237999   "/><path class="st4" d="M17.3311,25.86923c-0.745129,1.669168-1.158022,3.467485-1.21562,5.29451"/><path class="st4" d="M55.426601,38.678612c0.373058,1.452,0.354069,4.023689-0.443401,4.888432"/><path class="st2" d="M20.25886,58.340851c-6.59943-1.886559-9.09947-0.753521-9.15193,1.528358    c-0.07884,3.429001,4.26152,4.037331,4.26152,4.037331s-5.63693,10.43367-1.24681,11.791321    c5.473411,1.69265,5.834001-10.909859,5.834001-10.909859s6.357309,2.059639,6.845551-0.70665    C27.211479,61.756882,24.68174,59.605202,20.25886,58.340851z"/><path class="st2" d="M26.55122,76.88063c1.52911,0.005363,3.407589-0.776382,4.25522-7.232582    c0.75679-5.76429-1.507999-6.015789-2.0938-6.017841s-4.021999-0.310001-4.617001,5.994289S24.28557,76.872673,26.55122,76.88063z    "/><circle class="st2" cx="28.528589" cy="59.926319" r="2.680229"/><path class="st2" d="M42.68507,59.814621c-2.037998,0.160358-2.385231,2.63813-3.106209,4.500931    c-0.824211-1.625511-1.43578-4.013298-3.429379-3.834259c-2.304321,0.20694-3.662621,3.650879-4.165001,7.535851    c-0.54509,4.215004-0.6008,9.93679,1.9547,9.901001c2.94622-0.04129,3.329998-8.482208,3.329998-8.482208    s0.22319,5.91832,2.792999,5.725937c2.934212-0.219658,2.435169-6.007477,2.435169-6.007477s0.70216,8.171562,3.9338,7.868439    c1.477001-0.138542,2.11739-2.22979,1.961269-4.346603C48.22353,70.386421,47.116329,59.465931,42.68507,59.814621z"/><path class="st2" d="M57.387909,58.873089c-1.215-1.30365-8.217079,0.105999-9.095772,4.428619    c-0.573349,2.820538-0.2831,12.592457,4.370892,12.459553s8.228199-2.042999,7.672001-4.478493    s-6.277832-1.122856-6.277832-1.122856s4.827351-1.48011,4.422142-4.04464S53.154339,65.6791,53.154339,65.6791    S60.647709,62.370819,57.387909,58.873089z"/><path class="st11" d="M19.71549,57.807091c-6.59943-1.886559-9.09947-0.753521-9.15193,1.528351    c-0.07884,3.429001,4.26152,4.037331,4.26152,4.037331s-5.63693,10.43367-1.246811,11.791321    c5.47341,1.692657,5.834-10.909859,5.834-10.909859s6.357309,2.059639,6.845551-0.70665    C26.66811,61.223122,24.138371,59.071442,19.71549,57.807091z"/><path class="st11" d="M26.007851,76.346863c1.52911,0.005371,3.407589-0.776382,4.255211-7.232567    c0.75679-5.764301-1.507999-6.015789-2.09379-6.017849s-4.021999-0.310001-4.617001,5.994297    S23.742189,76.338913,26.007851,76.346863z"/><circle class="st11" cx="27.98522" cy="59.392559" r="2.680229"/><path class="st11" d="M42.141701,59.280849c-2.038002,0.16037-2.385231,2.63813-3.106209,4.500938    c-0.824219-1.625519-1.435791-4.013302-3.429379-3.834259c-2.304321,0.20694-3.66263,3.650871-4.165051,7.535847    c-0.54509,4.215004-0.600809,9.936783,1.954689,9.901001c2.946228-0.041283,3.330002-8.482208,3.330002-8.482208    s0.22319,5.91832,2.792999,5.725937c2.934212-0.21965,2.435162-6.007469,2.435162-6.007469s0.702171,8.171562,3.933811,7.868439    c1.477001-0.138542,2.117378-2.22979,1.961269-4.346603C47.680161,69.852654,46.573002,58.932171,42.141701,59.280849z"/><path class="st11" d="M56.84454,58.339321c-1.215-1.303638-8.217079,0.105999-9.095768,4.428619    c-0.57336,2.820553-0.2831,12.592457,4.37088,12.459553s8.22821-2.042999,7.672001-4.478493s-6.27784-1.122856-6.27784-1.122856    s4.827377-1.480141,4.422188-4.044632S52.611,65.14534,52.611,65.14534S60.10434,61.837051,56.84454,58.339321z"/><path class="st4" d="M14.28265,68.915619c-0.51505,1.539543-0.86192,3.264526-0.25272,4.016151"/><path class="st4" d="M15.24269,66.55056c-0.13991,0.287903-0.19734,0.394463-0.3783,0.837517"/><path class="st4" d="M27.98522,58.121651c-0.707228,0.063007-1.229471,0.687405-1.166464,1.394634    c0.032743,0.367535,0.221832,0.703285,0.519154,0.921818"/><path class="st4" d="M27.337931,64.691254c-0.68433,0.370697-2.03158,2.401398-1.993999,5.028931"/><path class="st4" d="M15.88783,58.615318c-1.61393-0.4557-3.22741-0.290272-3.75906,0.657372"/><path class="st4" d="M40.951561,63.551998c0-0.683552,0.569618-2.77216,1.480999-2.620258"/><path class="st4" d="M33.394588,66.088097c0-1.396828,1.508801-4.497929,2.354431-4.504341"/><path class="st4" d="M50.02206,70.691269c0.271271,0.873413,0.423168,2.961998,2.85355,2.848099"/><path class="st4" d="M53.217381,59.98241c1.025311-0.589851,2.209221-0.589851,2.582279,0.26582"/><path class="st10" d="M34.10088,50.323002c-0.747967,0.163807-1.221523,0.902943-1.057716,1.650909    c0.0438,0.200008,0.131359,0.387833,0.256386,0.54998c0.716999,0.821449,2.403999,0.89946,2.657001-0.355492    c0.263306-0.757351-0.137196-1.584759-0.894547-1.848064C34.750618,50.212074,34.411659,50.213017,34.10088,50.323002z"/><path class="st10" d="M6.35073,41.844002c-0.072778,1.18782,0.831141,2.209736,2.01896,2.282513    c0.317628,0.019463,0.635624-0.03167,0.93114-0.149723c1.53264-0.723,2.36576-3.212082,0.597-4.123409    c-1.020447-0.715321-2.427563-0.467968-3.142884,0.552479C6.460826,40.825439,6.318271,41.33263,6.35073,41.844002z"/><line class="st4" x1="8.15736" x2="7.86113" y1="41.05682" y2="41.550339"/><path class="st10" d="M61.595188,31.45743c-0.072781,1.187819,0.831139,2.209738,2.018959,2.282515    c0.317627,0.019463,0.635624-0.03167,0.931141-0.149723c1.532639-0.723,2.365761-3.21208,0.597-4.123409    c-1.020447-0.715321-2.427563-0.467966-3.142883,0.552481C61.705284,30.438871,61.562729,30.94606,61.595188,31.45743z"/><line class="st4" x1="63.401821" x2="63.105591" y1="30.670219" y2="31.16374"/></g></g></svg>