<svg version="1.1" id="Layer_1" xmlns="http://www.w3.org/2000/svg" xmlns:xlink="http://www.w3.org/1999/xlink" x="0px" y="0px" viewBox="0 0 500 500" style="width: 188px;" xml:space="preserve" data-imageid="podcaster-43" imageName="Podcaster" class="illustrations_image">
<style type="text/css">
	.st0_podcaster-43{fill:#FFC9B0;}
	.st1_podcaster-43{fill:#093F68;}
	.st2_podcaster-43{fill:#68E1FD;}
	.st3_podcaster-43{fill:#F56132;}
	.st4_podcaster-43{fill:#725858;}
	.st5_podcaster-43{fill:#70CC40;}
	.st6_podcaster-43{fill:#FFBC0E;}
	.st7_podcaster-43{fill:#FFFFFF;}
</style>
<g id="character_podcaster-43">
	<path class="st0_podcaster-43" d="M115.9,267.1c0.2-1.1,1.5-11.3,1.5-11.3s6.7-9.4,5.7-13.5s-1.7-17.9-5.9-17.4s-5,0.5-4.1,12.6&#10;&#9;&#9;c0,0-3.7-21.8-8.9-20.1s-12.9,3.8-14,8.8s3.5,43.1,3.5,43.1L115.9,267.1z"/>
	<path class="st1_podcaster-43" d="M93.7,271.2c-0.9,0-1.7-0.7-1.8-1.6c-0.5-3.9-4.6-38.5-3.5-43.7c1.3-5.8,8.8-8.2,14.3-9.9l1-0.3&#10;&#9;&#9;c1.1-0.3,2.2-0.2,3.2,0.4c2.1,1.3,3.9,5.1,5.2,9.1c0.9-1.2,2.4-1.7,4.8-2c5.2-0.7,6.5,8.1,7.5,15.1c0.2,1.6,0.4,2.9,0.6,3.7&#10;&#9;&#9;c1,4.4-4.1,12.2-5.8,14.6c-0.3,2-1.3,9.9-1.4,10.9c-0.1,0.8-0.8,1.5-1.7,1.5l-22.2,2.2H93.7z M104.8,219.2l-1,0.3&#10;&#9;&#9;c-4.6,1.5-11,3.5-11.8,7.1c-0.7,3.3,1.6,25.9,3.3,40.6l18.9-1.9c0.3-2.5,1-7.6,1.3-9.8c0-0.3,0.2-0.6,0.3-0.8&#10;&#9;&#9;c2.5-3.5,5.9-9.8,5.4-12c-0.2-1-0.4-2.4-0.7-4c-0.4-2.8-1.6-11.3-3.2-11.9c-3.1,0.4-3.2,0.4-2.4,10.6c0.1,1-0.7,1.9-1.7,2&#10;&#9;&#9;c-1,0.1-1.8-0.6-2-1.6C109.7,228.4,106.6,219.5,104.8,219.2L104.8,219.2z M115.9,267.1L115.9,267.1z"/>
	<path class="st2_podcaster-43 targetColor" d="M370.5,353.2c0,0-31.8,3.5-53.8-12.6c-13.1-9.6-53.9-51.3-53.9-51.3c-4.1-3.1-9.2-4.8-14.3-4.8h-52.1&#10;&#9;&#9;c-6.9,0-13.5,3.8-18.6,8.2c-5.3,4.6-11,8.8-16.9,12.5c-7.9,4.9-21.6,13.3-31.3,8.8c-16-7.6-8.4-50.3-8.3-50.6l-30.3-2&#10;&#9;&#9;c-2.8,10.1-4.2,20.5-4.2,31c0.2,24.8,10.3,43.1,28.4,51.7c6.1,2.9,12.8,4.3,19.5,4.3c12.9,0,25.9-4.8,37.4-11.1v62.5h100.4v-59.4&#10;&#9;&#9;c0,0,19.1,18,33.9,26.5c26,14.9,56.7,13.3,56.7,13.3L370.5,353.2z" style="fill: rgb(104, 225, 253);"/>
	<path class="st1_podcaster-43" d="M272.6,401.8H172.2c-1,0-1.9-0.8-1.9-1.9v-59.4c-21.2,11-40.4,12.8-55.9,5.4C95.6,337,85.2,318,84.9,292.5&#10;&#9;&#9;c0-10.7,1.4-21.3,4.3-31.5c0.2-0.8,1-1.4,1.9-1.3l30.3,2c0.6,0,1.1,0.3,1.4,0.8c0.3,0.5,0.4,1,0.3,1.6c-1.6,8-5.5,42.3,7.3,48.4&#10;&#9;&#9;c8.8,4.2,22.2-4.2,29.5-8.6c5.9-3.7,11.4-7.8,16.7-12.3c4.6-3.9,11.8-8.6,19.8-8.6h52.1c5.6,0,11,1.8,15.5,5.1&#10;&#9;&#9;c0.1,0.1,0.2,0.1,0.2,0.2c0.4,0.4,40.9,41.8,53.7,51.1c21.2,15.4,52.2,12.2,52.5,12.2c0.6-0.1,1.2,0.2,1.6,0.6&#10;&#9;&#9;c0.4,0.5,0.5,1.1,0.4,1.7l-7.3,27c-0.2,0.8-0.9,1.3-1.7,1.4c-1.3,0.1-31.6,1.5-57.7-13.5c-11.4-6.5-25-18.4-31.1-23.9v55.2&#10;&#9;&#9;C274.5,400.9,273.7,401.8,272.6,401.8C272.6,401.8,272.6,401.8,272.6,401.8z M174.1,398.1h96.7v-57.6c0-1,0.9-1.9,1.9-1.9&#10;&#9;&#9;c0.5,0,0.9,0.2,1.3,0.5c0.2,0.2,19.1,18,33.5,26.2c22.2,12.7,48.2,13.2,54.3,13.1l6.3-23.1c-8.3,0.5-33.5,0.6-52.4-13.1&#10;&#9;&#9;c-12.9-9.4-51.2-48.6-54-51.4c-3.8-2.8-8.4-4.3-13.1-4.3h-52.2c-6.9,0-13.2,4.2-17.4,7.8c-5.4,4.7-11.1,8.9-17.1,12.7&#10;&#9;&#9;c-8.4,5.2-22.4,13.9-33,8.9c-15.2-7.2-11.1-41.4-9.7-50.5l-26.8-1.7c-2.5,9.5-3.7,19.2-3.7,29c0.2,24,9.9,41.8,27.4,50.1&#10;&#9;&#9;c15.1,7.2,34,4.8,55.3-6.8c0.9-0.5,2.1-0.1,2.5,0.8c0.1,0.3,0.2,0.6,0.2,0.9L174.1,398.1z"/>
	<rect x="214" y="296.2" class="st3_podcaster-43" width="19.9" height="103.8"/>
	<path class="st1_podcaster-43" d="M233.9,401.8H214c-1,0-1.9-0.8-1.9-1.9V296.2c0-1,0.8-1.9,1.9-1.9h0h19.9c1,0,1.9,0.8,1.9,1.9v103.8&#10;&#9;&#9;C235.8,401,234.9,401.8,233.9,401.8z M215.9,398.1h16.2V298h-16.2L215.9,398.1z"/>
	<path class="st0_podcaster-43" d="M213.3,284.8l19.8-1l0,0l0.8,15.3c0.1,2.5-1.8,4.6-4.3,4.7l-10.8,0.5c-2.5,0.1-4.6-1.8-4.7-4.3L213.3,284.8&#10;&#9;&#9;L213.3,284.8z"/>
	<path class="st1_podcaster-43" d="M222.2,306c-5.4,0-9.9-4.3-10.2-9.7l-0.6-11.4c-0.1-1,0.7-1.9,1.8-1.9c0,0,0,0,0,0l19.8-1c1-0.1,1.9,0.7,2,1.7&#10;&#9;&#9;c0,0,0,0.1,0,0.1l0.6,11.4c0.3,5.7-4.1,10.5-9.8,10.8l-3,0.1L222.2,306z M215.2,286.5l0.5,9.5c0.2,3.6,3.2,6.4,6.9,6.2l3-0.1l0,0&#10;&#9;&#9;c3.6-0.2,6.4-3.3,6.2-6.9l-0.5-9.5L215.2,286.5z"/>
	<path class="st4_podcaster-43" d="M157.5,232.5c-0.8-1.6-1.4-3.3-1.7-5.1c-1.1-5.7-1.9-11.5-2.4-17.3c-0.4-3.2,0.5-10.8-1.8-13.4&#10;&#9;&#9;c-2.4-2.8-7.5-2.7-10.3-6.1c-5.7-6.7-8-15.6-6.4-24.2c1.8-8.5,8.1-16,16.3-18.6c-4.3,1.4-0.5-20,0.6-21.8&#10;&#9;&#9;c4.6-7.9,13.2-12.7,22.4-9.3c3.3-8.6,12.8-12.8,21.6-15.4c5.9-1.7,12-3.1,18-2.1s13.4,11,13.4,11s20.2-3.9,29.3,0.6&#10;&#9;&#9;s18.1,23,18.1,23s5.8,2.5,7.6,3.1c4,1.3,7.6,3.6,10.5,6.6c12.3,12.7,12.3,38.8-4.5,47.6c0.9,8,0.4,16.1,0,24.1&#10;&#9;&#9;c-0.1,2.8-0.3,5.7-1.7,8.2c-3.5,6.2-21.5,2.2-28.1,2.8c-11.9,1.1-23.6,3.5-35.5,4.4l-42.3,3.3c-5.9,0.5-17,5.3-21.9,0.1&#10;&#9;&#9;C158.3,233.7,157.9,233.1,157.5,232.5z"/>
	<path class="st1_podcaster-43" d="M165.5,238.4c-3.1,0-6-0.7-8.1-2.9c-0.6-0.6-1.1-1.3-1.5-2c-0.9-1.8-1.6-3.7-1.9-5.6&#10;&#9;&#9;c-1.1-5.8-1.9-11.6-2.4-17.5c-0.1-1.3-0.2-2.7-0.1-4c0-2.8,0-7.1-1.2-8.3c-1.1-1-2.5-1.8-3.9-2.2c-2.1-0.8-4.6-1.8-6.4-4&#10;&#9;&#9;c-6.1-7.1-8.6-16.6-6.8-25.8c1.7-8.3,7.2-15.3,14.8-18.9c-1.7-5.7,1.4-20.5,2.3-22.1c5.2-8.9,14.3-13,23-10.6&#10;&#9;&#9;c4.3-8.7,14.6-12.7,22.1-14.9c6-1.8,12.4-3.3,18.9-2.2c5.6,1,11.8,8.1,13.9,10.8c4.5-0.8,21-3.2,29.3,0.9&#10;&#9;&#9;c8.6,4.3,16.9,19.8,18.7,23.2c1.5,0.6,5.5,2.3,6.9,2.8c4.3,1.4,8.2,3.9,11.3,7.1c7.1,7.4,10.6,19.2,8.8,30.1&#10;&#9;&#9;c-1.4,8.8-5.9,15.8-12.7,19.8c0.7,7.8,0.3,15.6-0.1,23.2c-0.1,2.7-0.3,6.1-2,9c-3.1,5.4-13.1,4.7-21.9,4c-2.6-0.3-5.1-0.4-7.7-0.3&#10;&#9;&#9;c-5.7,0.5-11.5,1.3-17.1,2.1c-6,0.9-12.3,1.8-18.5,2.3l-42.3,3.4c-1.8,0.2-3.6,0.6-5.4,1C172.2,237.7,168.9,238.2,165.5,238.4z&#10;&#9;&#9; M151.8,149.6c-7.7,2.7-13.4,9.2-15,17.2c-1.5,8.1,0.7,16.4,6,22.6c1.2,1.4,3,2.1,4.9,2.9c2,0.6,3.9,1.7,5.4,3.2&#10;&#9;&#9;c2,2.3,2.1,6.8,2.1,10.8c0,1.2,0,2.4,0.1,3.6c0.5,5.7,1.2,11.5,2.3,17.1c0.3,1.6,0.8,3.1,1.5,4.6l0,0c0.3,0.5,0.6,0.9,0.9,1.3&#10;&#9;&#9;c2.9,3,9.3,1.6,14.5,0.4c1.9-0.5,3.9-0.9,5.9-1.1l42.3-3.4c6.1-0.5,12.3-1.4,18.2-2.3c5.6-0.8,11.5-1.7,17.3-2.2&#10;&#9;&#9;c2.8-0.1,5.6,0,8.3,0.3c6.5,0.5,16.4,1.2,18.3-2.2c1.2-2.1,1.3-4.9,1.5-7.3c0.4-7.9,0.8-16,0-23.9c-0.1-0.8,0.3-1.5,1-1.9&#10;&#9;&#9;c6.3-3.3,10.5-9.6,11.9-17.7c1.6-9.9-1.5-20.4-7.8-27c-2.7-2.8-6.1-4.9-9.8-6.2c-1.9-0.6-7.5-3.1-7.8-3.2c-0.4-0.2-0.7-0.5-0.9-0.9&#10;&#9;&#9;c-0.1-0.2-8.9-18-17.3-22.1s-27.9-0.4-28.1-0.4c-0.7,0.1-1.4-0.1-1.9-0.7c-1.9-2.6-7.9-9.5-12.3-10.2c-5.7-1-11.6,0.4-17.2,2.1&#10;&#9;&#9;c-11.4,3.4-17.9,7.9-20.4,14.3c-0.4,1-1.4,1.4-2.4,1.1c-9.1-3.4-16.5,2.4-20.1,8.5c-1.1,2.2-3.1,16-2.1,19c0.8,0.1,1.4,0.6,1.7,1.3&#10;&#9;&#9;C153.4,148.2,152.8,149.2,151.8,149.6C151.9,149.5,151.9,149.5,151.8,149.6L151.8,149.6z"/>
	<path class="st0_podcaster-43" d="M223.3,286.9c-32,1.6-59.2-23-60.8-55c-0.5-9.4,4.8-15.6,4.3-25c-0.1-1.7-2.5-12.7,0.5-14.7&#10;&#9;&#9;c7.4-4.7,13.3-12.6,16.7-20.5c10.7,5,24.7,1.2,31.4-8.5c6.3,9.9,19.5,12.9,29.4,6.5c2.7-1.7,5-4,6.6-6.7c1.2,5.1,4.7,9.3,9.5,11.4&#10;&#9;&#9;c3.5,1.4,11.2,0.2,13.8,2.2c1.8,1.4,1.3,3.8,1.5,6.1c0.3,6.2-0.8,21.3-0.5,27.5c0.4,8.2-1.4,30.6-2.7,38.8&#10;&#9;&#9;C269.7,269.6,255.3,285.3,223.3,286.9z"/>
	<path class="st1_podcaster-43" d="M220.3,288.9c-31.9,0-58.1-25-59.7-56.9c-0.3-5,1-9.2,2.2-13.2s2.3-7.5,2.1-11.9c0-0.3-0.1-0.9-0.2-1.6&#10;&#9;&#9;c-1-6.3-1.6-12.7,1.6-14.7c6.6-4.2,12.4-11.4,15.9-19.7c0.2-0.5,0.6-0.8,1.1-1c0.5-0.2,1-0.2,1.5,0.1c9.9,4.6,22.9,1.1,29-7.9&#10;&#9;&#9;c0.4-0.5,1-0.8,1.6-0.8c0.6,0,1.2,0.3,1.5,0.9c3.6,5.6,9.8,9,16.4,9.1l0,0c6.7-0.1,12.9-3.5,16.5-9.2c0.5-0.9,1.7-1.1,2.6-0.6&#10;&#9;&#9;c0.4,0.3,0.7,0.7,0.8,1.2c1,4.5,4.2,8.2,8.4,10c1.9,0.5,3.8,0.7,5.8,0.7c3.4,0.1,6.5,0.3,8.4,1.8c2.1,1.7,2.1,4.2,2.1,6.2&#10;&#9;&#9;c0,0.4,0,0.9,0,1.3c0.1,3.2-0.1,8.6-0.3,13.9s-0.4,10.6-0.3,13.6c0.4,8.4-1.4,30.9-2.7,39.1c-2.7,17-13.8,37.6-51.4,39.5l0,0&#10;&#9;&#9;C222.4,288.8,221.3,288.9,220.3,288.9z M184.9,174.1c-3.9,8.3-9.8,15.4-16.6,19.7c-0.4,0.3-1.3,2,0.1,11c0.1,0.9,0.2,1.6,0.3,2&#10;&#9;&#9;c0.3,5-1,9.2-2.2,13.2s-2.3,7.5-2.1,11.9c1.6,30.9,27.9,54.8,58.9,53.2l0,0c27.8-1.4,44.4-14,47.9-36.4c1.2-7.9,3.1-30.3,2.7-38.4&#10;&#9;&#9;c-0.2-3.2,0-8.6,0.2-13.9s0.4-10.5,0.3-13.6c0-0.5,0-1,0-1.5c0-1.7,0-2.8-0.7-3.3c-1-0.7-3.9-0.9-6.3-1c-2.7-0.1-5.2-0.2-7-1&#10;&#9;&#9;c-4.2-1.8-7.6-5-9.4-9.1c-4.4,5-10.7,7.8-17.4,7.9l0,0c-7-0.1-13.6-3.3-18.1-8.7C207.8,174.7,195.7,177.8,184.9,174.1z"/>
	<circle class="st1_podcaster-43" cx="193.1" cy="221.9" r="5.4"/>
	<circle class="st1_podcaster-43" cx="248.5" cy="219.1" r="5.4"/>
	<path class="st1_podcaster-43" d="M219.2,240.5c-1.3,0-2.5-0.1-3.8-0.2c-1-0.1-1.7-1.1-1.6-2.1s1.1-1.7,2.1-1.6l0,0c2.6,0.3,5.2,0.2,7.8-0.3&#10;&#9;&#9;c0.1-1.7-2.2-7.2-5.1-12.2c-0.6-0.9-0.3-2,0.5-2.6c0.9-0.6,2-0.3,2.6,0.5c0,0.1,0.1,0.1,0.1,0.2c2.1,3.5,6.8,12.1,5.4,15.7&#10;&#9;&#9;c-0.3,0.9-1.1,1.6-2,1.9C223.1,240.3,221.2,240.5,219.2,240.5z"/>
	<path class="st1_podcaster-43" d="M204.4,209.2h-0.4l-26-2.5c-2-0.3-3.5-2.2-3.2-4.2c0.3-1.9,2-3.3,3.9-3.2l26,2.5c2.1,0.1,3.6,1.9,3.5,4&#10;&#9;&#9;C208.1,207.8,206.4,209.3,204.4,209.2L204.4,209.2z"/>
	<path class="st1_podcaster-43" d="M236,207c-2.1,0-3.8-1.6-3.8-3.7c0-2.1,1.6-3.8,3.7-3.8l29.1-1c2.1,0,3.7,1.7,3.7,3.8c0,2-1.5,3.6-3.5,3.7&#10;&#9;&#9;l-29.1,1L236,207z"/>
	<path class="st1_podcaster-43" d="M231.8,250.4l-23.3-0.7c0,0,2.3,28.8,12.4,27.4C232.1,275.6,231.8,250.4,231.8,250.4z"/>
	<path class="st1_podcaster-43" d="M220.2,279.1c-1.6,0-3.2-0.6-4.4-1.7c-7.1-5.7-8.9-25.3-9.1-27.5c0-0.5,0.1-1,0.5-1.4c0.4-0.4,0.9-0.6,1.4-0.6&#10;&#9;&#9;l23.3,0.7c1,0,1.8,0.8,1.8,1.9c0,4.4-0.5,8.8-1.3,13.2c-1.9,9.5-5.7,14.7-11.2,15.5C220.9,279,220.6,279.1,220.2,279.1z&#10;&#9;&#9; M210.6,251.6c0.8,6.6,3,19.3,7.5,22.8c0.7,0.6,1.6,0.9,2.6,0.8c7.1-1,9-15.6,9.2-23.1L210.6,251.6z"/>
	<path class="st5_podcaster-43" d="M290.5,213.1L290.5,213.1c-2.2,0-3.8-1.8-3.7-3.8c0,0,0,0,0,0l0.5-22.4c0.5-22.4-17.2-40.9-39.5-41.5&#10;&#9;&#9;c0,0,0,0,0,0l-48.3-1.2c-22.4-0.5-40.9,17.2-41.5,39.5c0,0,0,0,0,0l-0.5,22.4c0,2-1.7,3.7-3.8,3.6c0,0,0,0-0.1,0&#10;&#9;&#9;c-2.1-0.1-3.7-1.8-3.6-3.8l0.6-22.4c0.7-26.5,22.7-47.4,49.1-46.8l48.3,1.2c26.5,0.6,47.5,22.6,46.8,49.1l-0.5,22.4&#10;&#9;&#9;C294.2,211.5,292.6,213.1,290.5,213.1z"/>
	<path class="st1_podcaster-43" d="M198.6,136.8h1.1l48.3,1.2c26.5,0.6,47.5,22.6,46.8,49.1l-0.5,22.4c0,2-1.7,3.6-3.7,3.6h-0.1&#10;&#9;&#9;c-2.1,0-3.7-1.8-3.7-3.8c0,0,0,0,0,0l0.5-22.4c0.5-22.4-17.2-40.9-39.5-41.5c0,0,0,0,0,0l-48.3-1.2h-1c-22,0-39.9,17.6-40.5,39.5&#10;&#9;&#9;l-0.5,22.4c0,2-1.6,3.6-3.6,3.6h-0.2c-2.1-0.1-3.7-1.8-3.6-3.8l0.6-22.4C151.2,157.6,172.5,136.8,198.6,136.8 M198.6,133L198.6,133&#10;&#9;&#9;c-28.1,0-51,22.4-51.8,50.5l-0.5,22.4c-0.1,4.1,3.2,7.5,7.3,7.6h0.3c4,0,7.3-3.3,7.4-7.3l0.5-22.4c0.5-20,16.8-35.9,36.8-35.9h0.9&#10;&#9;&#9;l48.3,1.2c20.3,0.5,36.4,17.3,35.9,37.6c0,0,0,0,0,0l-0.5,22.4c-0.1,4.1,3.2,7.5,7.3,7.6h0.2c4,0,7.3-3.2,7.5-7.3l0.5-22.4&#10;&#9;&#9;c0.7-28.6-21.9-52.3-50.4-52.9c0,0,0,0,0,0l-48.3-1.2L198.6,133L198.6,133z"/>
	<path class="st5_podcaster-43" d="M149.6,206.4l17.2,0.4l0,0l-1,39.5l0,0l-17.2-0.4c-7-0.2-12.6-6-12.4-13l0.3-14.1&#10;&#9;&#9;C136.7,211.8,142.5,206.2,149.6,206.4C149.6,206.4,149.6,206.4,149.6,206.4z"/>
	<path class="st1_podcaster-43" d="M165.8,248.2L165.8,248.2l-17.4-0.4c-7.9-0.2-14.2-6.8-14-14.7l0.4-14.5c0.2-7.9,6.8-14.2,14.7-14l17.4,0.4&#10;&#9;&#9;c1,0,1.8,0.9,1.8,1.9l-1,39.6c0,0.5-0.2,1-0.6,1.3C166.8,248.1,166.3,248.3,165.8,248.2z M149,208.2c-5.8,0-10.5,4.6-10.6,10.4&#10;&#9;&#9;l-0.4,14.5c-0.1,5.9,4.5,10.8,10.4,10.9l15.6,0.4l0.9-35.8l-15.6-0.4L149,208.2z"/>
	<path class="st5_podcaster-43" d="M290.1,249.4l-17.2-0.4l0,0l1-39.6l0,0l17.2,0.4c7,0.2,12.6,6,12.4,13c0,0,0,0,0,0l-0.3,14.1&#10;&#9;&#9;C303,244,297.2,249.6,290.1,249.4C290.1,249.4,290.1,249.4,290.1,249.4z"/>
	<path class="st1_podcaster-43" d="M290.7,251.3h-0.4l-17.4-0.4c-0.5,0-1-0.2-1.3-0.6c-0.3-0.4-0.5-0.8-0.5-1.3l1-39.6c0-1,0.9-1.8,1.9-1.8&#10;&#9;&#9;l17.4,0.4c7.9,0.2,14.2,6.8,14,14.7l-0.4,14.5C304.8,245,298.4,251.2,290.7,251.3L290.7,251.3z M274.8,247.2l15.6,0.4&#10;&#9;&#9;c5.9,0.1,10.8-4.5,10.9-10.4l0.4-14.5c0.1-5.9-4.5-10.8-10.4-10.9l-15.6-0.4L274.8,247.2z"/>
	<path class="st1_podcaster-43" d="M244.7,314.1c-1,0-1.9-0.9-1.8-1.9c0-0.4,0.1-0.8,0.4-1.1l13.8-17c0.7-0.8,1.9-0.8,2.6-0.1&#10;&#9;&#9;c0.7,0.6,0.8,1.7,0.3,2.5l-13.8,17C245.8,313.9,245.2,314.1,244.7,314.1z"/>
	<path class="st1_podcaster-43" d="M203.4,314.1c-0.6,0-1.1-0.3-1.4-0.7l-13.8-17c-0.6-0.8-0.4-2,0.4-2.6c0.8-0.5,1.8-0.4,2.5,0.3l13.8,17&#10;&#9;&#9;c0.6,0.8,0.5,2-0.3,2.6c0,0,0,0,0,0C204.3,314,203.9,314.1,203.4,314.1z"/>
	<path class="st1_podcaster-43" d="M272.6,342.4c-1,0-1.9-0.8-1.9-1.9c0,0,0,0,0,0v-17c0.1-1,1-1.8,2-1.7c0.9,0.1,1.7,0.8,1.7,1.7v17&#10;&#9;&#9;C274.5,341.5,273.6,342.4,272.6,342.4C272.6,342.4,272.6,342.4,272.6,342.4z"/>
	<path class="st1_podcaster-43" d="M172.2,344c-1,0-1.9-0.8-1.9-1.9v-17c-0.1-1,0.7-1.9,1.7-2c1-0.1,1.9,0.7,2,1.7c0,0.1,0,0.2,0,0.3v17&#10;&#9;&#9;C174.1,343.2,173.3,344,172.2,344z"/>
	<path class="st1_podcaster-43" d="M106.6,251.6c-1,0-1.8-0.7-1.8-1.7c-0.6-5.8,2.4-11.3,7.6-14c0.9-0.4,2,0,2.5,0.9c0.4,0.9,0,2-0.9,2.5&#10;&#9;&#9;c-3.8,2-5.9,6.1-5.5,10.3c0.1,1-0.7,1.9-1.7,2L106.6,251.6z"/>
</g>
<g id="microphone_podcaster-43">
	<path class="st6_podcaster-43" d="M345.5,253.1l34.3,23.4c9.2,6,11.8,18.4,5.8,27.7s-18.4,11.8-27.7,5.8c-0.2-0.2-0.5-0.3-0.7-0.5l-34.3-23.4&#10;&#9;&#9;c-9.1-6.2-11.5-18.7-5.2-27.8C323.9,249.2,336.4,246.9,345.5,253.1L345.5,253.1z"/>
	<path class="st1_podcaster-43" d="M368.5,315c-4.4,0-8.7-1.3-12.3-3.8l-34.3-23.5c-10-6.8-12.5-20.4-5.7-30.4s20.4-12.5,30.4-5.7l0,0l34.3,23.4&#10;&#9;&#9;c10,6.8,12.6,20.4,5.8,30.4C382.6,311.4,375.8,315,368.5,315z M334.3,251.5c-1.1,0-2.3,0.1-3.4,0.3c-9.9,1.9-16.3,11.3-14.5,21.2&#10;&#9;&#9;c0.9,4.7,3.6,8.9,7.6,11.6l34.3,23.4c8.3,5.6,19.6,3.5,25.2-4.7c5.7-8.3,3.5-19.6-4.7-25.2l-34.3-23.4&#10;&#9;&#9;C341.5,252.6,337.9,251.5,334.3,251.5z"/>
	<path class="st2_podcaster-43 targetColor" d="M362.7,264.9l17.1,11.7c9.2,6,11.8,18.4,5.8,27.7s-18.4,11.8-27.7,5.8c-0.2-0.2-0.5-0.3-0.7-0.5l-17.1-11.7&#10;&#9;&#9;L362.7,264.9z" style="fill: rgb(104, 225, 253);"/>
	<path class="st1_podcaster-43" d="M368.5,315c-4.4,0-8.7-1.3-12.3-3.8L339,299.5c-0.8-0.6-1.1-1.7-0.5-2.6l22.6-33c0.6-0.8,1.7-1.1,2.6-0.5&#10;&#9;&#9;l17.2,11.7c10,6.8,12.6,20.4,5.8,30.4C382.6,311.4,375.8,315,368.5,315z M342.7,297.4l15.6,10.7c8.3,5.6,19.6,3.5,25.2-4.7&#10;&#9;&#9;c5.7-8.3,3.5-19.6-4.7-25.2l-15.6-10.7L342.7,297.4z"/>
	
		<rect x="334.3" y="282.8" transform="matrix(0.5644 -0.8255 0.8255 0.5644 -88.8985 402.5899)" class="st1_podcaster-43" width="5.5" height="5.5"/>
	
		<rect x="340.2" y="274" transform="matrix(0.5644 -0.8255 0.8255 0.5644 -79.0856 403.7152)" class="st1_podcaster-43" width="5.5" height="5.5"/>
	
		<rect x="346.2" y="265.3" transform="matrix(0.5644 -0.8255 0.8255 0.5644 -69.282 404.8395)" class="st1_podcaster-43" width="5.5" height="5.5"/>
	
		<rect x="325.2" y="276.6" transform="matrix(0.5644 -0.8255 0.8255 0.5644 -87.7413 392.4288)" class="st1_podcaster-43" width="5.5" height="5.5"/>
	
		<rect x="331.2" y="267.9" transform="matrix(0.5644 -0.8255 0.8255 0.5644 -77.9284 393.5541)" class="st1_podcaster-43" width="5.5" height="5.5"/>
	
		<rect x="336.8" y="256.5" transform="matrix(0.5593 -0.829 0.829 0.5593 -65.2111 395.7456)" class="st1_podcaster-43" width="5.5" height="5.5"/>
	
		<rect x="322.1" y="261.7" transform="matrix(0.5644 -0.8255 0.8255 0.5644 -76.7564 383.393)" class="st1_podcaster-43" width="5.5" height="5.5"/>
	<path class="st1_podcaster-43" d="M361.5,284h4.1c1.3,0,2.4,1.1,2.4,2.4l0,0v113.6l0,0h-8.9l0,0V286.4C359.1,285,360.2,284,361.5,284L361.5,284&#10;&#9;&#9;L361.5,284z"/>
	<path class="st1_podcaster-43" d="M368,401.8h-8.9c-1,0-1.9-0.8-1.9-1.9V288.4c0-3.5,2.8-6.3,6.3-6.3c3.5,0,6.3,2.8,6.3,6.3v111.5&#10;&#9;&#9;C369.9,401,369,401.8,368,401.8L368,401.8z M361,398.1h5.1V288.4c0-1.4-1.2-2.6-2.6-2.6s-2.6,1.2-2.6,2.6V398.1z"/>
	<path class="st1_podcaster-43" d="M338,388.5h51.1c1.1,0,2,0.9,2,2v7.4c0,1.1-0.9,2-2,2H338c-1.1,0-2-0.9-2-2v-7.4&#10;&#9;&#9;C336,389.4,336.9,388.5,338,388.5z"/>
	<path class="st1_podcaster-43" d="M387.4,401.8h-47.7c-3.1,0-5.6-2.5-5.6-5.6v-4c0-3.1,2.5-5.6,5.6-5.6h47.7c3.1,0,5.6,2.5,5.6,5.6v4&#10;&#9;&#9;C392.9,399.3,390.5,401.8,387.4,401.8z M339.7,390.4c-1,0-1.8,0.8-1.8,1.8v4c0,1,0.8,1.8,1.8,1.8h47.7c1,0,1.8-0.8,1.8-1.8v-4&#10;&#9;&#9;c0-1-0.8-1.8-1.8-1.8H339.7z"/>
	<path class="st0_podcaster-43" d="M376.7,354l-17.7,4.7c-1.2,0.3-2.5-0.4-2.8-1.6l-1-3.8c-0.3-1.2,0.4-2.5,1.6-2.8l17.7-4.7&#10;&#9;&#9;c1.2-0.3,2.5,0.4,2.8,1.6l1,3.8C378.6,352.4,377.9,353.7,376.7,354z"/>
	<path class="st1_podcaster-43" d="M359.7,360.2c-2.8,0-5.2-1.9-5.9-4.6c-0.9-3.3,1.1-6.6,4.4-7.5l13.8-3.7c3.3-0.9,6.6,1.1,7.5,4.4c0,0,0,0,0,0&#10;&#9;&#9;c0.9,3.3-1.1,6.6-4.4,7.5l-13.8,3.6l0,0C360.8,360.1,360.3,360.2,359.7,360.2z M360.8,358.2L360.8,358.2z M373.6,348&#10;&#9;&#9;c-0.2,0-0.4,0-0.6,0.1l-13.9,3.7c-0.6,0.2-1.1,0.6-1.5,1.1c-0.7,1.1-0.3,2.6,0.9,3.3c0.6,0.3,1.2,0.4,1.8,0.3l13.9-3.7&#10;&#9;&#9;c1.3-0.3,2.1-1.7,1.7-2.9C375.7,348.7,374.7,348,373.6,348L373.6,348z"/>
	<path class="st0_podcaster-43" d="M377.2,362l-17.7,4.7c-1.2,0.3-2.5-0.4-2.8-1.6l-1-3.8c-0.3-1.2,0.4-2.5,1.6-2.8l17.7-4.7&#10;&#9;&#9;c1.2-0.3,2.5,0.4,2.8,1.6l1,3.8C379.1,360.5,378.4,361.7,377.2,362z"/>
	<path class="st1_podcaster-43" d="M360.3,368.3c-1.1,0-2.1-0.3-3.1-0.8c-1.4-0.8-2.4-2.2-2.9-3.7c-0.9-3.3,1.1-6.6,4.4-7.5c0,0,0,0,0,0l13.9-3.7&#10;&#9;&#9;c1.6-0.4,3.3-0.2,4.7,0.6c2.9,1.7,3.9,5.4,2.2,8.4c0,0,0,0,0,0c-0.8,1.4-2.2,2.4-3.8,2.9l-13.9,3.7&#10;&#9;&#9;C361.4,368.2,360.8,368.3,360.3,368.3z M374.2,356c-0.2,0-0.4,0-0.6,0.1l-13.9,3.7c-1.3,0.3-2.1,1.6-1.8,2.9&#10;&#9;&#9;c0.3,1.3,1.6,2.1,2.9,1.8c0,0,0,0,0.1,0l0,0l13.9-3.7c1.3-0.3,2.1-1.7,1.7-2.9C376.2,356.7,375.3,356,374.2,356L374.2,356z"/>
	<path class="st0_podcaster-43" d="M377.8,370.1l-17.7,4.7c-1.2,0.3-2.5-0.4-2.8-1.6l-1-3.8c-0.3-1.2,0.4-2.5,1.6-2.8l17.7-4.7&#10;&#9;&#9;c1.2-0.3,2.5,0.4,2.8,1.6l1,3.8C379.7,368.5,379,369.7,377.8,370.1z"/>
	<path class="st1_podcaster-43" d="M360.8,376.3c-3.4,0-6.1-2.8-6.1-6.2c0-2.8,1.9-5.2,4.6-5.9l13.9-3.7c3.3-0.9,6.6,1.1,7.5,4.4c0,0,0,0,0,0&#10;&#9;&#9;c0.9,3.3-1.1,6.6-4.4,7.5l-13.9,3.7C361.9,376.2,361.4,376.3,360.8,376.3z M374.7,364.1c-0.2,0-0.4,0-0.6,0.1l-13.9,3.7&#10;&#9;&#9;c-1.3,0.3-2,1.7-1.7,2.9c0.2,0.6,0.6,1.2,1.1,1.5c0.6,0.3,1.2,0.4,1.8,0.2l0,0l13.9-3.7c0.6-0.2,1.2-0.6,1.5-1.1&#10;&#9;&#9;c0.7-1.1,0.3-2.6-0.9-3.3c0,0,0,0,0,0C375.6,364.2,375.1,364.1,374.7,364.1z"/>
	<path class="st0_podcaster-43" d="M378.3,378.1l-17.7,4.7c-1.2,0.3-2.5-0.4-2.8-1.6l-1-3.8c-0.3-1.2,0.4-2.5,1.6-2.8l17.7-4.7&#10;&#9;&#9;c1.2-0.3,2.5,0.4,2.8,1.6l1,3.8C380.3,376.5,379.5,377.8,378.3,378.1z"/>
	<path class="st1_podcaster-43" d="M361.4,384.3c-2.8,0-5.2-1.9-5.9-4.6c-0.9-3.3,1.1-6.6,4.4-7.5l13.9-3.7c3.3-0.8,6.6,1.2,7.4,4.5&#10;&#9;&#9;c0.8,3.2-1.1,6.5-4.3,7.4l-13.8,3.7C362.5,384.2,361.9,384.3,361.4,384.3z M375.3,372.1c-0.2,0-0.4,0-0.6,0.1l-13.9,3.7&#10;&#9;&#9;c-1.3,0.3-2.1,1.7-1.7,2.9c0,0,0,0,0,0c0.2,0.6,0.6,1.1,1.1,1.5c0.6,0.3,1.2,0.4,1.8,0.2l0,0l13.9-3.7c1.3-0.3,2-1.7,1.7-3&#10;&#9;&#9;C377.3,372.8,376.4,372.1,375.3,372.1L375.3,372.1z"/>
	<path class="st0_podcaster-43" d="M350,344.1h4.3c1.4,0,2.5,1.1,2.5,2.5v17.9c0,1.4-1.1,2.5-2.5,2.5H350c-1.4,0-2.5-1.1-2.5-2.5v-17.9&#10;&#9;&#9;C347.5,345.2,348.7,344.1,350,344.1z"/>
	<path class="st1_podcaster-43" d="M352.2,368.9c-3.6,0-6.5-2.9-6.5-6.5c0,0,0,0,0,0v-13.6c0-3.6,2.9-6.5,6.5-6.5c3.6,0,6.5,2.9,6.5,6.5&#10;&#9;&#9;c0,0,0,0,0,0v13.6C358.8,365.9,355.8,368.9,352.2,368.9z M352.2,345.9c-1.5,0-2.8,1.2-2.8,2.8c0,0,0,0,0,0v13.6&#10;&#9;&#9;c0,1.6,1.3,2.8,2.8,2.8c1.6,0,2.8-1.3,2.8-2.8c0,0,0,0,0,0v-13.6C355,347.2,353.8,346,352.2,345.9L352.2,345.9z"/>
</g>
<g id="line_podcaster-43">
	<path class="st1_podcaster-43" d="M428.2,401.8H72.6c-1-0.1-1.8-1-1.7-2c0.1-0.9,0.8-1.7,1.7-1.7h355.6c1-0.1,1.9,0.7,2,1.7c0.1,1-0.7,1.9-1.7,2&#10;&#9;&#9;C428.4,401.8,428.3,401.8,428.2,401.8z"/>
</g>
<g id="speech-bubble_podcaster-43">
	<path class="st7_podcaster-43" d="M328.6,183h90.7c2,0,3.7,1.7,3.7,3.7v35.1c0,2-1.7,3.7-3.7,3.7h-90.7c-2,0-3.7-1.7-3.7-3.7v-35.1&#10;&#9;&#9;C324.9,184.6,326.5,183,328.6,183z"/>
	<path class="st3_podcaster-43" d="M416,227.3h-84.2c-4.8,0-8.8-3.9-8.8-8.8v-28.6c0-4.9,3.9-8.8,8.8-8.8H416c4.9,0,8.8,3.9,8.8,8.8v28.6&#10;&#9;&#9;C424.8,223.4,420.8,227.3,416,227.3z M331.8,184.9c-2.8,0-5,2.2-5,5v28.6c0,2.8,2.2,5,5,5H416c2.8,0,5-2.2,5-4.9c0,0,0,0,0-0.1&#10;&#9;&#9;v-28.6c0-2.8-2.2-5-5-5c0,0,0,0-0.1,0L331.8,184.9z"/>
	<path class="st3_podcaster-43" d="M350.4,204.2c0,1.2-0.2,2.5-0.7,3.6c-0.4,1.1-1.1,2-1.9,2.8c-0.8,0.8-1.8,1.4-2.9,1.8&#10;&#9;&#9;c-1.2,0.4-2.4,0.6-3.6,0.6c-1.2,0-2.5-0.2-3.6-0.6c-1.1-0.4-2.1-1-2.9-1.8c-0.8-0.8-1.5-1.8-1.9-2.8c-0.5-1.2-0.7-2.4-0.7-3.6&#10;&#9;&#9;c0-1.2,0.2-2.5,0.7-3.6c0.4-1,1.1-2,1.9-2.8c0.8-0.8,1.8-1.4,2.9-1.8c1.2-0.4,2.4-0.6,3.6-0.6c1.2,0,2.5,0.2,3.6,0.6&#10;&#9;&#9;c1.1,0.4,2.1,1,2.9,1.8c0.8,0.8,1.5,1.7,1.9,2.8C350.2,201.7,350.4,202.9,350.4,204.2z M346.1,204.2c0-0.7-0.1-1.4-0.4-2&#10;&#9;&#9;c-0.2-0.6-0.6-1.2-1-1.6c-0.4-0.5-0.9-0.8-1.5-1.1c-0.6-0.3-1.3-0.4-2-0.4c-0.7,0-1.3,0.1-1.9,0.4c-0.6,0.2-1.1,0.6-1.5,1.1&#10;&#9;&#9;c-0.4,0.5-0.8,1-1,1.6c-0.5,1.3-0.5,2.8,0,4.1c0.2,0.6,0.6,1.2,1,1.6c0.4,0.5,0.9,0.8,1.5,1.1c0.6,0.3,1.3,0.4,1.9,0.4&#10;&#9;&#9;c0.7,0,1.3-0.1,1.9-0.4c0.6-0.3,1.1-0.6,1.5-1.1c0.4-0.5,0.8-1,1-1.6C346,205.6,346.1,204.9,346.1,204.2L346.1,204.2z"/>
	<path class="st3_podcaster-43" d="M363.7,212.6l-6.7-10.9h-0.1l0.1,10.9h-3.9v-16.7h4.6l6.7,10.9h0.1l-0.1-10.9h3.9v16.7H363.7z"/>
	<path class="st3_podcaster-43" d="M388.6,212.6l-1.3-3.3h-6.5l-1.2,3.3h-4.4l7-16.7h3.9l7,16.7H388.6z M384.1,200.3l-2.1,5.7h4.2L384.1,200.3z"/>
	<path class="st3_podcaster-43" d="M394.5,212.6v-16.7h4.1v16.7H394.5z"/>
	<path class="st3_podcaster-43" d="M410.9,212.6l-3.6-6.6h-1.4v6.6h-4v-16.8h6.4c0.8,0,1.6,0.1,2.4,0.2c0.7,0.2,1.4,0.4,2.1,0.8&#10;&#9;&#9;c0.6,0.4,1.1,0.9,1.5,1.6c0.4,0.7,0.6,1.6,0.5,2.4c0,1-0.3,2-0.9,2.9c-0.7,0.8-1.6,1.4-2.6,1.7l4.4,7.2H410.9z M410.8,201&#10;&#9;&#9;c0-0.4-0.1-0.7-0.2-1c-0.2-0.2-0.4-0.4-0.6-0.6c-0.3-0.1-0.6-0.2-0.9-0.3c-0.3,0-0.6-0.1-0.9-0.1h-2.2v3.9h1.9c0.3,0,0.7,0,1-0.1&#10;&#9;&#9;c0.3,0,0.7-0.1,1-0.3c0.3-0.1,0.5-0.4,0.7-0.6C410.7,201.7,410.8,201.4,410.8,201z"/>
</g>
</svg>