<svg version="1.1" id="Layer_1" xmlns="http://www.w3.org/2000/svg" xmlns:xlink="http://www.w3.org/1999/xlink" x="0px" y="0px" viewBox="0 0 500 500" style="width: 188px;" xml:space="preserve" data-imageid="product-manager-17" imageName="Product Manager" class="illustrations_image">
<style type="text/css">
	.st0_product-manager-17{fill:#FFC9B0;}
	.st1_product-manager-17{fill:#093F68;}
	.st2_product-manager-17{fill:#FFBC0E;}
	.st3_product-manager-17{fill:#FFFFFF;}
	.st4_product-manager-17{fill:#68E1FD;}
	.st5_product-manager-17{fill:#DFEAEF;}
	.st6_product-manager-17{fill:#70CC40;}
	.st7_product-manager-17{fill:#F56132;}
	.st8_product-manager-17{fill:#725858;}
</style>
<g id="megaphone_product-manager-17">
	<path class="st0_product-manager-17" d="M127.6,219.8c0,0-10.1-17.5-11.5-22s-5.2-24.8-10.1-24.5s-30.9-3.5-30.2,9.2s6.9,19.9,11.5,22&#10;&#9;&#9;s18.7,32.7,19.4,34.1L127.6,219.8z"/>
	<path class="st1_product-manager-17" d="M106.7,240.5c-0.1,0-0.2,0-0.3,0c-0.6-0.1-1.1-0.5-1.3-1l-0.5-1.1c-13.7-28.9-17.4-31.9-18-32.1&#10;&#9;&#9;c-5.7-2.6-11.8-11-12.5-23.6c-0.2-2.5,0.7-5,2.5-6.8c5.4-5.4,18.1-4.8,25.7-4.5c1.7,0.1,3.1,0.1,3.8,0.1h0.2&#10;&#9;&#9;c4.9,0,7.7,9.9,10.7,21.8c0.4,1.8,0.8,3.3,1.1,4.1c1.1,3.5,8.5,16.8,11.3,21.6c0.4,0.8,0.3,1.7-0.4,2.3L107.9,240&#10;&#9;&#9;C107.5,240.3,107.1,240.5,106.7,240.5z M95.2,174.9c-6.1,0-13.1,0.6-16.1,3.6c-1,1-1.5,2.5-1.4,3.9c0.7,12.7,7.1,18.9,10.4,20.4&#10;&#9;&#9;c1.3,0.6,4.6,2.1,19.2,32.7l18-16.1c-2.4-4.2-9.7-17.1-10.9-21c-0.3-0.9-0.7-2.4-1.1-4.3c-3.8-15.2-5.9-18.7-7.1-19&#10;&#9;&#9;c-0.9,0.1-2.4,0-4.2-0.1S97.7,174.9,95.2,174.9z"/>
	<path class="st2_product-manager-17" d="M92.3,201.1l-5.2-1.3c-1.7-0.4-2.7-2.1-2.3-3.8l8.7-34.5l0,0l11.3,2.9l0,0l-8.7,34.5&#10;&#9;&#9;C95.7,200.6,94,201.6,92.3,201.1z"/>
	<path class="st1_product-manager-17" d="M91.2,202.5c-0.6,0-1.3-0.1-1.9-0.2c-4.1-1-6.6-5.2-5.6-9.3l8.1-32c0.1-0.5,0.4-0.9,0.8-1.1&#10;&#9;&#9;c0.4-0.3,0.9-0.3,1.4-0.2l11.3,2.9c1,0.3,1.6,1.3,1.3,2.2c0,0,0,0,0,0l-8.1,31.9C97.7,200.1,94.7,202.5,91.2,202.5L91.2,202.5z&#10;&#9;&#9; M95,163.7l-7.6,30.1c-0.3,1-0.1,2.1,0.4,3c1.2,1.9,3.7,2.4,5.5,1.2c0.8-0.5,1.4-1.3,1.7-2.2l7.6-30.1L95,163.7z"/>
	<path class="st2_product-manager-17" d="M30,184l81.2-15.3c6.9-1.3,12-6.6,12.5-13l0.1-1.1c0.5-6.4-3.8-12.3-10.5-14.6l-78.2-26.7L30,184z"/>
	<path class="st1_product-manager-17" d="M30,185.8c-0.5,0-0.9-0.2-1.2-0.5c-0.4-0.4-0.7-0.9-0.6-1.5l5.1-70.7c0.1-1,1-1.8,2-1.7c0.2,0,0.3,0,0.5,0.1&#10;&#9;&#9;l78.2,26.8c7.4,2.5,12.2,9.3,11.7,16.5l-0.1,1.1c-0.5,7.2-6.3,13.2-14,14.6l-81.2,15.3C30.2,185.8,30.1,185.8,30,185.8z&#10;&#9;&#9; M36.8,115.8L32,181.7l78.8-14.9c6.1-1.1,10.6-5.8,11-11.3l0.1-1.1c0.4-5.5-3.4-10.7-9.2-12.7L36.8,115.8z"/>
	<path class="st2_product-manager-17" d="M24,188.9L24,188.9c-3.1-0.2-5.5-2.9-5.2-6l5-70.2c0.2-3.1,2.9-5.4,6-5.2l0,0c3.1,0.2,5.4,2.9,5.2,6l-5,70.2&#10;&#9;&#9;C29.8,186.8,27.1,189.1,24,188.9z"/>
	<path class="st1_product-manager-17" d="M24.6,190.8h-0.5h-0.6l0,0c-4-0.3-7-3.7-6.7-7.7l5.1-70.8c0.3-4,3.7-6.9,7.7-6.7h0.6c4,0.3,6.9,3.7,6.7,7.7&#10;&#9;&#9;c0,0,0,0,0,0l-5.1,70.7C31.6,187.8,28.5,190.8,24.6,190.8L24.6,190.8z M23.8,187.1h0.6c0.9,0.1,1.8-0.2,2.5-0.9&#10;&#9;&#9;c0.7-0.6,1.1-1.5,1.2-2.4l5.1-70.7c0.1-1.9-1.3-3.6-3.2-3.7h-0.6c-1.9-0.1-3.6,1.3-3.7,3.2l-5.1,70.7&#10;&#9;&#9;C20.5,185.3,21.9,187,23.8,187.1L23.8,187.1z"/>
	<path class="st0_product-manager-17" d="M106.2,176.8c-7.2-2.5-15.1-1.4-21.3,3c-0.4,0.2-0.8,0.6-1,1.1c-0.3,0.9,0.7,1.8,1.5,2.2&#10;&#9;&#9;c3.8,2.1,8.3,2.1,12.7,2c-1.9,2-1,5.4,0.4,7.7c2,3.2,4.8,5.9,8.2,7.7"/>
	<path class="st1_product-manager-17" d="M106.6,202.4c-0.3,0-0.6-0.1-0.9-0.2c-3.6-2-6.7-4.8-8.9-8.4c-1.3-2-1.9-4.4-1.7-6.8&#10;&#9;&#9;c-3.5-0.1-7.3-0.4-10.7-2.2c-1.9-1.1-2.9-2.7-2.4-4.4c0.3-0.9,0.9-1.6,1.7-2.1c6.7-4.7,15.3-5.9,23-3.2c1,0.3,1.5,1.4,1.1,2.4&#10;&#9;&#9;c-0.3,1-1.4,1.5-2.4,1.1c-6.6-2.3-13.9-1.3-19.6,2.8c0.1,0.1,0.2,0.1,0.3,0.2c3.5,1.9,7.9,1.8,11.8,1.8c0.7,0,1.4,0.4,1.7,1.1&#10;&#9;&#9;c0.3,0.7,0.1,1.5-0.4,2c-1.1,1.2-0.5,3.7,0.7,5.5c1.8,3,4.4,5.4,7.5,7c0.9,0.5,1.2,1.6,0.8,2.5C108,202,107.3,202.4,106.6,202.4&#10;&#9;&#9;L106.6,202.4z"/>
</g>
<g id="paper_product-manager-17">
	
		<rect x="53.1" y="349.5" transform="matrix(0.5787 -0.8155 0.8155 0.5787 -282.8893 228.7488)" class="st3_product-manager-17" width="53.8" height="77.4"/>
	<path class="st1_product-manager-17" d="M96,434.4c-0.4,0-0.8-0.1-1.1-0.4l-63.2-44.8c-0.8-0.6-1-1.7-0.4-2.6l31.1-43.9c0.6-0.8,1.7-1,2.6-0.4&#10;&#9;&#9;l63.2,44.8c0.8,0.6,1,1.7,0.4,2.6c0,0,0,0,0,0l-31.2,43.9C97.1,434.1,96.6,434.4,96,434.4z M35.4,387.3l60.1,42.7l29-40.9&#10;&#9;&#9;l-60.2-42.7L35.4,387.3z"/>
	<path class="st0_product-manager-17" d="M119.8,353.5c0,0-5.6,9.4-5.9,11.1s3.7,10.2,0.9,12.9l-8.1-6c0,0-9,21-15.6,18.2s-14-13.4-13.3-18.6&#10;&#9;&#9;s21-30.2,21-30.2L119.8,353.5z"/>
	<path class="st1_product-manager-17" d="M92.2,391.9c-0.7,0-1.3-0.1-1.9-0.4c-7.3-3.1-15.2-14.4-14.4-20.5c0.7-5.5,18-26.9,21.4-31.1&#10;&#9;&#9;c0.6-0.7,1.6-0.9,2.4-0.4l21,12.5c0.9,0.5,1.2,1.7,0.7,2.5c-2.5,4.3-5.4,9.5-5.7,10.5c0,0.3,0.4,1.6,0.6,2.5&#10;&#9;&#9;c1,3.7,2.4,8.7-0.3,11.3c-0.6,0.7-1.7,0.7-2.4,0.2l-6.3-4.6C104.8,380,98.5,391.9,92.2,391.9z M99.2,343.4&#10;&#9;&#9;c-8.2,10.2-19.2,25-19.6,28.1c-0.6,4.1,6.2,14.1,12.2,16.6c3.2,1.4,9.7-9.1,13.2-17.2c0.2-0.5,0.7-0.9,1.2-1.1&#10;&#9;&#9;c0.5-0.1,1.1,0,1.6,0.3l6.2,4.5c-0.1-2.1-0.5-4.1-1.2-6.1c-0.6-2.1-0.9-3.3-0.7-4.2c0.3-1.6,3.2-6.8,5.2-10.1L99.2,343.4z"/>
	<path class="st4_product-manager-17 targetColor" d="M207,310.1c0,0-42.3,3-51.4,12c-12.9,12.9-35.4,38.6-35.4,38.6l-25.8-17.3c0,0,28.7-49.7,43.3-58.6&#10;&#9;&#9;s79.1-23.5,79.1-23.5L207,310.1z" style="fill: rgb(104, 225, 253);"/>
	<path class="st1_product-manager-17" d="M120.2,362.6c-0.4,0-0.7-0.1-1-0.3l-25.8-17.4c-0.8-0.5-1.1-1.6-0.6-2.5c1.2-2,29.1-50.2,44-59.2&#10;&#9;&#9;s77-23.1,79.7-23.7c1-0.2,2,0.4,2.2,1.4c0.1,0.3,0.1,0.5,0,0.8l-9.9,48.8c-0.2,0.8-0.9,1.4-1.7,1.5c-11.6,0.8-43.1,4.5-50.2,11.5&#10;&#9;&#9;c-12.8,12.7-35.1,38.3-35.3,38.5C121.3,362.3,120.8,362.6,120.2,362.6z M96.9,342.8l23,15.5c4.7-5.3,23.2-26.3,34.4-37.5&#10;&#9;&#9;c8.6-8.5,43.5-11.8,51.1-12.4l9-44.6c-12.5,2.9-63.3,15.1-75.8,22.6C126.1,294,101.8,334.5,96.9,342.8z M207,310.1L207,310.1z"/>
	<path class="st5_product-manager-17" d="M93.1,414.6c-0.4,0-0.8-0.1-1.1-0.4c-0.8-0.6-1-1.7-0.4-2.6l18.8-26.3c0.5-0.9,1.7-1.1,2.5-0.6&#10;&#9;&#9;c0.9,0.5,1.1,1.7,0.6,2.5c0,0.1-0.1,0.1-0.2,0.2l-18.7,26.3C94.3,414.3,93.7,414.6,93.1,414.6z"/>
</g>
<g id="clock_product-manager-17">
	<path class="st0_product-manager-17" d="M399.7,353.5c1.5,2.6,4.3,5.9,5,8.9c1.2,5.6-2.3,12.4-1.9,18.7c0,1.1,0.3,2.1,0.9,3c1.1,1.4,3.5,1.2,4.9,0.1&#10;&#9;&#9;c1.3-1.2,2.3-2.8,2.7-4.6c1.2-3.9,2-8.4,5.4-10.8c8.1-5.8,23.2-1.2,31.3,2.2c2.2,0.9,4.7,2,6.9,1.1c1.7-0.8,2.9-2.5,3-4.5&#10;&#9;&#9;c0.1-1.9-0.4-3.7-1.4-5.4c-3.4-6.2-11.4-9.7-17.7-12.3c-5.3-2.2-14.6-3.9-18-9C418.8,342.2,399.7,353.5,399.7,353.5z"/>
	<path class="st1_product-manager-17" d="M406,386.9c-1.4,0-2.8-0.6-3.8-1.6c-0.9-1.2-1.3-2.6-1.3-4.1c0-3.1,0.3-6.3,1.1-9.3c0.7-3.3,1.4-6.5,0.8-9.1&#10;&#9;&#9;c-0.4-1.8-1.9-4-3.2-5.9c-0.6-0.9-1.1-1.7-1.6-2.5c-0.2-0.4-0.3-0.9-0.2-1.3c0.2-0.8,0.2-0.8,5.3-3.9c5.7-3.4,15.2-9,16.5-9.9&#10;&#9;&#9;c0.9-0.5,2-0.3,2.5,0.6c2.1,3.3,7.5,5,12.2,6.6c1.8,0.6,3.5,1.1,4.9,1.7c5.9,2.5,14.8,6.2,18.6,13.1c1.2,1.9,1.7,4.2,1.6,6.4&#10;&#9;&#9;c-0.2,2.6-1.7,4.9-4.1,6c-2.9,1.2-5.9,0-8.2-1c-5-2.1-21.5-8.3-29.6-2.5c-2.3,1.6-3.2,4.7-4.1,7.9c-0.2,0.7-0.4,1.3-0.6,2&#10;&#9;&#9;c-0.5,2.1-1.7,4-3.3,5.5C408.6,386.5,407.3,386.9,406,386.9z M402.3,354.1l0.5,0.7c1.5,2.2,3.1,4.7,3.7,7.1c0.8,3.4,0,7.1-0.8,10.7&#10;&#9;&#9;c-0.7,2.7-1.1,5.5-1.1,8.3c0,0.7,0.1,1.4,0.5,2c0.4,0.5,1.6,0.4,2.3-0.1c1-1,1.7-2.3,2-3.6c0.2-0.6,0.4-1.2,0.6-1.9&#10;&#9;&#9;c1-3.5,2.2-7.5,5.5-9.9c9.5-6.8,26.3-0.9,33.1,2c2,0.9,4,1.7,5.5,1.1c1.1-0.6,1.8-1.7,1.8-2.9c0-1.5-0.4-3-1.2-4.3&#10;&#9;&#9;c-3.2-5.8-11.4-9.2-16.8-11.5c-1.3-0.5-2.9-1.1-4.6-1.6c-4.7-1.5-10-3.3-13.1-6.6c-3.2,1.9-10.5,6.2-15.2,9L402.3,354.1z"/>
	<path class="st4_product-manager-17 targetColor" d="M312.5,310.1c0,0,42.3,3,51.4,12c12.9,12.9,35.4,38.6,35.4,38.6l25.8-17.4c0,0-28.7-49.7-43.3-58.6&#10;&#9;&#9;s-79.1-23.5-79.1-23.5L312.5,310.1z" style="fill: rgb(104, 225, 253);"/>
	<path class="st1_product-manager-17" d="M399.3,362.6c-0.5,0-1-0.2-1.4-0.6c-0.2-0.3-22.6-25.9-35.3-38.5c-7-7-38.6-10.6-50.2-11.5&#10;&#9;&#9;c-0.8-0.1-1.5-0.7-1.7-1.5l-9.9-48.8c-0.1-0.6,0.1-1.3,0.5-1.7c0.4-0.4,1.1-0.6,1.7-0.5c2.6,0.6,65,14.9,79.7,23.7&#10;&#9;&#9;c14.8,9,42.8,57.2,44,59.2c0.5,0.8,0.2,1.9-0.6,2.5l-25.8,17.4C400,362.5,399.6,362.6,399.3,362.6z M314,308.4&#10;&#9;&#9;c7.6,0.6,42.5,3.9,51.1,12.4c11.2,11.1,29.8,32.2,34.4,37.5l23-15.5c-4.9-8.3-29.2-48.8-41.8-56.4c-12.5-7.5-63.3-19.7-75.8-22.6&#10;&#9;&#9;L314,308.4z"/>
	<circle class="st6_product-manager-17" cx="435.2" cy="387.9" r="28.5"/>
	<path class="st1_product-manager-17" d="M435.2,418.3c-16.8,0-30.4-13.6-30.4-30.4s13.6-30.4,30.4-30.4s30.4,13.6,30.4,30.4&#10;&#9;&#9;C465.5,404.7,452,418.3,435.2,418.3z M435.2,361.3c-14.7,0-26.7,11.9-26.7,26.7s11.9,26.7,26.7,26.7s26.7-11.9,26.7-26.7&#10;&#9;&#9;c0,0,0,0,0,0C461.8,373.2,449.9,361.3,435.2,361.3L435.2,361.3z"/>
	<circle class="st3_product-manager-17" cx="435.2" cy="387.9" r="20.2"/>
	<path class="st1_product-manager-17" d="M435.2,409.9c-12.2,0-22-9.8-22-22s9.8-22,22-22s22,9.8,22,22S447.4,409.9,435.2,409.9z M435.2,369.6&#10;&#9;&#9;c-10.1,0-18.3,8.2-18.3,18.3s8.2,18.3,18.3,18.3s18.3-8.2,18.3-18.3c0,0,0,0,0,0C453.5,377.8,445.3,369.6,435.2,369.6L435.2,369.6z&#10;&#9;&#9;"/>
	<path class="st5_product-manager-17" d="M445.9,389.8h-10.7c-0.6,0-1.1-0.3-1.4-0.7l-6.9-8.7c-0.6-0.8-0.5-2,0.3-2.6c0.8-0.6,2-0.5,2.6,0.3l6.3,8h9.8&#10;&#9;&#9;c1,0,1.9,0.8,1.9,1.9S446.9,389.8,445.9,389.8L445.9,389.8L445.9,389.8z"/>
</g>
<g id="gear_product-manager-17">
	<path class="st7_product-manager-17" d="M483.1,139c-0.1-1.9-1.4-3.5-3.3-3.9c-1.6-0.3-3.2-0.6-4.8-0.8c-0.5,0-0.8-0.3-0.9-0.8c-0.5-1.3-1-2.5-1.6-3.8&#10;&#9;&#9;c-0.2-0.3-0.2-0.7,0.1-1c1-1.3,1.9-2.6,2.8-4c1.1-1.6,0.9-3.7-0.4-5.1c-1.5-1.6-3-3.1-4.5-4.6c-1.6-1.8-4.2-2-6.1-0.6&#10;&#9;&#9;c-1.2,0.8-2.4,1.7-3.5,2.5c-0.3,0.2-0.6,0.3-1,0.1c-1.3-0.6-2.7-1.1-4.1-1.7c-0.3-0.1-0.6-0.4-0.6-0.7c-0.2-1.4-0.5-2.9-0.7-4.4&#10;&#9;&#9;c-0.3-2.1-2.1-3.7-4.2-3.8c-2.2-0.1-4.5-0.1-6.7,0c-2,0-3.6,1.4-4.1,3.3c-0.4,1.6-0.6,3.3-0.9,4.9c0,0.3-0.3,0.6-0.6,0.7&#10;&#9;&#9;c-1.3,0.5-2.6,1.1-3.9,1.7c-0.3,0.2-0.6,0.1-0.9-0.1c-1.3-1-2.6-1.9-3.9-2.8c-1.6-1.1-3.7-0.9-5.1,0.3c-1.7,1.6-3.4,3.2-5,4.9&#10;&#9;&#9;c-1.5,1.6-1.7,4-0.3,5.7c0.9,1.3,1.8,2.5,2.6,3.8c0.1,0.2,0.1,0.4,0.1,0.7c-0.5,1.4-1.1,2.8-1.7,4.2c-0.1,0.2-0.3,0.4-0.5,0.4&#10;&#9;&#9;c-1.5,0.3-2.9,0.5-4.4,0.7c-2.1,0.2-3.8,2-3.9,4.1c-0.1,2.3-0.1,4.7,0,7c0.1,1.9,1.4,3.5,3.2,3.9c1.7,0.4,3.4,0.6,5,0.9&#10;&#9;&#9;c0.3,0,0.6,0.3,0.7,0.6c0.5,1.3,1.1,2.6,1.7,4c0.2,0.3,0.1,0.6-0.1,0.9c-0.9,1.2-1.8,2.4-2.6,3.6c-1.4,1.8-1.2,4.4,0.5,5.9&#10;&#9;&#9;c1.4,1.4,2.8,2.9,4.2,4.3c1.6,1.7,4.2,1.9,6,0.5c1.2-0.9,2.4-1.7,3.6-2.6c0.2-0.2,0.5-0.2,0.8-0.1c1.2,0.5,2.5,1.1,3.8,1.5&#10;&#9;&#9;c0.4,0.1,0.7,0.5,0.7,0.9c0.2,1.4,0.5,2.9,0.7,4.3c0.3,2,1.9,3.6,4,3.8c2.4,0.1,4.7,0.1,7.1,0c1.9-0.1,3.5-1.4,3.9-3.3&#10;&#9;&#9;c0.4-1.6,0.6-3.2,0.9-4.8c0-0.4,0.3-0.7,0.7-0.8c1.3-0.5,2.6-1.1,3.9-1.6c0.3-0.2,0.6-0.1,0.9,0.1c1.2,0.9,2.4,1.7,3.6,2.6&#10;&#9;&#9;c0.9,0.6,1.9,0.9,2.9,0.9c1,0,1.9-0.4,2.6-1.1c1.5-1.4,3-3,4.5-4.5c1.8-1.6,2.1-4.3,0.5-6.2c-0.8-1.2-1.7-2.4-2.5-3.6&#10;&#9;&#9;c-0.2-0.2-0.2-0.6-0.1-0.9c0.6-1.3,1.1-2.6,1.6-4c0.1-0.3,0.4-0.6,0.8-0.6c1.5-0.2,2.9-0.5,4.4-0.7c2.1-0.3,3.7-2,3.8-4.2&#10;&#9;&#9;C483.2,143.6,483.1,141.3,483.1,139z M447.1,158c-8.6,0-15.5-7-15.5-15.6c0-8.6,7-15.5,15.6-15.5c8.6,0,15.5,7,15.5,15.6&#10;&#9;&#9;C462.6,151.1,455.7,158,447.1,158C447.1,158,447.1,158,447.1,158L447.1,158z"/>
	<path class="st1_product-manager-17" d="M447.2,160h-0.1c-4.7,0-9.2-1.9-12.5-5.3c-3.2-3.3-5-7.7-5-12.3c0.1-9.6,7.9-17.4,17.5-17.4l0,0&#10;&#9;&#9;c4.7,0,9.1,1.9,12.4,5.2c3.3,3.3,5.1,7.7,5.1,12.4c0,4.7-1.9,9.2-5.2,12.4C456.2,158.2,451.8,160,447.2,160z M447.1,156&#10;&#9;&#9;c3.6,0,7-1.4,9.5-3.9c2.6-2.5,4.1-6,4.1-9.6c0-7.4-6.1-13.5-13.5-13.5l0,0c-7.4,0-13.5,6-13.5,13.4c0,0,0,0.1,0,0.1&#10;&#9;&#9;c0,3.5,1.3,6.9,3.8,9.4C440,154.6,443.5,156,447.1,156L447.1,156z"/>
	<path class="st1_product-manager-17" d="M447.1,180.5c-1.2,0-2.4,0-3.5-0.1c-3-0.2-5.5-2.4-5.9-5.4c-0.2-1.3-0.4-2.6-0.6-3.9c-1-0.4-1.9-0.8-2.7-1.1&#10;&#9;&#9;c-1,0.7-2.1,1.5-3.1,2.2c-2.6,2-6.3,1.8-8.6-0.7c-1.4-1.4-2.8-2.8-4.3-4.3c-2.3-2.2-2.7-5.8-0.7-8.4c0.7-1.1,1.5-2.1,2.2-3.1&#10;&#9;&#9;c-0.5-1-0.9-2-1.2-2.9l-0.5-0.1c-1.3-0.2-2.7-0.4-4-0.8c-2.7-0.6-4.7-3-4.8-5.8c-0.1-2.5-0.1-4.9,0-7.1c0.2-3.1,2.5-5.6,5.6-6&#10;&#9;&#9;c1.2-0.2,2.4-0.4,3.6-0.6c0.4-1,0.8-1.9,1.2-2.9c-0.4-0.5-0.7-1-1.1-1.5l-1.2-1.7c-1.9-2.5-1.7-6,0.5-8.2c1.5-1.7,3.2-3.3,5.1-5&#10;&#9;&#9;c2.1-1.9,5.2-2.1,7.6-0.5c1.2,0.8,2.4,1.6,3.5,2.5c1-0.4,2-0.9,2.9-1.2l0.1-0.3c0.2-1.3,0.4-2.8,0.8-4.1c0.6-2.8,3.1-4.8,6-4.9&#10;&#9;&#9;c2.3,0,4.6,0,6.8,0c3.1,0.1,5.7,2.4,6.1,5.4c0.2,1.3,0.4,2.5,0.6,3.8c1,0.4,2.1,0.8,3.1,1.3c1-0.7,2.1-1.5,3.1-2.2&#10;&#9;&#9;c2.7-2,6.4-1.7,8.6,0.8l1.1,1.1c1.1,1.1,2.3,2.3,3.5,3.6c1.9,2.1,2.1,5.2,0.6,7.5c-0.8,1.2-1.7,2.4-2.5,3.6l0,0&#10;&#9;&#9;c0.5,1.1,0.9,2,1.2,2.9c1.5,0.2,3,0.5,4.4,0.8c2.8,0.6,4.7,3,4.8,5.8l0,0c0.1,2.5,0.1,4.8,0,7c-0.1,3.1-2.4,5.6-5.5,6.1l-3.8,0.6&#10;&#9;&#9;c-0.4,0.9-0.8,1.9-1.2,2.9c0.7,1,1.5,2,2.2,3c2.1,2.7,1.7,6.5-0.8,8.7l-0.8,0.8c-1.2,1.2-2.5,2.5-3.8,3.7c-1.1,1-2.5,1.6-3.9,1.6&#10;&#9;&#9;c-1.5,0.1-3-0.4-4.2-1.3c-0.5-0.4-1-0.7-1.5-1.1l-1.7-1.1c-1.1,0.5-2,0.9-2.9,1.2l0,0.3c-0.2,1.4-0.4,2.8-0.7,4.1&#10;&#9;&#9;c-0.6,2.7-3,4.7-5.8,4.9C449.5,180.5,448.2,180.5,447.1,180.5z M434.1,165.9c0.4,0,0.8,0.1,1.2,0.3c1.1,0.5,2.4,1,3.6,1.5&#10;&#9;&#9;c1.1,0.4,1.9,1.3,2,2.4c0.2,1.4,0.5,2.8,0.7,4.2c0.1,1.1,1,2,2.1,2.1c2.2,0.1,4.5,0.1,7,0c1-0.1,1.8-0.8,2-1.7&#10;&#9;&#9;c0.3-1.3,0.5-2.6,0.7-3.9l0.1-0.8c0.2-1.1,0.9-2,1.9-2.4c1.1-0.4,2.4-0.9,3.8-1.6c0.9-0.4,2-0.3,2.8,0.3c0.7,0.5,1.4,1,2.1,1.5&#10;&#9;&#9;c0.5,0.4,1,0.7,1.5,1.1c0.5,0.4,1.1,0.5,1.7,0.5c0.5,0,0.9-0.2,1.3-0.5c1.2-1.2,2.5-2.4,3.7-3.6l0.8-0.8c1.1-0.9,1.3-2.4,0.4-3.5&#10;&#9;&#9;c0,0-0.1-0.1-0.1-0.1c-0.8-1.2-1.7-2.4-2.5-3.5c-0.6-0.8-0.7-1.9-0.3-2.8c0.6-1.4,1.1-2.7,1.6-3.9c0.4-1,1.3-1.7,2.3-1.9&#10;&#9;&#9;c1.5-0.2,2.9-0.5,4.3-0.7c1.2-0.1,2.1-1.1,2.1-2.3c0.1-2.2,0-4.4,0-6.8l0,0c-0.1-1-0.8-1.8-1.7-2c-1.5-0.3-3-0.6-4.6-0.8&#10;&#9;&#9;c-1.2-0.1-2.2-0.9-2.5-2.1c-0.4-1.1-0.9-2.2-1.5-3.6c-0.5-1-0.4-2.1,0.3-3l0.4-0.5c0.8-1.2,1.6-2.2,2.4-3.4&#10;&#9;&#9;c0.6-0.8,0.5-1.9-0.2-2.7c-1.1-1.2-2.2-2.3-3.3-3.4l-1.2-1.2c-0.9-1.1-2.4-1.2-3.5-0.3c0,0,0,0,0,0c-1.2,0.8-2.3,1.7-3.5,2.5&#10;&#9;&#9;c-0.8,0.7-2,0.8-2.9,0.3c-1.3-0.6-2.7-1.1-4-1.6c-1-0.3-1.7-1.2-1.9-2.3c-0.2-1.4-0.5-2.9-0.7-4.3c-0.1-1.2-1.1-2.1-2.3-2.1&#10;&#9;&#9;c-2.1,0-4.4,0-6.6,0c-1,0-1.9,0.7-2.2,1.8c-0.3,1.3-0.5,2.5-0.7,3.9l-0.2,0.9c-0.1,1-0.9,1.9-1.9,2.3c-1.2,0.5-2.4,1-3.8,1.6&#10;&#9;&#9;c-0.9,0.5-2.1,0.4-2.9-0.3l-0.2-0.1c-1.2-0.9-2.4-1.8-3.7-2.6c-0.8-0.6-1.9-0.5-2.7,0.1c-1.8,1.6-3.4,3.2-4.8,4.8&#10;&#9;&#9;c-0.9,0.9-0.9,2.3-0.1,3.2c0.4,0.6,0.8,1.1,1.2,1.7s1,1.4,1.5,2.1c0.5,0.7,0.6,1.7,0.3,2.5c-0.6,1.4-1.1,2.9-1.7,4.3&#10;&#9;&#9;c-0.4,0.8-1.1,1.4-2,1.6c-1.5,0.3-2.9,0.5-4.4,0.8c-1.2,0.1-2.1,1-2.2,2.2c-0.1,2.2-0.1,4.5,0,6.9c0.1,1,0.7,1.8,1.7,2&#10;&#9;&#9;c1.2,0.3,2.5,0.5,3.8,0.7l1.1,0.2c1,0.1,1.9,0.8,2.2,1.8c0.5,1.2,1,2.4,1.6,3.9c0.5,0.9,0.3,2-0.3,2.9c-0.8,1.1-1.7,2.4-2.6,3.6&#10;&#9;&#9;c-0.8,1-0.7,2.5,0.3,3.4c1.5,1.5,2.9,2.9,4.2,4.2c0.9,1,2.4,1.2,3.4,0.3c0,0,0,0,0.1-0.1c1.2-0.9,2.4-1.7,3.6-2.6&#10;&#9;&#9;C433,166,433.5,165.9,434.1,165.9L434.1,165.9z M419.1,132.3L419.1,132.3z"/>
</g>
<g id="character_product-manager-17">
	<path class="st0_product-manager-17" d="M386.5,224.7c0,0,12.3-16,14.3-20.2c4.3-9.1,8.1-18.2,12.8-27.1c1.3-2.5,3.7-5.4,6.2-4.3s2.4,4.5,1.8,7.1&#10;&#9;&#9;l-1.5,6.9c9.8-3.8,24-1,34.3,0c4.6,0.5,10.3,1.8,11.6,6.6c1.2,4.2-1,15.9-25.4,15.5c-5-0.1-11.4,1.9-14.6,6.2s-6.6,9.2-9.8,13.8&#10;&#9;&#9;c-4,5.6-7.7,11.4-11.6,17.1L386.5,224.7z"/>
	<path class="st1_product-manager-17" d="M404.7,248c-0.5,0-1.1-0.2-1.4-0.6l-18.2-21.4c-0.6-0.7-0.6-1.6-0.1-2.3c3.4-4.4,12.5-16.6,14.1-19.9&#10;&#9;&#9;c1.3-2.7,2.5-5.4,3.7-8.1c2.8-6.3,5.8-12.8,9.1-19.1c2.4-4.4,5.5-6.4,8.6-5.2s4,4.5,2.9,9.2l-0.8,3.7c8-2,17.6-0.8,26.3,0.2&#10;&#9;&#9;c2,0.2,3.9,0.5,5.7,0.6c2.8,0.3,11.3,1.1,13.2,7.9c0.8,3.4,0,7.1-2.3,9.8c-2.9,3.8-9.7,8.3-25,8.1c-4.3-0.1-10.1,1.6-13.1,5.4&#10;&#9;&#9;c-2.2,2.9-4.4,6-6.5,9.1c-1.1,1.6-2.2,3.1-3.3,4.6c-2.5,3.5-4.9,7.1-7.2,10.6c-1.4,2.2-2.9,4.4-4.4,6.5&#10;&#9;&#9;C405.9,247.7,405.4,248,404.7,248L404.7,248z M388.9,224.6l15.7,18.4c1-1.5,2-3,3-4.5c2.3-3.5,4.8-7.2,7.3-10.7&#10;&#9;&#9;c1.1-1.5,2.1-3.1,3.2-4.6c2.1-3.1,4.4-6.3,6.6-9.2c3.7-4.9,10.7-6.9,16.1-6.9c13.8,0.2,19.6-3.5,22-6.6c1.5-1.8,2.1-4.2,1.6-6.5&#10;&#9;&#9;c-0.9-2.9-4.1-4.7-10-5.2c-1.8-0.2-3.8-0.4-5.8-0.7c-9.4-1.1-20-2.4-27.6,0.5c-1,0.4-2-0.1-2.4-1.1c-0.1-0.3-0.2-0.7-0.1-1.1&#10;&#9;&#9;l1.5-6.8c0.4-2,0.5-4.6-0.7-5s-2.9,1.5-3.9,3.5c-3.3,6.2-6.2,12.7-9,18.9c-1.2,2.7-2.5,5.4-3.7,8.1&#10;&#9;&#9;C400.7,208.9,391.8,220.8,388.9,224.6z"/>
	<path class="st4_product-manager-17 targetColor" d="M425,221.2c0,0-28.7,49.8-43.3,58.6c-10.1,6.1-44,15-64,19.9v86.7H207V301c-18.7-4.5-58.2-14.5-69.2-21.2&#10;&#9;&#9;c-14.6-8.8-43.3-58.6-43.3-58.6l25.8-17.4c0,0,22.5,25.8,35.4,38.6c9.1,9,51.4,12,51.4,12h105.5c0,0,42.3-3,51.4-12&#10;&#9;&#9;c12.9-12.9,35.4-38.6,35.4-38.6L425,221.2z" style="fill: rgb(104, 225, 253);"/>
	<path class="st1_product-manager-17" d="M317.7,388.3H207c-1,0-1.9-0.8-1.9-1.9l0,0v-84c-21.6-5.2-57.7-14.6-68.4-21.1c-14.8-9-42.8-57.2-44-59.2&#10;&#9;&#9;c-0.5-0.8-0.2-1.9,0.6-2.5l25.8-17.4c0.8-0.5,1.8-0.4,2.4,0.3c0.2,0.2,22.6,25.9,35.3,38.5c7.1,7,38.6,10.6,50.2,11.5h105.4&#10;&#9;&#9;c11.4-0.8,43-4.5,50-11.5c12.7-12.7,35.1-38.3,35.3-38.5c0.6-0.7,1.7-0.9,2.4-0.3l25.8,17.4c0.8,0.5,1,1.6,0.6,2.5&#10;&#9;&#9;c-1.2,2.1-29.1,50.3-44,59.2c-9.6,5.8-39.3,13.9-63.1,19.8v85.3C319.5,387.4,318.7,388.2,317.7,388.3z M208.8,384.6h107v-84.9&#10;&#9;&#9;c0-0.8,0.6-1.6,1.4-1.8c33.6-8.3,56.2-15.3,63.5-19.7c12.6-7.6,36.9-48.1,41.8-56.4l-23-15.5c-4.6,5.3-23.2,26.3-34.4,37.5&#10;&#9;&#9;c-9.5,9.4-50.8,12.4-52.5,12.5H207c-1.9-0.1-43.2-3.2-52.7-12.5c-11.2-11.2-29.8-32.2-34.4-37.5l-23,15.5&#10;&#9;&#9;c4.9,8.3,29.2,48.8,41.8,56.4c10.5,6.3,47.6,15.9,68.7,21c0.8,0.2,1.4,0.9,1.4,1.8L208.8,384.6z"/>
	<rect x="243.9" y="256.8" class="st3_product-manager-17" width="36.9" height="108.8"/>
	<path class="st1_product-manager-17" d="M280.8,367.4h-36.9c-1,0-1.9-0.8-1.9-1.9l0,0V256.8c0-1,0.8-1.9,1.8-1.9c0,0,0,0,0,0h36.9c1,0,1.9,0.8,1.9,1.8&#10;&#9;&#9;c0,0,0,0,0,0v108.8C282.7,366.5,281.9,367.4,280.8,367.4L280.8,367.4z M245.8,363.7H279v-105h-33.2L245.8,363.7z"/>
	<path class="st0_product-manager-17" d="M280.8,256.8v34.9c-11.9,4.7-25.1,4.7-36.9,0v-34.9H280.8z"/>
	<path class="st1_product-manager-17" d="M262.4,297c-6.6,0-13-1.2-19.1-3.6c-0.7-0.3-1.2-1-1.2-1.7v-34.9c0-1,0.8-1.9,1.8-1.9c0,0,0,0,0,0h36.9&#10;&#9;&#9;c1,0,1.9,0.8,1.9,1.8c0,0,0,0,0,0v34.9c0,0.8-0.5,1.4-1.2,1.7C275.4,295.8,268.9,297,262.4,297z M245.8,290.4&#10;&#9;&#9;c10.7,3.9,22.5,3.9,33.2,0v-31.7h-33.2L245.8,290.4z"/>
	<path class="st4_product-manager-17 targetColor" d="M211.9,272.4c0,0-10.6,9-10.6,26.3c0.1,10.6,3.9,20.8,10.6,28.9" style="fill: rgb(104, 225, 253);"/>
	<path class="st1_product-manager-17" d="M211.9,329.5c-0.5,0-1-0.2-1.4-0.6c-7.1-8.5-11-19.1-11.1-30.2c0-18,10.8-27.3,11.2-27.7&#10;&#9;&#9;c0.8-0.7,1.9-0.6,2.6,0.2c0.7,0.8,0.6,1.9-0.2,2.6l0,0c-0.1,0.1-9.9,8.7-9.9,24.9c0.2,10.1,3.7,19.9,10.1,27.7&#10;&#9;&#9;c0.7,0.8,0.6,1.9-0.1,2.6C212.8,329.3,212.3,329.5,211.9,329.5L211.9,329.5z"/>
	<path class="st4_product-manager-17 targetColor" d="M311.7,272.4c0,0,10.6,9,10.6,26.3c-0.1,10.6-3.9,20.8-10.6,28.9" style="fill: rgb(104, 225, 253);"/>
	<path class="st1_product-manager-17" d="M311.7,329.5c-0.5,0-0.9-0.2-1.2-0.5c-0.8-0.7-0.8-1.8-0.1-2.6c0,0,0,0,0,0c6.4-7.8,10-17.6,10.1-27.7&#10;&#9;&#9;c0-16.2-9.8-24.8-9.9-24.9c-0.8-0.7-0.9-1.8-0.2-2.6c0.7-0.8,1.8-0.9,2.6-0.2c0.5,0.4,11.2,9.8,11.2,27.7c-0.1,11-4,21.7-11.1,30.2&#10;&#9;&#9;C312.7,329.3,312.2,329.5,311.7,329.5z"/>
	<path class="st8_product-manager-17" d="M180.6,150.9c-0.1-0.6-0.1-1.1-0.2-1.7c-1.1-8.6-0.7-19.1,6.8-23.4c1.4-0.8,3.1-1.4,4.4-2.3&#10;&#9;&#9;c6.9-4.8,3.1-15.5,4.2-23.8c2.6-20.3,30.4-33.9,48.6-28.7c2.7,0.8,5.4,1.9,8.2,1.7c3.5-0.2,6.6-2.3,9.9-3.6&#10;&#9;&#9;c8.9-3.4,19-1.1,25.5,5.8c2,2.2,3.6,4.8,6.2,6.2c5.2,2.8,12.2-0.3,17.6,2.2c8.9,4.2,6.2,19.3,14.5,24.8c3.2,2.1,7.9,2.6,9.5,6.1&#10;&#9;&#9;c0.9,2,0.5,4.3,0.9,6.4c0.9,5.1,5.9,8.1,9.6,11.7c11,11.1,5.3,24.2,4.4,37.7c-0.3,4.1-0.5,8.5,1.5,12.2c1.3,2.4,3.3,4.3,5,6.4&#10;&#9;&#9;c11.9,14.4,6.2,39-9.4,48.2c-8.4,4.8-18.5,5.6-27.4,2c-7.1,10.6-21.3,13.4-33.1,15.2c-17.9,2.7-36.9,5.3-53.5-1.8&#10;&#9;&#9;c-4.5-1.9-8.7-4.6-13.4-6.1c-11.4-3.7-21.3,4.2-31.7-2.2c-7.7-4.7-15.4-14.6-13.8-24.2c0.4-2.7,1.4-5.4,1.1-8.1&#10;&#9;&#9;c-0.5-4.2-3.8-7.4-6-10.9C157.3,180.8,183,169.2,180.6,150.9z"/>
	<path class="st1_product-manager-17" d="M259.1,258.6c-8.9,0-17.8-1.2-26.1-4.8c-1.8-0.8-3.5-1.6-5.2-2.5c-2.6-1.4-5.2-2.6-8-3.5&#10;&#9;&#9;c-4.8-1.6-9.2-0.9-13.9-0.2c-5.9,0.8-11.9,1.7-18.2-2.1c-8.6-5.2-16.3-15.8-14.7-26.1c0.1-0.9,0.3-1.7,0.5-2.6&#10;&#9;&#9;c0.5-1.6,0.7-3.3,0.6-5c-0.3-2.5-1.9-4.8-3.7-7.1c-0.7-1-1.4-1.9-2.1-3c-7.8-12.4-2-21.7,3.6-30.8c4-6.5,7.8-12.6,6.9-19.7&#10;&#9;&#9;l-0.2-1.7c-1.7-12.6,1-21.4,7.7-25.2c0.6-0.4,1.3-0.7,2-1c0.8-0.3,1.6-0.8,2.3-1.2c3.9-2.7,3.6-8.2,3.4-14&#10;&#9;&#9;c-0.2-2.9-0.2-5.7,0.1-8.6c1.2-9,6.9-17.3,16.2-23.4c10.8-7.1,24.4-9.8,34.7-6.9c0.6,0.2,1.1,0.3,1.7,0.5c1.9,0.7,3.9,1.1,5.9,1.1&#10;&#9;&#9;c2.1-0.1,4.2-1.1,6.4-2.1c1-0.5,2-0.9,3-1.3c9.6-3.7,20.5-1.2,27.6,6.3c0.5,0.6,1.1,1.2,1.6,1.9c1.1,1.6,2.5,2.9,4.1,3.9&#10;&#9;&#9;c2.2,1.2,5,1.1,8,1c3.2-0.1,6.4-0.3,9.5,1.2c5.4,2.5,7,8.2,8.6,13.7c1.4,4.6,2.7,9,6,11.3c1.1,0.6,2.2,1.2,3.4,1.6&#10;&#9;&#9;c2.5,1.1,5.4,2.3,6.8,5.2c0.6,1.5,0.9,3.1,0.9,4.7c0,0.7,0.1,1.5,0.2,2.2c0.6,3.2,3.3,5.6,6.1,8.1c1,0.9,2,1.8,2.9,2.7&#10;&#9;&#9;c9.2,9.2,7.6,19.9,6,30.2c-0.4,2.9-0.9,6-1.1,8.9c-0.3,4.1-0.4,8.1,1.3,11.2c0.9,1.5,2,2.9,3.2,4.2c0.5,0.6,1.1,1.2,1.6,1.9&#10;&#9;&#9;c5.7,6.9,8,16.6,6.2,26.5c-1.9,10.5-7.9,19.6-16.1,24.5c-8.4,4.8-18.5,5.8-27.7,2.6c-7.6,10.1-21.3,12.9-33.5,14.8&#10;&#9;&#9;C278.8,257.1,269,258.6,259.1,258.6z M213.3,243.1c2.6,0,5.1,0.4,7.5,1.1c2.9,1,5.8,2.3,8.5,3.8c1.6,0.8,3.3,1.7,5,2.4&#10;&#9;&#9;c16.6,7.2,36.5,4.1,52.5,1.7c12-1.8,25.3-4.6,31.9-14.4c0.5-0.7,1.4-1,2.2-0.7c8.4,3.3,17.9,2.6,25.8-1.9&#10;&#9;&#9;c7.3-4.3,12.7-12.5,14.4-21.9c1.6-8.8-0.4-17.4-5.4-23.5c-0.5-0.6-1-1.2-1.5-1.8c-1.4-1.5-2.7-3.2-3.7-4.9c-2.1-4-2-8.5-1.7-13.2&#10;&#9;&#9;c0.2-3.1,0.7-6.2,1.1-9.2c1.5-10.3,2.9-19.1-5-27c-0.9-0.9-1.8-1.7-2.8-2.5c-3.2-2.8-6.5-5.7-7.3-10.2c-0.1-0.9-0.2-1.8-0.2-2.7&#10;&#9;&#9;c0-1.1-0.1-2.2-0.5-3.3c-0.8-1.6-2.7-2.4-4.9-3.4c-1.4-0.5-2.7-1.2-4-2c-4.5-3-6-8.2-7.5-13.3c-1.4-4.9-2.8-9.5-6.7-11.3&#10;&#9;&#9;c-2.2-1-4.9-0.9-7.7-0.8c-3.3,0.1-6.8,0.3-9.9-1.4c-2-1.3-3.8-2.9-5.2-4.8c-0.5-0.6-1-1.2-1.5-1.7c-6-6.3-15.3-8.4-23.5-5.4&#10;&#9;&#9;c-0.9,0.4-1.8,0.8-2.8,1.2c-2.4,1.3-5,2.2-7.8,2.5c-2.5,0-4.9-0.5-7.2-1.3l-1.6-0.5c-9.3-2.7-21.7-0.1-31.7,6.4&#10;&#9;&#9;c-8.4,5.5-13.6,12.9-14.6,20.8c-0.2,2.6-0.2,5.3,0,7.9c0.3,6.5,0.6,13.2-4.9,17.2c-0.9,0.6-1.8,1.1-2.8,1.6&#10;&#9;&#9;c-0.6,0.3-1.2,0.5-1.7,0.9c-6.7,3.9-6.9,13.9-5.9,21.6l0.2,1.7l0,0c1.1,8.5-3.2,15.4-7.4,22.2c-5.5,8.8-10.2,16.5-3.6,26.9&#10;&#9;&#9;c0.6,0.9,1.2,1.8,1.9,2.8c2,2.7,4,5.4,4.4,8.9c0.1,2.1-0.1,4.2-0.7,6.3c-0.2,0.8-0.4,1.6-0.5,2.4c-1.4,8.5,5.6,17.9,12.9,22.3&#10;&#9;&#9;c5.1,3.1,10,2.4,15.7,1.6C207.9,243.5,210.6,243.2,213.3,243.1z"/>
	<polyline class="st0_product-manager-17" points="251.4,261.2 251.4,242.5 273.3,242.5 273.3,261.2 &#9;"/>
	<path class="st1_product-manager-17" d="M273.3,263c-1,0-1.9-0.8-1.9-1.9l0,0v-16.8h-18.2v16.8c0,1-0.8,1.9-1.8,1.9c-1,0-1.9-0.8-1.9-1.8c0,0,0,0,0,0&#10;&#9;&#9;v-18.7c0-1,0.8-1.9,1.8-1.9h0h21.9c1,0,1.9,0.8,1.9,1.8v0v18.7C275.2,262.2,274.4,263,273.3,263z"/>
	<ellipse class="st0_product-manager-17" cx="199.7" cy="185.5" rx="21.3" ry="18.4"/>
	<path class="st1_product-manager-17" d="M199.7,205.7c-12.8,0-23.2-9.1-23.2-20.2s10.4-20.2,23.2-20.2s23.1,9.1,23.1,20.2S212.5,205.7,199.7,205.7z&#10;&#9;&#9; M199.7,169c-10.7,0-19.5,7.4-19.5,16.5S189,202,199.7,202s19.4-7.4,19.4-16.5S210.4,169,199.7,169L199.7,169z"/>
	<ellipse class="st0_product-manager-17" cx="323.9" cy="185.5" rx="21.3" ry="18.4"/>
	<path class="st1_product-manager-17" d="M323.9,205.7c-12.8,0-23.2-9.1-23.2-20.2s10.4-20.2,23.2-20.2s23.2,9.1,23.2,20.2S336.7,205.7,323.9,205.7z&#10;&#9;&#9; M323.9,169c-10.7,0-19.5,7.4-19.5,16.5s8.7,16.5,19.5,16.5s19.5-7.4,19.5-16.5S334.6,169,323.9,169L323.9,169z"/>
	<path class="st0_product-manager-17" d="M300.8,137.1c-2.3-0.1-4.6-0.8-6.6-2.1c-4.3-2.9-6-8.8-10.4-11.6c-6-3.8-14-0.2-20.9-2.2s-10.6-8.7-13.8-14.8&#10;&#9;&#9;c2,6.2-2.9,13.6-9.4,14.3c-1.4,0-2.9,0.2-4.3,0.5c-4.4,1.4-4.9,7.3-6.6,11.6c-2.2,5.2-7.1,8.9-12.7,9.5c-2.1,0.2-4.3,0-6.3,0.7&#10;&#9;&#9;c-2,0.8-3.7,2.2-4.9,4c-7.7,9.9-6.8,22.3-6.8,34.1c0.4,35.5,29.6,63.9,65.1,63.5c34.9-0.4,63-28.6,63.5-63.5&#10;&#9;&#9;c0-16.4,5.8-41.7-17.2-43.7C306.6,137.2,303.6,137.3,300.8,137.1z"/>
	<path class="st1_product-manager-17" d="M262.4,247.2c-36.5,0-66.1-29.6-66.1-66.1c0-1.1,0-2.2,0-3.3c-0.1-11.1-0.1-22.5,7.2-32&#10;&#9;&#9;c1.5-2.1,3.5-3.7,5.8-4.6c1.6-0.5,3.2-0.7,4.8-0.7c0.6,0,1.3,0,1.9-0.1c5-0.5,9.3-3.7,11.2-8.3c0.4-1,0.7-2.1,1.1-3.2&#10;&#9;&#9;c1.1-3.8,2.4-8,6.6-9.4c1.1-0.3,2.2-0.5,3.4-0.5c0.4,0,0.9,0,1.3-0.1c5.3-0.9,8.8-5.9,8-11.1c0-0.3-0.1-0.5-0.2-0.8&#10;&#9;&#9;c-0.3-1,0.2-2,1.2-2.3c0.9-0.3,1.8,0.1,2.2,0.9c3.2,6.1,6.8,12.2,12.7,13.9c2.6,0.8,5.5,0.6,8.6,0.4c4.3-0.2,8.8-0.5,12.7,2&#10;&#9;&#9;c2.6,1.6,4.2,4,5.8,6.4c1.4,2.1,2.8,4,4.6,5.2c1.7,1.1,3.7,1.7,5.8,1.8l0,0c1.4,0.1,2.8,0.1,4.3,0.2s2.9,0.1,4.4,0.2&#10;&#9;&#9;c21,1.9,20,21.4,19.2,37.1c-0.2,3-0.3,5.8-0.3,8.4C328.4,217.6,298.9,247.2,262.4,247.2z M250.9,113.2c-0.4,1.3-1,2.4-1.7,3.5&#10;&#9;&#9;c-2,3.3-5.4,5.4-9.2,5.9c-0.5,0-1,0.1-1.5,0.1c-0.8,0-1.6,0.1-2.4,0.3c-2.4,0.8-3.3,3.8-4.2,7c-0.4,1.2-0.7,2.4-1.2,3.5&#10;&#9;&#9;c-2.5,5.9-7.9,10-14.3,10.6c-0.7,0.1-1.4,0.1-2.1,0.1c-1.3,0-2.5,0.1-3.7,0.5c-1.7,0.7-3.1,1.9-4.1,3.4c-6.6,8.4-6.5,19.2-6.5,29.7&#10;&#9;&#9;c0,1.1,0,2.2,0,3.3c0.4,34.5,28.7,62.1,63.2,61.6c33.9-0.4,61.2-27.8,61.6-61.6c0-2.7,0.1-5.6,0.3-8.6c0.8-15.6,1.7-31.7-15.8-33.2&#10;&#9;&#9;c-1.3-0.1-2.7-0.1-4.1-0.2s-3-0.1-4.5-0.2l0,0c-2.7-0.1-5.2-1-7.5-2.4c-2.2-1.7-4.1-3.8-5.6-6.2c-1.5-2.1-2.8-4.1-4.7-5.3&#10;&#9;&#9;c-2.9-1.8-6.6-1.6-10.5-1.4c-3.3,0.2-6.6,0.4-9.9-0.6C257.3,121.6,253.8,117.7,250.9,113.2L250.9,113.2z"/>
	<circle class="st1_product-manager-17" cx="232.6" cy="171.8" r="5.9"/>
	<circle class="st1_product-manager-17" cx="294" cy="171.8" r="6"/>
	<path class="st1_product-manager-17" d="M262.1,193.6c-1.9,0-3.9-0.2-5.8-0.5c-1-0.1-1.7-1.1-1.6-2.1c0.1-1,1.1-1.7,2.1-1.6c0.1,0,0.1,0,0.2,0&#10;&#9;&#9;c0.1,0,5.2,0.9,8.8,0.1c0.4-1.7-1.9-8.1-5-14.1c-0.5-0.9-0.1-2,0.8-2.5c0.9-0.4,2-0.1,2.4,0.8c2.1,4,6.8,13.7,5,17.5&#10;&#9;&#9;c-0.4,0.9-1.2,1.6-2.2,1.8C265.3,193.5,263.7,193.6,262.1,193.6z"/>
	<path class="st1_product-manager-17" d="M244.8,154.3L244.8,154.3l-28.4-0.1c-1.6-0.1-2.9-1.5-2.8-3.1c0.1-1.5,1.3-2.7,2.8-2.8l0,0l28.4,0.1&#10;&#9;&#9;c1.6,0,2.9,1.3,2.9,2.9S246.4,154.3,244.8,154.3L244.8,154.3z"/>
	<path class="st1_product-manager-17" d="M285.2,155c-1.6,0-2.9-1.4-2.9-3c0-1.5,1.2-2.7,2.7-2.9l28.3-1.5c1.6-0.1,3,1.2,3.1,2.8s-1.2,3-2.8,3.1&#10;&#9;&#9;l-28.3,1.4H285.2z"/>
	<path class="st1_product-manager-17" d="M244.8,203.9h32l0,0v10.6c0,8.2-6.7,14.9-14.9,14.9l0,0h-2.2c-8.2,0-14.9-6.7-14.9-14.9L244.8,203.9&#10;&#9;&#9;L244.8,203.9L244.8,203.9z"/>
	<path class="st1_product-manager-17" d="M260.8,231.3c-9.9,0-17.9-8-17.9-17.9v-9.6c0-1,0.8-1.9,1.8-1.9h0h32c1,0,1.9,0.8,1.9,1.8v0v9.6&#10;&#9;&#9;C278.6,223.3,270.6,231.3,260.8,231.3z M246.6,205.7v7.7c0,7.8,6.3,14.2,14.2,14.2c7.8,0,14.2-6.3,14.2-14.2v-7.7H246.6z"/>
	<path class="st1_product-manager-17" d="M426.3,204.6c-1,0-1.8-0.8-1.8-1.8c0-0.4,0.1-0.7,0.3-1c4-6.4-5.5-13.3-5.6-13.4c-0.8-0.7-0.8-1.8-0.2-2.6&#10;&#9;&#9;c0.6-0.7,1.5-0.8,2.3-0.4c4.3,3.1,11.3,10.8,6.6,18.3C427.5,204.3,426.9,204.7,426.3,204.6z"/>
	<rect x="207" y="365.5" class="st1_product-manager-17" width="110.7" height="47"/>
	<path class="st1_product-manager-17" d="M317.7,414.4H207c-1,0-1.9-0.8-1.9-1.9l0,0v-47.1c0-1,0.8-1.9,1.8-1.9h0h110.7c1,0,1.9,0.8,1.9,1.9l0,0v47&#10;&#9;&#9;C319.6,413.6,318.8,414.4,317.7,414.4L317.7,414.4z M208.8,410.7h107v-43.4h-107L208.8,410.7z"/>
</g>
</svg>