<svg version="1.1" id="Layer_1" xmlns="http://www.w3.org/2000/svg" xmlns:xlink="http://www.w3.org/1999/xlink" x="0px" y="0px" viewBox="0 0 500 500" style="width: 188px;" xml:space="preserve" data-imageid="ranking-79" imageName="Ranking" class="illustrations_image">
<style type="text/css">
	.st0_ranking-79{fill:#FFFFFF;}
	.st1_ranking-79{fill:#231F20;}
	.st2_ranking-79{fill:#68E1FD;}
	.st3_ranking-79{fill:#D1D3D4;}
</style>
<g id="No_1_ranking-79">
	<polygon class="st0_ranking-79" points="242.7,358.7 242.7,119.7 177.6,119.7 99.7,163.3 99.7,223 172.8,184.8 172.8,358.7 99.7,358.7 &#10;&#9;&#9;99.7,412 312.5,412 312.5,358.7 &#9;"/>
	<path class="st1_ranking-79" d="M312.5,412.8H99.7c-0.4,0-0.7-0.3-0.7-0.7l0,0v-53.3c0-0.4,0.3-0.7,0.7-0.7h0h72.4V186l-72.1,37.6&#10;&#9;&#9;c-0.2,0.1-0.5,0.1-0.7,0c-0.2-0.1-0.4-0.4-0.4-0.6v-59.7c0-0.3,0.1-0.5,0.4-0.6l77.8-43.7c0.1-0.1,0.2-0.1,0.3-0.1h65.1&#10;&#9;&#9;c0.4,0,0.7,0.3,0.7,0.7V358h69.1c0.4,0,0.7,0.3,0.7,0.7v0V412C313.2,412.4,312.8,412.7,312.5,412.8L312.5,412.8L312.5,412.8z&#10;&#9;&#9; M100.4,411.4h211.4v-51.9h-69.1c-0.4,0-0.7-0.3-0.7-0.7l0,0V120.4h-64.2l-77.3,43.4v58.1l72.1-37.6c0.3-0.2,0.8,0,0.9,0.3&#10;&#9;&#9;c0,0.1,0.1,0.2,0.1,0.3v173.9c0,0.4-0.3,0.7-0.7,0.7c0,0,0,0,0,0h-72.4L100.4,411.4L100.4,411.4z"/>
</g>
<g id="Character_ranking-79">
	<polygon class="st0_ranking-79" points="312.1,332.2 318.2,397.2 336.9,397.2 331.5,324.5 &#9;"/>
	<path class="st1_ranking-79" d="M336.9,397.9h-18.7c-0.4,0-0.7-0.3-0.7-0.6l-6.1-65c0-0.3,0.2-0.6,0.4-0.7l19.4-7.7c0.2-0.1,0.4-0.1,0.6,0.1&#10;&#9;&#9;c0.2,0.1,0.3,0.3,0.3,0.5l5.4,72.6C337.6,397.5,337.3,397.8,336.9,397.9C336.9,397.8,336.9,397.9,336.9,397.9L336.9,397.9z&#10;&#9;&#9; M318.8,396.5h17.3l-5.3-71l-18,7.1L318.8,396.5L318.8,396.5z"/>
	<path class="st0_ranking-79" d="M378.7,163.6l4.6-9.6c0,0-3.7-4.7-2.3-7.3s3-7,4.9-7.2c1.2-0.1,2.4-0.2,3.6-0.2c0,0,5-13.8,5.9-14.1&#10;&#9;&#9;c1.1-0.3,2.2,0.4,2.4,1.4c0.1,0.4,0.1,0.7,0,1.1c-0.7,2.1-3.1,11.7-3.1,11.7s6.4,2.8,5.5,7.2s-4.6,8.6-6.4,11.9s-6.4,15.3-6.4,15.3&#10;&#9;&#9;L378.7,163.6L378.7,163.6z"/>
	<path class="st1_ranking-79" d="M387.5,174.5c-0.2,0-0.4-0.1-0.5-0.2l-8.8-10.3c-0.2-0.2-0.2-0.5-0.1-0.8l4.4-9.2c-0.9-1.2-3.5-5.2-2.1-7.7&#10;&#9;&#9;c0.3-0.6,0.7-1.3,1-2.1c1.2-2.6,2.5-5.3,4.4-5.5c1.4-0.1,2.5-0.2,3.1-0.2c4.9-13.6,5.8-13.9,6.1-14.1c0.9-0.3,2-0.1,2.7,0.6&#10;&#9;&#9;c0.8,0.7,1,1.8,0.6,2.8c-0.5,1.8-2.4,9.1-2.9,11.1c1.6,0.8,6.2,3.6,5.3,7.7c-0.6,3.2-2.6,6.2-4.4,8.8c-0.8,1.2-1.5,2.3-2,3.3&#10;&#9;&#9;c-1.7,3.2-6.3,15.1-6.3,15.2c-0.1,0.2-0.3,0.4-0.5,0.4L387.5,174.5L387.5,174.5z M379.6,163.5l7.7,9c1.2-3.1,4.5-11.5,6-14.3&#10;&#9;&#9;c0.6-1.1,1.3-2.2,2.1-3.4c1.7-2.5,3.6-5.4,4.2-8.3c0.8-3.8-5-6.4-5.1-6.4c-0.3-0.1-0.5-0.5-0.4-0.8c0.1-0.4,2.4-9.6,3.1-11.8&#10;&#9;&#9;c0.2-0.5,0.1-1-0.3-1.3c-0.3-0.3-0.7-0.4-1.1-0.4c-0.7,1-3.4,7.6-5.6,13.7c-0.1,0.3-0.4,0.5-0.7,0.5c-1.2,0-2.3,0-3.5,0.2&#10;&#9;&#9;c-1.1,0.1-2.4,2.8-3.3,4.7c-0.4,0.8-0.7,1.5-1.1,2.1c-1,1.8,1.3,5.3,2.2,6.5c0.2,0.2,0.2,0.5,0.1,0.7L379.6,163.5L379.6,163.5z"/>
	<path class="st0_ranking-79" d="M267.1,329.1l-11.2,68.1h18.7c-0.5,1.4,17.6-68.1,17.6-68.1L267.1,329.1z"/>
	<path class="st1_ranking-79" d="M274.6,397.9c-0.1,0-0.1,0-0.2,0h-18.5c-0.2,0-0.4-0.1-0.5-0.2c-0.1-0.2-0.2-0.4-0.2-0.6l11.2-68.1&#10;&#9;&#9;c0.1-0.3,0.3-0.6,0.7-0.6h25.1c0.2,0,0.4,0.1,0.5,0.3c0.1,0.2,0.2,0.4,0.1,0.6c-5.9,22.6-17,65.4-17.6,67.9c0,0.1,0,0.2,0,0.2&#10;&#9;&#9;C275.1,397.7,274.9,397.9,274.6,397.9L274.6,397.9z M256.7,396.5h17.4c0.2-1.4,1-4.2,2.5-10.1c1.6-6.4,3.9-14.9,6.1-23.4&#10;&#9;&#9;c3.8-14.7,7.7-29.5,8.6-33.2h-23.6L256.7,396.5z"/>
	<path class="st1_ranking-79" d="M275.4,224.4c0,0-10.5,31.5-18,114.8l81.8,1.6c0,0,4.6-79.2-7.2-115.4L275.4,224.4L275.4,224.4z"/>
	<path class="st1_ranking-79" d="M339.2,341.5L339.2,341.5l-81.8-1.6c-0.2,0-0.4-0.1-0.5-0.2c-0.1-0.1-0.2-0.3-0.2-0.5&#10;&#9;&#9;c7.5-82.4,18-114.6,18.1-114.9c0.1-0.3,0.4-0.5,0.7-0.5l56.5,1c0.3,0,0.6,0.2,0.6,0.5c11.7,35.9,7.3,114.8,7.3,115.6&#10;&#9;&#9;C339.9,341.2,339.6,341.5,339.2,341.5L339.2,341.5z M258.1,338.5l80.4,1.5c0.4-7.8,3.8-79.9-7.1-114l-55.5-1&#10;&#9;&#9;C274.6,229.3,265.1,262.2,258.1,338.5L258.1,338.5z"/>
	<path class="st1_ranking-79" d="M328.9,227.2c-2.9-19-15.3-77.8-15.3-77.8c-10.7,3.1-17.7,0.6-17.7,0.6s-19.3,61.7-22.6,77.1L328.9,227.2&#10;&#9;&#9;L328.9,227.2z"/>
	<path class="st1_ranking-79" d="M328.9,227.9h-55.6c-0.2,0-0.4-0.1-0.5-0.3c-0.1-0.2-0.2-0.4-0.1-0.6c3.2-15.3,22.4-76.6,22.6-77.2&#10;&#9;&#9;c0.1-0.2,0.2-0.3,0.4-0.4c0.2-0.1,0.4-0.1,0.5,0c0.1,0,6.9,2.4,17.2-0.6c0.2-0.1,0.4,0,0.6,0.1c0.2,0.1,0.3,0.3,0.3,0.5&#10;&#9;&#9;c0.1,0.6,12.5,59,15.3,77.8c0.1,0.4-0.2,0.7-0.6,0.8C329,227.9,329,227.9,328.9,227.9L328.9,227.9z M274.2,226.5h53.9&#10;&#9;&#9;c-2.9-18.4-13.6-69.4-15-76.2c-8.6,2.3-14.7,1.1-16.7,0.6C294.4,157.5,277.7,211,274.2,226.5L274.2,226.5z"/>
	<path class="st2_ranking-79 targetColor" d="M378.4,159.4l-15.7,26.2L338,155.2c-3.3-5.7-19.2-5.7-19.2-5.7s-24.5-1.7-29.4-0.1c0,0-19.3,5.9-23.2,10.1&#10;&#9;&#9;s6.9,23.7,7.5,44.1s-8.3,40.9-8.3,40.9l25.7,7.3c0,0,4.9-33,4.9-48.7c0-32.3-0.1-53-0.1-53l17.5,0.6c0,0-0.6,30.7-1.5,54.2&#10;&#9;&#9;c-1.2,30.7,5.5,46.9,5.5,46.9l23.4-6.2c0,0-7.6-27.8-7.5-42.6c0.1-4.4,0.5-8.7,1.2-13c7.8,9.6,22.1,31.2,33.5,26.7&#10;&#9;&#9;c8.6-3.4,24.7-47,24.7-47L378.4,159.4L378.4,159.4z" style="fill: rgb(104, 225, 253);"/>
	<path class="st0_ranking-79" d="M295.2,90.2L295.2,90.2c-0.6,0.4-2.5,2.7-3,2.7c-10.2,0.3-14.4,9.2-14.2,18.3c0.2,9.6,2.7,18.9,7.3,27.3&#10;&#9;&#9;l0.2-3.4c1.2,3.9,3.5,7.4,6.8,9.9c0.5-2.3,1.5-4.4,3.1-6.1l9.3,6.7c0.5,0.4,1,0.6,1.6,0.7c0.6-0.1,1.1-0.3,1.5-0.7&#10;&#9;&#9;c3.9-2.7,9.2-4.5,10.6-9c0.4,2.2,1.1,4.3,2,6.3c5.4-3.2,7.1-10,8.2-16.1c0.8-4.8,1.5-9.7,1-14.6c-0.5-4.3-0.7-8.7-2.8-12.6&#10;&#9;&#9;c-4.8-8.9-17.6-14.4-27.3-11.6C298.1,88.6,296.6,89.3,295.2,90.2L295.2,90.2z"/>
	<path class="st1_ranking-79" d="M306.3,147c-0.7-0.1-1.4-0.4-2-0.8l-8.8-6.3c-1.2,1.6-2.1,3.4-2.5,5.4c0,0.2-0.2,0.4-0.4,0.5&#10;&#9;&#9;c-0.2,0.1-0.5,0-0.7-0.1c-2.5-1.9-4.5-4.4-5.9-7.3v0.3c0,0.4-0.4,0.7-0.8,0.6c-0.2,0-0.4-0.2-0.6-0.4c-4.7-8.5-7.2-18-7.4-27.7&#10;&#9;&#9;c-0.2-8.5,3.6-18.6,14.8-19c0.5-0.4,1-0.9,1.5-1.4c0.4-0.4,0.7-0.7,1.1-1.1l0.1-0.1c1.4-1,3-1.8,4.7-2.3c10-2.9,23.1,2.7,28.1,11.9&#10;&#9;&#9;c1.9,3.6,2.3,7.5,2.7,11.3l0.1,1.5c0.3,4.9,0,9.9-1,14.8c-1.1,6.4-2.9,13.3-8.5,16.6c-0.3,0.2-0.8,0.1-1-0.2c0,0,0,0,0-0.1&#10;&#9;&#9;c-0.7-1.4-1.2-2.9-1.6-4.5c-1.5,2.4-4.2,4-6.8,5.4c-1.1,0.6-2.2,1.3-3.3,2C307.7,146.6,307.1,146.9,306.3,147L306.3,147L306.3,147z&#10;&#9;&#9; M295.4,138.2c0.1,0,0.3,0,0.4,0.1l9.3,6.7c0.3,0.3,0.8,0.5,1.2,0.6c0.4-0.1,0.8-0.3,1.1-0.6c1.1-0.8,2.3-1.5,3.4-2.1&#10;&#9;&#9;c3.1-1.8,6.1-3.5,7-6.6c0.1-0.4,0.5-0.6,0.9-0.5c0.3,0.1,0.4,0.3,0.5,0.5c0.4,1.9,0.9,3.7,1.7,5.4c4.6-3.2,6.2-9.4,7.2-15.2&#10;&#9;&#9;c0.7-4.3,1.5-9.4,1-14.4l-0.1-1.5c-0.4-3.7-0.8-7.5-2.5-10.8c-4.7-8.7-17.1-14-26.5-11.2c-1.5,0.5-3,1.2-4.3,2.1l0,0l-0.4-0.6&#10;&#9;&#9;l0.4,0.6c-0.4,0.3-0.7,0.6-1,1c-1.3,1.3-1.8,1.8-2.4,1.8c-10.2,0.3-13.7,9.7-13.5,17.6c0.2,8.6,2.3,17,6.1,24.7l0.1-0.9&#10;&#9;&#9;c0-0.3,0.3-0.6,0.6-0.6c0.3,0,0.7,0.2,0.8,0.5c1,3.4,3,6.5,5.7,8.9c0.6-2,1.6-3.8,3-5.4C295,138.3,295.2,138.2,295.4,138.2&#10;&#9;&#9;L295.4,138.2z M292.2,92.9L292.2,92.9z"/>
	<path class="st0_ranking-79" d="M317.5,120.7c1-6,11-7.4,10.5-0.3c-0.1,2.5-1.1,4.8-2.7,6.6c-1.7,1.8-4.4,2.4-6.7,1.5"/>
	<path class="st1_ranking-79" d="M320.6,129.6c-0.8,0-1.7-0.2-2.4-0.5c-0.4-0.2-0.5-0.6-0.3-0.9c0.2-0.4,0.6-0.5,0.9-0.3&#10;&#9;&#9;c2.1,0.8,4.4,0.2,5.9-1.3c1.5-1.7,2.4-3.9,2.5-6.2c0.2-2.3-0.9-3.7-2.9-4c-2.9-0.3-5.6,1.6-6.2,4.4c-0.1,0.4-0.4,0.6-0.8,0.6&#10;&#9;&#9;c-0.4-0.1-0.6-0.4-0.6-0.8c0.8-3.6,4.1-6,7.8-5.6c2.2,0.3,4.4,1.9,4.1,5.5c-0.1,2.6-1.2,5.1-2.9,7.1&#10;&#9;&#9;C324.3,128.8,322.5,129.6,320.6,129.6L320.6,129.6z"/>
	<path class="st0_ranking-79" d="M292.6,120.4c-0.9-6-10.9-7.6-10.4-0.5c0.1,2.5,1,4.8,2.6,6.7c1.7,1.8,4.3,2.5,6.7,1.6"/>
	<path class="st1_ranking-79" d="M289.4,129.3c-2,0-3.8-0.8-5.2-2.3c-1.7-2-2.7-4.5-2.8-7.1c-0.2-3.6,2-5.2,4.2-5.4c3.7-0.3,7,2.2,7.6,5.8&#10;&#9;&#9;c0.1,0.4-0.1,0.8-0.5,0.8s-0.8-0.1-0.8-0.5c0,0,0-0.1,0-0.1c-0.6-2.9-3.2-4.8-6.1-4.6c-2,0.2-3.1,1.6-2.9,3.9&#10;&#9;&#9;c0,2.3,0.9,4.5,2.4,6.2c1.5,1.6,3.8,2.2,5.9,1.5c0.3-0.2,0.8,0,0.9,0.3c0,0,0,0,0,0c0.2,0.4,0,0.8-0.4,0.9&#10;&#9;&#9;C291,129.1,290.2,129.3,289.4,129.3L289.4,129.3z"/>
	<path class="st0_ranking-79" d="M295.9,150.1c0,0,5.5,5.2,9.4,5.1s8.1-4.5,8.1-4.5l-0.2-4.2l-0.6-9.8l-0.5-9.1l-15.7-0.2l-0.6,7.5l-0.2,2.4&#10;&#9;&#9;L295.9,150.1L295.9,150.1z"/>
	<path class="st1_ranking-79" d="M305.2,155.9c-4.1,0-9.5-5.1-9.8-5.3c-0.1-0.1-0.2-0.3-0.2-0.5l-0.3-12.8l0.8-10c0-0.4,0.3-0.6,0.7-0.6l0,0&#10;&#9;&#9;l15.7,0.2c0.4,0,0.7,0.3,0.7,0.7l1.4,23.1c0,0.2-0.1,0.4-0.2,0.5c-0.2,0.2-4.5,4.6-8.6,4.7L305.2,155.9L305.2,155.9z M296.6,149.8&#10;&#9;&#9;c1,0.9,5.5,4.7,8.6,4.7h0.1c3-0.1,6.5-3.2,7.4-4.1l-1.3-22.1l-14.4-0.2l-0.7,9.2L296.6,149.8L296.6,149.8z"/>
	<path class="st1_ranking-79" d="M295.6,137.2c1.2,2.1,3,3.9,5.1,5.2c3.4,2.2,8.4,4.6,12.5,4l-0.6-9.8c-3,0.4-6,0.4-9,0&#10;&#9;&#9;c-2.7-0.1-5.3-0.8-7.8-1.8L295.6,137.2L295.6,137.2z"/>
	<path class="st1_ranking-79" d="M311.7,147.3c-4.3,0-8.9-2.6-11.4-4.2c-2.2-1.4-4-3.2-5.3-5.5c-0.1-0.1-0.1-0.2-0.1-0.4l0.2-2.4&#10;&#9;&#9;c0-0.2,0.2-0.4,0.4-0.6c0.2-0.1,0.5-0.1,0.7,0c2.4,1,4.9,1.6,7.5,1.8c2.9,0.4,5.9,0.4,8.9,0c0.2,0,0.4,0,0.5,0.1&#10;&#9;&#9;c0.2,0.1,0.2,0.3,0.3,0.5l0.6,9.8c0,0.4-0.2,0.7-0.6,0.7C312.8,147.2,312.3,147.2,311.7,147.3L311.7,147.3z M296.3,137.1&#10;&#9;&#9;c1.2,2,2.8,3.6,4.8,4.8c2,1.3,7.1,4.3,11.3,3.9l-0.5-8.4c-2.8,0.3-5.7,0.3-8.5-0.1c-2.4-0.2-4.8-0.7-7.1-1.5L296.3,137.1z"/>
	<path class="st0_ranking-79" d="M303.6,138.9h1.6c7.6,0.1,13.8-6,13.9-13.6c0,0,0,0,0,0c0-4.3,0.1-13,0.1-13s-7.7-1.9-12.7-3.8&#10;&#9;&#9;c-8.4-3.2-10.6-7.7-10.6-7.7c-0.3,3-0.9,6-2,8.8c-1.1,2-2.3,3.9-3.7,5.7c0,0-0.2,6.8-0.3,9.6C289.8,132.6,295.9,138.8,303.6,138.9&#10;&#9;&#9;C303.5,138.9,303.5,138.9,303.6,138.9L303.6,138.9z"/>
	<path class="st1_ranking-79" d="M305.3,139.6h-0.2h-1.6l0,0c-8-0.1-14.4-6.6-14.3-14.6c0-2.8,0.3-9.6,0.3-9.6c0-0.1,0.1-0.3,0.1-0.4&#10;&#9;&#9;c1.4-1.8,2.6-3.6,3.6-5.6c1-2.8,1.7-5.6,1.9-8.6c0-0.4,0.4-0.7,0.7-0.6c0.2,0,0.5,0.2,0.6,0.4c0,0,2.3,4.3,10.2,7.3&#10;&#9;&#9;c4.9,1.8,12.5,3.7,12.6,3.7c0.3,0.1,0.5,0.4,0.5,0.7l-0.1,13C319.7,133.2,313.3,139.6,305.3,139.6L305.3,139.6z M303.6,138.2h1.6&#10;&#9;&#9;h0.1c7.2,0,13-5.8,13.1-12.9l0.1-12.5c-1.9-0.5-8-2.1-12.2-3.7c-5.5-2.1-8.5-4.8-9.9-6.4c-0.3,2.5-0.9,4.9-1.8,7.2&#10;&#9;&#9;c-1.1,2-2.3,3.9-3.7,5.7c0,1.2-0.2,6.9-0.3,9.4C290.6,132.2,296.4,138.1,303.6,138.2L303.6,138.2L303.6,138.2z"/>
	<path class="st1_ranking-79" d="M304.7,129.4c-0.8,0-1.6,0-2.4-0.1c-0.4-0.1-0.7-0.4-0.6-0.8c0.1-0.4,0.4-0.7,0.8-0.6c1.2,0.1,2.5,0.1,3.7,0&#10;&#9;&#9;c0.4-0.8-0.6-5-2.2-9.4c-0.1-0.4,0.1-0.8,0.4-0.9c0.4-0.1,0.8,0,0.9,0.4c0,0,0,0,0,0c0.8,2,3.2,8.9,2.1,10.7&#10;&#9;&#9;c-0.2,0.3-0.5,0.5-0.9,0.6C305.9,129.3,305.3,129.3,304.7,129.4L304.7,129.4z"/>
	
		<ellipse transform="matrix(1.099531e-02 -0.9999 0.9999 1.099531e-02 178.4307 413.4621)" class="st1_ranking-79" cx="298.2" cy="116.5" rx="2.3" ry="0.9"/>
	
		<ellipse transform="matrix(1.099531e-02 -0.9999 0.9999 1.099531e-02 191.1331 425.7201)" class="st1_ranking-79" cx="310.8" cy="116.2" rx="2.3" ry="0.9"/>
	<path class="st1_ranking-79" d="M304.8,132.6c-0.3,0-0.6,0-0.9,0c-3.3-0.4-6.4-2.2-8.4-4.8c-0.2-0.3-0.2-0.8,0.1-1s0.8-0.2,1,0.2&#10;&#9;&#9;c0,0,2.9,3.9,7.4,4.3c3.1,0.3,6.3-1.1,9.5-4.2c0.3-0.3,0.7-0.3,1,0c0,0,0,0,0,0c0.3,0.3,0.3,0.7,0,1c0,0,0,0,0,0&#10;&#9;&#9;C311.3,131.1,308,132.7,304.8,132.6L304.8,132.6z"/>
	<path class="st0_ranking-79" d="M293.7,96.7c2.1,5.3,4.8,10.7,9.4,14.2c2.4,1.6,4.9,2.9,7.6,3.9c4,1.6,8,1.8,11.4,4.6&#10;&#9;&#9;c3.2,2.7,5.5,6.3,6.6,10.3c2.4-6.4,1.8-13.6-1.6-19.6c-3.2-5.5-8.5-9.3-13.8-12.8c-2.9-1.9-6-3.9-9.5-3.8"/>
	<path class="st1_ranking-79" d="M328.7,130.3L328.7,130.3c-0.3,0-0.6-0.2-0.6-0.5c-1-3.9-3.3-7.4-6.4-9.9c-2.2-1.8-4.6-2.5-7.2-3.2&#10;&#9;&#9;c-1.3-0.4-2.6-0.7-4-1.2c-2.8-1-5.4-2.3-7.8-4c-5-3.8-7.8-9.7-9.6-14.5c-0.1-0.4,0-0.8,0.4-0.9c0.4-0.1,0.8,0,0.9,0.4&#10;&#9;&#9;c1.8,4.6,4.4,10.3,9.1,13.8c2.3,1.6,4.8,2.9,7.5,3.8c1.3,0.5,2.6,0.8,3.8,1.2c2.7,0.8,5.3,1.5,7.8,3.5c2.8,2.3,4.9,5.2,6.2,8.6&#10;&#9;&#9;c1.5-5.7,0.7-11.9-2.2-17c-3.1-5.3-8.2-9-13.6-12.6c-3-2-5.9-3.7-9.1-3.7c-0.4,0-0.7-0.2-0.7-0.6c0,0,0-0.1,0-0.1&#10;&#9;&#9;c0-0.4,0.3-0.7,0.7-0.7c0,0,0,0,0,0c3.6,0,6.7,1.8,9.9,3.9c5.3,3.6,10.8,7.5,14,13c3.6,6.1,4.2,13.6,1.7,20.2&#10;&#9;&#9;c-0.1,0.3-0.4,0.4-0.6,0.4L328.7,130.3z"/>
	<path class="st0_ranking-79" d="M264.3,219.4c0,0,7.8,7.9,8.6,10.2s0.4,17.3-0.8,18.1s-9.5,6-11.3,4.2s-5-6.6-3.4-6.4s4,2.2,4,2.2&#10;&#9;&#9;s2.9-1.5,3.9-3.1c0,0-4.9-4.6-2.2-10l-4.5-5.3"/>
	<path class="st1_ranking-79" d="M262,252.9c-0.6,0-1.2-0.2-1.7-0.6c-0.9-0.9-4.6-5.5-3.9-7c0.2-0.4,0.7-0.6,1.1-0.5c1.5,0.4,2.8,1,4,2&#10;&#9;&#9;c1.1-0.6,2.1-1.4,3-2.2c-1.2-1.3-4.1-5.3-2.1-9.9l-4.2-4.9c-0.3-0.3-0.2-0.7,0.1-1c0.3-0.3,0.7-0.2,1,0.1l0,0l4.5,5.3&#10;&#9;&#9;c0.2,0.2,0.2,0.5,0.1,0.8c-2.5,4.8,1.8,9,2,9.1c0.2,0.2,0.3,0.6,0.1,0.9c-1.1,1.8-4.1,3.3-4.2,3.4c-0.2,0.1-0.6,0.1-0.8-0.1&#10;&#9;&#9;c-0.9-0.8-2-1.4-3.1-1.9c0.9,1.9,2.1,3.6,3.5,5.1c1,1,6.8-1.9,10.4-4.3c0.8-1.2,1.3-15,0.5-17.3c-0.5-1.6-5.3-6.9-8.4-10&#10;&#9;&#9;c-0.3-0.3-0.3-0.7,0-1s0.7-0.3,1,0c0.8,0.8,7.9,8,8.8,10.5c0.7,2,0.7,17.7-1.1,18.9C271.8,248.7,265.5,252.8,262,252.9L262,252.9z"/>
	<path class="st2_ranking-79 targetColor" d="M266.2,159.5c0,0-41.6,32.4-41.4,39.7c0.1,5.2,33.2,34.2,33.2,34.2l10.6-12l-16.4-20l23.2-15.8" style="fill: rgb(104, 225, 253);"/>
	<path class="st1_ranking-79" d="M334.6,190.8h-0.1c-0.4-0.1-0.6-0.4-0.6-0.8c0-0.1,2.1-13.6,4.1-20.4c0.1-0.4,0.5-0.6,0.9-0.4&#10;&#9;&#9;c0.3,0.1,0.5,0.5,0.4,0.8c-2,6.7-4.1,20.1-4.1,20.2C335.2,190.5,334.9,190.8,334.6,190.8L334.6,190.8z"/>
	<path class="st1_ranking-79" d="M355.5,199.4c-0.1,0-0.2,0-0.3-0.1c-0.3-0.2-0.5-0.6-0.3-0.9l7.2-13.1c0.2-0.3,0.6-0.5,1-0.3&#10;&#9;&#9;c0.3,0.2,0.5,0.6,0.3,0.9l0,0l-7.2,13.1C356,199.2,355.8,199.4,355.5,199.4L355.5,199.4z"/>
	<path class="st1_ranking-79" d="M389.5,153.9c-0.2,0-0.4-0.1-0.5-0.2c-0.3-0.3-0.3-0.7,0-1c0,0,0,0,0,0c3-3.2-1.4-7.7-1.5-7.9&#10;&#9;&#9;c-0.2-0.2-0.3-0.6-0.1-0.9c0.2-0.3,0.6-0.4,0.9-0.2c0,0,4.6,2.3,7.9,1.9h0.1c-0.4-0.9-3.5-3.5-7.1-5.8c-0.3-0.2-0.4-0.6-0.2-1&#10;&#9;&#9;c0,0,0,0,0,0c0.2-0.3,0.6-0.4,1-0.2c0,0,0,0,0,0c3.8,2.4,8.1,5.6,7.7,7.4c-0.1,0.3-0.3,0.9-1.3,1c-2.1,0.1-4.2-0.2-6.2-1&#10;&#9;&#9;c1.4,2.2,2.1,5.2-0.1,7.6C389.9,153.8,389.7,153.9,389.5,153.9L389.5,153.9z M396.3,145.8L396.3,145.8z"/>
	<path class="st0_ranking-79" d="M304.5,186.3L304.5,186.3c-0.3,0-0.6-0.2-0.7-0.5l-8.6-35.5c-0.1-0.4,0.1-0.8,0.5-0.8s0.8,0.1,0.8,0.5&#10;&#9;&#9;l7.9,32.8l8.2-32.2c0.1-0.4,0.5-0.6,0.8-0.5c0.4,0.1,0.6,0.5,0.5,0.8l-8.9,34.9C305.1,186.1,304.8,186.3,304.5,186.3L304.5,186.3z"/>
	<circle class="st0_ranking-79" cx="304.4" cy="197.8" r="12.2"/>
	<path class="st1_ranking-79" d="M304.4,210.8c-7.1,0-12.9-5.8-12.9-12.9s5.8-12.9,12.9-12.9c7.1,0,12.9,5.8,12.9,12.9&#10;&#9;&#9;C317.3,205,311.5,210.7,304.4,210.8z M304.4,186.3c-6.4,0-11.5,5.2-11.5,11.5c0,6.4,5.2,11.5,11.5,11.5c6.4,0,11.5-5.2,11.5-11.5&#10;&#9;&#9;C315.9,191.5,310.8,186.3,304.4,186.3z"/>
	<path class="st1_ranking-79" d="M318.2,397.2c0,0,0.8,14.2,1.3,14.8s8.5,0.9,8.5,0.9l1.4-5.1l3.6,5.6c0,0,34,4,32.3-0.3s-28.5-16-28.5-16&#10;&#9;&#9;L318.2,397.2L318.2,397.2z"/>
	<path class="st1_ranking-79" d="M356.6,415.8c-7.9-0.2-15.8-0.7-23.6-1.7c-0.2,0-0.4-0.1-0.5-0.3l-2.7-4.2l-1,3.6c-0.1,0.3-0.4,0.5-0.7,0.5&#10;&#9;&#9;c-8.3-0.4-8.8-1-9-1.1s-0.8-0.8-1.5-15.3c0-0.2,0.1-0.4,0.2-0.5c0.1-0.1,0.3-0.2,0.5-0.2h18.7c0.1,0,0.2,0,0.3,0.1&#10;&#9;&#9;c2.8,1.2,27.1,11.9,28.9,16.3c0.2,0.5,0.1,1-0.2,1.4C365,415.4,361.2,415.8,356.6,415.8L356.6,415.8z M333.5,412.8&#10;&#9;&#9;c14.4,1.7,30.4,2.4,31.3,0.6c-1.2-2.9-17.3-10.9-28-15.5h-17.8c0.3,6,0.8,12.5,1.1,13.6c2.5,0.4,5,0.6,7.5,0.7l1.3-4.5&#10;&#9;&#9;c0.1-0.3,0.3-0.5,0.6-0.5c0.3,0,0.5,0.1,0.7,0.3L333.5,412.8L333.5,412.8z"/>
	<path class="st1_ranking-79" d="M274.6,397.2c0,0-0.8,14.2-1.3,14.8s-8.5,0.9-8.5,0.9l-1.4-5.1l-3.6,5.6c0,0-34.1,4-32.3-0.3s28.5-16,28.5-16&#10;&#9;&#9;L274.6,397.2L274.6,397.2z"/>
	<path class="st1_ranking-79" d="M236.2,415.8c-4.7,0-8.4-0.4-9.3-1.5c-0.3-0.4-0.4-0.9-0.2-1.4c1.8-4.4,26.1-15.1,28.9-16.3&#10;&#9;&#9;c0.1,0,0.2-0.1,0.3-0.1h18.7c0.2,0,0.4,0.1,0.5,0.2c0.1,0.1,0.2,0.3,0.2,0.5c-0.8,14.5-1.3,15.1-1.5,15.3s-0.8,0.8-9,1.1&#10;&#9;&#9;c-0.3,0-0.6-0.2-0.7-0.5l-1-3.6l-2.7,4.2c-0.1,0.2-0.3,0.3-0.5,0.3C256.5,414.5,244.8,415.8,236.2,415.8L236.2,415.8z M256,397.9&#10;&#9;&#9;c-10.7,4.7-26.8,12.6-28,15.5c0.9,1.8,16.8,1,31.3-0.6l3.4-5.3c0.2-0.3,0.6-0.4,1-0.2c0.1,0.1,0.2,0.2,0.3,0.4l1.3,4.5&#10;&#9;&#9;c2.5-0.1,5-0.3,7.5-0.7c0.3-1.3,0.8-7.7,1.1-13.6L256,397.9L256,397.9z"/>
	<polygon class="st2_ranking-79 targetColor" points="304.4,188.4 307,193.7 312.8,194.6 308.6,198.7 309.6,204.5 304.4,201.7 299.2,204.5 300.2,198.7 &#10;&#9;&#9;296,194.6 301.8,193.7 &#9;" style="fill: rgb(104, 225, 253);"/>
</g>
<g id="Plant_ranking-79">
	<path class="st0_ranking-79" d="M145.9,334c0,0,10.6-15.5,13.3-31.3c0,0-21.8,4.4-22.8,23C135.1,348.7,145.9,334,145.9,334L145.9,334z"/>
	<path class="st1_ranking-79" d="M139.7,339.3c-0.3,0-0.7-0.1-1-0.2c-2.5-0.9-3.5-5.3-3.1-13.5c1-19,23.1-23.6,23.4-23.6c0.2,0,0.5,0,0.6,0.2&#10;&#9;&#9;c0.2,0.2,0.2,0.4,0.2,0.6c-2.7,15.7-13.3,31.4-13.4,31.5l0,0C146,334.9,142.7,339.3,139.7,339.3L139.7,339.3z M158.2,303.7&#10;&#9;&#9;c-4.2,1.1-20.3,6.5-21.2,22.1c-0.5,9.7,1.1,11.7,2.1,12.1c1.9,0.7,5.1-2.9,6.1-4.2C145.6,333.1,155.4,318.5,158.2,303.7&#10;&#9;&#9;L158.2,303.7z M145.9,334L145.9,334z"/>
	<path class="st0_ranking-79" d="M136.9,334.8c4.6-7.6,7-16.2,7-25.1c0-8.7-2.4-17.3-7-24.6c0,0-11,11.6-14.1,28.4s3.3,29.2,8.7,25.3&#10;&#9;&#9;L136.9,334.8L136.9,334.8z"/>
	<path class="st1_ranking-79" d="M129.5,340.2c-0.8,0-1.6-0.3-2.3-0.7c-4.4-2.7-7.5-13.3-5.1-26.1c3.1-16.8,14.2-28.6,14.3-28.7&#10;&#9;&#9;c0.1-0.2,0.3-0.2,0.6-0.2c0.2,0,0.4,0.1,0.5,0.3c4.7,7.5,7.2,16.2,7.2,25c0,9-2.5,17.8-7.2,25.5c0,0.1-0.1,0.1-0.2,0.2l-5.4,3.9&#10;&#9;&#9;C131.3,339.9,130.4,340.2,129.5,340.2L129.5,340.2z M136.8,286.3c-2.3,2.7-10.7,13.2-13.3,27.4c-2.2,12.1,0.6,22.2,4.4,24.7&#10;&#9;&#9;c1,0.7,2.3,0.6,3.2-0.1l5.3-3.9c4.4-7.4,6.8-15.9,6.9-24.6C143.3,301.5,141.1,293.4,136.8,286.3L136.8,286.3z M136.9,334.8&#10;&#9;&#9;L136.9,334.8z"/>
	<path class="st0_ranking-79" d="M128.2,338.8c0,0,3.1-20.5-3.1-30.9S107.7,293,107.7,293s-6.6,15.3,0,26.9S128.2,338.8,128.2,338.8&#10;&#9;&#9;L128.2,338.8z"/>
	<path class="st1_ranking-79" d="M128.2,339.5c-0.1,0-0.2,0-0.3-0.1c-0.6-0.3-14.1-7.5-20.8-19.1s-0.3-26.9,0-27.5c0.2-0.4,0.6-0.5,0.9-0.4&#10;&#9;&#9;c0.5,0.2,11.5,4.8,17.7,15.2s3.3,30.5,3.2,31.3c0,0.2-0.2,0.4-0.4,0.5C128.5,339.4,128.4,339.5,128.2,339.5L128.2,339.5z&#10;&#9;&#9; M108.1,293.9c-1.1,3-5.4,15.8,0.2,25.6c5.5,9.6,16.2,16.3,19.3,18.1c0.5-4.2,2.1-20.7-3.2-29.4S110.5,295.1,108.1,293.9&#10;&#9;&#9;L108.1,293.9z"/>
	<path class="st1_ranking-79" d="M114.3,330.3h34.5l-3.6,24.2c-0.4,2.4-2.5,4.2-4.9,4.2h-17.5c-2.5,0-4.6-1.8-4.9-4.2L114.3,330.3L114.3,330.3z&#10;&#9;&#9;"/>
	<path class="st1_ranking-79" d="M140.3,359.4h-17.5c-2.8,0-5.2-2.1-5.6-4.9l-3.6-24.2c-0.1-0.4,0.2-0.7,0.6-0.8c0,0,0.1,0,0.1,0h34.5&#10;&#9;&#9;c0.4,0,0.7,0.3,0.7,0.7c0,0,0,0.1,0,0.1l-3.6,24.2C145.5,357.4,143.1,359.4,140.3,359.4L140.3,359.4z M115.1,331l3.5,23.4&#10;&#9;&#9;c0.3,2.1,2.1,3.6,4.2,3.6h17.5c2.1,0,3.9-1.6,4.2-3.6L148,331H115.1z"/>
</g>
<g id="Bling_ranking-79">
	<path class="st3_ranking-79" d="M362.7,242.4c-0.4,0-0.7-0.3-0.7-0.7v0v-6c0-0.4,0.3-0.7,0.7-0.7c0.4,0,0.7,0.3,0.7,0.7v6&#10;&#9;&#9;C363.4,242.2,363.1,242.4,362.7,242.4z"/>
	<path class="st3_ranking-79" d="M362.7,253.5c-0.4,0-0.7-0.3-0.7-0.7v0v-6c0-0.4,0.3-0.7,0.7-0.7c0.4,0,0.7,0.3,0.7,0.7v6&#10;&#9;&#9;C363.4,253.2,363.1,253.5,362.7,253.5z"/>
	<path class="st3_ranking-79" d="M371.2,245h-6c-0.4,0-0.7-0.3-0.7-0.7c0-0.4,0.3-0.7,0.7-0.7h6c0.4,0,0.7,0.3,0.7,0.7S371.6,245,371.2,245&#10;&#9;&#9;C371.2,245,371.2,245,371.2,245z"/>
	<path class="st3_ranking-79" d="M360.2,245h-6c-0.4,0-0.7-0.3-0.7-0.7c0-0.4,0.3-0.7,0.7-0.7h6c0.4,0,0.7,0.3,0.7,0.7S360.6,245,360.2,245&#10;&#9;&#9;C360.2,245,360.2,245,360.2,245z"/>
	<path class="st3_ranking-79" d="M354.2,126c-0.4,0-0.7-0.3-0.7-0.7c0,0,0,0,0,0v-4.8c0-0.4,0.3-0.7,0.7-0.7c0.4,0,0.7,0.3,0.7,0.7v4.8&#10;&#9;&#9;C354.9,125.7,354.6,126,354.2,126z"/>
	<path class="st3_ranking-79" d="M354.2,134.9c-0.4,0-0.7-0.3-0.7-0.7v0v-4.9c0-0.4,0.3-0.7,0.7-0.7s0.7,0.3,0.7,0.7c0,0,0,0,0,0v4.9&#10;&#9;&#9;C354.9,134.6,354.6,134.9,354.2,134.9z"/>
	<path class="st3_ranking-79" d="M361.1,128h-4.9c-0.4,0-0.7-0.3-0.7-0.7c0-0.4,0.3-0.7,0.7-0.7h4.9c0.4,0,0.7,0.3,0.7,0.7&#10;&#9;&#9;C361.7,127.7,361.4,128,361.1,128z"/>
	<path class="st3_ranking-79" d="M352.2,128h-4.9c-0.4,0-0.7-0.3-0.7-0.7c0-0.4,0.3-0.7,0.7-0.7h4.9c0.4,0,0.7,0.3,0.7,0.7&#10;&#9;&#9;C352.8,127.7,352.5,128,352.2,128C352.2,128,352.2,128,352.2,128z"/>
	<path class="st3_ranking-79" d="M241.6,91.5c-0.4,0-0.7-0.3-0.7-0.7v-6c0-0.4,0.3-0.7,0.7-0.7s0.7,0.3,0.7,0.7c0,0,0,0,0,0v6&#10;&#9;&#9;C242.2,91.2,241.9,91.5,241.6,91.5z"/>
	<path class="st3_ranking-79" d="M241.6,102.5c-0.4,0-0.7-0.3-0.7-0.7v-6c0-0.4,0.3-0.7,0.7-0.7s0.7,0.3,0.7,0.7c0,0,0,0,0,0v6&#10;&#9;&#9;C242.2,102.2,241.9,102.5,241.6,102.5z"/>
	<path class="st3_ranking-79" d="M250.1,94h-6c-0.4,0-0.7-0.3-0.7-0.7c0-0.4,0.3-0.7,0.7-0.7h6c0.4,0,0.7,0.3,0.7,0.7&#10;&#9;&#9;C250.7,93.7,250.4,94,250.1,94C250.1,94,250.1,94,250.1,94z"/>
	<path class="st3_ranking-79" d="M239,94h-6c-0.4,0-0.7-0.3-0.7-0.7c0-0.4,0.3-0.7,0.7-0.7c0,0,0,0,0,0h6c0.4,0,0.7,0.3,0.7,0.7&#10;&#9;&#9;C239.7,93.7,239.4,94,239,94z"/>
	<path class="st3_ranking-79" d="M153.1,225.4c-0.4,0-0.7-0.3-0.7-0.7v-6c0-0.4,0.3-0.7,0.7-0.7s0.7,0.3,0.7,0.7c0,0,0,0,0,0v6&#10;&#9;&#9;C153.8,225.1,153.5,225.4,153.1,225.4z"/>
	<path class="st3_ranking-79" d="M153.1,236.4c-0.4,0-0.7-0.3-0.7-0.7v-6c0-0.4,0.3-0.7,0.7-0.7s0.7,0.3,0.7,0.7c0,0,0,0,0,0v6&#10;&#9;&#9;C153.8,236.1,153.5,236.4,153.1,236.4z"/>
	<path class="st3_ranking-79" d="M161.6,227.9h-6c-0.4,0-0.7-0.3-0.7-0.7s0.3-0.7,0.7-0.7c0,0,0,0,0,0h6c0.4,0,0.7,0.3,0.7,0.7&#10;&#9;&#9;S162,227.9,161.6,227.9C161.7,227.9,161.7,227.9,161.6,227.9z"/>
	<path class="st3_ranking-79" d="M150.6,227.9h-6c-0.4,0-0.7-0.3-0.7-0.7c0-0.4,0.3-0.7,0.7-0.7h6c0.4,0,0.7,0.3,0.7,0.7&#10;&#9;&#9;C151.3,227.6,151,227.9,150.6,227.9z"/>
	<path class="st3_ranking-79" d="M113.2,267.4c-0.4,0-0.7-0.3-0.7-0.7l0,0v-6c0-0.4,0.3-0.7,0.7-0.7c0.4,0,0.7,0.3,0.7,0.7c0,0,0,0,0,0v6&#10;&#9;&#9;C113.9,267.1,113.6,267.4,113.2,267.4C113.3,267.4,113.3,267.4,113.2,267.4z"/>
	<path class="st3_ranking-79" d="M113.2,278.5c-0.4,0-0.7-0.3-0.7-0.7l0,0v-6c0-0.4,0.3-0.7,0.7-0.7c0.4,0,0.7,0.3,0.7,0.7v6&#10;&#9;&#9;C113.9,278.2,113.6,278.5,113.2,278.5C113.3,278.5,113.3,278.5,113.2,278.5z"/>
	<path class="st3_ranking-79" d="M121.8,269.9h-6c-0.4,0-0.7-0.3-0.7-0.7s0.3-0.7,0.7-0.7c0,0,0,0,0,0h6c0.4,0,0.7,0.3,0.7,0.7&#10;&#9;&#9;S122.1,269.9,121.8,269.9C121.8,269.9,121.8,269.9,121.8,269.9z"/>
	<path class="st3_ranking-79" d="M110.7,269.9h-6c-0.4,0-0.7-0.3-0.7-0.7s0.3-0.7,0.7-0.7c0,0,0,0,0,0h6c0.4,0,0.7,0.3,0.7,0.7&#10;&#9;&#9;S111.1,269.9,110.7,269.9C110.7,269.9,110.7,269.9,110.7,269.9z"/>
</g>
</svg>