<svg version="1.1" id="Layer_1" xmlns="http://www.w3.org/2000/svg" xmlns:xlink="http://www.w3.org/1999/xlink" x="0px" y="0px" viewBox="0 0 500 500" style="width: 188px;" xml:space="preserve" data-imageid="real-estate-agent-51" imageName="Real Estate Agent" class="illustrations_image">
<style type="text/css">
	.st0_real-estate-agent-51{fill:#FFC9B0;}
	.st1_real-estate-agent-51{fill:#093F68;}
	.st2_real-estate-agent-51{fill:#68E1FD;}
	.st3_real-estate-agent-51{fill:#725858;}
	.st4_real-estate-agent-51{fill:#70CC40;}
	.st5_real-estate-agent-51{fill:#FFBC0E;}
	.st6_real-estate-agent-51{fill:#F56132;}
</style>
<g id="character_real-estate-agent-51">
	<path class="st0_real-estate-agent-51" d="M206,309.1l-36.4,28.6l-20-43.8c0,0-5.8-27.9-11.6-34.6c-6.3-7.2-21.2-9.7-30.1-10.5&#10;&#9;&#9;c-9.8-0.9-14.4,5-17.8,13.5c-1.8,4.5-7.6,12.8-2.3,16.6c1.7,1.1,3.9,1.3,5.7,0.4c1.8-0.9,3.2-2.5,3.9-4.4c1.2-3.1,1.1-7,3.7-9.1&#10;&#9;&#9;c1.8-1.2,4.2-1.5,6.2-0.6c5.3,2,10.4,7.7,6.8,13.5c-1.9,3.1-5.8,4.4-9.4,5.1s-7.4,1-10.4,3c-1.4,0.8-2.4,2.2-2.5,3.8&#10;&#9;&#9;c0,2,1.9,3.5,3.7,4.4c5.3,2.5,11.8,1.6,17.5,1.2c0.7-0.1,9.3-0.6,9.2-0.7s1.2,76.6,29.1,103.4c15.3,14.6,83.6-63.5,83.6-63.5&#10;&#9;&#9;L206,309.1z"/>
	<path class="st1_real-estate-agent-51" d="M156.3,402.4c-2.3,0.1-4.6-0.8-6.3-2.4c-11.9-11.4-20.5-32.5-25.6-62.7c-2.2-13.2-3.5-26.5-4-39.9&#10;&#9;&#9;c-1.3,0.1-3.2,0.2-6.1,0.4l-2.7,0.2c-5.4,0.5-11.5,1-16.8-1.5c-3-1.4-4.8-3.6-4.8-6c0.1-2.2,1.4-4.2,3.3-5.4c2.9-1.9,6.2-2.4,9.3-3&#10;&#9;&#9;l1.8-0.3c4.2-0.8,6.8-2.1,8.1-4.2c0.9-1.4,1.2-3.2,0.6-4.8c-0.8-2.4-3.5-4.9-6.5-6c-1.4-0.6-3.1-0.5-4.4,0.3&#10;&#9;&#9;c-1.2,1-1.7,2.7-2.1,4.8c-0.2,1.2-0.6,2.4-1,3.5c-0.9,2.3-2.6,4.2-4.9,5.4c-2.4,1.2-5.3,1-7.6-0.5c-5.6-4-2.1-11.1,0.3-15.9&#10;&#9;&#9;c0.5-1.1,1-2.1,1.3-2.9c3.1-7.9,7.9-15.8,19.7-14.7c10.7,1,24.9,3.7,31.4,11.1c5.9,6.8,11.5,32.5,12,35.3l18.9,41.4l34.6-27.1&#10;&#9;&#9;c0.7-0.6,1.7-0.5,2.4,0.1l28.8,26.1c0.7,0.7,0.8,1.8,0.1,2.6c-2.3,2.6-57,65-79.4,66L156.3,402.4z M124,295.4&#10;&#9;&#9;c0,0.8,1.5,76.2,28.5,102c1.1,1,2.6,1.5,4.1,1.3c19.1-0.9,67.3-54.1,75.6-63.4l-26.3-23.8l-35.2,27.6c-0.8,0.6-2,0.5-2.6-0.3&#10;&#9;&#9;c-0.1-0.1-0.2-0.2-0.2-0.4l-20-43.8c-0.1-0.1-0.1-0.3-0.1-0.4c-1.6-7.6-6.7-28.6-11.3-33.8c-6-6.8-20.7-9.1-28.9-9.9&#10;&#9;&#9;c-7.7-0.7-12.2,2.8-16,12.4c-0.4,1-0.9,2-1.5,3.2c-2.5,5.1-4.2,9.2-1.4,11.2c1.2,0.7,2.6,0.8,3.9,0.2c1.4-0.7,2.5-1.9,3-3.4&#10;&#9;&#9;c0.4-1,0.6-2,0.8-3c0.6-2.4,1.2-5.1,3.5-6.9c2.3-1.6,5.4-2,8-0.8c3.3,1.2,7.3,4.1,8.7,8.3c0.9,2.7,0.5,5.6-1,7.9&#10;&#9;&#9;c-1.8,3-5.3,4.9-10.6,5.9l-1.9,0.3c-2.9,0.5-5.7,1-7.9,2.4c-0.9,0.4-1.5,1.3-1.7,2.3c0,1.1,1.3,2.1,2.6,2.7c4.4,2,9.8,1.6,15,1.1&#10;&#9;&#9;l1.6-0.1l1.2-0.1c1.7-0.1,6.6-0.4,7.6-0.6c0.1,0,0.2-0.1,0.3-0.1c0.9-0.1,1.8,0.5,2,1.5c0,0.1,0,0.2,0,0.3L124,295.4z"/>
	<polygon class="st2_real-estate-agent-51 targetColor" points="217.3,290.4 167.3,332.3 192.5,390.8 215.4,367.4 &#9;" style="fill: rgb(104, 225, 253);"/>
	<path class="st1_real-estate-agent-51" d="M192.5,392.7h-0.3c-0.6-0.1-1.1-0.5-1.4-1.1l-25.2-58.5c-0.3-0.8-0.1-1.6,0.5-2.1l50-41.9&#10;&#9;&#9;c0.8-0.6,2-0.5,2.6,0.3c0.3,0.3,0.4,0.7,0.4,1.2l-1.9,76.9c0,0.5-0.2,0.9-0.5,1.2l-22.9,23.5C193.4,392.5,192.9,392.7,192.5,392.7z&#10;&#9;&#9; M169.5,332.9l23.5,54.7l20.5-21l1.8-72.1L169.5,332.9z"/>
	<polygon class="st2_real-estate-agent-51 targetColor" points="325.3,290.4 381.9,344.6 350.1,390.8 327.2,367.4 &#9;" style="fill: rgb(104, 225, 253);"/>
	<path class="st1_real-estate-agent-51" d="M350.1,392.7c-0.5,0-1-0.2-1.3-0.6l-22.9-23.5c-0.3-0.3-0.5-0.8-0.5-1.2l-1.9-76.9c0-1,0.8-1.9,1.8-1.9&#10;&#9;&#9;c0.5,0,1,0.2,1.3,0.5l56.6,54.2c0.7,0.6,0.8,1.6,0.2,2.4l-31.8,46.2c-0.3,0.5-0.8,0.7-1.4,0.8L350.1,392.7z M329,366.6l20.8,21.3&#10;&#9;&#9;l29.6-43l-52.3-50L329,366.6z"/>
	<path class="st2_real-estate-agent-51 targetColor" d="M225,285.8h88.1c9.2,0,16.7,7.5,16.7,16.7v118.3l0,0H211l0,0V300.8C211,295.3,219.5,285.8,225,285.8z" style="fill: rgb(104, 225, 253);"/>
	<path class="st1_real-estate-agent-51" d="M329.8,422.7H211c-1,0-1.9-0.8-1.9-1.9l0,0V304.3c0-11.2,9.1-20.3,20.4-20.3h81.8c11.2,0,20.3,9.1,20.3,20.3&#10;&#9;&#9;v116.5C331.6,421.9,330.8,422.7,329.8,422.7L329.8,422.7z M212.9,419h115V304.3c0-9.2-7.4-16.6-16.6-16.6h-81.8&#10;&#9;&#9;c-9.2,0-16.6,7.4-16.6,16.6V419z"/>
	<path class="st2_real-estate-agent-51 targetColor" d="M216.3,305c0,0-11.4,9.6-11.4,28.2c0.1,11.3,4.1,22.3,11.4,31" style="fill: rgb(104, 225, 253);"/>
	<path class="st1_real-estate-agent-51" d="M216.3,366.1c-0.5,0-1-0.2-1.4-0.6c-7.5-9.1-11.7-20.5-11.8-32.3c0-19.2,11.5-29.2,12-29.6&#10;&#9;&#9;c0.8-0.7,1.9-0.6,2.6,0.2c0.7,0.8,0.6,1.9-0.2,2.6l0,0c-0.1,0.1-10.7,9.4-10.7,26.8c0.2,10.9,4,21.4,10.9,29.8&#10;&#9;&#9;c0.7,0.8,0.6,1.9-0.1,2.6C217.2,365.9,216.7,366.1,216.3,366.1L216.3,366.1z"/>
	<path class="st2_real-estate-agent-51 targetColor" d="M323.3,305c0,0,11.4,9.6,11.4,28.2c-0.1,11.3-4.1,22.3-11.4,31" style="fill: rgb(104, 225, 253);"/>
	<path class="st1_real-estate-agent-51" d="M323.3,366.1c-1,0-1.8-0.9-1.8-1.9c0-0.4,0.2-0.8,0.5-1.2c6.9-8.4,10.7-18.9,10.9-29.8&#10;&#9;&#9;c0-17.4-10.6-26.7-10.7-26.8c-0.8-0.7-0.8-1.9-0.1-2.6c0.7-0.7,1.7-0.8,2.5-0.2c0.5,0.4,12,10.4,12,29.6&#10;&#9;&#9;c-0.1,11.8-4.3,23.2-11.8,32.3C324.4,365.9,323.8,366.1,323.3,366.1z"/>
	<polygon class="st0_real-estate-agent-51" points="302.8,285.8 290.6,329 270.4,400.9 250.2,329 238,285.8 &#9;"/>
	<path class="st1_real-estate-agent-51" d="M270.4,402.7c-0.8,0-1.6-0.6-1.8-1.4l-32.4-115.1c-0.2-0.6,0-1.2,0.3-1.6c0.3-0.4,0.9-0.7,1.4-0.7h64.8&#10;&#9;&#9;c1,0,1.9,0.8,1.8,1.9c0,0.2,0,0.3-0.1,0.5l-32.4,115C272,402.2,271.2,402.7,270.4,402.7z M240.5,287.7L270.4,394l29.9-106.4&#10;&#9;&#9;L240.5,287.7z"/>
	<path class="st3_real-estate-agent-51" d="M187.4,165.6c0-31.2,9.4-59.9,38.6-65.1c10.7-19.6,38.2-24.3,56.1-19.6c44,11.7,70.1,39.7,70.1,84.7&#10;&#9;&#9;s73,106.4-82.4,106.4S187.4,210.5,187.4,165.6z"/>
	<path class="st1_real-estate-agent-51" d="M269.8,273.8c-54.6,0-85.3-7.4-96.4-23.3c-9.8-14-3-32.6,3.6-50.6c4.2-11.6,8.6-23.6,8.6-34.3&#10;&#9;&#9;c0-48.6,21.2-63.2,39.3-66.8c6.6-11.3,17.7-16.6,26-19c10.3-3,21.3-3.3,31.7-0.7c46.8,12.4,71.4,42.3,71.4,86.5&#10;&#9;&#9;c0,10.7,4.4,22.7,8.6,34.3c6.6,18,13.4,36.6,3.6,50.6C355.1,266.4,324.5,273.8,269.8,273.8z M268.3,81c-15.9,0-33.1,6.6-40.6,20.3&#10;&#9;&#9;c-0.3,0.5-0.7,0.8-1.3,0.9c-30.7,5.5-37.1,37.5-37.1,63.3c0,11.4-4.5,23.7-8.9,35.6c-6.5,17.9-12.7,34.7-4,47.2&#10;&#9;&#9;c10.2,14.7,40.8,21.8,93.4,21.8s83.2-7.1,93.4-21.8c8.7-12.5,2.5-29.3-4-47.2c-4.4-11.9-8.9-24.2-8.9-35.6&#10;&#9;&#9;c0-42.3-23.8-70.9-68.7-82.9C277.3,81.5,272.8,81,268.3,81z"/>
	<polyline class="st0_real-estate-agent-51" points="258.6,290.4 258.6,276.9 282.2,276.9 282.2,290.4 &#9;"/>
	<path class="st1_real-estate-agent-51" d="M282.2,292.3c-1,0-1.9-0.8-1.9-1.8c0,0,0,0,0,0v-11.7h-19.8v11.7c0,1-0.8,1.9-1.9,1.9s-1.9-0.8-1.9-1.9l0,0&#10;&#9;&#9;v-13.5c0-1,0.8-1.9,1.9-1.9l0,0h23.5c1,0,1.9,0.8,1.9,1.9l0,0v13.5C284,291.5,283.2,292.3,282.2,292.3z"/>
	<ellipse class="st0_real-estate-agent-51" cx="203.2" cy="215.8" rx="22.9" ry="19.7"/>
	<path class="st1_real-estate-agent-51" d="M203.2,237.4c-13.6,0-24.7-9.7-24.7-21.5s11.1-21.5,24.7-21.5s24.7,9.7,24.7,21.5S216.8,237.4,203.2,237.4z&#10;&#9;&#9; M203.2,198c-11.6,0-21,8-21,17.8s9.4,17.8,21,17.8s21-8,21-17.8S214.8,198,203.2,198L203.2,198z"/>
	<ellipse class="st0_real-estate-agent-51" cx="336.4" cy="215.8" rx="22.9" ry="19.7"/>
	<path class="st1_real-estate-agent-51" d="M336.4,237.4c-13.6,0-24.7-9.7-24.7-21.5s11.1-21.5,24.7-21.5s24.7,9.7,24.7,21.5S350,237.4,336.4,237.4z&#10;&#9;&#9; M336.4,198c-11.6,0-21,8-21,17.8s9.4,17.8,21,17.8s21-8,21-17.8S348,198,336.4,198L336.4,198z"/>
	<path class="st0_real-estate-agent-51" d="M339.3,162v49.1c0,38.1-30.8,68.9-68.9,68.9s-68.9-30.8-68.9-68.9c0,0,0,0,0,0c0-11.3,0.3-50.5,0.3-50.5&#10;&#9;&#9;l20.7,0.2l9.6-33.8c0,0,6.9,23.6,9.3,34l16.1,0.2c3.4-7,9-17,9.2-17.8s4.3,10.4,6.9,17.9l24.2,0.3c4.4-10.2,12.3-29,12.3-29&#10;&#9;&#9;l12.6,29.2L339.3,162z"/>
	<path class="st1_real-estate-agent-51" d="M270.4,281.9c-39.1,0-70.7-31.7-70.7-70.8c0-11.2,0.3-50.1,0.3-50.5c0-0.5,0.2-1,0.6-1.3&#10;&#9;&#9;c0.3-0.4,0.8-0.6,1.3-0.5l19.3,0.2l9.2-32.4c0.2-0.8,0.9-1.3,1.8-1.3l0,0c0.8,0,1.5,0.5,1.8,1.3c0.1,0.2,6.4,21.8,9,32.7l13.5,0.1&#10;&#9;&#9;c2-4.2,4.7-9.1,6.5-12.5c1-1.9,2-3.7,2.1-4.1c0.3-0.7,1-1.2,1.8-1.2c1.6,0,1.9,0.1,8.2,18l21.6,0.2c4.4-10.3,11.7-27.7,11.8-27.8&#10;&#9;&#9;c0.3-0.7,1-1.1,1.7-1.1l0,0c0.7,0,1.4,0.4,1.7,1.1l12.1,28.1l15.4,0.2c1,0,1.8,0.8,1.8,1.9v49.1&#10;&#9;&#9;C341.1,250.1,309.5,281.8,270.4,281.9z M203.6,162.5c-0.1,7.9-0.3,38.8-0.3,48.6c0,37,30,67.1,67.1,67.1s67.1-30,67.1-67.1v-47.2&#10;&#9;&#9;l-14.8-0.2c-0.7,0-1.4-0.4-1.7-1.1l-10.8-25.2c-2.6,6.1-7.5,17.8-10.6,25c-0.3,0.7-1,1.1-1.7,1.1l0,0l-24.2-0.3&#10;&#9;&#9;c-0.8,0-1.5-0.5-1.7-1.2c-2.7-7.7-4.3-12-5.3-14.4l-0.5,1c-2,3.6-4.9,9.1-7,13.4c-0.3,0.6-1,1-1.7,1l-16.1-0.2&#10;&#9;&#9;c-0.9,0-1.6-0.6-1.8-1.4c-1.6-6.9-5.3-19.9-7.5-27.7l-7.8,27.6c-0.2,0.8-1,1.4-1.8,1.4l0,0L203.6,162.5z"/>
	<circle class="st1_real-estate-agent-51" cx="242.5" cy="201.9" r="6.2"/>
	<circle class="st1_real-estate-agent-51" cx="298.3" cy="201.9" r="6.2"/>
	<path class="st1_real-estate-agent-51" d="M270.1,225.7c-2.1,0-4.1-0.2-6.2-0.5c-1-0.2-1.6-1.2-1.4-2.2c0.2-0.9,1.1-1.5,2-1.4c0.1,0,5.6,1,9.6,0.1&#10;&#9;&#9;c0.5-1.7-1.9-8.6-5.3-15.2c-0.5-0.9-0.1-2,0.8-2.5c0.9-0.4,2-0.1,2.4,0.8c1.7,3.3,7.2,14.5,5.4,18.6c-0.4,0.9-1.2,1.6-2.2,1.9&#10;&#9;&#9;C273.5,225.5,271.8,225.7,270.1,225.7z"/>
	<path class="st1_real-estate-agent-51" d="M247.1,216.5h-11.6c-10.5,0-19-8.5-19-19v-3.3c0-3.8,3.1-6.9,6.9-6.9h35.8c3.8,0,6.9,3.1,6.9,6.9v3.3&#10;&#9;&#9;C266.1,208,257.6,216.5,247.1,216.5z M223.4,191c-1.8,0-3.2,1.5-3.2,3.2v3.3c0,8.4,6.8,15.3,15.3,15.3h11.6&#10;&#9;&#9;c8.4,0,15.3-6.8,15.3-15.3v-3.3c0-1.8-1.4-3.2-3.2-3.2H223.4z"/>
	<path class="st1_real-estate-agent-51" d="M304.8,216.5h-11.6c-10.5,0-19-8.5-19-19v-3.3c0-3.8,3.1-6.9,6.9-6.9h35.8c3.8,0,6.9,3.1,6.9,6.9v3.3&#10;&#9;&#9;C323.7,208,315.2,216.5,304.8,216.5z M281.1,191c-1.8,0-3.2,1.5-3.2,3.2v3.3c0,8.4,6.8,15.3,15.3,15.3h11.6&#10;&#9;&#9;c8.4,0,15.2-6.9,15.2-15.3v-3.3c0-1.8-1.4-3.2-3.2-3.2H281.1z"/>
	<path class="st1_real-estate-agent-51" d="M218.4,199.4h-18.3c-1,0-1.8-0.8-1.8-1.9c0-1,0.8-1.8,1.8-1.8h18.3c1,0,1.8,0.8,1.8,1.9&#10;&#9;&#9;C220.2,198.6,219.4,199.4,218.4,199.4z"/>
	<path class="st1_real-estate-agent-51" d="M339.3,199.4h-16.8c-1,0-1.8-0.8-1.8-1.9c0-1,0.8-1.8,1.8-1.8h16.8c1,0,1.8,0.8,1.8,1.9&#10;&#9;&#9;C341.2,198.6,340.3,199.4,339.3,199.4z"/>
	<path class="st1_real-estate-agent-51" d="M276,199.4h-11.8c-1,0-1.8-0.8-1.8-1.9c0-1,0.8-1.8,1.8-1.8H276c1,0,1.9,0.8,1.9,1.8&#10;&#9;&#9;C277.9,198.6,277,199.4,276,199.4C276,199.4,276,199.4,276,199.4z"/>
	<polygon class="st1_real-estate-agent-51" points="290.6,329 270.4,400.9 250.2,329 &#9;"/>
	<path class="st1_real-estate-agent-51" d="M270.4,402.7c-0.8,0-1.6-0.6-1.8-1.4l-20.2-71.8c-0.2-0.6,0-1.2,0.3-1.6c0.4-0.5,0.9-0.7,1.5-0.7h40.4&#10;&#9;&#9;c0.6,0,1.1,0.3,1.5,0.7c0.3,0.5,0.5,1.1,0.3,1.6l-20.2,71.8C272,402.2,271.2,402.7,270.4,402.7z M252.6,330.9l17.8,63.1l17.8-63.2&#10;&#9;&#9;L252.6,330.9z"/>
	<path class="st1_real-estate-agent-51" d="M269.8,402.7c-0.5,0-1.1-0.2-1.4-0.6l-40-46.5c-0.5-0.6-0.6-1.3-0.3-2l10.1-21.4l-16.6-8.1&#10;&#9;&#9;c-0.9-0.4-1.3-1.5-0.9-2.4l15-36.5c0.4-1,1.4-1.4,2.4-1.1c1,0.4,1.4,1.4,1.1,2.4c0,0,0,0,0,0.1l-14.3,34.8l16.7,8.2&#10;&#9;&#9;c0.9,0.4,1.3,1.5,0.9,2.5l-10.3,22l39.2,45.6c0.7,0.8,0.6,1.9-0.2,2.6C270.7,402.6,270.3,402.7,269.8,402.7L269.8,402.7z"/>
	<path class="st1_real-estate-agent-51" d="M271,402.7c-1,0-1.9-0.8-1.9-1.8c0-0.5,0.2-0.9,0.5-1.2l39.2-45.7l-10.3-22c-0.4-0.9,0-2,0.9-2.5l16.7-8.1&#10;&#9;&#9;l-14.4-34.9c-0.4-0.9,0-2,1-2.4s2,0,2.4,1c0,0,0,0,0,0.1l15,36.5c0.4,0.9,0,1.9-0.9,2.4l-16.6,8.1l10.1,21.4c0.3,0.7,0.2,1.4-0.3,2&#10;&#9;&#9;l-40,46.5C272,402.5,271.5,402.7,271,402.7z"/>
	<path class="st1_real-estate-agent-51" d="M256.1,181.8c-0.2,0-0.3,0-0.5,0l-30.1-3.8c-2-0.3-3.5-2.1-3.2-4.1c0.3-2,2.1-3.5,4.1-3.2l0,0l30.1,3.8&#10;&#9;&#9;c2,0.3,3.5,2.1,3.2,4.1C259.5,180.5,257.9,181.9,256.1,181.8L256.1,181.8z"/>
	<path class="st1_real-estate-agent-51" d="M284.8,181.8c-2,0-3.7-1.7-3.7-3.7c0-1.9,1.4-3.4,3.2-3.7l30.1-3.8c2-0.3,3.9,1.2,4.1,3.2s-1.2,3.9-3.2,4.1&#10;&#9;&#9;l0,0l-30.1,3.8L284.8,181.8z"/>
	<path class="st1_real-estate-agent-51" d="M271.2,250.5c-17.1,0-25.1-13.9-25.2-14.1c-0.5-0.9-0.1-2,0.8-2.5c0.9-0.5,1.9-0.2,2.5,0.7l0,0&#10;&#9;&#9;c0.5,0.8,11.5,19.6,36.4,8.9c0.9-0.4,2,0,2.4,1c0.4,0.9,0,2-1,2.4l0,0C282,249.2,276.6,250.4,271.2,250.5z"/>
</g>
<g id="key_real-estate-agent-51">
	<path class="st4_real-estate-agent-51" d="M96.2,377.9c0,0,6.4-3.5,6.8-3.9L96.2,377.9z"/>
	<path class="st1_real-estate-agent-51" d="M96.2,379.7c-0.7,0-1.3-0.4-1.6-0.9c-0.5-0.9-0.2-2,0.7-2.5l6.8-3.9c0.9-0.5,2-0.3,2.5,0.6&#10;&#9;&#9;c0.5,0.8,0.3,1.8-0.4,2.4c-0.2,0.1-0.6,0.5-7.1,4.1C96.9,379.6,96.6,379.7,96.2,379.7z"/>
	<path class="st4_real-estate-agent-51" d="M107.8,334.5c6.9-3,10.8-9.3,10.8-17.8c0-10.7-8.7-19.3-19.4-19.3s-19.3,8.7-19.3,19.4l0,0&#10;&#9;&#9;c0,8,5.9,14.9,12.9,17.8v41.3c0,1.3,1,2.3,2.3,2.3c0.4,0,0.8-0.1,1.1-0.3l12.8-7.4v-10l-3.5,1.4l-0.2-22.3l2.5-2L107.8,334.5z&#10;&#9;&#9; M99.3,313c-3.3,0-6-2.7-6-6s2.7-6,6-6s6,2.7,6,6S102.6,313,99.3,313z"/>
	<path class="st1_real-estate-agent-51" d="M95.1,380c-0.7,0-1.5-0.2-2.1-0.6c-1.3-0.7-2-2.1-2-3.5v-40.1c-6.6-3.1-12.9-10-12.9-19&#10;&#9;&#9;c0.1-11.2,8.8-20.5,20-21.2c11.7-0.6,21.7,8.3,22.3,20c0,0.4,0,0.8,0,1.2c0,8.8-3.8,15.5-10.8,19v1.9c0,0.5-0.3,1-0.7,1.4l-1.8,1.5&#10;&#9;&#9;l0.2,18.7l1-0.4c0.9-0.4,2,0.1,2.4,1c0.1,0.2,0.1,0.5,0.1,0.7v10c0,0.7-0.4,1.3-0.9,1.6l-12.8,7.4C96.5,379.8,95.8,380,95.1,380z&#10;&#9;&#9; M98.1,299.2c-9.2,0.7-16.3,8.3-16.3,17.5c0,6.6,4.9,13.3,11.8,16.1c0.7,0.3,1.1,1,1.1,1.7v41.3c0,0.2,0.1,0.3,0.2,0.4&#10;&#9;&#9;c0.1,0.1,0.3,0.1,0.4,0l11.9-6.8v-6.2l-1,0.4c-0.9,0.4-2-0.1-2.4-1c-0.1-0.2-0.1-0.4-0.1-0.7l-0.2-22.3c0-0.6,0.3-1.1,0.7-1.5&#10;&#9;&#9;l1.8-1.5v-2.2c0-0.7,0.4-1.4,1.1-1.7c6.2-2.7,9.7-8.4,9.7-16.1c0-9.2-7.1-16.9-16.3-17.5c4.3,0.6,7.2,4.6,6.6,8.9&#10;&#9;&#9;c-0.6,4.3-4.6,7.2-8.9,6.6c-4.3-0.6-7.2-4.6-6.6-8.9C92,302.4,94.7,299.8,98.1,299.2z M107.8,337.6L107.8,337.6z M99.3,302.9&#10;&#9;&#9;c-2.3,0-4.1,1.8-4.1,4.1c0,2.3,1.8,4.1,4.1,4.1s4.1-1.8,4.1-4.1c0,0,0,0,0,0C103.4,304.7,101.6,302.9,99.3,302.9z"/>
	<path class="st1_real-estate-agent-51" d="M100.9,310.1c-7.5,0-13.6-6.1-13.6-13.6c0-7.5,6.1-13.6,13.6-13.6c7.5,0,13.6,6.1,13.6,13.6&#10;&#9;&#9;c0,1.6-0.3,3.1-0.8,4.6c-0.3,1-1.4,1.5-2.4,1.1c-1-0.3-1.5-1.4-1.1-2.4l0,0c1.9-5.2-0.8-10.9-6-12.7s-10.9,0.8-12.7,6&#10;&#9;&#9;c-1.9,5.2,0.8,10.9,6,12.7c1.1,0.4,2.2,0.6,3.4,0.6c0.8,0,1.7-0.1,2.5-0.3c1-0.3,2,0.3,2.3,1.3c0.3,1-0.3,2-1.3,2.3&#10;&#9;&#9;C103.2,310,102.1,310.1,100.9,310.1z"/>
</g>
<g id="house_real-estate-agent-51">
	<rect x="386.9" y="303.4" class="st5_real-estate-agent-51" width="12.6" height="26.6"/>
	<path class="st1_real-estate-agent-51" d="M399.4,331.9h-12.6c-1,0-1.9-0.8-1.9-1.8c0,0,0,0,0,0v-26.6c0-1,0.8-1.9,1.9-1.9l0,0h12.6c1,0,1.9,0.8,1.9,1.9&#10;&#9;&#9;l0,0V330C401.3,331,400.5,331.9,399.4,331.9C399.4,331.9,399.4,331.9,399.4,331.9z M388.7,328.2h8.9v-22.9h-8.9V328.2z"/>
	<rect x="384.2" y="296.8" class="st5_real-estate-agent-51" width="18" height="6.6"/>
	<path class="st1_real-estate-agent-51" d="M402.1,305.3h-17.9c-1,0-1.9-0.8-1.9-1.8c0,0,0,0,0,0v-6.6c0-1,0.8-1.9,1.8-1.9c0,0,0,0,0,0h18&#10;&#9;&#9;c1,0,1.9,0.8,1.9,1.9l0,0v6.6C404,304.5,403.1,305.3,402.1,305.3C402.1,305.3,402.1,305.3,402.1,305.3z M386,301.6h14.2v-2.9H386&#10;&#9;&#9;L386,301.6z"/>
	<polygon class="st5_real-estate-agent-51" points="310.8,335.2 357.3,306.7 403.8,335.2 403.8,398.7 310.8,398.7 &#9;"/>
	<path class="st1_real-estate-agent-51" d="M403.8,400.6h-93c-1,0-1.9-0.8-1.9-1.9l0,0v-63.5c0-0.6,0.3-1.2,0.9-1.6l46.5-28.5c0.6-0.4,1.3-0.4,1.9,0&#10;&#9;&#9;l46.5,28.5c0.5,0.3,0.9,0.9,0.9,1.6v63.5C405.7,399.7,404.8,400.6,403.8,400.6C403.8,400.6,403.8,400.6,403.8,400.6z M312.6,396.9&#10;&#9;&#9;h89.3v-60.6l-44.7-27.4l-44.7,27.4L312.6,396.9z"/>
	<path class="st6_real-estate-agent-51" d="M411.2,345.8c-1.9,0-3.7-0.5-5.2-1.5l-48.7-31.8l-48.7,31.8c-4,2.6-9.3,1.8-12.4-1.7c-2.6-3.2-2.1-7.8,1-10.4&#10;&#9;&#9;c0.3-0.2,0.6-0.5,0.9-0.6l53.9-35.1c3.2-2,7.3-2,10.5,0l53.9,35.1c3.5,2.1,4.7,6.6,2.6,10.2c-0.2,0.3-0.4,0.6-0.7,0.9&#10;&#9;&#9;C416.5,344.7,413.9,345.9,411.2,345.8z"/>
	<path class="st1_real-estate-agent-51" d="M411.2,347.7c-2.2,0-4.4-0.6-6.2-1.8l-47.6-31.1l-47.7,31.1c-4.8,3.1-11.1,2.2-14.8-2.1c-1.7-2-2.4-4.6-2-7.2&#10;&#9;&#9;c0.4-2.7,2-5.1,4.4-6.6l53.8-35.1c3.8-2.4,8.7-2.4,12.5,0l53.9,35.1c2.3,1.5,3.9,3.9,4.4,6.6c0.4,2.6-0.3,5.2-2,7.2&#10;&#9;&#9;C417.6,346.3,414.5,347.7,411.2,347.7z M357.3,296.7c-1.5,0-3,0.4-4.2,1.2L299.2,333c-1.5,0.9-2.5,2.4-2.7,4&#10;&#9;&#9;c-0.2,1.5,0.2,3.1,1.2,4.3c2.5,2.9,6.7,3.4,9.9,1.4l48.7-31.7c0.6-0.4,1.4-0.4,2,0l48.7,31.8c1.3,0.8,2.7,1.2,4.2,1.2&#10;&#9;&#9;c2.2,0,4.3-0.9,5.7-2.6c1-1.2,1.5-2.8,1.2-4.3c-0.3-1.7-1.3-3.2-2.7-4l-53.9-35.1C360.3,297.1,358.8,296.6,357.3,296.7L357.3,296.7&#10;&#9;&#9;z"/>
	<rect x="342.4" y="343.4" class="st5_real-estate-agent-51" width="30.2" height="55.3"/>
	<path class="st1_real-estate-agent-51" d="M372.6,400.6h-30.2c-1,0-1.9-0.8-1.9-1.9l0,0v-55.3c0-1,0.8-1.9,1.9-1.9l0,0h30.2c1,0,1.9,0.8,1.9,1.9l0,0&#10;&#9;&#9;v55.3C374.4,399.7,373.6,400.6,372.6,400.6L372.6,400.6z M344.2,396.9h26.5v-51.6h-26.5V396.9z"/>
	<rect x="318.8" y="356.4" class="st5_real-estate-agent-51" width="15.4" height="19.5"/>
	<path class="st1_real-estate-agent-51" d="M334.2,377.8h-15.4c-1,0-1.8-0.8-1.8-1.8v-19.6c0-1,0.8-1.9,1.9-1.9l0,0h15.4c1,0,1.9,0.8,1.9,1.9l0,0V376&#10;&#9;&#9;C336.1,377,335.2,377.8,334.2,377.8C334.2,377.8,334.2,377.8,334.2,377.8z M320.7,374.1h11.7v-15.8h-11.7V374.1z"/>
	<rect x="380.4" y="356.4" class="st5_real-estate-agent-51" width="15.4" height="19.5"/>
	<path class="st1_real-estate-agent-51" d="M395.7,377.8h-15.4c-1,0-1.9-0.8-1.9-1.9l0,0v-19.5c0-1,0.8-1.9,1.9-1.9l0,0h15.4c1,0,1.9,0.8,1.9,1.9l0,0V376&#10;&#9;&#9;C397.6,377,396.7,377.8,395.7,377.8z M382.2,374.1h11.7v-15.8h-11.7V374.1z"/>
	<path class="st0_real-estate-agent-51" d="M388,408c0,0,4.2-6.6-0.6-11.7c-5.5-5.9-16.6-17.3-25-12.9c-5.1,2.7,7.5,15.3,7.5,15.3s-39.8-0.5-48.7,0&#10;&#9;&#9;s16.5,20.4,31,21.4C365.1,421.1,381.2,418.4,388,408z"/>
	<path class="st1_real-estate-agent-51" d="M356.9,422.2c-1.6,0-3.2-0.1-4.8-0.2c-10.8-0.8-34.7-15-34.6-22c0-1.4,1-3,3.6-3.1c7.2-0.4,33.9-0.2,44.5,0&#10;&#9;&#9;c-3-3.4-6.8-8.6-6.3-12.1c0.2-1.3,1-2.4,2.2-3c9.9-5.1,21.6,7.3,27.2,13.3c4.6,4.8,2.5,11.2,0.8,14l0,0&#10;&#9;&#9;C383.2,418.8,369.3,422.2,356.9,422.2z M321.4,400.6c2,4.1,19.4,16.9,31,17.8c12.3,0.9,27.7-1.6,34.1-11.3c0.2-0.4,3.3-5.5-0.4-9.4&#10;&#9;&#9;c-4.6-4.9-15.5-16.4-22.9-12.6c-0.2,0.1-0.2,0.1-0.2,0.3c-0.3,2.1,4,7.9,8.2,12.1c0.7,0.7,0.7,1.9,0,2.6c-0.3,0.3-0.8,0.5-1.3,0.5&#10;&#9;&#9;l0,0C369.5,400.5,330.3,400.1,321.4,400.6L321.4,400.6z M388,408L388,408z M388,408L388,408z"/>
</g>
</svg>