<svg version="1.1" id="Layer_1" xmlns="http://www.w3.org/2000/svg" xmlns:xlink="http://www.w3.org/1999/xlink" x="0px" y="0px" viewBox="0 0 500 500" style="width: 188px;" xml:space="preserve" data-imageid="recycling-43" imageName="Recycling" class="illustrations_image">
<style type="text/css">
	.st0_recycling-43{fill:#FFFFFF;}
	.st1_recycling-43{fill:#093F68;}
	.st2_recycling-43{fill:#70CC40;}
	.st3_recycling-43{fill:#FFBC0E;}
	.st4_recycling-43{fill:#F56132;}
	.st5_recycling-43{fill:#68E1FD;}
	.st6_recycling-43{fill:#FFC9B0;}
	.st7_recycling-43{fill:#725858;}
</style>
<g id="bottle-2_recycling-43">
	<path class="st0_recycling-43" d="M386.3,172.7c-7.3-2.4-22.6-14.1-22.2-22.8h-18c-0.1,7-11,18.3-18.6,21.3c-3.2,1.3-6.6,2.2-10,2.8&#10;&#9;&#9;c-8.6,1.2-14.9,8.6-14.8,17.3v4.2c0,9.7,7.9,17.5,17.5,17.5c0,0,0,0,0,0h70c9.6,0,17.4-7.8,17.5-17.5v-4.2&#10;&#9;&#9;c0-8.8-6.4-16.2-15.1-17.3C390.4,173.8,388.4,173.3,386.3,172.7z"/>
	<path class="st1_recycling-43" d="M390.2,214.6h-70c-10.5,0-19-8.4-19.1-18.9c0,0,0-0.1,0-0.1v-4.2c0-9.4,6.9-17.4,16.2-18.8&#10;&#9;&#9;c3.3-0.5,6.5-1.4,9.6-2.7c7.2-2.9,17.5-13.7,17.7-19.9c0-0.8,0.7-1.5,1.5-1.5c0,0,0,0,0.1,0h18c0.9,0,1.6,0.7,1.6,1.5v0.2&#10;&#9;&#9;c-0.4,7.6,13.9,18.8,21.1,21.2l0,0c2,0.6,4,1,6,1.3c9.4,1.3,16.3,9.3,16.4,18.8v4.2c0,10.5-8.4,19-18.9,19.1&#10;&#9;&#9;C390.3,214.6,390.3,214.6,390.2,214.6z M347.6,151.6c-1.4,7.6-11.8,18.1-19.5,21.2c-3.3,1.3-6.8,2.3-10.3,2.9&#10;&#9;&#9;c-7.7,1.3-13.4,7.9-13.5,15.7v4.2c0,8.7,7.1,15.8,15.8,15.9c0,0,0,0,0,0h70c8.8,0,15.9-7.1,15.9-15.8c0,0,0,0,0,0v-4.2&#10;&#9;&#9;c0-7.9-5.9-14.7-13.8-15.8c-2.2-0.3-4.4-0.7-6.5-1.4l0,0c-6.8-2.2-22-12.9-23.2-22.7L347.6,151.6z"/>
	<path class="st0_recycling-43" d="M312,213.1h86.3c5.2,0,9.3,4.2,9.4,9.4v20.5c0,5.2-4.2,9.3-9.4,9.4H312c-5.2,0-9.3-4.2-9.4-9.4v-20.5&#10;&#9;&#9;C302.6,217.3,306.8,213.1,312,213.1C312,213.1,312,213.1,312,213.1z"/>
	<path class="st1_recycling-43" d="M390.2,253.8h-70c-10.5,0-19-8.4-19.1-18.9c0,0,0-0.1,0-0.1v-4.2c0-10.5,8.4-19,18.9-19.1c0,0,0.1,0,0.1,0h70&#10;&#9;&#9;c10.5,0,19,8.4,19.1,18.9c0,0,0,0.1,0,0.1v4.2C409.2,245.3,400.7,253.8,390.2,253.8z M320.2,214.6c-8.7,0-15.8,7.1-15.9,15.8&#10;&#9;&#9;c0,0,0,0,0,0v4.2c0,8.7,7.1,15.8,15.8,15.9c0,0,0,0,0,0h70c8.7,0,15.8-7.1,15.9-15.8c0,0,0,0,0,0v-4.2c0-8.8-7.1-15.9-15.8-15.9&#10;&#9;&#9;c0,0,0,0,0,0H320.2z"/>
	<path class="st0_recycling-43" d="M312,252.2h86.3c5.2,0,9.3,4.2,9.4,9.4v20.5c0,5.2-4.2,9.3-9.4,9.4H312c-5.2,0-9.3-4.2-9.4-9.4v-20.5&#10;&#9;&#9;C302.7,256.4,306.8,252.2,312,252.2z"/>
	<path class="st1_recycling-43" d="M390.2,293h-70c-10.5,0-19-8.5-19.1-19v-4.2c0-10.5,8.4-19,18.9-19.1c0,0,0.1,0,0.1,0h70&#10;&#9;&#9;c10.5,0,19,8.4,19.1,18.9c0,0,0,0.1,0,0.1v4.2C409.2,284.5,400.7,293,390.2,293z M320.2,253.9c-8.7,0-15.8,7.1-15.9,15.8&#10;&#9;&#9;c0,0,0,0,0,0.1v4.2c0,8.7,7.1,15.8,15.8,15.9c0,0,0,0,0,0h70c8.8,0,15.9-7.1,15.9-15.8c0,0,0,0,0,0v-4.2c0-8.7-7.1-15.8-15.8-15.9&#10;&#9;&#9;c0,0,0,0,0,0L320.2,253.9z"/>
	<path class="st2_recycling-43" d="M341.8,139.4h26.7c1.2,0,2.2,1,2.2,2.2v6.2c0,1.2-1,2.2-2.2,2.2h-26.7c-1.2,0-2.2-1-2.2-2.2v-6.2&#10;&#9;&#9;C339.6,140.4,340.6,139.4,341.8,139.4z"/>
	<path class="st1_recycling-43" d="M366.6,151.6h-22.9c-3.1,0-5.6-2.5-5.6-5.6v-2.4c0-3.1,2.5-5.6,5.6-5.6h22.9c3.1,0,5.6,2.5,5.6,5.6l0,0v2.4&#10;&#9;&#9;C372.2,149.1,369.7,151.6,366.6,151.6C366.6,151.6,366.6,151.6,366.6,151.6z M343.7,141c-1.4,0-2.5,1.1-2.5,2.4c0,0,0,0.1,0,0.1&#10;&#9;&#9;v2.4c0,1.4,1.1,2.5,2.4,2.5c0,0,0.1,0,0.1,0h22.9c1.4,0,2.5-1.1,2.5-2.4c0,0,0-0.1,0-0.1v-2.4c0-1.4-1.1-2.5-2.4-2.5&#10;&#9;&#9;c0,0-0.1,0-0.1,0L343.7,141z"/>
	<path class="st1_recycling-43" d="M392.6,175.6h-75c-0.9-0.1-1.5-0.8-1.5-1.7c0.1-0.8,0.7-1.4,1.5-1.5h75c0.9-0.1,1.7,0.6,1.7,1.5&#10;&#9;&#9;s-0.6,1.7-1.5,1.7C392.7,175.6,392.6,175.6,392.6,175.6z"/>
</g>
<g id="bottle-3_recycling-43">
	<path class="st0_recycling-43" d="M447.9,216.4l-8.4,63.6l-31.8-4.2l8.4-63.6c0.4-2.9,1-5.8,1.8-8.7c1.2-4.3,2.8-8.4,4.8-12.3l5.6-10.8l1.6-12&#10;&#9;&#9;l16.2,2.2l-1.5,11.9l2.5,11.9C448.6,201.6,448.8,209,447.9,216.4L447.9,216.4z"/>
	<path class="st1_recycling-43" d="M439.5,281.6h-0.2l-31.8-4.2c-0.4-0.1-0.8-0.3-1-0.6c-0.2-0.3-0.4-0.8-0.3-1.2l8.4-63.6&#10;&#9;&#9;c1-7.5,3.3-14.8,6.7-21.5l5.6-10.6l1.6-11.6c0.1-0.9,0.9-1.5,1.7-1.4c0,0,0,0,0,0l0,0l16.2,2.2c0.9,0.1,1.4,0.9,1.4,1.8l0,0&#10;&#9;&#9;l-1.5,11.6l2.5,11.6c1.6,7.4,1.9,15,0.9,22.5l0,0l-8.4,63.6C441,281,440.3,281.6,439.5,281.6z M409.5,274.4l28.7,3.8l8.3-62.1&#10;&#9;&#9;c0.4-2.8,0.6-5.7,0.5-8.6c0-4.3-0.5-8.6-1.4-12.8l-2.5-11.9v-0.5l1.4-10.4l-13.1-1.8l-1.4,10.4c0,0.2-0.1,0.4-0.2,0.5l-5.6,10.8&#10;&#9;&#9;c-2,3.8-3.5,7.9-4.7,12c-0.8,2.8-1.4,5.6-1.8,8.5L409.5,274.4z"/>
	<path class="st1_recycling-43" d="M430.1,160.9l17.7,2.4c0.8,0.1,1.4,0.9,1.3,1.7c0,0,0,0,0,0.1l-0.6,4.2c-0.1,0.8-0.9,1.5-1.7,1.4&#10;&#9;&#9;c0,0,0,0-0.1,0l-17.7-2.4c-0.9-0.1-1.5-0.9-1.4-1.7c0,0,0,0,0,0l0.6-4.2C428.4,161.4,429.2,160.8,430.1,160.9&#10;&#9;&#9;C430.1,160.9,430.1,160.9,430.1,160.9z"/>
	<path class="st1_recycling-43" d="M445.9,172.1c-0.2,0-0.4,0-0.6-0.1l-14.9-2c-2.5-0.3-4.3-2.6-4-5.1c0,0,0,0,0,0l0,0l0.2-1.4&#10;&#9;&#9;c0.3-2.5,2.6-4.3,5.1-4c0,0,0.1,0,0.1,0l14.9,1.9c2.5,0.3,4.3,2.6,4,5.1c0,0,0,0,0,0.1l-0.2,1.4C450.1,170.3,448.2,172,445.9,172.1&#10;&#9;&#9;z M431.1,162.6c-0.7,0-1.4,0.5-1.4,1.3l-0.2,1.4c-0.1,0.8,0.5,1.5,1.3,1.6c0,0,0,0,0,0l14.9,2c0.8,0.1,1.5-0.4,1.6-1.2c0,0,0,0,0,0&#10;&#9;&#9;l0.2-1.4c0.1-0.8-0.5-1.5-1.2-1.6c0,0,0,0,0,0l-14.9-2H431.1L431.1,162.6z"/>
	<path class="st3_recycling-43" d="M447.9,216.4l-8.4,63.6l-31.8-4.2l8.4-63.6c0.4-2.9,1-5.8,1.8-8.7l30.6,4.1&#10;&#9;&#9;C448.5,210.5,448.3,213.5,447.9,216.4z"/>
	<path class="st1_recycling-43" d="M439.5,281.6h-0.2l-31.8-4.2c-0.4-0.1-0.8-0.3-1-0.6c-0.2-0.3-0.4-0.8-0.3-1.2l8.4-63.6c0.4-3,1-6,1.9-8.9&#10;&#9;&#9;c0.2-0.8,0.9-1.3,1.7-1.2l30.6,4c0.8,0.1,1.3,0.7,1.4,1.5c0,3-0.2,6.1-0.6,9.1l0,0l-8.4,63.6C441,280.9,440.3,281.5,439.5,281.6z&#10;&#9;&#9; M409.5,274.4l28.7,3.8l8.3-62.1c0.3-2.4,0.5-4.8,0.5-7.2l-27.8-3.7c-0.6,2.4-1.1,4.8-1.4,7.2L409.5,274.4z"/>
</g>
<g id="bottle-1_recycling-43">
	
		<rect x="272" y="155.2" transform="matrix(0.9763 -0.2166 0.2166 0.9763 -28.4949 64.7376)" class="st1_recycling-43" width="18" height="14.2"/>
	<path class="st1_recycling-43" d="M273.8,172.9c-0.7,0-1.4-0.5-1.5-1.3l-3.1-13.9c-0.2-0.8,0.3-1.7,1.2-1.9l17.6-3.9c0.8-0.2,1.7,0.3,1.8,1.2&#10;&#9;&#9;c0,0,0,0,0,0L293,167c0.2,0.8-0.3,1.7-1.2,1.8c0,0,0,0,0,0l-17.6,3.9C274.1,172.8,274,172.9,273.8,172.9z M272.6,158.5l2.4,10.9&#10;&#9;&#9;l14.6-3.2l-2.4-10.9L272.6,158.5z"/>
	<path class="st0_recycling-43" d="M269.1,171.1l26.5-5.9c5.1-1.1,10.2,2.1,11.3,7.2c0,0,0,0,0,0l0,0l17,76.5l0,0l-45,10l0,0l-17-76.5&#10;&#9;&#9;C260.8,177.3,264,172.3,269.1,171.1L269.1,171.1z"/>
	<path class="st1_recycling-43" d="M278.9,260.5c-0.7,0-1.4-0.5-1.5-1.3l-15.2-68.4c-2.3-10.4,4.3-20.7,14.7-23.1l10.3-2.3&#10;&#9;&#9;c10.4-2.3,20.7,4.3,23.1,14.7l15.2,68.4c0.2,0.8-0.3,1.7-1.2,1.8c0,0,0,0,0,0l-45,10.1H278.9z M291.5,168.1c-1.2,0-2.4,0.2-3.5,0.4&#10;&#9;&#9;l-10.4,2.3c-8.7,1.9-14.2,10.6-12.3,19.3c0,0,0,0,0,0l14.8,66.9l42-9.3l-14.8-66.9C305.5,173.5,299,168.2,291.5,168.1L291.5,168.1z&#10;&#9;&#9;"/>
	
		<rect x="266.2" y="184.2" transform="matrix(0.9763 -0.2166 0.2166 0.9763 -36.3572 67.4037)" class="st4_recycling-43" width="46.1" height="30.8"/>
	<path class="st1_recycling-43" d="M270.1,221.2c-0.7,0-1.4-0.5-1.5-1.3l-6.7-30c-0.2-0.8,0.3-1.7,1.2-1.8c0,0,0,0,0,0l0,0l45-10&#10;&#9;&#9;c0.4-0.1,0.8,0,1.2,0.2c0.3,0.2,0.6,0.6,0.7,1l6.7,30c0.2,0.8-0.3,1.7-1.2,1.8c0,0,0,0,0,0l-45,10&#10;&#9;&#9;C270.4,221.1,270.3,221.2,270.1,221.2z M265.4,190.7l6,27l42-9.3l-6-27L265.4,190.7z"/>
</g>
<g id="trash-can_recycling-43">
	<path class="st5_recycling-43 targetColor" d="M250.3,224.6H460c2.3,0,4.2,1.9,4.2,4.2v12.8c0,2.3-1.9,4.2-4.2,4.2H250.3c-2.3,0-4.2-1.9-4.2-4.2v-12.8&#10;&#9;&#9;C246.1,226.4,248,224.6,250.3,224.6z" style="fill: rgb(104, 225, 253);"/>
	<path class="st1_recycling-43" d="M456.2,247.5H254c-5.3,0-9.5-4.3-9.5-9.5v-5.4c0-5.3,4.3-9.5,9.5-9.6h202.2c5.3,0,9.5,4.3,9.5,9.5v5.5&#10;&#9;&#9;C465.7,243.2,461.5,247.5,456.2,247.5z M254,226.2c-3.5,0-6.4,2.9-6.4,6.4c0,0,0,0,0,0v5.4c0,3.5,2.9,6.4,6.4,6.4c0,0,0,0,0,0&#10;&#9;&#9;h202.2c3.5,0,6.4-2.9,6.4-6.4c0,0,0,0,0,0v-5.4c0-3.5-2.9-6.4-6.4-6.4c0,0,0,0,0,0L254,226.2z"/>
	<path class="st5_recycling-43 targetColor" d="M417.6,429.4h-125c-9.3,0-17-6.3-17.6-14.6l-15.2-168.9h190.6l-15.2,168.9&#10;&#9;&#9;C434.5,423.1,426.8,429.4,417.6,429.4z" style="fill: rgb(104, 225, 253);"/>
	<path class="st1_recycling-43" d="M417.6,431h-125c-10,0-18.5-7.1-19.2-16l-15.2-168.9c0-0.4,0.1-0.9,0.4-1.2c0.3-0.3,0.7-0.5,1.2-0.5h190.6&#10;&#9;&#9;c0.4,0,0.9,0.2,1.2,0.5c0.3,0.3,0.4,0.7,0.4,1.2L436.8,415C436,423.9,427.6,431,417.6,431z M261.6,247.5l15,167.2&#10;&#9;&#9;c0.7,7.4,7.8,13.2,16.1,13.2h124.9c8.4,0,15.4-5.8,16.1-13.2l15-167.2L261.6,247.5z"/>
	<g id="OMxHr2_recycling-43">
		<path class="st0_recycling-43" d="M387.8,326.2L357.6,315l10.4-6c-0.8-1.4-1.6-2.8-2.4-4.2c-1.4-2.4-2.8-4.8-4.1-7.2c-1-1.9-2.8-3.3-4.9-3.8&#10;&#9;&#9;&#9;c-2.9-0.6-5.9,0.8-7.3,3.4c-1.6,2.7-3.2,5.5-4.7,8.3l-5.3,9.3c-0.1,0.2-0.2,0.4-0.3,0.5l-14.7-8.4c0.9-1.5,1.8-3,2.6-4.5&#10;&#9;&#9;&#9;c2.5-4.4,5-8.7,7.5-13.1c3.4-5.8,8.2-10,14.8-11.6c10.2-2.4,18.6,0.8,25.1,8.9c1.6,2.2,3,4.5,4.3,6.9c1.3,2.2,2.5,4.4,3.9,6.7&#10;&#9;&#9;&#9;c0.1,0.1,0.2,0.3,0.2,0.4l10.4-6C391.3,305.2,389.6,315.6,387.8,326.2z"/>
		<path class="st1_recycling-43" d="M387.8,327.8c-0.2,0-0.3,0-0.5-0.1l-30.1-11.2c-0.8-0.3-1.2-1.1-0.9-1.9c0,0,0,0,0-0.1&#10;&#9;&#9;&#9;c0.1-0.3,0.4-0.6,0.7-0.9l9-5.2l-5.7-10c-0.8-1.5-2.2-2.6-3.8-3c-2.3-0.5-4.6,0.6-5.6,2.6c-1.1,1.9-2.3,3.9-3.4,5.8l-6.8,11.6&#10;&#9;&#9;&#9;l-0.2,0.3l-0.1,0.2c-0.5,0.7-1.4,0.9-2.1,0.5l-14.7-8.4c-0.8-0.5-1-1.4-0.6-2.2l0,0l4.9-8.5c1.8-3,3.5-6.1,5.2-9.1&#10;&#9;&#9;&#9;c3.8-6.6,9.1-10.7,15.8-12.3c10.7-2.5,19.7,0.7,26.7,9.4c1.3,1.6,2.4,3.3,3.3,5.1c0.3,0.7,0.8,1.3,1.1,1.9c0.9,1.5,1.8,3,2.6,4.5&#10;&#9;&#9;&#9;l0.7,1.2l9-5.2c0.8-0.4,1.7-0.2,2.2,0.6c0.2,0.3,0.2,0.7,0.2,1l-5.3,31.6c-0.1,0.5-0.4,0.9-0.8,1.1&#10;&#9;&#9;&#9;C388.4,327.6,388.1,327.8,387.8,327.8z M361.4,314.7l25.1,9.4l4.5-26.5l-7.5,4.3c-0.7,0.4-1.6,0.2-2.1-0.5l-0.1-0.2&#10;&#9;&#9;&#9;c-0.1-0.1-0.2-0.3-0.2-0.3l-1.3-2.1c-0.9-1.5-1.7-3-2.6-4.5c-0.4-0.7-0.8-1.4-1.2-2c-0.8-1.7-1.8-3.3-3-4.8&#10;&#9;&#9;&#9;c-6.1-7.8-14.2-10.6-23.5-8.4c-5.8,1.4-10.5,5-13.7,10.8c-1.8,3-3.5,6.1-5.2,9.1l-4,7.1l11.8,6.9l6.2-10.8&#10;&#9;&#9;&#9;c1.1-1.9,2.2-3.9,3.4-5.8c1.8-3.2,5.4-4.9,9-4.1c2.5,0.6,4.7,2.2,5.9,4.5l6.6,11.4c0.4,0.8,0.2,1.7-0.6,2.2L361.4,314.7z"/>
		<path class="st0_recycling-43" d="M307.5,335.9l-10.4-6l30.1-11.1l5.3,31.6l-10.4-6c-0.1,0.2-0.3,0.3-0.3,0.5c-2.1,3.6-4.2,7.3-6.2,10.9&#10;&#9;&#9;&#9;c-1.5,2.7-1.7,5.4,0.2,7.9c1.3,1.9,3.4,2.9,5.6,2.8h20.8v17h-20.9c-13,0-23.6-10.5-23.7-23.5c0-0.8,0-1.6,0.1-2.5&#10;&#9;&#9;&#9;c0.3-3.5,1.4-6.9,3.1-10c2.1-3.6,4.1-7.2,6.2-10.9L307.5,335.9z"/>
		<path class="st1_recycling-43" d="M329.3,385h-8.1c-13.9,0-25.2-11.2-25.2-25.1c0,0,0-0.1,0-0.1c0-0.9,0-1.7,0.2-2.6c0.4-3.7,1.5-7.4,3.4-10.6&#10;&#9;&#9;&#9;c1.5-2.5,3-5.1,4.5-7.7l1.4-2.5l-9-5.2c-0.8-0.5-1-1.4-0.6-2.2c0.2-0.3,0.5-0.6,0.8-0.7l30.1-11.2c0.8-0.3,1.7,0.1,2,0.9&#10;&#9;&#9;&#9;c0,0,0,0,0,0c0,0.1,0.1,0.2,0.1,0.2l5.3,31.6c0.2,0.8-0.4,1.6-1.2,1.7c-0.1,0-0.1,0-0.2,0c-0.3,0.1-0.7,0-1-0.2l-9-5.2l-1.3,2.2&#10;&#9;&#9;&#9;c-1.5,2.6-3,5.2-4.5,7.8c-1.4,2.4-1.3,4.3,0.1,6.2c1,1.4,2.6,2.2,4.3,2.1h20.8c0.9,0,1.6,0.7,1.6,1.6l0,0v17&#10;&#9;&#9;&#9;c0,0.9-0.7,1.6-1.6,1.6L329.3,385L329.3,385z M300.8,330.2l7.5,4.3c0.7,0.4,1,1.3,0.6,2.1c0,0,0,0,0,0l-2.2,3.9&#10;&#9;&#9;&#9;c-1.5,2.5-3,5.1-4.4,7.7c-6.2,10.7-2.5,24.5,8.2,30.7c2.6,1.5,5.5,2.5,8.5,2.8c0.8,0.1,1.6,0.1,2.4,0.1h19.2V368h-19.2&#10;&#9;&#9;&#9;c-2.7,0.1-5.3-1.2-6.9-3.5c-2-3-2.1-6.2-0.2-9.7l4.5-7.9l1.8-3l0.2-0.4l0.1-0.2c0.5-0.7,1.4-0.9,2.1-0.5l7.5,4.3l-4.5-26.5&#10;&#9;&#9;&#9;L300.8,330.2z"/>
		<path class="st0_recycling-43" d="M375.6,395.3l-24.7-20.4l24.7-20.4v12h13.3c2.2,0.1,4.3-0.9,5.7-2.6c1.8-2.2,2.1-5.3,0.5-7.8&#10;&#9;&#9;&#9;c-2-3.5-4-6.9-6-10.4c-1.4-2.5-2.8-4.8-4.1-7.3c-0.1-0.1-0.1-0.2-0.2-0.4l14.7-8.4l1.4,2.4c3,5.3,6.2,10.6,9.2,16&#10;&#9;&#9;&#9;c6.4,11.4,2.3,25.9-9.2,32.3c-2.9,1.6-6.2,2.6-9.5,2.9c-1.7,0.1-3.4,0.2-5.1,0.2h-10.1c-0.5,0-0.7,0.1-0.7,0.7L375.6,395.3&#10;&#9;&#9;&#9;L375.6,395.3z"/>
		<path class="st1_recycling-43" d="M375.6,396.9c-0.4,0-0.7-0.1-1-0.3l-24.7-20.4c-0.4-0.3-0.6-0.8-0.6-1.3c0-0.5,0.2-0.9,0.6-1.2l24.6-20.5&#10;&#9;&#9;&#9;c0.6-0.5,1.6-0.5,2.1,0.2c0,0,0,0.1,0.1,0.1c0.2,0.3,0.4,0.6,0.3,1v10.4h11.7c1.7,0.1,3.4-0.6,4.5-2c1.4-1.7,1.6-4.1,0.4-6&#10;&#9;&#9;&#9;l-4.1-7.2l-6.3-11c-0.4-0.7-0.2-1.7,0.6-2.1c0,0,0,0,0,0l14.7-8.4c0.7-0.4,1.7-0.2,2.1,0.5c0,0,0,0,0,0.1l4.2,7.2&#10;&#9;&#9;&#9;c2.1,3.7,4.3,7.4,6.4,11.1c6,10.4,3.7,23.6-5.5,31.4c-4,3.5-9,5.7-14.3,6.2c-1.5,0.1-3.1,0.2-4.6,0.2h-9.7v10.5&#10;&#9;&#9;&#9;c0,0.6-0.4,1.2-0.9,1.4C376,396.9,375.8,396.9,375.6,396.9z M353.3,374.8L374,392v-8c0-1.1,0.8-2.1,1.9-2.3H387&#10;&#9;&#9;&#9;c1.5,0,2.9,0,4.4-0.2c4.7-0.4,9.1-2.3,12.6-5.4c8-6.8,10-18.3,4.8-27.4c-2.1-3.7-4.2-7.4-6.3-11l-3.5-5.9l-11.9,6.9l5.4,9.5&#10;&#9;&#9;&#9;c1.4,2.4,2.8,4.7,4.1,7.2c1.8,3,1.6,6.8-0.7,9.5c-1.7,2.1-4.3,3.2-7,3.1h-13.3c-0.8-0.1-1.5-0.8-1.5-1.6v-8.6L353.3,374.8z"/>
	</g>
	<path class="st1_recycling-43" d="M458.3,431H42.9c-0.9,0-1.6-0.7-1.6-1.6s0.7-1.6,1.6-1.6h415.3c0.9,0,1.6,0.7,1.6,1.6&#10;&#9;&#9;C459.8,430.2,459.1,431,458.3,431L458.3,431L458.3,431z"/>
</g>
<g id="character_recycling-43">
	<g id="character-2_recycling-43">
		<path class="st6_recycling-43" d="M197.2,250.2c0,0,18.1,6,20.1,9.7s3.8,10.1,2.4,12.7s-3.9,5.2-6.5,4.1s-5.1-2.9-8.4-4s-16-6.5-16-6.5&#10;&#9;&#9;&#9;L197.2,250.2z"/>
		<path class="st1_recycling-43" d="M214.5,279.1c-0.7,0-1.4-0.1-2-0.4c-1.1-0.5-2.2-1-3.3-1.6c-1.6-0.9-3.3-1.7-5-2.3&#10;&#9;&#9;&#9;c-3.4-1.1-15.7-6.3-16.2-6.6c-0.5-0.2-1-0.7-1.2-1.2c-0.2-0.6-0.2-1.2,0.1-1.7l8.3-16c0.5-0.9,1.6-1.3,2.6-1&#10;&#9;&#9;&#9;c4.4,1.5,19,6.6,21.3,10.6c1.9,3.3,4.5,10.9,2.5,14.7C219.8,277.1,217.1,279.1,214.5,279.1z M191.8,265.1&#10;&#9;&#9;&#9;c3.7,1.6,11.3,4.8,13.7,5.5c2,0.7,3.9,1.5,5.7,2.6c1,0.5,2,1.1,2.9,1.5c1.1,0.5,2.8-1.3,3.8-3.2c0.8-1.4-0.3-6.9-2.4-10.6&#10;&#9;&#9;&#9;c-1-1.6-9.4-5.4-17.2-8.1L191.8,265.1z"/>
		<path class="st1_recycling-43" d="M107.3,294c13.1,2.1,26.4-2.4,35.7-11.9l-8-28.3l-37.4,5.8C97.6,259.6,84.8,290.6,107.3,294z"/>
		<path class="st1_recycling-43" d="M89.1,402.1l-17-21.3c34.1-25,54.8-44.1,57.7-52.9c2.3-7-19.6-36.4-28.1-65.9l44.4-3.7&#10;&#9;&#9;&#9;c4.3,14.9,12.8,66,6.4,85.6C146.4,362.5,103.7,390.8,89.1,402.1z"/>
		<path class="st1_recycling-43" d="M89.1,404.3c-0.6,0-1.3-0.3-1.7-0.8l-17-21.3c-0.4-0.5-0.5-1-0.4-1.6c0.1-0.6,0.4-1.1,0.9-1.4&#10;&#9;&#9;&#9;c32.9-24,54.1-43.4,56.9-51.9c0.8-2.5-4.2-12.1-9.1-21.4c-6.5-12.4-14.6-27.7-19-43.3c-0.2-0.6-0.1-1.3,0.3-1.8&#10;&#9;&#9;&#9;c0.4-0.5,0.9-0.9,1.6-0.9l44.5-3.7c1-0.1,1.9,0.6,2.2,1.5c3.8,13.2,13.2,66,6.4,86.8c-5.2,16-34.8,37.6-54.3,52&#10;&#9;&#9;&#9;c-3.9,2.9-7.3,5.4-9.9,7.3C90.1,404.1,89.6,404.3,89.1,404.3z M75.2,381.3l14.3,18c2.3-1.8,5.1-3.8,8.3-6.1&#10;&#9;&#9;&#9;c17.9-13.1,47.9-35.1,52.8-49.9c6-18.3-1.8-66.5-6-82.7l-40.1,3.4c4.5,14.4,11.9,28.5,18,40c7.2,13.8,10.7,20.6,9.4,24.6&#10;&#9;&#9;&#9;C127.7,341,95.4,366.4,75.2,381.3L75.2,381.3z"/>
		<polygon class="st1_recycling-43" points="133.5,412.4 83.2,268 106.3,252.8 160.3,406.6 &#9;&#9;"/>
		<path class="st1_recycling-43" d="M133.5,414.6c-0.9,0-1.7-0.6-2-1.4L81.2,268.7c-0.3-0.9,0-1.9,0.8-2.5l23.1-15.2c0.5-0.4,1.2-0.4,1.8-0.2&#10;&#9;&#9;&#9;c0.6,0.2,1.1,0.7,1.3,1.3l54,153.7c0.4,1.1-0.2,2.3-1.3,2.7c-0.1,0-0.2,0-0.2,0.1l-26.8,5.9C133.8,414.5,133.7,414.6,133.5,414.6z&#10;&#9;&#9;&#9; M85.8,268.9l49.2,141l22.6-4.9l-52.3-148.9L85.8,268.9z"/>
		<path class="st5_recycling-43 targetColor" d="M148.9,195.5c-5.9-10.5-8.3-15-18.2-15h-27c-11.3,0-20.5,9.2-20.5,20.5v67h68v-22.3&#10;&#9;&#9;&#9;c12.6,15.2,29.4,28.7,50.1,31.6l3.9-27.1C178.5,246.4,158.7,213.2,148.9,195.5z" style="fill: rgb(104, 225, 253);"/>
		<path class="st1_recycling-43" d="M201.3,279.5H201c-16.9-2.4-32.9-11.8-47.7-28V268c0,1.2-1,2.1-2.1,2.1c0,0,0,0,0,0h-68&#10;&#9;&#9;&#9;c-1.2,0-2.1-0.9-2.1-2.1c0,0,0,0,0,0v-67c0-12.5,10.2-22.7,22.7-22.7h27c11,0,14,5.3,19.9,15.8l0.2,0.3l0,0&#10;&#9;&#9;&#9;c6.8,12.3,27.3,49.7,54.7,53.6c1.2,0.2,2,1.2,1.8,2.4c0,0,0,0,0,0l-3.9,27.1C203.3,278.6,202.4,279.4,201.3,279.5L201.3,279.5z&#10;&#9;&#9;&#9; M151.2,243.6c0.6,0,1.2,0.3,1.6,0.8c14.4,17.3,30.1,27.6,46.7,30.5l3.3-22.9c-28.4-5.7-48.9-42.9-55.7-55.4l-0.2-0.3&#10;&#9;&#9;&#9;c-5.7-10.2-7.7-13.7-16.2-13.7h-27c-10.1,0-18.4,8.2-18.4,18.4v64.9h63.8v-20.2c0-0.9,0.6-1.7,1.4-2&#10;&#9;&#9;&#9;C150.8,243.6,151,243.6,151.2,243.6L151.2,243.6z"/>
		<path class="st1_recycling-43" d="M151.1,251.3c-1.2,0-2.1-1-2.1-2.1v-33c0.1-1.2,1.1-2.1,2.3-2c1.1,0.1,1.9,0.9,2,2v33&#10;&#9;&#9;&#9;C153.3,250.3,152.3,251.3,151.1,251.3C151.1,251.3,151.1,251.3,151.1,251.3z"/>
		<path class="st7_recycling-43" d="M110.3,60.6c5-1.5,10.5-0.8,15.7,0.4c5.8,1.3,11.7,3,17.6,2.5s12.1-3.9,13.7-9.6c5.9,6.8,7.3,16.5,7.1,25.6&#10;&#9;&#9;&#9;c0,2.6-0.3,5.2-0.9,7.8c-0.7,2.4-1.6,4.6-2.6,6.8c-1.5,3.3-3.3,6.3-3.3,9.9c-0.1,4.2-0.6,8.5-1.5,12.6c-1.6,9.3-3.9,18.5-5.8,27.8&#10;&#9;&#9;&#9;H70.6c0,0-2.3-19.4-2.3-35.6s7.2-37.8,27-33.4c0.7-2.3,1.8-4.4,3.4-6.2c2.7-3.3,5.8-6.4,9.7-8C109,61,109.6,60.8,110.3,60.6z"/>
		<path class="st1_recycling-43" d="M150.2,146.5H70.6c-1.1,0-2-0.8-2.1-1.9c0-0.2-2.3-19.7-2.3-35.8C66.2,98,69.3,84,78,77&#10;&#9;&#9;&#9;c4.4-3.6,10.2-5,15.8-4c0.8-1.8,1.9-3.6,3.2-5.1c2.2-2.7,5.7-6.6,10.5-8.6c0.7-0.3,1.4-0.6,2.1-0.8l0,0c5.7-1.7,11.9-0.7,16.7,0.3&#10;&#9;&#9;&#9;l3,0.7c4.8,1.1,9.3,2.2,13.9,1.8s10.4-3.1,11.9-8.1c0.2-0.8,0.8-1.3,1.6-1.5c0.8-0.2,1.6,0.1,2.1,0.7c5.4,6.2,7.8,15,7.6,27&#10;&#9;&#9;&#9;c0,2.8-0.3,5.6-0.9,8.3c-0.7,2.5-1.6,4.9-2.8,7.2c-0.3,0.6-0.6,1.2-0.8,1.8c-1.2,2.6-2.3,4.8-2.3,7.3c-0.1,4.3-0.6,8.5-1.4,12.7&#10;&#9;&#9;&#9;L158,117c-1.1,6.2-2.4,12.3-3.8,18.3c-0.7,3.2-1.4,6.4-2.1,9.5C152,145.8,151.2,146.5,150.2,146.5z M72.5,142.3h76&#10;&#9;&#9;&#9;c0.6-2.6,1.1-5.3,1.7-7.9c1.3-5.9,2.7-12.1,3.7-18.1l0.1-0.3c0.8-3.9,1.3-7.9,1.4-11.9c0-3.5,1.4-6.3,2.7-9.1&#10;&#9;&#9;&#9;c0.3-0.6,0.5-1.1,0.8-1.7c1-2.1,1.9-4.3,2.5-6.5c0.5-2.4,0.8-4.9,0.8-7.3c0.2-9.1-1.3-16.2-4.5-21.4c-3,4.7-8.8,7.1-14,7.6&#10;&#9;&#9;&#9;s-10.3-0.7-15.2-1.9l-3-0.7c-4.3-0.9-9.8-1.8-14.6-0.4l0,0c-0.6,0.2-1.1,0.4-1.7,0.6c-3,1.3-5.8,3.6-8.8,7.4&#10;&#9;&#9;&#9;c-1.4,1.5-2.4,3.3-3,5.3c-0.3,1.1-1.4,1.9-2.5,1.6c0,0,0,0,0,0c-5.6-1.2-10.3-0.3-14.2,2.8c-7.6,6.1-10.3,19.2-10.3,28.5&#10;&#9;&#9;&#9;C70.4,121.8,71.9,137,72.5,142.3L72.5,142.3z M110.3,60.6L110.3,60.6z"/>
		<path class="st6_recycling-43" d="M112.6,177h14.8l0,0v11.4c0,1.8-1.5,3.3-3.3,3.3l0,0h-8.1c-1.8,0-3.3-1.5-3.3-3.3l0,0V177L112.6,177z"/>
		<path class="st1_recycling-43" d="M121.1,193.9h-2.2c-4.6,0-8.4-3.8-8.4-8.4V177c0-1.2,0.9-2.1,2.1-2.1c0,0,0,0,0,0h14.8c1.2,0,2.1,0.9,2.1,2.1&#10;&#9;&#9;&#9;c0,0,0,0,0,0v8.5C129.5,190.1,125.7,193.9,121.1,193.9z M114.7,179.1v6.4c0,2.3,1.9,4.1,4.2,4.1h2.2c2.3,0,4.1-1.9,4.2-4.1v-6.4&#10;&#9;&#9;&#9;H114.7z"/>
		<ellipse class="st6_recycling-43" cx="158.2" cy="140.2" rx="11.1" ry="12.4"/>
		<path class="st1_recycling-43" d="M158.2,154.7c-7.3,0-13.2-6.5-13.2-14.5s5.9-14.5,13.2-14.5s13.2,6.5,13.2,14.5S165.5,154.7,158.2,154.7z&#10;&#9;&#9;&#9; M158.2,130c-4.9,0-8.9,4.6-8.9,10.2s4,10.2,8.9,10.2s8.9-4.6,8.9-10.2S163.1,130,158.2,130L158.2,130z"/>
		<path class="st6_recycling-43" d="M119.5,180.5c-24.3,0-46-30-46-53.9l5.8,2.2l-0.2-16.9c0,0,30.4-8,26.4-22.2c0,0,8.9,10.6,21.8,10.6&#10;&#9;&#9;&#9;C150.8,100.2,160,94,160,94v43.2C160,161.1,143.8,180.5,119.5,180.5z"/>
		<path class="st1_recycling-43" d="M119.5,182.6c-25.5,0-48.1-31.3-48.1-56c0-1.2,0.9-2.1,2.1-2.1c0.3,0,0.5,0,0.8,0.1l2.9,1.1L77,111.9&#10;&#9;&#9;&#9;c0-1,0.6-1.8,1.6-2.1c0.2,0,19.2-5.2,24.1-13.8c1.1-1.7,1.3-3.8,0.8-5.7c-0.4-1.1,0.2-2.3,1.4-2.7c0.8-0.3,1.8,0,2.3,0.7&#10;&#9;&#9;&#9;c0.1,0.1,8.4,9.8,20.1,9.8l0,0c22.4-0.1,31.5-5.9,31.6-5.9c0.7-0.4,1.5-0.5,2.2-0.1c0.7,0.4,1.1,1.1,1.1,1.9v43.2&#10;&#9;&#9;&#9;C162.2,163.5,144.2,182.6,119.5,182.6z M75.7,129.8c1.8,26.1,25.2,48.6,43.8,48.6c22.3,0,38.4-17.3,38.4-41.1V97.4&#10;&#9;&#9;&#9;c-4.6,2-14.3,4.9-30.7,5h-0.1c-8.6,0-15.5-4.3-19.5-7.6c-0.3,1.2-0.7,2.3-1.3,3.4c-4.9,8.6-20.1,13.8-25.1,15.3l0.2,15.3&#10;&#9;&#9;&#9;c0,0.7-0.3,1.4-0.9,1.8c-0.6,0.4-1.3,0.5-2,0.2L75.7,129.8z"/>
		<ellipse class="st1_recycling-43" cx="108.6" cy="131.8" rx="4" ry="4"/>
		<circle class="st1_recycling-43" cx="147.1" cy="131.8" r="4"/>
		<path class="st1_recycling-43" d="M129.9,143.7c-1.3,0-2.7-0.1-4-0.3c-1.2-0.1-2-1.2-1.9-2.4s1.2-2,2.4-1.9c0.1,0,0.2,0,0.2,0&#10;&#9;&#9;&#9;c1.6,0.3,3.3,0.3,4.9,0.2c-0.7-2.9-1.8-5.7-3.2-8.3c-0.6-1-0.2-2.3,0.9-2.9c1-0.6,2.3-0.2,2.9,0.9c1.8,3.5,4.7,9.7,3.4,12.5&#10;&#9;&#9;&#9;c-0.4,0.9-1.1,1.5-2,1.7C132.3,143.6,131.1,143.7,129.9,143.7z"/>
		<path class="st1_recycling-43" d="M93.7,125.4c-2.3,0-4.3-1.9-4.3-4.2c0-2.1,1.5-3.8,3.5-4.2l18.8-3.6c2.3-0.4,4.5,1.1,5,3.4s-1.1,4.5-3.4,5&#10;&#9;&#9;&#9;l-18.8,3.6C94.3,125.4,94,125.4,93.7,125.4z"/>
		<path class="st1_recycling-43" d="M151.2,121.9h-0.2L132,121c-2.3-0.2-4.1-2.2-4-4.5c0.1-2.3,2.1-4,4.3-4l19.1,0.8c2.3,0.1,4.2,2,4.2,4.3&#10;&#9;&#9;&#9;S153.6,121.9,151.2,121.9L151.2,121.9z"/>
		<path class="st6_recycling-43" d="M82.2,129.7c0,0-10.6-7.3-16.3,2.1s-0.2,25.5,17.3,20.8"/>
		<path class="st1_recycling-43" d="M77.4,155.5c-5.3,0-9.7-2-12.5-5.8c-4-5.6-4.3-13.1-0.7-19c1.6-2.8,4.2-4.9,7.4-5.6&#10;&#9;&#9;&#9;c5.9-1.3,11.7,2.7,11.9,2.8c0.9,0.7,1.1,2.1,0.4,3c-0.7,0.9-1.9,1.1-2.8,0.5l0,0c0,0-4.5-3.1-8.6-2.2c-2,0.5-3.7,1.8-4.6,3.6&#10;&#9;&#9;&#9;c-2.6,4.4-2.5,10,0.5,14.3c2.9,3.9,8.1,5.1,14.4,3.4c1.1-0.3,2.3,0.4,2.6,1.5c0.3,1.1-0.4,2.3-1.5,2.6&#10;&#9;&#9;&#9;C81.7,155.2,79.5,155.5,77.4,155.5z"/>
		<path class="st1_recycling-43" d="M125.1,162.3c-1.5,0-3-0.2-4.4-0.5c-5.7-1.3-10.4-5.2-13.9-11.6c-0.6-1-0.2-2.3,0.8-2.9s2.3-0.2,2.9,0.8&#10;&#9;&#9;&#9;c2.9,5.2,6.7,8.4,11.2,9.5c7.5,1.8,14.9-3.1,15-3.2c1-0.6,2.3-0.3,2.9,0.7c0.6,0.9,0.3,2.1-0.5,2.8&#10;&#9;&#9;&#9;C134.8,160.7,130,162.2,125.1,162.3z"/>
		<path class="st5_recycling-43 targetColor" d="M133.5,412.4l5.7,17l44.5-14.6c0.8-0.3,1.2-1.1,0.9-1.9c-0.2-0.5-0.6-0.8-1-1l-25.9-6.6L133.5,412.4z" style="fill: rgb(104, 225, 253);"/>
		<path class="st1_recycling-43" d="M139.2,431.6c-0.9,0-1.7-0.6-2-1.5l-5.7-17c-0.2-0.5-0.1-1.1,0.1-1.7c0.3-0.5,0.7-0.9,1.3-1.1l24.1-7&#10;&#9;&#9;&#9;c0.4-0.1,0.7-0.1,1.1,0l25.9,6.6c2,0.5,3.2,2.4,2.7,4.4c-0.3,1.3-1.2,2.3-2.5,2.6l-44.5,14.6C139.7,431.6,139.4,431.6,139.2,431.6&#10;&#9;&#9;&#9;z M136.2,413.9l4.3,13l40.5-13.3l-23.3-5.9L136.2,413.9z"/>
		<path class="st5_recycling-43 targetColor" d="M72.1,380.8l-13.5,12.3l32.7,34.1c0.4,0.4,1.1,0.4,1.5,0c0.2-0.2,0.4-0.6,0.3-0.9l-2.8-27.9L72.1,380.8z" style="fill: rgb(104, 225, 253);"/>
		<path class="st1_recycling-43" d="M92.1,429.7c-0.9,0-1.7-0.4-2.3-1l-32.7-34.1c-0.8-0.9-0.8-2.2,0.1-3c0,0,0,0,0,0l13.5-12.3&#10;&#9;&#9;&#9;c0.8-0.8,2.1-0.8,2.9,0l18.3,17.7c0.4,0.4,0.6,0.8,0.6,1.3l2.8,27.9c0.2,1.4-0.6,2.7-1.8,3.2C93,429.5,92.6,429.7,92.1,429.7z&#10;&#9;&#9;&#9; M61.7,393.2l29.1,30.4l-2.4-24.1l-16.3-15.7L61.7,393.2z"/>
		<path class="st6_recycling-43" d="M58,282.9c0,0,0.6,19-2.1,22.2s-8.2,7.1-11,6.7s-6.3-1.8-6.1-4.6s1-5.8,0.8-9.3s0.5-17.3,0.5-17.3L58,282.9z"/>
		<path class="st1_recycling-43" d="M36.6,307.6c0-0.2,0-0.3,0-0.5c0.1-1.2,0.2-2.4,0.4-3.6c0.3-1.8,0.5-3.6,0.4-5.4c-0.2-3.6,0.5-16.9,0.5-17.5&#10;&#9;&#9;&#9;c0-0.6,0.3-1.1,0.8-1.5c0.5-0.4,1.1-0.6,1.6-0.5l17.9,2.3c1,0.1,1.8,1,1.9,2c0.2,4.6,0.4,20.1-2.5,23.7c-2.4,2.9-8.7,8-12.9,7.4&#10;&#9;&#9;&#9;C39.8,313.3,36.8,310.8,36.6,307.6z M42.1,283c-0.2,4-0.5,12.3-0.4,14.8c0.1,2.1-0.1,4.2-0.5,6.2c-0.2,1.1-0.3,2.1-0.4,3.2&#10;&#9;&#9;&#9;c-0.1,1.2,2.2,2.1,4.3,2.4c1.6,0.2,6.4-2.7,9.1-6c1.2-1.5,1.8-10.6,1.6-19L42.1,283z"/>
		<path class="st5_recycling-43 targetColor" d="M110,205.1c-12.5,7.9-41.7,31.7-48.4,84.4l-27.3-1.1c0,0,0-1.6,0.1-2.4c7.7-61,41.4-91,59.1-102.9" style="fill: rgb(104, 225, 253);"/>
		<path class="st1_recycling-43" d="M32.2,288.5L32.2,288.5c0-0.3,0-1.8,0.1-2.7c7.8-61.1,41-91.6,60.1-104.4c0.9-0.7,2.3-0.5,3,0.4&#10;&#9;&#9;&#9;c0.7,0.9,0.5,2.3-0.4,3c-0.1,0-0.1,0.1-0.2,0.1c-18.5,12.3-50.7,41.9-58.2,101.4c0,0,0,0,0,0.1l23.2,0.9&#10;&#9;&#9;&#9;c7.3-52.3,36.7-76.1,49.1-84c1-0.6,2.3-0.2,2.9,0.8c0.5,1,0.3,2.2-0.6,2.8c-12.1,7.6-40.8,31-47.4,82.8c-0.1,1.1-1.1,1.9-2.2,1.9&#10;&#9;&#9;&#9;l-27.3-1.1C33.1,290.4,32.3,289.6,32.2,288.5z"/>
		<path class="st0_recycling-43" d="M144.2,357.3c-0.5,0-0.9-0.3-1-0.7l-28.8-82.1c-0.3-0.5-0.1-1.2,0.5-1.4s1.2-0.1,1.4,0.5&#10;&#9;&#9;&#9;c0,0.1,0.1,0.2,0.1,0.3l28.8,82.1c0.2,0.6-0.1,1.2-0.6,1.4C144.4,357.3,144.3,357.3,144.2,357.3z"/>
	</g>
	<g id="bottle-1-2_recycling-43">
		
			<rect x="202.5" y="197.7" transform="matrix(0.3148 -0.9492 0.9492 0.3148 -52.5931 340.5456)" class="st1_recycling-43" width="14.2" height="18.1"/>
		<path class="st1_recycling-43" d="M198,212c-0.6-0.4-0.9-1.2-0.6-1.9l4.5-13.5c0.3-0.8,1.1-1.3,1.9-1c0,0,0,0,0.1,0l17.1,5.7&#10;&#9;&#9;&#9;c0.8,0.3,1.3,1.1,1,2c0,0,0,0,0,0l-4.5,13.5c-0.3,0.8-1.1,1.3-2,1c0,0,0,0,0,0l-17.2-5.7C198.2,212.1,198.1,212.1,198,212z&#10;&#9;&#9;&#9; M204.3,199.1l-3.6,10.6l14.2,4.7l3.6-10.6L204.3,199.1z"/>
		<path class="st0_recycling-43" d="M194.8,208.1l25.8,8.5c5,1.7,7.7,7,6,12l0,0L201.9,303l0,0l-43.8-14.5l0,0l24.7-74.4&#10;&#9;&#9;&#9;C184.5,209.2,189.8,206.5,194.8,208.1L194.8,208.1z"/>
		<path class="st1_recycling-43" d="M157.4,289.8c-0.6-0.4-0.9-1.2-0.7-1.9l22.1-66.5c3.4-10.1,14.3-15.6,24.4-12.3l10,3.3&#10;&#9;&#9;&#9;c10.1,3.4,15.6,14.3,12.3,24.4l-22.1,66.5c-0.3,0.8-1.1,1.3-1.9,1c0,0,0,0-0.1,0L157.7,290L157.4,289.8z M215.5,217&#10;&#9;&#9;&#9;c-1-0.6-2.1-1.1-3.2-1.5l-10.1-3.4c-8.5-2.8-17.6,1.8-20.5,10.2c0,0,0,0,0,0l-21.6,65L201,301l21.6-65&#10;&#9;&#9;&#9;C224.9,228.8,222,221,215.5,217L215.5,217z"/>
		
			<rect x="182.2" y="219.8" transform="matrix(0.3148 -0.9492 0.9492 0.3148 -95.1476 353.9053)" class="st5_recycling-43 targetColor" width="30.8" height="46.1" style="fill: rgb(104, 225, 253);"/>
		<path class="st1_recycling-43" d="M170,251.6c-0.6-0.4-0.9-1.2-0.7-1.9l9.7-29.2c0.3-0.8,1.2-1.3,2-1c0,0,0,0,0,0l0,0l43.8,14.5&#10;&#9;&#9;&#9;c0.4,0.1,0.7,0.4,0.9,0.8c0.2,0.4,0.2,0.8,0.1,1.2l-9.7,29.2c-0.2,0.8-1.1,1.3-1.9,1c0,0-0.1,0-0.1,0l-43.8-14.5&#10;&#9;&#9;&#9;C170.3,251.6,170.1,251.7,170,251.6z M181.6,223l-8.7,26.2l40.8,13.6l8.7-26.2L181.6,223z"/>
	</g>
</g>
</svg>