<svg xmlns="http://www.w3.org/2000/svg" viewBox="0 0 500 500"><g id="freepik--background-complete--inject-593"><path d="M423.47,198.68c.66-4.8-6.11-8.75-11.2-9.16-2.43-.2-4.95,.18-7.25-.63-4.98-1.74-6.97-8.17-11.83-10.22-3.63-1.53-7.82-.17-11.34,1.6-3.52,1.77-7,4-10.94,4.26-3.42,.22-7.14-1.05-10.14,.62-2.23,1.25-3.4,3.82-5.46,5.34-2.01,1.48-4.64,1.8-7.14,1.93-2.5,.14-5.08,.16-7.36,1.2-2.27,1.04-4.16,3.45-3.68,5.9l86.33-.85Z" style="fill:#ebebeb;"></path><path d="M430.99,60c.6-4.39-5.6-8.01-10.25-8.38-2.22-.18-4.53,.16-6.63-.57-4.56-1.59-6.38-7.48-10.83-9.36-3.33-1.4-7.16-.15-10.38,1.47-3.23,1.62-6.41,3.67-10.02,3.9-3.13,.2-6.54-.96-9.28,.57-2.04,1.14-3.11,3.5-5,4.88-1.84,1.36-4.25,1.65-6.53,1.77-2.29,.12-4.65,.15-6.73,1.1-2.08,.95-3.8,3.15-3.37,5.4l79.04-.78Z" style="fill:#f5f5f5;"></path><path d="M193.59,56.2c.6-4.39-5.6-8.01-10.25-8.38-2.22-.18-4.53,.16-6.63-.57-4.56-1.59-6.38-7.48-10.83-9.36-3.33-1.4-7.16-.15-10.38,1.47-3.23,1.62-6.41,3.67-10.02,3.9-3.13,.2-6.54-.96-9.28,.57-2.04,1.14-3.11,3.5-5,4.88-1.84,1.36-4.25,1.65-6.53,1.77-2.29,.12-4.65,.15-6.73,1.1-2.08,.95-3.8,3.15-3.37,5.4l79.04-.78Z" style="fill:#f5f5f5;"></path><path d="M299.17,149.21c.83-6.05-7.71-11.03-14.12-11.55-3.06-.25-6.24,.22-9.14-.79-6.28-2.19-8.79-10.3-14.92-12.89-4.58-1.93-9.86-.21-14.3,2.02s-8.83,5.05-13.79,5.37c-4.32,.28-9-1.32-12.78,.78-2.81,1.57-4.29,4.81-6.88,6.73-2.54,1.87-5.85,2.27-9,2.44-3.15,.17-6.41,.2-9.27,1.52-2.87,1.31-5.24,4.34-4.64,7.44l108.85-1.07Z" style="fill:#f5f5f5;"></path><path d="M373.15,114.72c.44-3.18-4.05-5.79-7.42-6.06-1.61-.13-3.28,.12-4.8-.41-3.3-1.15-4.62-5.41-7.84-6.77-2.41-1.02-5.18-.11-7.51,1.06-2.33,1.17-4.64,2.65-7.25,2.82-2.27,.15-4.73-.7-6.71,.41-1.48,.83-2.25,2.53-3.62,3.53-1.33,.98-3.07,1.19-4.73,1.28-1.65,.09-3.37,.11-4.87,.8-1.51,.69-2.75,2.28-2.44,3.91l57.18-.56Z" style="fill:#f5f5f5;"></path><rect x="14.89" y="421.42" width="475.29" height="62.1" style="fill:#ebebeb;"></rect><g><rect x="53.29" y="454.58" width="41.97" height="11.1" style="fill:#e0e0e0;"></rect><path d="M77.51,477.38s0-.07-.01-.2c0-.15,0-.34-.01-.57,0-.52-.02-1.25-.03-2.18-.02-1.92-.04-4.67-.07-8.15l.13,.13c-9.58,.02-24.82,.05-41.97,.08,.09-.1-.22,.21,.21-.21h0v1.42c0,.47,0,.95,0,1.42v2.8c0,1.85,0,3.68,0,5.46l-.21-.21c11.95,.04,22.41,.07,29.91,.1,3.74,.03,6.73,.05,8.83,.06,1.02,.01,1.82,.02,2.39,.03,.26,0,.46,.01,.62,.01,.14,0,.22,0,.22,.01,0,0-.06,0-.19,.01h-.6c-.56,.02-1.34,.03-2.34,.04-2.08,.01-5.06,.03-8.78,.06-7.54,.02-18.05,.06-30.05,.1h-.21v-.21c0-1.79,0-3.61,0-5.46,0-.93,0-1.86,0-2.8v-2.82h0v-.02h0c.43-.43,.12-.12,.22-.22,17.14,.03,32.38,.06,41.97,.08h.13v.13c-.03,3.51-.06,6.29-.07,8.22-.01,.92-.02,1.64-.03,2.16,0,.22,0,.4-.01,.55,0,.12,0,.18-.01,.18Z" style="fill:#e0e0e0;"></path></g><g><rect x="384.83" y="452.1" width="41.97" height="11.1" style="fill:#e0e0e0;"></rect><path d="M409.05,474.89s0-.07-.01-.2c0-.15,0-.34-.01-.57,0-.52-.02-1.25-.03-2.18-.02-1.92-.04-4.67-.07-8.15l.13,.13c-9.58,.02-24.82,.05-41.97,.08,.09-.1-.22,.21,.21-.21h0v1.42c0,.47,0,.95,0,1.42,0,.94,0,1.88,0,2.8,0,1.85,0,3.68,0,5.46l-.21-.21c11.95,.04,22.41,.07,29.91,.1,3.74,.03,6.73,.05,8.83,.06,1.02,.01,1.82,.02,2.39,.03h.62c.14,.02,.22,.02,.22,.03,0,0-.06,0-.19,.01h-.6c-.56,.02-1.34,.03-2.34,.04-2.08,.01-5.06,.03-8.78,.06-7.54,.02-18.05,.06-30.05,.1h-.21v-.21c0-1.79,0-3.61,0-5.46,0-.93,0-1.86,0-2.8v-2.82h0v-.02h0c.43-.43,.12-.12,.22-.22,17.14,.03,32.38,.06,41.97,.08h.13v.13c-.03,3.51-.06,6.29-.07,8.22-.01,.92-.02,1.64-.03,2.16,0,.22,0,.4-.01,.55,0,.12,0,.18-.01,.18Z" style="fill:#e0e0e0;"></path></g><g><path d="M243.34,474.94s0-.07-.01-.2c0-.15,0-.34-.01-.57,0-.52-.02-1.25-.03-2.18-.02-1.92-.04-4.67-.07-8.15l.13,.13c-9.58,.02-24.82,.05-41.97,.08,.09-.1-.22,.21,.21-.21h0v1.42c0,.47,0,.95,0,1.42,0,.94,0,1.88,0,2.8,0,1.85,0,3.68,0,5.46l-.21-.21c11.95,.04,22.41,.07,29.91,.1,3.74,.03,6.73,.05,8.83,.06,1.02,.01,1.82,.02,2.39,.03,.26,0,.46,0,.62,.01,.14,0,.22,0,.22,.01,0,0-.06,0-.19,.01-.16,0-.35,0-.6,.01-.56,0-1.34,.02-2.34,.03-2.08,.01-5.06,.03-8.78,.06-7.54,.02-18.05,.06-30.05,.1h-.21v-.21c0-1.79,0-3.61,0-5.46,0-.93,0-1.86,0-2.8,0-.47,0-.94,0-1.42v-1.4h0v-.02h0c.43-.43,.12-.12,.22-.22,17.14,.03,32.38,.06,41.97,.08h.13v.13c-.03,3.51-.06,6.29-.07,8.22-.01,.92-.02,1.64-.03,2.16,0,.22-.01,.4-.01,.55,0,.12,0,.18-.01,.18Z" style="fill:#e0e0e0;"></path><path d="M249.04,463.83s-.01-.08-.02-.21c0-.16,0-.35-.02-.59,0-.55-.02-1.29-.04-2.23-.02-1.95-.05-4.7-.08-8.08l.15,.15c-6.53,.02-15.42,.04-25.21,.06-.19,.19,.26-.26,.21-.21h0v1.45c0,.48,0,.96,0,1.44,0,.95,0,1.9,0,2.83,0,1.86,0,3.66,0,5.38l-.2-.2c7.28,.04,13.55,.07,18.04,.1,2.22,.02,3.99,.04,5.25,.06,.59,.01,1.06,.02,1.42,.03,.32,0,.5,.02,.51,.02,0,0-.15,.02-.46,.03-.35,0-.8,.01-1.37,.03-1.25,.01-3.01,.03-5.21,.06-4.53,.02-10.84,.06-18.18,.1h-.2v-.2c0-1.73,0-3.53,0-5.38,0-.93,0-1.87,0-2.83v-2.87h0v-.02h0s.41-.41,.22-.22c9.79,.02,18.68,.04,25.21,.06h.16v.15c-.04,3.42-.06,6.2-.08,8.17-.02,.92-.03,1.65-.04,2.19-.01,.5-.02,.75-.03,.74Z" style="fill:#e0e0e0;"></path></g></g><g id="freepik--Birds--inject-593"><g><path d="M414.8,138.19s-.56-.19-1.59-.42c-1.03-.23-2.57-.43-4.45-.17-1.86,.25-4.06,1-5.99,2.58-1.92,1.56-3.57,3.92-4.23,6.71l-.02,.07-.12,.48-.18-.46c-1.08-2.66-2.99-4.77-5.06-6.11-2.08-1.37-4.32-1.93-6.18-2.06-1.88-.13-3.4,.14-4.42,.4-1.02,.27-1.56,.51-1.57,.48,0-.01,.13-.07,.38-.19,.26-.11,.64-.26,1.15-.41,1.01-.31,2.55-.61,4.47-.51,1.9,.1,4.19,.65,6.33,2.04,2.13,1.36,4.1,3.52,5.2,6.24l-.31,.02,.02-.08c.68-2.88,2.37-5.29,4.36-6.87,1.99-1.61,4.25-2.36,6.15-2.58,1.91-.23,3.47,0,4.5,.28,.52,.13,.91,.26,1.17,.37,.26,.1,.4,.16,.39,.17Z" style="fill:#263238;"></path><path d="M444.25,147.99s-.31-.09-.88-.2c-.57-.12-1.41-.22-2.43-.07-1.01,.14-2.21,.56-3.26,1.42-1.05,.85-1.94,2.14-2.3,3.66v.04l-.13,.48-.18-.45c-.59-1.45-1.63-2.6-2.75-3.33-1.13-.75-2.35-1.06-3.37-1.14-1.03-.08-1.86,.06-2.42,.2-.56,.14-.86,.26-.87,.23,0-.01,.07-.05,.21-.12,.14-.07,.35-.15,.63-.24,.56-.18,1.41-.36,2.47-.31,1.05,.05,2.33,.35,3.51,1.12,1.18,.75,2.28,1.95,2.89,3.46l-.31,.02v-.04c.39-1.6,1.33-2.94,2.44-3.82,1.11-.89,2.37-1.3,3.42-1.42,1.06-.12,1.92,.02,2.49,.17,.29,.08,.5,.15,.64,.22,.14,.06,.21,.1,.21,.11Z" style="fill:#263238;"></path><path d="M427.86,98.52s-.3,.35-.85,.97c-.55,.62-1.3,1.56-2.09,2.82-1.58,2.48-3.15,6.43-3.1,10.96v.14l-.32,.03c-.33-2.21-1.07-4.24-2-5.94-.93-1.7-2.02-3.08-3.05-4.12-1.03-1.04-1.97-1.78-2.65-2.24-.68-.47-1.07-.7-1.05-.73,0,0,.11,.04,.3,.14,.19,.11,.48,.25,.82,.48,.7,.44,1.67,1.15,2.74,2.19,1.06,1.03,2.19,2.42,3.15,4.14,.96,1.72,1.72,3.78,2.06,6.03l-.32,.03v-.14c-.05-4.61,1.59-8.61,3.23-11.09,.82-1.25,1.6-2.18,2.19-2.78,.28-.31,.53-.52,.69-.67,.16-.15,.25-.22,.26-.21Z" style="fill:#263238;"></path></g></g><g id="freepik--Sun--inject-593"><g><g><circle cx="247.67" cy="72.27" r="28.76" style="fill:#FF725E;"></circle><g style="opacity:.9;"><circle cx="247.67" cy="72.27" r="28.76" style="fill:#fff;"></circle></g></g><g><circle cx="247.67" cy="72.27" r="25.65" style="fill:#FF725E;"></circle><g style="opacity:.6;"><circle cx="247.67" cy="72.27" r="25.65" style="fill:#fff;"></circle></g></g><g><circle cx="247.67" cy="72.27" r="21.34" style="fill:#FF725E;"></circle><g style="opacity:.3;"><circle cx="247.67" cy="72.27" r="21.34" style="fill:#fff;"></circle></g></g><circle cx="247.67" cy="72.27" r="17.09" style="fill:#FF725E;"></circle></g></g><g id="freepik--Roof--inject-593"><g><g><polygon points="14.89 405.84 15.38 346.57 490.18 346.57 490.18 405.79 14.89 405.84" style="fill:#ae7461;"></polygon><path d="M14.89,405.87h-.03v-.03l.49-59.29H490.21v59.27h-.03l-475.29,.05Zm.51-59.27l-.49,59.22,475.24-.05v-59.17H15.4Z" style="fill:#263238;"></path></g><g style="opacity:.2;"><rect x="14.89" y="400.22" width="475.29" height="5.57"></rect></g><path d="M490.18,405.79c0,.14-106.41,.26-237.64,.26s-237.66-.12-237.66-.26,106.38-.26,237.66-.26,237.64,.12,237.64,.26Z" style="fill:#263238;"></path><path d="M490.18,400.22c0,.14-106.41,.26-237.64,.26s-237.66-.12-237.66-.26,106.38-.26,237.66-.26,237.64,.12,237.64,.26Z" style="fill:#263238;"></path><path d="M206.73,346.57s-.1,.22-.34,.62c-.27,.44-.62,1.01-1.06,1.73-.97,1.54-2.32,3.68-3.97,6.3-3.42,5.33-8.09,12.62-13.25,20.66-6.65,10.29-12.53,19.31-15.91,24.42l.02-.08c-.03,1.73-.05,3.11-.07,4.12-.01,.44-.03,.8-.04,1.08-.01,.25-.03,.37-.04,.37s-.03-.13-.04-.37c0-.29-.02-.65-.04-1.08-.02-1.01-.04-2.39-.07-4.12v-.04l.02-.04c3.26-5.18,9.06-14.26,15.71-24.55,5.21-8.01,9.93-15.27,13.38-20.58,1.71-2.58,3.1-4.69,4.11-6.21,.47-.69,.85-1.25,1.14-1.67,.27-.38,.41-.57,.43-.56Z" style="fill:#263238;"></path><path d="M65.29,346.57s-.1,.22-.34,.62c-.27,.44-.62,1.01-1.06,1.73-.97,1.54-2.32,3.68-3.97,6.3-3.42,5.33-8.09,12.62-13.25,20.66-6.65,10.29-12.53,19.31-15.91,24.42l.02-.08c-.03,1.73-.05,3.11-.07,4.12-.01,.44-.03,.8-.04,1.08-.01,.25-.03,.37-.04,.37s-.03-.13-.04-.37l-.04-1.08c-.02-1.01-.04-2.39-.07-4.12v-.04l.02-.04c3.26-5.18,9.06-14.26,15.71-24.55,5.21-8.01,9.93-15.27,13.38-20.58,1.71-2.58,3.1-4.69,4.11-6.21,.47-.69,.85-1.25,1.14-1.67,.27-.38,.41-.57,.43-.56Z" style="fill:#263238;"></path><path d="M467.41,346.57s-.07,.22-.24,.62c-.2,.44-.46,1.02-.78,1.73-.73,1.55-1.73,3.7-2.96,6.32-2.57,5.37-6.08,12.69-9.95,20.77-4.89,10.12-9.24,19.02-11.85,24.26v-.06c-.01,1.71-.04,3.09-.05,4.11-.02,.44-.03,.8-.04,1.09-.01,.25-.03,.38-.04,.38s-.03-.13-.04-.38c-.01-.29-.02-.65-.04-1.09-.02-1.01-.04-2.39-.07-4.11v-.06c2.5-5.3,6.77-14.24,11.66-24.36,3.93-8.06,7.48-15.36,10.09-20.71,1.29-2.6,2.35-4.72,3.11-6.25,.36-.69,.65-1.25,.87-1.69,.2-.38,.32-.58,.34-.57Z" style="fill:#263238;"></path><path d="M335.46,346.57s-.07,.22-.24,.62c-.2,.44-.46,1.02-.78,1.73-.73,1.55-1.73,3.7-2.96,6.32-2.57,5.37-6.08,12.69-9.95,20.77-4.89,10.12-9.24,19.02-11.85,24.26v-.06c-.01,1.71-.04,3.09-.05,4.11-.02,.44-.03,.8-.04,1.09-.01,.25-.03,.38-.04,.38s-.03-.13-.04-.38c-.01-.29-.02-.65-.04-1.09-.02-1.01-.04-2.39-.07-4.11v-.06c2.5-5.3,6.77-14.24,11.66-24.36,3.93-8.06,7.48-15.36,10.09-20.71,1.29-2.6,2.35-4.72,3.11-6.25,.36-.69,.65-1.25,.87-1.69,.2-.38,.32-.58,.34-.57Z" style="fill:#263238;"></path><g><polygon points="14.89 349.3 15.38 290.03 490.18 290.03 490.18 349.25 14.89 349.3" style="fill:#ae7461;"></polygon><path d="M14.89,349.33h-.03v-.03l.49-59.29H490.21v59.27h-.03l-475.29,.05Zm.51-59.27l-.49,59.22,475.24-.05v-59.17H15.4Z" style="fill:#263238;"></path></g><g style="opacity:.2;"><rect x="14.89" y="343.68" width="475.29" height="5.57"></rect></g><path d="M490.18,349.25c0,.14-106.41,.26-237.64,.26s-237.66-.12-237.66-.26,106.38-.26,237.66-.26,237.64,.12,237.64,.26Z" style="fill:#263238;"></path><path d="M490.18,343.68c0,.14-106.41,.26-237.64,.26s-237.66-.12-237.66-.26,106.38-.26,237.66-.26,237.64,.12,237.64,.26Z" style="fill:#263238;"></path><path d="M206.73,290.03s-.1,.22-.34,.62c-.27,.44-.62,1.01-1.06,1.73-.97,1.54-2.32,3.68-3.97,6.3-3.42,5.33-8.09,12.62-13.25,20.66-6.65,10.29-12.53,19.31-15.91,24.42l.02-.08c-.03,1.73-.05,3.11-.07,4.12-.01,.44-.03,.8-.04,1.08-.01,.25-.03,.37-.04,.37s-.03-.13-.04-.37c0-.29-.02-.65-.04-1.08-.02-1.01-.04-2.39-.07-4.12v-.04l.02-.04c3.26-5.18,9.06-14.26,15.71-24.55,5.21-8.01,9.93-15.27,13.38-20.58,1.71-2.58,3.1-4.69,4.11-6.21,.47-.69,.85-1.25,1.14-1.67,.27-.38,.41-.57,.43-.56Z" style="fill:#263238;"></path><path d="M65.29,290.03s-.1,.22-.34,.62c-.27,.44-.62,1.01-1.06,1.73-.97,1.54-2.32,3.68-3.97,6.3-3.42,5.33-8.09,12.62-13.25,20.66-6.65,10.29-12.53,19.31-15.91,24.42l.02-.08c-.03,1.73-.05,3.11-.07,4.12-.01,.44-.03,.8-.04,1.08-.01,.25-.03,.37-.04,.37s-.03-.13-.04-.37l-.04-1.08c-.02-1.01-.04-2.39-.07-4.12v-.04l.02-.04c3.26-5.18,9.06-14.26,15.71-24.55,5.21-8.01,9.93-15.27,13.38-20.58,1.71-2.58,3.1-4.69,4.11-6.21,.47-.69,.85-1.25,1.14-1.67,.27-.38,.41-.57,.43-.56Z" style="fill:#263238;"></path><path d="M467.41,290.03s-.07,.22-.24,.62c-.2,.44-.46,1.02-.78,1.73-.73,1.55-1.73,3.7-2.96,6.32-2.57,5.37-6.08,12.69-9.95,20.77-4.89,10.12-9.24,19.02-11.85,24.26v-.06c-.01,1.71-.04,3.09-.05,4.11-.02,.44-.03,.8-.04,1.09-.01,.25-.03,.38-.04,.38s-.03-.13-.04-.38c-.01-.29-.02-.65-.04-1.09-.02-1.01-.04-2.39-.07-4.11v-.06c2.5-5.3,6.77-14.24,11.66-24.36,3.93-8.06,7.48-15.36,10.09-20.71,1.29-2.6,2.35-4.72,3.11-6.25,.36-.69,.65-1.25,.87-1.69,.2-.38,.32-.58,.34-.57Z" style="fill:#263238;"></path><path d="M335.46,290.03s-.07,.22-.24,.62c-.2,.44-.46,1.02-.78,1.73-.73,1.55-1.73,3.7-2.96,6.32-2.57,5.37-6.08,12.69-9.95,20.77-4.89,10.12-9.24,19.02-11.85,24.26v-.06c-.01,1.71-.04,3.09-.05,4.11-.02,.44-.03,.8-.04,1.09-.01,.25-.03,.38-.04,.38s-.03-.13-.04-.38c-.01-.29-.02-.65-.04-1.09-.02-1.01-.04-2.39-.07-4.11v-.06c2.5-5.3,6.77-14.24,11.66-24.36,3.93-8.06,7.48-15.36,10.09-20.71,1.29-2.6,2.35-4.72,3.11-6.25,.36-.69,.65-1.25,.87-1.69,.2-.38,.32-.58,.34-.57Z" style="fill:#263238;"></path><g><rect x="15.63" y="228.2" width="472.89" height="10.53" style="fill:#6f4439;"></rect><path d="M488.54,238.76H15.6v-10.58H488.54v10.58Zm-472.89-.05H488.49v-10.48H15.65v10.48Z" style="fill:#263238;"></path></g><g><polygon points="14.89 298.33 15.38 239.06 490.18 239.06 490.18 298.28 14.89 298.33" style="fill:#ae7461;"></polygon><path d="M14.89,298.35h-.03v-.03l.49-59.29H490.21v59.27h-.03l-475.29,.05Zm.51-59.27l-.49,59.22,475.24-.05v-59.17H15.4Z" style="fill:#263238;"></path></g><g style="opacity:.2;"><rect x="14.89" y="292.71" width="475.29" height="5.57"></rect></g><path d="M490.18,227.87c0,.14-106.41,.26-237.64,.26s-237.66-.12-237.66-.26,106.38-.26,237.66-.26,237.64,.12,237.64,.26Z" style="fill:#263238;"></path><path d="M490.18,239.06c0,.14-106.41,.26-237.64,.26s-237.66-.12-237.66-.26,106.38-.26,237.66-.26,237.64,.12,237.64,.26Z" style="fill:#263238;"></path><path d="M490.18,298.28c0,.14-106.41,.26-237.64,.26s-237.66-.12-237.66-.26,106.38-.26,237.66-.26,237.64,.12,237.64,.26Z" style="fill:#263238;"></path><path d="M490.18,292.71c0,.14-106.41,.26-237.64,.26s-237.66-.12-237.66-.26,106.38-.26,237.66-.26,237.64,.12,237.64,.26Z" style="fill:#263238;"></path><path d="M206.73,239.06s-.1,.22-.34,.62c-.27,.44-.62,1.01-1.06,1.73-.97,1.54-2.32,3.68-3.97,6.3-3.42,5.33-8.09,12.62-13.25,20.66-6.65,10.29-12.53,19.31-15.91,24.42l.02-.08c-.03,1.73-.05,3.11-.07,4.12-.01,.44-.03,.8-.04,1.08-.01,.25-.03,.37-.04,.37s-.03-.13-.04-.37c0-.29-.02-.65-.04-1.08-.02-1.01-.04-2.39-.07-4.12v-.04l.02-.04c3.26-5.18,9.06-14.26,15.71-24.55,5.21-8.01,9.93-15.27,13.38-20.58,1.71-2.58,3.1-4.69,4.11-6.21,.47-.69,.85-1.25,1.14-1.67,.27-.38,.41-.57,.43-.56Z" style="fill:#263238;"></path><path d="M467.41,239.06s-.07,.22-.24,.62c-.2,.44-.46,1.02-.78,1.73-.73,1.55-1.73,3.7-2.96,6.32-2.57,5.37-6.08,12.69-9.95,20.77-4.89,10.12-9.24,19.02-11.85,24.26v-.06c-.01,1.71-.04,3.09-.05,4.11-.02,.44-.03,.8-.04,1.09-.01,.25-.03,.38-.04,.38s-.03-.13-.04-.38c-.01-.29-.02-.65-.04-1.09-.02-1.01-.04-2.39-.07-4.11v-.06c2.5-5.3,6.77-14.24,11.66-24.36,3.93-8.06,7.48-15.36,10.09-20.71,1.29-2.6,2.35-4.72,3.11-6.25,.36-.69,.65-1.25,.87-1.69,.2-.38,.32-.58,.34-.57Z" style="fill:#263238;"></path><path d="M335.46,239.06s-.07,.22-.24,.62c-.2,.44-.46,1.02-.78,1.73-.73,1.55-1.73,3.7-2.96,6.32-2.57,5.37-6.08,12.69-9.95,20.77-4.89,10.12-9.24,19.02-11.85,24.26v-.06c-.01,1.71-.04,3.09-.05,4.11-.02,.44-.03,.8-.04,1.09-.01,.25-.03,.38-.04,.38s-.03-.13-.04-.38c-.01-.29-.02-.65-.04-1.09-.02-1.01-.04-2.39-.07-4.11v-.06c2.5-5.3,6.77-14.24,11.66-24.36,3.93-8.06,7.48-15.36,10.09-20.71,1.29-2.6,2.35-4.72,3.11-6.25,.36-.69,.65-1.25,.87-1.69,.2-.38,.32-.58,.34-.57Z" style="fill:#263238;"></path><g><rect x="14.89" y="405.84" width="475.29" height="37.44" style="fill:#6f4439;"></rect><path d="M490.21,443.31H14.86v-37.49H490.21v37.49Zm-475.3-.05H490.16v-37.39H14.91v37.39Z" style="fill:#263238;"></path></g><g style="opacity:.2;"><rect x="14.89" y="405.84" width="475.29" height="4.17"></rect></g><g><ellipse cx="49.54" cy="389.04" rx="1.57" ry=".51" style="fill:#263238;"></ellipse><path d="M69.04,358.22c0,.28-.7,.51-1.57,.51s-1.57-.23-1.57-.51,.7-.51,1.57-.51,1.57,.23,1.57,.51Z" style="fill:#263238;"></path></g><g><path d="M49.54,336.78c0,.28-.7,.51-1.57,.51s-1.57-.23-1.57-.51,.7-.51,1.57-.51,1.57,.23,1.57,.51Z" style="fill:#263238;"></path><path d="M67.46,305.96c0,.28-.7,.51-1.57,.51s-1.57-.23-1.57-.51,.7-.51,1.57-.51,1.57,.23,1.57,.51Z" style="fill:#263238;"></path></g><g><path d="M191.96,333.39c0,.28-.7,.51-1.57,.51s-1.57-.23-1.57-.51,.7-.51,1.57-.51,1.57,.23,1.57,.51Z" style="fill:#263238;"></path><path d="M209.88,302.56c0,.28-.7,.51-1.57,.51s-1.57-.23-1.57-.51,.7-.51,1.57-.51,1.57,.23,1.57,.51Z" style="fill:#263238;"></path></g><g><path d="M195.06,278.14c0,.28-.7,.51-1.57,.51s-1.57-.23-1.57-.51,.7-.51,1.57-.51,1.57,.23,1.57,.51Z" style="fill:#263238;"></path><path d="M212.98,247.31c0,.28-.7,.51-1.57,.51s-1.57-.23-1.57-.51,.7-.51,1.57-.51,1.57,.23,1.57,.51Z" style="fill:#263238;"></path></g><g><path d="M429.87,278.14c0,.28-.7,.51-1.57,.51s-1.57-.23-1.57-.51,.7-.51,1.57-.51,1.57,.23,1.57,.51Z" style="fill:#263238;"></path><path d="M447.79,247.31c0,.28-.7,.51-1.57,.51s-1.57-.23-1.57-.51,.7-.51,1.57-.51,1.57,.23,1.57,.51Z" style="fill:#263238;"></path></g><g><path d="M434.11,335.08c0,.28-.7,.51-1.57,.51s-1.57-.23-1.57-.51,.7-.51,1.57-.51,1.57,.23,1.57,.51Z" style="fill:#263238;"></path><path d="M452.03,304.26c0,.28-.7,.51-1.57,.51s-1.57-.23-1.57-.51,.7-.51,1.57-.51,1.57,.23,1.57,.51Z" style="fill:#263238;"></path></g><g><ellipse cx="435.66" cy="390.03" rx="1.57" ry=".51" style="fill:#263238;"></ellipse><path d="M455.16,359.2c0,.28-.7,.51-1.57,.51s-1.57-.23-1.57-.51,.7-.51,1.57-.51,1.57,.23,1.57,.51Z" style="fill:#263238;"></path></g></g></g><g id="freepik--Fireplace--inject-593"><g><g><polygon points="170.72 246.31 147.02 282.3 39.8 282.3 39.8 88.49 169.89 88.49 170.72 246.31" style="fill:#e0e0e0;"></polygon><path d="M170.72,246.31s-.01-.25-.02-.74c0-.49-.02-1.22-.03-2.17-.02-1.92-.04-4.76-.08-8.45-.05-7.41-.13-18.25-.23-32.06-.17-27.61-.41-67.06-.7-114.4l.22,.22c-38.36,.01-82.71,.02-130.09,.03l.26-.26c0,8.95,0,18.47,0,28.09-.01,60.93-.03,117.83-.04,165.71l-.22-.22c44.65,.04,81.58,.07,107.22,.09l-.11,.06c7.67-11.6,13.61-20.58,17.64-26.67,2.02-3.03,3.55-5.35,4.59-6.91,1.04-1.55,1.58-2.34,1.58-2.34,0,0-.5,.8-1.52,2.36-1.02,1.57-2.54,3.89-4.53,6.94-4.01,6.11-9.92,15.12-17.55,26.76l-.04,.06h-.07c-25.64,.02-62.57,.05-107.22,.09h-.22v-.22c-.01-47.89-.02-104.78-.04-165.71,0-9.62,0-19.14,0-28.09v-.26h.26c47.39,.01,91.74,.02,130.09,.03h.22v.22c.21,47.37,.39,86.83,.51,114.46,.05,13.8,.08,24.64,.11,32.04,0,3.69,0,6.52,.01,8.43,0,.95,0,1.67,0,2.16,0,.48-.01,.73-.01,.73Z" style="fill:#263238;"></path></g><path d="M146.83,88.55c.14,0,.26,43.12,.26,96.3s-.12,96.31-.26,96.31-.26-43.11-.26-96.31,.12-96.3,.26-96.3Z" style="fill:#263238;"></path><rect x="28.38" y="77.86" width="148.17" height="22.3" style="fill:#455a64;"></rect><g style="opacity:.3;"><rect x="151.36" y="77.86" width="25.19" height="22.3"></rect></g><g style="opacity:.2;"><rect x="102.47" y="144.85" width="44.36" height="17.84"></rect></g><g style="opacity:.2;"><rect x="80.48" y="166.84" width="44.36" height="17.84"></rect></g><g style="opacity:.2;"><rect x="40.12" y="125.92" width="22.18" height="17.84"></rect></g><g style="opacity:.2;"><rect x="40.12" y="229.48" width="22.18" height="17.84"></rect></g></g></g><g id="freepik--Character--inject-593"><g><polygon points="256.16 312.22 293.05 288.3 320.62 231.84 346.06 250.12 309.94 307.3 265.98 326.73 256.16 312.22" style="fill:#455a64;"></polygon><g><g><path d="M266.66,218.72c-.17-1.66-.07-3.02,.81-4.43,7.85-12.63,21.06-21.23,35.19-25.84,3.67-1.2,7.86-2.11,11.28-.26l.15,.18c1.91,1.44,2.64,4.48,2.14,6.81-.5,2.33-1.91,4.35-3.42,6.18-7.18,8.71-17.12,14.68-27.27,19.62-2.38,1.16-4.81,2.28-7.38,2.89-2.58,.61-5.35,.7-7.86-.19-2.13-.76-3.42-2.69-3.64-4.94Z" style="fill:#455a64;"></path><g style="opacity:.3;"><path d="M266.66,218.72c-.17-1.66-.07-3.02,.81-4.43,7.85-12.63,21.06-21.23,35.19-25.84,3.67-1.2,7.86-2.11,11.28-.26l.15,.18c1.91,1.44,2.64,4.48,2.14,6.81-.5,2.33-1.91,4.35-3.42,6.18-7.18,8.71-17.12,14.68-27.27,19.62-2.38,1.16-4.81,2.28-7.38,2.89-2.58,.61-5.35,.7-7.86-.19-2.13-.76-3.42-2.69-3.64-4.94Z"></path></g></g><g><path d="M317.93,210.24c-1.49-4.79-3.02-9.6-5.31-14.06-2.29-4.46-5.41-8.6-9.55-11.43-.63-.43-5.23-3.03-5.81-2.53-.41,.36,3.3,3.19,3.35,3.74,.46,5.17,2.99,9.98,6.32,13.96,3.33,3.98,6.89,7.16,11,10.33" style="fill:#263238;"></path><path d="M272.49,217.18c-6.51-9.75-4.44-22.86,4.75-30.13l.91-.72c10.31-7.22,22.19-2.5,29.13,8l23.29,33.28-17.92,25.71-3.46-6.64s-1.9-2.61-1.92-2.59c0,0-10.63,6.02-18.24-3.35-3.68-4.53-10.49-14.47-16.54-23.54Z" style="fill:#ffbf9d;"></path><path d="M307.27,244.08s6.24-4.37,9.44-13.4c0,0,2.6,9.37-7.52,15.99l-1.92-2.59Z" style="fill:#ff9a6c;"></path><path d="M282,223.52c.54,.73,1.61,.88,2.38,.33,.78-.55,.97-1.59,.43-2.32-.54-.73-1.61-.88-2.38-.33-.78,.55-.97,1.59-.43,2.32Z" style="fill:#263238;"></path><path d="M277.62,219.51c.31,.04,.73-1.52,2.19-2.67,1.44-1.17,3.1-1.26,3.12-1.57,.02-.14-.41-.32-1.14-.29-.72,.03-1.76,.31-2.67,1.04-.9,.72-1.4,1.66-1.57,2.35-.18,.7-.07,1.14,.07,1.15Z" style="fill:#263238;"></path><path d="M295.18,213.75c.54,.73,1.61,.88,2.38,.33,.78-.55,.97-1.59,.43-2.32-.54-.73-1.61-.88-2.38-.33-.78,.55-.97,1.59-.43,2.32Z" style="fill:#263238;"></path><path d="M292.34,208.82c.31,.04,.73-1.53,2.19-2.67,1.44-1.17,3.1-1.26,3.12-1.57,.01-.14-.41-.32-1.14-.29-.72,.02-1.76,.31-2.67,1.04-.9,.72-1.4,1.66-1.57,2.35-.17,.7-.07,1.14,.07,1.15Z" style="fill:#263238;"></path><path d="M295.96,224.13c-.06-.09-1.09,.47-2.7,1.44-.4,.26-.81,.46-1.08,.26-.3-.2-.46-.72-.62-1.3-.36-1.18-.74-2.41-1.14-3.7-1.66-5.24-3.18-9.42-3.39-9.35-.21,.07,.97,4.37,2.63,9.6,.42,1.28,.82,2.51,1.2,3.68,.19,.53,.33,1.2,.96,1.61,.32,.2,.75,.18,1.04,.06,.3-.12,.51-.28,.7-.41,1.54-1.09,2.46-1.8,2.4-1.89Z" style="fill:#263238;"></path><path d="M301.04,221.75c-.25,.17,1,1.76,.53,3.95-.46,2.19-2.28,3.35-2.12,3.58,.06,.12,.62,.01,1.34-.53,.72-.53,1.56-1.56,1.84-2.9,.28-1.34-.09-2.54-.55-3.23-.46-.71-.95-.96-1.05-.87Z" style="fill:#263238;"></path><path d="M287.74,202.85c.46,.28,1.76-1.05,3.63-2.2,1.85-1.18,3.62-1.77,3.56-2.31-.03-.25-.57-.43-1.43-.37-.85,.05-2.02,.39-3.14,1.08-1.11,.7-1.92,1.6-2.34,2.35-.43,.75-.5,1.31-.29,1.45Z" style="fill:#263238;"></path><path d="M274.39,214.2c.52,.13,1.25-1.01,2.44-1.98,1.16-1.01,2.4-1.54,2.36-2.07-.03-.25-.45-.45-1.15-.41-.69,.04-1.62,.36-2.43,1.04-.81,.68-1.29,1.55-1.44,2.22-.16,.68-.03,1.13,.21,1.2Z" style="fill:#263238;"></path><path d="M312.05,201.95c.11-.2,4.98-7.07,9.9-.44,4.92,6.64-3.17,10.69-3.32,10.51-.15-.18-6.58-10.07-6.58-10.07Z" style="fill:#ffbf9d;"></path><path d="M319.2,207.52s.18,0,.44-.06c.26-.05,.63-.24,.88-.62,.51-.78,.28-2.33-.58-3.55-.43-.62-.98-1.1-1.55-1.42-.56-.34-1.13-.44-1.53-.24-.41,.18-.5,.58-.45,.82,.05,.25,.19,.35,.16,.39,0,.03-.22,0-.37-.32-.07-.15-.11-.37-.05-.61,.06-.25,.25-.49,.51-.64,.54-.34,1.35-.21,1.97,.13,.65,.33,1.29,.86,1.77,1.55,.95,1.37,1.19,3.13,.44,4.11-.38,.47-.87,.62-1.19,.61-.33-.01-.47-.13-.46-.16Z" style="fill:#ff9a6c;"></path><path d="M268.76,202.98c-1.51,.19-.82-5.67,.96-8.81,2.69-4.74,8.01-10.32,12.47-11.96,5.38-1.98,10.69-2.45,15.88-.02,5.19,2.43,9.47,6.54,12.7,11.27,.99,1.44,1.91,3.02,2.03,4.77,.14,2.16-.97,4.39,.59,6.37,.57,.72,.9,1.63,.79,2.54-.28,2.19-2.66,2.05-4.24,1.33-3.37-1.55-5.8-4.55-8.11-7.46-1.64-2.06-3.31-4.18-4.2-6.66-.48-1.35-.72-2.78-1.28-4.11-.56-1.32-1.52-2.58-2.9-2.99-.22-.07-.55-.12-.94-.15-3.1-.28-6.11,1.15-7.87,3.71-2.79,4.07-7.77,10.72-10.38,10.67-3.75-.08-5.2-.86-5.2-.86l-.31,2.37Z" style="fill:#263238;"></path></g><g><path d="M271.86,216.19s2.84-6.17,8.83-10.33c16.79-11.64,30.42-12.38,30.42-12.38l-3.26-4.98s-27.78,12.52-27.95,12.63c-.17,.11-6.59,6.59-6.72,6.77-.13,.18-3.96,3.99-3.96,3.99,.75,1.65,1.61,3.12,2.65,4.3Z" style="fill:#455a64;"></path><g style="opacity:.6;"><path d="M271.86,216.19s2.84-6.17,8.83-10.33c16.79-11.64,30.42-12.38,30.42-12.38l-3.26-4.98s-27.78,12.52-27.95,12.63c-.17,.11-6.59,6.59-6.72,6.77-.13,.18-3.96,3.99-3.96,3.99,.75,1.65,1.61,3.12,2.65,4.3Z" style="fill:#455a64;"></path></g><path d="M267.1,220.71s-.9-10.34,20.18-21.55c22.12-11.76,28.61-8.25,28.61-8.25,0,0-1.9-5.61-6.87-5.59,0,0-5.82-8.7-16.4-11.46-3.78-.99-9.02-.45-10.26-.56l-1.07-1.28s-2.57-.64-9.57,4.01c-7.23,4.81-7.12,8.03-7.12,8.03l.69,1.33s-7.46,12.72,1.48,27.51c0,0-2.08,5.27,.33,7.8Z" style="fill:#FF725E;"></path><g style="opacity:.3;"><path d="M281.29,172.02c-.2,2.15-.55,5.85,.45,8.07,1.01,2.22,2.37,4.3,3.72,6.35-3.4-7.46-3.1-9.08-3.1-13.14l-1.07-1.28Z"></path></g><path d="M309.02,185.32s-.18,0-.52,.08c-.4,.09-.89,.2-1.48,.32-.64,.14-1.42,.33-2.31,.61-.89,.28-1.92,.54-3.02,.96-4.43,1.54-10.43,4.1-16.55,7.85-6.15,3.69-11.19,7.89-14.32,11.41-.75,.91-1.43,1.73-1.97,2.49-.5,.8-.96,1.46-1.26,2.04-.25,.55-.45,1.01-.62,1.38-.14,.32-.2,.49-.18,.49,.02,0,.12-.15,.28-.45,.19-.36,.43-.8,.71-1.32,.33-.56,.82-1.2,1.33-1.96,.56-.74,1.25-1.53,2.01-2.41,3.17-3.42,8.2-7.53,14.32-11.2,6.08-3.73,12.02-6.33,16.39-7.96,1.08-.44,2.1-.72,2.98-1.03,.88-.31,1.65-.53,2.28-.7,.58-.17,1.05-.31,1.45-.42,.33-.1,.5-.17,.5-.19Z" style="fill:#263238;"></path><path d="M281.29,172.02c-.08,0-.23,.83-.42,2.21-.17,1.35-.4,3.37,.3,5.45,.66,2.05,1.72,3.71,2.57,4.81,.85,1.11,1.49,1.69,1.54,1.65,.06-.05-.46-.73-1.22-1.88-.75-1.14-1.72-2.78-2.36-4.76-.67-1.96-.51-3.87-.44-5.24,.09-1.38,.1-2.24,.02-2.24Z" style="fill:#263238;"></path><g style="opacity:.3;"><path d="M284.62,176.57c-.21-.3-.43-.63-.42-.98,.02-.35,.28-.63,.6-.77,.31-.13,.67-.14,1.01-.14,7.31,.02,14.75,3.61,19.7,9.45,.24,.29,.08,.71-.28,.73-3.19,.25-6.22,1.09-9.14,2.31-.96,.4-2.12,1.3-3.08,.68-.57-.37-.99-.94-1.39-1.5-2.34-3.26-4.67-6.52-7.01-9.78Z" style="fill:#fff;"></path></g></g><path d="M270.71,192.64c.12-.1-1.23-1.82-2.85-3.94-1.63-2.13-2.93-3.87-3.06-3.79-.13,.08,.97,1.98,2.61,4.12,1.64,2.15,3.18,3.71,3.29,3.61Z" style="fill:#263238;"></path></g><g><g><path d="M388.13,354.7l24.17,5.84s1.65,27.86,6,29.4l14.03-48.99-37.25-10.74-6.94,24.48Z" style="fill:#263238;"></path><path d="M414.63,344.83c.52-.88,1.71-1.25,2.56-.77s1.18,1.74,.67,2.62c-.5,.89-1.93,1.38-2.71,.8-.79-.57-1.1-2.08-.41-2.82" style="fill:#e0e0e0;"></path><path d="M432.32,340.95l-3.8-.93-12.03,47.32s.27,2.43,1.8,2.6l14.03-48.99Z" style="fill:#455a64;"></path><path d="M411.84,361.27c.23,.06,.67-1.11,1.74-2.08,1.04-1,2.2-1.33,2.17-1.57,.02-.23-1.44-.26-2.71,.94-1.28,1.19-1.42,2.71-1.2,2.72Z" style="fill:#fff;"></path><path d="M412.38,366.98c.2,.12,.89-.81,2.08-1.35,1.18-.58,2.27-.49,2.33-.73,.1-.21-1.18-.75-2.65-.05-1.47,.69-1.97,2.07-1.76,2.14Z" style="fill:#fff;"></path><path d="M417.37,371.54c.11-.2-.93-.86-2.34-.59-1.42,.25-2.23,1.24-2.07,1.4,.15,.19,1.02-.35,2.19-.55,1.16-.23,2.14-.02,2.23-.26Z" style="fill:#fff;"></path><path d="M406.49,359.3c.24-.04,.24-1.23,.71-2.56,.45-1.34,1.18-2.27,1.02-2.45-.12-.18-1.26,.61-1.79,2.18-.55,1.57-.15,2.89,.06,2.83Z" style="fill:#fff;"></path></g><path d="M352.93,313.06s-43.79,33.28-43.08,42.38c.7,9.11,4.2,17.16,10.51,19.97,6.31,2.8,83.37-16.81,83.37-16.81l-4.9-25.22s2.1-18.21,1.05-18.21-46.94-2.1-46.94-2.1Z" style="fill:#263238;"></path><path d="M391.46,329.37s-.19,.07-.55,.15c-.42,.09-.95,.2-1.6,.34-1.39,.28-3.4,.71-5.87,1.27-4.95,1.12-11.74,2.87-19.1,5.27-7.36,2.41-13.87,5.02-18.52,7.04-2.33,1.01-4.2,1.85-5.49,2.44-.61,.27-1.1,.49-1.49,.67-.34,.15-.53,.22-.54,.2,0-.02,.16-.12,.49-.3,.38-.2,.86-.45,1.45-.76,1.26-.65,3.12-1.54,5.43-2.6,4.62-2.11,11.13-4.78,18.51-7.19,7.38-2.41,14.2-4.1,19.18-5.13,2.49-.52,4.51-.89,5.91-1.11,.66-.1,1.19-.18,1.62-.25,.37-.05,.57-.07,.57-.05Z" style="fill:#455a64;"></path></g><g><path d="M277.9,351.64s-13.12,13.92-14.24,16c-1.12,2.08-1.6,9.76-1.6,9.76,0,0,1.44,2.04,3.2,.78,1.76-1.26,2.4-4.3,2.4-4.3,0,0,4,4.14,5.44,4.71,1.44,.57,3.52,.85,3.2-.41-.32-1.26,3.2,1.29,4.96,.89,1.76-.39,1.44-2.63,1.44-2.63,0,0,.8,4.07,3.04,2.68,2.24-1.4,2.88-1.72,2.08-3.8-.8-2.08-2.08-5.44-2.08-5.44l2.41-4.36s2.87-2.2,3.99-5.08c1.12-2.88,1.6-3.52,1.6-3.52l5.43-3.78-16.41-10.82-4.87,9.31Z" style="fill:#e0e0e0;"></path><path d="M267.5,367.39c.14,.07-.68,1.55-.53,3.55,.11,2,1.13,3.36,1,3.44-.05,.04-.38-.24-.74-.83-.36-.59-.71-1.51-.78-2.57-.07-1.06,.15-2.02,.43-2.65,.28-.64,.56-.96,.62-.93Z" style="fill:#263238;"></path><path d="M273.15,368.17c.09,.03-.16,.6-.33,1.51-.08,.46-.06,.98,.18,1.54,.23,.57,.54,1.21,.86,1.85,1.31,2.61,2.75,4.5,2.63,4.6-.1,.09-1.76-1.7-3.09-4.36-.33-.67-.62-1.3-.85-1.92-.24-.63-.23-1.3-.09-1.78,.28-.97,.64-1.45,.69-1.43Z" style="fill:#263238;"></path><path d="M281.47,370.55c.15-.01,.38,1.61,.94,3.53,.55,1.92,1.21,3.42,1.08,3.49-.12,.07-1.01-1.36-1.58-3.34-.58-1.98-.57-3.67-.44-3.67Z" style="fill:#263238;"></path></g><g><path d="M442.4,283.81c.35-1.04-22.88-24.61-47.84-41.25-24.96-16.64-59.28-26-67.6-22.53,0,0-13.32,17.33-12.03,22.53,1.29,5.2,13.07,44.72,16.19,47.49,3.12,2.77,40.91,30.67,40.91,30.67,0,0,69.44-22.87,72.68-25.38,3.24-2.51-2.31-11.53-2.31-11.53Z" style="fill:#FF725E;"></path><path d="M389.78,292.23s16.63-26.84,28.13-31.96l7.38,6.34s-19.48,16.86-26.06,28.53l-9.45-2.9Z" style="fill:#e0e0e0;"></path><path d="M374.4,280.08s16.63-26.84,28.13-31.96l7.03,5.32s-19.13,17.87-25.71,29.54l-9.45-2.9Z" style="fill:#e0e0e0;"></path></g><g><g><path d="M382.05,250.46c-1,6.73-6.57,19.6-34.52,19.19,0,0-11.77,34.85-15.63,44.5-3.86,9.65-31.99,40.42-31.99,40.42l-18.36-12.47,23.44-32.94s7.21-33.9,7.48-35.55c.28-1.65-1.16-22.07,2.51-31.27s3.84-10.48,11.3-13.51c7-2.85,41.82-.59,53.87,14.54,1.59,2,2.28,4.56,1.9,7.08Z" style="fill:#455a64;"></path><path d="M382.05,250.46s0-.06,.01-.19c.01-.13,.03-.31,.04-.57,.02-.5,.03-1.25-.15-2.22-.18-.96-.56-2.14-1.34-3.34-.81-1.18-1.97-2.39-3.35-3.65-2.79-2.49-6.77-4.92-11.73-6.93-4.97-2-10.92-3.6-17.63-4.61-3.35-.51-6.91-.85-10.62-.97-1.86-.06-3.76-.04-5.68,.09-.96,.07-1.93,.17-2.9,.33-.98,.15-1.91,.4-2.83,.8-1.84,.78-3.75,1.6-5.31,2.92-1.55,1.34-2.51,3.27-3.35,5.23-.43,.98-.82,1.99-1.23,3.01-.4,1.02-.84,2.04-1.16,3.08-.69,2.09-1.12,4.3-1.41,6.55-.61,4.51-.75,9.2-.77,13.99,0,2.4,.04,4.82,.08,7.28,.01,.61,.02,1.23,0,1.86l-.03,.49-.09,.46-.19,.91c-.26,1.21-.51,2.44-.77,3.66-2.06,9.82-4.21,20.03-6.42,30.56v.05l-.04,.04c-4.92,6.92-10.09,14.18-15.35,21.57-2.72,3.83-5.42,7.62-8.09,11.37l-.07-.37c6.25,4.24,12.38,8.41,18.36,12.47l-.33,.04c6.62-7.31,12.92-14.52,18.73-21.61,2.9-3.55,5.71-7.06,8.26-10.62,1.27-1.78,2.51-3.56,3.58-5.4l.41-.68,.35-.71c.23-.47,.47-.94,.68-1.42,.38-.98,.75-1.96,1.13-2.93,2.91-7.81,5.48-15.26,7.9-22.19,2.38-6.94,4.59-13.38,6.61-19.23l.04-.12h.12c6.79,.12,12.92-.58,18-2.16,5.07-1.57,9.08-4.01,11.55-6.77,2.52-2.72,3.69-5.41,4.27-7.24,.27-.93,.46-1.63,.54-2.12,.1-.48,.16-.73,.16-.73,0,0-.03,.25-.11,.74-.06,.49-.25,1.2-.5,2.14-.55,1.84-1.7,4.57-4.22,7.33-2.47,2.81-6.5,5.3-11.6,6.9-5.11,1.62-11.27,2.35-18.08,2.25l.16-.11c-1.99,5.86-4.19,12.3-6.55,19.26-2.4,6.94-4.96,14.39-7.86,22.22-.37,.98-.75,1.96-1.13,2.94-.21,.49-.46,.97-.69,1.45l-.35,.73-.42,.69c-1.08,1.86-2.32,3.66-3.6,5.44-2.56,3.58-5.36,7.1-8.27,10.66-5.82,7.11-12.11,14.33-18.73,21.65l-.15,.16-.18-.12c-5.98-4.06-12.11-8.22-18.36-12.46l-.22-.15,.15-.22c2.67-3.75,5.37-7.54,8.09-11.37,5.26-7.39,10.43-14.65,15.35-21.57l-.04,.1c2.22-10.52,4.37-20.72,6.44-30.53,.26-1.23,.52-2.45,.77-3.66l.19-.91,.09-.45,.03-.43c.01-.61,0-1.22,0-1.83-.04-2.45-.08-4.89-.07-7.29,.03-4.8,.18-9.51,.8-14.05,.29-2.27,.73-4.5,1.44-6.63,.34-1.08,.78-2.08,1.18-3.1,.41-1.02,.81-2.03,1.24-3.02,.84-1.97,1.83-3.96,3.47-5.37,1.64-1.38,3.57-2.19,5.42-2.98,.93-.41,1.94-.67,2.92-.82,.98-.17,1.97-.26,2.94-.33,1.94-.13,3.85-.14,5.72-.08,3.73,.12,7.3,.48,10.66,1,6.73,1.04,12.7,2.66,17.68,4.7,4.98,2.03,8.96,4.5,11.76,7.04,1.38,1.28,2.53,2.51,3.34,3.71,.78,1.23,1.15,2.43,1.32,3.4,.17,.98,.14,1.74,.1,2.24-.04,.5-.1,.75-.1,.75Z" style="fill:#263238;"></path></g><g style="opacity:.3;"><path d="M347.53,269.65l3.61-12.43s6.61,7.72-3.61,12.43Z"></path></g></g><g style="opacity:.3;"><path d="M382.36,363.86l4.58-1.11-9.2-32.53s20.38,12.05,29.45,13.46c9.08,1.41,19.96-3.44,19.96-3.44l-24.71-20.67s-36.96-4.9-35.93-5.33,15.84,49.62,15.84,49.62Z"></path></g><g><g><path d="M349.88,347.73l5.73,23.5s-26.03,10.07-26.16,14.68l50.93-1.59-.28-3.9-5.16-34.53-25.06,1.84Z" style="fill:#263238;"></path><path d="M371.28,368.65c.99,.22,1.71,1.25,1.52,2.2-.2,.95-1.29,1.65-2.29,1.44-1-.21-1.9-1.42-1.59-2.34,.31-.92,1.64-1.68,2.56-1.25" style="fill:#e0e0e0;"></path><path d="M380.37,384.32l-.28-3.9-48.73,2.99s-2.23,1-1.93,2.51l50.93-1.59Z" style="fill:#455a64;"></path><path d="M354.77,371.01c.02,.24,1.26,.3,2.51,1.02,1.27,.69,1.94,1.69,2.16,1.59,.23-.05-.19-1.45-1.72-2.29-1.52-.86-3.02-.53-2.95-.32Z" style="fill:#fff;"></path><path d="M349.5,373.27c-.05,.23,1.04,.6,1.92,1.57,.91,.94,1.16,2.01,1.41,2,.23,.03,.36-1.35-.76-2.54-1.11-1.19-2.57-1.25-2.57-1.02Z" style="fill:#fff;"></path><path d="M346.68,379.42c.23,.04,.53-1.14-.15-2.41-.67-1.27-1.86-1.75-1.96-1.55-.13,.2,.65,.87,1.19,1.92,.57,1.04,.68,2.03,.92,2.04Z" style="fill:#fff;"></path><path d="M355.02,365.32c.11,.21,1.24-.15,2.65-.1,1.41,.02,2.52,.43,2.64,.23,.14-.17-.96-1.01-2.62-1.04-1.66-.04-2.8,.74-2.67,.92Z" style="fill:#fff;"></path></g><g><path d="M405.67,289.74s-52.01-16.18-58.18-17.65c-14.56-3.46-22.73,11.46-24.48,18.11s26.16,77.36,26.16,77.36l33.48-2.71-12.62-44.58,24.14,13.51c11.03,6.17,23.92,8.46,36.3,5.89,4.2-.87,12.92-7.26,15.25-9.46,13.84-13.03-4.16-41.04-4.16-41.04l-35.89,.56Z" style="fill:#263238;"></path><path d="M405.67,289.74s.21-.02,.61-.03c.41-.01,1.01-.03,1.79-.05,1.59-.03,3.93-.08,6.98-.15,6.12-.11,15.09-.27,26.52-.48h.08l.04,.07c1.91,3.07,3.7,6.51,5.31,10.3,1.59,3.79,3.02,7.95,3.74,12.5,.35,2.27,.52,4.64,.31,7.05-.2,2.41-.79,4.86-1.95,7.12-1.13,2.28-2.96,4.23-5.03,5.82-2.05,1.62-4.23,3.17-6.53,4.61-1.15,.73-2.34,1.41-3.57,2.04-1.23,.62-2.55,1.2-3.95,1.43-2.76,.55-5.61,.87-8.51,.93-5.8,.13-11.8-.73-17.63-2.63-2.91-.95-5.78-2.16-8.57-3.62-2.77-1.48-5.5-3.06-8.3-4.61-5.58-3.12-11.29-6.31-17.1-9.56l.37-.29c4.03,14.24,8.27,29.21,12.62,44.58l.09,.3-.32,.03h-.03c-11.46,.93-22.7,1.84-33.45,2.71l-.19,.02-.07-.18c-4.57-11.65-8.88-23-12.9-33.95-4-10.96-7.77-21.5-10.84-31.67-.75-2.55-1.46-5.07-2-7.61-.26-1.27-.52-2.53-.43-3.87,.22-1.31,.71-2.47,1.18-3.64,1.98-4.62,4.86-8.74,8.6-11.65,.48-.34,.92-.74,1.43-1.03,.5-.3,1.01-.59,1.51-.89,.51-.27,1.06-.47,1.58-.71,.52-.26,1.07-.41,1.62-.55,.55-.13,1.08-.36,1.65-.4,.56-.07,1.12-.14,1.67-.21,.55-.09,1.11,0,1.66-.02,.55,.03,1.11-.03,1.64,.1,2.18,.28,4.21,.9,6.2,1.47,1.98,.59,3.92,1.16,5.82,1.72,15.12,4.56,27.2,8.34,35.52,10.93,4.15,1.31,7.36,2.32,9.55,3,1.08,.35,1.9,.61,2.47,.79,.55,.18,.83,.28,.83,.28,0,0-.29-.07-.85-.24-.57-.17-1.4-.42-2.48-.75-2.19-.67-5.41-1.65-9.57-2.92-8.33-2.54-20.43-6.27-35.56-10.78-1.89-.55-3.83-1.12-5.82-1.71-1.99-.57-4.02-1.18-6.14-1.44-.52-.13-1.07-.06-1.61-.09-.54,.01-1.09-.07-1.63,.02-.54,.07-1.08,.14-1.63,.21-.55,.04-1.07,.27-1.61,.4-.54,.14-1.08,.29-1.58,.54-.51,.23-1.04,.43-1.54,.7-.49,.29-.98,.58-1.47,.87-.49,.29-.93,.68-1.4,1.02-3.65,2.86-6.51,6.94-8.45,11.5-.46,1.14-.95,2.34-1.14,3.53-.08,1.19,.18,2.48,.43,3.73,.54,2.51,1.24,5.03,2,7.57,3.07,10.15,6.86,20.68,10.87,31.63,4.03,10.94,8.35,22.29,12.92,33.93l-.26-.16c10.75-.87,21.99-1.78,33.45-2.71h.03l-.23,.33c-4.35-15.37-8.58-30.34-12.61-44.59l-.17-.59,.54,.3c5.81,3.25,11.51,6.45,17.09,9.58,2.8,1.55,5.54,3.14,8.29,4.61,2.75,1.45,5.6,2.66,8.49,3.6,5.78,1.9,11.72,2.75,17.47,2.63,2.87-.06,5.7-.37,8.43-.91,1.36-.22,2.62-.78,3.84-1.39,1.22-.62,2.4-1.29,3.54-2.01,2.28-1.43,4.45-2.97,6.5-4.58,2.06-1.57,3.82-3.45,4.94-5.68,1.14-2.2,1.72-4.61,1.92-6.97,.21-2.37,.05-4.72-.29-6.97-.71-4.51-2.11-8.65-3.68-12.43-1.59-3.77-3.37-7.22-5.25-10.27l.12,.07c-11.44,.15-20.41,.27-26.54,.35-3.05,.03-5.38,.06-6.97,.07-.78,0-1.37,0-1.78,0-.4,0-.6-.01-.6-.01Z" style="fill:#455a64;"></path></g><path d="M358.87,301.5s.28,.19,.72,.6c.44,.41,1.05,1.03,1.76,1.83,1.43,1.6,3.25,3.96,4.89,6.81,1.63,2.85,2.75,5.62,3.4,7.67,.33,1.02,.56,1.86,.68,2.45,.13,.59,.19,.91,.15,.92-.08,.02-.45-1.25-1.18-3.25-.73-2-1.89-4.71-3.5-7.53-1.62-2.81-3.37-5.19-4.72-6.83-1.35-1.65-2.26-2.61-2.2-2.67Z" style="fill:#455a64;"></path><path d="M419.52,295.76c-.04,.07-.88-.37-2.25-1.03-1.37-.66-3.29-1.53-5.45-2.4-2.16-.87-4.14-1.6-5.57-2.16-1.43-.55-2.3-.92-2.28-.99,.02-.07,.94,.18,2.4,.64,1.46,.46,3.46,1.15,5.64,2.02,2.17,.88,4.09,1.8,5.43,2.55,1.34,.75,2.12,1.3,2.08,1.36Z" style="fill:#455a64;"></path></g><g style="opacity:.3;"><polygon points="313.39 248.68 309.83 274.2 300.57 311.44 304.99 309.17 312.51 272.77 313.39 248.68 313.39 248.68"></polygon></g><g><g><path d="M260.01,309.72c-1.6-1.4-7.94,6.86-7.94,6.86l-11.06,7.27-3.14,14.95s1.29,7.85,3.16,6.96c1.87-.9,2.77-.58,2.77-.58,0,0,.87,2.27,2.74,1.26,1.87-1.01,2.32-3.27,2.32-3.27,0,0,1.86,1.37,2.96,.58s1.77-2.14,1.77-2.14c0,0,3.18,1.04,3.95-.21,.78-1.24,4.42-4.96,4.54-8.13s-.41-4.8-.41-5.57c0-.77,8.37-.81,8.37-.81l-10.05-17.18Z" style="fill:#e0e0e0;"></path><polygon points="224.4 321.3 224.38 325.03 221.96 326.38 221.88 340.3 223.08 342.69 223.06 346.08 221.84 347.32 221.82 351.51 222.86 352.59 222.81 362.15 225.56 365.03 227.9 365.04 228.13 321.32 224.4 321.3" style="fill:#FF725E;"></polygon><polygon points="231.86 321.34 231.84 325.07 234.25 326.44 234.17 340.37 232.95 342.74 232.94 346.13 234.14 347.39 234.12 351.57 233.07 352.64 233.02 362.21 230.23 365.05 227.9 365.04 228.13 321.32 231.86 321.34" style="fill:#FF725E;"></polygon><polygon points="230.3 326.31 264.65 326.49 264.59 338.95 237.88 338.8 234.14 347.39 230.19 347.36 230.3 326.31" style="fill:#FF725E;"></polygon><path d="M272.44,326.47l-.36,28.14s-6.37,.42-7.57-.49c-.15-.11-.34-.29-.55-.5-2.75-2.77-4.24-6.61-4.22-10.57l.02-4.12,.07-12.45h12.62Z" style="fill:#FF725E;"></path><rect x="225.55" y="365.04" width="4.79" height="4.44" transform="translate(1.96 -1.21) rotate(.31)" style="fill:#FF725E;"></rect></g><g style="opacity:.3;"><path d="M253.37,325.16c0,1.73-1,3.3-2.09,4.64-1.09,1.34-2.27,2.46-3.96,2.81-.94,.19-1.92,.21-2.83,.5-.09,.03-.18,.06-.24,.14-.1,.13-.06,.31-.01,.47,.61,2.13,.92,4.35,.91,6.57l.34-.21c1.18-.26,2.09-1.27,2.5-2.41,.41-1.14,.4-2.38,.25-3.58,.86-.12,1.58-.72,2.22-1.31,1.09-.99,2.16-2.05,2.81-3.38,.65-1.32,.82-2.97,.1-4.25Z"></path></g><path d="M241.78,323.46c-.53,.03-3.88,2.71-4.05,3.21-.17,.5-.13,1.05-.07,1.58,.43,3.61,1.76,7.05,3.08,10.44,.46,1.17,1.1,2.51,2.34,2.73,.73,.13,1.49-.2,2.01-.73,.52-.53,.82-1.24,1.01-1.95,.43-1.61,.35-3.35-.23-4.91-.1-.26-.2-.57-.05-.8,.12-.18,.35-.24,.56-.29,3.76-.93,6.64-4.62,6.64-8.49l-11.24-.79Z" style="fill:#e0e0e0;"></path><path d="M231.99,325c0,.14-1.73,.26-3.87,.26s-3.87-.12-3.87-.26,1.73-.26,3.87-.26,3.87,.12,3.87,.26Z" style="fill:#263238;"></path><path d="M233.98,326.47c0,.14-2.7,.26-6.03,.26s-6.03-.12-6.03-.26,2.7-.26,6.03-.26,6.03,.12,6.03,.26Z" style="fill:#263238;"></path><path d="M233.98,340.18c0,.14-2.7,.26-6.03,.26s-6.03-.12-6.03-.26,2.7-.26,6.03-.26,6.03,.12,6.03,.26Z" style="fill:#263238;"></path><path d="M233.98,342.77c0,.14-2.47,.26-5.53,.26s-5.53-.12-5.53-.26,2.47-.26,5.53-.26,5.53,.12,5.53,.26Z" style="fill:#263238;"></path><path d="M233.98,346.08c0,.14-2.47,.26-5.53,.26s-5.53-.12-5.53-.26,2.47-.26,5.53-.26,5.53,.12,5.53,.26Z" style="fill:#263238;"></path><path d="M233.19,352.56c0,.14-2.3,.26-5.13,.26s-5.13-.12-5.13-.26,2.3-.26,5.13-.26,5.13,.12,5.13,.26Z" style="fill:#263238;"></path><path d="M233.19,362.15c0,.14-2.3,.26-5.13,.26s-5.13-.12-5.13-.26,2.3-.26,5.13-.26,5.13,.12,5.13,.26Z" style="fill:#263238;"></path><path d="M230.63,365.05c0,.14-1.22,.26-2.73,.26s-2.73-.12-2.73-.26,1.22-.26,2.73-.26,2.73,.12,2.73,.26Z" style="fill:#263238;"></path><path d="M234.17,351.41c-.14,0-.26-5.62-.26-12.56s.12-12.56,.26-12.56,.26,5.62,.26,12.56-.12,12.56-.26,12.56Z" style="fill:#263238;"></path><rect x="227.37" y="369.47" width="1.06" height="12.66" style="fill:#e0e0e0;"></rect><path d="M269.59,354.7c-.14,0-.26-6.32-.26-14.12s.12-14.12,.26-14.12,.26,6.32,.26,14.12-.12,14.12-.26,14.12Z" style="fill:#263238;"></path><path d="M253.51,321.84c.07,0,.12,.84,.06,2.21-.08,1.34-.31,3.34-1.52,5.14-1.19,1.79-2.89,2.87-4.19,3.34-1.31,.49-2.18,.45-2.18,.4-.01-.09,.83-.19,2.04-.74,1.21-.54,2.78-1.6,3.89-3.29,1.12-1.68,1.41-3.56,1.58-4.88,.16-1.34,.23-2.18,.31-2.18Z" style="fill:#263238;"></path><path d="M229.58,382.14c0,.3-.75,.54-1.69,.54s-1.69-.24-1.69-.54,.75-.54,1.69-.54,1.69,.24,1.69,.54Z" style="fill:#263238;"></path></g></g></g></svg>
