<svg version="1.1" id="Layer_1" xmlns="http://www.w3.org/2000/svg" xmlns:xlink="http://www.w3.org/1999/xlink" x="0px" y="0px" viewBox="0 0 500 500" style="width: 188px;" xml:space="preserve" data-imageid="running-90" imageName="Running" class="illustrations_image">
<style type="text/css">
	.st0_running-90{fill:#FFC9B0;}
	.st1_running-90{fill:#093F68;}
	.st2_running-90{fill:#F36132;}
	.st3_running-90{fill:#68E1FD;}
	.st4_running-90{fill:#725858;}
	.st5_running-90{fill:#FFFFFF;}
	.st6_running-90{fill:#DFEAEF;}
</style>
<g id="character_running-90">
	<path class="st0_running-90" d="M224.4,341.1l-59.1,27.1l-24,11c-1.5-2.2-7.6-15.7-10.7-20.1l22.6-12.2l56.2-30.4c6.5-3.3,17.6,0.5,20.8,7&#10;&#9;&#9;C233.5,329.9,231,337.8,224.4,341.1C224.5,341.1,224.4,341.1,224.4,341.1z"/>
	<path class="st1_running-90" d="M141.3,381.1c-0.6,0-1.2-0.3-1.6-0.8c-0.6-1-1.8-3.2-3.7-7c-2.3-4.7-5.2-10.6-7-13.1c-0.6-0.8-0.4-2,0.4-2.6&#10;&#9;&#9;c0.1,0,0.1-0.1,0.2-0.1l78.8-42.7c3.6-1.8,8.4-1.9,13.1-0.3s8.5,4.6,10.3,8.1c3.7,7.4,0.8,16.4-6.6,20.2c0,0-0.1,0-0.1,0h-0.1&#10;&#9;&#9;l-83.1,38.1C141.9,381.1,141.6,381.1,141.3,381.1z M133.3,359.8c1.9,3.1,4.2,7.9,6.2,11.8c1,2,1.9,3.9,2.6,5.2l81.5-37.4&#10;&#9;&#9;c5.6-2.8,7.8-9.5,5-15.1c0,0,0,0,0,0c-1.3-2.6-4.4-5-8.1-6.2s-7.6-1.3-10.2,0L133.3,359.8z M224.5,341.1L224.5,341.1z"/>
	<path class="st2_running-90" d="M165.3,368.2l-24,11c-1.5-2.2-7.6-15.7-10.7-20.1l22.6-12.2C157.2,353.8,161.7,361.8,165.3,368.2z"/>
	<path class="st1_running-90" d="M141.3,381.1c-0.6,0-1.2-0.3-1.6-0.8c-0.6-1-1.8-3.2-3.7-7c-2.3-4.7-5.2-10.6-7-13.1c-0.6-0.8-0.4-2,0.4-2.6&#10;&#9;&#9;c0.1,0,0.1-0.1,0.2-0.1l22.6-12.2c0.9-0.5,2-0.2,2.5,0.7l1.8,3.2c3.5,6.2,7.2,12.7,10.3,18.2c0.3,0.5,0.3,1,0.2,1.5&#10;&#9;&#9;c-0.2,0.5-0.5,0.9-1,1.1l-24,11C141.9,381.1,141.6,381.1,141.3,381.1z M133.3,359.8c1.9,3.1,4.2,7.9,6.2,11.8c1,2,1.9,3.9,2.6,5.2&#10;&#9;&#9;l20.6-9.5c-2.9-5.1-6.2-10.9-9.3-16.4l-0.9-1.6L133.3,359.8z"/>
	<path class="st3_running-90 targetColor" d="M130.6,359.1l-14.7,6.7l25.6,41.5c0.3,0.4,0.9,0.5,1.4,0.2c0.2-0.1,0.3-0.4,0.4-0.6l0.3-28.8L130.6,359.1z" style="fill: rgb(104, 225, 253);"/>
	<path class="st1_running-90" d="M142.4,409.7c-1,0-1.9-0.5-2.4-1.4l-25.6-41.5c-0.5-0.9-0.3-2,0.6-2.6c0.1,0,0.1-0.1,0.2-0.1l14.7-6.7&#10;&#9;&#9;c0.8-0.4,1.8-0.1,2.3,0.6l13.1,19.1c0.2,0.3,0.3,0.7,0.3,1.1l-0.3,28.8c0,0.1,0,0.1,0,0.2c-0.1,1.2-1,2.2-2.2,2.4&#10;&#9;&#9;C142.8,409.7,142.6,409.7,142.4,409.7z M143.2,406.3L143.2,406.3z M118.6,366.6l22.9,37l0.3-24.9l-11.8-17.3L118.6,366.6z"/>
	<path class="st0_running-90" d="M398.2,175.6c-1.8-1.2-4.4,4-4.4,4c-0.5-1-1.2-2-2-2.9c-0.9-0.8-4.5,3.1-5.8,4.9s-4,10.8-4,10.8L345.8,224&#10;&#9;&#9;l-30.7-19.2c-5.9-3.7-13.7-1.9-17.4,4c-3.7,5.9-1.9,13.7,4,17.4l39.3,24.6c5,3.1,11.5,2.4,15.7-1.8l38.2-45.5c0,0,11-8.7,12.1-14.7&#10;&#9;&#9;S400,176.8,398.2,175.6z"/>
	<path class="st1_running-90" d="M347.6,254.6c-2.7,0-5.4-0.8-7.7-2.2l-39.3-24.6c-6.9-4.1-9.2-13-5.1-19.9s13-9.2,19.9-5.1&#10;&#9;&#9;c0.2,0.1,0.4,0.3,0.6,0.4l29.5,18.5l34.7-30.3c0.7-2.3,2.8-9.1,4.1-10.9c0-0.1,4.1-5.4,6.8-5.7c0.7-0.1,1.3,0.1,1.9,0.6&#10;&#9;&#9;c0.3,0.2,0.5,0.5,0.7,0.8c0.7-1.1,1.8-2,3-2.4c0.8-0.2,1.7-0.1,2.4,0.4c1.1,0.7,10.8,7.4,9.5,15c-1.1,6.4-10.9,14.4-12.6,15.8&#10;&#9;&#9;l-38.1,45.4c-2.2,2.3-5.1,3.8-8.3,4.2C349.1,254.5,348.4,254.6,347.6,254.6z M308.4,204.7c-5.9,0-10.8,4.8-10.8,10.7&#10;&#9;&#9;c0,3.7,1.9,7.2,5.1,9.1l39.3,24.6c2.2,1.4,4.8,1.9,7.3,1.5c2.3-0.3,4.4-1.4,6-3.1l38.1-45.4c0.1-0.1,0.2-0.2,0.3-0.3&#10;&#9;&#9;c2.9-2.3,10.6-9.2,11.4-13.6c0.7-4.1-4.3-8.8-7.4-11c-0.8,0.9-1.5,1.9-2.1,3c-0.3,0.6-1,1-1.7,1c-0.7,0-1.4-0.4-1.7-1&#10;&#9;&#9;c-0.2-0.4-0.7-1.1-1-1.7c-1.4,1.1-2.6,2.4-3.7,3.9c-0.7,0.9-2.5,6-3.7,10.2c-0.1,0.3-0.3,0.6-0.6,0.9L347,225.4&#10;&#9;&#9;c-0.6,0.5-1.5,0.6-2.2,0.2L314,206.3C312.3,205.3,310.4,204.7,308.4,204.7L308.4,204.7z"/>
	<polygon class="st1_running-90" points="215.9,256.1 184.4,328.1 224.3,345 266.3,287.3 &#9;"/>
	<path class="st1_running-90" d="M224.3,346.9c-0.3,0-0.5-0.1-0.7-0.1l-39.9-16.9c-0.4-0.2-0.8-0.6-1-1c-0.2-0.5-0.2-1,0-1.5l31.5-72&#10;&#9;&#9;c0.2-0.5,0.6-0.9,1.2-1.1c0.5-0.2,1.1-0.1,1.6,0.2l50.3,31.2c0.4,0.3,0.8,0.7,0.9,1.2c0.1,0.5,0,1-0.3,1.5l-42,57.8&#10;&#9;&#9;C225.4,346.7,224.9,346.9,224.3,346.9z M186.9,327.1l36.7,15.6l39.9-54.9l-46.8-29L186.9,327.1z"/>
	<path class="st3_running-90 targetColor" d="M285.3,185.2l29.8,21.4c7,5,8.6,14.8,3.6,21.8l-40,55.8l0,0l-55.2-39.6l0,0l40-55.8&#10;&#9;&#9;C268.5,181.8,278.3,180.2,285.3,185.2C285.3,185.2,285.3,185.2,285.3,185.2z" style="fill: rgb(104, 225, 253);"/>
	<path class="st1_running-90" d="M278.7,286c-0.4,0-0.8-0.1-1.1-0.4L222.4,246c-0.4-0.3-0.7-0.7-0.8-1.2c-0.1-0.5,0-1,0.3-1.4l39.7-55.3&#10;&#9;&#9;c5.8-8.1,17.1-9.9,25.1-4.1l29,20.8c8.1,5.8,9.9,17,4.1,25.1c0,0,0,0,0,0l-39.7,55.3C279.9,285.7,279.3,286,278.7,286z&#10;&#9;&#9; M226.1,244.1l52.2,37.4l38.6-53.8c4.6-6.4,3.1-15.3-3.3-19.9c0,0,0,0,0,0l-29-20.8c-6.4-4.6-15.3-3.1-19.9,3.3L226.1,244.1z"/>
	<path class="st4_running-90" d="M322.4,94.5c4.6,0.4,9.1,1.6,13.3,3.7c4.6,2.5,9.2,5.4,14.3,6.4s11.2-0.3,14-4.8c3.3,7.3,2.1,15.8-0.3,23.4&#10;&#9;&#9;c-0.6,2.2-1.5,4.4-2.7,6.4c-1.2,1.8-2.5,3.6-3.9,5.2c-2.1,2.4-4.3,4.5-5.2,7.6c-1.1,3.6-2.6,7-4.4,10.4&#10;&#9;&#9;c-3.7,7.5-7.8,14.8-11.8,22.2l-67.7-19.5c1.1-6.6,2.5-13.3,4-19.8c1-4.4,2.1-8.3,2-12.8c-0.1-4.8,0.5-9.6,3.4-13.7s8.3-6.8,13-5.1&#10;&#9;&#9;c4.4-4.7,10.2-7.9,16.5-9C312.1,94.1,317.2,93.9,322.4,94.5z"/>
	<path class="st1_running-90" d="M335.8,176.9c-0.2,0-0.4,0-0.5-0.1l-67.7-19.5c-0.9-0.3-1.5-1.2-1.3-2.1c1.1-6.4,2.4-12.9,4-19.9l0.4-1.9&#10;&#9;&#9;c1-3.4,1.5-6.9,1.5-10.4c-0.1-6.2,1-11,3.7-14.8c2.9-4.2,8.5-7.5,14-6.2c4.6-4.5,10.4-7.6,16.8-8.8c5.2-0.9,10.6-1.1,15.9-0.5l0,0&#10;&#9;&#9;c4.9,0.4,9.6,1.7,14,3.9l2.4,1.3c3.8,2.1,7.4,4.1,11.4,4.9s9.6-0.1,12-3.9c0.4-0.6,1-0.9,1.7-0.9c0.7,0,1.3,0.5,1.6,1.1&#10;&#9;&#9;c3,6.6,3,14.7-0.2,24.8c-0.7,2.4-1.6,4.7-2.8,6.8c-1.2,1.9-2.6,3.7-4.1,5.4c-0.4,0.4-0.8,0.9-1.1,1.3c-1.7,1.9-3.1,3.5-3.7,5.6&#10;&#9;&#9;c-1.1,3.6-2.6,7.1-4.3,10.4l-0.1,0.3c-2.4,5-5.1,9.9-7.7,14.6c-1.4,2.5-2.7,5.1-4.1,7.6C337.2,176.5,336.5,176.9,335.8,176.9z&#10;&#9;&#9; M270.2,154.1l64.6,18.6c1.1-2.1,2.3-4.2,3.4-6.3c2.6-4.7,5.2-9.6,7.6-14.5l0.1-0.3c1.6-3.1,3-6.4,4.1-9.8c0.9-3,2.7-5.1,4.5-7.1&#10;&#9;&#9;l1.1-1.2c1.4-1.5,2.6-3.2,3.7-4.9c1-1.9,1.9-3.9,2.5-6c2.4-7.7,2.9-14,1.4-19.3c-3.7,3.2-9.2,3.9-13.7,3s-8.6-3.2-12.5-5.3&#10;&#9;&#9;l-2.4-1.3c-3.9-1.9-8.2-3.1-12.6-3.4l0,0c-4.9-0.5-9.9-0.3-14.8,0.5c-5.9,1.1-11.4,4.1-15.5,8.5c-0.5,0.5-1.3,0.7-2,0.5&#10;&#9;&#9;c-4.1-1.4-8.6,1.2-10.8,4.4s-3.1,7.2-3,12.6c0,3.9-0.6,7.7-1.6,11.4l-0.4,1.8C272.5,142.4,271.2,148.3,270.2,154.1z"/>
	<path class="st0_running-90" d="M295.8,193.5l12.5,3.6l0,0l-2.8,9.7c-0.5,1.6-2.1,2.5-3.7,2l0,0l-6.9-2c-1.6-0.5-2.5-2.1-2-3.7c0,0,0,0,0,0&#10;&#9;&#9;L295.8,193.5L295.8,193.5z"/>
	<path class="st1_running-90" d="M301,210.2c-0.7,0-1.4-0.1-2.1-0.3l-1.9-0.5c-3.9-1.1-6.2-5.3-5.1-9.2l2-7.2c0.3-1,1.3-1.6,2.3-1.3l12.5,3.6&#10;&#9;&#9;c0.5,0.1,0.9,0.5,1.1,0.9c0.2,0.4,0.3,1,0.2,1.4l-2.1,7.2C307.2,208.1,304.3,210.2,301,210.2L301,210.2z M297.1,195.8l-1.6,5.4&#10;&#9;&#9;c-0.6,1.9,0.6,4,2.5,4.5c0,0,0,0,0,0l1.9,0.6l0,0c1.9,0.6,4-0.6,4.5-2.5c0,0,0,0,0,0l1.6-5.4L297.1,195.8z"/>
	
		<ellipse transform="matrix(0.2771 -0.9608 0.9608 0.2771 81.782 455.5013)" class="st0_running-90" cx="343.6" cy="173.4" rx="10.9" ry="9.8"/>
	<path class="st1_running-90" d="M343,186.1c-1,0-2-0.1-3-0.4c-6.2-1.8-9.6-8.8-7.7-15.6c0.9-3.2,2.9-5.9,5.7-7.7c5.1-3.3,11.9-1.9,15.2,3.2&#10;&#9;&#9;c0.3,0.5,0.6,0.9,0.8,1.4c1.4,3,1.7,6.4,0.7,9.6l0,0C353.2,182.3,348.2,186.1,343,186.1z M344.2,164.4c-1.4,0-2.9,0.4-4.1,1.2&#10;&#9;&#9;c-2,1.3-3.4,3.3-4.1,5.6c-1.4,4.8,0.9,9.7,5.1,10.9s8.7-1.7,10.1-6.5l0,0c0.7-2.3,0.5-4.7-0.5-6.9c-0.9-1.9-2.6-3.4-4.6-4&#10;&#9;&#9;C345.5,164.5,344.8,164.4,344.2,164.4L344.2,164.4z"/>
	<path class="st0_running-90" d="M300.9,198.1c-20.6-6-31.8-36.7-25.9-57.1l6.6,4.7l10.3-23.8c0,0,24.2,6.8,35.1,10c20,5.7,29.4,2.7,29.4,2.7&#10;&#9;&#9;l-10.6,36.7C340,191.6,321.5,204.1,300.9,198.1z"/>
	<path class="st1_running-90" d="M311.2,201.5c-3.7,0-7.4-0.5-10.9-1.6l0,0c-21.6-6.2-33.2-38.4-27.2-59.4c0.2-0.6,0.4-0.5,1-0.7&#10;&#9;&#9;c0.6-0.2,1.2-0.1,1.7,0.2l4.9,2.9l9.4-21.8c0.4-0.9,1.3-1.3,2.2-1.1c0,0,24.2,6.8,35.1,10c19.1,5.5,28.2,2.7,28.3,2.7&#10;&#9;&#9;c1-0.3,2.1,0.2,2.4,1.2c0.1,0.3,0.1,0.7,0,1.1l-10.6,36.7C342.4,190.3,327.9,201.5,311.2,201.5z M301.4,196.3&#10;&#9;&#9;c18.9,5.4,36.9-5.3,42.7-25.6l9.8-33.8c-4.4,0.5-13.4,0.7-27.3-3.3c-9.2-2.6-28-7.9-33.6-9.5l-9.7,22.4c-0.2,0.5-0.7,0.9-1.2,1.1&#10;&#9;&#9;c-0.5,0.2-1.1,0-1.6-0.3l-4.4-3.1C271.2,166.8,285.6,191.8,301.4,196.3L301.4,196.3z"/>
	
		<ellipse transform="matrix(0.2771 -0.9608 0.9608 0.2771 71.3418 403.0038)" class="st1_running-90" cx="303.5" cy="154.1" rx="3.5" ry="3.5"/>
	<circle class="st1_running-90" cx="336.3" cy="163.6" r="3.5"/>
	<path class="st1_running-90" d="M321.8,170h-0.1c-2.2-0.2-4.4-0.8-6.4-1.8c-0.9-0.5-1.3-1.6-0.9-2.5c0.5-0.9,1.6-1.3,2.5-0.9&#10;&#9;&#9;c1.3,0.6,2.7,1.1,4.1,1.4c0.1-2.6-0.1-5.3-0.7-7.9c-0.2-1,0.4-2,1.5-2.2c0,0,0,0,0,0c1-0.2,2,0.5,2.2,1.5c0.7,3.4,1.6,9.4-0.2,11.5&#10;&#9;&#9;C323.4,169.7,322.6,170,321.8,170z"/>
	<path class="st1_running-90" d="M314,150.2c-0.4,0-0.9-0.1-1.3-0.2l-15.9-5.8c-2-0.7-3-2.9-2.2-4.8c0.7-2,2.9-3,4.8-2.2l15.8,5.9&#10;&#9;&#9;c1.9,0.7,3,2.9,2.2,4.8C317,149.3,315.6,150.3,314,150.2L314,150.2z"/>
	<path class="st1_running-90" d="M343.7,153.8L343.7,153.8l-17-0.4c-2.1-0.1-3.7-1.8-3.7-3.9c0,0,0,0,0,0c0-2,1.7-3.7,3.7-3.7c0,0,0.1,0,0.1,0&#10;&#9;&#9;l16.9,0.4c2.1,0.1,3.7,1.9,3.5,4C347.2,152.2,345.6,153.7,343.7,153.8L343.7,153.8z"/>
	<path class="st0_running-90" d="M281.6,145.8c0,0-7.2-8.8-14.3-2.2s-6.4,21.6,9.6,21.9"/>
	<path class="st1_running-90" d="M276.9,167.4L276.9,167.4c-7.4-0.1-12.8-3.4-14.9-8.8c-2-5.8-0.5-12.2,4-16.3c2-2,4.8-3.1,7.6-2.9&#10;&#9;&#9;c5.3,0.4,9.3,5.1,9.4,5.3c0.6,0.8,0.5,2-0.3,2.6c-0.8,0.6-1.9,0.5-2.6-0.3l0,0c0,0-3.1-3.7-6.8-4c-1.8-0.1-3.6,0.6-4.8,1.9&#10;&#9;&#9;c-3.3,3.1-4.5,7.9-3.1,12.2c1.5,4,5.6,6.3,11.4,6.4c1,0,1.9,0.8,1.9,1.9C278.8,166.5,277.9,167.4,276.9,167.4L276.9,167.4z"/>
	<path class="st1_running-90" d="M311.9,184.8c-0.2,0-0.3,0-0.5-0.1c-6.4-1.6-18.1-8.1-16.6-21.2c0.2-1,1.1-1.7,2.2-1.6c1,0.2,1.7,1,1.6,2&#10;&#9;&#9;c-1.6,13.1,13.1,17,13.7,17.1c1,0.3,1.6,1.3,1.3,2.3C313.5,184.2,312.7,184.8,311.9,184.8z"/>
	<path class="st1_running-90" d="M223.5,244.5c0,0-19.9,24.9-15.9,40.9s78.8,48,78.8,48l30.9-26.1L223.5,244.5z"/>
	<path class="st1_running-90" d="M286.4,335.3c-0.3,0-0.5-0.1-0.7-0.1c-7.8-3.3-75.8-32.8-79.9-49.2c-4.1-16.7,15.5-41.4,16.3-42.5&#10;&#9;&#9;c0.6-0.8,1.7-0.9,2.5-0.4l93.8,62.8c0.9,0.6,1.1,1.8,0.5,2.6c-0.1,0.1-0.2,0.3-0.3,0.4l-30.9,26.1&#10;&#9;&#9;C287.3,335.1,286.9,335.3,286.4,335.3z M223.9,247.1c-4,5.3-17.7,25-14.5,37.9c3,12.2,55.4,37,76.7,46.2l28.1-23.7L223.9,247.1z"/>
	<path class="st0_running-90" d="M313.7,325.6l-55.3,34.1L236,373.6c-1.8-2-9.5-14.7-13.1-18.7l21-14.9l52-37.1c6-4,17.5-1.6,21.5,4.4&#10;&#9;&#9;C321.4,313.3,319.8,321.5,313.7,325.6C313.8,325.5,313.7,325.5,313.7,325.6z"/>
	<path class="st1_running-90" d="M236,375.5c-0.5,0-1.1-0.2-1.4-0.6c-1.6-2.1-3.1-4.3-4.5-6.5c-2.9-4.4-6.5-9.8-8.6-12.1&#10;&#9;&#9;c-0.7-0.8-0.7-2,0.1-2.7c0.1-0.1,0.1-0.1,0.2-0.2l73-52c6.9-4.6,19.5-2,24.2,4.9c4.6,6.9,2.8,16.2-4.1,20.8c0,0-0.1,0-0.1,0.1h0&#10;&#9;&#9;l-77.8,48C236.7,375.3,236.4,375.4,236,375.5z M225.6,355.2c2.2,2.9,5.1,7.3,7.6,11c1.2,1.9,2.4,3.7,3.2,4.9l76.2-47.1&#10;&#9;&#9;c5.2-3.5,6.6-10.5,3.1-15.6c0,0,0,0,0,0c-3.5-5.2-13.8-7.4-18.9-3.9L225.6,355.2z M313.8,325.6L313.8,325.6z"/>
	<path class="st2_running-90" d="M258.4,359.7L236,373.6c-1.8-2-9.5-14.7-13.1-18.7l21-14.9L258.4,359.7z"/>
	<path class="st1_running-90" d="M236,375.5c-0.5,0-1.1-0.2-1.4-0.6c-1.6-2.1-3.1-4.3-4.5-6.5c-2.9-4.4-6.5-9.8-8.6-12.1&#10;&#9;&#9;c-0.7-0.8-0.7-2,0.1-2.7c0.1-0.1,0.1-0.1,0.2-0.2l21-14.9c0.8-0.6,2-0.4,2.6,0.4l2,2.6c4.3,5.8,8.9,12,12.7,17.1&#10;&#9;&#9;c0.3,0.4,0.4,1,0.3,1.5c-0.1,0.5-0.4,1-0.9,1.2l-22.5,13.9C236.7,375.4,236.4,375.5,236,375.5z M225.6,355.2&#10;&#9;&#9;c2.2,2.9,5.1,7.3,7.6,11c1.2,1.9,2.4,3.7,3.2,4.9l19.3-11.9l-11.4-15.4l-0.9-1.2L225.6,355.2z"/>
	<path class="st3_running-90 targetColor" d="M275.8,110.7l82.7,21.7c1.2,0.3,1.9,1.5,1.6,2.7l-2.4,9.3c-0.3,1.2-1.5,1.9-2.7,1.6l-82.7-21.7&#10;&#9;&#9;c-1.2-0.3-1.9-1.5-1.6-2.7l2.4-9.3C273.4,111.1,274.6,110.4,275.8,110.7z" style="fill: rgb(104, 225, 253);"/>
	<path class="st1_running-90" d="M354.1,147.5c-0.5,0-1-0.1-1.5-0.2l-78.9-20.6c-3.3-0.9-5.2-4.2-4.4-7.5l1.4-5.5c0.9-3.3,4.2-5.2,7.5-4.4&#10;&#9;&#9;l78.9,20.6c3.3,0.9,5.2,4.2,4.4,7.5l-1.5,5.5C359.3,145.6,356.9,147.5,354.1,147.5z M276.7,112.9c-1.1,0-2,0.7-2.3,1.8l-1.4,5.5&#10;&#9;&#9;c-0.3,1.3,0.4,2.5,1.7,2.9c0,0,0,0,0,0l78.9,20.6l0,0c0.6,0.2,1.2,0.1,1.8-0.2c0.5-0.3,0.9-0.8,1.1-1.4l1.4-5.5&#10;&#9;&#9;c0.3-1.3-0.4-2.5-1.7-2.9c0,0,0,0,0,0L277.3,113C277.1,112.9,276.9,112.9,276.7,112.9z"/>
	<path class="st3_running-90 targetColor" d="M222.8,354.9l-13.7,8.5l30.6,38.1c0.4,0.4,1,0.4,1.4,0.1c0.2-0.2,0.3-0.4,0.3-0.6l-3.2-28.6L222.8,354.9z" style="fill: rgb(104, 225, 253);"/>
	<path class="st1_running-90" d="M240.4,403.7c-0.9,0-1.7-0.4-2.2-1.1l-30.5-38.1c-0.3-0.4-0.5-1-0.4-1.5c0.1-0.5,0.4-1,0.9-1.3l13.7-8.5&#10;&#9;&#9;c0.8-0.5,1.8-0.3,2.4,0.4l15.3,17.3c0.3,0.3,0.4,0.6,0.5,1l3.2,28.6c0,0.1,0,0.1,0,0.2C243.2,402.4,242,403.7,240.4,403.7&#10;&#9;&#9;C240.4,403.7,240.4,403.7,240.4,403.7L240.4,403.7z M241.1,400.2L241.1,400.2z M211.9,363.8l27.2,34l-2.8-24.8l-13.9-15.7&#10;&#9;&#9;L211.9,363.8z"/>
	<path class="st0_running-90" d="M283.9,187.6c-16-14-34.7-30.8-48.2-32.6c-12-1.6-43.1,8.8-60.2,16c0,0-19.2,3.4-21.8,7.1s3.2,18.1,5.8,19.9&#10;&#9;&#9;s11.8-3.2,11.8-3.2s2.9,3.8,4.9,2.9s4.6-10.1,4.6-10.1c19.5-5.1,45.8-6.5,51.3-6.6c6.6,2.2,18,11.9,34.7,26.4&#10;&#9;&#9;c5.5,4.8,13.8,4.2,18.5-1.3C290,200.6,289.4,192.3,283.9,187.6L283.9,187.6z"/>
	<path class="st1_running-90" d="M275.3,212.5c-3.6,0-7.1-1.3-9.9-3.7c-16.3-14.1-27.5-23.6-33.7-25.9c-5.2,0.1-30.2,1.4-49.5,6.2&#10;&#9;&#9;c-1.3,4.3-3.1,9.2-5.2,10.2c-2.4,1.1-4.8-0.8-6.2-2.2c-3.5,1.8-9.6,4.3-12.4,2.4c-2.6-1.8-5.9-9.9-6.9-15.4&#10;&#9;&#9;c-0.6-3.3-0.4-5.7,0.7-7.2c2.8-4,17.9-6.9,22.8-7.8c17-7.1,48.4-17.8,61-16.1c13.4,1.8,31,17.2,46.6,30.8l2.6,2.3&#10;&#9;&#9;c6.3,5.4,7,14.9,1.5,21.2C283.8,210.6,279.7,212.5,275.3,212.5L275.3,212.5z M232,179.2c0.2,0,0.4,0,0.6,0.1&#10;&#9;&#9;c6.9,2.3,17.9,11.6,35.3,26.7c4.7,4.1,11.8,3.6,15.9-1.1c4.1-4.7,3.6-11.8-1.1-15.9l0,0l-2.6-2.3c-15.2-13.2-32.4-28.2-44.6-29.9&#10;&#9;&#9;c-11.2-1.5-41.4,8.4-59.3,15.9c-0.1,0.1-0.3,0.1-0.4,0.1c-8.9,1.6-19.2,4.4-20.6,6.3c-1.8,2.5,3.2,15.8,5.3,17.3&#10;&#9;&#9;c1,0.5,5.7-1.1,9.9-3.3c0.8-0.4,1.8-0.2,2.4,0.5c0.7,1,1.6,1.7,2.6,2.3c0.8-0.9,2.4-4.9,3.5-8.9c0.2-0.6,0.7-1.2,1.3-1.3&#10;&#9;&#9;C200.5,180.5,227.5,179.2,232,179.2L232,179.2z"/>
	<path class="st1_running-90" d="M396.8,193.4h-0.1c-2.8-0.1-5.3-2.4-7.4-7c-0.5-0.9-0.1-2.1,0.8-2.5c0.9-0.5,2.1-0.1,2.5,0.8c0,0,0,0.1,0,0.1&#10;&#9;&#9;c1.6,3.5,3.2,4.8,4.1,4.8c0.5-0.1,0.9-0.3,1.1-0.7c-0.2-1.2-2.7-4.9-5.4-8.1c-0.7-0.8-0.6-2,0.2-2.7c0.8-0.7,2-0.6,2.7,0.2&#10;&#9;&#9;c5.2,5.9,7.2,10,6,12.1C400.4,192.2,398.7,193.3,396.8,193.4z M397.9,189.1L397.9,189.1z"/>
	<path class="st5_running-90" d="M241.6,313c-0.4,0-0.8-0.1-1.1-0.3c-0.7-0.5-18.1-12.4-25.2-22.2c-7.4-10.2-6-19-6-19.4c0.2-1,1.2-1.7,2.2-1.5&#10;&#9;&#9;c1,0.2,1.7,1.1,1.5,2.1c0,0.1-1.1,7.8,5.3,16.6c6.7,9.3,24.1,21.2,24.3,21.3c0.9,0.6,1.1,1.7,0.5,2.6&#10;&#9;&#9;C242.8,312.7,242.2,313,241.6,313L241.6,313z"/>
</g>
<g id="lines_running-90">
	<path class="st6_running-90" d="M184,222.4h-80.5c-1,0-1.9-0.8-1.9-1.9c0-1,0.8-1.9,1.9-1.9c0,0,0,0,0,0H184c1,0,1.9,0.8,1.9,1.9&#10;&#9;&#9;C185.9,221.6,185,222.4,184,222.4z"/>
	<path class="st6_running-90" d="M186.1,262.5h-49.4c-1,0-1.9-0.8-1.9-1.9s0.8-1.9,1.9-1.9l0,0h49.4c1,0,1.9,0.8,1.9,1.9&#10;&#9;&#9;S187.1,262.5,186.1,262.5z"/>
	<path class="st6_running-90" d="M136.6,302.5H93c-1,0-1.9-0.8-1.9-1.9s0.8-1.9,1.9-1.9h43.6c1,0,1.9,0.8,1.9,1.9S137.6,302.5,136.6,302.5&#10;&#9;&#9;L136.6,302.5z"/>
	<path class="st6_running-90" d="M217.8,142.4h-73.4c-1,0-1.9-0.8-1.9-1.9c0-1,0.8-1.9,1.9-1.9h73.4c1,0,1.9,0.8,1.9,1.9&#10;&#9;&#9;C219.7,141.6,218.9,142.4,217.8,142.4z"/>
</g>
</svg>