<svg version="1.1" id="Layer_1" xmlns="http://www.w3.org/2000/svg" xmlns:xlink="http://www.w3.org/1999/xlink" x="0px" y="0px" viewBox="0 0 500 500" style="width: 188px;" xml:space="preserve" data-imageid="savings-1-79" imageName="Savings 1" class="illustrations_image">
<style type="text/css">
	.st0_savings-1-79{fill:#FFBC0E;}
	.st1_savings-1-79{fill:#093F68;}
	.st2_savings-1-79{fill:#68E1FD;}
	.st3_savings-1-79{fill:#DFEAEF;}
</style>
<g id="coins-3_savings-1-79">
	<path class="st0_savings-1-79" d="M255.4,160.8h-3.5v38.5h3.5c10.6,0.2,19.4-8.2,19.7-18.8s-8.2-19.4-18.8-19.7&#10;&#9;&#9;C256,160.8,255.7,160.8,255.4,160.8z"/>
	<path class="st1_savings-1-79" d="M255.4,201.1h-3.5c-1,0-1.8-0.8-1.8-1.8l0,0v-38.5c0-1,0.8-1.8,1.8-1.8c0,0,0,0,0,0h3.5&#10;&#9;&#9;c11.6-0.3,21.3,9,21.5,20.6s-9,21.3-20.6,21.5C256,201.1,255.7,201.1,255.4,201.1z M253.7,197.5h1.7c9.6,0.2,17.6-7.4,17.8-17&#10;&#9;&#9;s-7.4-17.6-17-17.8c-0.3,0-0.6,0-0.8,0h-1.7V197.5z"/>
	<circle class="st0_savings-1-79" cx="250.5" cy="180.1" r="19.2"/>
	<path class="st1_savings-1-79" d="M250.5,201.1c-11.6,0-21.1-9.4-21.1-21.1s9.4-21.1,21.1-21.1c11.6,0,21.1,9.4,21.1,21.1&#10;&#9;&#9;C271.6,191.7,262.1,201.1,250.5,201.1z M250.5,162.7c-9.6,0-17.4,7.8-17.4,17.4c0,9.6,7.8,17.4,17.4,17.4c9.6,0,17.4-7.8,17.4-17.4&#10;&#9;&#9;c0,0,0,0,0,0C267.9,170.5,260.1,162.7,250.5,162.7z"/>
	<path class="st0_savings-1-79" d="M281.9,96.1h-3.5v38.5h3.5c10.6,0.2,19.4-8.2,19.7-18.8s-8.2-19.4-18.8-19.7C282.5,96.1,282.2,96.1,281.9,96.1&#10;&#9;&#9;L281.9,96.1z"/>
	<path class="st1_savings-1-79" d="M281.9,136.4h-3.5c-1,0-1.8-0.8-1.8-1.8c0,0,0,0,0,0V96.1c0-1,0.8-1.8,1.8-1.8h3.5c11.6-0.3,21.3,9,21.5,20.6&#10;&#9;&#9;c0.3,11.6-9,21.3-20.6,21.5C282.5,136.4,282.2,136.4,281.9,136.4L281.9,136.4z M280.2,132.8h1.7c9.6,0.2,17.6-7.4,17.8-17&#10;&#9;&#9;s-7.4-17.6-17-17.8c-0.3,0-0.6,0-0.8,0h-1.7V132.8z"/>
	<circle class="st0_savings-1-79" cx="277" cy="115.4" r="19.2"/>
	<path class="st1_savings-1-79" d="M277,136.4c-11.6,0-21.1-9.4-21.1-21.1c0-11.6,9.4-21.1,21.1-21.1c11.6,0,21.1,9.4,21.1,21.1c0,0,0,0,0,0&#10;&#9;&#9;C298.1,127,288.6,136.4,277,136.4z M277,98c-9.6,0-17.4,7.8-17.4,17.4s7.8,17.4,17.4,17.4s17.4-7.8,17.4-17.4&#10;&#9;&#9;C294.4,105.8,286.6,98,277,98z"/>
	<path class="st0_savings-1-79" d="M217.2,116.3l-2.8,2.1l23,30.8l2.8-2.1c8.7-6.1,10.9-18,4.9-26.8c-6.1-8.7-18-10.9-26.8-4.9&#10;&#9;&#9;C217.9,115.7,217.5,116,217.2,116.3z"/>
	<path class="st1_savings-1-79" d="M237.4,151h-0.3c-0.5-0.1-0.9-0.3-1.2-0.7l-23-30.8c-0.6-0.8-0.4-2,0.4-2.6l2.8-2.1l0,0&#10;&#9;&#9;c9.3-7.1,22.5-5.3,29.5,4c7.1,9.3,5.3,22.5-4,29.5c-0.1,0.1-0.2,0.2-0.3,0.2l-2.8,2.1C238.2,150.9,237.8,151,237.4,151z&#10;&#9;&#9; M216.9,118.7l20.9,27.9l1.4-1c7.8-5.6,9.6-16.5,4-24.3c-5.6-7.8-16.5-9.6-24.3-4c-0.2,0.1-0.3,0.3-0.5,0.4L216.9,118.7z"/>
	<circle class="st0_savings-1-79" cx="224.8" cy="134.6" r="19.2"/>
	<path class="st1_savings-1-79" d="M224.8,155.7c-11.6,0-21.1-9.4-21.1-21c0-11.6,9.4-21.1,21-21.1c6.7,0,12.9,3.1,16.9,8.5l0,0&#10;&#9;&#9;c7,9.3,5.1,22.5-4.2,29.5C233.8,154.2,229.3,155.7,224.8,155.7L224.8,155.7z M224.7,117.2c-9.6,0-17.4,7.8-17.4,17.5&#10;&#9;&#9;s7.8,17.4,17.5,17.4s17.4-7.8,17.4-17.5c0-3.7-1.2-7.4-3.5-10.4C235.4,119.8,230.2,117.2,224.7,117.2z"/>
</g>
<g id="piggy-bank_savings-1-79">
	<path class="st2_savings-1-79 targetColor" d="M223.6,231.1c9.9,14,10.5,38.8-3.4,48.7s-37.2,1.1-47.1-12.8s-19.6-48.4-8-58S213.7,217.2,223.6,231.1z" style="fill: rgb(104, 225, 253);"/>
	<path class="st1_savings-1-79" d="M205.9,286c-3.8,0-7.6-0.6-11.3-1.8c-9.3-2.9-17.9-8.8-23-16c-5.3-7.5-10.1-19.8-12.4-31.4&#10;&#9;&#9;c-1.6-8.1-3-22.7,4.7-29.1c3.3-2.8,8.4-3.7,15.1-2.9c15.9,2.1,38.3,14.4,46.1,25.3l0,0c10.4,14.6,11,40.7-3.9,51.2&#10;&#9;&#9;C216.7,284.5,211.3,286.1,205.9,286z M174.5,208.2c-3.6,0-6.5,0.8-8.3,2.3c-4.6,3.8-5.8,13.1-3.4,25.6c2.1,11,6.8,23,11.8,29.9&#10;&#9;&#9;c4.7,6.6,12.5,12,21.1,14.7c9.1,2.8,17.5,2,23.5-2.3c10.8-7.6,14.5-30,3-46.1l0,0c-7.2-10.1-28.7-21.9-43.6-23.8&#10;&#9;&#9;C177.2,208.3,175.9,208.1,174.5,208.2L174.5,208.2z"/>
	<path class="st2_savings-1-79 targetColor" d="M282.3,231.1c-9.9,14-10.5,38.8,3.4,48.7s37.2,1.1,47.1-12.8s19.6-48.4,8-58S292.2,217.2,282.3,231.1z" style="fill: rgb(104, 225, 253);"/>
	<path class="st1_savings-1-79" d="M300.1,286c-5.5,0.1-10.9-1.5-15.4-4.6c-14.8-10.5-14.2-36.6-3.9-51.2l0,0c7.8-10.9,30.2-23.2,46.1-25.3&#10;&#9;&#9;c6.7-0.9,11.8,0.1,15.1,2.9c7.7,6.4,6.2,21,4.7,29.1c-2.2,11.6-7.1,23.9-12.4,31.4c-5.1,7.2-13.7,13.2-23,16&#10;&#9;&#9;C307.7,285.3,303.9,286,300.1,286z M283.8,232.3c-11.5,16.2-7.8,38.5,3,46.2c6,4.3,14.4,5.1,23.5,2.3c8.5-2.6,16.4-8.1,21.1-14.7&#10;&#9;&#9;c4.9-7,9.7-19,11.8-29.9c2.4-12.5,1.1-21.8-3.4-25.6c-2.5-2.1-6.7-2.8-12.3-2C312.6,210.4,291,222.2,283.8,232.3L283.8,232.3z"/>
	<path class="st2_savings-1-79 targetColor" d="M334.2,393.6c1.3,5.3-4,10.3-11,10.3H309c-4.6,0-8.7-2.1-10.4-5.4l-6.8-13.1c-24.6,11.4-53,11.4-77.6,0&#10;&#9;&#9;l-6.9,13.1c-1.7,3.3-5.8,5.4-10.4,5.4h-14.1c-7,0-12.3-4.9-11-10.3l8.5-35.5c-30.9-40.2-23.4-97.8,16.7-128.7&#10;&#9;&#9;c15.1-11.6,33.4-18.3,52.4-19c1.2-0.1,2.4-0.1,3.6-0.1s2.4,0,3.6,0.1c50.6,2,90.1,44.6,88.1,95.3c-0.7,19-7.4,37.3-19,52.4&#10;&#9;&#9;L334.2,393.6z" style="fill: rgb(104, 225, 253);"/>
	<path class="st1_savings-1-79" d="M323.1,405.7H309c-5.3,0-10-2.5-12-6.4l-6-11.6c-24.2,10.7-51.8,10.7-75.9,0l-6.1,11.6&#10;&#9;&#9;c-2,3.9-6.8,6.4-12.1,6.4h-14.1c-4.2,0.1-8.3-1.7-11-4.9c-1.8-2.1-2.4-5-1.8-7.6l8.3-34.7c-31.2-41.2-23-99.9,18.3-131.1&#10;&#9;&#9;c15.2-11.5,33.6-18.1,52.7-18.8c2.5-0.1,4.9-0.1,7.4,0c51.6,2,91.9,45.5,89.8,97.2c-0.7,19.1-7.3,37.5-18.8,52.8l8.3,34.7&#10;&#9;&#9;c0.6,2.7,0,5.5-1.8,7.6C331.4,404,327.4,405.8,323.1,405.7z M291.8,383.5c0.7,0,1.3,0.4,1.6,1l6.9,13.1c1.4,2.7,4.9,4.5,8.8,4.5&#10;&#9;&#9;h14.1c3.1,0.1,6.1-1.2,8.1-3.5c1.1-1.3,1.5-2.9,1.1-4.5l0,0l-8.5-35.5c-0.1-0.5,0-1.1,0.3-1.5c30.3-39.3,23-95.8-16.3-126.1&#10;&#9;&#9;c-14.8-11.4-32.8-17.9-51.4-18.6c-2.3-0.1-4.7-0.1-7,0c-49.6,1.9-88.3,43.6-86.5,93.3c0.7,18.7,7.2,36.7,18.6,51.5&#10;&#9;&#9;c0.3,0.4,0.5,1,0.3,1.5l-8.5,35.5c-0.4,1.6,0,3.3,1.1,4.5c2.1,2.3,5.1,3.6,8.2,3.5h14.1c3.9,0,7.4-1.8,8.8-4.5l6.8-13.1&#10;&#9;&#9;c0.5-0.9,1.5-1.2,2.4-0.8c24.1,11.2,51.9,11.2,76,0C291.2,383.5,291.5,383.4,291.8,383.5z"/>
	<ellipse class="st2_savings-1-79 targetColor" cx="253" cy="301.4" rx="38.3" ry="20.8" style="fill: rgb(104, 225, 253);"/>
	<path class="st1_savings-1-79" d="M253,324c-22.5,0-40.1-10-40.1-22.6s17.6-22.7,40.1-22.7s40,10,40,22.7S275.4,324,253,324z M253,282.4&#10;&#9;&#9;c-19.7,0-36.4,8.7-36.4,19s16.7,19,36.4,19s36.4-8.7,36.4-19S272.7,282.4,253,282.4z"/>
	<path class="st1_savings-1-79" d="M214.1,387.1c-0.3,0-0.6-0.1-0.9-0.2c-0.8-0.4-7.4-4.2-9.3-8c-0.5-0.9-0.2-2,0.7-2.5s2-0.2,2.5,0.7&#10;&#9;&#9;c0,0,0,0.1,0.1,0.1c1,2.1,5.4,5.1,7.8,6.5c0.9,0.5,1.2,1.6,0.7,2.5C215.3,386.8,214.7,387.2,214.1,387.1L214.1,387.1z"/>
	<path class="st1_savings-1-79" d="M291.9,387.1c-1,0-1.8-0.8-1.8-1.8c0-0.7,0.4-1.3,0.9-1.6c2.5-1.4,6.8-4.4,7.8-6.5c0.5-0.9,1.6-1.3,2.5-0.8&#10;&#9;&#9;c0.9,0.5,1.3,1.6,0.8,2.5c-1.9,3.8-8.5,7.6-9.3,8C292.5,387,292.2,387.1,291.9,387.1z"/>
	<circle class="st1_savings-1-79" cx="239.7" cy="301.4" r="8.4"/>
	<circle class="st1_savings-1-79" cx="266.2" cy="301.4" r="8.4"/>
	<path class="st1_savings-1-79" d="M232.3,270.1c-1,0-1.8-0.8-1.8-1.8c0.2-7.1-5.4-13.1-12.6-13.3c-7.1-0.2-13.1,5.4-13.3,12.6c0,0.2,0,0.5,0,0.7&#10;&#9;&#9;c0,1-0.8,1.8-1.8,1.8s-1.8-0.8-1.8-1.8c-0.2-9.2,7-16.8,16.2-17c9.2-0.2,16.8,7,17,16.2c0,0.3,0,0.5,0,0.8&#10;&#9;&#9;C234.1,269.2,233.3,270.1,232.3,270.1z"/>
	<path class="st1_savings-1-79" d="M303.1,270.1c-1,0-1.8-0.8-1.8-1.8c0-7.1-5.8-12.9-12.9-12.9c-7.1,0-12.9,5.8-12.9,12.9c0,0,0,0,0,0&#10;&#9;&#9;c0,1-0.8,1.8-1.8,1.8c-1,0-1.8-0.8-1.8-1.8c0-9.2,7.4-16.6,16.6-16.6c9.2,0,16.6,7.4,16.6,16.6C305,269.2,304.2,270.1,303.1,270.1&#10;&#9;&#9;C303.1,270.1,303.1,270.1,303.1,270.1z"/>
	<path class="st1_savings-1-79" d="M256.6,210.4v21h-7.2v-21c1.2-0.1,2.4-0.1,3.6-0.1S255.4,210.3,256.6,210.4z"/>
	<path class="st1_savings-1-79" d="M256.6,233.3h-7.2c-1,0-1.8-0.8-1.8-1.8l0,0v-21c0-1,0.8-1.8,1.7-1.8c2.5-0.1,5-0.1,7.4,0&#10;&#9;&#9;c1,0.1,1.7,0.9,1.7,1.8v21C258.4,232.4,257.6,233.3,256.6,233.3z M251.2,229.6h3.6v-17.4c-1.2,0-2.4,0-3.6,0V229.6z"/>
	<path class="st1_savings-1-79" d="M195.3,222.7c-0.5,0-1-0.2-1.4-0.6c-7.2-8.1-20.8-6.2-20.9-6.2c-1,0.2-1.9-0.5-2.1-1.5c-0.2-1,0.5-1.9,1.5-2.1&#10;&#9;&#9;c0.6-0.1,15.6-2.2,24.2,7.4c0.6,0.8,0.5,1.9-0.2,2.6C196.1,222.5,195.7,222.6,195.3,222.7L195.3,222.7z"/>
	<path class="st1_savings-1-79" d="M310.6,222.7c-1,0-1.8-0.8-1.8-1.8c0-0.6,0.3-1.1,0.7-1.4c13.8-10.9,23.6-7.5,24-7.3c0.9,0.3,1.4,1.4,1.1,2.3&#10;&#9;&#9;s-1.4,1.4-2.3,1.1c-0.4-0.1-8.5-2.8-20.5,6.8C311.4,222.6,311,222.7,310.6,222.7z"/>
	<path class="st2_savings-1-79 targetColor" d="M214.1,324.2c0,0,2.9,14.1,17.3,12.2" style="fill: rgb(104, 225, 253);"/>
	<path class="st1_savings-1-79" d="M228.8,338.4c-10.8,0-15.5-8.8-16.5-13.8c-0.3-1,0.3-2,1.3-2.2c1-0.3,2,0.3,2.2,1.3c0,0.1,0,0.1,0,0.2&#10;&#9;&#9;c0.1,0.5,2.8,12.4,15.2,10.8c1-0.2,2,0.4,2.2,1.4c0.2,1-0.4,2-1.4,2.2c-0.1,0-0.2,0-0.2,0C230.7,338.3,229.7,338.4,228.8,338.4z"/>
	<path class="st2_savings-1-79 targetColor" d="M214.7,316.7c0,0,2.6,4.4-4.9,9" style="fill: rgb(104, 225, 253);"/>
	<path class="st1_savings-1-79" d="M209.8,327.5c-1,0-1.8-0.8-1.8-1.8c0-0.6,0.3-1.2,0.9-1.6c5.8-3.5,4.4-6.4,4.3-6.5c-0.5-0.9-0.2-2,0.7-2.5&#10;&#9;&#9;c0.8-0.5,1.9-0.2,2.4,0.6c0,0.1,3.5,6-5.5,11.5C210.5,327.5,210.1,327.5,209.8,327.5z"/>
</g>
<g id="coins-2_savings-1-79">
	<path class="st0_savings-1-79" d="M349.8,388.9h43.4c1,0,1.8,0.8,1.8,1.8v11.3c0,1-0.8,1.8-1.8,1.8h-43.4c-1,0-1.8-0.8-1.8-1.8v-11.3&#10;&#9;&#9;C348,389.7,348.8,388.9,349.8,388.9z"/>
	<path class="st1_savings-1-79" d="M391.7,405.7h-40.4c-2.8,0-5.1-2.3-5.1-5.1v-8.3c0-2.8,2.3-5.1,5.1-5.1h40.4c2.8,0,5.2,2.3,5.2,5.1v8.3&#10;&#9;&#9;C396.8,403.4,394.5,405.7,391.7,405.7z M351.3,390.8c-0.8,0-1.5,0.7-1.5,1.5v8.3c0,0.8,0.7,1.5,1.5,1.5h40.4c0.8,0,1.5-0.7,1.5-1.5&#10;&#9;&#9;v-8.3c0-0.8-0.7-1.5-1.5-1.5H351.3z"/>
	<path class="st0_savings-1-79" d="M355,373.4h43.4c1,0,1.8,0.8,1.8,1.8v11.3c0,1-0.8,1.8-1.8,1.8H355c-1,0-1.8-0.8-1.8-1.8v-11.3&#10;&#9;&#9;C353.2,374.2,354,373.4,355,373.4z"/>
	<path class="st1_savings-1-79" d="M396.9,390.2h-40.4c-2.8,0-5.2-2.3-5.2-5.1v-8.3c0-2.8,2.3-5.1,5.2-5.1h40.4c2.8,0,5.1,2.3,5.1,5.1v8.3&#10;&#9;&#9;C402,387.8,399.7,390.2,396.9,390.2z M356.5,375.2c-0.8,0-1.5,0.7-1.5,1.5v8.4c0,0.8,0.7,1.5,1.5,1.5h40.4c0.8,0,1.5-0.7,1.5-1.5&#10;&#9;&#9;v-8.3c0-0.8-0.7-1.5-1.5-1.5L356.5,375.2z"/>
	<path class="st0_savings-1-79" d="M344.1,358.4h43.4c1,0,1.8,0.8,1.8,1.8v11.3c0,1-0.8,1.8-1.8,1.8h-43.4c-1,0-1.8-0.8-1.8-1.8v-11.3&#10;&#9;&#9;C342.3,359.2,343.1,358.4,344.1,358.4z"/>
	<path class="st1_savings-1-79" d="M386,375.2h-40.4c-2.8,0-5.1-2.3-5.1-5.2v-8.3c0-2.8,2.3-5.2,5.1-5.2H386c2.8,0,5.2,2.3,5.2,5.2l0,0v8.3&#10;&#9;&#9;C391.2,372.9,388.8,375.2,386,375.2z M345.6,360.2c-0.8,0-1.5,0.7-1.5,1.5v8.3c0,0.8,0.7,1.5,1.5,1.5H386c0.8,0,1.5-0.7,1.5-1.5&#10;&#9;&#9;v-8.3c0-0.8-0.7-1.5-1.5-1.5H345.6z"/>
	<path class="st0_savings-1-79" d="M349.8,343.5h43.4c1,0,1.8,0.8,1.8,1.8v11.3c0,1-0.8,1.8-1.8,1.8h-43.4c-1,0-1.8-0.8-1.8-1.8v-11.3&#10;&#9;&#9;C348,344.3,348.8,343.5,349.8,343.5z"/>
	<path class="st1_savings-1-79" d="M391.7,360.2h-40.4c-2.8,0-5.1-2.3-5.1-5.1v-8.3c0-2.8,2.3-5.1,5.1-5.1h40.4c2.8,0,5.2,2.3,5.2,5.1v8.3&#10;&#9;&#9;C396.8,357.9,394.5,360.2,391.7,360.2z M351.3,345.3c-0.8,0-1.5,0.7-1.5,1.5v8.3c0,0.8,0.7,1.5,1.5,1.5h40.4c0.8,0,1.5-0.7,1.5-1.5&#10;&#9;&#9;v-8.3c0-0.8-0.7-1.5-1.5-1.5H351.3z"/>
	<path class="st0_savings-1-79" d="M355,328.9h43.4c1,0,1.8,0.8,1.8,1.8V342c0,1-0.8,1.8-1.8,1.8H355c-1,0-1.8-0.8-1.8-1.8v-11.3&#10;&#9;&#9;C353.2,329.7,354,328.9,355,328.9z"/>
	<path class="st1_savings-1-79" d="M396.9,345.7h-40.4c-2.8,0-5.2-2.3-5.2-5.2v-8.3c0-2.8,2.3-5.1,5.2-5.1h40.4c2.8,0,5.1,2.3,5.1,5.1v8.3&#10;&#9;&#9;C402,343.4,399.7,345.7,396.9,345.7z M356.5,330.7c-0.8,0-1.5,0.7-1.5,1.5v8.3c0,0.8,0.7,1.5,1.5,1.5h40.4c0.8,0,1.5-0.7,1.5-1.5&#10;&#9;&#9;v-8.3c0-0.8-0.7-1.5-1.5-1.5H356.5z"/>
</g>
<g id="coins-1_savings-1-79">
	<path class="st0_savings-1-79" d="M112.4,388.9h43.4c1,0,1.8,0.8,1.8,1.8v11.3c0,1-0.8,1.8-1.8,1.8h-43.4c-1,0-1.8-0.8-1.8-1.8v-11.3&#10;&#9;&#9;C110.6,389.7,111.4,388.9,112.4,388.9z"/>
	<path class="st1_savings-1-79" d="M154.2,405.7h-40.3c-2.8,0-5.2-2.3-5.2-5.1v-8.3c0-2.8,2.3-5.1,5.2-5.1h40.4c2.8,0,5.1,2.3,5.1,5.1v8.3&#10;&#9;&#9;C159.4,403.4,157.1,405.7,154.2,405.7z M113.9,390.8c-0.8,0-1.5,0.7-1.5,1.5v8.3c0,0.8,0.7,1.5,1.5,1.5h40.3c0.8,0,1.5-0.7,1.5-1.5&#10;&#9;&#9;v-8.3c0-0.8-0.7-1.5-1.5-1.5H113.9z"/>
	<path class="st0_savings-1-79" d="M104.5,373.4h43.4c1,0,1.8,0.8,1.8,1.8v11.3c0,1-0.8,1.8-1.8,1.8h-43.4c-1,0-1.8-0.8-1.8-1.8v-11.3&#10;&#9;&#9;C102.7,374.2,103.5,373.4,104.5,373.4z"/>
	<path class="st1_savings-1-79" d="M146.4,390.2H106c-2.8,0-5.1-2.3-5.2-5.1v-8.3c0-2.8,2.3-5.1,5.2-5.1h40.4c2.8,0,5.1,2.3,5.1,5.1v8.3&#10;&#9;&#9;C151.5,387.8,149.2,390.1,146.4,390.2z M106,375.2c-0.8,0-1.5,0.7-1.5,1.5v8.4c0,0.8,0.6,1.5,1.5,1.5h40.4c0.8,0,1.5-0.7,1.5-1.5&#10;&#9;&#9;v-8.3c0-0.8-0.7-1.5-1.5-1.5L106,375.2z"/>
	<path class="st0_savings-1-79" d="M116.2,358.4h43.4c1,0,1.8,0.8,1.8,1.8v11.3c0,1-0.8,1.8-1.8,1.8h-43.4c-1,0-1.8-0.8-1.8-1.8v-11.3&#10;&#9;&#9;C114.3,359.2,115.2,358.4,116.2,358.4z"/>
	<path class="st1_savings-1-79" d="M158,375.2h-40.3c-2.8,0-5.2-2.3-5.2-5.2v-8.3c0-2.8,2.3-5.2,5.2-5.2H158c2.8,0,5.1,2.3,5.1,5.2v8.3&#10;&#9;&#9;C163.1,372.9,160.8,375.2,158,375.2z M117.7,360.2c-0.8,0-1.5,0.7-1.5,1.5v8.3c0,0.8,0.7,1.5,1.5,1.5H158c0.8,0,1.5-0.7,1.5-1.5&#10;&#9;&#9;v-8.3c0-0.8-0.7-1.5-1.5-1.5H117.7z"/>
</g>
<g id="lines_savings-1-79">
	<path class="st3_savings-1-79" d="M124.5,241.7c-0.8,0-1.5-0.5-1.7-1.2l-3.2-9.4c-0.3-1,0.3-2,1.3-2.3c0.9-0.3,1.9,0.2,2.2,1.1l3.2,9.4&#10;&#9;&#9;c0.3,1-0.2,2-1.1,2.3C124.9,241.6,124.7,241.7,124.5,241.7z"/>
	<path class="st3_savings-1-79" d="M131.1,261.3c-0.8,0-1.5-0.5-1.7-1.2l-3.2-9.4c-0.3-1,0.2-2,1.1-2.3c1-0.3,2,0.2,2.3,1.1l0,0l3.2,9.4&#10;&#9;&#9;c0.3,1-0.2,2-1.1,2.3C131.6,261.3,131.4,261.3,131.1,261.3z"/>
	<path class="st3_savings-1-79" d="M131.3,245c-1,0-1.8-0.8-1.8-1.8c0-0.8,0.5-1.5,1.2-1.7l9.4-3.2c1-0.3,2,0.2,2.3,1.1s-0.2,2-1.1,2.3l-9.4,3.2&#10;&#9;&#9;C131.7,245,131.5,245,131.3,245z"/>
	<path class="st3_savings-1-79" d="M111.7,251.7c-1,0-1.8-0.8-1.8-1.8c0-0.8,0.5-1.5,1.2-1.7l9.4-3.2c1-0.3,2,0.2,2.3,1.1c0.3,1-0.2,2-1.1,2.3&#10;&#9;&#9;l-9.4,3.2C112.1,251.7,111.9,251.7,111.7,251.7z"/>
	<path class="st3_savings-1-79" d="M112.9,306.8c-1,0-1.8-0.8-1.8-1.8c0-0.3,0.1-0.6,0.2-0.8l4.3-9c0.5-0.9,1.6-1.3,2.5-0.8&#10;&#9;&#9;c0.9,0.4,1.2,1.5,0.8,2.4l-4.3,9C114.2,306.4,113.6,306.8,112.9,306.8z"/>
	<path class="st3_savings-1-79" d="M103.9,325.5c-0.3,0-0.5-0.1-0.8-0.2c-0.9-0.4-1.3-1.5-0.9-2.4l4.3-9c0.5-0.9,1.6-1.3,2.5-0.8&#10;&#9;&#9;c0.9,0.4,1.2,1.5,0.8,2.4l-4.3,9C105.3,325,104.6,325.4,103.9,325.5z"/>
	<path class="st3_savings-1-79" d="M124.4,318.3c-0.3,0-0.5-0.1-0.8-0.2l-9-4.3c-0.9-0.5-1.3-1.6-0.8-2.5c0.4-0.9,1.5-1.2,2.4-0.8l9,4.3&#10;&#9;&#9;c0.9,0.4,1.3,1.5,0.9,2.4C125.7,317.9,125.1,318.3,124.4,318.3L124.4,318.3z"/>
	<path class="st3_savings-1-79" d="M105.7,309.3c-0.3,0-0.5-0.1-0.8-0.2l-9-4.3c-0.9-0.5-1.3-1.6-0.8-2.5c0.4-0.9,1.5-1.2,2.4-0.8l9,4.3&#10;&#9;&#9;c0.9,0.4,1.3,1.5,0.9,2.4C107.1,308.9,106.4,309.3,105.7,309.3L105.7,309.3z"/>
	<path class="st3_savings-1-79" d="M391.5,265.1c-0.3,0-0.5-0.1-0.8-0.2c-0.9-0.4-1.3-1.5-0.9-2.4l4.1-9.1c0.4-0.9,1.5-1.3,2.4-0.9&#10;&#9;&#9;c0.9,0.4,1.3,1.5,0.9,2.4l0,0l-4.1,9C392.9,264.7,392.3,265.1,391.5,265.1z"/>
	<path class="st3_savings-1-79" d="M383,284c-0.3,0-0.5-0.1-0.8-0.2c-0.9-0.4-1.3-1.5-0.9-2.4l4.1-9c0.4-0.9,1.5-1.3,2.4-0.9s1.3,1.5,0.9,2.4&#10;&#9;&#9;l-4.1,9C384.4,283.6,383.7,284,383,284z"/>
	<path class="st3_savings-1-79" d="M403.3,276.4c-0.3,0-0.5-0.1-0.8-0.2l-9-4.1c-1-0.3-1.5-1.4-1.1-2.3c0.3-1,1.4-1.5,2.3-1.1&#10;&#9;&#9;c0.1,0,0.2,0.1,0.3,0.1l9,4.1c0.9,0.4,1.3,1.5,0.9,2.4C404.6,276,404,276.4,403.3,276.4L403.3,276.4z"/>
	<path class="st3_savings-1-79" d="M384.4,267.8c-0.3,0-0.5-0.1-0.8-0.2l-9-4.1c-0.9-0.4-1.3-1.5-0.9-2.4s1.5-1.3,2.4-0.9l9,4.1&#10;&#9;&#9;c0.9,0.4,1.3,1.5,0.9,2.4C385.8,267.4,385.2,267.8,384.4,267.8L384.4,267.8z"/>
</g>
</svg>