<?xml version="1.0"?><svg viewBox="0 0 64 64" xmlns="http://www.w3.org/2000/svg"><g data-name="Fill Outline" id="Fill_Outline"><g data-name="Stroke copy" id="Stroke_copy"><g><path d="M39,37V53H32v8H10V53H3V37A10,10,0,0,1,13,27H29A10,10,0,0,1,39,37Z" style="fill: #84d2f4"/><path d="M39,51v2H32v8H10V53H3V37A10,10,0,0,1,13,27h2v8A16,16,0,0,0,31,51Z" style="fill: #57b7eb"/><path d="M9,42a2,2,0,0,0,2-2V27.2a9.917,9.917,0,0,0-4,1.813V40A2,2,0,0,0,9,42Z" style="fill: #4891d3"/><rect height="12" style="fill: #4891d3" width="2" x="8" y="41"/><path d="M32,42V27.459A10.011,10.011,0,0,0,29,27V39A3,3,0,0,0,32,42Z" style="fill: #57b7eb"/><path d="M32,40h0a0,0,0,0,1,0,0V52a0,0,0,0,1,0,0H29a0,0,0,0,1,0,0V43A3,3,0,0,1,32,40Z" style="fill: #57b7eb"/><path d="M32,42a2,2,0,0,0,2-2V28.349a9.927,9.927,0,0,0-4-1.3V40A2,2,0,0,0,32,42Z" style="fill: #fcbc04"/><path d="M33.664,40.973A2.075,2.075,0,0,1,32,38.893V31a2,2,0,0,1,2-2v-.651a9.927,9.927,0,0,0-4-1.3V40a1.994,1.994,0,0,0,3.736.976C33.711,40.973,33.688,40.977,33.664,40.973Z" style="fill: #e59730"/><path d="M10,42a2,2,0,0,0,2-2V27.05a9.927,9.927,0,0,0-4,1.3V40A2,2,0,0,0,10,42Z" style="fill: #fcbc04"/><circle cx="27" cy="38" r="3" style="fill: #f9e109"/><path d="M32,53h7a0,0,0,0,1,0,0v4a4,4,0,0,1-4,4h0a3,3,0,0,1-3-3V53A0,0,0,0,1,32,53Z" style="fill: #f9e109"/><path d="M11.664,40.973A2.075,2.075,0,0,1,10,38.893V32a2.99,2.99,0,0,1,2-2.816V27.05a9.927,9.927,0,0,0-4,1.3V40a1.994,1.994,0,0,0,3.736.976C11.711,40.973,11.688,40.977,11.664,40.973Z" style="fill: #e59730"/><g><path d="M21,3h0A10,10,0,0,1,31,13V23a0,0,0,0,1,0,0H11a0,0,0,0,1,0,0V13A10,10,0,0,1,21,3Z" style="fill: #f9e109"/><path d="M25,19A10,10,0,0,1,16.217,4.217,10,10,0,0,0,11,13V23H31V19Z" style="fill: #fcbc04"/><polygon points="30 27 25 27 25 23 31 23 30 27" style="fill: #e59730"/><polygon points="34 28 29 28 31 22 36 22 34 28" style="fill: #f9e109"/><polygon points="12 27 17 27 17 23 11 23 12 27" style="fill: #e59730"/><polygon points="8 28 13 28 11 22 6 22 8 28" style="fill: #f9e109"/><circle cx="21" cy="24" r="5" style="fill: #f9e109"/><circle cx="27" cy="13" r="4" style="fill: #84d2f4"/><circle cx="15" cy="13" r="4" style="fill: #84d2f4"/><path d="M17,15a3.985,3.985,0,0,1-3.64-5.64,3.995,3.995,0,1,0,5.28,5.28A3.961,3.961,0,0,1,17,15Z" style="fill: #57b7eb"/><path d="M29,15a3.985,3.985,0,0,1-3.64-5.64,3.995,3.995,0,1,0,5.28,5.28A3.961,3.961,0,0,1,29,15Z" style="fill: #57b7eb"/><path d="M15,17a3.979,3.979,0,0,0,2.76-1.115A9.958,9.958,0,0,1,15,9a4,4,0,0,0,0,8Z" style="fill: #57b7eb"/><path d="M15,17a3.959,3.959,0,0,0,2.756-1.12A9.916,9.916,0,0,1,17.013,15H17a3.985,3.985,0,0,1-3.64-5.64A3.995,3.995,0,0,0,15,17Z" style="fill: #4891d3"/><circle cx="21" cy="24" r="3" style="fill: #fcbc04"/><path d="M21,21a2.986,2.986,0,0,0-2.554,1.446A2.965,2.965,0,0,1,20,22a3,3,0,0,1,3,3,2.965,2.965,0,0,1-.446,1.554A2.992,2.992,0,0,0,21,21Z" style="fill: #e59730"/><path d="M7.419,22.257,7.333,22H6l2,6h5l-.385-1.156A6.926,6.926,0,0,1,7.419,22.257Z" style="fill: #fcbc04"/><path d="M31.581,22.257,31.667,22H31l-2,6h5l.354-1.064A3.6,3.6,0,0,1,31.581,22.257Z" style="fill: #fcbc04"/></g><g><g><path d="M55,22h0a2,2,0,0,0-2-2h0a2,2,0,0,0-2,2h0a6,6,0,0,0,6,6h0a2,2,0,0,0,2-2h0a2,2,0,0,0-2-2h0A2,2,0,0,1,55,22Z" style="fill: #c4f236"/><path d="M58,26a6,6,0,0,1-5.986-5.73A1.99,1.99,0,0,0,51,22a6,6,0,0,0,6,6,2,2,0,0,0,2-2,1.905,1.905,0,0,0-.027-.263A1.972,1.972,0,0,1,58,26Z" style="fill: #a1d51c"/></g><circle cx="52" cy="10" r="2" style="fill: #c4f236"/><path d="M53,11a1.992,1.992,0,0,1-1.82-2.82,2,2,0,1,0,2.64,2.64A1.99,1.99,0,0,1,53,11Z" style="fill: #a1d51c"/></g><path d="M28,39a3,3,0,0,1-3-3c0-.083.018-.16.024-.242a2.991,2.991,0,1,0,4.952,2.484A2.98,2.98,0,0,1,28,39Z" style="fill: #fcbc04"/><path d="M30,38a2.978,2.978,0,0,0-1-2.221V39a2.976,2.976,0,0,0,.194,1.033A2.981,2.981,0,0,0,30,38Z" style="fill: #fcbc04"/><path d="M34,58a3,3,0,0,1,3-3h2V53H32v5a2.99,2.99,0,0,0,2,2.816Z" style="fill: #fcbc04"/><path d="M6,53H6a4,4,0,0,1,4,4v4a0,0,0,0,1,0,0H3a0,0,0,0,1,0,0V56A3,3,0,0,1,6,53Z" style="fill: #f9e109" transform="translate(13 114) rotate(-180)"/><path d="M8,58a3,3,0,0,0-3-3H3V53h7v5a2.99,2.99,0,0,1-2,2.816Z" style="fill: #fcbc04"/></g></g><g data-name="Outline copy" id="Outline_copy"><g><path d="M35.1,27.86l1.848-5.544A1,1,0,0,0,36,21H32V13a11,11,0,0,0-22,0v5a1,1,0,0,0,2,0V16.974A4.948,4.948,0,0,0,15,18,5,5,0,0,0,15,8a4.922,4.922,0,0,0-1.664.307,8.972,8.972,0,0,1,15.328,0A4.922,4.922,0,0,0,27,8a5,5,0,0,0,0,10,4.948,4.948,0,0,0,3-1.026v4.863L29.946,22h-3.3a5.99,5.99,0,0,0-11.3,0h-3.3l-.105-.316A1,1,0,0,0,11,21H6a1,1,0,0,0-.949,1.316L6.9,27.86A10.9,10.9,0,0,0,2,37v6a1,1,0,0,0,2,0V37a8.915,8.915,0,0,1,3-6.7V40a3,3,0,0,0,2,2.816V52H4V47a1,1,0,0,0-2,0V57a5.006,5.006,0,0,0,5,5,3.959,3.959,0,0,0,2.084-.6A1,1,0,0,0,11,61V42.816A3,3,0,0,0,13,40V32a1,1,0,0,0-2,0v8a1,1,0,0,1-2,0V29h4a.989.989,0,0,0,.994-1H16.54a5.973,5.973,0,0,0,8.92,0h2.546A.989.989,0,0,0,29,29v5.556A3.959,3.959,0,0,0,27,34a4,4,0,1,0,2.292,7.269A2.994,2.994,0,0,0,35,40V30.3A8.915,8.915,0,0,1,38,37V49a1,1,0,0,0,2,0V37A10.9,10.9,0,0,0,35.1,27.86ZM15,10a3,3,0,1,1-3,3A3,3,0,0,1,15,10ZM33.279,27H30.387l1.2-3.61v0L31.721,23h2.892ZM27,16a3,3,0,1,1,3-3A3,3,0,0,1,27,16Zm-2.142,7H22V20.142A4,4,0,0,1,24.858,23ZM20,20.142V23H17.142A4,4,0,0,1,20,20.142ZM7,60a3,3,0,0,1-3-3V54H9v4A2,2,0,0,1,7,60ZM8.721,27,7.387,23h2.892l.129.386v0l1.2,3.61Zm4.667-1-.667-2H15a5.976,5.976,0,0,0,.35,2Zm3.754-1H20v2.858A4,4,0,0,1,17.142,25ZM22,27.858V25h2.858A4,4,0,0,1,22,27.858ZM27,24h2.279l-.667,2H26.65A5.976,5.976,0,0,0,27,24Zm0,16a2,2,0,1,1,2-2A2,2,0,0,1,27,40Zm5,1a1,1,0,0,1-1-1V29h2V40A1,1,0,0,1,32,41Z" style="fill: #323232"/><path d="M39,52H33V46a1,1,0,0,0-2,0V61a1,1,0,0,0,1.916.4A3.959,3.959,0,0,0,35,62a5.006,5.006,0,0,0,5-5V53A1,1,0,0,0,39,52Zm-1,5a3,3,0,0,1-3,3,2,2,0,0,1-2-2V54h5Z" style="fill: #323232"/><path d="M18,47H14a1,1,0,0,0,0,2h4a1,1,0,0,0,0-2Z" style="fill: #323232"/><path d="M28,47H24a1,1,0,0,0,0,2h4a1,1,0,0,0,0-2Z" style="fill: #323232"/><path d="M38,10.481V6a1,1,0,0,0-2,0v4.481a23.353,23.353,0,0,0,3.656,12.556A21.35,21.35,0,0,1,43,34.519V55a1,1,0,0,0,2,0V34.519a23.353,23.353,0,0,0-3.656-12.556A21.35,21.35,0,0,1,38,10.481Z" style="fill: #323232"/><path d="M48,11h1.184a2.746,2.746,0,0,0,.117.285l-.837.837a1,1,0,1,0,1.414,1.414l.837-.837a2.746,2.746,0,0,0,.285.117V14a1,1,0,0,0,2,0V12.816A3,3,0,0,0,54.816,11H56a1,1,0,0,0,0-2H54.816a2.746,2.746,0,0,0-.117-.285l.837-.837a1,1,0,1,0-1.414-1.414l-.837.837A2.746,2.746,0,0,0,53,7.184V6a1,1,0,0,0-2,0V7.184a2.746,2.746,0,0,0-.285.117l-.837-.837a1,1,0,0,0-1.414,1.414l.837.837A2.746,2.746,0,0,0,49.184,9H48a1,1,0,0,0,0,2Zm4,0a1,1,0,1,1,1-1A1,1,0,0,1,52,11Z" style="fill: #323232"/><path d="M61,25H59.816a2.994,2.994,0,0,0-.452-.825L59.8,23.6A1,1,0,0,0,58.2,22.4l-.522.689A3,3,0,0,0,57,23a1,1,0,0,1-1-1,2.953,2.953,0,0,0-.116-.78l.614-.353a1,1,0,1,0-1-1.734l-.758.436A2.984,2.984,0,0,0,54,19.184V18a1,1,0,0,0-2,0v1.184a3,3,0,0,0-.744.385l-.757-.436a1,1,0,0,0-1,1.734l.615.353A2.959,2.959,0,0,0,50,22a6.945,6.945,0,0,0,.036.71l-1.279.32A1,1,0,0,0,49,25a.976.976,0,0,0,.244-.03l1.281-.32a6.989,6.989,0,0,0,.878,1.534l-1.109,1.109a1,1,0,1,0,1.414,1.414L52.816,27.6a6.989,6.989,0,0,0,1.534.878l-.32,1.281a1,1,0,0,0,.727,1.213A.976.976,0,0,0,55,31a1,1,0,0,0,.969-.757l.32-1.279A6.945,6.945,0,0,0,57,29a3.03,3.03,0,0,0,.469-.047l.611,1.438A1,1,0,0,0,59,31a.984.984,0,0,0,.391-.08,1,1,0,0,0,.529-1.311l-.689-1.623A2.979,2.979,0,0,0,59.816,27H61a1,1,0,0,0,0-2Zm-9-3a1,1,0,0,1,2,0,3,3,0,0,0,3,3,1,1,0,0,1,0,2A5.006,5.006,0,0,1,52,22Z" style="fill: #323232"/><path d="M40.707,6.707l1.181-1.181L41,17.929a1,1,0,0,0,1.513.928l5-3a1,1,0,0,0-1.03-1.714l-3.351,2.01.774-10.831,1.385,1.385a1,1,0,0,0,1.414-1.414l-3-3a1,1,0,0,0-1.414,0l-3,3a1,1,0,0,0,1.414,1.414Z" style="fill: #323232"/><path d="M57,41a1,1,0,0,0-1,1v2.586l-7.66-7.66,3.441-4.3a1,1,0,1,0-1.562-1.25l-4,5a1,1,0,0,0,.074,1.332L54.586,46H52a1,1,0,0,0,0,2h5a1,1,0,0,0,1-1V42A1,1,0,0,0,57,41Z" style="fill: #323232"/><circle cx="59" cy="16" r="1" style="fill: #323232"/><circle cx="46" cy="21" r="1" style="fill: #323232"/><circle cx="59" cy="6" r="1" style="fill: #323232"/></g></g></g></svg>