<svg version="1.1" id="Layer_1" xmlns="http://www.w3.org/2000/svg" xmlns:xlink="http://www.w3.org/1999/xlink" x="0px" y="0px" viewBox="0 0 500 500" style="width: 188px;" xml:space="preserve" data-imageid="science-87" imageName="Science" class="illustrations_image">
<style type="text/css">
	.st0_science-87{fill:#FFFFFF;}
	.st1_science-87{fill:#231F20;}
	.st2_science-87{fill:#68E1FD;}
	.st3_science-87{fill:#D1D3D4;}
</style>
<g id="Character_science-87">
	<path class="st0_science-87" d="M413.8,249.4l6.7-16.2c0,0-0.3-20.9,2.4-22.5s4.7,0.8,5.1,2.4s1,10.1,1,10.1s13.6-22.5,15.8-22.7&#10;&#9;&#9;s4.5-0.2,4.1,2.4c0,0,3.5-1.4,4.9,1.8c0,0,4.1-1.6,4.9,2.2c0,0,2.4-1.2,2.8,2S441.2,257,441.2,257"/>
	<path class="st1_science-87" d="M441.2,257.7c-0.1,0-0.2,0-0.3-0.1c-0.4-0.2-0.5-0.6-0.4-0.9c0,0,0,0,0-0.1c7.9-17.2,20.4-45.5,20.2-47.8&#10;&#9;&#9;c-0.1-0.5-0.2-1.2-0.7-1.5c-0.3-0.1-0.7-0.1-1,0.1c-0.2,0.1-0.4,0.1-0.6,0c-0.2-0.1-0.3-0.3-0.4-0.5c-0.1-0.7-0.5-1.3-1.1-1.6&#10;&#9;&#9;c-0.9-0.4-2-0.4-2.9,0c-0.4,0.1-0.8,0-0.9-0.4c-1.1-2.4-3.7-1.5-4-1.4c-0.2,0.1-0.5,0.1-0.7-0.1c-0.2-0.2-0.3-0.4-0.3-0.7&#10;&#9;&#9;c0.1-0.4,0-0.8-0.2-1.2c-0.6-0.6-2.4-0.4-3.2-0.4c-1.4,0.6-8.8,11.8-15.2,22.3c-0.2,0.3-0.5,0.4-0.8,0.3c-0.3-0.1-0.5-0.3-0.6-0.6&#10;&#9;&#9;c-0.2-2.3-0.6-8.7-1-9.9c-0.3-0.9-0.9-1.7-1.8-2.2c-0.7-0.3-1.6-0.2-2.2,0.3c-1.4,0.8-2.2,12-2.1,21.8c0,0.1,0,0.2,0,0.3l-6.7,16.2&#10;&#9;&#9;c-0.2,0.4-0.6,0.5-1,0.4c-0.4-0.2-0.5-0.6-0.4-0.9l6.6-16c-0.1-5.2,0-21.3,2.8-23c1-0.7,2.3-0.8,3.5-0.3c1.3,0.6,2.3,1.8,2.6,3.1&#10;&#9;&#9;c0.3,1.1,0.6,5.3,0.8,7.9c5.2-8.6,13.1-20.9,15.1-21.1c1.6-0.1,3.4-0.2,4.3,0.8c0.3,0.4,0.5,0.8,0.6,1.3c1.8-0.4,3.6,0.3,4.6,1.9&#10;&#9;&#9;c1.2-0.3,2.4-0.2,3.5,0.3c0.7,0.4,1.3,1.1,1.6,1.9c0.5-0.1,1.1,0,1.6,0.2c0.9,0.6,1.4,1.5,1.4,2.6c0.4,3.2-16.9,41-20.3,48.6&#10;&#9;&#9;C441.8,257.5,441.5,257.7,441.2,257.7z"/>
	<polygon class="st1_science-87" points="399.3,262.2 406.7,244.5 446.5,256.1 436.6,276.7 &#9;"/>
	<path class="st1_science-87" d="M436.6,277.4c-0.1,0-0.2,0-0.2,0L399,262.8c-0.2-0.1-0.3-0.2-0.4-0.4c-0.1-0.2-0.1-0.4,0-0.5l7.4-17.7&#10;&#9;&#9;c0.1-0.3,0.5-0.5,0.8-0.4l39.8,11.6c0.4,0.1,0.6,0.5,0.5,0.9c0,0,0,0.1-0.1,0.1l-9.9,20.5C437.1,277.3,436.9,277.4,436.6,277.4z&#10;&#9;&#9; M400.2,261.8l36,14.1l9.2-19.3L407,245.3L400.2,261.8z"/>
	<path class="st2_science-87 targetColor" d="M328.6,284.5l35,18.4l34.8-53.4c0,0,52,16.2,51.2,18.5s-47.3,110.3-78.8,99.7s-59.1-18.9-59.1-18.9&#10;&#9;&#9;L328.6,284.5z" style="fill: rgb(104, 225, 253);"/>
	<path class="st1_science-87" d="M435.9,239.2c-0.1,0-0.2,0-0.3-0.1c-0.4-0.2-0.5-0.6-0.4-0.9c0,0,0,0,0-0.1c1.1-2.1,1.3-4.5,0.6-6.7&#10;&#9;&#9;c-1.6-4.8-7.2-7.6-7.2-7.6c-0.4-0.2-0.5-0.6-0.3-1c0,0,0,0,0,0c0.2-0.4,0.6-0.5,1-0.4c0,0,0,0,0,0c0.3,0.1,6.2,3.1,8,8.4&#10;&#9;&#9;c0.8,2.6,0.6,5.4-0.7,7.8C436.5,239,436.2,239.2,435.9,239.2z"/>
	<path class="st0_science-87" d="M86.3,248l-6.7-16.2c0,0,0.3-20.9-2.4-22.5s-4.7,0.8-5.1,2.4s-1,10.1-1,10.1s-13.6-22.5-15.8-22.7&#10;&#9;&#9;s-4.5-0.2-4.1,2.4c0,0-3.5-1.4-4.9,1.8c0,0-4.1-1.6-4.9,2.2c0,0-2.4-1.2-2.8,2s21.3,51.8,21.3,51.8"/>
	<path class="st1_science-87" d="M59.9,259.9c-0.3,0-0.5-0.2-0.7-0.4c-3.6-8.2-21.8-49-21.4-52.2c0-1,0.6-2,1.4-2.6c0.5-0.2,1-0.3,1.6-0.2&#10;&#9;&#9;c0.3-0.8,0.8-1.5,1.6-1.9c1.1-0.5,2.3-0.6,3.5-0.3c1-1.5,2.8-2.3,4.5-1.9c0.1-0.5,0.3-0.9,0.6-1.3c1-1,2.8-1,4.3-0.8&#10;&#9;&#9;c2,0.2,9.9,12.5,15.1,21.1c0.2-2.6,0.6-6.8,0.8-7.9c0.4-1.4,1.3-2.5,2.6-3.1c1.2-0.5,2.5-0.3,3.5,0.3c2.8,1.6,2.8,17.8,2.8,22.9&#10;&#9;&#9;l6.6,16c0.2,0.4,0,0.8-0.4,1c-0.4,0.2-0.8,0-1-0.4c0,0,0,0,0,0l-6.7-16.2c0-0.1-0.1-0.2-0.1-0.3c0.1-9.8-0.6-21-2.1-21.8&#10;&#9;&#9;c-0.7-0.4-1.5-0.5-2.2-0.3c-0.9,0.4-1.5,1.2-1.8,2.2c-0.3,1.2-0.8,7.6-1,9.9c0,0.3-0.2,0.6-0.6,0.6c-0.3,0.1-0.6-0.1-0.8-0.3&#10;&#9;&#9;c-6.4-10.5-13.8-21.8-15.3-22.3c-0.7-0.1-2.5-0.2-3.1,0.4c-0.2,0.3-0.3,0.8-0.2,1.2c0,0.3-0.1,0.5-0.3,0.7&#10;&#9;&#9;c-0.2,0.2-0.5,0.2-0.7,0.1c-0.3-0.1-2.9-1-4,1.4c-0.1,0.4-0.5,0.6-0.9,0.5c-0.9-0.4-2-0.4-2.9,0c-0.6,0.4-1,1-1.1,1.6&#10;&#9;&#9;c0,0.2-0.2,0.4-0.4,0.5c-0.2,0.1-0.4,0.1-0.6,0c-0.3-0.1-0.7-0.1-1,0c-0.4,0.4-0.7,0.9-0.7,1.5c-0.2,2.4,13,32.8,21.3,51.4&#10;&#9;&#9;c0.2,0.4,0,0.8-0.4,0.9C60.1,260,60,260,59.9,259.9L59.9,259.9z"/>
	<polygon class="st1_science-87" points="100.8,260.8 93.4,243.1 53.6,254.7 63.5,275.3 &#9;"/>
	<path class="st1_science-87" d="M63.5,276c-0.3,0-0.5-0.2-0.6-0.4L53,255c-0.2-0.3,0-0.8,0.3-0.9c0,0,0.1,0,0.1-0.1l39.8-11.6&#10;&#9;&#9;c0.3-0.1,0.7,0.1,0.8,0.4l7.3,17.7c0.1,0.2,0.1,0.4,0,0.5c-0.1,0.2-0.2,0.3-0.4,0.4L63.7,276C63.6,276,63.5,276,63.5,276z&#10;&#9;&#9; M54.6,255.1l9.2,19.3l36.1-14.1L93,243.9L54.6,255.1z"/>
	<path class="st0_science-87" d="M232.9,163.8c0,0-9.7-10-20.8,0s-14.2,23.6-20.8,24.7c0,0,3.3,2.6,11-2.4c0,0,2.2,9.1-6,13.6&#10;&#9;&#9;c0,0,7.9-1,9.5-1.5s-5.8,9.8-11,11.1s8.1,8.6,17.3,8.2s26.4-28.5,25.4-38.5S232.9,163.8,232.9,163.8z"/>
	<path class="st1_science-87" d="M211.4,218.2c-7.6,0-18.1-4.8-18.6-7.8c-0.1-0.4,0-1.5,1.7-1.9c3.7-0.9,8.8-7,10.3-9.4&#10;&#9;&#9;c-2.7,0.5-8.2,1.2-8.4,1.3c-0.3,0.1-0.7-0.2-0.8-0.5c-0.1-0.3,0-0.7,0.3-0.9c4.2-2.3,6.5-7,5.8-11.8c-7.4,4.4-10.7,1.9-10.9,1.8&#10;&#9;&#9;c-0.2-0.2-0.3-0.5-0.2-0.8c0.1-0.3,0.3-0.5,0.6-0.5c3.1-0.5,5.6-4.4,8.7-9.4c2.9-4.6,6.4-10.3,11.7-15.1c11.4-10.3,21.7-0.1,21.8,0&#10;&#9;&#9;l0.1,0.1c0.1,0.2,3.8,5.5,4.8,15.6c0.7,7.2-7.4,22.7-15.2,31.6c-2.9,3.4-7.2,7.5-11,7.6L211.4,218.2z M205.9,197.4&#10;&#9;&#9;c0.2,0,0.4,0.1,0.6,0.2c0.3,0.3,0.4,0.7,0.2,1c-0.6,2-6.9,10.2-11.8,11.3c-0.5,0.1-0.6,0.3-0.6,0.3c0.1,0.3,0.2,0.5,0.4,0.7&#10;&#9;&#9;c2.3,2.5,11,6.1,17.4,5.8c2.5-0.1,6-2.6,10-7.2c8.2-9.5,15.4-24.3,14.8-30.5c-0.9-9.2-4.2-14.3-4.5-14.9c-0.8-0.8-9.6-9.1-19.7,0.1&#10;&#9;&#9;c-5.2,4.7-8.7,10.3-11.5,14.8c-2.6,4.2-4.8,7.8-7.5,9.3c1.6,0.1,4.3-0.3,8.3-2.9c0.3-0.2,0.8-0.1,1,0.2c0,0.1,0.1,0.1,0.1,0.2&#10;&#9;&#9;c0,0.1,1.8,7.7-3.9,12.7c2.2-0.3,4.3-0.6,6.4-1.1C205.7,197.5,205.8,197.4,205.9,197.4z"/>
	<path class="st0_science-87" d="M275.8,163.8c0,0,9.7-10,20.8,0s14.2,23.6,20.8,24.7c0,0-3.3,2.6-11-2.4c0,0-2.2,9.1,6,13.6c0,0-7.9-1-9.5-1.5&#10;&#9;&#9;s5.8,9.8,11,11.1s-8.1,8.6-17.3,8.2S270.1,189,271.1,179S275.8,163.8,275.8,163.8z"/>
	<path class="st1_science-87" d="M297.2,218.2h-0.7c-3.7-0.1-8-4.2-11-7.6c-7.8-9-15.9-24.4-15.2-31.6c1-10.1,4.7-15.4,4.8-15.6l0.1-0.1&#10;&#9;&#9;c0.1-0.1,10.3-10.4,21.8,0c5.3,4.8,8.9,10.5,11.7,15.1c3.1,5,5.5,8.9,8.7,9.4c0.4,0.1,0.7,0.4,0.6,0.8c0,0.2-0.1,0.3-0.3,0.5&#10;&#9;&#9;c-0.1,0.1-3.5,2.7-10.9-1.8c-0.7,4.8,1.6,9.5,5.8,11.8c0.4,0.2,0.5,0.6,0.3,1c-0.1,0.3-0.4,0.4-0.7,0.4c-0.3,0-5.7-0.7-8.4-1.3&#10;&#9;&#9;c1.5,2.4,6.5,8.5,10.3,9.4c1.7,0.4,1.8,1.5,1.7,1.9C315.4,213.4,304.8,218.2,297.2,218.2z M276.4,164.2c-0.4,0.5-3.6,5.7-4.5,14.9&#10;&#9;&#9;c-0.6,6.2,6.6,21,14.8,30.5c3.9,4.5,7.4,7,9.9,7.1c6.4,0.3,15-3.3,17.4-5.8c0.4-0.4,0.4-0.6,0.4-0.7l0,0c0,0-0.1-0.1-0.6-0.3&#10;&#9;&#9;c-4.8-1.1-11.2-9.3-11.8-11.3c-0.1-0.3-0.1-0.7,0.2-1c0.2-0.2,0.6-0.3,0.9-0.2c2.1,0.5,4.3,0.9,6.4,1.1c-5.6-5-3.9-12.6-3.9-12.7&#10;&#9;&#9;c0.1-0.2,0.2-0.4,0.4-0.5c0.2-0.1,0.5-0.1,0.7,0.1c4,2.6,6.7,3,8.3,2.9c-2.7-1.6-4.9-5.1-7.5-9.3c-2.8-4.5-6.3-10.1-11.5-14.8&#10;&#9;&#9;C285.9,155.1,277.1,163.4,276.4,164.2L276.4,164.2z"/>
	<path class="st2_science-87 targetColor" d="M318.2,414.4l10.5-129.9c-21.5-13.9-53.8-25.1-93.4-23.8c0,0-43.5,10.3-62.8,25.6l10.3,128L318.2,414.4z" style="fill: rgb(104, 225, 253);"/>
	<path class="st1_science-87" d="M248.9,383.1c-0.2,0-0.4-0.1-0.5-0.3l-46.2-57c-0.2-0.3-0.2-0.6,0-0.9l19.6-22.5l-24.1-7&#10;&#9;&#9;c-0.4-0.1-0.6-0.5-0.5-0.9c0-0.1,0.1-0.2,0.1-0.3l21.1-23.1c0.2-0.3,0.6-0.4,1-0.2c0.3,0.2,0.4,0.6,0.2,1c0,0.1-0.1,0.1-0.2,0.2&#10;&#9;&#9;L199,294.4l24.1,7c0.2,0.1,0.4,0.2,0.5,0.5c0.1,0.2,0,0.5-0.1,0.6l-19.9,22.9l45.9,56.5c0.2,0.3,0.2,0.7-0.1,1c0,0,0,0,0,0&#10;&#9;&#9;C249.1,383,249,383,248.9,383.1z"/>
	<path class="st1_science-87" d="M258.3,377.8c-0.2,0-0.3-0.1-0.5-0.2c-0.3-0.3-0.3-0.7,0-1c0,0,0,0,0,0l43.5-46l-19-21.6&#10;&#9;&#9;c-0.1-0.1-0.2-0.3-0.2-0.5c0-0.2,0.1-0.4,0.3-0.5l23.7-18.8l-25.3-17c-0.3-0.2-0.4-0.7-0.1-1c0.2-0.3,0.6-0.4,0.9-0.2l26.1,17.6&#10;&#9;&#9;c0.2,0.1,0.3,0.3,0.3,0.5c0,0.2-0.1,0.4-0.3,0.6l-23.9,18.9l18.9,21.5c0.2,0.3,0.2,0.7,0,0.9l-44,46.5&#10;&#9;&#9;C258.7,377.7,258.5,377.8,258.3,377.8z"/>
	<path class="st1_science-87" d="M228.5,278.8l24.6,103.5l21.7-101.9C274.8,280.4,244.6,282.2,228.5,278.8z"/>
	<path class="st1_science-87" d="M253.1,383.1c-0.3,0-0.6-0.2-0.7-0.5L227.8,279c-0.1-0.2,0-0.5,0.2-0.6c0.2-0.2,0.4-0.2,0.6-0.2&#10;&#9;&#9;c15.9,3.4,45.8,1.6,46.1,1.6c0.2,0,0.4,0.1,0.6,0.2c0.1,0.2,0.2,0.4,0.1,0.6l-21.7,101.9C253.7,382.8,253.4,383.1,253.1,383.1&#10;&#9;&#9;L253.1,383.1z M229.4,279.7l23.6,99.5l20.9-98C268.9,281.4,244.1,282.5,229.4,279.7z"/>
	<path class="st0_science-87" d="M282,216.4c2.5-12.8,24-15.2,22.4-0.1c-0.5,5.2-2.4,10.4-6.2,14s-9.7,5.1-14.4,2.9"/>
	<path class="st1_science-87" d="M288.6,235c-1.8,0-3.6-0.4-5.2-1.2c-0.4-0.2-0.5-0.6-0.3-1c0,0,0,0,0,0c0.2-0.4,0.6-0.5,1-0.3c0,0,0,0,0,0&#10;&#9;&#9;c4.2,2,9.8,0.9,13.6-2.7c4.2-3.9,5.5-9.6,6-13.6c0.5-5.3-1.9-8.8-6.6-9.5c-5.7-0.9-13,3-14.4,9.8c-0.1,0.4-0.5,0.6-0.9,0.6&#10;&#9;&#9;c-0.4-0.1-0.6-0.5-0.6-0.9c1.5-7.7,9.6-11.9,16-11c4.3,0.6,8.5,3.9,7.8,11.1c-0.4,4.3-1.9,10.2-6.4,14.5&#10;&#9;&#9;C296.1,233.4,292.4,234.9,288.6,235z"/>
	<path class="st0_science-87" d="M228.9,214.5c-1.6-12.9-22.9-16.8-22.3-1.6c0.2,5.2,1.7,10.6,5.2,14.4s9.4,5.8,14.2,3.9"/>
	<path class="st1_science-87" d="M221.9,232.6c-4.1-0.1-7.9-1.8-10.7-4.9c-4.2-4.6-5.2-10.6-5.4-14.9c-0.2-7.2,4.2-10.2,8.5-10.5&#10;&#9;&#9;c6.4-0.5,14.2,4.3,15.2,12.1c0.1,0.4-0.1,0.8-0.5,0.9c-0.4,0.1-0.8-0.1-0.9-0.5c0-0.1,0-0.1,0-0.2c-0.9-6.9-7.9-11.3-13.7-10.8&#10;&#9;&#9;c-4.7,0.4-7.4,3.8-7.2,9c0.1,4,1.1,9.7,5,14c3.6,3.9,9.1,5.4,13.4,3.7c0.4-0.1,0.8,0,0.9,0.4c0.2,0.4,0,0.8-0.4,0.9&#10;&#9;&#9;C224.8,232.3,223.4,232.6,221.9,232.6z"/>
	<path class="st0_science-87" d="M228.5,278.8c0,0,9.8,5,26.7,5.6s19.6-4,19.6-4l-0.4-9l-0.9-21l-0.9-19.6l-38.5-1.3l-1.8,15.9l-0.6,5.2&#10;&#9;&#9;L228.5,278.8z"/>
	<path class="st1_science-87" d="M258,285.2c-0.9,0-1.9,0-2.9,0c-16.8-0.6-26.6-5.5-27-5.7c-0.3-0.1-0.4-0.4-0.4-0.7l5.6-49.3&#10;&#9;&#9;c0-0.4,0.4-0.6,0.7-0.6l38.5,1.3c0.4,0,0.7,0.3,0.7,0.7l2.2,49.6c0,0.1,0,0.3-0.1,0.4C275.3,281,272.5,285.2,258,285.2z&#10;&#9;&#9; M229.3,278.4c2.1,1,11.4,4.8,25.9,5.3c14.2,0.5,18.2-2.8,18.9-3.5l-2.2-48.6l-37.1-1.3L229.3,278.4z"/>
	<path class="st1_science-87" d="M231.7,250.6c2.7,4.8,7.4,8.6,12.2,11.5c8.1,4.9,20.3,10.5,30.4,9.3l-0.9-21c-7.4,0.7-14.8,0.5-22.2-0.6&#10;&#9;&#9;c-6.5-0.8-13.1-1.7-19-4.4L231.7,250.6z"/>
	<path class="st1_science-87" d="M271.5,272.3c-10.4,0-21.7-5.8-27.9-9.5c-5.8-3.5-10-7.5-12.5-11.8c-0.1-0.1-0.1-0.3-0.1-0.4l0.6-5.2&#10;&#9;&#9;c0-0.2,0.2-0.4,0.4-0.5c0.2-0.1,0.4-0.1,0.6,0c5.9,2.7,12.8,3.6,18.8,4.3c7.3,1.1,14.7,1.3,22,0.6c0.4,0,0.7,0.2,0.8,0.6&#10;&#9;&#9;c0,0,0,0,0,0l0.9,21c0,0.4-0.2,0.7-0.6,0.7C273.5,272.3,272.5,272.3,271.5,272.3z M232.4,250.5c2.4,4,6.4,7.7,11.9,11.1&#10;&#9;&#9;c6.5,3.9,18.8,10.2,29.3,9.2l-0.9-19.6c-7.2,0.6-14.5,0.4-21.6-0.7c-5.8-0.7-12.4-1.5-18.3-4L232.4,250.5z"/>
	<path class="st0_science-87" d="M251.4,254.6l3.4,0.1c16.3,0.6,29.9-12.2,30.5-28.4c0,0,0,0,0,0c0,0,1.6-35.2,1.6-46.7s-9.4-22.5-32.7-23&#10;&#9;&#9;s-29.7,14-29.7,25.2s-1.6,42.3-1.6,42.3C222.4,240.4,235.1,254,251.4,254.6C251.4,254.6,251.4,254.6,251.4,254.6z"/>
	<path class="st1_science-87" d="M255.9,255.5h-1.1l-3.4-0.1l0,0c-16.7-0.6-29.7-14.6-29.1-31.2c0-0.3,1.6-31.1,1.6-42.2&#10;&#9;&#9;c0-4.3,0.9-12.3,7.2-18.4c5.3-5.2,13.1-7.7,23.2-7.5c24.6,0.5,33.4,12.6,33.4,23.7c0,11.3-1.6,46.3-1.6,46.7&#10;&#9;&#9;C285.4,242.6,272.1,255.5,255.9,255.5z M251.4,253.9l3.4,0.1c15.9,0.5,29.2-11.9,29.7-27.7c0-0.4,1.6-35.4,1.6-46.6&#10;&#9;&#9;c0-10.4-8.4-21.8-32-22.3c-9.7-0.2-17.2,2.2-22.2,7.1c-5.9,5.8-6.7,13.4-6.7,17.4c0,11.1-1.6,42-1.6,42.3&#10;&#9;&#9;C223.1,240,235.5,253.3,251.4,253.9L251.4,253.9z"/>
	<path class="st0_science-87" d="M248.9,234.2c0,0-1,11.1,4.9,11.2s5.9-12.2,5.9-12.2S252.5,232.2,248.9,234.2z"/>
	<path class="st1_science-87" d="M253.9,246.2h-0.1c-1.3,0-2.6-0.6-3.4-1.6c-2.8-3.2-2.2-10.1-2.2-10.4c0-0.2,0.2-0.4,0.4-0.6&#10;&#9;&#9;c3.8-2.2,11-1.1,11.3-1c0.4,0,0.6,0.4,0.6,0.7c0,0.3,0,8.4-3.3,11.6C256.2,245.8,255.1,246.2,253.9,246.2z M249.5,234.7&#10;&#9;&#9;c-0.1,1.5-0.2,6.6,1.9,9c0.6,0.7,1.5,1.1,2.4,1.1c0.9,0,1.7-0.3,2.3-0.9c2.4-2.3,2.8-8,2.9-9.9&#10;&#9;&#9;C257.2,233.7,252.4,233.3,249.5,234.7z"/>
	<path class="st1_science-87" d="M254.8,228.9c-2,0-4.1-0.1-6.1-0.4c-0.4-0.1-0.7-0.4-0.6-0.8c0.1-0.4,0.4-0.7,0.8-0.6c2.8,0.4,5.6,0.5,8.4,0.3&#10;&#9;&#9;c0.2,0,0.3-0.1,0.4-0.2c1.3-2.1-2-11.9-4.3-17.6c-0.2-0.4,0-0.8,0.4-0.9c0.4-0.2,0.8,0,0.9,0.4l0,0c1.1,2.6,6.2,15.6,4.2,18.9&#10;&#9;&#9;c-0.3,0.5-0.9,0.9-1.5,0.9C256.6,228.9,255.7,228.9,254.8,228.9z"/>
	<path class="st0_science-87" d="M289.9,198.7c0,0-30.8-10.3-69.8-3l0.8,16.5c0,0,8.6,4.2,18,3.8s16-8.6,16-8.6s3.3,9.7,14.1,10&#10;&#9;&#9;s18.9-6.9,18.9-6.9L289.9,198.7z"/>
	<path class="st1_science-87" d="M269.8,218.2H269c-6.2-0.2-11.7-3.8-14.3-9.4c-2,2.2-7.9,7.7-15.8,8c-6.3,0.1-12.6-1.2-18.4-3.8&#10;&#9;&#9;c-0.2-0.1-0.4-0.4-0.4-0.6l-0.8-16.5c0-0.4,0.2-0.7,0.6-0.7c38.8-7.3,69.9,2.9,70.2,3c0.3,0.1,0.5,0.5,0.5,0.8l-2.1,11.8&#10;&#9;&#9;c0,0.2-0.1,0.3-0.2,0.4C288,211.4,280.3,218.2,269.8,218.2z M254.9,206.8h0.1c0.3,0,0.5,0.2,0.6,0.5c2.1,5.6,7.4,9.4,13.4,9.5&#10;&#9;&#9;c9.5,0.3,16.9-5.5,18.2-6.5l1.9-11c-4.4-1.3-33.1-9.4-68.3-2.9l0.8,15.5c1.8,0.8,9.3,3.9,17.3,3.6c9-0.4,15.4-8.3,15.5-8.4&#10;&#9;&#9;C254.5,206.8,254.7,206.7,254.9,206.8z"/>
	
		<ellipse transform="matrix(3.472503e-02 -0.9994 0.9994 3.472503e-02 51.8597 467.1526)" class="st1_science-87" cx="267.8" cy="206.7" rx="5" ry="2"/>
	
		<ellipse transform="matrix(2.998651e-02 -0.9996 0.9996 2.998651e-02 28.9409 439.2314)" class="st1_science-87" cx="240.8" cy="204.7" rx="5" ry="2"/>
	<path class="st1_science-87" d="M289.3,203.2c-0.1,0-0.1,0-0.2,0c-11.7-3.2-23.8-5-36-5.4c-10.9-0.3-21.9,0.4-32.6,2.2&#10;&#9;&#9;c-0.4,0.1-0.8-0.2-0.9-0.5s0.2-0.8,0.5-0.9c0,0,0,0,0,0c0.1,0,13.5-2.7,33-2.2c12.3,0.4,24.5,2.2,36.4,5.4c0.4,0.1,0.6,0.5,0.5,0.9&#10;&#9;&#9;C289.9,203,289.6,203.2,289.3,203.2z"/>
	<path class="st1_science-87" d="M252.9,406.3L252.9,406.3c-0.4,0-0.7-0.3-0.7-0.7c0,0,0,0,0,0c0-7.7,0-15.5,0.1-23.2c0-0.4,0.3-0.7,0.7-0.7&#10;&#9;&#9;l0,0c0.4,0,0.7,0.3,0.7,0.7c-0.1,7.7-0.1,15.5-0.1,23.2C253.6,406,253.3,406.3,252.9,406.3C252.9,406.3,252.9,406.3,252.9,406.3z"/>
	<path class="st1_science-87" d="M253.1,228.2c0,0-7.5,1.5-14.1,9.4c0,0,6,3.5,14.9-3.4c0,0,10.5,5.2,17.3,2.6&#10;&#9;&#9;C271.1,236.8,263.2,226.7,253.1,228.2z"/>
	<path class="st1_science-87" d="M243.1,239.2c-1.6,0-3.1-0.3-4.6-1c-0.2-0.1-0.3-0.3-0.3-0.5c0-0.2,0-0.4,0.1-0.6c6.7-8,14.2-9.6,14.5-9.6l0,0&#10;&#9;&#9;c10.5-1.6,18.3,8.5,18.7,8.9c0.1,0.2,0.2,0.4,0.1,0.6c-0.1,0.2-0.2,0.4-0.4,0.5c-6.3,2.4-15.4-1.5-17.5-2.4&#10;&#9;&#9;C249.5,238.3,245.8,239.2,243.1,239.2z M240.1,237.3c1.8,0.6,6.7,1.5,13.3-3.7c0.2-0.2,0.5-0.2,0.7-0.1c0.1,0.1,9.4,4.6,15.8,2.9&#10;&#9;&#9;c-2-2.3-8.7-8.8-16.7-7.6C252.8,229,246.2,230.5,240.1,237.3z"/>
	<path class="st2_science-87 targetColor" d="M198.4,272.7l-61.9,28.8L101.7,248c0,0-52,16.2-51.2,18.5s47.3,110.3,78.8,99.7s59.1-18.9,59.1-18.9&#10;&#9;&#9;L198.4,272.7z" style="fill: rgb(104, 225, 253);"/>
	<path class="st1_science-87" d="M62.4,237.8c-0.3,0-0.6-0.3-0.7-0.6c-1.4-8.7,8.5-15.7,9-16c0.3-0.2,0.8-0.1,1,0.2c0.2,0.3,0.2,0.8-0.2,1&#10;&#9;&#9;c0,0,0,0,0,0c-0.1,0.1-9.7,6.8-8.4,14.6c0.1,0.4-0.2,0.8-0.6,0.8L62.4,237.8z"/>
	<path class="st1_science-87" d="M181.8,403.8L181.8,403.8c-0.4,0-0.7-0.4-0.7-0.7c0.1-1.9-4.7-63.3-7.3-95.5c0-0.4,0.3-0.7,0.6-0.7&#10;&#9;&#9;s0.7,0.3,0.7,0.6c0.3,3.8,7.4,93.3,7.3,95.7C182.5,403.5,182.2,403.8,181.8,403.8z"/>
	<path class="st1_science-87" d="M318.8,407.3L318.8,407.3c-0.4,0-0.7-0.4-0.7-0.8l8.1-99.1c0-0.4,0.3-0.7,0.7-0.7c0.4,0,0.7,0.3,0.7,0.7&#10;&#9;&#9;c0,0,0,0.1,0,0.1l-8.1,99.1C319.5,407.1,319.2,407.3,318.8,407.3z"/>
</g>
<g id="Atoms_science-87">
	<path class="st3_science-87" d="M88.4,207.2c-20.2,0-36.7-26.7-36.7-59.6S68.2,88,88.4,88s36.7,26.7,36.7,59.6S108.7,207.2,88.4,207.2z&#10;&#9;&#9; M88.4,89.4c-19.5,0-35.3,26.1-35.3,58.2s15.8,58.2,35.3,58.2s35.3-26.1,35.3-58.2S107.9,89.4,88.4,89.4z"/>
	<path class="st3_science-87" d="M49.4,188.1c-11.2,0-20-2.6-24.4-8c-2.9-3.4-3.8-7.7-2.8-12.7c2.9-13.9,21-31.3,46.2-44.2&#10;&#9;&#9;c35-17.9,72.4-21.6,83.4-8.3c2.9,3.5,3.8,7.7,2.8,12.7c-2.9,14-21,31.3-46.2,44.2l0,0C87.6,182.5,65.9,188.1,49.4,188.1z&#10;&#9;&#9; M127.5,108.3c-16.2,0-37.7,5.6-58.4,16.2c-24.9,12.7-42.7,29.7-45.5,43.2c-0.9,4.5-0.1,8.4,2.5,11.5c10.6,12.8,47.3,8.9,81.7-8.7&#10;&#9;&#9;l0.3,0.6l-0.3-0.6c24.9-12.7,42.7-29.7,45.5-43.2c0.9-4.5,0.1-8.4-2.5-11.5C146.5,110.8,138.2,108.3,127.5,108.3z"/>
	<path class="st3_science-87" d="M127.4,188.1c-16.5,0-38.2-5.6-59-16.3C43.2,159,25,141.6,22.2,127.7c-1-5-0.1-9.2,2.8-12.7&#10;&#9;&#9;c11-13.3,48.5-9.6,83.4,8.3c25.2,12.9,43.4,30.2,46.2,44.2c1,5,0.1,9.2-2.8,12.7C147.4,185.6,138.6,188.1,127.4,188.1z M49.3,108.3&#10;&#9;&#9;c-10.7,0-19,2.4-23.3,7.6c-2.6,3.1-3.4,7-2.5,11.5c2.8,13.5,20.6,30.5,45.5,43.2l0,0c34.4,17.6,71.1,21.5,81.7,8.7&#10;&#9;&#9;c2.6-3.1,3.4-7,2.5-11.5c-2.8-13.6-20.6-30.5-45.5-43.2C87,113.9,65.5,108.3,49.3,108.3z"/>
	<circle class="st3_science-87" cx="88.4" cy="147.6" r="18.5"/>
	<circle class="st3_science-87" cx="73.6" cy="93.4" r="7"/>
	<circle class="st3_science-87" cx="28.9" cy="178.4" r="7"/>
	<circle class="st3_science-87" cx="151.1" cy="180.1" r="7"/>
	<path class="st3_science-87" d="M408.5,204.8c-20.2,0-36.7-26.7-36.7-59.6s16.5-59.6,36.7-59.6s36.7,26.7,36.7,59.6S428.8,204.8,408.5,204.8z&#10;&#9;&#9; M408.5,87.1c-19.5,0-35.3,26.1-35.3,58.2s15.9,58.2,35.3,58.2s35.3-26.1,35.3-58.2S428,87.1,408.5,87.1z"/>
	<path class="st3_science-87" d="M447.5,185.8c-16.5,0-38.2-5.6-59-16.3c-25.2-12.9-43.4-30.2-46.2-44.2c-1-5-0.1-9.2,2.8-12.7&#10;&#9;&#9;c11-13.3,48.5-9.6,83.4,8.3c25.2,12.9,43.4,30.2,46.2,44.2c1,5,0.1,9.2-2.8,12.7C467.5,183.2,458.7,185.8,447.5,185.8z M369.4,106&#10;&#9;&#9;c-10.7,0-19,2.5-23.3,7.6c-2.6,3.1-3.4,7-2.5,11.5c2.8,13.6,20.6,30.5,45.5,43.2c34.4,17.6,71.1,21.5,81.7,8.6&#10;&#9;&#9;c2.6-3.1,3.4-7,2.5-11.5c-2.8-13.6-20.6-30.5-45.5-43.2l0,0C407.1,111.6,385.6,106,369.4,106z"/>
	<path class="st3_science-87" d="M369.5,185.8c-11.2,0-20-2.6-24.4-8c-2.9-3.5-3.8-7.7-2.8-12.7c2.9-14,21-31.3,46.2-44.2l0,0&#10;&#9;&#9;c35-17.9,72.4-21.6,83.4-8.3c2.9,3.4,3.8,7.7,2.8,12.7c-2.9,13.9-21,31.3-46.2,44.2C407.7,180.2,386,185.8,369.5,185.8z&#10;&#9;&#9; M388.8,121.6l0.3,0.6c-24.9,12.7-42.7,29.7-45.5,43.2c-0.9,4.5-0.1,8.4,2.5,11.5c10.6,12.8,47.3,8.9,81.7-8.6&#10;&#9;&#9;c24.9-12.7,42.7-29.7,45.5-43.2c0.9-4.5,0.1-8.4-2.5-11.5c-10.6-12.8-47.3-8.9-81.7,8.7L388.8,121.6z"/>
	<circle class="st3_science-87" cx="408.5" cy="145.2" r="18.5"/>
	<circle class="st3_science-87" cx="393.6" cy="199.5" r="7"/>
	<circle class="st3_science-87" cx="349" cy="114.4" r="7"/>
	<circle class="st3_science-87" cx="471.2" cy="112.7" r="7"/>
</g>
<g id="Formula_science-87">
	<path class="st1_science-87" d="M266.8,122.9c-2.2,3.9-4.4,7.8-6.8,11.7c-0.7,0.8-1.5,1.6-2.4,2.2c-0.7-1-2-2-2-2.9c0.1-5.1,0.5-10.2,1-15.3&#10;&#9;&#9;c0-0.6,1.1-1.6,1.5-1.5c0.9,0.2,2.1,0.8,2.4,1.6c0.3,1.2,0.3,2.4,0,3.6c-0.4,1.8-0.6,3.7-0.7,5.5c0.9-1.5,1.7-3.1,2.6-4.6&#10;&#9;&#9;c0.6-1,1.3-1.9,2-2.8c1.3-1.5,2.8-3,5-2.2s2.3,2.8,2.5,4.6s0,3.8,0,5.7l0.9,0.1c0.9-1.8,1.7-3.6,2.8-5.3c0.8-1.6,1.9-3,3.1-4.3&#10;&#9;&#9;c2.3-2.1,5-1.2,5.8,1.7c0.6,2.3,0.6,4.7,1.1,7c0.2,1.4,0.8,2.8,1.5,4c0.8,1.1,1.8,1.8,0.4,3s-2.9,1.4-4.1,0.1&#10;&#9;&#9;c-0.8-1-1.3-2.2-1.5-3.5c-0.5-2.4-0.6-4.8-0.9-7.2c-0.2-0.7-0.4-1.3-0.7-1.9c-0.9,1.5-1.6,2.5-2.2,3.6c-1.2,2.3-2.4,4.6-3.7,6.9&#10;&#9;&#9;c-0.8,1.4-2,2.8-3.7,1.9c-1.1-0.8-1.9-2-2.2-3.4c-0.4-2.7-0.6-5.4-0.7-8.1L266.8,122.9z"/>
	<path class="st1_science-87" d="M198,122.6l7-0.9c1-0.3,2.1-0.4,3.1-0.4c1,0.3,1.9,0.8,2.7,1.4c-0.8,0.8-1.4,2-2.3,2.2&#10;&#9;&#9;c-2.8,0.6-5.6,0.8-8.5,1.2c-2.2,0.3-4.4,4.8-3.2,6.6c0.3,0.4,1.3,0.6,1.9,0.5c2.8-0.3,5.5-0.8,8.2-1.1c0.9-0.2,1.9-0.3,2.9-0.1&#10;&#9;&#9;c0.8,0.3,1.4,1,1.6,1.8c0.1,0.4-0.8,1.3-1.4,1.6c-1,0.3-2,0.5-3.1,0.6c-3.8,0.5-7.6,1-11.4,1.3c-3.1,0.2-4-1.1-3.5-4.2&#10;&#9;&#9;c1-5.5,1.8-11.1,2.7-16.6c0.1-0.5,0-1-0.1-1.4c-0.8-2.7-0.3-3.1,2.5-3.3c4.1-0.3,8.1-0.8,12.1-1.2c1.6-0.1,3.9-0.8,4,1.7&#10;&#9;&#9;c0.1,2.2-2.1,2-3.7,2.1c-2.7,0.2-5.4,0.4-8,0.6c-1.4-0.1-2.5,0.9-2.6,2.3c0,0.1,0,0.2,0,0.2C198.8,119.3,198.4,121,198,122.6z"/>
	<path class="st1_science-87" d="M300.7,120.2c-3.2,1.7-6.8,8.1-6,11.1c0.5,1,1.4,1.7,2.5,1.9c1.9-0.3,3.8-1.3,5.7-1.9c0.9-0.2,1.8-0.4,2.7-0.5&#10;&#9;&#9;c-0.4,0.9-0.5,2-1.1,2.6c-2.3,2.4-5.5,3.7-8.8,3.5c-2.8,0-5-2.1-5.1-4.9c-0.6-4.8,3.8-12.9,8.1-15c1.6-0.8,3.3-1.1,4.7,0.4&#10;&#9;&#9;c1.5,1.4,2.1,3.6,1.4,5.6c-0.3,0.6-0.9,1-1.6,1.2c-0.4,0-1.2-0.6-1.4-1.1C301.3,122.2,301,121.2,300.7,120.2z"/>
	<path class="st1_science-87" d="M241.5,122c-4.9,0-9.2,0.1-13.5-0.1c-0.8,0-1.6-0.9-2.4-1.4c0.5-0.8,1.2-1.5,1.9-2.1c0.8-0.3,1.7-0.5,2.6-0.4&#10;&#9;&#9;c2.9-0.1,5.7-0.3,8.5-0.2c1.2,0,2.4,0.4,3.4,0.9c0.6,0.5,0.8,1.3,0.6,2.1C242.6,121.5,241.7,121.9,241.5,122z"/>
	<path class="st1_science-87" d="M235,126.2c2,0.1,4.1,0.2,6.1,0.6c0.8,0.2,1.4,1.4,2.1,2.2c-0.9,0.4-1.8,1.2-2.7,1.2c-3.6,0.1-7.3,0-11,0&#10;&#9;&#9;c-0.6,0-1.4,0.1-1.9-0.2c-0.6-0.6-1.2-1.3-1.6-2c0.6-0.5,1.1-1.2,1.8-1.3C229.8,126.4,231.9,126.4,235,126.2z"/>
	<path class="st1_science-87" d="M315.9,122.7c-0.8-0.1-1.5-0.1-2.3,0c0,0,0.1,0,0.1-0.1c0.5-0.6,1-1.2,1.5-1.8c1-1,1.3-2.5,0.8-3.9&#10;&#9;&#9;c-1.1-3-4.7-2.8-7-1.4c-1.6,1-0.1,3.6,1.5,2.5c0.6-0.4,1.5-1,2.3-0.5c1,0.6,0,1.5-0.5,2.1c-1,1.2-2.3,2.1-3.2,3.4&#10;&#9;&#9;c-0.3,0.5-0.3,1,0,1.5c0.7,1,1.3,1,2.4,1c1.4,0,2.9,0,4.3,0.1C317.8,125.9,317.8,122.9,315.9,122.7z"/>
</g>
</svg>