<svg xmlns="http://www.w3.org/2000/svg" viewBox="0 0 750 500"><g id="freepik--background-complete--inject-59"><polygon points="693.97 442.9 485.1 442.9 465.1 459.87 673.97 459.87 693.97 442.9" style="fill:#ebebeb"></polygon><polygon points="655.91 454.7 433.52 454.7 422.62 465.05 645.02 465.05 655.91 454.7" style="fill:#dbdbdb"></polygon><polygon points="56.03 442.9 264.9 442.9 284.9 459.87 76.03 459.87 56.03 442.9" style="fill:#ebebeb"></polygon><polygon points="94.08 454.7 316.48 454.7 327.38 465.05 104.98 465.05 94.08 454.7" style="fill:#dbdbdb"></polygon><polygon points="693.97 51.44 485.1 51.44 465.1 68.41 673.97 68.41 693.97 51.44" style="fill:#ebebeb"></polygon><polygon points="655.91 63.24 433.52 63.24 422.62 73.59 645.02 73.59 655.91 63.24" style="fill:#dbdbdb"></polygon><polygon points="56.03 51.44 264.9 51.44 284.9 68.41 76.03 68.41 56.03 51.44" style="fill:#ebebeb"></polygon><polygon points="94.08 63.24 316.48 63.24 327.38 73.59 104.98 73.59 94.08 63.24" style="fill:#dbdbdb"></polygon></g><g id="freepik--character-3--inject-59"><rect x="502.72" y="95.7" width="191.24" height="330.78" style="fill:#c7c7c7"></rect><rect x="511.59" y="123.83" width="173.51" height="284.52" style="fill:#dbdbdb"></rect><path d="M581.09,115.06v-7.5h1.5v-1.5h1.5v-1.5h4.5v1.5h1.5v1.5h1.5v7.5h-3v-3h-4.5v3Zm3-4.5h4.5v-3h-1.5v-1.5h-1.5v1.5h-1.5Z" style="fill:#fff"></path><path d="M593.09,115.06v-3h1.5v-1.5h1.5v-1.5h-1.5v-1.5h-1.5v-3h3v3h1.5v1.5h1.5v-1.5h1.5v-3h3v3h-1.5v1.5h-1.5v1.5h1.5v1.5h1.5v3h-3v-3h-1.5v-1.5h-1.5v1.5h-1.5v3Z" style="fill:#fff"></path><path d="M606.59,115.06v-10.5h3v9h6v1.5Z" style="fill:#fff"></path><path d="M647.46,406.36c-12.45,7.38-29,13.73-46.8,20.12H502.72V360.39c25.33-9,46.35-15.3,47.36-17.44,1.93-4.08,3.41-7.13,4.51-9.38a.31.31,0,0,1,0-.1s0,0,0,0l.78-1.6h0c1.45-3,2-4,2-4H661.79c.09.18,1.2,2.25,2.63,5.67.8,1.92,1.71,4.28,2.59,7,.44,1.33.87,2.74,1.28,4.22C673.2,362.48,675.05,390,647.46,406.36Z" style="fill:#263238"></path><path d="M694,360.83v65.65H596.66c-2.34-1.26-3.51-1.84-3.51-1.84l-33.62-91.07-2.1-5.68H661.79c.17.17,2.22,2.21,5.65,5.67,1.84,1.85,4.07,4.11,6.61,6.71l3.52,3.58C682.35,348.76,688,354.54,694,360.83Z" style="fill:#263238"></path><path d="M595.82,426.48h-2.19c-2-.81-4.12-1.57-6.2-2.3h0c-.94-.34-1.88-.66-2.83-1h-.07c-9.15-3.1-18.51-5.6-27.83-8a187.54,187.54,0,0,1,27.09,6.75C587.83,423.29,591.88,424.78,595.82,426.48Z" style="fill:#37474f"></path><path d="M567.6,422.5a58.76,58.76,0,0,1,21.77,1.87c-7.28-.78-14.49-1.08-21.77-1.87Z" style="fill:#37474f"></path><path d="M639.05,327.89a87.37,87.37,0,0,1,16.21,11.57c2.58,3.22,3.26,7.42,4.25,11.28a103.37,103.37,0,0,1,1.78,10.46q-1.08-5.19-2.41-10.3c-1.27-3.94-2-8.85-5.26-11.63-4.6-3.84-9.74-7.83-14.57-11.38Z" style="fill:#37474f"></path><path d="M633.73,327.89a73.8,73.8,0,0,0-1.52,8.71c.47,3.66,2.45,7.09,3.87,10.48a46,46,0,0,0,3.33,6.29c.4-.07,1.13-1,1.41-1.48,1.49-2.61,3.18-6.59,1.23-9.36,2.37,2.73.87,6.9-.57,9.76-.8,1.41-2.15,3.09-3.31.88a60.3,60.3,0,0,1-6.56-15.26,6.24,6.24,0,0,1,.1-2.65,55.41,55.41,0,0,1,2-7.37Z" style="fill:#37474f"></path><path d="M609.41,327.89c-1.66,3.65-3.74,7.3-4.72,11.17-.21,6.69,1,13.54,1.21,20.26-.28-1.33-.49-2.68-.73-4-.6-3.94-1.21-8.24-1.46-12.21a19,19,0,0,1,0-4.2c1.15-4,3.42-7.51,5.65-11Z" style="fill:#37474f"></path><path d="M557.43,327.89c-.21,4.31-.62,9-1,13.27a5.59,5.59,0,0,1-.39,2c-1.23,2.39-3.13,4.1-5,5.91a59.19,59.19,0,0,1-6,4.76c2.68-2.7,5.42-5.3,7.93-8.13.95-1.18,2.08-2.26,2.38-3.71.08-.6.28-2.2.36-2.82.51-3.65,1.06-7.66,1.71-11.27Z" style="fill:#37474f"></path><path d="M575.12,327.89c-.76,3.51-2,6.84-2.71,10.31-.11,2,.32,4.25.2,6.35a28.07,28.07,0,0,1-1.14-6.46,33.64,33.64,0,0,1,3.65-10.2Z" style="fill:#37474f"></path><path d="M578.11,215.82c-44,28.17-74,50.94-80,69.78-8.28,26.07,6.93,36.21,14.27,37.5,20,3.52,63.33-57.31,81.14-86.22C610.85,208.8,587.78,209.63,578.11,215.82Z" style="fill:#263238"></path><path d="M661.72,327.88H557.43s-12.38-36.76,26-112.49c2.2-4.35,21.73-12,32-4.84C645.94,231.77,648,267.75,664,304.2,670.22,318.26,661.72,327.88,661.72,327.88Z" style="fill:#263238"></path><path d="M600.87,236.7c6.46.61,18.46-8.57,21.67-18.12.22-.66-1.81-6.79-3.93-14.35-1.27-4.59-2.58-9.74-3.43-14.52-.17-1-28.69,12.63-28.69,12.63s4.73,9.49,6.17,17.84a11.61,11.61,0,0,1,.14,2c0,.09,0,.2,0,.33C592.87,226.34,594,236.05,600.87,236.7Z" style="fill:#f7a9a0"></path><path d="M600.87,236.7c6.46.61,18.46-8.57,21.67-18.12.22-.66-1.81-6.79-3.93-14.35-1.27-4.59-2.58-9.74-3.43-14.52-.17-1-28.69,12.63-28.69,12.63s4.73,9.49,6.17,17.84a11.61,11.61,0,0,1,.14,2c0,.09,0,.2,0,.33C592.87,226.34,594,236.05,600.87,236.7Z" style="fill:#f7a9a0"></path><path d="M621.42,213.91c-15.79,5.12-26.64-1-32.81-6.82-1.18-2.85-2.13-4.75-2.13-4.75s28.53-13.61,28.71-12.63c.85,4.79,2.15,9.94,3.41,14.52C619.66,208,620.68,211.36,621.42,213.91Z" style="fill:#263238"></path><path d="M576.8,153.37c-3.86,10.61.19,42.06,7.49,49.42,10.59,10.65,28.74,12.58,38-.34,9-12.52,3-53.42-5.26-60.18C604.91,132.3,582.5,137.69,576.8,153.37Z" style="fill:#f7a9a0"></path><path d="M623.51,155.92v0c-1.38-2.6-5.29-7-9.24-6.95-1.72,0-4.47,2.31-8.15,2.86-5,.75-8.16-2.72-13.73-1.34-4.34,1.08-11.5,5.74-10.56,20,.8,12.27-4.14,14.41-4.49,14.56-2.34-11.63-2.86-25.37-.55-31.69,5.72-15.68,28.12-21.07,40.25-11.1C619.51,144.31,621.79,149.43,623.51,155.92Z" style="fill:#263238"></path><path d="M598.57,176.9c0-.08-.15.12-.13.2.36,2.07.42,4.49-1.36,5.44-.06,0,0,.14,0,.12C599.36,182,599.24,178.79,598.57,176.9Z" style="fill:#263238"></path><path d="M596.42,175c-3.38.21-2.7,6.94.43,6.74S599.24,174.81,596.42,175Z" style="fill:#263238"></path><path d="M611.45,174.57c0-.08.17.08.18.17.14,2.09.66,4.46,2.62,5,.06,0,.06.12,0,.12C611.91,179.73,611.25,176.57,611.45,174.57Z" style="fill:#263238"></path><path d="M613.09,172.2c3.33-.59,4.27,6.11,1.19,6.66S610.3,172.7,613.09,172.2Z" style="fill:#263238"></path><path d="M592.17,171.77c.91.25,1.8.33,2.73.49a4.6,4.6,0,0,0,2.89,0,1.43,1.43,0,0,0,.65-1.62,3.55,3.55,0,0,0-2.93-2.09,5.27,5.27,0,0,0-3.72.48A1.53,1.53,0,0,0,592.17,171.77Z" style="fill:#263238"></path><path d="M616.07,168.49a24.72,24.72,0,0,1-2.67.78,4.45,4.45,0,0,1-2.87.28,1.43,1.43,0,0,1-.82-1.54,3.54,3.54,0,0,1,2.69-2.38,5.21,5.21,0,0,1,3.75.07A1.52,1.52,0,0,1,616.07,168.49Z" style="fill:#263238"></path><path d="M600.34,195.32c.55.44,1.11,1.06,1.88,1a5.35,5.35,0,0,0,2.18-.75.08.08,0,0,1,.11.1,2.82,2.82,0,0,1-2.54,1.4,2.22,2.22,0,0,1-1.82-1.68C600.1,195.31,600.26,195.25,600.34,195.32Z" style="fill:#263238"></path><path d="M602.15,192.67c4.08-1,8.93-1.45,9-1.68l-.86-4.79c.61.24,3.74,1.28,3.61.45-1.12-6.9-2.36-14.57-4.93-21.21a.19.19,0,0,0-.37.1c.81,6.67,2.79,13.16,3.71,19.85a12.44,12.44,0,0,0-3.46-.68c-.22.09.86,5.43.85,5.48a30.11,30.11,0,0,0-7.58,2C601.82,192.34,601.94,192.72,602.15,192.67Z" style="fill:#263238"></path><path d="M577.07,187.56s27-7.78,34.15-8.12,17.06,3.65,17.06,3.65-.53,29-21.54,29S578.21,197,577.07,187.56Z" style="fill:#37474f"></path><path d="M625.51,165.63A38.4,38.4,0,0,0,603.09,161c-12.09,1.41-24.82,11.42-27.43,12.58-.58-7.33-.65-15.57,1.13-20.16,6-15.56,28-20.85,40.25-11.1C621.87,146.11,624.38,156.76,625.51,165.63Z" style="fill:#263238"></path><path d="M573.94,172.87a140.32,140.32,0,0,1,15.12-9.54,38.65,38.65,0,0,1,10.35-2.82c-1.17.25-2.32.55-3.47.87-8.17,2-14.78,7.46-22,11.49Z" style="fill:#37474f"></path><path d="M574.51,170.69c2.59-1.91,6.16-4.53,8.68-6.44a27.14,27.14,0,0,1,10.14-3.74,34.55,34.55,0,0,0-9.86,4.13,81.28,81.28,0,0,1-9,6.05Z" style="fill:#37474f"></path><path d="M611.72,160c5.92.72,12.07,2.06,16.56,6.26a30.08,30.08,0,0,0-7.91-4c-2.47-.77-6.11-1.59-8.65-2.25Z" style="fill:#37474f"></path><path d="M582.16,179.86s-6.15-10.66-10.93-8.55-.76,17.14,4.42,19.6a5.47,5.47,0,0,0,7.55-2.3Z" style="fill:#f7a9a0"></path><path d="M572.49,175.59c-.09,0-.11.1,0,.14,3.62,1.85,5.3,5.5,6.37,9.23-1-1.49-2.45-2.38-4.43-1.21-.1.06,0,.22.08.21a3.35,3.35,0,0,1,3.59,1.49,15.54,15.54,0,0,1,1.5,3.13c.15.35.77.22.68-.17a.29.29,0,0,1,0-.09C580.73,183.54,577.59,176.52,572.49,175.59Z" style="fill:#263238"></path><path d="M619,161.83l-.25-.07c.24.37.47.76.69,1.16C619.31,162.56,619.17,162.2,619,161.83Zm-31.24,43.31c0-.09-.07-.17-.11-.25s-.16-.37-.24-.54h0l-.2-.45-.12-.24a.14.14,0,0,0,0-.06.93.93,0,0,1-.05-.1l-.22-.5,0,0,0-.09s0-.08,0-.11h0a.25.25,0,0,0,0-.07,1,1,0,0,0,0-.1l-.11-.21h0v0l.29-.14h0l.15-.08h0l.42-.2h0l.15-.08.1,0,.28-.14.43-.2a16.27,16.27,0,0,1-2.2-2.89c-1.36-2.32-2.63-7.1-3.15-12.67a47.11,47.11,0,0,1,1.46-17.78c0-.12.07-.24.11-.35s0,0,0,0c.09-.26.17-.51.27-.76a.49.49,0,0,1,0-.11,9.4,9.4,0,0,1,.34-.88c.08-.23.18-.45.28-.67a20.25,20.25,0,0,1,1-2,5.58,5.58,0,0,1,.32-.52c-.29.13-.58.26-.87.41l-.46.23a.07.07,0,0,0,0,.05c-.12.5-.24,1-.34,1.5l-.12.6c-1.09.64-2.17,1.31-3.24,2,0,.16,0,.32,0,.49l-1.15.73-1.32.84c-1.23.77-2.46,1.54-3.71,2.27a1.48,1.48,0,0,0,0,.21c.2.14.4.28.6.44l.2.16.17.14.1.1h0l.12.1.54.5c.22.2.43.42.64.64l.15.16c.2.21.39.43.59.65l.08.1c.21.24.41.49.61.73s.25.31.36.47l.42.55c.06.09.13.17.18.25l.4.54c.07.12.15.23.22.34l.21.31.19.29c0,.26-.11.5-.18.74,0,.05,0,.11,0,.16l-.06.19v0l-.1.31a11.28,11.28,0,0,1-.41,1.13l-.15.34a9.4,9.4,0,0,1-.46.9l-.16.26c-.08.14-.17.27-.25.39s0,0,0,.07q.13.42.24.84a2.5,2.5,0,0,1,.07.26,5.78,5.78,0,0,1,.12.57,1.18,1.18,0,0,1,0,.2q.08.39.12.78c0,.29.06.57.08.85v0l2.63-.73.32,2.68a5.81,5.81,0,0,1-.64.95,2.91,2.91,0,0,1-.24.27,3.5,3.5,0,0,1-.27.28,2.8,2.8,0,0,1-.31.28c-.11.09-.22.18-.35.27a3.73,3.73,0,0,1-.39.25l-.34.19-.08,0a2.27,2.27,0,0,1-.39.16l-.12,0h0l0,0-.27.07h0l-.23.05-.1,0h0l-.36.05h-.07c.12.42.24.83.37,1.23s.19.61.29.91a.19.19,0,0,0,0,.07c.26.79.54,1.54.82,2.27h0a29.37,29.37,0,0,0,1.73,3.75c.08.18.16.35.25.52s.26.49.41.73a11.82,11.82,0,0,0,1,1.43,2.62,2.62,0,0,0,.22.25c.17.2.35.39.54.58s.31.29.48.43a.1.1,0,0,0,.05,0l.28.23a6.61,6.61,0,0,0,.6.44l.74.5a.15.15,0,0,0,.07.05h0s0,0,0,0c.16.14.32.26.48.38s.57.45.87.65l-.08-.2ZM619,161.83l-.25-.07c.24.37.47.76.69,1.16C619.31,162.56,619.17,162.2,619,161.83ZM586.78,202.2h0l.15-.08h0l.42-.2h0l.15-.08.1,0,.28-.14.43-.2a16.27,16.27,0,0,1-2.2-2.89c-1.36-2.32-2.63-7.1-3.15-12.67a47.11,47.11,0,0,1,1.46-17.78c0-.12.07-.24.11-.35s0,0,0,0c.09-.26.17-.51.27-.76a.49.49,0,0,1,0-.11,9.4,9.4,0,0,1,.34-.88c.08-.23.18-.45.28-.67a20.25,20.25,0,0,1,1-2,5.58,5.58,0,0,1,.32-.52c-.29.13-.58.26-.87.41l-.46.23a.07.07,0,0,0,0,.05c-.12.5-.24,1-.34,1.5l-.12.6c-1.09.64-2.17,1.31-3.24,2,0,.16,0,.32,0,.49l-1.15.73-1.32.84c-1.23.77-2.46,1.54-3.71,2.27a1.48,1.48,0,0,0,0,.21c.2.14.4.28.6.44l.2.16.17.14a.52.52,0,0,1,.11.1l.12.1c.18.16.36.32.54.5s.43.42.64.64l.15.16c.2.21.4.43.59.65l.08.1c.21.24.41.49.61.73s.25.31.36.47l.42.55c.06.09.13.17.18.25l.4.54c.07.12.15.23.22.34s.15.21.21.31l.19.29c0,.26-.11.5-.18.74,0,.05,0,.11,0,.16s0,.13,0,.19v0l-.1.31a11.28,11.28,0,0,1-.41,1.13l-.15.34a9.4,9.4,0,0,1-.46.9,2.26,2.26,0,0,1-.16.26,3.73,3.73,0,0,1-.25.39s0,0,0,.07q.13.42.24.84a2.5,2.5,0,0,1,.07.26,5.78,5.78,0,0,1,.12.57,1.18,1.18,0,0,1,0,.2q.08.39.12.78c0,.29.06.57.08.85v0l2.63-.73.32,2.68a5.81,5.81,0,0,1-.64.95,2.91,2.91,0,0,1-.24.27,3.5,3.5,0,0,1-.27.28,2.8,2.8,0,0,1-.31.28c-.11.09-.22.18-.35.27a3.73,3.73,0,0,1-.39.25l-.34.19-.08,0a2.27,2.27,0,0,1-.39.16l-.12,0h0l0,0c0,.67,0,1.36.08,2,0,.18,0,.36,0,.54s0,.46.07.69c0,.47.12.95.21,1.42h0a29.37,29.37,0,0,0,1.73,3.75c.08.18.16.35.25.52s.26.49.41.73a11.82,11.82,0,0,0,1,1.43,2.62,2.62,0,0,0,.22.25c.17.2.35.39.54.58s.31.29.48.43a.1.1,0,0,0,.05,0l.28.23a6.61,6.61,0,0,0,.6.44l.74.5a.15.15,0,0,0,.07.05h0s0,0,0,0c.16.14.32.26.48.38s.57.45.87.65l-.08-.2-.32-.73c0-.09-.07-.17-.11-.25s-.16-.37-.24-.54h0l-.2-.45-.12-.24a.14.14,0,0,0,0-.06.93.93,0,0,1-.05-.1l-.22-.5,0,0,0-.09s0-.08,0-.11h0a.25.25,0,0,0,0-.07,1,1,0,0,0,0-.1l-.11-.21h0v0Zm36-53.26c-6.39-11.36-16.57-15-28-12.35h0c-9.49.39-30.06,14.31-32.74,17a7.65,7.65,0,0,0-1.27,2.11,68.61,68.61,0,0,0-4,14.21h0c-.44,2.7-.51,4.59.08,4.43.24-.07.51-.63.86-1.27.5-.94,1.16-2.05,2.1-2.05a40.15,40.15,0,0,0,5-.75c.94-.14,1.58-.17,1.47.15s-.31,1.32-.61,2.87c-.71,3.65-1.71,9.61-1.2,10.89a23.29,23.29,0,0,0,3.05,4.6,58.31,58.31,0,0,0,1.52,10.8c.71,2.82,3.44,5.27,6.62,7.3a102.57,102.57,0,0,0,11,5.59l.2.09h0a5.85,5.85,0,0,1,1,.63c3.8,3.22,3.83,13.47,5.94,20.21a19,19,0,0,0,.66,1.81,7.56,7.56,0,0,0,3,3.75,5.58,5.58,0,0,0,1.77.63c5.46,1.07,13.75-4,13.75-4a51.43,51.43,0,0,0,4.69-5.31,34.1,34.1,0,0,0,5.61-10.59,6.05,6.05,0,0,0,0-2.08h0c0-.23-.06-.47-.09-.73-.45-3.21-1.57-7.8-.8-9.39.66-1.36,8.1-5.36,9.1-12.5C632.88,185.7,629.37,160.65,622.82,148.94Zm-20.53,62.42-.93-.53c-.86-.48-2.32-1.3-4-2.37a46.31,46.31,0,0,1-9-7h0a16.27,16.27,0,0,1-2.2-2.89c-1.36-2.32-2.63-7.1-3.15-12.67a47.11,47.11,0,0,1,1.46-17.78c0-.12.07-.24.11-.35s0,0,0,0c.09-.26.17-.51.27-.76a.49.49,0,0,1,0-.11,9.4,9.4,0,0,1,.34-.88c.08-.23.18-.45.28-.67a20.25,20.25,0,0,1,1-2,5.58,5.58,0,0,1,.32-.52q.16-.3.36-.6c7.17-10.88,23.75-11.7,31.2-1.06h0c.15.2.28.4.41.6.24.37.47.76.69,1.16a19.35,19.35,0,0,1,1.1,2.39c1.22,3.19,2.49,9.7,3.06,16.18s.44,12.69-1.06,15.86a20.5,20.5,0,0,1-4.26,5.76c-2.24,2.22-4.59,4-6,5.83a7.3,7.3,0,0,0-.9,1.49,4.84,4.84,0,0,0-.18.49c-.09.28-.18.53-.28.77-1.36,3.33-3.4,3.08-3.4,3.08a44,44,0,0,0-4.19-2.79C603,211.78,602.67,211.57,602.29,211.36Zm-14.51-6.22c0-.09-.07-.17-.11-.25s-.16-.37-.24-.54h0l-.2-.45-.12-.24a.14.14,0,0,0,0-.06.93.93,0,0,1-.05-.1l-.22-.5,0,0,0-.09s0-.08,0-.11h0a.25.25,0,0,0,0-.07,1,1,0,0,0,0-.1l-.11-.21h0v0l.29-.14h0l.15-.08h0l.42-.2h0l.15-.08.1,0,.28-.14.43-.2a16.27,16.27,0,0,1-2.2-2.89c-1.36-2.32-2.63-7.1-3.15-12.67a47.11,47.11,0,0,1,1.46-17.78c0-.12.07-.24.11-.35s0,0,0,0c.09-.26.17-.51.27-.76a.49.49,0,0,1,0-.11,9.4,9.4,0,0,1,.34-.88c.08-.23.18-.45.28-.67a20.25,20.25,0,0,1,1-2,5.58,5.58,0,0,1,.32-.52c-.29.13-.58.26-.87.41l-.46.23a.07.07,0,0,0,0,.05c-.12.5-.24,1-.34,1.5l-.12.6c-1.09.64-2.17,1.31-3.24,2,0,.16,0,.32,0,.49l-1.15.73-1.32.84c-1.23.77-2.46,1.54-3.71,2.27a1.48,1.48,0,0,0,0,.21c.2.14.4.28.6.44l.2.16.17.14.1.1h0l.12.1.54.5c.22.2.43.42.64.64l.15.16c.2.21.39.43.59.65l.08.1c.21.24.41.49.61.73s.25.31.36.47l.42.55c.06.09.13.17.18.25l.4.54c.07.12.15.23.22.34l.21.31.19.29c0,.26-.11.5-.18.74,0,.05,0,.11,0,.16s0,.13,0,.19v0l-.1.31a11.28,11.28,0,0,1-.41,1.13l-.15.34a9.4,9.4,0,0,1-.46.9l-.16.26c-.08.14-.17.27-.25.39s0,0,0,.07q.13.42.24.84a2.5,2.5,0,0,1,.07.26,5.78,5.78,0,0,1,.12.57,1.18,1.18,0,0,1,0,.2q.08.39.12.78c0,.29.06.57.08.85v0l2.63-.73.32,2.68a5.81,5.81,0,0,1-.64.95,2.91,2.91,0,0,1-.24.27,3.5,3.5,0,0,1-.27.28,2.8,2.8,0,0,1-.31.28c-.11.09-.22.18-.35.27a3.73,3.73,0,0,1-.39.25l-.34.19-.08,0a2.27,2.27,0,0,1-.39.16l-.12,0h0l0,0c0,.67,0,1.36.08,2,0,.18,0,.36,0,.54s0,.46.07.69c0,.47.12.95.21,1.42h0a29.37,29.37,0,0,0,1.73,3.75c.08.18.16.35.25.52s.26.49.41.73a11.82,11.82,0,0,0,1,1.43,2.62,2.62,0,0,0,.22.25c.17.2.35.39.54.58s.31.29.48.43a.1.1,0,0,0,.05,0l.28.23a6.61,6.61,0,0,0,.6.44l.74.5a.15.15,0,0,0,.07.05h0s0,0,0,0c.16.14.32.26.48.38s.57.45.87.65l-.08-.2ZM619,161.83l-.25-.07c.24.37.47.76.69,1.16C619.31,162.56,619.17,162.2,619,161.83Z" style="fill:#263238"></path><path d="M584.51,168c.8-4,1.5-8.22,3.8-11.65a19.74,19.74,0,0,1,5.87-4.46,27.22,27.22,0,0,0-5.51,4.74c-2.17,3.41-2.92,7.56-4.16,11.37Z" style="fill:#37474f"></path><path d="M611.72,152.6a17.42,17.42,0,0,1,5.4,4,18.3,18.3,0,0,1,2.34,6.31,32.68,32.68,0,0,0-2.74-6,29.52,29.52,0,0,0-5-4.31Z" style="fill:#37474f"></path><path d="M607.69,149.74a16.29,16.29,0,0,1,9.7,5.72,32.3,32.3,0,0,0-9.7-5.72Z" style="fill:#37474f"></path><path d="M567.57,188.79a67,67,0,0,1-.14-9.61,123,123,0,0,1,5-15.18c-.6,2.05-1.21,4.08-1.84,6.12-.92,3-1.94,6.07-2.69,9.15-.3,2.08-.21,7.34-.31,9.52Z" style="fill:#37474f"></path><path d="M566.33,170.43a30,30,0,0,1,1.67-4.59,41.22,41.22,0,0,1,5.31-6.2c-1.51,2.23-3.39,4.22-4.89,6.42-.75,1.42-1.37,2.92-2.09,4.37Z" style="fill:#37474f"></path><path d="M580,191.37c.63,4.74,1.75,10.31,6,13.11,2,1.44,4.23,2.69,6.41,4s4.39,2.47,6.6,3.69c-2.35-.94-4.63-2-6.88-3.18a66.31,66.31,0,0,1-6.55-3.84c-4.39-3-5.51-8.78-5.55-13.73Z" style="fill:#37474f"></path><path d="M624.92,178.36c.9,5.93,1.68,12.14.22,18a8.65,8.65,0,0,1-1.85,3.16c-1.51,1.88-3,3.77-4.41,5.72,1.52-2.58,3.44-5,5.14-7.41a12.43,12.43,0,0,0,1.27-5.11,84.5,84.5,0,0,0-.37-14.4Z" style="fill:#37474f"></path><polygon points="554.59 333.57 552.17 319.69 663.09 319.69 667.44 333.57 554.59 333.57" style="fill:#FFC727"></polygon><path d="M627.33,219.69c39.74,24,81.44,68.72,85.11,96.18,3.62,27.11-12,20.19-14.73,20.35-16.53,1-58.65-64.34-74.23-93.68C608,213.42,617.5,213.77,627.33,219.69Z" style="fill:#263238"></path><path d="M679.15,323.18c-2.32-3.19-4.7-6.33-7-9.55l-6.92-9.56c-4.58-6.41-9.21-12.77-13.69-19.24s-9.05-12.88-13.49-19.37c-2.23-3.25-4.42-6.51-6.56-9.81s-4.25-6.62-6.34-10a213.83,213.83,0,0,0,11.67,20.58c4.2,6.69,8.67,13.18,13.16,19.67s9.24,12.78,14.08,19S673.86,317.33,679.15,323.18Z" style="fill:#37474f"></path><path d="M630.14,254.3a34.5,34.5,0,0,0-2.67-3.27c-.48-.5-.94-1-1.44-1.51s-1-1-1.53-1.48a10.72,10.72,0,0,0,2.26,3.64A11.68,11.68,0,0,0,630.14,254.3Z" style="fill:#37474f"></path><path d="M600.45,320.13l12.48-5.88s-65.28-171-74.61-265.5l-6.74,18a43.32,43.32,0,0,0-1.75,24.43C537.72,127.1,562.69,233.09,600.45,320.13Z" style="fill:#ebebeb"></path><path d="M606.52,317.27c-3.95-9.63-7.66-19.34-11.38-29-1.83-4.87-3.66-9.74-5.44-14.62s-3.59-9.76-5.33-14.67q-10.54-29.35-19.92-59.12c-6.16-19.86-12.08-39.81-17.05-60S538,99.26,535.7,78.59L538.19,94c.18,1.29.48,2.55.73,3.83l.79,3.81,1.57,7.63.78,3.81.9,3.79,1.79,7.58,1.8,7.57,2,7.53,2,7.53,1,3.77c.33,1.25.7,2.5,1.05,3.75l4.24,15c1.45,5,3,9.95,4.48,14.92l2.26,7.46,2.36,7.43c1.57,4.95,3.06,9.93,4.7,14.86L575.45,229l5,14.77,5.06,14.75c1.66,4.92,3.4,9.82,5.12,14.72s3.49,9.8,5.24,14.69C599.32,297.76,602.9,307.52,606.52,317.27Z" style="fill:#c7c7c7"></path><path d="M567.52,237l18.21-8s43.59,110.66,42.59,113.32S609,352.58,606.67,351.8,567.62,239.74,567.52,237Z" style="fill:#FFC727"></path><g style="opacity:0.2"><path d="M601.67,334.86a58.75,58.75,0,0,1,6.1.36c2,.2,4,.49,6,.8s4,.71,6,1.17a54,54,0,0,1,5.88,1.62,55.93,55.93,0,0,1-6.09-.36c-2-.19-4-.49-6-.8s-4-.71-6-1.17A56.56,56.56,0,0,1,601.67,334.86Z"></path><path d="M621.31,327.4a56.86,56.86,0,0,1-3.33,5.12c-1.17,1.66-2.42,3.25-3.68,4.83s-2.59,3.12-4,4.61a56.68,56.68,0,0,1-4.32,4.31,54.77,54.77,0,0,1,3.33-5.12c1.17-1.66,2.42-3.25,3.68-4.83s2.59-3.12,4-4.61A56.68,56.68,0,0,1,621.31,327.4Z"></path></g><g style="opacity:0.2"><path d="M597.09,321.76a55.93,55.93,0,0,1,6.09.35c2,.2,4,.49,6,.81s4,.7,6,1.16a55.89,55.89,0,0,1,5.89,1.62,56.11,56.11,0,0,1-6.1-.35c-2-.2-4-.49-6-.81s-4-.71-6-1.17A55.83,55.83,0,0,1,597.09,321.76Z"></path><path d="M616.72,314.29a55.48,55.48,0,0,1-3.33,5.12c-1.17,1.66-2.42,3.25-3.68,4.84s-2.59,3.11-4,4.6a54.9,54.9,0,0,1-4.32,4.31,56,56,0,0,1,3.32-5.12c1.17-1.65,2.42-3.25,3.68-4.83s2.59-3.11,4-4.6A56.8,56.8,0,0,1,616.72,314.29Z"></path></g><g style="opacity:0.2"><path d="M592.5,308.65a58.75,58.75,0,0,1,6.1.35c2,.2,4,.5,6,.81s4,.71,6,1.16a58.41,58.41,0,0,1,5.89,1.62,56.26,56.26,0,0,1-6.1-.35c-2-.2-4-.49-6-.81s-4-.7-6-1.16A55.89,55.89,0,0,1,592.5,308.65Z"></path><path d="M612.13,301.19a58.21,58.21,0,0,1-3.32,5.12c-1.17,1.65-2.42,3.25-3.68,4.83s-2.59,3.11-4,4.6a56.8,56.8,0,0,1-4.32,4.32,55.39,55.39,0,0,1,3.32-5.12c1.18-1.66,2.42-3.25,3.69-4.84s2.59-3.11,4-4.6A56.67,56.67,0,0,1,612.13,301.19Z"></path></g><g style="opacity:0.2"><path d="M587.92,295.54a58.56,58.56,0,0,1,6.09.36c2,.2,4,.49,6,.8s4,.71,6,1.17a56.56,56.56,0,0,1,5.89,1.62,56.11,56.11,0,0,1-6.1-.35c-2-.2-4-.5-6-.81s-4-.71-6-1.17A56.39,56.39,0,0,1,587.92,295.54Z"></path><path d="M607.55,288.08a56.86,56.86,0,0,1-3.33,5.12c-1.17,1.66-2.42,3.25-3.68,4.83s-2.59,3.12-4,4.61a56.81,56.81,0,0,1-4.33,4.31,56.86,56.86,0,0,1,3.33-5.12c1.17-1.66,2.42-3.25,3.68-4.83s2.59-3.11,4-4.6A56.8,56.8,0,0,1,607.55,288.08Z"></path></g><g style="opacity:0.2"><path d="M583.5,282.71a52.22,52.22,0,0,1,5.87.32c1.94.19,3.86.47,5.79.77s3.83.68,5.73,1.12a52.43,52.43,0,0,1,5.66,1.59,52,52,0,0,1-5.87-.32c-1.94-.19-3.87-.47-5.79-.77s-3.83-.68-5.73-1.13A51.74,51.74,0,0,1,583.5,282.71Z"></path><path d="M602.38,275.53a51.37,51.37,0,0,1-3.18,4.94c-1.12,1.6-2.32,3.13-3.54,4.66s-2.49,3-3.81,4.42a50.93,50.93,0,0,1-4.18,4.13,54,54,0,0,1,3.18-4.94c1.12-1.59,2.32-3.13,3.53-4.65s2.5-3,3.82-4.42A52.7,52.7,0,0,1,602.38,275.53Z"></path></g><g style="opacity:0.2"><path d="M579.07,269.62a50.86,50.86,0,0,1,5.8.3c1.92.18,3.82.46,5.72.76s3.79.67,5.67,1.11a51,51,0,0,1,5.58,1.57,50.56,50.56,0,0,1-5.79-.3c-1.92-.18-3.83-.46-5.73-.76s-3.78-.67-5.66-1.12A52.74,52.74,0,0,1,579.07,269.62Z"></path><path d="M597.72,262.52a51.43,51.43,0,0,1-3.13,4.89c-1.11,1.58-2.29,3.09-3.49,4.6s-2.46,3-3.78,4.37a48.11,48.11,0,0,1-4.13,4.07,53.32,53.32,0,0,1,3.13-4.88c1.11-1.58,2.3-3.1,3.5-4.6s2.46-3,3.77-4.37A54.86,54.86,0,0,1,597.72,262.52Z"></path></g><g style="opacity:0.2"><path d="M574.79,256.64a48.83,48.83,0,0,1,5.56.26c1.84.17,3.66.44,5.48.72s3.63.65,5.43,1.08a46.42,46.42,0,0,1,5.35,1.53,46.74,46.74,0,0,1-5.56-.26c-1.84-.17-3.66-.44-5.48-.72s-3.63-.65-5.43-1.08A48.52,48.52,0,0,1,574.79,256.64Z"></path><path d="M592.66,249.85a46.48,46.48,0,0,1-3,4.69c-1.06,1.52-2.19,3-3.34,4.41s-2.36,2.83-3.62,4.18a44.34,44.34,0,0,1-4,3.89,46.62,46.62,0,0,1,3-4.7c1.06-1.51,2.19-3,3.34-4.4s2.36-2.84,3.62-4.18A47.16,47.16,0,0,1,592.66,249.85Z"></path></g><g style="opacity:0.2"><path d="M570.88,243.79a40.42,40.42,0,0,1,5.17.2q2.57.24,5.1.66t5,1a40.84,40.84,0,0,1,5,1.47,40.5,40.5,0,0,1-5.18-.2c-1.71-.16-3.41-.38-5.09-.66s-3.37-.62-5-1A40.17,40.17,0,0,1,570.88,243.79Z"></path><path d="M587.49,237.48a40.34,40.34,0,0,1-2.74,4.39q-1.47,2.12-3.09,4.11t-3.38,3.88a40.78,40.78,0,0,1-3.73,3.58,40.85,40.85,0,0,1,2.73-4.39q1.49-2.12,3.1-4.11c1.08-1.33,2.2-2.62,3.38-3.88A40.78,40.78,0,0,1,587.49,237.48Z"></path></g><path d="M709.68,331.23c-8.61,8.06-25.94,10-72.68,9.35-6.47-.1-15.84-47.55-8.93-47.81,8.71-.32,40.51,1,43,1.36C691.89,297.16,715.51,325.76,709.68,331.23Z" style="fill:#d3766a"></path><path d="M643.68,293.12l-2.12,47.61s6.69,4.36,13.7,4.47c18.37.27,52.22-4.42,55.83-11.35,5-9.57-14.52-34.73-28.87-40.76-4.11-1.72-18.15-4.11-28.84-3.56C648.52,289.79,643.68,293.12,643.68,293.12Z" style="fill:#263238"></path><path d="M578.65,295.64c-1.75,4.82,2.47,8,2.47,8a10.93,10.93,0,0,0-3.94,6.31c-.73,4.45,5.91,7.55,5.91,7.55a13.53,13.53,0,0,0-3.09,7.31c-.27,4.33,6,8.41,6,8.41a11.79,11.79,0,0,0,1.33,8.15c4,6.44,15.62,6.44,23,6.51s27.12-6.32,31.25-7.19l2.12-47.61s-33-9.74-41.65-8.6C594.72,285.48,580.62,290.23,578.65,295.64Z" style="fill:#37474f"></path><path d="M581.46,302.93c7.53-2.89,15.5-3.4,23.43-4.35.18,0,.21.25,0,.27-7.89.86-15.52,3.28-23.37,4.45A.19.19,0,0,1,581.46,302.93Z" style="fill:#263238"></path><path d="M583.26,316.92a21.19,21.19,0,0,1,5.44-.76c1.95-.14,3.89-.24,5.84-.31q5.85-.23,11.7-.15c.17,0,.21.27,0,.28-3.89.15-7.77.36-11.64.68-1.94.15-3.88.33-5.82.51a24.68,24.68,0,0,1-5.49.28A.28.28,0,0,1,583.26,316.92Z" style="fill:#263238"></path><path d="M586.15,333.25c1.48-.58,3.37-.4,4.94-.42,1.78,0,3.55-.07,5.33-.12,3.55-.1,7.11-.2,10.65-.42a.14.14,0,0,1,0,.28c-3.6.24-7.2.53-10.8.74-1.78.11-3.55.2-5.32.29-1.5.07-3.38.33-4.83-.17A.1.1,0,0,1,586.15,333.25Z" style="fill:#263238"></path><path d="M503,316.67c9.81,5,26.64,3,49.17-7.16,2.88-1.3,7.49-7.73,7.49-7.73L538,260c-8.47,2.85-23.55,5.72-30.94,13.79C492.45,289.68,490.41,310.29,503,316.67Z" style="fill:#263238"></path><path d="M597.34,235.17c3.57,3.6,1.13,8.25,1.13,8.25a10.78,10.78,0,0,1,6.16,4c2.51,3.68-2.17,9.22-2.17,9.22a13.33,13.33,0,0,1,5.82,5.28c2,3.76-1.87,10-1.87,10a11.66,11.66,0,0,1,2.19,7.86c-.93,7.45-11.33,12.27-17.91,15.4s-27,5.61-31,6.55L538,260s25.52-22.45,33.78-25C578.71,232.75,593.33,231.14,597.34,235.17Z" style="fill:#37474f"></path><path d="M597.85,242.88c-8,.54-15.31,3.4-22.82,5.84-.17.06-.08.32.08.26,7.45-2.51,15.29-3.51,22.82-5.73A.19.19,0,0,0,597.85,242.88Z" style="fill:#263238"></path><path d="M602.06,256.18a20.41,20.41,0,0,0-5.2,1.58q-2.7,1-5.36,2.15-5.34,2.23-10.56,4.73c-.15.08-.08.33.09.26,3.55-1.48,7.12-2.9,10.72-4.23q2.71-1,5.43-1.95a25.19,25.19,0,0,0,5.05-2A.28.28,0,0,0,602.06,256.18Z" style="fill:#263238"></path><path d="M606.26,272c-1.57.09-3.19,1-4.61,1.67-1.6.71-3.21,1.42-4.83,2.11-3.23,1.39-6.46,2.78-9.73,4.06-.16.06-.08.32.09.26,3.33-1.28,6.68-2.52,10-3.83,1.64-.64,3.26-1.29,4.89-1.95,1.38-.56,3.17-1.11,4.26-2.16A.09.09,0,0,0,606.26,272Z" style="fill:#263238"></path></g><g id="freepik--character-2--inject-59"><rect x="279.38" y="84.73" width="191.24" height="352.73" style="fill:#FFC727"></rect><rect x="288.25" y="115.36" width="173.51" height="291.47" style="fill:#fff;opacity:0.5"></rect><path d="M340.5,105.14v-1.5H339v-1.5h3v1.5h4.5v-3h-6v-1.5H339v-3h1.5v-1.5H348v1.5h1.5v1.5h-3v-1.5H342v3h6v1.5h1.5v3H348v1.5Z" style="fill:#fff"></path><path d="M352.5,105.14v-1.5H351v-7.5h1.5v-1.5H360v1.5h1.5v7.5H360v1.5Zm1.5-1.5h4.5v-7.5H354Z" style="fill:#fff"></path><path d="M363,105.14V94.64h9v1.5h1.5v4.5H372v1.5h-6v3Zm3-4.5h4.5v-4.5H366Z" style="fill:#fff"></path><path d="M375,105.14V94.64h3v4.5h4.5v-4.5h3v10.5h-3v-4.5H378v4.5Z" style="fill:#fff"></path><path d="M388.5,105.14v-1.5h3v-7.5h-3v-1.5h9v1.5h-3v7.5h3v1.5Z" style="fill:#fff"></path><path d="M399,105.14V94.64h10.5v1.5H402v3h6v1.5h-6v3h7.5v1.5Z" style="fill:#fff"></path><path d="M362,465v-1.86h3.72v-7.45h-1.86v-1.87h1.86v-1.86h3.73v11.18h3.73V465Z" style="fill:#FFC727"></path><path d="M375,465v-13h11.18v1.86H388v5.59h-1.86v1.87h-7.45V465Zm3.73-5.59h5.59v-5.59h-5.59Z" style="fill:#FFC727"></path><path d="M371.28,447h1.06v-1.06h1.06v-1.07h1.07v-1.06h1.06v1.06h1.07v1.07h1.06V447h1.06v2.13h-1.06V448H376.6V447h-1.07v-1.06h-1.06V447H373.4V448h-1.06v1.07h-1.06Z" style="fill:#FFC727"></path><polygon points="378.72 449.1 371.28 449.1 375 445.01 378.72 449.1" style="fill:#FFC727"></polygon><path d="M264.09,271.59v-3h-3v-3h-3v-3h-3v-3h3v-3h3v-3h3v-3h6v3h-3v3h-3v3h-3v3h3v3h3v3h3v3Z" style="fill:#FFC727"></path><polygon points="270.08 250.59 270.08 271.58 258.55 261.09 270.08 250.59" style="fill:#FFC727"></polygon><path d="M479.92,271.59v-3h3v-3h3v-3h3v-3h-3v-3h-3v-3h-3v-3h6v3h3v3h3v3h3v3h-3v3h-3v3h-3v3Z" style="fill:#FFC727"></path><polygon points="479.92 250.59 479.92 271.58 491.45 261.09 479.92 250.59" style="fill:#FFC727"></polygon><path d="M360.43,160.41c-5.08,2.72-15.07,18.13-13.54,29.16s15.46,22.88,18.49,23,11.11-14.12,12.24-22.71c.75-5.75-3.39-10.54-6.66-15.63C366.14,166.7,361.22,160,360.43,160.41Z" style="fill:#263238"></path><path d="M380.33,187.34c-2.34-10.93-12.09-18.94-19.16-26.93-.07-.08-.22,0-.16.12,5.36,8.21,13.81,14.2,17.52,23.51,2.2,5.53,2.34,11.72-.94,16.87-2.85,4.46-7.32,7.71-11.3,11.09-.27.22.1.59.37.38C374.69,205.89,382.76,198.63,380.33,187.34Z" style="fill:#263238"></path><path d="M359.64,161.8c.22-.23-.12-.58-.34-.35-6.22,6.47-13.36,15.18-14.5,24.41-1.23,10,6.49,17,13.26,23,.08.07.21,0,.13-.12-6.76-6.16-14.44-14.07-12.52-24.08C347.32,176.1,353.82,168,359.64,161.8Z" style="fill:#263238"></path><path d="M365.91,209.79c-8.92,2.68-20.55,7.45-21.87,15.9s3.57,23.49,4.45,23.81,18.13-3.13,24.49-11.42S367.07,209.44,365.91,209.79Z" style="fill:#263238"></path><path d="M348.92,250.37c-4-7.28-8.35-16.81-5.63-25.27,2.63-8.13,13.81-12.54,21.24-14.82a.08.08,0,1,0,0-.15c-7.81,1.7-18.68,6.09-21.69,14.25s.9,19.59,5.86,26.16C348.78,250.68,349,250.51,348.92,250.37Z" style="fill:#263238"></path><path d="M349.85,246.28c-4-1.57-12.55-1.44-19.14,2.65-11.28,7-12.59,1.6-24.64-6.85-10.18-7.14-22-.15-22.81,9.1,0,0,3.8-8.31,12.24-4.89,10.09,4.1,17.09,27.57,34.74,26.83C353.09,272.18,349.85,246.28,349.85,246.28Z" style="fill:#263238"></path><path d="M341.92,246.41c.23,0,.24-.41,0-.42a19,19,0,0,0-6.87.8c-2.89.91-5.18,2.84-8,3.93-7.11,2.79-12.64-3.89-17.12-8.32-6-5.94-14.35-7.64-21.36-2.17a.1.1,0,0,0,.12.16,15,15,0,0,1,15.46-1.68c4.81,2.33,7.65,7.23,11.95,10.26,2.94,2.07,6.36,3.7,10,2.67,2-.56,3.74-1.82,5.54-2.77A20.86,20.86,0,0,1,341.92,246.41Z" style="fill:#263238"></path><path d="M350.12,249c0-.1-.17-.11-.17,0-.4,6.69-.62,13.61-4.89,19.19-4.6,6-12.7,8-19.91,6.6-8.07-1.59-10.89-8.43-14.63-14.85-2.7-4.64-5.78-9.09-10.55-11.79-.15-.08-.28.15-.15.25,6.95,5,10.12,12.36,14.53,19.39,3.6,5.74,8.81,8.15,15.56,8C344.78,275.32,350.77,262.32,350.12,249Z" style="fill:#263238"></path><path d="M405.39,321h0s0,.14-.1.42c0,.05,0,.1-.05.17-.07.3-.17.72-.3,1.25,0,.12-.06.25-.1.38l-2.25,9.17c-.19.78-.39,1.6-.61,2.45-.12.52-.26,1.06-.39,1.61l-.24,1c-.08.34-.17.68-.26,1s-.25,1-.38,1.55c-.06.26-.12.53-.2.8a.08.08,0,0,1,0,0c-.07.32-.15.66-.24,1s-.23.94-.35,1.43-.2.83-.31,1.25l-.27,1.1-.06.24q-.39,1.55-.78,3.18c-.13.55-.27,1.11-.41,1.68-.22.85-.43,1.72-.64,2.6-.15.59-.3,1.19-.44,1.79,0,.07,0,.13-.05.19-.17.67-.33,1.35-.5,2s-.26,1.09-.4,1.64c-.3,1.23-.61,2.49-.93,3.77-3,12.08-6.39,26-10,40.82-.06.22-.11.44-.16.67a.5.5,0,0,0,0,.13c-.26,1.11-.54,2.22-.82,3.34h0c-.05.22-.1.44-.16.66h0a.29.29,0,0,1,0,.09l-.15.65h0v0l-.21.85,0,.12c0,.11-.05.22-.08.34l-.15.63a2.5,2.5,0,0,0-.07.26c-.22.91-.45,1.83-.67,2.75-.29,1.18-.59,2.37-.88,3.57-.17.74-.35,1.47-.54,2.2-.11.48-.23,1-.35,1.44-.44,1.79-.89,3.59-1.33,5.4-.11.5-.24,1-.36,1.48l-2.28,9.3H298.42c2.9-10.24,5.8-20.45,8.62-30.34.38-1.37.77-2.74,1.16-4.1.23-.78.45-1.56.67-2.34l.42-1.49a.83.83,0,0,0,.06-.21c.08-.25.15-.49.21-.74a0,0,0,0,0,0,0c.07-.22.13-.45.19-.68a1.52,1.52,0,0,0,.06-.2c.14-.48.28-1,.41-1.44.24-.82.47-1.64.7-2.45,6.48-22.64,12.24-42.62,16.09-55.9a5.08,5.08,0,0,1,.15-.52c2.66-9.23,4.37-15.1,4.69-16.21l.06-.18h2.46l25.11.11h.3l9,0h.75l11.59,0h1.95l11.93,0h1.19Z" style="fill:#eb9481"></path><path d="M405.39,321s0,.14-.1.42c0,.05,0,.1-.05.17-.07.3-.17.72-.3,1.25,0,.12-.06.25-.1.38l-2.25,9.17c-.19.78-.39,1.6-.61,2.45-.12.53-.26,1.08-.39,1.64l-.24,1c-.08.34-.17.68-.26,1s-.25,1-.38,1.55c-.06.26-.12.53-.2.8v0h0c-.07.32-.15.66-.24,1s-.23.94-.35,1.43-.2.83-.31,1.25l-.27,1.1-.06.24q-.37,1.55-.78,3.18c-.13.55-.27,1.11-.41,1.68-.22.85-.43,1.72-.64,2.6-.15.59-.29,1.19-.44,1.79,0,.07,0,.13-.05.19-.17.67-.33,1.35-.5,2s-.26,1.09-.4,1.64c-.3,1.23-.61,2.49-.93,3.77-3,12.08-6.39,26-10,40.82-.05.22-.11.44-.17.66a.32.32,0,0,1,0,.14c-.26,1.11-.54,2.22-.82,3.34h0c-.05.22-.1.44-.16.66,0,0,0,.06,0,.09,0,.21-.11.43-.16.65a0,0,0,0,1,0,0c-.06.28-.13.56-.2.85h0a.5.5,0,0,1,0,.12l-.09.34-.15.63-.06.25c-.23.92-.45,1.84-.68,2.76-.29,1.19-.58,2.38-.88,3.57-.17.74-.35,1.47-.54,2.2-.11.48-.23,1-.35,1.44-.44,1.79-.89,3.59-1.33,5.4-.11.5-.24,1-.36,1.48-.75,3.09-1.51,6.2-2.27,9.3H356.27l-3.75-18-2.06-9.9-.34-1.62-.51-2.45-14.17-68-.1-.48-1.08-5.22-2.08-10-.12-.57-.14-.68h2.46l25.11.11h.29l9,0h.74l11.59.05h2l11.93.05h1.18l8.63,0Z" style="opacity:0.1"></path><path d="M444.35,403.76c-.14.53-.29,1-.43,1.55-1.18,4.17-2.29,7.48-2.67,8.61-.1.27-.15.42-.15.42.62,7.6,1.24,15.35,1.87,23.11H367c-.31-7.31-.57-13.35-.74-17.46-.17-3.78-.26-5.93-.26-5.93-2.17-1.28-4.22-2.44-6.13-3.47l-3-1.57c-2.84-1.46-5.29-2.62-7.27-3.51-3.71-1.66-5.79-2.38-5.79-2.38-.82-2.24-1.59-4.58-2.3-7-5.42-17.69-6.88-42.23-7.19-58.49,0-.16,0-.32,0-.48,0-1.91-.06-3.71-.06-5.36,0-4.7,0-8.23.08-10,0-.64,0-1,0-1.2v-.07H433.1l.18.57c1.51,4.89,12.21,40.17,14.08,63C447.79,389.4,446.09,397.34,444.35,403.76Z" style="fill:#eb9481"></path><path d="M331.92,320.62l-26.23,86s29.53,10,42.69,12.3,54.89,0,54.89,0l6.8-49,6.78,48.39,26.83-4.82s5.47-19.29,5.46-28.77c0-14-16-64.11-16-64.11Z" style="fill:#455a64"></path><path d="M373.51,410.36c-2.68.1-5.41.16-8.05.21h-.86l-4.46,0-1.59,0c-.95,0-1.95,0-2.93-.13a27.19,27.19,0,0,1-4.41-.7c-1.52-.32-3-.66-4.42-1l-.94-.23c-2.58-.62-5.14-1.26-7.71-1.91l-.24-.06-.36-.09-.31-.08-2.93-.76-4.88-1.27-.35-.1c-7.33-1.92-14.48-3.84-21-5.62l.21-.72,0,0,.19-.67c6.52,1.77,13.64,3.69,20.94,5.61h0l.4.1,4.85,1.27,2.94.75.24.06.46.12.2.05c2.56.65,5.14,1.3,7.71,1.91l.92.23c1.44.34,2.88.67,4.32,1a27.09,27.09,0,0,0,4.27.69c1,.09,1.92.1,2.85.12.53,0,1.06,0,1.59,0l5.27,0c2.62-.05,5.34-.11,8-.21Z" style="fill:#ffce43"></path><path d="M345.27,407.6c.94-.22,1.35-.88,1-1.49a2.19,2.19,0,0,0-2.38-1c.18-.44-.3-.95-.71-1.19a1.47,1.47,0,0,0-2,.14,3.09,3.09,0,0,1-3.59.86,2.7,2.7,0,0,0-.23.73,2.51,2.51,0,0,0-.15.77,3.1,3.1,0,0,1,2.76,2.46,1.48,1.48,0,0,0,1.67,1c.49,0,1.16-.24,1.2-.72a2.2,2.2,0,0,0,2.6.19C346.08,409,346,408.23,345.27,407.6Z" style="fill:#ffce43"></path><path d="M336.21,405a2.2,2.2,0,0,0-1.38.24,2.43,2.43,0,0,0-.53.35,4.59,4.59,0,0,0-1.3,2,1.23,1.23,0,0,1-2.44.11,2.13,2.13,0,0,1-2.68.09c-.86-.57-.58-2.13,1.25-3.12.28-.14.36-.27.29-.36s-.17-.1-.35-.1a2,2,0,0,0-.91.29c-.91.54-1.54.52-2.37,3-.53,1.69-2.35,1.82-2.85.55-.65,1.79-1.86,2.69-3.56,1.8-1.3-.78-1.34-1.72-.58-2.91-1,.21-2.14-.54-2.13-1.29s.43-1.82,3.49-2.34c.91,0,.76-.8-.33-.64a7.16,7.16,0,0,0-4.79,2c-1.5,1.07-2.4.83-3.13.46-.56-.29-1.15-.93-.71-1.57-.75.33-2.78.29-3.38-1.14-.54-1.17,1.66-2.7,4.67-2.32a9.22,9.22,0,0,0-4.59-1l.15-.51.21-.72,2,.5,24.7,6.3Z" style="fill:#ffce43"></path><path d="M335.27,405.08a2.27,2.27,0,0,0,.77.52l-1.21-.34-24.57-6.86-2-.55.19-.67.15-.49a9.26,9.26,0,0,0,4.41,1.44c-2.79-1.19-3.91-3.63-2.85-4.36,1.23-.93,3,.05,3.48.71-.06-.77.77-1,1.39-1,.83,0,1.72.29,2.48,2a7.09,7.09,0,0,0,3.13,4.13c.87.68,1.39.07.61-.39-2.39-2-2.18-3.13-1.85-3.77s1.72-.72,2.48-.06c-.07-1.4.44-2.2,1.94-2.23,1.91.07,2.5,1.45,2.18,3.32,1.06-.85,2.56.15,2.19,1.88-.5,2.56.06,2.86.59,3.78a2,2,0,0,0,.61.68h0a.46.46,0,0,0,.4.1c.09-.05.08-.2-.09-.46-1.11-1.76-.58-3.25.44-3.33a2.13,2.13,0,0,1,2.28,1.39,1.22,1.22,0,0,1,2.06,1.29,4.52,4.52,0,0,0,.16,2.38,2.29,2.29,0,0,0,.29.54A2,2,0,0,0,335.27,405.08Z" style="fill:#ffce43"></path><path d="M403.26,407.36l1.63-.11-.06.44-.06.49-.08.58-1.32.09h0l-.35,0c-9.16.6-17.81,1.05-26.22,1.38l0-.7v-.14l0-.66c8.39-.33,17-.78,26.14-1.37h0Z" style="fill:#ffce43"></path><path d="M446.21,403.53c-.12.52-.24,1-.36,1.54-8.64,1.1-17.26,1.88-25.58,2.54-1.63.14-3.25.27-4.86.38l-.21-1.48,4.95-.38h0C428.63,405.44,437.42,404.64,446.21,403.53Z" style="fill:#ffce43"></path><path d="M420.16,408.56a2.18,2.18,0,0,1-2.52.64c.11.47-.46.89-.91,1.07a1.77,1.77,0,0,1-1,.14l-.33-2.42-.21-1.48-.31-2.2a1.49,1.49,0,0,1,1.37-.22c.46.1,1.08.42,1.05.9a2.19,2.19,0,0,1,2.58.23.78.78,0,0,1,.26.9h0a1.63,1.63,0,0,1-.73.81,1.66,1.66,0,0,1,.85.67A.81.81,0,0,1,420.16,408.56Z" style="fill:#ffce43"></path><path d="M404.83,407.69l-.06.49-.08.58-.55,3.95a2.19,2.19,0,0,1-1.15-.07c-1-.27-1.21-1.84.21-3.36.23-.23.26-.37.17-.43h0c-.07-.05-.19,0-.35,0a1.9,1.9,0,0,0-.79.56c-.69.8-1.3,1-1.3,3.59,0,1.78-1.67,2.46-2.54,1.42-.06,1.9-.93,3.13-2.83,2.81-1.49-.32-1.82-1.21-1.46-2.57-.88.5-2.22.15-2.43-.56s-.16-1.86,2.59-3.32c.86-.29.47-1-.51-.5a7.17,7.17,0,0,0-3.94,3.39c-1.1,1.47-2,1.53-2.85,1.4-.63-.1-1.39-.53-1.16-1.27-.61.55-2.58,1.13-3.58-.05-.88-1,.76-3.07,3.74-3.64a10.21,10.21,0,0,0-6.85,1.46c-1.73.83-3.1,1.28-3.54.75-.35-.37,0-.92.29-1.12-.44.29-1.81.71-2.19.07-.59-1,.78-1.46,2.23-1.68l.87-.06,6.26-.41Z" style="fill:#ffce43"></path><path d="M405.39,403.71l-.5,3.54-.06.44-.06.49-21.75,1-6.26.27-.88,0c-1.46-.12-2.85-.49-2.33-1.53.34-.66,1.72-.33,2.18-.08-.32-.17-.7-.7-.38-1.1.4-.55,1.79-.19,3.57.48a9.88,9.88,0,0,0,6.93.85c-3-.27-4.83-2.26-4-3.28.89-1.26,2.86-.86,3.52-.38-.29-.72.41-1.22,1-1.38.79-.21,1.71-.25,2.95,1.1a6.94,6.94,0,0,0,4.25,2.95c1,.38,1.34-.36.46-.56-2.89-1.12-3-2.29-2.93-3s1.41-1.23,2.33-.83c-.5-1.31-.27-2.23,1.14-2.73,1.83-.53,2.82.59,3.11,2.47.73-1.14,2.47-.65,2.67,1.11.32,2.58.94,2.68,1.73,3.39a2,2,0,0,0,.81.45h0a.51.51,0,0,0,.38,0c.09-.07.05-.21-.21-.42-1.6-1.32-1.57-2.9-.63-3.3a2.13,2.13,0,0,1,2.6.6A1.21,1.21,0,0,1,405.39,403.71Z" style="fill:#ffce43"></path><path d="M337.23,350.74S349,371.2,350.17,373.52s7.19,26.31,7.19,26.31" style="fill:#37474f"></path><path d="M345.74,379s2.61,7,2.9,8.63.2,8.05.2,8.05" style="fill:#37474f"></path><path d="M308.35,300.37c-.38,6.83,6.57,15,16.33,18.61l40.89-40.06c-7.91-1-16.18-2.43-20.7-2.85C324.85,274.22,308.59,296,308.35,300.37Z" style="fill:#37474f"></path><path d="M331.92,321.88l9.85-39.59s-12.43-12.06-4.66-27c3.93-7.56,25.52-30.93,37-42.47,9.4-9.44,25.14-9,29.5-.38,22.58,45,29.46,108.16,29.46,108.16Z" style="fill:#455a64"></path><path d="M397.54,207.8c-.35,2.15-16.62,18.53-24.81,15.74-1.82-.62,2.43-10.16,2.43-10.16l-5.63-18.75,22.83-16.9S397.67,206.89,397.54,207.8Z" style="fill:#eb9481"></path><path d="M394.59,190a37.38,37.38,0,0,1-19.74,22.3l-5.33-17.71,22.83-16.9Z" style="fill:#263238"></path><path d="M343.3,166.37c-2.8,31.95,16,37.24,22.91,37.84,6.26.54,27.63,1.59,33.71-29.91S392,131.4,377.8,129.41,346.1,134.41,343.3,166.37Z" style="fill:#eb9481"></path><path d="M353.85,158.38a18.38,18.38,0,0,0,2.2-.28,3.62,3.62,0,0,0,2.19-.7,1.16,1.16,0,0,0,.11-1.39,2.84,2.84,0,0,0-2.73-.89,4.14,4.14,0,0,0-2.72,1.25A1.21,1.21,0,0,0,353.85,158.38Z" style="fill:#263238"></path><path d="M374.13,165.15a20.81,20.81,0,0,1-2.19.36,3.62,3.62,0,0,1-2.3-.06,1.15,1.15,0,0,1-.5-1.31,2.86,2.86,0,0,1,2.36-1.62,4.2,4.2,0,0,1,3,.43A1.22,1.22,0,0,1,374.13,165.15Z" style="fill:#263238"></path><path d="M369.63,168.09c0-.08.16.12.15.21-.3,2.16-.28,4.69,1.6,5.63.06,0,0,.13,0,.12C369,173.45,369,170.09,369.63,168.09Z" style="fill:#263238"></path><path d="M371.81,166c3.53.11,3.05,7.14-.21,7S368.86,165.94,371.81,166Z" style="fill:#263238"></path><path d="M373.17,166.49c.59.44,1.14,1.19,1.88,1.31s1.55-.55,2.15-1.22c.07-.07.12,0,.12.09-.07,1.35-.68,2.7-2.14,2.8s-2.2-1.16-2.44-2.54C372.69,166.67,372.93,166.32,373.17,166.49Z" style="fill:#263238"></path><path d="M357.4,166.7c0-.08-.18.09-.18.18-.06,2.19-.5,4.68-2.52,5.29-.06,0-.06.13,0,.12C357.14,172.1,357.69,168.78,357.4,166.7Z" style="fill:#263238"></path><path d="M355.59,164.31c-3.49-.48-4.19,6.54-1,7S358.51,164.71,355.59,164.31Z" style="fill:#263238"></path><path d="M354.08,164.62c-.59.32-1.21.94-1.88.92s-1.26-.84-1.68-1.62c0-.08-.1,0-.12.07-.17,1.34.14,2.78,1.4,3.16s2.13-.71,2.59-2C354.47,164.89,354.32,164.5,354.08,164.62Z" style="fill:#263238"></path><path d="M367.9,186.25c-.51.52-1,1.24-1.8,1.33a5.84,5.84,0,0,1-2.36-.49.07.07,0,0,0-.09.11,3,3,0,0,0,2.8,1.12,2.35,2.35,0,0,0,1.67-2C368.15,186.22,368,186.18,367.9,186.25Z" style="fill:#263238"></path><path d="M359,177.62s-.55,3.25-.61,4.79c0,.14.37.22.89.27,0,0,0,0,.06,0a7.33,7.33,0,0,0,7.19-2.5c.11-.15-.08-.31-.22-.22a11,11,0,0,1-6.74,1.69c-.09-.43,1.14-5.53.9-5.55a13.25,13.25,0,0,0-3.52.67c1-6.79,3-13.38,3.87-20.16,0-.24-.32-.33-.39-.11-2.64,6.75-3.92,14.54-5.1,21.54C355.18,178.92,358.39,177.87,359,177.62Z" style="fill:#263238"></path><path d="M359.73,181.93a8.65,8.65,0,0,0,3.08,3.06,3.88,3.88,0,0,0,2.32.43c1.74-.24,2-1.78,1.83-3.14a8.86,8.86,0,0,0-.5-2.11A11.17,11.17,0,0,1,359.73,181.93Z" style="fill:#263238"></path><path d="M362.81,185a3.88,3.88,0,0,0,2.32.43c1.74-.24,2-1.78,1.83-3.14C365.13,182.25,363.19,183.25,362.81,185Z" style="fill:#ff9abb"></path><path d="M397,177c-6,.37-6.64-13.34-6.64-13.34s-23.62-5.74-24.46-26.49c0,0-7.67,14.11-21.31,19.21,0,0,3.39-23.94,21.59-27.19,0,0,22.75-6.68,34.12,11.75S401.05,176.76,397,177Z" style="fill:#263238"></path><path d="M366.22,136.78a22.37,22.37,0,0,0,.53,9.48,23.32,23.32,0,0,0,4.25,8.63,19.65,19.65,0,0,0,1.6,1.82l.82.89c.3.27.61.52.92.78.63.51,1.24,1,1.88,1.52s1.36.86,2,1.27c.35.21.68.43,1,.62l1.09.5,2.17,1c1.5.52,3,1,4.55,1.38-1.42-.72-2.88-1.29-4.26-2l-2-1.16-1-.57c-.32-.21-.63-.45-.94-.68-.63-.46-1.25-.91-1.88-1.35s-1.15-1-1.73-1.52l-.86-.77-.77-.85a20.43,20.43,0,0,1-1.49-1.74A26.83,26.83,0,0,1,367.8,146a27.7,27.7,0,0,1-1.13-4.5A25.93,25.93,0,0,1,366.22,136.78Z" style="fill:#263238"></path><path d="M393.59,175.91s7.52-9.62,11.92-6.89-1.62,16.95-7.05,18.65a5.42,5.42,0,0,1-7.1-3.3Z" style="fill:#eb9481"></path><path d="M403.69,173.05c.08,0,.09.12,0,.15-3.82,1.31-6,4.67-7.54,8.19,1.19-1.33,2.74-2,4.52-.58.09.07,0,.22-.11.19a3.34,3.34,0,0,0-3.73,1,16.28,16.28,0,0,0-1.91,2.87c-.19.33-.79.12-.64-.26l0-.09C394.49,179.73,398.55,173.26,403.69,173.05Z" style="fill:#263238"></path><path d="M374.57,217.46s1.41,2.16,1.7.36c.55-3.36.94-8.93,1.44-9.52.77-.92,18.21-9.31,19.26-9.31s1.35,8.91,1.35,8.91-11.36,19.22-25.41,17c-1.33-.21-2.58-16-2.38-16.47s3.56.15,4,.47C375.23,209.55,374.57,217.46,374.57,217.46Z" style="fill:#455a64"></path><polygon points="370.7 212.45 370.7 211.85 373.78 211.84 373.78 212.44 370.7 212.45" style="fill:#ffce43"></polygon><path d="M374.33,211.46a.58.58,0,0,1-.42.65l-.94,0h0l-2.23.08s0-.05,0-.07v-.07c0-.53-.08-1-.11-1.45a3.14,3.14,0,0,0,.08-.38c.13-.72.4-.95.45-.51.14-.76.34-1.24.58-1.07s.16.53,0,1.07c.15-.18.31,0,.29.28a2,2,0,0,1-.58,1.27c-.14.1-.13.39,0,.22a2.72,2.72,0,0,0,.77-1.28c.25-.57.38-.58.48-.51s.16.24.08.53c.12-.2.43-.4.49.09a1.62,1.62,0,0,1-.75,1.4c.23.15.57.11,1-.48.29-.3.51-.46.54-.25a.81.81,0,0,1-.11.45C374.1,211.35,374.31,211.2,374.33,211.46Z" style="fill:#ffce43"></path><path d="M374.14,212.82c-.08.26-.26.11-.31,0a.69.69,0,0,1,0,.45c-.09.21-.27,0-.48-.25-.32-.58-.64-.61-.92-.46.4.17.53,1,.36,1.39s-.47.3-.53.09a.65.65,0,0,1-.23.54c-.13.07-.26.06-.35-.51-.11-1-.28-1.1-.4-1.27s-.21.12-.1.22a1.61,1.61,0,0,1,.21,1.27c-.07.29-.29.46-.39.28,0,.15,0,.29,0,.41-.09-1-.17-1.91-.24-2.76,0,0,0-.05,0-.07v-.07l2.24.06h0l.94,0C374.1,212.24,374.28,212.4,374.14,212.82Z" style="fill:#ffce43"></path><path d="M379.9,211.76l-.19-.24-.13-.27,1.45-.69,1.25-.58c2.14-1,4.33-2,6.49-3v-.1H389l.15-.07.42-.19,1.53-.7.82-.37,6-2.7.24.55-6,2.7-.81.37-1.53.7-.42.19-.22.1c-2.21,1-4.45,2-6.65,3.09l-1.26.59Z" style="fill:#ffce43"></path><path d="M392.05,205.8a.46.46,0,0,0-.1-.69.58.58,0,0,0-.81.18c-.06-.19-.29-.24-.45-.23s-.41.07-.44.47a1,1,0,0,1-.67,1.05,4.4,4.4,0,0,0,.26.57,1,1,0,0,1,1.23.18c.32.24.5.13.65,0a.43.43,0,0,0,.12-.49.59.59,0,0,0,.67-.49C392.57,206.08,392.38,205.84,392.05,205.8Z" style="fill:#ffce43"></path><path d="M379.47,211.67a.84.84,0,0,0-.38.42c0,.13.16.23.29.33s.17.11.18.08,0-.05.08-.1a.53.53,0,0,0,.1-.14.37.37,0,0,0,.11.44c.22.13.5-.2.88-.71a2.61,2.61,0,0,1,1.78-1.36c-.79.56-.93,1.54-.53,1.78A.75.75,0,0,0,383,212a.44.44,0,0,0,.53.33c.26,0,.53-.17.63-.85a2.32,2.32,0,0,1,.64-1.69c.22-.3.44-.08.23.12-.59.85-.43,1.28-.26,1.52a.51.51,0,0,0,.8-.06c.1.54.34.83.82.79s.68-.65.42-1.36c.41.29.81-.15.54-.8-.39-1-.23-1.1-.14-1.48s.36-.46.27-.16c-.2.72.1,1.28.43,1.27s.53-.18.62-.62c.32.35.87.07.55-.57-.41-1.11.05-1.5.22-1.56Z" style="fill:#ffce43"></path><path d="M379.44,211.61a4.07,4.07,0,0,1-.67.16c-.21,0-.37.12-.46-.17s.14-.33.36-.46a.59.59,0,0,1,.27-.09,1.07,1.07,0,0,1,.18,0c-.12,0-.33-.16-.3-.34s.52-.33,1.15-.3a2.68,2.68,0,0,0,2.19-.52c-.94.25-1.79-.25-1.71-.73s.72-.66,1-.56a.43.43,0,0,1,.09-.63c.2-.17.47-.29,1.05.06a2.39,2.39,0,0,0,1.72.61c.37,0,.35-.29.05-.26-1-.09-1.25-.5-1.33-.78a.51.51,0,0,1,.58-.57c-.35-.43-.42-.8-.07-1.14s.94-.1,1.31.56c.05-.5.64-.52,1,.11.48.92.69.9,1,1.07s.59,0,.3-.1c-.68-.32-.91-.91-.68-1.16s.48-.28.87-.06c-.05-.47.53-.7.79,0,.58,1,1.18.94,1.33.85Z" style="fill:#ffce43"></path><path d="M343.13,277.74s17.7.25,27,3.26c12.39,4,21.44,12.62,25,16.45,7.45,8,20,32.46,13.54,37.29-5.81,4.37-17.33-21.29-17.33-21.29s16.06,24.22,8.1,28.2-19.64-26.56-19.64-26.56,15.94,25.26,7.08,28.06C380.15,345.27,368,318.2,368,318.2s13.55,21.81,6.76,24.28c-7.51,2.74-20.28-21.55-20.28-21.55C336.17,324.32,326,318,319.31,313,317.69,311.78,343.13,277.74,343.13,277.74Z" style="fill:#eb9481"></path><path d="M386.29,304.72c2,2.78,4,5.57,5.76,8.52s3.37,5.95,4.83,9a58.75,58.75,0,0,1,4.51,12.58c-2.38-7.59-8.43-18.23-10.16-21.17s-3.32-6-5.05-8.91C386.13,304.71,386.25,304.65,386.29,304.72Z" style="fill:#263238"></path><path d="M375.55,310.8c2.38,3.65,4.89,7.19,7.11,11s4,7.49,5.95,11.37c.15.3-.06.28-.23,0-2.1-3.81-4.34-7.16-6.49-10.94s-4.16-7.65-6.43-11.33C375.42,310.79,375.51,310.74,375.55,310.8Z" style="fill:#263238"></path><path d="M365.39,314.35c3.93,5.4,6.87,11.52,9.6,17.59.13.31-.13.25-.29-.05-3.08-5.91-5.46-10.56-9.5-17.4C365.14,314.38,365.3,314.24,365.39,314.35Z" style="fill:#263238"></path><path d="M374.57,217.46s-22.25,23.76-22.7,25.26,9.59,5.21,12.42,3,12-27.89,12-27.89Z" style="fill:#eb9481"></path><path d="M334.72,272c-1,1.7-22.86,25.42-23.54,33.76s28.44-12,28.44-12Z" style="fill:#455a64"></path><path d="M389.09,225.22c-29.93,20.6-77.87,70.28-78.47,83.12-.44,9.28.12,18.37,4.06,22.89,8,9.23,23.76,7.23,29.11,3.45,23.42-16.54,47.77-51.44,62.74-87.23C419.66,216.06,398.84,218.51,389.09,225.22Z" style="fill:#455a64"></path><path d="M323.46,287.14c6.51-8.81,14.18-16.68,21.78-24.55a285.32,285.32,0,0,1,24.29-22.08l-3,2.78c-14.88,14.07-29.53,28.47-43.05,43.85Z" style="fill:#263238"></path><path d="M402.11,257.42c-10.37,23.66-25.39,45.24-42.86,64.21-7.06,7.34-15.05,15.67-25.92,16.07a28.65,28.65,0,0,1-15.05-3.47,31.83,31.83,0,0,0,15,2.62c10.59-.64,18.39-8.59,25.35-15.82,17.53-18.85,32.68-40.19,43.49-63.61Z" style="fill:#263238"></path><path d="M397,268.12c1.7-2.17,4.26-5.16,6-7.31a23.14,23.14,0,0,1-6,7.31Z" style="fill:#263238"></path><path d="M377.31,234.09c6.42-6.13,26.13-21.86,32.29-8.77,2.95,8.66-2,20.52-5.78,28.39,2.86-7.28,10-25.31,2.55-31.1-7.86-5.29-22.81,6.56-29.06,11.48Z" style="opacity:0.1"></path><path d="M403.53,145.16a6.81,6.81,0,1,1-6.81-6.81A6.8,6.8,0,0,1,403.53,145.16Z" style="fill:#FFC727"></path><path d="M397.19,143.38c6.22-2.46,23.52-.51,30.44,7.2s8.68,21.69,6,23.51-15.07,2.73-24.23-.57S394.13,144.58,397.19,143.38Z" style="fill:#263238"></path><path d="M397.18,143.42c-.22,0-.3-.37-.06-.42,5.62-1,12-.1,17.58.59,4.54.55,9.23,1.32,13.2,3.71a15.32,15.32,0,0,1,7.33,10.54c1,4.94,1.23,11.06-.51,15.86-.05.14-.3.14-.28,0,1.09-9.81,1.53-21.65-8.83-26.56C416.82,143,406.58,143.94,397.18,143.42Z" style="fill:#263238"></path><path d="M434.19,171.27c-5,2.81-14.73,18.41-13,29.41s15.89,22.58,18.92,22.62S451,209,451.93,200.36c.65-5.76-3.59-10.47-6.95-15.5C440,177.44,435,170.83,434.19,171.27Z" style="fill:#263238"></path><path d="M454.6,197.82c-2.55-10.89-12.45-18.71-19.67-26.57-.07-.08-.22,0-.15.12,5.51,8.11,14.07,13.94,18,23.18,2.31,5.48,2.56,11.67-.62,16.88-2.76,4.52-7.17,7.85-11.09,11.3-.26.23.12.6.38.38C449.31,216.47,457.23,209.06,454.6,197.82Z" style="fill:#263238"></path><path d="M433.43,172.68c.21-.24-.14-.59-.35-.36-6.1,6.59-13.07,15.44-14,24.68-1.05,10,6.81,16.91,13.69,22.8.08.07.21-.05.12-.13-6.87-6-14.69-13.79-13-23.83C421.38,187.2,427.73,179,433.43,172.68Z" style="fill:#263238"></path><path d="M440.61,220.53c-8.87,2.85-20.42,7.84-21.57,16.31s4,23.42,4.9,23.73,18.06-3.47,24.27-11.88S441.76,220.16,440.61,220.53Z" style="fill:#263238"></path><path d="M424.38,261.42c-4.15-7.2-8.67-16.64-6.1-25.15,2.47-8.18,13.57-12.8,21-15.22a.08.08,0,1,0,0-.15c-7.78,1.85-18.57,6.44-21.42,14.65s1.27,19.58,6.36,26.05C424.25,261.74,424.47,261.57,424.38,261.42Z" style="fill:#263238"></path><path d="M424.11,259.73c-4,1.49-10.34,7.28-12.53,14.72-3.77,12.73-8.35,9.56-23,11.27-12.36,1.44-16.56,14.55-11,22,0,0-2.69-8.73,5.89-11.79,10.26-3.65,31.09,9.22,43.79-3.07C443.75,276.92,424.11,259.73,424.11,259.73Z" style="fill:#263238"></path><path d="M418.27,265.11c.18-.16-.09-.47-.28-.32a19.42,19.42,0,0,0-4.6,5.17c-1.55,2.6-2,5.57-3.34,8.24-3.46,6.81-12,5.5-18.32,5.18-8.44-.44-15.79,3.84-17.4,12.58,0,.13.18.17.2,0A15,15,0,0,1,385,284.46c5.14-1.46,10.52.31,15.75-.28,3.57-.41,7.21-1.46,9.24-4.65a29.94,29.94,0,0,0,2.29-5.76A20.8,20.8,0,0,1,418.27,265.11Z" style="fill:#263238"></path><path d="M426.11,261.58c-.07-.07-.2,0-.13.11,4.16,5.26,8.59,10.58,9.11,17.58.56,7.54-4.14,14.45-10.47,18.18-7.09,4.18-13.74.94-20.8-1.36-5.11-1.67-10.37-2.94-15.72-1.79-.17,0-.11.31,0,.29,8.51-.9,15.78,2.5,23.74,4.81,6.51,1.89,12,.23,16.92-4.4C439.63,284.79,435.46,271.1,426.11,261.58Z" style="fill:#263238"></path></g><g id="freepik--character-1--inject-59"><rect x="56.03" y="95.7" width="191.24" height="330.78" style="fill:#c7c7c7"></rect><rect x="64.9" y="123.83" width="173.51" height="284.52" style="fill:#dbdbdb"></rect><path d="M123.16,115.06v-1.5h-1.5v-1.5h3v1.5h4.5v-9h3v9h-1.5v1.5Z" style="fill:#fff"></path><path d="M133.66,115.06v-7.5h1.5v-1.5h1.5v-1.5h4.5v1.5h1.5v1.5h1.5v7.5h-3v-3h-4.5v3Zm3-4.5h4.5v-3h-1.5v-1.5h-1.5v1.5h-1.5Z" style="fill:#fff"></path><path d="M145.66,115.06v-10.5h3v1.5h1.5v1.5h1.5v-1.5h1.5v-1.5h3v10.5h-3v-6h-1.5v3h-1.5v-3h-1.5v6Z" style="fill:#fff"></path><path d="M157.66,115.06v-10.5h10.5v1.5h-7.5v3h6v1.5h-6v3h7.5v1.5Z" style="fill:#fff"></path><path d="M171.16,115.06v-1.5h-1.5v-1.5h3v1.5h4.5v-3h-6v-1.5h-1.5v-3h1.5v-1.5h7.5v1.5h1.5v1.5h-3v-1.5h-4.5v3h6v1.5h1.5v3h-1.5v1.5Z" style="fill:#fff"></path><path d="M247.28,405.73v20.75H106.07a82.53,82.53,0,0,1-7.39-6.27,76.82,76.82,0,0,1-23.27-46.59,87.8,87.8,0,0,1,2.83-35.51.08.08,0,0,1,0-.05.31.31,0,0,1,0-.07l14.55-.83,14.86-.85H108l34.46-2h0l1.19-.06,3.28-.19,0,.07,0,.08c.42.95,2.77,6.3,5.36,12,.13.28.26.56.38.85,2.83,6.22,5.83,12.63,6.81,14s3.58,3.17,7.53,5.43c3.56,2,8.2,4.43,13.63,7.09,6.21,3,13.45,6.47,21.29,10.17,10.48,4.93,22,10.35,33.58,16C239.45,401.79,243.39,403.75,247.28,405.73Z" style="fill:#d3766a"></path><path d="M236.28,399l-.76.9-22.7,26.62H101.26C92.67,419,85.58,411.35,81.69,404a73.84,73.84,0,0,1-8.21-30.25,95.32,95.32,0,0,1,4.76-35.65.08.08,0,0,1,0-.05.31.31,0,0,1,0-.07l14.55-.83,14.86-.85H108l34.46-2h0l1.19-.06,3.28-.19,0,.07,0,.08c.44.81,2.65,5.09,5.27,10,.37.7.75,1.41,1.14,2.12,2.86,5.37,6,11.08,7.81,13.86.76,1.17,4,3.32,8.7,6,2.47,1.41,5.35,3,8.5,4.64,6.71,3.53,14.64,7.48,22.45,11.29h0C218.89,391,236.28,399,236.28,399Z" style="fill:#263238"></path><path d="M147.82,426.48H134.73l-2.14-1.3c-2.18-1.36-4.37-2.72-6.54-4.11l-.55-.35a150.75,150.75,0,0,1-14.41-10.34c-1.68-1.42-3.35-2.88-4.94-4.49-.8-.8-1.56-1.68-2.26-2.53a27.54,27.54,0,0,1-2.08-2.6,66,66,0,0,1-6.91-11.3,81.47,81.47,0,0,1-5.79-16.8q-.94-4.1-1.54-8.25a103.21,103.21,0,0,1-.47-25.8,99.54,99.54,0,0,0,.6,12.81,113.35,113.35,0,0,0,2,12.61c.64,2.84,1.37,5.66,2.22,8.43a77.06,77.06,0,0,0,6.4,15.22,63.84,63.84,0,0,0,7,10.27c.65.81,1.35,1.58,2.06,2.31a27.3,27.3,0,0,0,2.14,2.16,61.12,61.12,0,0,0,4.77,3.93,178.54,178.54,0,0,0,15.49,10.12c.42.25.84.5,1.27.74q2.31,1.37,4.64,2.68l3.36,1.85.2.11.62.34.91.51C143.12,424,145.46,425.23,147.82,426.48Z" style="fill:#455a64"></path><path d="M143.63,404.19h0l0,.05c-.09.15-.18.3-.27.43a1.37,1.37,0,0,1-.13.2,10,10,0,0,1-.65.9l0,.1-.48,2.19-.06.28h0c-.38,1.74-.95,4.32-1.67,7.6,0,.12,0,.23-.07.35l-1.19,5.43c-.33,1.49-.68,3.08-1,4.74H56V339.35l22.23-1.29,14.57-.85h0l14.85-.86H108l34.46-2,1.19-.07s1.47,8.35,2.67,19.46c.49,4.52.94,9.5,1.22,14.56C148.28,382.32,147.82,397,143.63,404.19Z" style="fill:#d3766a"></path><path d="M152.19,367.9c-1.34,22.09-6.33,32.61-8.56,36.29h0l0,.05c-.09.15-.18.3-.27.43a1.37,1.37,0,0,1-.13.2,10,10,0,0,1-.65.9l0,.1-.21,1.34-.16,1-2.28,14-.69,4.29H56V339l36.75-2.13,14.93-.87H108l34.45-2,9-.52q.5,5.67.76,10.8c0,.67.06,1.34.09,2,0,.4,0,.8,0,1.2C152.64,355.17,152.55,362,152.19,367.9Z" style="fill:#263238"></path><path d="M72.73,424.09l-.22,1c-.1.47-.19.94-.29,1.41h-6l.46-1.86a69.44,69.44,0,0,1-2.93-9.91L63.17,412l-.46-2.76c-.32-1.83-.49-3.68-.69-5.54a123.29,123.29,0,0,1-.22-22.15c.24-2.34.46-4.68.76-7,.17-1.32.36-2.63.6-3.94.48-3.64,1.34-7.22,2.14-10.78.36-1.8.87-3.56,1.38-5.31l1.49-5.28c1.15-3.46,2.43-6.89,3.61-10.31-.84,3.54-1.76,7.05-2.56,10.59-.62,3.59-1.51,7.09-2,10.69s-1,7.14-1.29,10.75c-.13,1.12-.22,2.25-.29,3.38-.16,2.46-.22,4.92-.31,7.39a133.7,133.7,0,0,0,1.42,21.37c.28,1.76.54,3.52,1,5.23l.55,2.61.68,2.55a60,60,0,0,0,3.35,9.75Z" style="fill:#455a64"></path><path d="M143.05,406.57c0,.29,0,.59,0,.88a80.11,80.11,0,0,1-1.35,10.12c-.29,1.71-.58,3.42-.89,5.13q-.33,1.89-.69,3.78h-1.64c.26-1.55.53-3.09.8-4.63s.53-3,.81-4.53l.18-1c0-.12,0-.23.07-.35a74.6,74.6,0,0,1,1.64-7.58,1.58,1.58,0,0,1,.09-.31c.08-.29.17-.57.27-.85s.15-.48.23-.72S143.05,406.3,143.05,406.57Z" style="fill:#455a64"></path><path d="M158.15,394.57a128.9,128.9,0,0,0-17.92,12.29c-6,4.81-11.13,10.43-16.65,15.71-.16.15,0,.42.21.28,5.88-4.68,12-9.05,17.62-14s11-9.59,16.9-14C158.46,394.75,158.32,394.48,158.15,394.57Z" style="fill:#455a64"></path><path d="M145.24,241.69c21.24,25.66,60.46,52,73.87,47.51,18-6.07,25.59-28.87,38.84-54,3.21-6.09-43.18-26.85-45.95-20-4,9.91-9.92,27.91-10.81,28a9.89,9.89,0,0,1-3.43-1.71c-2.39-1.78-8.26-6.84-16.69-10.32s-16.27-3.37-26.21-6.94C134.88,217,132.16,225.89,145.24,241.69Z" style="fill:#d3766a"></path><path d="M272.14,199.59c-.76,11-11.15,33.06-15.7,37.41s-42.56-12.08-44.16-18.34,3.83-43.28,11.49-51.61S272.92,188.13,272.14,199.59Z" style="fill:#d3766a"></path><path d="M214.57,182.22c2.69,5.22,7.3-.93,7.3-.93s-4.51,10.46.35,14.77c4.69,4.14,10-3.49,10.39-4-.24.55-4.13,10.27,1.2,14.1,5.53,4,9.55-4.6,9.81-5.16-.06.6-.66,8.46,4,10.45,8.09,3.42,10.19-16.65,15.9-20.89,0,0,8.28,8.85,8.58,9.06,0,0,2.39-19.05-3.76-26.43a6.14,6.14,0,0,0-7.51-1.64s1.45-6.05-2.64-9.2c-2.11-1.61-6.56.33-6.56.33s1-4.9-2.86-7.47c-3-2.06-7,.2-7,.2s-1.26-5.13-5.05-6.23C229.09,146.92,208.82,171,214.57,182.22Z" style="fill:#d3766a"></path><path d="M241.09,155.64a.08.08,0,0,0-.1-.13c-8.6,6.31-16.12,15.87-19.4,26.08-.11.34.38.66.57.31C227.56,172,233.14,163.69,241.09,155.64Z" style="fill:#263238"></path><path d="M251.72,162.49c.09-.09-.05-.23-.16-.16-8.83,6.55-17,17.55-19.4,29.77-.08.42.26.88.4.4C234.77,184.5,244.53,169.69,251.72,162.49Z" style="fill:#263238"></path><path d="M243.74,201.88c2.76-11.62,9-21.19,16.75-30.11.1-.11-.07-.25-.18-.17-5,3.32-9.37,9.52-12.36,14.63a31.38,31.38,0,0,0-4.61,15.56C243.33,202,243.68,202.13,243.74,201.88Z" style="fill:#263238"></path><path d="M221.87,181.29a35.47,35.47,0,0,0-1.45,6.4,11.92,11.92,0,0,0,.58,6.25,3.94,3.94,0,0,0,2,2,5.76,5.76,0,0,0,2.88.46,7.06,7.06,0,0,0,4.73-3.23l2.69-4-1.14,4.68a19.82,19.82,0,0,0-.55,6.36,7,7,0,0,0,2.46,5.21,4,4,0,0,0,5.07.08,12.16,12.16,0,0,0,3.61-4.91L245,195.4l-.46,5.67a18.6,18.6,0,0,0,.22,4.71,7.63,7.63,0,0,0,1.82,4,3.64,3.64,0,0,0,3.7,1,8,8,0,0,0,3.33-3,63.61,63.61,0,0,0,4.66-8.72c.72-1.51,1.44-3,2.24-4.5a11.79,11.79,0,0,1,3-4,12.69,12.69,0,0,0-2.61,4.2c-.68,1.51-1.28,3.07-1.89,4.62a53.33,53.33,0,0,1-4.29,9.17,9.37,9.37,0,0,1-3.88,3.72,5.12,5.12,0,0,1-5.51-1.19,9.38,9.38,0,0,1-2.4-4.91,20.14,20.14,0,0,1-.31-5.26l1.83.44a13.91,13.91,0,0,1-4.21,5.85,5.85,5.85,0,0,1-3.75,1.22,6.6,6.6,0,0,1-3.65-1.39,8.87,8.87,0,0,1-3.12-6.59,21.65,21.65,0,0,1,.71-7l1.55.7A8.38,8.38,0,0,1,226,197.8a7.16,7.16,0,0,1-3.53-.75,5.12,5.12,0,0,1-2.42-2.69,12.36,12.36,0,0,1-.19-6.76A29.24,29.24,0,0,1,221.87,181.29Z" style="fill:#263238"></path><path d="M212.1,212.19s-15.51-44.39,4.81-41.95c6,.72,30,10.91,28,15.75-2.52,6.26-13.31,3.88-19.84,1.3,0,0,7.4,14.36-1.05,22.49C218.73,214.89,212.1,212.19,212.1,212.19Z" style="fill:#d3766a"></path><path d="M215.21,170.14a24.74,24.74,0,0,1,7.08,1.06,52.56,52.56,0,0,1,6.8,2.36,82.65,82.65,0,0,1,12.83,6.58,13.7,13.7,0,0,1,2.92,2.48,5.15,5.15,0,0,1,1,1.92,3.36,3.36,0,0,1,.14,1.19,3.86,3.86,0,0,1-.27,1.17,6,6,0,0,1-2.88,3,11.27,11.27,0,0,1-3.78,1.06,21.68,21.68,0,0,1-7.39-.68,49.39,49.39,0,0,1-6.91-2.26l1-1.17a28.8,28.8,0,0,1,1.87,5.19,26.74,26.74,0,0,1,.85,5.41,18.68,18.68,0,0,1-.55,5.43,14.1,14.1,0,0,1-2.28,4.88,15.94,15.94,0,0,0,1.71-5,19.09,19.09,0,0,0,.07-5.23,25.46,25.46,0,0,0-1.11-5.11,27.43,27.43,0,0,0-2-4.78l-1-1.87,2.06.7a54.19,54.19,0,0,0,6.72,2,21.11,21.11,0,0,0,6.77.54c2.13-.24,4.35-1.14,5-2.86.71-1.45-1.23-3.2-3.05-4.48a69.61,69.61,0,0,0-6-3.67c-2.06-1.16-4.14-2.29-6.27-3.32C224.3,172.74,220,170.71,215.21,170.14Z" style="fill:#263238"></path><path d="M173,365.77a15.65,15.65,0,0,1-3.1.5l-2.84.3c-3.62.37-8.73.82-14.83,1.33l-4.7.39c-5.18.41-10.9.86-16.93,1.32l-5.12.39-10.81.81-3.21.24c-6.53.48-13.11,1-19.49,1.41l-2.82.2-13.7,1-1.93.14-7.81.53-3.11.21-6.53.43V322.56c9-25,21.8-54.44,38-78.42l0,0a174.51,174.51,0,0,1,11.84-15.67c.92-1.09,1.85-2.16,2.8-3.2,4.82-5.33,9.88-8.25,14.8-9.5a25.38,25.38,0,0,1,12.25,0A33.31,33.31,0,0,1,149,222.4c.45.37.88.74,1.28,1.11a23.52,23.52,0,0,1,2.91,3.17h0a15,15,0,0,1,.86,1.26,65.16,65.16,0,0,1,5.39,11.93.88.88,0,0,1,.05.15,166.39,166.39,0,0,1,5.73,21.73c1.81,8.95,3.27,18.64,4.43,28.38h0c.86,7.31,1.56,14.64,2.12,21.72.11,1.42.21,2.82.31,4.21.18,2.38.33,4.73.47,7l.09,1.63c0,.12,0,.24,0,.35.05.76.09,1.51.13,2.25h0C174,348.82,173.72,365.07,173,365.77Z" style="fill:#FFC727"></path><path d="M143.08,241.14c-5.81-.44-16.52-12.72-20.1-22.4-.24-.66,1.66-7,3.6-14.8,1.16-4.74,2.34-10.05,3.07-15L159.39,201s-4.55,9.86-5.77,18.45a11,11,0,0,0-.08,2.05c0,.09,0,.21,0,.34C153.59,225.8,152.18,241.84,143.08,241.14Z" style="fill:#d3766a"></path><path d="M126.9,202.58c4.86,10.23,13.08,20.74,26.59,21.26,0-.83.07-1.49,0-2a1.92,1.92,0,0,1,0-.34,10.25,10.25,0,0,1,.09-2.05c1.22-8.59,5.76-18.45,5.76-18.45L129.64,189C129,193.42,128,198.21,126.9,202.58Z" style="fill:#263238"></path><path d="M123,153.08c-4.41,10.68-1.64,43,5.51,50.89,10.37,11.36,28.86,14.12,38.9,1.31,9.73-12.41,5.38-54.52-2.75-61.8C152.67,132.75,129.51,137.29,123,153.08Z" style="fill:#d3766a"></path><path d="M147.46,175.53c0-.09-.16.11-.15.2.28,2.18.22,4.71-1.68,5.62-.06,0,0,.13,0,.12C148,180.9,148.07,177.54,147.46,175.53Z" style="fill:#263238"></path><path d="M145.3,173.43c-3.52.06-3.14,7.12.13,7.06S148.26,173.38,145.3,173.43Z" style="fill:#263238"></path><path d="M161.14,174.52c0-.09.18.09.18.18.05,2.19.48,4.69,2.49,5.31.06,0,.06.13,0,.12C161.37,179.92,160.84,176.6,161.14,174.52Z" style="fill:#263238"></path><path d="M163,172.13c3.5-.46,4.16,6.58.92,7S160,172.52,163,172.13Z" style="fill:#263238"></path><path d="M142.45,170.74a26.88,26.88,0,0,0,2.75.92,4.68,4.68,0,0,0,3,.42,1.5,1.5,0,0,0,.93-1.57,3.72,3.72,0,0,0-2.71-2.61,5.44,5.44,0,0,0-3.91-.08A1.6,1.6,0,0,0,142.45,170.74Z" style="fill:#263238"></path><path d="M165.54,165.79a25.19,25.19,0,0,1-2.87.45,4.63,4.63,0,0,1-3-.09,1.5,1.5,0,0,1-.64-1.71,3.71,3.71,0,0,1,3.1-2.11,5.43,5.43,0,0,1,3.87.58A1.6,1.6,0,0,1,165.54,165.79Z" style="fill:#263238"></path><path d="M148.07,196.07c.55.48,1.11,1.16,1.91,1.18a5.76,5.76,0,0,0,2.31-.68.08.08,0,0,1,.1.11,2.94,2.94,0,0,1-2.7,1.34,2.34,2.34,0,0,1-1.83-1.84C147.82,196.05,148,196,148.07,196.07Z" style="fill:#263238"></path><path d="M150,189.4a7.43,7.43,0,0,0,5.14,3,9.26,9.26,0,0,0,2.68,0,2,2,0,0,0,.51-.09,3.17,3.17,0,0,0,.48-.1.54.54,0,0,0,.41-.51h0a.93.93,0,0,0,0-.23h0v-.19c-.05-1.69-.35-4.24-.35-4.24.63.28,3.84,1.52,3.75.64-.84-7.25-1.76-15.31-4.11-22.35a.2.2,0,0,0-.4.07c.52,7,2.27,13.87,2.91,20.89a13.09,13.09,0,0,0-3.57-.88c-.24.08.67,4.92.63,5.68a.45.45,0,0,1,0,.08c-2.81.51-5-.22-7.83-2C150,189.08,149.87,189.24,150,189.4Z" style="fill:#263238"></path><path d="M156.8,191.62a8.93,8.93,0,0,1-3.39,2.93,4,4,0,0,1-2.4.28c-1.77-.36-1.9-2-1.66-3.35a9.39,9.39,0,0,1,.67-2.13A11.48,11.48,0,0,0,156.8,191.62Z" style="fill:#263238"></path><path d="M153.41,194.55a4,4,0,0,1-2.4.28c-1.77-.36-1.9-2-1.66-3.35C151.23,191.57,153.15,192.74,153.41,194.55Z" style="fill:#ff9abb"></path><path d="M121.05,185.65s-11.56-20.52-11.24-27.15c.07-1.57,8.37-8.38,8.37-8.38l-3-4.54,5,1.09,3.65-13.08-.79,12.1s6.16-12.4,12.1-14.78,14.94-3.72,14.94-3.72l-9.48,8.22s17.53-9.24,21.29-9.42,21.76,3.06,21.76,3.06l-23.9,8.24s9.53,0,13.08,2,10.67,10.9,10.67,10.9l-21.2-3.76s6,2,7.2,3.47,3,7.18,3,7.18-15.41-7.44-20-7.64c-6-.27-23.32,7.72-23.32,7.72s2.43,10.19,2.52,12C132,176,121.05,185.65,121.05,185.65Z" style="fill:#455a64"></path><path d="M127.31,179.65S120.88,168.8,116,171s-.57,17.56,4.76,20a5.59,5.59,0,0,0,7.7-2.43Z" style="fill:#d3766a"></path><path d="M117.35,175.38c-.08,0-.11.11,0,.15,3.73,1.85,5.49,5.57,6.63,9.38-1-1.51-2.54-2.41-4.55-1.19-.1.06,0,.22.09.21a3.45,3.45,0,0,1,3.69,1.48,16.14,16.14,0,0,1,1.58,3.2c.15.35.79.22.69-.19l0-.09C125.88,183.43,122.58,176.28,117.35,175.38Z" style="fill:#263238"></path><path d="M123,218.74c-1.07,1.34-.17,7.68-.17,7.68l2.37,1.27-.05,2.05.82.57s3.36,5.51,4.06,6.47,2.36,3.38,2.36,3.38l-.37,2,1.05,0-.85,5.52,2.5-3.23,3.94,5.49,2,1.76,1,.41.28,3.61,1.42-.19,2.58,1.45h.71l2.56-2.66,2,4.82.11-4.71.06-2.55,2.92-.31-1.65-2-.1-1.65,3.44-3.76s-.63-1.68-1.1-2.83-1.59-3.16-1.59-3.16l.54-1.65.1-4.71-.49-2.67-.27-2.55Z" style="fill:#d3766a"></path><path d="M114.71,224.09c7.59,1.21,12.79,10.46,11.25,26.08S110.46,293.07,95.6,290c-13-2.66-10.81-20.73-7-33.18C93.24,241.31,107.41,222.94,114.71,224.09Z" style="fill:#d3766a"></path><path d="M104.38,235.57c-14.49,47.9-18.64,102-3.77,123.79,16.65,24.35,28.44,12.27,30.2,9.94,13.78-18.25,13.62-40.79,8.69-74.32-.61-4.11.59-14.17-1.81-25-1.58-7.16-7.48-19.58-8.09-22.29C122.22,214.43,108,223.72,104.38,235.57Z" style="fill:#d3766a"></path><path d="M94.13,270.24c0,.69.06,1.39.09,2.09.59-3.31,1.32-6.57,2.17-9.83,0-.07.13,0,.13,0-.43,3.79-2.47,17.76-4.22,26.07a.18.18,0,0,1-.36,0c0-3.72,1.63-12.58,1.91-14.24-.06-.51-.13-1-.15-1.54,0-.84,0-1.68,0-2.52,0-1.68.17-3.36.27-5,0,0,0,0,0,0C94,266.91,94,268.57,94.13,270.24Z" style="fill:#263238"></path><path d="M117.7,372.14c13.61-1.3,27.61-15.42,62.85-56.59,4.88-5.7-26.07-50.93-31.59-45.11-7,7.32-32.35,37.26-33.93,39.68C101.7,330.56,108.47,373,117.7,372.14Z" style="fill:#d3766a"></path><path d="M181.82,229.46c5.48,1.68,5.53,7.62,5.53,7.62a12.21,12.21,0,0,1,8.29.72c4.46,2.33,2.77,10.35,2.77,10.35a15,15,0,0,1,8.61,2.16c4,2.66,3.5,11,3.5,11A13.21,13.21,0,0,1,216.9,268c3,7.92-4.75,18.29-9.64,24.92s-25,20.89-28.53,24l-42.87-31s13.45-36,20.31-43C162,237,175.66,227.58,181.82,229.46Z" style="fill:#d3766a"></path><path d="M187.15,237.1c-7.65,4.78-13.46,11.57-19.64,18a.15.15,0,1,0,.22.21c6.08-6.48,13.36-11.66,19.69-17.89A.22.22,0,0,0,187.15,237.1Z" style="fill:#263238"></path><path d="M198.13,247.89a23.89,23.89,0,0,0-4.34,4.36c-1.43,1.64-2.82,3.31-4.2,5q-4.12,5.08-8,10.36c-.12.16.09.37.22.21,2.75-3.36,5.55-6.69,8.43-9.94q2.17-2.44,4.38-4.85a27.88,27.88,0,0,0,3.94-4.73A.31.31,0,0,0,198.13,247.89Z" style="fill:#263238"></path><path d="M210.4,261.45c-1.52.93-2.63,2.74-3.7,4.13q-1.83,2.35-3.69,4.68c-2.48,3.11-5,6.22-7.54,9.24-.13.15.1.37.23.21,2.64-3,5.32-6.07,7.93-9.15,1.28-1.52,2.56-3,3.83-4.56,1.07-1.3,2.57-2.8,3.1-4.43A.11.11,0,0,0,210.4,261.45Z" style="fill:#263238"></path><path d="M107.79,346a70.6,70.6,0,0,1,.92-17.47c1.05-5.78,2.25-11.53,4.75-16.93,5.64-10.33,13.93-18.89,22.15-27.21,1.59-5,5.46-13.58,8-19.7,3.17-7,6-14.24,10.3-20.72,2-2.62,4.71-4.42,7.24-6.46a68.41,68.41,0,0,1,9.17-6c4.07-2.05,9.23-4.43,13.7-2a9.22,9.22,0,0,1,4.16,7.67l-1.08-.93c9.39-2.07,13.62,2.88,12,12.07l-.76-.88c9.56-.23,13.19,4.91,12.56,14.09l-.34-.56c3.87,1.67,7,5.25,7.33,9.54.1,6.9-3.87,13.09-7.78,18.47,3.82-5.84,9.61-15.17,5.87-22.08a12.23,12.23,0,0,0-6.16-5.09c.52-9.15-2.82-13.53-12.31-12.86,1.51-8.1-1-13-10-11l-1.14.25a7.57,7.57,0,0,0-1.56-5.56c-5.12-6.67-17.58,2.81-22.49,6.4-2.34,1.91-5,3.73-6.81,6.1-4.21,6.24-7.07,13.43-10.22,20.28-3,6.67-5.77,13.49-8.55,20.2-8.15,8.12-16.63,16.4-22.35,26.47a80.46,80.46,0,0,0-6.65,33.9Z" style="fill:#263238"></path><path d="M172.81,322.9l-2.54,2a24.81,24.81,0,0,1,7.8,11.56c2.62,7.81-4.25,15.27-3.83,25.36s17.07,18.92,20.68,31.67l10.19-3.9a40.87,40.87,0,0,0-8-11.85c-5.65-5.91-13.93-10-16.18-16s5.09-17,2.88-24.06C181.49,330.26,172.81,322.9,172.81,322.9Z" style="fill:#455a64"></path><path d="M170.27,324.92l2.54-2s.87.73,2.13,2l-1.17,3.63A19.56,19.56,0,0,0,170.27,324.92Z" style="opacity:0.1"></path><path d="M178.17,336.83l4.14-2.59a18.73,18.73,0,0,1,1.51,3.46c.75,2.4.4,5.27-.3,8.24l-5.67-.49A15.28,15.28,0,0,0,178.17,336.83Z" style="opacity:0.1"></path><path d="M234.6,355.86l-3.8,9.47s-1.71-5.93-9-9.69-13.79.56-23.62-1.76C186.32,351.1,186.33,329,172.66,323l1.15-2.62c13.88,6.9,17.21,25,24.06,28.05,5.88,2.59,17.43-2.59,25.2-.09A26.16,26.16,0,0,1,234.6,355.86Z" style="fill:#455a64"></path><path d="M173.81,320.37c.48.24.94.5,1.4.76l-.54,2.93a15.48,15.48,0,0,0-2-1.06Z" style="opacity:0.1"></path><path d="M215.11,347.76a24.2,24.2,0,0,1,6.4.19l1.06,8.13c-.26-.16-.53-.3-.81-.45a16.22,16.22,0,0,0-8.72-1.57Z" style="opacity:0.1"></path><polygon points="176.59 320.03 169.73 328.86 127.61 290.94 135.2 283.75 176.59 320.03" style="fill:#455a64"></polygon></g><g id="freepik--Text--inject-59"><path d="M246.35,55.73V53.21h-2.52V50.69h5v2.52h7.57v-5H246.35V45.64h-2.52v-5h2.52V38.08H259V40.6h2.52v2.52h-5V40.6h-7.57v5H259v2.53h2.52v5H259v2.52Z" style="fill:#FFC727"></path><path d="M264,55.73V38.08h17.65V40.6H269.05v5h10.09v2.53H269.05v5h12.61v2.52Z" style="fill:#FFC727"></path><path d="M286.71,55.73V38.08h5V53.21h10.09v2.52Z" style="fill:#FFC727"></path><path d="M304.37,55.73V38.08H322V40.6H309.41v5H319.5v2.53H309.41v5H322v2.52Z" style="fill:#FFC727"></path><path d="M329.59,55.73V53.21h-2.52V50.69h-2.52V43.12h2.52V40.6h2.52V38.08h10.09V40.6h2.53v2.52h-5V40.6h-5v2.52h-2.53v7.57h2.53v2.52h5V50.69h5v2.52h-2.53v2.52Z" style="fill:#FFC727"></path><path d="M352.3,55.73V40.6h-5.05V38.08h15.14V40.6h-5.05V55.73Z" style="fill:#FFC727"></path><path d="M385.09,55.73V38.08h15.13V40.6h2.53v7.57h-2.53v2.52H390.13v5Zm5-7.56h7.57V40.6h-7.57Z" style="fill:#FFC727"></path><path d="M407.79,55.73V38.08h5V53.21h10.09v2.52Z" style="fill:#FFC727"></path><path d="M425.45,55.73V43.12H428V40.6h2.52V38.08h7.57V40.6h2.52v2.52h2.53V55.73h-5.05v-5h-7.57v5Zm5-7.56h7.57V43.12h-2.52V40.6H433v2.52h-2.53Z" style="fill:#FFC727"></path><path d="M453.2,55.73V48.17h-2.53V45.64h-2.52V38.08h5.05v7.56h5V38.08h5.05v7.56h-2.52v2.53h-2.53v7.56Z" style="fill:#FFC727"></path><path d="M465.81,55.73V38.08h17.66V40.6H470.86v5H481v2.53H470.86v5h12.61v2.52Z" style="fill:#FFC727"></path><path d="M486,55.73V38.08h15.14V40.6h2.52v7.57h-5v2.52h2.53v2.52h2.52v2.52h-7.57V53.21h-2.52V50.69H491v5ZM491,48.17h5V45.64h2.52v-5H491Z" style="fill:#FFC727"></path></g></svg>
