<svg version="1.1" id="Layer_1" xmlns="http://www.w3.org/2000/svg" xmlns:xlink="http://www.w3.org/1999/xlink" x="0px" y="0px" viewBox="0 0 500 500" style="width: 188px;" xml:space="preserve" data-imageid="shopping-41" imageName="Shopping" class="illustrations_image">
<style type="text/css">
	.st0_shopping-41{fill:#70CC40;}
	.st1_shopping-41{fill:#093F68;}
	.st2_shopping-41{fill:#FFBC0E;}
	.st3_shopping-41{fill:#F36132;}
	.st4_shopping-41{fill:#68E1FD;}
	.st5_shopping-41{fill:#FFFFFF;}
	.st6_shopping-41{fill:#FFC9B0;}
	.st7_shopping-41{fill:#725858;}
</style>
<g id="items_shopping-41">
	<circle class="st0_shopping-41" cx="368.7" cy="311" r="35.9"/>
	<path class="st1_shopping-41" d="M368.7,348.8c-20.9,0-37.8-16.9-37.8-37.8c0-20.9,16.9-37.8,37.8-37.8c20.9,0,37.8,16.9,37.8,37.8&#10;&#9;&#9;C406.5,331.9,389.6,348.8,368.7,348.8z M368.7,277c-18.8,0-34,15.2-34,34s15.2,34,34,34s34-15.2,34-34&#10;&#9;&#9;C402.7,292.2,387.5,277,368.7,277z"/>
	<rect x="260.4" y="264.1" class="st2_shopping-41" width="83.4" height="105.2"/>
	<path class="st1_shopping-41" d="M343.8,371.2h-83.4c-1,0-1.9-0.8-1.9-1.9V264.1c0-1,0.9-1.9,1.9-1.9h83.4c1,0,1.9,0.8,1.9,1.9l0,0v105.2&#10;&#9;&#9;C345.7,370.4,344.8,371.2,343.8,371.2L343.8,371.2z M262.3,367.4h79.6V266h-79.6V367.4z"/>
	<rect x="289.2" y="328.5" class="st3_shopping-41" width="85.1" height="40.3"/>
	<path class="st1_shopping-41" d="M374.3,370.6h-85.1c-1,0-1.9-0.8-1.9-1.9l0,0v-40.3c0-1,0.8-1.9,1.9-1.9l0,0h85.1c1,0,1.9,0.8,1.9,1.9l0,0&#10;&#9;&#9;v40.3C376.2,369.8,375.3,370.6,374.3,370.6L374.3,370.6z M291.1,366.9h81.3v-36.5h-81.3V366.9z"/>
	<rect x="280.9" y="221.5" class="st4_shopping-41 targetColor" width="72.5" height="42.6" style="fill: rgb(104, 225, 253);"/>
	<path class="st1_shopping-41" d="M353.4,266h-72.5c-1,0-1.9-0.8-1.9-1.9l0,0v-42.6c0-1,0.8-1.9,1.9-1.9l0,0h72.5c1,0,1.9,0.8,1.9,1.9&#10;&#9;&#9;c0,0,0,0,0,0v42.6C355.3,265.1,354.4,266,353.4,266C353.4,266,353.4,266,353.4,266z M282.7,262.2h68.7v-38.9h-68.7L282.7,262.2z"/>
	<rect x="272.9" y="198.8" class="st5_shopping-41" width="50.2" height="22.7"/>
	<path class="st1_shopping-41" d="M323.1,223.4h-50.2c-1,0-1.9-0.9-1.9-1.9v-22.7c0-1,0.8-1.9,1.9-1.9l0,0h50.2c1,0,1.9,0.8,1.9,1.9c0,0,0,0,0,0&#10;&#9;&#9;v22.7C325,222.5,324.2,223.4,323.1,223.4z M274.8,219.6h46.4v-18.9h-46.4V219.6z"/>
	<path class="st1_shopping-41" d="M293.1,278.1h-20.2c-1-0.1-1.8-1-1.7-2c0.1-0.9,0.8-1.7,1.7-1.7h20.2c1,0.1,1.8,1,1.7,2&#10;&#9;&#9;C294.8,277.3,294.1,278.1,293.1,278.1z"/>
	<path class="st1_shopping-41" d="M310.8,353.7c-1,0-1.9-0.9-1.9-1.9v-21.5c0.1-1,1-1.8,2-1.7c0.9,0.1,1.7,0.8,1.7,1.7v21.5&#10;&#9;&#9;C312.7,352.9,311.9,353.7,310.8,353.7z"/>
	<path class="st1_shopping-41" d="M342,234.6h-18.9c-1,0-1.9-0.8-1.9-1.9c0-1,0.8-1.9,1.9-1.9H342c1,0,1.9,0.8,1.9,1.9&#10;&#9;&#9;C343.9,233.8,343,234.6,342,234.6z"/>
</g>
<g id="cart_shopping-41">
	<path class="st1_shopping-41" d="M381.5,395.4H270.6c-7.7,0-14.3-5.5-15.8-13l-22.1-99.2c-1.1-5.4-5.8-9.3-11.3-9.3h-23.2c-1-0.1-1.8-1-1.7-2&#10;&#9;&#9;c0.1-0.9,0.8-1.7,1.7-1.7h23.2c7.3,0,13.6,5.2,15,12.3l22.1,99.2c1.1,5.8,6.2,10,12.1,10h110.9c1,0,1.9,0.8,1.9,1.9&#10;&#9;&#9;S382.6,395.3,381.5,395.4L381.5,395.4z"/>
	<circle class="st5_shopping-41" cx="281.7" cy="404.6" r="11.1"/>
	<path class="st1_shopping-41" d="M281.7,417.6c-7.2,0-13-5.8-13-13s5.8-13,13-13s13,5.8,13,13S288.9,417.6,281.7,417.6L281.7,417.6z&#10;&#9;&#9; M281.7,395.4c-5.1,0-9.3,4.1-9.3,9.2c0,5.1,4.1,9.3,9.2,9.3c5.1,0,9.3-4.1,9.3-9.2c0,0,0,0,0,0C291,399.5,286.9,395.4,281.7,395.4&#10;&#9;&#9;L281.7,395.4z"/>
	<circle class="st5_shopping-41" cx="380.6" cy="404.6" r="11.1"/>
	<path class="st1_shopping-41" d="M380.6,417.6c-7.2,0-13-5.8-13-13s5.8-13,13-13s13,5.8,13,13S387.8,417.6,380.6,417.6L380.6,417.6z&#10;&#9;&#9; M380.6,395.4c-5.1,0-9.3,4.1-9.3,9.2c0,5.1,4.1,9.3,9.2,9.3c5.1,0,9.3-4.1,9.3-9.2c0,0,0,0,0,0&#10;&#9;&#9;C389.8,399.5,385.7,395.4,380.6,395.4L380.6,395.4z"/>
	<path class="st1_shopping-41" d="M298.8,371.2h-39.9c-4.6,0-5.3,0-5.3-1.9c0-1,0.8-1.9,1.9-1.9c0,0,0.1,0,0.1,0h115.5&#10;&#9;&#9;c11.7,0,21.8-8.3,24.2-19.8c0-0.1,0-0.1,0-0.2l17.8-54.2H237.5c-1-0.1-1.8-1-1.7-2c0.1-0.9,0.8-1.7,1.7-1.7h178.2&#10;&#9;&#9;c1,0,1.9,0.8,1.9,1.9c0,0.2,0,0.4-0.1,0.6l-18.6,56.6c-2.8,13.2-14.4,22.6-27.9,22.6H298.8z"/>
</g>
<g id="character_shopping-41">
	<path class="st6_shopping-41" d="M205.6,258c0,0,16,5.4,17.8,8.6s3.4,9,2.2,11.2s-3.4,4.6-5.7,3.7s-4.5-2.6-7.4-3.5s-14.2-5.8-14.2-5.8&#10;&#9;&#9;L205.6,258z"/>
	<path class="st1_shopping-41" d="M220.9,283.6c-0.6,0-1.2-0.1-1.8-0.4c-1-0.4-2-0.9-2.9-1.5c-1.4-0.8-2.9-1.5-4.4-2c-3-1-13.9-5.6-14.4-5.8&#10;&#9;&#9;c-1-0.4-1.4-1.5-1-2.5c0,0,0-0.1,0.1-0.1l7.4-14.1c0.4-0.8,1.4-1.2,2.3-0.9c3.9,1.3,16.8,5.9,18.9,9.4c1.6,2.9,4,9.6,2.2,13&#10;&#9;&#9;C225.6,281.8,223.2,283.6,220.9,283.6z M200.8,271.3c3.3,1.4,10,4.2,12.2,4.9c1.7,0.6,3.4,1.4,5,2.3c0.8,0.5,1.7,0.9,2.6,1.3&#10;&#9;&#9;c1,0.4,2.4-1.1,3.3-2.8c0.7-1.2-0.3-6.1-2.1-9.4c-0.9-1.5-8.3-4.8-15.3-7.2L200.8,271.3z"/>
	<path class="st1_shopping-41" d="M126,296.8c11.6,1.8,23.4-2.1,31.6-10.5l-7-25.1l-33.1,5.1C117.5,266.4,106.1,293.8,126,296.8z"/>
	<path class="st1_shopping-41" d="M109.9,392.5l-15-18.9c30.2-22.1,48.5-39.1,51-46.8c2-6.2-17.4-32.2-24.9-58.4l39.3-3.3&#10;&#9;&#9;c3.8,13.2,11.3,58.4,5.7,75.8C160.6,357.4,122.8,382.5,109.9,392.5z"/>
	<path class="st1_shopping-41" d="M109.9,394.4c-0.6,0-1.1-0.3-1.5-0.7l-15-18.9c-0.3-0.4-0.5-0.9-0.4-1.4c0.1-0.5,0.3-1,0.8-1.3&#10;&#9;&#9;c29.1-21.3,47.9-38.5,50.4-45.9c0.7-2.2-3.7-10.7-8-18.9c-5.8-10.9-12.9-24.5-16.9-38.3c-0.3-1,0.3-2,1.3-2.3&#10;&#9;&#9;c0.1,0,0.2-0.1,0.4-0.1l39.3-3.3c0.9-0.1,1.8,0.5,2,1.4c3.4,11.7,11.7,58.5,5.6,76.9c-4.6,14.2-30.8,33.3-48,46&#10;&#9;&#9;c-3.5,2.5-6.5,4.8-8.7,6.5C110.8,394.3,110.3,394.4,109.9,394.4z M97.6,374l12.7,15.9c2-1.5,4.5-3.4,7.3-5.4&#10;&#9;&#9;c15.9-11.6,42.5-31.1,46.7-44.1c5.3-16.2-1.5-58.9-5.3-73.2l-35.5,3c4,12.7,10.6,25.2,15.9,35.4c6.4,12.2,9.5,18.3,8.3,21.8&#10;&#9;&#9;C144.1,338.4,115.4,360.9,97.6,374z"/>
	<polygon class="st1_shopping-41" points="149.2,401.6 104.7,273.8 125.1,260.4 172.9,396.5 &#9;"/>
	<path class="st1_shopping-41" d="M149.2,403.5c-0.8,0-1.5-0.5-1.8-1.3l-44.6-127.8c-0.3-0.8,0-1.7,0.7-2.2l20.5-13.5c0.9-0.6,2-0.3,2.6,0.6&#10;&#9;&#9;c0.1,0.1,0.1,0.3,0.2,0.4l47.8,136.1c0.2,0.5,0.1,1.1-0.1,1.5c-0.3,0.5-0.7,0.8-1.2,0.9l-23.7,5.2&#10;&#9;&#9;C149.5,403.5,149.3,403.5,149.2,403.5z M106.9,274.6l43.5,124.9l20-4.4l-46.3-131.8L106.9,274.6z"/>
	<path class="st4_shopping-41 targetColor" d="M162.8,209.6c-5.2-9.3-7.4-13.3-16.1-13.3h-23.9c-10,0-18.2,8.1-18.2,18.2c0,0,0,0,0,0v59.3h60.2v-19.8&#10;&#9;&#9;c11.2,13.4,26,25.4,44.3,28l3.4-24C189,254.6,171.4,225.3,162.8,209.6z" style="fill: rgb(104, 225, 253);"/>
	<path class="st1_shopping-41" d="M209.2,283.9h-0.3c-15-2.1-29.1-10.5-42.2-24.8v14.7c0,1-0.8,1.9-1.9,1.9c0,0,0,0,0,0h-60.2&#10;&#9;&#9;c-1,0-1.9-0.8-1.9-1.9l0,0v-59.3c0-11.1,9-20.1,20.1-20.1h23.9c9.8,0,12.4,4.7,17.6,14l0.1,0.3l0,0c6,10.9,24.2,44,48.4,47.4&#10;&#9;&#9;c1,0.1,1.7,1.1,1.6,2.1c0,0,0,0,0,0l-3.4,24c-0.1,0.5-0.3,0.9-0.7,1.2C210,283.8,209.6,283.9,209.2,283.9z M164.9,252.2&#10;&#9;&#9;c0.6,0,1.1,0.2,1.4,0.7c12.8,15.3,26.6,24.4,41.3,27l2.9-20.3c-25.1-5-43.3-38-49.4-49l-0.1-0.2c-5.1-9-6.8-12.1-14.3-12.1h-23.9&#10;&#9;&#9;c-9,0-16.3,7.3-16.3,16.3v57.4H163v-17.9c0-0.8,0.5-1.5,1.2-1.8C164.4,252.2,164.7,252.2,164.9,252.2L164.9,252.2z"/>
	<path class="st1_shopping-41" d="M158.6,253c-1,0-1.9-0.8-1.9-1.9c0,0,0,0,0,0V222c0-1,0.8-1.9,1.9-1.9s1.9,0.8,1.9,1.9c0,0,0,0,0,0v29.2&#10;&#9;&#9;C160.5,252.2,159.7,253,158.6,253z"/>
	<path class="st7_shopping-41" d="M128.6,90.2c4.4-1.3,9.3-0.7,13.9,0.3c5.1,1.1,10.3,2.7,15.6,2.2s10.7-3.4,12.1-8.5c5.2,6.1,6.4,14.6,6.2,22.6&#10;&#9;&#9;c0,2.3-0.3,4.6-0.8,6.9c-0.6,2.1-1.4,4.1-2.3,6c-1.3,2.9-2.9,5.6-2.9,8.8c-0.1,3.8-0.5,7.5-1.3,11.2c-1.4,8.2-3.4,16.4-5.1,24.6&#10;&#9;&#9;H93.5c0,0-2-17.1-2-31.5s6.4-33.5,23.9-29.5c0.6-2,1.6-3.9,3-5.5c2.3-2.9,5.1-5.6,8.6-7.1C127.5,90.5,128,90.3,128.6,90.2z"/>
	<path class="st1_shopping-41" d="M164,166.2H93.5c-1,0-1.8-0.7-1.9-1.7c0-0.2-2-17.4-2-31.7c0-9.6,2.8-22,10.5-28.2c3.9-3.2,9-4.4,14-3.5&#10;&#9;&#9;c0.7-1.6,1.7-3.1,2.9-4.5c2-2.4,5.1-5.8,9.3-7.7c0.6-0.3,1.2-0.5,1.9-0.7l0,0c5.1-1.5,10.6-0.6,14.8,0.3l2.7,0.6&#10;&#9;&#9;c4.2,1,8.3,1.9,12.3,1.6s9.2-2.7,10.5-7.1c0.2-0.7,0.7-1.2,1.4-1.3c0.7-0.1,1.4,0.1,1.8,0.6c4.8,5.5,7,13.3,6.7,23.9&#10;&#9;&#9;c0,2.5-0.3,4.9-0.8,7.3c-0.6,2.2-1.4,4.3-2.4,6.3c-0.2,0.5-0.5,1.1-0.7,1.6c-1.1,2.2-2,4.2-2,6.4c-0.1,3.8-0.5,7.5-1.3,11.2v0.3&#10;&#9;&#9;c-1,5.4-2.2,10.9-3.3,16.2c-0.6,2.8-1.2,5.6-1.8,8.4C165.7,165.6,164.9,166.3,164,166.2z M95.2,162.5h67.3c0.5-2.3,1-4.7,1.5-7&#10;&#9;&#9;c1.2-5.2,2.4-10.7,3.3-16l0.1-0.3c0.7-3.5,1.1-7,1.2-10.6c0-3.1,1.2-5.6,2.4-8.1c0.2-0.5,0.5-1,0.7-1.5c0.9-1.8,1.6-3.8,2.2-5.7&#10;&#9;&#9;c0.5-2.1,0.7-4.3,0.7-6.5c0.2-8.1-1.1-14.3-4-18.9c-2.7,4.1-7.8,6.3-12.4,6.7s-9.1-0.7-13.5-1.7l-2.6-0.6&#10;&#9;&#9;c-3.8-0.8-8.7-1.6-12.9-0.4l0,0c-0.5,0.1-1,0.3-1.5,0.5c-2.6,1.1-5.1,3.2-7.8,6.6c-1.2,1.3-2.1,3-2.7,4.7c-0.1,0.5-0.4,0.9-0.8,1.2&#10;&#9;&#9;c-0.4,0.3-0.9,0.4-1.4,0.2c-4.9-1.1-9.1-0.3-12.5,2.5c-6.7,5.4-9.1,17-9.1,25.2C93.3,144.4,94.7,157.8,95.2,162.5L95.2,162.5z&#10;&#9;&#9; M128.7,90.2L128.7,90.2z"/>
	<path class="st6_shopping-41" d="M130.7,193.2h13.1l0,0v10.1c0,1.6-1.3,2.9-2.9,2.9h-7.2c-1.6,0-2.9-1.3-2.9-2.9L130.7,193.2L130.7,193.2z"/>
	<path class="st1_shopping-41" d="M138.2,208.2h-2c-4.1,0-7.4-3.3-7.4-7.4v-7.5c0-1,0.8-1.9,1.9-1.9h13.1c1,0,1.9,0.9,1.9,1.9v7.5&#10;&#9;&#9;C145.6,204.9,142.3,208.2,138.2,208.2z M132.5,195.1v5.6c0,2,1.6,3.7,3.7,3.7h2c2,0,3.7-1.6,3.7-3.7v-5.6H132.5z"/>
	<ellipse class="st6_shopping-41" cx="171" cy="160.6" rx="9.8" ry="10.9"/>
	<path class="st1_shopping-41" d="M171,173.5c-6.4,0-11.7-5.8-11.7-12.8s5.2-12.8,11.7-12.8s11.7,5.8,11.7,12.8S177.5,173.5,171,173.5z&#10;&#9;&#9; M171,151.6c-4.4,0-7.9,4.1-7.9,9.1s3.6,9.1,7.9,9.1s7.9-4.1,7.9-9.1S175.4,151.6,171,151.6z"/>
	<path class="st6_shopping-41" d="M136.8,196.3c-21.5,0-40.7-26.5-40.7-47.7l5.1,1.9l-0.2-15c0,0,26.9-7.1,23.4-19.6c0,0,7.9,9.4,19.3,9.4&#10;&#9;&#9;c20.9,0,29-5.6,29-5.6V158C172.7,179.2,158.3,196.3,136.8,196.3z"/>
	<path class="st1_shopping-41" d="M136.8,198.2c-22.6,0-42.6-27.7-42.6-49.6c0-1,0.9-1.9,1.9-1.9c0.2,0,0.4,0,0.6,0.1l2.5,1l-0.1-12.2&#10;&#9;&#9;c0-0.9,0.6-1.6,1.4-1.8c0.2,0,17-4.6,21.4-12.2c0.9-1.5,1.2-3.4,0.7-5.1c-0.3-1,0.3-2,1.3-2.3c0.7-0.2,1.5,0,2,0.6&#10;&#9;&#9;c0.1,0.1,7.5,8.7,17.8,8.7l0,0c19.9,0,27.9-5.2,28-5.3c0.9-0.6,2-0.3,2.6,0.5c0.2,0.3,0.3,0.7,0.3,1V158&#10;&#9;&#9;C174.6,181.3,158.7,198.2,136.8,198.2z M98,151.4c1.6,23.1,22.3,43,38.8,43c19.7,0,34-15.3,34-36.4v-35.2&#10;&#9;&#9;c-4.1,1.7-12.7,4.4-27.1,4.4l0,0c-7.6,0-13.7-3.8-17.2-6.8c-0.2,1.1-0.7,2.1-1.2,3c-4.4,7.6-17.8,12.2-22.2,13.6l0.2,13.5&#10;&#9;&#9;c0,0.6-0.3,1.2-0.8,1.6c-0.5,0.4-1.2,0.4-1.8,0.2L98,151.4z"/>
	<ellipse class="st1_shopping-41" cx="127.1" cy="153.2" rx="3.6" ry="3.5"/>
	<circle class="st1_shopping-41" cx="161.2" cy="153.2" r="3.6"/>
	<path class="st1_shopping-41" d="M146,163.7c-1.2,0-2.4-0.1-3.6-0.3c-1-0.2-1.7-1.2-1.5-2.2c0.2-1,1.2-1.7,2.2-1.5c1.4,0.2,2.9,0.3,4.3,0.2&#10;&#9;&#9;c-0.6-2.6-1.6-5.1-2.9-7.4c-0.5-0.9-0.1-2.1,0.8-2.5c0.9-0.5,2.1-0.1,2.5,0.8c1.6,3.1,4.1,8.6,3,11.1c-0.3,0.8-1,1.3-1.8,1.5&#10;&#9;&#9;C148.1,163.6,147,163.8,146,163.7z"/>
	<path class="st1_shopping-41" d="M114,147.6c-2.1,0-3.8-1.6-3.8-3.7c0-1.8,1.3-3.4,3.1-3.7l16.6-3.2c2-0.4,4,0.9,4.5,2.9s-0.9,4-2.9,4.5&#10;&#9;&#9;c0,0-0.1,0-0.1,0l-16.6,3.2C114.5,147.5,114.2,147.6,114,147.6z"/>
	<path class="st1_shopping-41" d="M164.9,144.4h-0.2l-16.9-0.8c-2.1-0.1-3.7-1.9-3.6-3.9c0.1-2.1,1.8-3.7,3.9-3.6c0,0,0,0,0.1,0l16.9,0.8&#10;&#9;&#9;c2.1,0,3.7,1.8,3.7,3.8C168.7,142.8,167,144.5,164.9,144.4L164.9,144.4z"/>
	<path class="st6_shopping-41" d="M103.8,151.3c0,0-9.4-6.5-14.4,1.9s-0.2,22.6,15.3,18.4"/>
	<path class="st1_shopping-41" d="M99.5,174.2c-4.3,0.2-8.5-1.7-11.1-5.1c-3.5-5-3.8-11.6-0.6-16.8c1.4-2.5,3.8-4.3,6.5-4.9&#10;&#9;&#9;c5.2-1.1,10.3,2.4,10.5,2.5c0.9,0.6,1.1,1.8,0.5,2.6c0,0,0,0,0,0c-0.6,0.8-1.8,1.1-2.6,0.5l0,0c0,0-4-2.7-7.6-1.9&#10;&#9;&#9;c-1.8,0.4-3.2,1.6-4.1,3.2c-2.3,3.9-2.2,8.9,0.4,12.6c2.6,3.4,7.1,4.5,12.8,3c1-0.3,2,0.3,2.3,1.3c0.3,1-0.3,2-1.3,2.3l0,0&#10;&#9;&#9;C103.3,173.9,101.4,174.2,99.5,174.2z"/>
	<path class="st1_shopping-41" d="M141.7,180.2c-1.3,0-2.6-0.1-3.9-0.4c-5-1.2-9.2-4.6-12.3-10.2c-0.5-0.9-0.2-2.1,0.7-2.6&#10;&#9;&#9;c0.9-0.5,2.1-0.2,2.6,0.7c2.6,4.6,5.9,7.5,9.9,8.4c6.7,1.6,13.2-2.8,13.2-2.8c0.9-0.6,2-0.4,2.6,0.5c0.6,0.9,0.4,2-0.5,2.6&#10;&#9;&#9;C150.3,178.8,146.1,180.1,141.7,180.2z"/>
	<path class="st4_shopping-41 targetColor" d="M149.2,401.6l5,15.1l39.4-13c0.7-0.2,1.1-1,0.9-1.7c-0.1-0.4-0.5-0.8-1-0.9l-23-5.8L149.2,401.6z" style="fill: rgb(104, 225, 253);"/>
	<path class="st1_shopping-41" d="M154.2,418.6c-0.8,0-1.5-0.5-1.8-1.3l-5-15.1c-0.2-0.5-0.1-1,0.1-1.5c0.2-0.5,0.7-0.8,1.1-0.9l21.4-6.2&#10;&#9;&#9;c0.3-0.1,0.7-0.1,1,0l23,5.8c1.7,0.4,2.8,2.2,2.3,3.9c-0.3,1.1-1.1,1.9-2.1,2.3l-39.4,13C154.7,418.6,154.5,418.7,154.2,418.6z&#10;&#9;&#9; M151.6,402.9l3.8,11.5l35.8-11.8l-20.6-5.2L151.6,402.9z"/>
	<path class="st4_shopping-41 targetColor" d="M94.9,373.6l-12,10.9l28.9,30.2c0.4,0.4,1,0.3,1.4-0.1c0.2-0.2,0.3-0.4,0.2-0.7l-2.4-24.7L94.9,373.6z" style="fill: rgb(104, 225, 253);"/>
	<path class="st1_shopping-41" d="M112.5,416.9c-0.8,0-1.5-0.3-2-0.9l-28.9-30.2c-0.4-0.4-0.5-0.9-0.5-1.4c0-0.5,0.2-1,0.6-1.3l12-10.9&#10;&#9;&#9;c0.7-0.7,1.8-0.7,2.6,0l16.2,15.6c0.3,0.3,0.5,0.7,0.6,1.2l2.4,24.7c0.1,1.2-0.5,2.4-1.7,2.9C113.4,416.8,113,416.9,112.5,416.9z&#10;&#9;&#9; M85.6,384.6l25.8,26.9l-2.1-21.4l-14.4-13.9L85.6,384.6z"/>
	<path class="st6_shopping-41" d="M199.8,265.2c0,0,16.9,0.2,19.6,2.7s5.9,7.5,5.5,10s-1.8,5.5-4.3,5.2s-5.1-1.1-8.2-1.1s-15.3-1.1-15.3-1.1&#10;&#9;&#9;L199.8,265.2z"/>
	<path class="st1_shopping-41" d="M220.7,285h-0.4c-1.1-0.1-2.2-0.3-3.2-0.5c-1.6-0.4-3.2-0.6-4.8-0.6c-3.1,0-14.9-1.1-15.4-1.2&#10;&#9;&#9;c-1-0.1-1.8-1-1.7-2c0,0,0-0.1,0-0.1l2.7-15.7c0.2-0.9,1-1.6,1.9-1.6c4.1,0.1,17.8,0.5,20.8,3.2c2.4,2.2,6.7,8,6,11.8&#10;&#9;&#9;C225.9,282.4,223.6,285,220.7,285z M199.2,279.2c3.6,0.3,10.9,1,13.1,1c1.9,0,3.7,0.3,5.5,0.7c0.9,0.2,1.9,0.4,2.8,0.5&#10;&#9;&#9;c1.1,0.1,2-1.8,2.3-3.7c0.2-1.4-2.1-5.8-4.9-8.3c-1.2-1.1-9.4-2-16.7-2.2L199.2,279.2z"/>
	<path class="st4_shopping-41 targetColor" d="M133.1,216c6.5,11.4,26.3,38.2,72.6,46.3l-2.1,24.1c0,0-1.4-0.1-2.1-0.2c-53.6-9.4-78.8-40.3-88.5-56.5" style="fill: rgb(104, 225, 253);"/>
	<path class="st1_shopping-41" d="M203.7,288.2L203.7,288.2c-0.2,0-1.6-0.1-2.4-0.2c-53.8-9.4-79.3-40-89.8-57.4c-0.5-0.9-0.2-2,0.6-2.6&#10;&#9;&#9;c0.9-0.5,2-0.2,2.6,0.6l0,0c10.1,16.9,35,46.5,87.2,55.6h0.1l1.8-20.5c-46-8.6-65.8-35.6-72.2-46.9c-0.4-0.9-0.1-2.1,0.9-2.5&#10;&#9;&#9;c0.8-0.4,1.9-0.1,2.4,0.7c6.2,11,25.7,37.4,71.3,45.3c1,0.2,1.6,1,1.6,2l-2.1,24.1C205.5,287.5,204.7,288.2,203.7,288.2z"/>
	<path class="st5_shopping-41" d="M158.6,352.9c-0.4,0-0.8-0.3-0.9-0.6l-25.5-72.7c-0.2-0.5,0.1-1,0.6-1.2c0.5-0.2,1,0.1,1.2,0.6l0,0l25.5,72.7&#10;&#9;&#9;c0.2,0.5-0.1,1-0.6,1.2c0,0,0,0,0,0C158.9,352.8,158.8,352.9,158.6,352.9z"/>
</g>
</svg>