<?xml version="1.0"?><svg viewBox="0 0 64 64" xmlns="http://www.w3.org/2000/svg"><title/><g data-name="10-Shortness of breath" id="_10-Shortness_of_breath"><path d="M53.5,38A2.783,2.783,0,0,1,56,41a2.783,2.783,0,0,1-2.5,3A2.654,2.654,0,0,1,51,46c-1.49,0-2-1-2-3l-3-1V40l3-1c0-2,.51-3,2-3A2.654,2.654,0,0,1,53.5,38Z" style="fill:#f2f2f2"/><path d="M60.5,28A2.783,2.783,0,0,1,63,31a2.783,2.783,0,0,1-2.5,3A2.654,2.654,0,0,1,58,36c-1.49,0-2-1-2-3l-3-1V30l3-1c0-2,.51-3,2-3A2.654,2.654,0,0,1,60.5,28Z" style="fill:#f2f2f2"/><path d="M9,5H3A2,2,0,0,1,1.03,2.66,2.072,2.072,0,0,1,3.11,1h.27a4.514,4.514,0,0,1,1.31.19C6.43,1.74,9,2.98,9,5Z" style="fill:#b3f5ff"/><path d="M9,16,6.43,21a1.943,1.943,0,0,1-1.72,1A1.878,1.878,0,0,1,3,20a1.8,1.8,0,0,1,.02-.23,2.256,2.256,0,0,1,.07-.39.01.01,0,0,1,.01-.01.845.845,0,0,1,.05-.17C3.5,18.03,4.72,16,9,16Z" style="fill:#b3f5ff"/><path d="M35.95,37.71a1.007,1.007,0,0,1-1,1.29h-5.9a1.007,1.007,0,0,1-1-1.29A3.762,3.762,0,0,1,32,35,3.762,3.762,0,0,1,35.95,37.71Z" style="fill:#d9896d"/><path d="M53.12,23.1,50,27l-.11.01A4.882,4.882,0,0,0,50,26V25a2.006,2.006,0,0,0-2-2H46V19c-5,0-5-8-5-8s-3,5-6,5l.99-3.98C35.69,12.43,30.78,19,24,19V13l-6,5v5H16a2.006,2.006,0,0,0-2,2v1a5.4,5.4,0,0,0,.99,2.99C14.69,28.87,10,26.84,10,22a10.8,10.8,0,0,1,4-8A8.613,8.613,0,0,1,6,9s8-1,12-3,6-5,14-5A11.785,11.785,0,0,1,42,6a4.333,4.333,0,0,1,4-2c3,0,8,2,8,8v8.6A3.989,3.989,0,0,1,53.12,23.1Z" style="fill:#5e3616"/><path d="M41,11s0,8,5,8v4h2a2.006,2.006,0,0,1,2,2v1a4.882,4.882,0,0,1-.11,1.01A7.411,7.411,0,0,1,45,32a13.448,13.448,0,0,1-7,9.63A13.167,13.167,0,0,1,19,32a7.739,7.739,0,0,1-4-3l-.01-.01A5.4,5.4,0,0,1,14,26V25a2.006,2.006,0,0,1,2-2h2V18l6-5v6c6.78,0,11.69-6.57,11.99-6.98L35,16C38,16,41,11,41,11ZM34.95,39a1.007,1.007,0,0,0,1-1.29A3.762,3.762,0,0,0,32,35a3.762,3.762,0,0,0-3.95,2.71,1.007,1.007,0,0,0,1,1.29Z" style="fill:#f2c4b2"/><path d="M38.93,48.1a6.887,6.887,0,0,1-1.88,1.61,2.04,2.04,0,0,0-.86-.2A1.639,1.639,0,0,0,35,50l-1,1-.03-.02,1.55-1.56a1.492,1.492,0,0,0-.3-2.34,1.894,1.894,0,0,0-.98-.26,1.851,1.851,0,0,0-1.33.54l-4.86,4.59,4.54-4.47a1.363,1.363,0,0,0-.39-2.21,1.94,1.94,0,0,0-.99-.27,1.857,1.857,0,0,0-1.34.54l-3.81,3.55a6.7,6.7,0,0,1-.99-.99A1.964,1.964,0,0,0,26,46.42V41.63a13.824,13.824,0,0,0,12,0v4.79A1.964,1.964,0,0,0,38.93,48.1Z" style="fill:#ed9776"/><path d="M40,54v3l-1.35-1.26.92-.91A1.419,1.419,0,0,0,40,53.82h.01A1.087,1.087,0,0,0,40,54Z" style="fill:#34c1ad"/><path d="M40,53.82a1.419,1.419,0,0,1-.43,1.01l-.92.91-2.48-2.3.74-.63a1.9,1.9,0,0,1,1.34-.54,1.987,1.987,0,0,1,.97.26A1.5,1.5,0,0,1,40,53.82Z" style="fill:#f2a283"/><path d="M37.22,49.8a1.448,1.448,0,0,1,.35,2.31l-1.46,1.27-1.98-1.84A1.857,1.857,0,0,0,32.79,51a1.94,1.94,0,0,0-.99.27,1.363,1.363,0,0,0-.39,2.21L36,58l-4.91-4.64a1.851,1.851,0,0,0-1.33-.54,1.894,1.894,0,0,0-.98.26,1.492,1.492,0,0,0-.3,2.34L34.03,61H34l-4.91-4.92a1.9,1.9,0,0,0-1.34-.54,1.987,1.987,0,0,0-.97.26,1.448,1.448,0,0,0-.35,2.31l.64.68a1.876,1.876,0,0,0-1.32-.52,1.987,1.987,0,0,0-.97.26,1.438,1.438,0,0,0-.35,2.3L26.61,63H19.49A7.93,7.93,0,0,1,18,58l2-3V48a2.088,2.088,0,0,1,2-2,2.088,2.088,0,0,1,2,2v3l2.06-1.91,3.81-3.55A1.857,1.857,0,0,1,31.21,45a1.94,1.94,0,0,1,.99.27,1.363,1.363,0,0,1,.39,2.21l-4.54,4.47,4.86-4.59a1.851,1.851,0,0,1,1.33-.54,1.894,1.894,0,0,1,.98.26,1.492,1.492,0,0,1,.3,2.34l-1.55,1.56L34,51l1-1a1.639,1.639,0,0,1,1.19-.49,2.04,2.04,0,0,1,.86.2C37.11,49.74,37.16,49.77,37.22,49.8Z" style="fill:#f2a283"/><path d="M27.09,58.81,31,63H26.61l-2.18-2.17a1.438,1.438,0,0,1,.35-2.3,1.987,1.987,0,0,1,.97-.26,1.876,1.876,0,0,1,1.32.52Z" style="fill:#f2bca7"/><path d="M38.65,55.74,40,57V54a1.087,1.087,0,0,1,.01-.18A2.1,2.1,0,0,1,42,52a2.088,2.088,0,0,1,2,2v7l2,2H31l-3.91-4.19-.02-.02-.64-.68a1.448,1.448,0,0,1,.35-2.31,1.987,1.987,0,0,1,.97-.26,1.9,1.9,0,0,1,1.34.54L34,61h.03l-5.55-5.58a1.492,1.492,0,0,1,.3-2.34,1.894,1.894,0,0,1,.98-.26,1.851,1.851,0,0,1,1.33.54L36,58l-4.59-4.52a1.363,1.363,0,0,1,.39-2.21,1.94,1.94,0,0,1,.99-.27,1.857,1.857,0,0,1,1.34.54l1.98,1.84.06.06Z" style="fill:#f2bca7"/><path d="M26.06,49.09,24,51V48.48l.46-.11a1.677,1.677,0,0,0,.61-.27A6.7,6.7,0,0,0,26.06,49.09Z" style="fill:#21abab"/><path d="M19.49,63H11l7-5A7.93,7.93,0,0,0,19.49,63Z" style="fill:#21abab"/><path d="M20,49.43V55l-2,3-7,5H5V57.74A6.01,6.01,0,0,1,9.61,51.9Z" style="fill:#34c1ad"/><path d="M39.54,48.37,54.39,51.9A6.01,6.01,0,0,1,59,57.74V63H46l-2-2V54a2.088,2.088,0,0,0-2-2,2.1,2.1,0,0,0-1.99,1.82H40a1.5,1.5,0,0,0-.78-1.29,1.987,1.987,0,0,0-.97-.26,1.9,1.9,0,0,0-1.34.54l-.74.63-.06-.06,1.46-1.27a1.448,1.448,0,0,0-.35-2.31c-.06-.03-.11-.06-.17-.09a6.887,6.887,0,0,0,1.88-1.61A1.677,1.677,0,0,0,39.54,48.37Z" style="fill:#34c1ad"/><path d="M18,25H17a1,1,0,0,0-1,1v1c0,1.105.895,3,2,3h0Z" style="fill:#f2a283"/><path d="M46,25h1a1,1,0,0,1,1,1v1c0,1.105-.9,3-2,3h0Z" style="fill:#f2a283"/><path d="M14,14a10.8,10.8,0,0,0-4,8c0,4.84,4.69,6.87,4.99,6.99A5.4,5.4,0,0,1,14,26V25a2.006,2.006,0,0,1,2-2h2V18l-6,2A8.76,8.76,0,0,1,14,14Z" style="fill:#3b220e"/><path d="M46,19v4h2a2.006,2.006,0,0,1,2,2V21Z" style="fill:#3b220e"/><path d="M32,26c12,0,14-3,14-3V19c-5,0-5-8-5-8s-3,5-6,5l.99-3.98C35.69,12.43,30.78,19,24,19V13l-6,5v5S20,26,32,26Z" style="fill:#ad706d"/><ellipse cx="25" cy="26" rx="2" ry="3" style="fill:#5e3616"/><polygon points="24 13 18 18 18 19 18 20 24 15 24 13" style="fill:#875755"/><path d="M41,13s0,8,5,8V19c-5,0-5-8-5-8s-2.669,4.444-5.49,4.949L35,18C38,18,41,13,41,13Z" style="fill:#875755"/><path d="M35.271,14.91l.719-2.89C35.69,12.43,30.78,19,24,19v2C29.424,21,33.644,16.8,35.271,14.91Z" style="fill:#875755"/><ellipse cx="32" cy="30" rx="1" ry="2" style="fill:#d9896d"/><path d="M28,35a4.986,4.986,0,0,0-9-2.979,13.965,13.965,0,0,0,4.481,7.93A4.983,4.983,0,0,0,28,35Z" style="fill:#f2a283"/><path d="M37,36a4.985,4.985,0,0,0,2.82,4.48A13.768,13.768,0,0,0,45,32.019,4.977,4.977,0,0,0,37,36Z" style="fill:#f2a283"/><path d="M24.43,60.83,26.61,63H29l-4.364-4.364A1.421,1.421,0,0,0,24.43,60.83Z" style="fill:#f2b096"/><path d="M42,52.721a.988.988,0,0,0-.292-.69,2.122,2.122,0,0,0-1.7,1.789A1.087,1.087,0,0,0,40,54v3l2,2Z" style="fill:#f2b096"/><path d="M26.269,56.269a1.414,1.414,0,0,0,.161,1.841l.64.68.02.02L31,63h1V62Z" style="fill:#f2b096"/><path d="M37.5,57.5l-6-6.005a1.363,1.363,0,0,0-.346,1.654,1.157,1.157,0,0,0,.261.331L36,58l.5.5a.707.707,0,0,0,1-1Z" style="fill:#f2b096"/><path d="M35.5,61.5a.707.707,0,0,0,0-1l-7.095-7.095a1.487,1.487,0,0,0,.075,2.015L34.03,61H34l.5.5A.707.707,0,0,0,35.5,61.5Z" style="fill:#f2b096"/><path d="M24.755,58.548a1.944,1.944,0,0,0-1-.278,1.987,1.987,0,0,0-.97.26,1.438,1.438,0,0,0-.35,2.3L23.605,62H23a3,3,0,0,1-3-3V55l-2,3a7.93,7.93,0,0,0,1.49,5h7.12l-2.18-2.17A1.435,1.435,0,0,1,24.755,58.548Z" style="fill:#ed9776"/><path d="M28.755,53.1a1.944,1.944,0,0,0-1.975-.019,1.492,1.492,0,0,0-.3,2.34l.355.357a1.985,1.985,0,0,1,.915-.237,1.9,1.9,0,0,1,1.34.54L34,61h.03l-5.55-5.58A1.49,1.49,0,0,1,28.755,53.1Z" style="fill:#ed9776"/><path d="M29.76,52.82a1.851,1.851,0,0,1,1.33.54L36,58l-4.59-4.52a1.361,1.361,0,0,1,.381-2.2A1.949,1.949,0,0,0,29.8,51.27a1.467,1.467,0,0,0-.742,1.7A1.937,1.937,0,0,1,29.76,52.82Z" style="fill:#ed9776"/><path d="M26.752,55.821a1.941,1.941,0,0,0-1-.281,1.987,1.987,0,0,0-.97.26,1.448,1.448,0,0,0-.35,2.31l.383.407a1.978,1.978,0,0,1,.937-.247,1.876,1.876,0,0,1,1.32.52l-.64-.68A1.443,1.443,0,0,1,26.752,55.821Z" style="fill:#ed9776"/><path d="M22,48v2.586a1,1,0,0,0,1.707.707L24,51V48a2.088,2.088,0,0,0-2-2,1.869,1.869,0,0,0-.973.292A1.992,1.992,0,0,1,22,48Z" style="fill:#f2b096"/><path d="M38,41.63a13.824,13.824,0,0,1-12,0v4.79a1.964,1.964,0,0,1-.93,1.68,6.7,6.7,0,0,0,.99.99l3.81-3.55A1.857,1.857,0,0,1,31.21,45a1.94,1.94,0,0,1,.99.27,1.655,1.655,0,0,1,.7.781L38,43.5Z" style="fill:#d9896d"/><path d="M53.5,42A2.654,2.654,0,0,1,51,44c-1.49,0-2-1-2-3H46v1l3,1c0,2,.51,3,2,3a2.654,2.654,0,0,0,2.5-2A2.783,2.783,0,0,0,56,41a3.5,3.5,0,0,0-.153-1A2.57,2.57,0,0,1,53.5,42Z" style="fill:#d4d4d4"/><path d="M60.5,32A2.654,2.654,0,0,1,58,34c-1.49,0-2-1-2-3H53v1l3,1c0,2,.51,3,2,3a2.654,2.654,0,0,0,2.5-2A2.783,2.783,0,0,0,63,31a3.5,3.5,0,0,0-.153-1A2.57,2.57,0,0,1,60.5,32Z" style="fill:#d4d4d4"/><path d="M17,50.143,9.61,51.9A6,6,0,0,0,5,57.739V63" style="fill:none;stroke:#000;stroke-linejoin:round;stroke-width:2px"/><line style="fill:none;stroke:#000;stroke-linejoin:round;stroke-width:2px" x1="26" x2="26" y1="41" y2="46"/><path d="M38,41v5.42a2,2,0,0,0,1.537,1.946L54.39,51.9A6,6,0,0,1,59,57.739V63" style="fill:none;stroke:#000;stroke-linejoin:round;stroke-width:2px"/><path d="M18,19v4H16a2,2,0,0,0-2,2v1c0,2.713,2.529,5.258,5,6,1.276,6.417,6.208,11,13,11s11.724-4.583,13-11c2.471-.742,5-3.287,5-6V25a2,2,0,0,0-2-2H46V19c-5,0-5-8-5-8s-3,5-6,5l1-4s-5,7-12,7V13l-6,5Z" style="fill:none;stroke:#000;stroke-linejoin:round;stroke-width:2px"/><path d="M50,27l3.123-3.9A4,4,0,0,0,54,20.6V12c0-6-5-8-8-8a4.333,4.333,0,0,0-4,2A11.785,11.785,0,0,0,32,1C24,1,22,4,18,6S6,9,6,9a8.613,8.613,0,0,0,8,5,10.8,10.8,0,0,0-4,8c0,5,5,7,5,7" style="fill:none;stroke:#000;stroke-linejoin:round;stroke-width:2px"/><path d="M29.05,39a1.008,1.008,0,0,1-1-1.286A3.773,3.773,0,0,1,32,35a3.773,3.773,0,0,1,3.954,2.714,1.008,1.008,0,0,1-1,1.286Z" style="fill:none;stroke:#000;stroke-linejoin:round;stroke-width:2px"/><path d="M26.612,63l-2.177-2.165a1.434,1.434,0,0,1,.347-2.3h0a1.93,1.93,0,0,1,2.308.28L31,63l-4.565-4.892a1.434,1.434,0,0,1,.347-2.3h0a1.93,1.93,0,0,1,2.308.28L34,61h.026l-5.548-5.576a1.5,1.5,0,0,1,.3-2.346h0a1.929,1.929,0,0,1,2.308.28L36,58l-4.585-4.522a1.365,1.365,0,0,1,.381-2.211h0a1.946,1.946,0,0,1,2.337.277L40,57V54a2.091,2.091,0,0,1,2-2h0a2.091,2.091,0,0,1,2,2v7l2,2" style="fill:none;stroke:#000;stroke-linejoin:round;stroke-width:2px"/><path d="M36,53.483l1.565-1.375a1.434,1.434,0,0,0-.347-2.3h0A1.788,1.788,0,0,0,35,50l-1,1" style="fill:none;stroke:#000;stroke-linejoin:round;stroke-width:2px"/><path d="M38.394,56l1.171-1.165a1.434,1.434,0,0,0-.347-2.3h0a1.93,1.93,0,0,0-2.308.28l-.91.776" style="fill:none;stroke:#000;stroke-linejoin:round;stroke-width:2px"/><path d="M33.954,51l1.568-1.576a1.5,1.5,0,0,0-.3-2.346h0a1.929,1.929,0,0,0-2.308.28L28,52l4.585-4.522a1.365,1.365,0,0,0-.381-2.211h0a1.946,1.946,0,0,0-2.337.277L24,51V48a2.091,2.091,0,0,0-2-2h0a2.091,2.091,0,0,0-2,2v7l-2,3h0a7.951,7.951,0,0,0,1.488,5" style="fill:none;stroke:#000;stroke-linejoin:round;stroke-width:2px"/><line style="fill:none;stroke:#000;stroke-linejoin:round;stroke-width:2px" x1="18" x2="11" y1="58" y2="63"/><path d="M46,42l3,1c0,2,.513,3,2,3a2.646,2.646,0,0,0,2.5-2A2.784,2.784,0,0,0,56,41a2.784,2.784,0,0,0-2.5-3A2.646,2.646,0,0,0,51,36c-1.487,0-2,1-2,3l-3,1Z" style="fill:none;stroke:#000;stroke-linejoin:round;stroke-width:2px"/><path d="M53,32l3,1c0,2,.513,3,2,3a2.646,2.646,0,0,0,2.5-2A2.784,2.784,0,0,0,63,31a2.784,2.784,0,0,0-2.5-3A2.646,2.646,0,0,0,58,26c-1.487,0-2,1-2,3l-3,1Z" style="fill:none;stroke:#000;stroke-linejoin:round;stroke-width:2px"/><path d="M42,24s-6,1-6,4a10.56,10.56,0,0,1,6,0" style="fill:none;stroke:#000;stroke-linejoin:round;stroke-width:2px"/><ellipse cx="25" cy="26" rx="2" ry="3" style="fill:none;stroke:#000;stroke-linejoin:round;stroke-width:2px"/><path d="M23,20s0,2,3,2a4.333,4.333,0,0,0,4-2" style="fill:none;stroke:#000;stroke-linejoin:round;stroke-width:2px"/><path d="M41,20s0,2-3,2a4.333,4.333,0,0,1-4-2" style="fill:none;stroke:#000;stroke-linejoin:round;stroke-width:2px"/><path d="M3.378,1H3.107a2.075,2.075,0,0,0-2.08,1.664A2,2,0,0,0,3,5H9C9,2.977,6.428,1.735,4.69,1.192A4.378,4.378,0,0,0,3.378,1Z" style="fill:none;stroke:#000;stroke-linejoin:round;stroke-width:2px"/><path d="M6.429,21,9,16c-4.278,0-5.5,2.029-5.853,3.2-.022.056-.035.116-.052.175l0,.006a2.3,2.3,0,0,0-.073.394C3,19.911,3,20,3,20a1.874,1.874,0,0,0,1.714,2A1.943,1.943,0,0,0,6.429,21Z" style="fill:none;stroke:#000;stroke-linejoin:round;stroke-width:2px"/></g></svg>