<?xml version="1.0"?><svg viewBox="0 0 64 64" xmlns="http://www.w3.org/2000/svg"><title/><g data-name="22-Cough" id="_22-Cough"><path d="M48,31s3,0,3,2-3,3-3,3Z" style="fill:#f2a283"/><path d="M51,63H27a3,3,0,0,1,3-3l18-6h3Z" style="fill:#34c1ad"/><path d="M41.65,28H50.2A3.859,3.859,0,0,1,54,31.65V34c0,1.77-.38,3.06-1.9,4.04L48,40V54L30,60V52.88a14.994,14.994,0,0,1-9.62-5.01L25,46a2.006,2.006,0,0,0-2-2H17.66A20.03,20.03,0,0,1,16,40l-2.29-1.14A3.1,3.1,0,0,1,12,36.09v-.04a3.125,3.125,0,0,1,.62-1.86C13.75,32.69,16,29.5,16,28V17a6.83,6.83,0,0,0,4-4c6,0,12.76,15,20,15ZM48,31v5s3-1,3-3S48,31,48,31Z" style="fill:#f2c4b2"/><path d="M51,47.44V48H48V40l4.1-1.96C53.62,37.06,54,35.77,54,34V31.65A3.859,3.859,0,0,0,50.2,28H40c-7.24,0-14-15-20-15a6.83,6.83,0,0,1-4,4V16A14.613,14.613,0,0,1,20.6,5.4,16.053,16.053,0,0,1,31.71,1h9.43C51.56,1,60,9.06,60,19v8c0,3-1.39,9.56-5,13l-1.56,1.56A8.328,8.328,0,0,0,51,47.44Z" style="fill:#5e3616"/><path d="M21,17s3,1,4,3c.944,1.888,4.57,7.335,14.228,7.939C32.279,26.945,25.786,13,20,13a6.83,6.83,0,0,1-4,4v3.735C17.511,20.272,20.282,19.153,21,17Z" style="fill:#f2a283"/><path d="M39.793,48.294A37.565,37.565,0,0,1,30,53v7l13-4.333V49.886A2,2,0,0,0,39.793,48.294Z" style="fill:#f2a283"/><path d="M13,36H12c0,.017,0,.033,0,.05v.04a3.1,3.1,0,0,0,1.71,2.77L16,40V31S15,36,13,36Z" style="fill:#f2a283"/><path d="M51,24H49C32.4,23.126,27.248,6.217,26.214,1.965A15.849,15.849,0,0,0,20.6,5.4,14.613,14.613,0,0,0,16,16v1a6.83,6.83,0,0,0,4-4c6,0,12.76,15,20,15H50.2A3.859,3.859,0,0,1,54,31.65V27A3,3,0,0,0,51,24Z" style="fill:#452810"/><path d="M50.91,38.609,48,40v8h3v-.56a8.31,8.31,0,0,1,1.671-4.977A3.919,3.919,0,0,1,50.91,38.609Z" style="fill:#452810"/><path d="M49,61H37.789a1.774,1.774,0,0,1-.96-3.276L30,60a3,3,0,0,0-3,3H51V59A2,2,0,0,1,49,61Z" style="fill:#107c82"/><line style="fill:none;stroke:#000;stroke-linejoin:round;stroke-width:2px" x1="13" x2="4" y1="47" y2="50"/><line style="fill:none;stroke:#000;stroke-linejoin:round;stroke-width:2px" x1="13" x2="4" y1="54" y2="57"/><line style="fill:none;stroke:#000;stroke-linejoin:round;stroke-width:2px" x1="13" x2="9" y1="50.667" y2="52"/><line style="fill:none;stroke:#000;stroke-linejoin:round;stroke-width:2px" x1="18" x2="15" y1="49" y2="50"/><line style="fill:none;stroke:#000;stroke-linejoin:round;stroke-width:2px" x1="8" x2="4" y1="44.667" y2="46"/><line style="fill:none;stroke:#000;stroke-linejoin:round;stroke-width:2px" x1="13" x2="10" y1="43" y2="44"/><path d="M48,36V31s3,0,3,2S48,36,48,36Z" style="fill:none;stroke:#000;stroke-linejoin:round;stroke-width:2px"/><path d="M16,17V16h0C16,7.716,23.036,1,31.714,1h9.429C51.557,1,60,9.059,60,19v8c0,3-1.394,9.558-5,13l-1.565,1.565A8.315,8.315,0,0,0,51,47.444V48H48" style="fill:none;stroke:#000;stroke-linejoin:round;stroke-width:2px"/><polyline points="26 24 20 28 26 32" style="fill:none;stroke:#000;stroke-linejoin:round;stroke-width:2px"/><path d="M39,57l9-3h3v9H27a3,3,0,0,1,3-3h0l3-1" style="fill:none;stroke:#000;stroke-linejoin:round;stroke-width:2px"/><line style="fill:none;stroke:#000;stroke-linejoin:round;stroke-width:2px" x1="35" x2="37" y1="58.333" y2="57.667"/><path d="M48,52V40l4.1-1.957C53.62,37.063,54,35.767,54,34V31.652A3.861,3.861,0,0,0,50.2,28H40c-7.238,0-14-15-20-15a6.83,6.83,0,0,1-4,4V28c0,1.5-2.25,4.688-3.375,6.188A3.107,3.107,0,0,0,12,36.053v.034a3.1,3.1,0,0,0,1.711,2.769L16,40a19.685,19.685,0,0,0,1.663,4H23a2,2,0,0,1,2,2h0l-4.619,1.873A15.032,15.032,0,0,0,30,52.885V60" style="fill:none;stroke:#000;stroke-linejoin:round;stroke-width:2px"/></g></svg>