<svg id="_0223_social_media" xmlns="http://www.w3.org/2000/svg" viewBox="0 0 500 500" data-imageid="social-media-51" imageName="Social Media" class="illustrations_image" style="width: 188px;"><defs><style>.cls-1_social-media-51{fill:#fff;}.cls-2_social-media-51{fill:#f4a28c;}.cls-3_social-media-51{opacity:.46;}.cls-3_social-media-51,.cls-4_social-media-51,.cls-5_social-media-51,.cls-6_social-media-51{fill:none;}.cls-7_social-media-51{fill:#a5a5a5;}.cls-8_social-media-51{fill:#ce8172;}.cls-9_social-media-51{fill:#e6e6e6;}.cls-4_social-media-51{opacity:.6;}.cls-5_social-media-51{opacity:.31;}.cls-10_social-media-51{fill:#24285b;}.cls-11_social-media-51{fill:#000001;}.cls-6_social-media-51{opacity:.06;}.cls-12_social-media-51{fill:#ffd200;}.cls-13_social-media-51{fill:#68e1fd;}</style></defs><g id="like_social-media-51"><circle class="cls-10_social-media-51" cx="160.73" cy="132.77" r="32.85"/><path class="cls-1_social-media-51" d="m166.99,118.39c-1.87.25-3.51,1.08-4.86,2.45-1.3,1.32-2.07,2.88-2.5,3.99-.71-.96-1.87-2.26-3.47-3.18-1.67-.96-3.47-1.33-5.34-1.07-5.22.71-8.58,5.51-7.81,11.17.83,6.12,6.31,9.64,14.6,14.97,1.41.91,3,1.93,4.67,3.03.22.15.48.21.75.17s.5-.16.67-.36c1.31-1.5,2.58-2.92,3.7-4.16,6.58-7.34,10.92-12.19,10.1-18.31-.77-5.66-5.28-9.4-10.5-8.69Z"/></g><g id="person_socmed_social-media-51"><polygon class="cls-10_social-media-51" points="213.45 445.49 218.84 481.13 356.71 481.13 340.78 441.39 213.45 445.49"/><path class="cls-13_social-media-51 targetColor" d="m322.78,187.05s24,7.74,54.11,45c30.11,37.26,38.12,61.86,38.12,61.86l-56.82,8.1-35.41-114.96Z" style="fill: rgb(104, 225, 253);"/><g class="cls-3_social-media-51"><path class="cls-1_social-media-51" d="m322.78,187.05s24,7.74,54.11,45c30.11,37.26,38.12,61.86,38.12,61.86l-56.82,8.1-35.41-114.96Z"/></g><path class="cls-2_social-media-51" d="m276.67,111.31s2.14,16.11-.09,26.99c-.91,4.41-5.29,7.3-9.69,6.33-5.46-1.2-12.5-4.42-14.7-12.91l-5.5-13.96s-3.14-8.87,5.72-15.87c8.85-7,23.45-.46,24.26,9.42Z"/><polygon class="cls-2_social-media-51" points="247.69 120.3 241.71 173.21 271.11 174.42 263.65 135.43 247.69 120.3"/><path class="cls-12_social-media-51" d="m272.68,112.17c-2.83.28-8.03.49-15.02-.47,0,0,5.4,6.84.67,14.85-4.72,8.02-13.12,5-13.12,5l-.68-20.87c-.39-6.07,2.55-11.9,7.71-15.13,2.11-1.32,4.45-2.64,6.81-3.72,5.89-2.68,14.87.92,20.07-3.37,2.28-1.88,5.76-.62,6.32,2.28,1.23,6.3.55,16.34-7.88,20.19-1.54.71-3.21,1.05-4.9,1.22Z"/><path class="cls-2_social-media-51" d="m260.05,125.99s-.4-6.24-5.08-5.55c-4.67.69-4.14,9.72,2.28,10.27l2.8-4.72Z"/><path class="cls-2_social-media-51" d="m277.5,121.53l4.81,6.05c1.19,1.49.42,3.72-1.44,4.15l-6.15,1.45,2.79-11.65Z"/><g class="cls-5_social-media-51"><path class="cls-8_social-media-51" d="m265.65,143.9s-5.47-.86-9.76-5.23c0,0,.86,9.71,11.98,18.83l-2.22-13.6Z"/></g><path class="cls-13_social-media-51 targetColor" d="m158.12,220.26c12.12-32.74,64.27-48.62,99.15-47.19l13.04.54s91.6.35,97.87,83.78c6.27,83.43-31.99,149.24-31.99,149.24l-123.1,3.5s-82.15-116.51-54.98-189.88Z" style="fill: rgb(104, 225, 253);"/><path class="cls-2_social-media-51" d="m336.57,172.87s-8.75-36.57-15.61-39.45c-6.85-2.89.67,18.26.67,18.26,0,0-11.85-13.13-15.89-12.07s9.55,18.45,9.55,18.45c0,0-14.7,10.79,8.55,20.36l12.72-5.55Z"/><g class="cls-6_social-media-51"><path class="cls-11_social-media-51" d="m222.48,220.49s23.36,8.61,17.85,46.44c-5.5,37.83-5.03,42.34-5.03,42.34l-50.37,7.18,37.55-95.96Z"/></g><path class="cls-13_social-media-51 targetColor" d="m422.79,291.23l-83.5-123.76-21.32,9.37s27.61,133.35,86.09,144.04c16.4,3,28.05-15.83,18.72-29.65Z" style="fill: rgb(104, 225, 253);"/><g class="cls-3_social-media-51"><path class="cls-1_social-media-51" d="m422.79,291.23l-83.5-123.76-21.32,9.37s27.61,133.35,86.09,144.04c16.4,3,28.05-15.83,18.72-29.65Z"/></g><path class="cls-13_social-media-51 targetColor" d="m73.89,223.36s-41.37,126.14,30.96,127.57c59.13,1.17,113.62-51.86,118.49-119.8,2.19-30.47-34.4-47.47-55.96-25.83-7.05,7.08-12.64,16.5-14.84,28.99-4.64,26.38,8.1,66.38-30.12,71.82-38.22,5.45-37.9-82.82-37.9-82.82l-10.64.06Z" style="fill: rgb(104, 225, 253);"/><g class="cls-3_social-media-51"><path class="cls-1_social-media-51" d="m73.89,223.36s-41.37,126.14,30.96,127.57c59.13,1.17,113.62-51.86,118.49-119.8,2.19-30.47-34.4-47.47-55.96-25.83-7.05,7.08-12.64,16.5-14.84,28.99-4.64,26.38,8.1,66.38-30.12,71.82-38.22,5.45-37.9-82.82-37.9-82.82l-10.64.06Z"/></g><path class="cls-9_social-media-51" d="m56.82,65.64l58.13,407.93,328.24-46.77L385.06,18.87,56.82,65.64Zm337.71,220.95l-272.26,38.8-33.92-238.07,272.26-38.8,33.92,238.07Z"/><path class="cls-7_social-media-51" d="m158.39,343.43c-1.96.27-3.68,1.13-5.1,2.57-1.36,1.38-2.17,3.02-2.62,4.19-.74-1.01-1.96-2.37-3.64-3.34-1.75-1.01-3.64-1.39-5.6-1.13-5.48.74-9,5.78-8.2,11.72.87,6.42,6.62,10.11,15.32,15.71,1.48.95,3.15,2.03,4.9,3.18.23.15.51.22.78.18s.53-.17.71-.38c1.38-1.58,2.71-3.06,3.88-4.37,6.9-7.7,11.46-12.79,10.59-19.21-.8-5.94-5.54-9.86-11.02-9.12Z"/><g class="cls-4_social-media-51"><path class="cls-7_social-media-51" d="m213.22,359.32c2.72-2.91,4.16-6.66,3.61-10.52-1.07-7.48-9.12-12.53-18-11.26-8.87,1.26-15.2,8.36-14.14,15.84s9.12,12.53,18,11.26c2.48-.35,4.76-1.18,6.74-2.33l9.66,4.97-5.86-7.96Z"/></g><g class="cls-3_social-media-51"><rect class="cls-7_social-media-51" x="136.41" y="379.19" width="273.5" height="71.48" transform="translate(-55.8 42.68) rotate(-8.11)"/></g><path class="cls-2_social-media-51" d="m70.81,218.68c-2.91-4.96-2.88-11.28.54-15.9,2-2.7,4.84-4.38,8.74-2.22,8.77,4.87,7.03,45.92-9.28,18.12Z"/><g class="cls-4_social-media-51"><circle class="cls-7_social-media-51" cx="354.53" cy="330.18" r="5.74"/></g><g class="cls-4_social-media-51"><circle class="cls-7_social-media-51" cx="372.04" cy="327.69" r="5.74"/></g><g class="cls-4_social-media-51"><circle class="cls-7_social-media-51" cx="390.03" cy="325.13" r="5.74"/></g><path class="cls-13_social-media-51 targetColor" d="m228.36,175.31s-.74-15.07,17.66-16.73c18.4-1.66,36.78-3.08,39.62,16.53,0,0-17.62,9.73-57.28.2Z" style="fill: rgb(104, 225, 253);"/><g class="cls-3_social-media-51"><path class="cls-1_social-media-51" d="m228.36,175.31s-.74-15.07,17.66-16.73c18.4-1.66,36.78-3.08,39.62,16.53,0,0-17.62,9.73-57.28.2Z"/></g></g></svg>