<?xml version="1.0"?><svg viewBox="0 0 64 64" xmlns="http://www.w3.org/2000/svg"><title/><g data-name="14-Fever meter" id="_14-Fever_meter"><path d="M62.182,1.818a2.8,2.8,0,0,1,0,3.96l-3.3,3.3-3.96-3.96,3.3-3.3A2.8,2.8,0,0,1,62.182,1.818Z" style="fill:#055d8d"/><path d="M15.3,60.592l-1.32,1.32a3.748,3.748,0,0,1-5.281,0L2.088,55.3a3.748,3.748,0,0,1,0-5.281l1.32-1.32Z" style="fill:#34c1ad"/><rect height="6.265" rx="1.047" style="fill:#34c1ad" transform="translate(-29.256 25.372) rotate(-45)" width="6.265" x="12.866" y="44.869"/><rect height="6.308" rx="1.054" style="fill:#34c1ad" transform="translate(-18.255 29.929) rotate(-45)" width="14.723" x="19.638" y="33.846"/><path d="M58.882,9.078l-8.421,8.431a18.47,18.47,0,0,0-3.5,4.85L41.071,34.14a9.343,9.343,0,0,1-1.75,2.43L15.3,60.592,3.408,48.7,27.43,24.679a9.343,9.343,0,0,1,2.43-1.75l11.781-5.89a18.47,18.47,0,0,0,4.85-3.5l8.431-8.421ZM33.69,34.77a1.056,1.056,0,0,0,0-1.49l-2.97-2.97a1.056,1.056,0,0,0-1.49,0l-8.921,8.921a1.056,1.056,0,0,0,0,1.49l2.97,2.97a1.056,1.056,0,0,0,1.49,0Zm-14,13.971a1.044,1.044,0,0,0,0-1.48l-2.95-2.95a1.044,1.044,0,0,0-1.48,0l-2.951,2.95a1.044,1.044,0,0,0,0,1.48l2.951,2.951a1.044,1.044,0,0,0,1.48,0Z" style="fill:#f5f5f5"/><path d="M62.182,1.818c-.021-.022-.046-.036-.068-.056a1.986,1.986,0,0,1-.608,1.649L57.242,7.438l1.64,1.64,3.3-3.3A2.8,2.8,0,0,0,62.182,1.818Z" style="fill:#072c58"/><path d="M11.412,57.641a2,2,0,0,1-2.8-.027l-6.2-6.2a1.992,1.992,0,0,1-.557-1.108A3.736,3.736,0,0,0,2.088,55.3l6.61,6.61a3.748,3.748,0,0,0,5.281,0l1.32-1.32-3.411-3.41Z" style="fill:#21abab"/><path d="M45.217,18.8a1.981,1.981,0,0,0-.363.462L37.143,32.751a2.023,2.023,0,0,1-.349.448L11.888,57.182l3.411,3.41L39.321,36.57a9.343,9.343,0,0,0,1.75-2.43l5.89-11.781a18.451,18.451,0,0,1,3.5-4.85l8.42-8.431-1.64-1.64Z" style="fill:#e3e3e3"/><path d="M15.259,51.692a1.044,1.044,0,0,0,1.48,0l2.95-2.951a1.044,1.044,0,0,0,0-1.48l-1.475-1.475-4.43,4.43Z" style="fill:#21abab"/><path d="M32.205,31.8,21.794,42.206l1.485,1.485a1.056,1.056,0,0,0,1.49,0L33.69,34.77a1.056,1.056,0,0,0,0-1.49Z" style="fill:#21abab"/><line style="fill:none;stroke:#000;stroke-linejoin:round;stroke-width:2px" x1="11" x2="9" y1="41.115" y2="43.115"/><path d="M55.962,12l2.916-2.916L54.916,5.122,46.5,13.543a18.656,18.656,0,0,1-4.854,3.5l-11.78,5.89a9.341,9.341,0,0,0-2.427,1.749L13,39.115" style="fill:none;stroke:#000;stroke-linejoin:round;stroke-width:2px"/><path d="M7.115,45,2.094,50.021a3.734,3.734,0,0,0,0,5.282l6.6,6.6a3.734,3.734,0,0,0,5.282,0l25.34-25.34a9.341,9.341,0,0,0,1.749-2.427l5.89-11.78a18.656,18.656,0,0,1,3.5-4.854L54,13.962" style="fill:none;stroke:#000;stroke-linejoin:round;stroke-width:2px"/><path d="M62.18,1.82h0a2.8,2.8,0,0,0-3.962,0l-3.3,3.3,3.962,3.962,3.3-3.3A2.8,2.8,0,0,0,62.18,1.82Z" style="fill:none;stroke:#000;stroke-linejoin:round;stroke-width:2px"/><rect height="6.269" rx="1.045" style="fill:none;stroke:#000;stroke-linejoin:round;stroke-width:2px" transform="translate(-29.255 25.373) rotate(-45)" width="6.269" x="12.866" y="44.866"/><rect height="6.309" rx="1.052" style="fill:none;stroke:#000;stroke-linejoin:round;stroke-width:2px" transform="translate(-18.255 29.929) rotate(-45)" width="14.722" x="19.639" y="33.845"/><line style="fill:none;stroke:#000;stroke-linejoin:round;stroke-width:2px" x1="15.3" x2="3.415" y1="60.585" y2="48.7"/></g></svg>