<svg version="1.1" id="Layer_1" xmlns="http://www.w3.org/2000/svg" xmlns:xlink="http://www.w3.org/1999/xlink" x="0px" y="0px" viewBox="0 0 500 500" style="width: 188px;" xml:space="preserve" data-imageid="team-presentation-4-68" imageName="Team Presentation 4" class="illustrations_image">
<style type="text/css">
	.st0_team-presentation-4-68{fill:#68E1FD;}
	.st1_team-presentation-4-68{fill:#231F20;}
	.st2_team-presentation-4-68{fill:#FFFFFF;}
	.st3_team-presentation-4-68{fill:#D1D3D4;}
</style>
<g id="Character_Female_hand_and_lower_body_team-presentation-4-68">
	<path class="st0_team-presentation-4-68 targetColor" d="M418.6,209.2c0,0-37.8,31.8-72.3,21.8l-3.7,23.4c0,0,48,18.7,68.3,3.5S418.6,209.2,418.6,209.2z" style="fill: rgb(104, 225, 253);"/>
	<polygon class="st1_team-presentation-4-68" points="391.8,312.6 382.3,347.3 478,347.3 481.9,316.7 &#9;"/>
</g>
<g id="Character_Male_team-presentation-4-68">
	<path class="st0_team-presentation-4-68 targetColor" d="M124.8,201.8c0,0-60.4-3.4-86.4,14.4c-38.5,26.2-21.7,53.2-21.7,53.2l7.4,13.8l6.5,60.7h106.1l-8.9-79.5&#10;&#9;&#9;c0,0,16.1,33.9,27.9,33.6s29.3-19,14.5-42.7S124.8,201.8,124.8,201.8z" style="fill: rgb(104, 225, 253);"/>
	<path class="st1_team-presentation-4-68" d="M64.1,221c1.3,3.3,4.9,123.6,6,122.9h36.5l-9.3-121.8L64.1,221z"/>
	<path class="st2_team-presentation-4-68" d="M58.7,146.6c3.1-0.7,6.7,0.1,8.4,2.8c-0.4-2.6,1-5.2,3.1-6.7c2.2-1.5,4.6-2.4,7.2-2.9c3.5-1,7.2-1.3,10.8-0.9&#10;&#9;&#9;c9.4,1.3,16.2,9.6,20.3,18.1c2.2,4.6,4.3,11,2,15.9c-2.1,4.6-9.4,8.6-13.6,11.2c-5.9,3.8-12.5,6.8-19.5,7.4&#10;&#9;&#9;c-18.6,1.6-30.9-15.8-27.6-33.2c0.8-4.1,2.7-8.2,6.2-10.4C56.8,147.2,57.7,146.8,58.7,146.6z"/>
	<path class="st1_team-presentation-4-68" d="M75.1,192.2c-7.3,0-14.2-3-19-8.4c-6.2-7-8.8-16.5-7-25.7c0.9-5,3.2-8.8,6.5-10.9c0.9-0.6,1.9-1,3-1.2l0,0&#10;&#9;&#9;c2.7-0.7,5.6-0.1,7.9,1.6c0.4-2.2,1.6-4.2,3.4-5.5c2.3-1.5,4.8-2.5,7.5-3c3.6-1,7.4-1.3,11.1-0.9c8.2,1.1,15.8,7.9,20.8,18.5&#10;&#9;&#9;c2.2,4.7,4.4,11.4,2,16.5c-1.9,4.1-7.8,7.7-12,10.3l-1.8,1.1c-7.2,4.5-13.6,7-19.8,7.5C76.7,192.2,75.9,192.2,75.1,192.2z&#10;&#9;&#9; M58.8,147.3c-0.9,0.2-1.7,0.5-2.5,1c-3.9,2.5-5.3,7.3-5.8,10c-1.7,8.8,0.7,17.8,6.6,24.5c5.1,5.7,12.6,8.6,20.2,7.9&#10;&#9;&#9;c6-0.5,12.2-2.9,19.2-7.3l1.9-1.2c4.1-2.5,9.8-6,11.5-9.7c2.1-4.6,0.1-10.9-2-15.3c-2.3-4.8-8.8-16.2-19.8-17.7&#10;&#9;&#9;c-3.6-0.3-7.1,0-10.6,0.9c-2.5,0.4-4.8,1.4-6.9,2.8c-2,1.4-3.1,3.7-2.9,6.1c0,0.3-0.1,0.6-0.4,0.8c-0.3,0.1-0.7,0-0.8-0.3&#10;&#9;&#9;C64.8,147.1,61.4,146.6,58.8,147.3L58.8,147.3z"/>
	<path class="st2_team-presentation-4-68" d="M95.5,205.6l1.8,16.5c0,0-5.6,15.2-18.3,11.9s-14.8-13-14.8-13l-1.8-37.7c0,0,9.6-5,7-25.6&#10;&#9;&#9;c10.4,4.6,21.9,6.4,33.2,5c0,0,5.5,22.4,3.9,32.3C105.7,200.7,101.1,205,95.5,205.6z"/>
	<path class="st1_team-presentation-4-68" d="M82.4,235.2c-1.2,0-2.5-0.2-3.7-0.5c-13-3.3-15.2-13.2-15.3-13.6l-1.8-37.8c0-0.3,0.1-0.5,0.4-0.7&#10;&#9;&#9;c0.1,0,9.1-5.1,6.6-24.9c0-0.4,0.2-0.7,0.6-0.8c0.1,0,0.3,0,0.4,0.1c10.3,4.6,21.6,6.3,32.8,5c0.4,0,0.7,0.2,0.8,0.5&#10;&#9;&#9;c0.2,0.9,5.6,22.7,3.9,32.6c-0.8,5.6-5.2,10.1-10.8,10.9L98,222c0,0.1,0,0.2,0,0.3C97.9,222.5,93.1,235.2,82.4,235.2z M63,183.7&#10;&#9;&#9;l1.8,37.3c0.1,0.3,2.1,9.3,14.3,12.4c11.4,2.9,16.8-9.9,17.5-11.4l-1.7-16.4c0-0.4,0.2-0.7,0.6-0.8c0,0,0,0,0,0&#10;&#9;&#9;c5.3-0.5,9.6-4.6,10.3-9.9c1.5-8.8-2.9-27.9-3.7-31.5c-10.8,1.1-21.8-0.5-31.9-4.6C72,176.7,64.8,182.5,63,183.7z"/>
	<path class="st2_team-presentation-4-68" d="M69,192.3c-2.5,1.1-5.3,1.1-7.8,0.1c-3.6-1.5-5.8-4.9-6.4-8.6c-0.3-1.4-0.3-2.8,0.1-4.1&#10;&#9;&#9;c0.3-1.4,1.3-2.5,2.5-3.1c1.5-0.7,3.3-0.3,4.9,0c2.4,0.6,2.8,1.8,4.4,3.3c-0.2-0.1-0.4-0.6-0.6-0.7"/>
	<path class="st1_team-presentation-4-68" d="M65,193.8c-1.4,0-2.8-0.3-4.1-0.8c-3.6-1.5-6.1-4.8-6.8-9.1c-0.3-1.5-0.3-3,0.1-4.4c0.4-1.6,1.5-2.9,2.9-3.6&#10;&#9;&#9;c1.8-0.8,3.9-0.3,5.4,0c1.4,0.3,2.7,1.1,3.6,2.3l0.3,0.3c0.1,0,0.2,0.1,0.3,0.1c0.2,0.1,0.3,0.3,0.4,0.5l0.1,0.2l0,0&#10;&#9;&#9;c0.3,0.3,0.3,0.7,0.1,1c-0.2,0.3-0.7,0.4-1,0.1c0,0,0,0,0,0c0,0-0.1-0.1-0.1-0.1c-0.4-0.4-0.8-0.8-1.1-1.2&#10;&#9;&#9;c-0.7-0.9-1.7-1.6-2.9-1.8c-1.7-0.4-3.2-0.7-4.5-0.1c-1.1,0.5-1.9,1.5-2.1,2.7c-0.3,1.3-0.3,2.6-0.1,3.8c0.7,3.9,2.9,6.8,6,8.1&#10;&#9;&#9;c2.3,0.9,5,0.9,7.3-0.1c0.3-0.2,0.8,0,0.9,0.3c0,0,0,0,0,0c0.2,0.4,0,0.8-0.4,0.9C67.9,193.5,66.5,193.8,65,193.8z"/>
	<path class="st1_team-presentation-4-68" d="M96.1,215.9c-4.5,0.8-9.1-0.6-12.3-3.9c-5.6-5.5-5.1-10.1-5.1-10.1s8.4,5.1,16.8,3.6L96.1,215.9z"/>
	<path class="st1_team-presentation-4-68" d="M93.6,216.9c-3.9,0-7.6-1.5-10.3-4.3c-5.8-5.7-5.3-10.4-5.3-10.6c0-0.2,0.2-0.4,0.4-0.6c0.2-0.1,0.5-0.1,0.7,0&#10;&#9;&#9;c0.1,0.1,8.3,5,16.3,3.5c0.2,0,0.4,0,0.6,0.1c0.2,0.1,0.3,0.3,0.3,0.5l0.5,10.4c0,0.3-0.2,0.6-0.5,0.7&#10;&#9;&#9;C95.4,216.8,94.5,216.9,93.6,216.9z M79.4,203.2c0.2,1.6,1.2,4.8,4.8,8.4c2.9,2.9,7,4.3,11.1,3.8l-0.5-9&#10;&#9;&#9;C88.3,207.3,82,204.5,79.4,203.2z"/>
	<path class="st2_team-presentation-4-68" d="M87.8,175.2c0,0,6.9,9.9,5.4,11.6s-6,0.7-6,0.7"/>
	<path class="st1_team-presentation-4-68" d="M89.9,188.5c-1,0-1.9-0.1-2.9-0.3c-0.4-0.1-0.6-0.5-0.5-0.9c0.1-0.3,0.4-0.5,0.8-0.5c1.1,0.2,4.3,0.7,5.4-0.5&#10;&#9;&#9;c0.6-0.7-2-5.9-5.4-10.8c-0.2-0.3-0.2-0.7,0.1-1c0,0,0,0,0,0c0.3-0.2,0.8-0.2,1,0.2c0,0,0,0,0,0c2.2,3.1,7.1,10.5,5.3,12.5&#10;&#9;&#9;C92.7,188.2,91.3,188.7,89.9,188.5z"/>
	
		<ellipse transform="matrix(6.174537e-02 -0.9981 0.9981 6.174537e-02 -99.5252 243.3982)" class="st1_team-presentation-4-68" cx="79.7" cy="174.6" rx="2.3" ry="1.7"/>
	<ellipse transform="matrix(0.972 -0.235 0.235 0.972 -38.3001 27.2957)" class="st1_team-presentation-4-68" cx="95.4" cy="174.4" rx="1.7" ry="2.3"/>
	<path class="st1_team-presentation-4-68" d="M91.4,202.1h-0.2c-2.9-0.1-5.6-1.6-7.3-4c-1.4-1.9-2.3-4.1-2.6-6.4l0,0c0-0.2,0-0.4,0.2-0.6&#10;&#9;&#9;c0.3-0.3,0.4-0.4,15.5-1c0.3,0,0.6,0.2,0.7,0.6c0,0.2,1.2,6-1.6,9.4C94.9,201.4,93.1,202.2,91.4,202.1z M82.8,192.2&#10;&#9;&#9;c0.4,1.8,1.1,3.6,2.2,5.1c1.4,2,3.7,3.3,6.2,3.4c1.4,0.1,2.8-0.4,3.8-1.4c2-2.4,1.6-6.2,1.4-7.7C91.7,191.8,84.9,192,82.8,192.2z"/>
	<path class="st1_team-presentation-4-68" d="M84.4,197.7c3.4,4.6,9.1,4.4,11.1,2c-1.1-1.8-2.6-3.6-4.7-3.8C88.5,195.7,86.3,196.4,84.4,197.7z"/>
	<path class="st1_team-presentation-4-68" d="M91.4,202.1h-0.2c-2.9-0.1-5.6-1.6-7.3-4c-0.1-0.2-0.2-0.3-0.1-0.5c0-0.2,0.1-0.4,0.3-0.5&#10;&#9;&#9;c2-1.4,4.4-2.1,6.8-1.9c2,0.2,3.8,1.6,5.2,4.2c0.2,0.3,0.1,0.6-0.1,0.8C94.8,201.5,93.1,202.2,91.4,202.1z M85.5,197.9&#10;&#9;&#9;c1.4,1.7,3.5,2.7,5.7,2.8c1.2,0.1,2.5-0.3,3.4-1c-1.2-1.9-2.5-2.9-3.9-3.1C88.9,196.5,87,196.9,85.5,197.9z"/>
	<path class="st1_team-presentation-4-68" d="M129.8,304.4c-0.4,0-0.7-0.3-0.7-0.7l-4.8-73c0-0.4,0.3-0.7,0.7-0.8s0.7,0.3,0.8,0.7l4.8,73&#10;&#9;&#9;C130.5,304,130.2,304.4,129.8,304.4C129.8,304.4,129.8,304.4,129.8,304.4L129.8,304.4z"/>
</g>
<g id="Chartboard_team-presentation-4-68">
	<rect x="113" y="137.5" class="st2_team-presentation-4-68" width="279.4" height="225.1"/>
	<path class="st1_team-presentation-4-68" d="M392.4,363.2H113c-0.3,0-0.6-0.3-0.6-0.6c0,0,0,0,0,0V137.5c0-0.3,0.3-0.6,0.6-0.6c0,0,0,0,0,0h279.4&#10;&#9;&#9;c0.4,0,0.6,0.3,0.6,0.6v0v225.1C393,362.9,392.7,363.2,392.4,363.2z M113.6,361.9h278.1V138.1H113.6V361.9z"/>
</g>
<g id="LIne_of_Text_team-presentation-4-68">
	<path class="st3_team-presentation-4-68" d="M351,175.9h-40c-0.4,0-0.7-0.3-0.7-0.7c0-0.4,0.3-0.7,0.7-0.7h40c0.4,0,0.7,0.3,0.7,0.7S351.4,175.9,351,175.9&#10;&#9;&#9;C351,175.9,351,175.9,351,175.9z"/>
	<path class="st3_team-presentation-4-68" d="M351,184.7h-40c-0.4,0-0.7-0.3-0.7-0.7c0-0.4,0.3-0.7,0.7-0.7h40c0.4,0,0.7,0.3,0.7,0.7S351.4,184.7,351,184.7&#10;&#9;&#9;C351,184.7,351,184.7,351,184.7z"/>
	<path class="st3_team-presentation-4-68" d="M337.1,193.5H311c-0.4,0-0.7-0.3-0.7-0.7c0-0.4,0.3-0.7,0.7-0.7h26c0.4,0,0.7,0.3,0.7,0.7&#10;&#9;&#9;S337.4,193.5,337.1,193.5C337,193.5,337,193.5,337.1,193.5L337.1,193.5z"/>
	<path class="st3_team-presentation-4-68" d="M195.7,156.1h-39.9c-0.4,0-0.7-0.3-0.7-0.7s0.3-0.7,0.7-0.7c0,0,0,0,0,0h39.9c0.4,0,0.7,0.3,0.7,0.7&#10;&#9;&#9;C196.4,155.9,196.1,156.1,195.7,156.1z"/>
	<path class="st3_team-presentation-4-68" d="M181.9,165h-26c-0.4,0-0.7-0.3-0.7-0.7s0.3-0.7,0.7-0.7c0,0,0,0,0,0h26c0.4,0,0.7,0.3,0.7,0.7&#10;&#9;&#9;C182.5,164.7,182.2,165,181.9,165z"/>
</g>
<g id="Chart_team-presentation-4-68">
	<path class="st3_team-presentation-4-68" d="M177.4,327.7h-23.6c-0.4,0-0.7-0.3-0.7-0.7l0,0V214.5c0-0.4,0.3-0.7,0.7-0.7h23.6c0.4,0,0.7,0.3,0.7,0.7V327&#10;&#9;&#9;C178.1,327.4,177.8,327.7,177.4,327.7z M154.5,326.3h22.2V215.2h-22.2V326.3z"/>
	<path class="st3_team-presentation-4-68" d="M220.9,327.7h-23.6c-0.4,0-0.7-0.3-0.7-0.7l0,0v-66c0-0.4,0.3-0.7,0.7-0.7h23.6c0.4,0,0.7,0.3,0.7,0.7v66&#10;&#9;&#9;C221.6,327.4,221.3,327.7,220.9,327.7z M198,326.3h22.2v-64.6H198V326.3z"/>
	<path class="st3_team-presentation-4-68" d="M264.5,327.7h-23.6c-0.4,0-0.7-0.3-0.7-0.7c0,0,0,0,0,0v-96.3c0-0.4,0.3-0.7,0.6-0.7c0,0,0,0,0,0h23.6&#10;&#9;&#9;c0.4,0,0.7,0.3,0.7,0.7v0V327C265.1,327.4,264.8,327.7,264.5,327.7z M241.5,326.3h22.3v-94.9h-22.3L241.5,326.3z"/>
	<path class="st3_team-presentation-4-68" d="M308,327.7h-23.6c-0.4,0-0.7-0.3-0.7-0.7v0v-41.3c0-0.4,0.3-0.7,0.7-0.7h0H308c0.4,0,0.7,0.3,0.7,0.7v0V327&#10;&#9;&#9;C308.7,327.4,308.4,327.7,308,327.7z M285.1,326.3h22.2v-40h-22.3L285.1,326.3z"/>
	<path class="st3_team-presentation-4-68" d="M351.5,327.7h-23.6c-0.4,0-0.7-0.3-0.7-0.7v0v-96.3c0-0.4,0.3-0.7,0.7-0.7l0,0h23.6c0.4,0,0.7,0.3,0.7,0.7v0&#10;&#9;&#9;V327C352.2,327.4,351.9,327.7,351.5,327.7z M328.6,326.3h22.2v-94.9h-22.2V326.3z"/>
	<path class="st3_team-presentation-4-68" d="M299.1,245.7c-12.3,0-23.1-13.9-31.9-25.1c-6.2-7.9-11.5-14.8-15.5-14.6c-4.3,0.1-10,3.4-16.1,7&#10;&#9;&#9;c-8.1,4.7-17.2,9.9-25.7,9.5c-15.9-0.9-46.2-36.4-47.5-37.9c-0.2-0.3-0.2-0.7,0.1-0.9c0.3-0.2,0.7-0.2,0.9,0.1c0,0,0,0,0,0&#10;&#9;&#9;c0.3,0.4,31.2,36.6,46.5,37.5c8.1,0.5,17.1-4.7,25-9.3c6.2-3.6,12.1-7,16.7-7.1s9.9,6.6,16.6,15.1c8.8,11.2,19.6,25.2,31.5,24.6&#10;&#9;&#9;c10.4-0.5,15.3-9.4,20.5-18.9c4.8-8.8,9.8-17.8,19.6-19.7c0.4-0.1,0.7,0.2,0.8,0.5s-0.2,0.7-0.5,0.8l0,0c-9.2,1.7-14,10.5-18.6,19&#10;&#9;&#9;c-5.1,9.4-10.4,19-21.6,19.6L299.1,245.7z"/>
	<path class="st3_team-presentation-4-68" d="M371.7,327.7H134.8c-0.4,0-0.7-0.3-0.7-0.7c0-0.4,0.3-0.7,0.7-0.7h236.9c0.4,0,0.7,0.3,0.7,0.7&#10;&#9;&#9;C372.4,327.4,372.1,327.7,371.7,327.7z"/>
	<path class="st3_team-presentation-4-68" d="M163.6,188.5c-2.5,0-4.6-2.1-4.6-4.6s2.1-4.6,4.6-4.6s4.6,2.1,4.6,4.6C168.2,186.4,166.1,188.5,163.6,188.5z&#10;&#9;&#9; M163.6,180.6c-1.8,0-3.3,1.5-3.3,3.3s1.5,3.3,3.3,3.3c1.8,0,3.3-1.5,3.3-3.3c0,0,0,0,0,0C166.9,182.1,165.4,180.6,163.6,180.6z"/>
	<path class="st3_team-presentation-4-68" d="M340,211.1c-2.5,0-4.6-2.1-4.6-4.6s2.1-4.6,4.6-4.6c2.5,0,4.6,2.1,4.6,4.6v0C344.6,209,342.5,211.1,340,211.1z&#10;&#9;&#9; M340,203.2c-1.8,0-3.3,1.5-3.3,3.3s1.5,3.3,3.3,3.3c1.8,0,3.3-1.5,3.3-3.3l0,0C343.3,204.7,341.8,203.2,340,203.2z"/>
</g>
<g id="Character_Male_right_hand_team-presentation-4-68">
	<path class="st2_team-presentation-4-68" d="M24.1,283.1c0,0,48.2,55.4,78.2,41.7c0.7-0.3,1.5-0.7,2.2-1.1c17.8-9.1,48.3-43.2,54.1-49.8&#10;&#9;&#9;c5.1-5.8,13-11.2,12.9-19.6c-0.1-5-2.6-9.5-6.8-12.3c1.6-2.3,7.5-11.1,7.8-12.7c0.4-2-1.1-2.6-3.1-2.1&#10;&#9;&#9;c-2.5,0.6-16.7,20.4-20.2,24.5c0.6-1.5,1.6-13.3-2.1-12.9c-4,0.4-3.4,15.1-9.4,20.7s-35.8,30.4-43,30s-39.1-34.7-39.1-34.7"/>
	<path class="st1_team-presentation-4-68" d="M91.7,327.7c-11.1,0-24.5-6-40.1-18c-10.1-7.9-19.4-16.6-28-26.1c-0.3-0.3-0.3-0.7,0-1s0.7-0.3,1,0&#10;&#9;&#9;c0,0,0,0.1,0.1,0.1c0.5,0.5,48.3,54.9,77.4,41.5c0.7-0.3,1.4-0.7,2.2-1c19-9.7,52.5-48,53.9-49.7c1.2-1.4,2.5-2.7,3.9-4&#10;&#9;&#9;c4.4-4.4,8.9-8.9,8.8-15.1c-0.1-4.7-2.5-9.1-6.4-11.8c-0.2-0.1-0.3-0.3-0.3-0.4c0-0.2,0-0.4,0.1-0.5c2.6-3.7,7.4-11.2,7.7-12.5&#10;&#9;&#9;c0.1-0.4,0.1-0.8-0.1-1.1c-0.6-0.4-1.4-0.4-2.1-0.1c-1.5,0.4-9.3,10.7-14,16.8c-2.5,3.3-4.7,6.2-5.8,7.5c-0.3,0.3-0.7,0.3-1,0.1&#10;&#9;&#9;c-0.2-0.2-0.3-0.5-0.2-0.8c0.5-1.2,1.1-9.2-0.6-11.5c-0.2-0.3-0.5-0.5-0.9-0.5c-1.4,0.2-2.3,3.8-3.2,7.3&#10;&#9;&#9;c-1.2,4.8-2.5,10.1-5.8,13.2c-5.6,5.2-35.4,30.2-43.3,30.2h-0.2c-7.4-0.4-38.2-33.5-39.6-34.9c-0.3-0.3-0.3-0.7,0-1c0,0,0,0,0,0&#10;&#9;&#9;c0.3-0.3,0.7-0.3,1,0c0,0,0,0,0,0c8.8,9.5,33,34.2,38.6,34.5c6.7,0.4,36-23.8,42.4-29.9c3-2.8,4.2-7.9,5.4-12.5s2-8.1,4.4-8.4&#10;&#9;&#9;c0.9-0.1,1.7,0.3,2.2,1c1.5,2,1.5,6.9,1.2,10.1c1.1-1.4,2.6-3.3,4.1-5.4c8.7-11.4,13.1-16.9,14.8-17.3s2.7-0.2,3.4,0.5&#10;&#9;&#9;c0.6,0.6,0.8,1.6,0.5,2.4c-0.4,1.8-6,10.1-7.5,12.4c4,2.9,6.4,7.6,6.5,12.5c0.1,6.8-4.7,11.5-9.3,16.1c-1.4,1.4-2.6,2.6-3.8,4&#10;&#9;&#9;c-1.4,1.6-35,40.2-54.3,50c-0.7,0.4-1.5,0.7-2.2,1.1C99.1,327,95.4,327.8,91.7,327.7z"/>
</g>
<g id="Character_Female_team-presentation-4-68">
	<path class="st2_team-presentation-4-68" d="M400.7,202.8l3-16.3c3.2-17.6,8-36,26.6-42.6c5.5-2,11.3-1.7,15.4,3.1c3.6-3.5,9.8-2.1,13.9,0.6&#10;&#9;&#9;c5.8,3.9,9.8,9.9,12.6,16.2c5,11.2,6.6,23.5,12.1,34.7c-23.1,19.5-57.5,24.3-85,11.8L400.7,202.8z"/>
	<path class="st1_team-presentation-4-68" d="M432,218c-11.3,0-22.6-2.4-32.9-7c-0.3-0.1-0.4-0.4-0.4-0.7l4.3-24c3.1-17.3,8.1-36.3,27-43.1&#10;&#9;&#9;c6.4-2.3,11.9-1.2,15.6,2.8c4-3.2,10.1-1.8,14.2,1c5.2,3.5,9.5,9,12.9,16.5c2.2,5.2,4,10.6,5.5,16.1c1.8,6.2,3.7,12.6,6.6,18.6&#10;&#9;&#9;c0.1,0.3,0.1,0.6-0.2,0.8C469.9,211.3,451.3,218,432,218z M400.1,210c27.2,12.1,60.6,7.4,83.5-11.6c-2.9-5.9-4.7-12.2-6.5-18.3&#10;&#9;&#9;c-1.4-5.5-3.3-10.8-5.4-16c-3.2-7.2-7.4-12.6-12.4-16c-3.9-2.6-9.7-4-13.1-0.7c-0.1,0.1-0.3,0.2-0.5,0.2c-0.2,0-0.3-0.1-0.5-0.2&#10;&#9;&#9;c-4.4-5.2-10.4-4.5-14.6-3c-18.4,6.5-23,24.4-26.2,42.1l-3,16.3l0,0L400.1,210z M400.7,202.7L400.7,202.7z"/>
	<path class="st0_team-presentation-4-68 targetColor" d="M418.6,209.2c0,0-10.1,9.2-14.3,32.2c-2.7,14.6-12.5,71.3-12.5,71.3l90.1,4.1c0,0,8.4-52.7,3.6-75.3&#10;&#9;&#9;S468.6,188.7,418.6,209.2z" style="fill: rgb(104, 225, 253);"/>
	<path class="st2_team-presentation-4-68" d="M451.1,203.7l1.2,17.1c0,0-4.6,7.6-15.3,5.3s-11.1-9.2-11.1-9.2l-0.8-29.7c0-1.3,1.6-5.1,0.7-16&#10;&#9;&#9;c12.6-1,22-11.2,22-11.2s4.8,6.2,6.8,8.2c1.6,1.5,3,3.1,4.2,4.9c2,3.2,2.2,7.3,2.3,11c0.2,4.3,0.1,8.7-0.4,13&#10;&#9;&#9;C459.6,205.1,451.1,203.7,451.1,203.7z"/>
	<path class="st1_team-presentation-4-68" d="M440.8,227.2c-1.3,0-2.6-0.1-3.9-0.4c-11-2.3-11.6-9.5-11.6-9.8c-0.8-29.8-0.8-29.8-0.8-29.8&#10;&#9;&#9;c0-0.5,0.1-1,0.2-1.5c0.4-2,1.2-6.2,0.5-14.5c0-0.2,0-0.3,0.1-0.5c0.1-0.1,0.3-0.2,0.4-0.2c12.2-1,21.5-10.9,21.6-11&#10;&#9;&#9;c0.1-0.1,0.3-0.2,0.5-0.2c0.2,0,0.4,0.1,0.5,0.2c0,0.1,4.8,6.2,6.7,8.1c1.7,1.5,3.1,3.2,4.4,5c2.1,3.4,2.3,7.8,2.4,11.3&#10;&#9;&#9;c0.3,4.4,0.1,8.8-0.5,13.1c-0.2,2.3-1.3,4.3-3.1,5.7c-1.9,1.3-4.2,1.9-6.5,1.7l1.2,16.4c0,0.1,0,0.3-0.1,0.4&#10;&#9;&#9;C450.1,225,445.6,227.3,440.8,227.2z M426.5,171.7c0.6,8-0.1,12.2-0.5,14.2c-0.1,0.4-0.2,0.8-0.2,1.2c0,0.2,0.8,29.7,0.8,29.7&#10;&#9;&#9;c0,0.2,0.6,6.5,10.6,8.6c9.2,1.9,13.7-3.8,14.5-4.9l-1.2-16.9c0-0.2,0.1-0.4,0.2-0.5c0.1-0.1,0.3-0.2,0.5-0.1c0,0,3.7,0.6,6.3-1.4&#10;&#9;&#9;c1.5-1.2,2.5-2.9,2.6-4.9c0.5-4.3,0.7-8.6,0.4-12.9c-0.1-3.5-0.3-7.6-2.2-10.6c-1.2-1.8-2.6-3.4-4.2-4.8c-2.3-2.5-4.4-5-6.4-7.7&#10;&#9;&#9;C445.6,163,437.4,170.6,426.5,171.7z"/>
	<path class="st1_team-presentation-4-68" d="M451.5,212.1c0,0-6.9,0.8-11.7-3.6s-4.4-9-4.4-9s7.9,4.6,15.7,4.2L451.5,212.1z"/>
	<path class="st1_team-presentation-4-68" d="M450.2,212.8c-2.3,0-7.1-0.4-10.8-3.8c-4.9-4.5-4.6-9.4-4.6-9.6c0-0.2,0.1-0.4,0.3-0.5c0.2-0.1,0.4-0.1,0.6,0&#10;&#9;&#9;c0.1,0.1,7.8,4.5,15.3,4.1c0.3,0,0.6,0.3,0.6,0.6l0.5,8.4c0,0.3-0.2,0.6-0.5,0.6C451.1,212.7,450.7,212.8,450.2,212.8z&#10;&#9;&#9; M436.1,200.5c0.4,2.9,1.9,5.6,4.2,7.5c3.7,3.4,8.9,3.5,10.6,3.5l-0.4-7.2C444.3,204.4,438.4,201.7,436.1,200.5L436.1,200.5z"/>
	<path class="st2_team-presentation-4-68" d="M443.4,179.5c0,0,6,7.9,4.8,9.4s-5,0.8-5,0.8"/>
	<path class="st1_team-presentation-4-68" d="M445.2,190.4c-0.7,0-1.3-0.1-2-0.2c-0.3-0.1-0.6-0.4-0.5-0.7s0.4-0.6,0.7-0.5l0,0c0.9,0.2,3.5,0.4,4.3-0.6&#10;&#9;&#9;c0.4-0.7-1.8-4.7-4.8-8.6c-0.2-0.3-0.2-0.6,0.1-0.8c0.3-0.2,0.6-0.2,0.9,0.1c0,0,0,0,0,0c1.9,2.5,6.2,8.4,4.8,10.1&#10;&#9;&#9;C447.7,190.1,446.5,190.6,445.2,190.4z"/>
	
		<ellipse transform="matrix(5.982905e-02 -0.9982 0.9982 5.982905e-02 245.6584 615.9824)" class="st1_team-presentation-4-68" cx="449.8" cy="177.6" rx="1.8" ry="0.9"/>
	
		<ellipse transform="matrix(5.989229e-02 -0.9982 0.9982 5.989229e-02 232.2419 598.9846)" class="st1_team-presentation-4-68" cx="434.1" cy="176.2" rx="1.8" ry="1"/>
	<path class="st2_team-presentation-4-68" d="M448.1,193.7l-4.5-0.8c0,0-0.5,6.5,2,6.9S448.1,193.7,448.1,193.7z"/>
	<path class="st1_team-presentation-4-68" d="M445.9,200.4c-0.1,0-0.2,0-0.3,0c-3-0.5-2.6-6.8-2.5-7.5c0-0.2,0.1-0.3,0.2-0.4c0.1-0.1,0.3-0.2,0.5-0.1&#10;&#9;&#9;l4.5,0.8c0.3,0.1,0.5,0.3,0.5,0.6c0,0.5,0,4.8-1.6,6.2C446.8,200.2,446.3,200.4,445.9,200.4z M444.2,193.6c0,2.1,0.2,5.3,1.5,5.5&#10;&#9;&#9;c0.2,0,0.4,0,0.5-0.2c0.8-0.7,1.1-3.1,1.2-4.7L444.2,193.6z"/>
	<path class="st2_team-presentation-4-68" d="M428.5,179.6c-1.4-2.9-5.2-3.8-8.1-3c-1.9,0.4-3.4,2-3.8,4c-0.5,3,0.9,6.5,2.4,9.1c0.6,1.2,1.5,2.2,2.7,2.9&#10;&#9;&#9;c1.2,0.7,2.7,0.4,3.7-0.5"/>
	<path class="st1_team-presentation-4-68" d="M423.3,193.6c-0.6,0-1.3-0.2-1.9-0.4c-1.3-0.7-2.3-1.8-3-3.1c-1.5-2.5-3-6.1-2.5-9.5c0.4-2.2,2-4,4.2-4.5&#10;&#9;&#9;c3.2-0.9,7.4,0.2,8.9,3.4c0.1,0.3,0,0.7-0.3,0.8c0,0,0,0,0,0c-0.3,0.1-0.7,0-0.8-0.3c0,0,0,0,0,0c-1.2-2.6-4.7-3.4-7.4-2.7&#10;&#9;&#9;c-1.7,0.4-3,1.8-3.3,3.5c-0.5,3.2,1.2,6.8,2.3,8.6c0.6,1.1,1.4,2,2.5,2.7c0.9,0.5,2.1,0.4,2.9-0.4c0.2-0.3,0.6-0.3,0.9-0.1&#10;&#9;&#9;c0.3,0.2,0.3,0.6,0.1,0.9l0,0C425.2,193.2,424.3,193.6,423.3,193.6z"/>
	<path class="st1_team-presentation-4-68" d="M454.5,187.4c-5.6-0.2-9.9-4.8-9.7-10.4c0.2-5.6,4.8-9.9,10.4-9.7c5.6,0.2,9.9,4.8,9.7,10.4&#10;&#9;&#9;c-0.2,5.3-4.4,9.6-9.7,9.7C455,187.4,454.8,187.4,454.5,187.4z M454.5,168.4H454c-4.9,0.2-8.7,4.2-8.5,9.1c0.2,4.9,4.2,8.7,9.1,8.5&#10;&#9;&#9;s8.7-4.2,8.5-9.1C462.9,172.3,459.2,168.6,454.5,168.4z"/>
	<path class="st1_team-presentation-4-68" d="M434.9,187c-5.3,0-9.7-4.1-10.1-9.4l0,0c-0.3-5.6,3.9-10.4,9.4-10.7c5.6-0.3,10.4,3.9,10.7,9.4&#10;&#9;&#9;c0.3,5.5-3.9,10.3-9.4,10.7H434.9z M426.1,177.5c0.3,4.9,4.5,8.5,9.4,8.2s8.5-4.5,8.2-9.4c-0.2-2.3-1.2-4.5-3-6&#10;&#9;&#9;c-1.7-1.5-4-2.3-6.4-2.2C429.5,168.4,425.8,172.6,426.1,177.5L426.1,177.5z"/>
	<path class="st2_team-presentation-4-68" d="M366.1,281.3c0,0-14.3-20.8-15-18.1s2.8,10.9,2.8,10.9s-14.3-15.1-17-12.7s-7,9.9-3.6,17.6&#10;&#9;&#9;c0.8,1.7,14.2,16.4,24.6,19.6"/>
	<path class="st1_team-presentation-4-68" d="M357.8,299.1h-0.2c-10.8-3.3-24.2-18.2-25-20c-3.6-8,1-15.8,3.8-18.3c0.7-0.6,3.8-1.6,15.7,10.5&#10;&#9;&#9;c-1-2.7-2.1-6.5-1.7-8.3c0.1-0.4,0.4-0.6,0.7-0.7c1.9-0.4,9.4,9.9,15.4,18.6c0.2,0.3,0.1,0.7-0.2,0.9c0,0,0,0,0,0&#10;&#9;&#9;c-0.3,0.2-0.7,0.1-0.9-0.2c0,0,0,0,0,0c-5.5-8.1-12-16.6-13.9-17.9c-0.2,2.4,1.9,8,2.8,10.1c0.1,0.3,0,0.7-0.3,0.8&#10;&#9;&#9;c-0.3,0.1-0.6,0.1-0.7-0.2c-6.7-7.1-14.8-13.9-16.1-12.7c-2.5,2.2-6.7,9.5-3.4,16.8c0.7,1.6,13.9,16.1,24.2,19.2&#10;&#9;&#9;c0.3,0.1,0.5,0.5,0.4,0.8C358.3,298.9,358.1,299.1,357.8,299.1z"/>
	<path class="st0_team-presentation-4-68 targetColor" d="M457,236.2c0,0-38.2,50.1-45.7,52c-16.5,4.3-48.3-16.4-48.3-16.4s-15.5,24.6-15.2,24.7&#10;&#9;&#9;c7.3,4.2,55.6,30.9,81.6,20.2s47.8-61.9,47.8-61.9" style="fill: rgb(104, 225, 253);"/>
	<path class="st1_team-presentation-4-68" d="M413.2,289.9c-15.9,0-35.9-9.3-36.1-9.4c-0.3-0.2-0.5-0.5-0.3-0.9c0.2-0.3,0.5-0.5,0.9-0.3l0,0&#10;&#9;&#9;c0.2,0.1,19.9,9.3,35.5,9.3c3.1,0,9.6-3.9,22.9-22.7c8-11.4,14.8-22.9,14.9-23c0.2-0.3,0.6-0.3,0.9-0.1c0.2,0.2,0.3,0.5,0.2,0.8&#10;&#9;&#9;C451,245.4,424.8,289.9,413.2,289.9z"/>
	<path class="st1_team-presentation-4-68" d="M397.9,278.2h-0.1c-0.3-0.1-0.6-0.4-0.5-0.8l12-51.4c0.1-0.3,0.4-0.6,0.8-0.5c0.3,0.1,0.6,0.4,0.5,0.8&#10;&#9;&#9;l-12,51.4C398.4,278,398.2,278.2,397.9,278.2z"/>
	<path class="st1_team-presentation-4-68" d="M434.9,313.3c-0.2,0-0.4-0.1-0.5-0.2c-0.2-0.3-0.2-0.7,0.1-0.9c0.2-0.2,25.1-21,39.1-51.4&#10;&#9;&#9;c0.1-0.3,0.5-0.5,0.8-0.4c0.3,0.1,0.5,0.5,0.4,0.8c0,0,0,0.1,0,0.1c-14.1,30.7-39.2,51.6-39.5,51.8&#10;&#9;&#9;C435.2,313.2,435.1,313.3,434.9,313.3z"/>
</g>
</svg>