<svg version="1.1" id="Layer_1" xmlns="http://www.w3.org/2000/svg" xmlns:xlink="http://www.w3.org/1999/xlink" x="0px" y="0px" viewBox="0 0 500 500" style="width: 188px;" xml:space="preserve" data-imageid="team-work-1-75" imageName="Team Work 1" class="illustrations_image">
<style type="text/css">
	.st0_team-work-1-75{fill:#093F68;}
	.st1_team-work-1-75{fill:#FFFFFF;}
	.st2_team-work-1-75{fill:#FFBC0E;}
	.st3_team-work-1-75{fill:#DFEAEF;}
	.st4_team-work-1-75{fill:#725858;}
	.st5_team-work-1-75{fill:#68E1FD;}
	.st6_team-work-1-75{fill:#FFC9B0;}
</style>
<g id="light_team-work-1-75">
	<path class="st0_team-work-1-75" d="M211.6,299.8h67l0,0V318c0,6.8-5.5,12.4-12.4,12.4h0H224c-6.8,0-12.4-5.6-12.4-12.4V299.8L211.6,299.8z"/>
	<path class="st0_team-work-1-75" d="M255.6,332.3h-20.9c-13.8,0-24.9-11.2-24.9-25v-7.5c0-1,0.8-1.9,1.9-1.9h67c1,0,1.9,0.8,1.9,1.9v7.5&#10;&#9;&#9;C280.5,321.1,269.3,332.2,255.6,332.3z M213.5,301.7v5.6c0,11.7,9.5,21.2,21.2,21.2h20.9c11.7,0,21.2-9.5,21.2-21.2v-5.6H213.5z"/>
	<path class="st1_team-work-1-75" d="M316.5,170.6c0-38.9-31.5-70.4-70.4-70.4s-70.4,31.5-70.4,70.4c0,15.3,5,30.3,14.3,42.5&#10;&#9;&#9;c13.6,17.9,21,39.8,21,62.4h70.1c0-22.2,6.8-44.1,20.5-61.6C311.2,201.4,316.5,186.2,316.5,170.6z"/>
	<path class="st0_team-work-1-75" d="M281.1,277.3H211c-1,0-1.9-0.8-1.9-1.9c-0.1-22.1-7.3-43.6-20.7-61.2c-24.1-31.8-17.8-77.1,14-101.2&#10;&#9;&#9;s77.1-17.8,101.2,14c9.5,12.5,14.6,27.8,14.6,43.6c0.1,16.1-5.3,31.7-15.2,44.3c-13,16.6-20.1,38.1-20.1,60.5&#10;&#9;&#9;C283,276.5,282.2,277.3,281.1,277.3z M212.9,273.6h66.4c0.4-22.6,7.8-44.1,20.9-60.9c9.4-12,14.5-26.8,14.4-42&#10;&#9;&#9;c0-19-7.9-37.1-21.8-50.1c-27.7-25.8-71-24.3-96.8,3.4c-22.7,24.3-24.6,61.5-4.5,88C204.9,229.7,212.4,251.3,212.9,273.6&#10;&#9;&#9;L212.9,273.6z"/>
	<path class="st2_team-work-1-75" d="M206.9,295h76.5c2.4,0,4.4,2,4.4,4.4v10.7c0,2.4-2,4.4-4.4,4.4h-76.5c-2.4,0-4.4-2-4.4-4.4v-10.7&#10;&#9;&#9;C202.6,296.9,204.5,295,206.9,295z"/>
	<path class="st0_team-work-1-75" d="M279.6,316.3h-68.9c-5.5,0-10-4.5-10-10v-3.2c0-5.5,4.5-10,10-10h68.9c5.5,0,10,4.5,10,10v3.2&#10;&#9;&#9;C289.6,311.8,285.1,316.3,279.6,316.3z M210.7,296.8c-3.5,0-6.3,2.8-6.3,6.3v3.2c0,3.5,2.8,6.3,6.3,6.3h68.9c3.5,0,6.3-2.8,6.3-6.3&#10;&#9;&#9;v-3.2c0-3.5-2.8-6.3-6.3-6.3H210.7z"/>
	<path class="st2_team-work-1-75" d="M206.9,275.5h76.5c2.4,0,4.4,2,4.4,4.4v10.7c0,2.4-2,4.4-4.4,4.4h-76.5c-2.4,0-4.4-2-4.4-4.4v-10.7&#10;&#9;&#9;C202.6,277.5,204.5,275.5,206.9,275.5z"/>
	<path class="st0_team-work-1-75" d="M279.6,296.8h-68.9c-5.5,0-10-4.5-10-10v-3.2c0-5.5,4.5-10,10-10h68.9c5.5,0,10,4.5,10,10v3.2&#10;&#9;&#9;C289.6,292.4,285.1,296.8,279.6,296.8z M210.7,277.4c-3.5,0-6.3,2.8-6.3,6.3l0,0v3.2c0,3.5,2.8,6.3,6.3,6.3l0,0h68.9&#10;&#9;&#9;c3.5,0,6.3-2.8,6.3-6.3c0,0,0,0,0,0v-3.2c0-3.5-2.8-6.3-6.3-6.3c0,0,0,0,0,0H210.7z"/>
	<path class="st2_team-work-1-75" d="M206.9,256h76.5c2.4,0,4.4,2,4.4,4.4v10.7c0,2.4-2,4.4-4.4,4.4h-76.5c-2.4,0-4.4-2-4.4-4.4v-10.7&#10;&#9;&#9;C202.6,258,204.5,256,206.9,256z"/>
	<path class="st0_team-work-1-75" d="M279.6,277.4h-68.9c-5.5,0-10-4.5-10-10v-3.2c0-5.5,4.5-10,10-10h68.9c5.5,0,10,4.5,10,10v3.2&#10;&#9;&#9;C289.6,272.9,285.1,277.4,279.6,277.4z M210.7,257.9c-3.5,0-6.3,2.8-6.3,6.3l0,0v3.2c0,3.5,2.8,6.3,6.3,6.3h68.9&#10;&#9;&#9;c3.5,0,6.3-2.8,6.3-6.3v-3.2c0-3.5-2.8-6.3-6.3-6.3c0,0,0,0,0,0H210.7z"/>
	<path class="st3_team-work-1-75" d="M233.1,252c-0.9,0-1.7-0.7-1.8-1.6l-16.2-104.8c-0.2-1,0.5-2,1.6-2.1c0.6-0.1,1.2,0.1,1.6,0.6&#10;&#9;&#9;c1,1.1,25,26,55.2-0.1c0.8-0.7,1.9-0.6,2.6,0.2c0.4,0.4,0.5,1,0.4,1.5L261,250.4c-0.2,1-1.2,1.6-2.2,1.4c-0.9-0.2-1.5-1-1.5-2&#10;&#9;&#9;l14.8-100.1c-23.9,17.9-44.3,6.6-52.6,0.3l15.5,99.8c0.2,1-0.5,2-1.6,2.1L233.1,252z"/>
</g>
<g id="character-2_team-work-1-75">
	<path class="st4_team-work-1-75" d="M397.5,152.6c-12.5-3.3-27.2-0.3-38.3,5.2c-16.9,8.5-27.3,23.8-31.7,41.9l-11.7,48.4&#10;&#9;&#9;c-5.8,23.8-15.8,50,4.5,69.9c10.5,10.3,24.9,15.6,39.1,18.9c17.7,4.1,36.3,5.6,54.3,2.6c14.5-2.4,36.2-8.1,40.6-24.5&#10;&#9;&#9;c2.4-9.1-1.8-18.5-3.3-27.7c-3.1-19.6,6.2-38.9,7.7-58.6c1.6-20.4-9.4-66.4-37.6-63.3c-1.4,0.2-2.9,0.5-4.3,0.1s-2.5-1.8-3.6-3&#10;&#9;&#9;C409.3,157.5,403.7,154.1,397.5,152.6z"/>
	<path class="st0_team-work-1-75" d="M394,342.9c-11.8-0.1-23.5-1.5-35-4.2c-18.1-4.2-30.8-10.4-40-19.4c-18.7-18.4-12.5-42.4-7-63.5&#10;&#9;&#9;c0.7-2.7,1.4-5.4,2.1-8.1l11.7-48.4c4.8-19.8,16.1-34.7,32.7-43.1c10-5,25.6-9.1,39.6-5.4c6.5,1.6,12.4,5.2,16.9,10.3l0.3,0.3&#10;&#9;&#9;c0.9,1.9,3.1,2.8,5.1,2.1l0.9-0.1c7.9-0.9,15,1.7,21.1,7.7c14,13.5,19.8,42.2,18.5,57.7c-0.6,7.8-2.4,15.5-4.1,23&#10;&#9;&#9;c-2.8,12.1-5.4,23.5-3.6,35.2c0.4,2.6,1.1,5.4,1.7,8c1.6,6.7,3.3,13.6,1.5,20.5c-3.5,13.1-17.7,21.8-42.1,25.9&#10;&#9;&#9;C407.5,342.3,400.7,342.9,394,342.9z M386.4,153.1c-9.1,0.1-18.1,2.3-26.3,6.4c-15.6,7.9-26.2,21.9-30.7,40.6l-11.7,48.3&#10;&#9;&#9;c-0.6,2.7-1.4,5.4-2.1,8.2c-5.5,21.2-11.1,43.1,6,59.9c8.7,8.5,20.8,14.4,38.2,18.4c19.1,4.4,37.2,5.3,53.6,2.6&#10;&#9;&#9;c22.9-3.8,36-11.6,39.1-23.1c1.6-6,0.1-12.1-1.5-18.6c-0.7-2.7-1.4-5.5-1.8-8.4c-2-12.4,0.9-24.7,3.6-36.6c1.7-7.4,3.5-15,4-22.5&#10;&#9;&#9;c1.1-14.8-4.3-42-17.4-54.7c-5.3-5.1-11.4-7.4-18.1-6.6l-0.8,0.1c-3.2,0.9-6.6-0.5-8.4-3.4l-0.3-0.3c-3.9-4.5-9.2-7.7-15-9.1l0,0&#10;&#9;&#9;C393.5,153.5,389.9,153.1,386.4,153.1L386.4,153.1z"/>
	<path class="st5_team-work-1-75 targetColor" d="M287.2,356.9c2.4,1.4,18.5-3.9,32.1-9.8c0.9-0.4,2,0,2.5,1c0.1,0.2,0.2,0.5,0.2,0.8v49.1h90.4v-61.7&#10;&#9;&#9;c0-17.2-11.1-31.1-24.7-31.1h-40.9c-2,0-4.1,0.3-6,0.9c-1.8,0.6-3.5,1.4-5.1,2.4c-7.9,4.1-33.8,17.2-39.6,14.6&#10;&#9;&#9;c-1.9-0.8-6.4-3.5-11.6-6.7c-4.7,7.8-18.1,12.1-25,13.9C267.9,340.3,278.9,351.9,287.2,356.9z" style="fill: rgb(104, 225, 253);"/>
	<path class="st0_team-work-1-75" d="M387.5,301.3h-40.9c-2.4,0-4.8,0.4-7.1,1.1c-2.1,0.7-4,1.6-5.9,2.8c-15.2,7.9-33.4,15.7-36.2,14.5&#10;&#9;&#9;c-1.8-0.8-6.4-3.5-11.7-6.8c-0.1,0.6-0.3,1.2-0.6,1.8c5.2,3.2,9.7,5.8,11.5,6.6c5.4,2.4,37.9-14.5,37.9-14.5c1.7-1.1,3.6-2,5.6-2.6&#10;&#9;&#9;c2.1-0.7,4.3-1,6.6-1h40.9c14.7,0,26.6,14.8,26.6,33v63.6H320v-51c0,0-29,12.6-33.8,9.7c-8.8-5.2-20.3-17.5-29.1-27.7&#10;&#9;&#9;c-1.3,0.3-2.1,0.4-2.1,0.4c9,10.5,20.9,23.4,30.2,28.9c4.7,2.8,23.9-4.7,32.9-8.5v48.2c0,1,0.8,1.9,1.9,1.9h94.1&#10;&#9;&#9;c1,0,1.9-0.8,1.9-1.9v-63.6C416,317,403.2,301.3,387.5,301.3z"/>
	<path class="st0_team-work-1-75" d="M295.8,323c5.8,2.6,31.7-10.5,39.6-14.6c1.6-1,3.3-1.8,5.1-2.4c1.9-0.6,4-0.9,6-0.9h40.9&#10;&#9;&#9;c13.6,0,24.7,14,24.7,31.1v61.7h-90.4v-49.1c0-1-0.8-1.9-1.9-1.9c-0.3,0-0.5,0.1-0.8,0.2c-13.5,5.9-29.6,11.2-32.1,9.8&#10;&#9;&#9;c-8.4-5-19.4-16.6-28-26.6l-2,0.5c8.8,10.3,20.3,22.5,29.1,27.7c4.8,2.9,33.8-9.7,33.8-9.7v51h94.1v-63.6c0-18.2-11.9-33-26.6-33&#10;&#9;&#9;h-40.9c-2.2,0-4.5,0.3-6.6,1c-2,0.6-3.8,1.5-5.6,2.6c0,0-32.4,17-37.9,14.5c-1.8-0.8-6.3-3.5-11.5-6.6c-0.2,0.6-0.5,1.1-0.9,1.7&#10;&#9;&#9;C289.4,319.6,294,322.2,295.8,323z"/>
	<path class="st6_team-work-1-75" d="M378.6,304.2v-8.4H358v8.4c0,4.8,3.9,8.8,8.7,8.8c0,0,0,0,0.1,0h3C374.6,313,378.6,309.1,378.6,304.2&#10;&#9;&#9;C378.6,304.2,378.6,304.2,378.6,304.2z"/>
	<path class="st0_team-work-1-75" d="M369.8,314.8h-3c-5.9,0-10.7-4.8-10.7-10.7v-8.4c0-1,0.8-1.9,1.9-1.9h20.6c1,0,1.9,0.8,1.9,1.9v8.4&#10;&#9;&#9;C380.5,310.1,375.7,314.8,369.8,314.8z M359.9,297.6v6.6c0,3.8,3.1,6.9,6.9,6.9h3c3.8,0,6.9-3.1,6.9-6.9v-6.6L359.9,297.6z"/>
	<path class="st6_team-work-1-75" d="M316,240.6c-1.5,7.9,3.8,19.9,12.9,21.6s17.8-3.2,19.3-11.1s-4.6-15.7-13.7-17.5S317.5,232.8,316,240.6z"/>
	<path class="st0_team-work-1-75" d="M332.6,264.5c-1.4,0-2.7-0.1-4.1-0.4c-4.8-0.9-8.9-4.3-11.7-9.5c-2.5-4.6-3.5-10-2.7-14.4&#10;&#9;&#9;c0.6-4.1,3.7-7.5,7.7-8.5c3.3-1,7.6-0.9,13,0.1c10.1,2,17,10.8,15.2,19.7C348.6,259.3,341.2,264.5,332.6,264.5z M327.3,234.8&#10;&#9;&#9;c-1.5,0-3,0.2-4.4,0.5c-2.7,0.6-4.7,2.9-5.1,5.7l0,0c-0.7,3.5,0.2,8,2.3,11.9c1.3,2.4,4.3,6.6,9.2,7.6c8.1,1.6,15.8-2.7,17.1-9.6&#10;&#9;&#9;s-4.2-13.7-12.3-15.3C331.9,235.1,329.6,234.8,327.3,234.8L327.3,234.8z M316,240.6L316,240.6z"/>
	<path class="st6_team-work-1-75" d="M367.7,300.7L367.7,300.7c27.6,5.3,54.3-12.7,59.6-40.3c0,0,0,0,0,0l4.5-23.1c2.3-12-11.6-38-23.5-40.3&#10;&#9;&#9;c0,0-4.2,11-24.9,17.2c-14.5,4.4-33.2,1.2-47.8-13.9l-7.9,40.6C322.2,268.6,340.1,295.3,367.7,300.7z"/>
	<path class="st0_team-work-1-75" d="M377.5,303.5c-29.1,0-52.7-23.5-52.7-52.6c0-3.4,0.3-6.9,1-10.2l7.9-40.6c0.2-1,1.2-1.7,2.2-1.5&#10;&#9;&#9;c0.4,0.1,0.7,0.3,1,0.5c15,15.5,33.6,17.1,45.9,13.4c19.5-5.9,23.7-16,23.7-16.1c0.3-0.8,1.2-1.3,2.1-1.2c6,1.2,12.9,7.7,18.4,17.5&#10;&#9;&#9;c4.1,7.3,8,17.7,6.6,25.1l-4.5,23.1C424.3,285.5,402.7,303.4,377.5,303.5L377.5,303.5z M336.7,204.1l-7.3,37.3&#10;&#9;&#9;c-5.5,26.4,11.4,52.4,37.8,57.9c26.4,5.5,52.4-11.4,57.9-37.8c0.1-0.5,0.2-0.9,0.3-1.4l4.5-23.1c1-5.2-1.4-14.1-6.2-22.5&#10;&#9;&#9;c-4.5-7.9-9.9-13.6-14.5-15.3c-2,3.4-8.4,11.7-25.4,16.8C371.1,219.8,352.4,218.5,336.7,204.1z"/>
	<path class="st0_team-work-1-75" d="M409.1,234.9h-0.3l-22.4-1.6c-2.1-0.1-3.6-1.9-3.4-4c0.1-2.1,1.9-3.6,4-3.4l0,0l22.4,1.6&#10;&#9;&#9;c2.1,0.1,3.7,1.8,3.6,3.9S411.1,235,409.1,234.9L409.1,234.9z"/>
	<path class="st0_team-work-1-75" d="M360.7,228c-0.3,0-0.6,0-0.9-0.1l-21.8-5.5c-2-0.5-3.2-2.5-2.7-4.5c0.5-2,2.5-3.2,4.5-2.7l0,0l21.7,5.5&#10;&#9;&#9;c2,0.5,3.2,2.6,2.7,4.5C363.8,226.8,362.3,228,360.7,228L360.7,228z"/>
	<path class="st6_team-work-1-75" d="M415.4,278.2c9.1,1.8,23.8-6.3,24.6-14.3c1.4-13.4-13.5-13.8-19.8-10"/>
	<path class="st0_team-work-1-75" d="M418.1,280.3c-1.1,0-2.1-0.1-3.1-0.3c-1-0.3-1.6-1.3-1.3-2.3c0.2-0.9,1.1-1.5,2-1.4c4.7,0.9,11.6-1.1,16.8-5&#10;&#9;&#9;c3.3-2.4,5.3-5.2,5.6-7.6c0.4-3.9-0.7-6.8-3.4-8.4c-3.9-2.5-10.2-1.9-13.7,0.2c-0.9,0.5-2,0.2-2.5-0.6c-0.5-0.9-0.2-2,0.6-2.6l0,0&#10;&#9;&#9;c4.5-2.7,12.3-3.5,17.6-0.1c2.7,1.7,5.7,5.2,5,11.9c-0.4,3.5-2.9,7.1-7,10.3S424,280.3,418.1,280.3z"/>
	<path class="st2_team-work-1-75" d="M431.2,248.5c0,0,11.3-24.4,0.3-49.4s-49.7-34.2-66.9-27.4c-26.8,10.7-29.1,28.6-29.1,28.6s3.8-50.2,61.3-38.8&#10;&#9;&#9;C448.6,171.8,453.2,217.1,431.2,248.5z"/>
	<path class="st0_team-work-1-75" d="M431.2,250.4c-0.3,0-0.6-0.1-0.9-0.2c-0.8-0.5-1.2-1.5-0.8-2.4c0.1-0.2,10.8-23.9,0.3-47.8&#10;&#9;&#9;c-10.4-23.6-47.5-33.2-64.5-26.4c-25.5,10.1-28,27-28,27.1c-0.2,1-1.2,1.7-2.2,1.5c-0.9-0.2-1.6-1-1.5-1.9&#10;&#9;&#9;c0.1-0.9,1.8-21.1,17.9-33.3c11.2-8.6,26.6-11,45.6-7.2c28.5,5.7,40.1,20.9,44.9,32.6c6.9,17.3,3.4,39.2-9.3,57.3&#10;&#9;&#9;C432.4,250.1,431.8,250.4,431.2,250.4z M378.4,167.6c19.8,0,45.9,10.5,54.9,30.8c4.7,10.9,6.1,22.9,4.2,34.7&#10;&#9;&#9;c5.3-13.4,5.8-27.6,1.1-39.4c-6.3-15.6-20.9-26.1-42.1-30.4c-17.9-3.5-32.2-1.4-42.6,6.5c-4.9,3.8-8.9,8.8-11.6,14.4&#10;&#9;&#9;c4.5-4.9,11.4-10.1,21.8-14.3C368.6,168.3,373.5,167.5,378.4,167.6z"/>
	<path class="st0_team-work-1-75" d="M373.1,264.5L373.1,264.5c-2.9-0.1-5.7-0.6-8.4-1.7c-0.8-0.4-1.4-1.1-1.6-2c-0.8-3.4,4.4-10.3,6.6-13.2&#10;&#9;&#9;c0.7-0.8,1.9-0.9,2.6-0.2c0.7,0.6,0.8,1.7,0.3,2.5c-3,3.8-5.6,8.1-5.9,9.7c2.1,0.7,4.2,1.1,6.4,1.1c1,0.1,1.8,1,1.7,2&#10;&#9;&#9;C374.9,263.7,374.1,264.4,373.1,264.5L373.1,264.5z M366.7,260L366.7,260z"/>
	<ellipse transform="matrix(0.1913 -0.9815 0.9815 0.1913 68.556 580.2499)" class="st0_team-work-1-75" cx="386.4" cy="248.5" rx="4.5" ry="4.5"/>
	
		<ellipse transform="matrix(0.1913 -0.9815 0.9815 0.1913 42.9118 532.9094)" class="st0_team-work-1-75" cx="344.9" cy="240.4" rx="4.5" ry="4.5"/>
	<path class="st0_team-work-1-75" d="M349.9,257.6c-1.1,0-2.1-0.1-3.1-0.3c-8.8-1.7-14.5-10.2-12.8-19c1.7-8.8,10.2-14.5,19-12.8&#10;&#9;&#9;c8.8,1.7,14.5,10.2,12.8,19l0,0C364.3,252.1,357.6,257.6,349.9,257.6L349.9,257.6z M349.8,228.9c-6.9,0-12.5,5.6-12.5,12.5&#10;&#9;&#9;c0,6.9,5.6,12.5,12.5,12.5c6,0,11.1-4.3,12.3-10.1c1.3-6.8-3.1-13.4-9.9-14.7C351.4,229,350.6,228.9,349.8,228.9L349.8,228.9z&#10;&#9;&#9; M363.9,244.1L363.9,244.1z"/>
	<path class="st0_team-work-1-75" d="M391.8,265.8c-1,0-2.1-0.1-3.1-0.3c-8.8-1.7-14.6-10.2-12.9-19c1.7-8.8,10.2-14.6,19-12.9&#10;&#9;&#9;c4.3,0.8,8,3.3,10.4,6.9c2.4,3.6,3.3,8,2.5,12.2C406.2,260.3,399.6,265.8,391.8,265.8z M391.8,237.1c-6.9,0-12.5,5.6-12.5,12.5&#10;&#9;&#9;s5.6,12.5,12.5,12.5c6,0,11.1-4.2,12.3-10.1l0,0c1.3-6.8-3.1-13.4-9.9-14.7C393.4,237.2,392.6,237.1,391.8,237.1L391.8,237.1z"/>
	<path class="st0_team-work-1-75" d="M377.7,248.7c-0.1,0-0.2,0-0.4,0l-13.8-2.7c-1-0.2-1.7-1.1-1.5-2.1s1.1-1.7,2.1-1.5c0,0,0.1,0,0.1,0L378,245&#10;&#9;&#9;c1,0.2,1.7,1.2,1.5,2.2C379.3,248.1,378.6,248.7,377.7,248.7L377.7,248.7z"/>
	<path class="st0_team-work-1-75" d="M336.3,238.4c-0.5,0-1.1-0.2-1.4-0.7l-6.5-7.7c-0.7-0.8-0.6-2,0.2-2.6s2-0.6,2.6,0.2l0,0l6.5,7.7&#10;&#9;&#9;c0.7,0.8,0.6,2-0.2,2.6C337.2,238.2,336.8,238.4,336.3,238.4L336.3,238.4z"/>
	<path class="st0_team-work-1-75" d="M405.9,254.2c-1,0-1.9-0.8-1.9-1.8c0-1,0.7-1.8,1.7-1.9l22.2-3c1-0.1,1.9,0.7,2,1.7c0.1,0.9-0.6,1.8-1.5,2&#10;&#9;&#9;l-22.2,3L405.9,254.2z"/>
	<path class="st0_team-work-1-75" d="M365.5,280.9h-0.4c-9.7-0.2-16.4-7.1-16.6-7.4c-0.7-0.7-0.7-1.9,0.1-2.6c0.7-0.7,1.9-0.7,2.6,0.1l0,0&#10;&#9;&#9;c0.1,0.1,5.9,6.1,14,6.2c5.4,0.2,10.5-2.4,15.5-7.3c0.7-0.8,1.9-0.8,2.6-0.1c0.8,0.7,0.8,1.9,0.1,2.6c0,0.1-0.1,0.1-0.2,0.2&#10;&#9;&#9;C377.7,278.1,371.7,280.9,365.5,280.9z"/>
	<path class="st6_team-work-1-75" d="M286.3,319.4c-2.8-2.8-5.8-5.4-9.1-7.7c-4.3-3.1-7.2-8.4-10.8-12.3c-0.5-0.6-1.3-1.2-2-1&#10;&#9;&#9;c-1,0.4-0.9,1.8-0.5,2.8l1.4,4.2c-2.8-2.6-6-4.7-9.5-6.4c-0.4-0.2-0.9-0.4-1.4-0.5c-0.7,0-1.3,0.3-1.8,0.6c-3,1.9-5.2,4.8-6.2,8.2&#10;&#9;&#9;c-2.3,8.2,9,12.7,14.6,16.4c4.9,3.3,9.7,6.5,14.6,9.8L286.3,319.4z"/>
	<path class="st0_team-work-1-75" d="M275.5,335.5c-0.4,0-0.7-0.1-1-0.3l-14.6-9.8c-1-0.6-2.2-1.4-3.4-2.1c-6-3.5-14.2-8.3-12-16.4&#10;&#9;&#9;c1.1-3.9,3.6-7.2,7-9.3c0.9-0.6,1.8-0.9,2.9-0.9c0.8,0,1.5,0.3,2.2,0.6c1.8,0.9,3.5,1.9,5.2,3c-0.3-1.6,0.5-3.1,2-3.7&#10;&#9;&#9;c0.9-0.3,2.4-0.3,4,1.5c1.3,1.4,2.5,3,3.6,4.6c2.1,2.8,4.2,5.6,6.8,7.5c3.4,2.3,6.5,5,9.3,7.9c0.6,0.7,0.7,1.7,0.1,2.4l-10.8,14.3&#10;&#9;&#9;C276.6,335.3,276,335.5,275.5,335.5z M254.2,300.5c-0.3,0.1-0.6,0.2-0.8,0.4c-2.6,1.6-4.5,4.1-5.4,7.1c-1.4,4.9,3.6,8.3,10.2,12.2&#10;&#9;&#9;c1.3,0.8,2.5,1.5,3.6,2.2l13.1,8.8l8.8-11.6c-2.4-2.3-5-4.5-7.7-6.4c-3.1-2.2-5.4-5.3-7.7-8.3c-0.9-1.1-1.7-2.2-2.5-3.2l1,3.2&#10;&#9;&#9;c0.3,1-0.2,2-1.2,2.4c-0.6,0.2-1.3,0.1-1.8-0.4c-2.7-2.5-5.7-4.5-9-6.1C254.7,300.7,254.5,300.6,254.2,300.5L254.2,300.5z"/>
	<path class="st5_team-work-1-75 targetColor" d="M383.6,321.8c-13.8,3.5-52.2,16.2-54.6,14.5c-3.3-2.2-51.2-23.4-51.2-23.4L267,327.2c0,0,39.2,32.7,52.9,39.6&#10;&#9;&#9;c13.5,6.8,48.3-1,63.8-4.4" style="fill: rgb(104, 225, 253);"/>
	<path class="st0_team-work-1-75" d="M335.7,371.3c-6.7,0-12.6-0.8-16.7-2.9c-13.7-6.9-51.6-38.5-53.2-39.8c-0.8-0.6-0.9-1.8-0.3-2.6l10.8-14.3&#10;&#9;&#9;c0.5-0.7,1.4-0.9,2.2-0.6c4.8,2.1,46.4,20.5,51.3,23.4c3,0.1,21.5-5.3,33.7-9c7.8-2.3,15.1-4.5,19.7-5.7c1-0.3,2,0.3,2.3,1.3&#10;&#9;&#9;c0.3,1-0.3,2-1.3,2.3c-4.5,1.2-11.8,3.3-19.6,5.6c-28.5,8.5-34.6,10-36.6,8.6c-2.2-1.5-30.4-14.1-49.6-22.6l-8.8,11.7&#10;&#9;&#9;c7,5.8,39.2,32.3,51.2,38.2c12.5,6.3,45.5-0.8,61.3-4.2l1.3-0.3c1-0.2,2,0.6,2.1,1.6c0.1,0.9-0.4,1.8-1.3,2.1l-1.3,0.3&#10;&#9;&#9;C371.4,367,351.4,371.3,335.7,371.3z"/>
</g>
<g id="character-1_team-work-1-75">
	<path class="st5_team-work-1-75 targetColor" d="M198.4,332.3c-7-0.7-21.4-12.8-32.3-22.9c-1.7-1.6-3-2.8-3.4-3.2l0,0c-4.2-3.5-9.5-5.4-14.9-5.5h-44.6&#10;&#9;&#9;c-14.9,0-27.1,14.8-27.1,33V398h98.8v-48c0-1,0.8-1.9,1.9-1.9c0.3,0,0.6,0.1,0.9,0.2c7.9,4.5,15,6.9,21,7.1&#10;&#9;&#9;c8.1,0.2,19.2-8.4,32.3-25c-7.4-0.2-12.8-2.7-18.8-5.2C208.5,328.6,201,332.5,198.4,332.3z" style="fill: rgb(104, 225, 253);"/>
	<path class="st0_team-work-1-75" d="M198.6,357.3c-7.2-0.3-14.8-3.4-21.9-7.3v49.8H74.3v-66.1c0-19.2,12.9-34.8,29-34.8h44.6&#10;&#9;&#9;c5.9,0,11.6,2.1,16.1,5.9c0,0,0.1,0,0.1,0.1c0.4,0.4,1.6,1.5,3.4,3.2c7.3,6.8,24.1,21.7,31.2,22.4c2,0.2,4.6-1.5,7.6-4.3&#10;&#9;&#9;c-0.6-0.3-1.1-0.7-1.7-1.1c-2.7,2.5-4.7,3.7-5.8,3.6c-4.5-0.4-15.8-8.6-30.1-21.9c-1.8-1.7-3-2.9-3.4-3.2c-0.1-0.1-0.2-0.1-0.2-0.2&#10;&#9;&#9;c-4.9-4-11-6.2-17.2-6.2h-44.6c-17,0-30.8,16.5-30.8,36.7v66.1c0,1,0.8,1.9,1.9,1.9h102.5c1,0,1.9-0.8,1.9-1.9v-46.7&#10;&#9;&#9;c7.4,3.8,14,5.8,19.9,6c12,0.5,26.2-14.4,37.1-28.6h-2.4C222.8,344,209.6,357.7,198.6,357.3z"/>
	<path class="st0_team-work-1-75" d="M198.6,330.4c-7.1-0.7-23.9-15.6-31.2-22.4c-1.8-1.7-3.1-2.9-3.4-3.2c0,0-0.1-0.1-0.1-0.1&#10;&#9;&#9;c-4.5-3.7-10.2-5.8-16.1-5.9h-44.6c-16,0-29,15.6-29,34.8v66.1h102.5V350c7,4,14.7,7.1,21.9,7.3c10.9,0.4,24.2-13.3,34.7-26.8&#10;&#9;&#9;l-2.3-0.1c-13,16.6-24.2,25.2-32.3,25c-6-0.2-13.1-2.6-21-7.1c-0.9-0.5-2-0.2-2.5,0.7c-0.2,0.3-0.2,0.6-0.2,0.9v47.9H76.1v-64.3&#10;&#9;&#9;c0-18.2,12.2-33,27.1-33h44.6c5.5,0,10.7,2,14.9,5.5l0,0c0.4,0.4,1.7,1.6,3.4,3.2c10.9,10.1,25.3,22.2,32.3,22.9&#10;&#9;&#9;c2.6,0.2,5.9-1.9,9.5-5.4c-0.6-0.2-1.2-0.5-1.7-0.8C203.3,328.9,200.6,330.6,198.6,330.4z"/>
	<path class="st5_team-work-1-75 targetColor" d="M167.4,308c-1.8-1.7-3.1-2.9-3.4-3.2C165.2,305.7,166.4,306.8,167.4,308z" style="fill: rgb(104, 225, 253);"/>
	<path class="st0_team-work-1-75" d="M167.4,309.9c-0.5,0-0.9-0.2-1.3-0.5c-1.9-1.7-3.1-2.9-3.5-3.3c-0.7-0.7-0.7-1.9,0-2.6&#10;&#9;&#9;c0.7-0.6,1.7-0.7,2.4-0.1c1.3,1,2.5,2.2,3.6,3.5c0.7,0.8,0.6,2-0.2,2.6C168.3,309.7,167.9,309.9,167.4,309.9L167.4,309.9z"/>
	<path class="st6_team-work-1-75" d="M120.4,296.4l21.7-2l0,0l1.6,18c0.3,2.8-1.8,5.3-4.7,5.6h0l-11.4,1c-2.8,0.3-5.3-1.8-5.6-4.7l0,0L120.4,296.4&#10;&#9;&#9;L120.4,296.4z"/>
	<path class="st0_team-work-1-75" d="M131.1,320.6c-5.9,0-10.8-4.5-11.4-10.4l-1.2-13.6c-0.1-1,0.7-1.9,1.7-2l21.7-2c0.5,0,1,0.1,1.4,0.4&#10;&#9;&#9;c0.4,0.3,0.6,0.8,0.7,1.3l1.2,13.6c0.6,6.3-4.1,11.8-10.4,12.4l-2.6,0.2C131.8,320.5,131.5,320.6,131.1,320.6z M122.4,298.1&#10;&#9;&#9;l1.1,11.8c0.4,4.2,4.1,7.4,8.4,7l2.6-0.2l0,0c4.2-0.4,7.4-4.1,7-8.3c0,0,0,0,0,0l-1.1-11.8L122.4,298.1z"/>
	<path class="st4_team-work-1-75" d="M100.8,155.1c4.3,0.3,8.5,1.3,12.5,2.9c-2.9-4.3-6.8-7.8-11.2-10.4c16.2-1.4,33.3,0.4,47,9.1&#10;&#9;&#9;c23.4,14.9,19.4,38.6,18,62.2c-0.8,12.1-2.3,24.1-3.4,36.1L62.4,266.4c0,0-5.7-24.3-8-44.9c-0.5-4.6-0.2-9.1-0.2-13.8&#10;&#9;&#9;c-0.1-5.8-0.3-5.1-6.2-7.1c-1-0.2-1.8-0.8-2.3-1.6c-1-2.7,4.5-3,5.6-5.7c-3.5,0.3-7-0.2-10.3-1.4c6.6-11.7,18.4-19.6,31.8-21&#10;&#9;&#9;l-8.4-4.4c-0.7-0.4-1.4-0.8-1.6-1.5c-0.4-1.3,1.1-2.3,2.4-2.9C76.3,157.5,88.8,154.1,100.8,155.1z"/>
	<path class="st0_team-work-1-75" d="M62.4,268.3c-0.9,0-1.6-0.6-1.8-1.4c-0.1-0.2-5.7-24.6-8-45.1c-0.3-3.2-0.4-6.4-0.3-9.6c0-1.4,0-2.9,0-4.3&#10;&#9;&#9;c0.1-1.2,0-2.5-0.3-3.7c-0.9-0.5-1.8-0.9-2.8-1.1l-1.8-0.6c-1.5-0.3-2.7-1.3-3.4-2.7c-0.9-2.3,0.5-3.7,2-4.7&#10;&#9;&#9;c-1.9-0.2-3.8-0.7-5.6-1.4c-1-0.4-1.5-1.4-1.1-2.4c0-0.1,0.1-0.2,0.1-0.2c5.9-10.6,15.9-18.2,27.6-21l-3.5-1.8&#10;&#9;&#9;c-1.2-0.5-2.1-1.4-2.6-2.6c-0.6-2,0.7-4,3.4-5.1c13.6-5.7,25.9-8.2,36.6-7.3l0,0c2.3,0.2,4.6,0.6,6.9,1.1c-2-2-4.3-3.7-6.7-5.1&#10;&#9;&#9;c-0.9-0.5-1.2-1.6-0.7-2.5c0.3-0.5,0.9-0.9,1.5-0.9c19.6-1.6,35.8,1.5,48.2,9.4c22.3,14.1,20.7,36.2,19.2,57.6&#10;&#9;&#9;c-0.1,2.1-0.3,4.2-0.4,6.3c-0.5,8-1.3,16-2.1,23.8c-0.4,4.1-0.9,8.3-1.3,12.4c-0.1,0.9-0.8,1.6-1.6,1.7L62.6,268.3L62.4,268.3z&#10;&#9;&#9; M47.6,198.5c0.3,0.2,0.7,0.3,1,0.4c0.6,0.2,1.2,0.4,1.7,0.6c5,1.6,5.6,2.5,5.7,8.3c0,1.5,0,2.9,0,4.4c-0.1,3.1,0,6.1,0.2,9.2&#10;&#9;&#9;c1.9,17.2,6.3,37.3,7.6,43l98-11.1c0.4-3.6,0.7-7.3,1.1-10.9c0.8-7.7,1.7-15.7,2.1-23.6c0.1-2.1,0.3-4.2,0.4-6.3&#10;&#9;&#9;c1.5-21.2,2.9-41.2-17.5-54.2c-10.5-6.7-24.1-9.8-40.4-9.1c2.8,2.3,5.3,4.9,7.3,7.9c0.6,0.9,0.3,2-0.5,2.6&#10;&#9;&#9;c-0.5,0.3-1.1,0.4-1.7,0.2c-3.8-1.5-7.9-2.5-12-2.8l0,0c-10-0.8-21.7,1.5-34.8,7c-0.4,0.2-0.8,0.4-1.2,0.7l0.6,0.3l8.4,4.4&#10;&#9;&#9;c0.9,0.5,1.3,1.6,0.8,2.5c-0.3,0.6-0.8,0.9-1.5,1c-12,1.2-22.7,7.9-29.2,18.1c2.4,0.6,4.9,0.8,7.5,0.6c1-0.1,1.9,0.7,2,1.7&#10;&#9;&#9;c0,0.3,0,0.6-0.2,0.9c-0.8,1.8-2.5,2.7-4,3.5C48.5,197.9,48,198.2,47.6,198.5z"/>
	
		<ellipse transform="matrix(0.9937 -0.1122 0.1122 0.9937 -26.7835 20.9872)" class="st6_team-work-1-75" cx="173.1" cy="248.5" rx="14.1" ry="15.8"/>
	<path class="st0_team-work-1-75" d="M173.5,266.2c-3.8,0-7.4-1.4-10.2-4c-3.4-3.1-5.5-7.3-6-11.8c-1.1-9.7,5.1-18.4,13.9-19.4s16.9,6,17.9,15.7&#10;&#9;&#9;l0,0c0.6,4.5-0.6,9.1-3.2,12.9c-2.5,3.6-6.4,6-10.7,6.5C174.6,266.1,174,266.2,173.5,266.2z M172.8,234.6c-0.4,0-0.8,0-1.2,0.1&#10;&#9;&#9;c-6.7,0.8-11.5,7.6-10.6,15.2c0.4,3.6,2.1,7,4.8,9.5c4.5,4.3,11.7,4.1,15.9-0.4c0.4-0.5,0.8-1,1.2-1.5c2.1-3,3-6.7,2.5-10.3l0,0&#10;&#9;&#9;C184.5,240,179,234.6,172.8,234.6L172.8,234.6z"/>
	<path class="st6_team-work-1-75" d="M129.8,305.3c-30.9,3.5-62.8-31.5-66.2-61.8l7.6,2L68.5,224c0,0,37.5-14.6,30.4-32c0,0,12.9,12.2,29.1,10.3&#10;&#9;&#9;c29.9-3.4,40.8-12.7,40.8-12.7l6.2,54.9C178.5,274.8,160.6,301.8,129.8,305.3z"/>
	<path class="st0_team-work-1-75" d="M125.5,307.4c-30.4,0-60.5-34.2-63.8-63.7c-0.1-1,0.6-1.9,1.7-2c0.2,0,0.4,0,0.7,0l5,1.3l-2.3-18.8&#10;&#9;&#9;c-0.1-0.9,0.4-1.7,1.2-2c0.2-0.1,24-9.4,29.2-21.5c1.2-2.5,1.3-5.5,0.2-8.1c-0.4-1,0.1-2,1.1-2.4c0.7-0.3,1.4-0.1,1.9,0.4&#10;&#9;&#9;c0.1,0.1,12.5,11.6,27.7,9.8c28.9-3.3,39.7-12.2,39.8-12.3c0.8-0.7,2-0.6,2.6,0.2c0.2,0.3,0.4,0.6,0.4,1l6.2,54.9&#10;&#9;&#9;c3.7,32.9-16,59.4-46.9,62.9l0,0C128.5,307.3,127,307.4,125.5,307.4z M129.8,305.3L129.8,305.3z M65.8,245.9&#10;&#9;&#9;c4.8,28.7,34.7,60.8,63.8,57.5l0,0c28.8-3.2,47.1-28,43.6-58.7l-5.9-51.8c-4.9,3-16.8,8.7-39.1,11.3c-11.6,1.4-21.4-3.9-26.6-7.6&#10;&#9;&#9;c0,2-0.5,3.9-1.2,5.7c-5.1,11.8-24.5,20.6-29.9,22.9l2.5,20c0.1,1-0.6,1.9-1.7,2c-0.2,0-0.4,0-0.6,0L65.8,245.9z"/>
	<ellipse transform="matrix(0.9937 -0.1122 0.1122 0.9937 -26.7897 13.7569)" class="st0_team-work-1-75" cx="108.9" cy="245" rx="5.1" ry="5.1"/>
	<circle class="st0_team-work-1-75" cx="157.9" cy="239.4" r="5.1"/>
	<path class="st0_team-work-1-75" d="M134.1,256.4c-0.9,0-1.5,0-1.5,0c-1-0.1-1.8-1-1.8-2c0,0,0,0,0,0c0.1-1,1-1.8,2-1.7c2.4,0.1,4.9-0.1,7.3-0.7&#10;&#9;&#9;c-0.1-1.7-2.5-6.7-5.6-11.2c-0.5-0.9-0.2-2,0.7-2.6c0.8-0.5,1.8-0.3,2.4,0.5c2.2,3.2,7.2,11.2,6,14.7c-0.3,0.9-1,1.6-1.8,1.9&#10;&#9;&#9;C139.2,256.1,136.6,256.4,134.1,256.4z"/>
	<path class="st6_team-work-1-75" d="M75.1,246.1c0,0-14.5-7.8-20.4,5s3.4,32.4,24.9,24"/>
	<path class="st0_team-work-1-75" d="M69.8,279c-5,0.1-9.8-1.9-13.3-5.5c-5.6-5.9-7-15.4-3.5-23.1c1.5-3.6,4.4-6.4,8.1-7.7c7-2.3,14.5,1.7,14.8,1.8&#10;&#9;&#9;c0.9,0.5,1.1,1.7,0.6,2.6c-0.5,0.8-1.5,1.1-2.4,0.7c-0.1,0-6.5-3.4-11.9-1.6c-2.7,1-4.8,3.1-5.9,5.7c-2.9,6.2-1.7,14.2,2.8,19&#10;&#9;&#9;s11.5,5.6,19.8,2.4c1-0.4,2,0.1,2.4,1.1s-0.1,2-1.1,2.4C77,278.2,73.4,278.9,69.8,279z"/>
	<path class="st0_team-work-1-75" d="M94.9,231.4c-2.1,0-3.7-1.7-3.7-3.8c0-1.9,1.5-3.5,3.3-3.7l22.8-2.1c2.1-0.1,3.8,1.5,3.9,3.6&#10;&#9;&#9;c0.1,1.9-1.3,3.6-3.2,3.9l-22.8,2.1L94.9,231.4z"/>
	<path class="st0_team-work-1-75" d="M139.8,227.3c-2.1,0-3.7-1.7-3.7-3.8c0-1.9,1.5-3.5,3.3-3.7l22.8-2.1c2.1-0.2,3.9,1.3,4.1,3.4&#10;&#9;&#9;s-1.3,3.9-3.4,4.1l-22.8,2.1L139.8,227.3z"/>
	<path class="st0_team-work-1-75" d="M129.2,276.5c-3,0-5.9-0.6-8.6-1.8c-4.3-2-7.6-5.6-9.3-10.1c-0.3-1,0.2-2,1.2-2.4c1-0.3,2,0.2,2.4,1.2&#10;&#9;&#9;c1.4,3.5,4,6.3,7.4,7.9c4.9,2.3,11.3,1.9,19-1.2c1-0.4,2,0.1,2.4,1c0.4,1-0.1,2-1,2.4C138.4,275.3,133.8,276.3,129.2,276.5z"/>
	<path class="st6_team-work-1-75" d="M194.6,319.4c2.9-2.8,6.4-4.5,9.3-7.4c3.5-3.4,6.3-7.5,9.3-11.2c0.6-0.7,1.4-1.5,2.3-1.5&#10;&#9;&#9;c1.1,0.2,1.8,1.3,1.6,2.4c-0.2,1-0.7,2-1.4,2.8c2.5-2.3,5.8-3.5,9-4.5c1.7-0.7,3.5-0.9,5.2-0.5c2.6,0.8,5.4,5,6.5,7.3&#10;&#9;&#9;c1.5,3.2-0.5,6.1-3.1,8c-1,0.8-27.8,18.7-28,18.8S195.6,320.8,194.6,319.4z"/>
	<path class="st0_team-work-1-75" d="M205.5,335.6c-1.1,0-2.8-2.3-10.6-12.7l-1.8-2.4c-0.6-0.8-0.5-1.8,0.2-2.5c1.5-1.4,3.2-2.8,4.9-3.9&#10;&#9;&#9;c1.5-1,3-2.2,4.4-3.5c2.3-2.3,4.5-4.9,6.4-7.5c0.9-1.2,1.8-2.4,2.8-3.5c0.5-0.6,1.9-2.3,3.9-2.1c0.9,0.1,1.8,0.6,2.4,1.3&#10;&#9;&#9;c0.3,0.4,0.6,0.9,0.8,1.5c1.7-0.8,3.5-1.5,5.4-2c2-0.8,4.2-1,6.3-0.5c3.5,1,6.5,5.9,7.6,8.4c1.6,3.6,0.3,7.3-3.7,10.3&#10;&#9;&#9;c-1.1,0.8-27.8,18.7-28.1,18.9C206.2,335.5,205.9,335.6,205.5,335.6z M197.1,319.6l0.8,1.1c1.9,2.6,6,8,7.9,10.4&#10;&#9;&#9;c5.6-3.7,25.6-17.1,26.5-17.8c1.8-1.3,3.6-3.4,2.5-5.8c-1.2-2.6-3.7-5.9-5.3-6.3c-1.4-0.2-2.9,0-4.2,0.5c-2.8,0.9-6,2.1-8.4,4.1&#10;&#9;&#9;c-0.8,0.7-1.9,0.6-2.6-0.2c-0.6-0.7-0.6-1.6-0.1-2.4c0.5-0.5,0.9-1.2,1.1-1.9c0-0.1,0-0.1,0-0.2c-0.2,0.2-0.4,0.4-0.6,0.6&#10;&#9;&#9;c-0.9,1.1-1.8,2.3-2.7,3.5c-2.1,2.8-4.3,5.5-6.8,8c-1.5,1.4-3.1,2.7-4.8,3.8C199.2,318,198.1,318.8,197.1,319.6L197.1,319.6z"/>
	<path class="st5_team-work-1-75 targetColor" d="M97.2,321.8c13.8,3.5,52.2,16.2,54.7,14.5c3.3-2.2,51.2-23.4,51.2-23.4l10.8,14.3c0,0-39.2,32.7-52.9,39.6&#10;&#9;&#9;c-13.5,6.8-48.3-1-63.8-4.4" style="fill: rgb(104, 225, 253);"/>
	<path class="st0_team-work-1-75" d="M145.2,371.3c-15.7,0-35.7-4.3-47.1-6.8l-1.3-0.3c-1-0.3-1.6-1.3-1.3-2.3c0.3-0.9,1.2-1.5,2.1-1.4l1.3,0.3&#10;&#9;&#9;c15.8,3.4,48.7,10.5,61.3,4.2c11.9-6,44.1-32.4,51.2-38.2l-8.8-11.7c-19.2,8.5-47.3,21.1-49.6,22.6c-2,1.3-8.1-0.1-36.6-8.6&#10;&#9;&#9;c-7.7-2.3-15-4.5-19.6-5.6c-1-0.3-1.6-1.3-1.3-2.3c0.3-1,1.3-1.6,2.3-1.3l0,0c4.6,1.2,11.9,3.4,19.7,5.7c12.2,3.7,30.7,9.1,33.7,9&#10;&#9;&#9;c4.9-2.9,46.4-21.3,51.2-23.4c0.8-0.4,1.7-0.1,2.2,0.6l10.8,14.3c0.6,0.8,0.5,1.9-0.3,2.6c-1.6,1.3-39.5,33-53.2,39.8&#10;&#9;&#9;C157.8,370.5,151.9,371.3,145.2,371.3z"/>
</g>
</svg>