<?xml version="1.0"?><svg viewBox="0 0 64 64" xmlns="http://www.w3.org/2000/svg"><title/><g data-name="Day 13" id="e7461a28-1256-4469-9118-1086256f3fab"><path d="M23,13h3a10.91,10.91,0,0,0-4,3c-1.42,1.92-7,3-7,3H8Z" data-name="&lt;Path&gt;" fill="#c9b19d" id="54262cf3-4c14-4d97-9852-08df4728f8ba"/><path d="M27,13h3c-1.08,0-3.42,3.17-5,3S27,13,27,13Z" data-name="&lt;Path&gt;" fill="#c9b19d" id="cee135e9-5b7a-4c43-9133-3632621e33e3"/><path d="M22,16a10.91,10.91,0,0,1,4-3h1s-3.58,2.83-2,3,3.92-3,5-3,1,2.08-1,3-2.83,2.83-2,3H15S20.58,17.92,22,16Z" data-name="&lt;Path&gt;" fill="#c9b19d" id="137f7a6a-ed52-4004-970f-a7597d79acfd"/><path d="M29,16c2-.92,2.08-3,1-3h3s1.33,1.25,2,2,1.5.17,2,1-2,3-2,3H27C26.17,18.83,27,16.92,29,16Z" data-name="&lt;Path&gt;" fill="#c9b19d" id="3dc63e7c-d961-4a5a-838b-e89b247f99f3"/><path d="M35,13h8s-.83,2.17-4,2S35,13,35,13Z" data-name="&lt;Path&gt;" fill="#c9b19d" id="d99ddfd8-7646-4cb5-a59a-bc19552f5ae1"/><path d="M51,13s-5.67.5-6,2-2.33.83-4,2a19.77,19.77,0,0,1-4,2H35s2.5-2.17,2-3-1.33-.25-2-1-2-2-2-2h2s.83,1.83,4,2,4-2,4-2Z" data-name="&lt;Path&gt;" fill="#c9b19d" id="0f25fdcb-5dca-48f9-996b-f34215eca460"/><path d="M51,13h7l-4.14,1.66-2.93,1.17-2.07.83-2.93,1.17L43,19H37a19.77,19.77,0,0,0,4-2c1.67-1.17,3.67-.5,4-2S51,13,51,13Z" data-name="&lt;Path&gt;" fill="#c9b19d" id="0a4f45b2-656a-4af4-b8bc-cd66a4892893"/><path d="M58,13V39c-3-2.17-2.08-13.25-3-16s-1-8-1-8l-.14-.34Z" data-name="&lt;Path&gt;" fill="#b58c6b" id="b5593df8-745b-4199-a638-62ca5ccec740"/><path d="M54,33c-.1-1.58-3-17-3-17l-.07-.17,2.93-1.17L54,15s.08,5.25,1,8,0,13.83,3,16v9l-7.93,3.17L50,51s1.83-6.17,1-10S54.58,42.58,54,33Z" data-name="&lt;Path&gt;" fill="#b58c6b" id="d7c43cb1-d255-4138-b6e8-8c8944935d20"/><path d="M51,16s2.9,15.42,3,17c.58,9.58-3.83,4.17-3,8s-1,10-1,10l.07.17-.86.35L49,51a22.59,22.59,0,0,0,0-8c-.83-3.83,2.66-13.56,2-15a21.27,21.27,0,0,1-2-11l-.14-.34,2.07-.83Z" data-name="&lt;Path&gt;" fill="#b58c6b" id="2555d7bc-4352-41a8-9a3d-70d28e705fa1"/><path d="M49,43a22.59,22.59,0,0,1,0,8l.21.52-4.14,1.65L45,53s2.83-6.17,2-10,.5-8.5,0-10-1-15-1-15l-.07-.17,2.93-1.17L49,17a21.27,21.27,0,0,0,2,11C51.66,29.44,48.17,39.17,49,43Z" data-name="&lt;Path&gt;" fill="#b58c6b" id="09964639-85b5-47f5-ab66-699ef8256621"/><path d="M47,43c.83,3.83-2,10-2,10l.07.17L43,54V19l2.93-1.17L46,18s.5,13.5,1,15S46.17,39.17,47,43Z" data-name="&lt;Path&gt;" fill="#b58c6b" id="19ee0784-1799-4300-a275-080a479371fa"/><path d="M43,19V35c-3.5,3.75-2.5-5.88-5-8s-1-8-1-8Z" data-name="&lt;Path&gt;" fill="#c9ad97" id="9cba8320-63a2-43fd-ab67-6e00f08acac9"/><path d="M43,35v9a2.2,2.2,0,0,1-3-1c-1.25-2-4.38-3.88-4-10s-2.38-6.5-4-8,0-5,0-5V19h5s-1.5,5.88,1,8S39.5,38.75,43,35Z" data-name="&lt;Path&gt;" fill="#c9ad97" id="562735b8-7b49-441d-806d-ef51fa5e86ca"/><path d="M40,43a2.2,2.2,0,0,0,3,1v7c-.62-5.62-7.88-7.12-9-12s-2-3.75-2-8-3.25-3.88-4-5,1-7,1-7h3v1s-1.62,3.5,0,5,4.38,1.88,4,8S38.75,41,40,43Z" data-name="&lt;Path&gt;" fill="#c9ad97" id="f261f159-66a7-49c7-be82-558613e21ed4"/><path d="M43,51v3H31c1.12-4.12-1.5-9.62-2-16s-.62-7.75-3-10,0-9,0-9h3s-1.75,5.88-1,7,4,.75,4,5,.88,3.12,2,8S42.38,45.38,43,51Z" data-name="&lt;Path&gt;" fill="#c9ad97" id="3629b085-f51d-4b92-b6c2-71ee5003a6ef"/><path d="M21,44.38c-1.17-2.67,2-7.13,2-7.13,1.67-1.92,2,1.08,1,2.75s.25,4.25,1,6c.63,1.46.9,6.41,1,8H22C22,52.28,22,46.62,21,44.38Z" data-name="&lt;Path&gt;" fill="#c9ad97" id="eb9e0469-ed23-437c-be91-a081f61909dd"/><path d="M23,37.25s-3.17,4.46-2,7.13c1,2.24,1,7.9,1,9.62H19V53s-1.25-7.88,0-11,1.62-9.75,4-10,4.12-.12,4,7,2.75,9.38,2,14v1H26c-.08-1.59-.35-6.54-1-8-.75-1.75-2-4.33-1-6S24.67,35.33,23,37.25Z" data-name="&lt;Path&gt;" fill="#c9ad97" id="fe1def92-ef37-4307-839d-08c526e70476"/><path d="M21,19a28.51,28.51,0,0,0-1,5c-.25,2.58-1.5,2.08-2,1s0-6,0-6Z" data-name="&lt;Path&gt;" fill="#c9ad97" id="4706e179-98d9-4853-b4b7-73d411530855"/><path d="M24,19s-.88,0-2,5-2.75,6-4,5-2-10-2-10h2s-.5,4.92,0,6,1.75,1.58,2-1a28.51,28.51,0,0,1,1-5Z" data-name="&lt;Path&gt;" fill="#c9ad97" id="5e5b4b4b-0329-4cd6-91e4-c2d51d64cfd2"/><path d="M15,30c.62-1.12-2-11-2-11h3s.75,9,2,10,2.88,0,4-5,2-5,2-5h2s-2.38,6.75,0,9,2.5,3.62,3,10,3.12,11.88,2,16H29V53c.75-4.62-2.12-6.88-2-14s-1.62-7.25-4-7-2.75,6.88-4,10,0,11,0,11v1H17a18,18,0,0,0-1-6c-1.12-3.25-.38-10.38,0-13s-2-1-3-2S14.38,31.12,15,30Z" data-name="&lt;Path&gt;" fill="#c9ad97" id="80c22aeb-33d1-4a09-8310-9d47c66f6003"/><path d="M13,19s2.62,9.88,2,11-3,2-2,3,3.38-.62,3,2-1.12,9.75,0,13a18,18,0,0,1,1,6H11V53c-.88-2.75,3.12-10,1-13s-1-21-1-21Z" data-name="&lt;Path&gt;" fill="#c9ad97" id="9f51881b-1153-47c5-8785-9cfb11a8d459"/><path d="M12,40c2.12,3-1.88,10.25-1,13v1H8V19h3S9.88,37,12,40Z" data-name="&lt;Path&gt;" fill="#c9ad97" id="2f6e80db-dbfb-4698-9599-0afbe8668333"/><g data-name="&lt;Group&gt;" id="56d7b0b1-0211-49be-a7a0-7a6535c2f109"><polyline data-name="&lt;Path&gt;" fill="none" id="ae2c9f91-4cbe-4448-a5b3-78d5fb7c1a3e" points="43 54 42 54 40 54 34 54 31 54 29 54 25.98 54 22.01 54 19 54 17 54 11 54 8 54 8 19" stroke="#001c63" stroke-linecap="round" stroke-linejoin="round" stroke-width="2"/><polyline data-name="&lt;Path&gt;" fill="none" id="99047ab1-29f5-41c5-9e7e-f1acf27a0cb6" points="43 19 37 19 35 19 32 19 29 19 27 19 26 19 24 19 21 19 18 19 16 19 15 19 13 19 11 19 8 19 23 13 26 13 27 13 30 13 33 13 35 13 43 13 51 13 58 13" stroke="#001c63" stroke-linecap="round" stroke-linejoin="round" stroke-width="2"/><polygon data-name="&lt;Path&gt;" fill="none" id="12d7a934-3358-4c62-8fce-d7b56a30f66c" points="43 54 45.07 53.17 49.21 51.52 50.07 51.17 58 48 58 39 58 13 53.86 14.66 50.93 15.83 48.86 16.66 45.93 17.83 43 19 43 35 43 44 43 51 43 54" stroke="#001c63" stroke-linecap="round" stroke-linejoin="round" stroke-width="2"/><path d="M46,18s.5,13.5,1,15-.83,6.17,0,10-2,10-2,10" data-name="&lt;Path&gt;" fill="none" id="23a3c309-e469-4776-8433-ee125792807a" stroke="#001c63" stroke-linecap="round" stroke-linejoin="round"/><path d="M51,16s2.9,15.42,3,17c.58,9.58-3.83,4.17-3,8s-1,10-1,10" data-name="&lt;Path&gt;" fill="none" id="9ed2cbed-157d-4e5c-b8ef-a685e89ee4b2" stroke="#001c63" stroke-linecap="round" stroke-linejoin="round"/><path d="M49,17a21.27,21.27,0,0,0,2,11c.66,1.44-2.83,11.17-2,15a22.59,22.59,0,0,1,0,8" data-name="&lt;Path&gt;" fill="none" id="b884ed1c-19d9-486d-8aca-760f15c13abe" stroke="#001c63" stroke-linecap="round" stroke-linejoin="round"/><path d="M53,49s-.33-6.67,1-8,.83-2.5,2,0c1,2.11,2.17,5.08,1,7" data-name="&lt;Path&gt;" fill="none" id="92461927-d6ca-4e1f-a2ad-811ef4c2167e" stroke="#001c63" stroke-linecap="round" stroke-linejoin="round"/><path d="M54,15s.08,5.25,1,8,0,13.83,3,16" data-name="&lt;Path&gt;" fill="none" id="cef8aa78-b140-4103-9620-f3499a4becae" stroke="#001c63" stroke-linecap="round" stroke-linejoin="round"/><path d="M11,19S9.88,37,12,40s-1.88,10.25-1,13" data-name="&lt;Path&gt;" fill="none" id="cce1cc79-504c-45bd-9cfb-a6cb2df80336" stroke="#001c63" stroke-linecap="round" stroke-linejoin="round"/><path d="M13,19s2.62,9.88,2,11-3,2-2,3,3.38-.62,3,2-1.12,9.75,0,13a18,18,0,0,1,1,6" data-name="&lt;Path&gt;" fill="none" id="647e2ae1-4f41-43f6-b482-4974bd87f88e" stroke="#001c63" stroke-linecap="round" stroke-linejoin="round"/><path d="M19,53s-1.25-7.88,0-11,1.62-9.75,4-10,4.12-.12,4,7,2.75,9.38,2,14" data-name="&lt;Path&gt;" fill="none" id="37cdad53-16b1-403b-b0b6-2105b1d5651b" stroke="#001c63" stroke-linecap="round" stroke-linejoin="round"/><path d="M16,19s.75,9,2,10,2.88,0,4-5,2-5,2-5" data-name="&lt;Path&gt;" fill="none" id="4b11c791-c6cf-40c3-87b9-ec59e4df6b6c" stroke="#001c63" stroke-linecap="round" stroke-linejoin="round"/><path d="M26,19s-2.38,6.75,0,9,2.5,3.62,3,10,3.12,11.88,2,16" data-name="&lt;Path&gt;" fill="none" id="33cff55f-29f7-4fb4-9966-14469afab8c1" stroke="#001c63" stroke-linecap="round" stroke-linejoin="round"/><path d="M29,19s-1.75,5.88-1,7,4,.75,4,5,.88,3.12,2,8,8.38,6.38,9,12" data-name="&lt;Path&gt;" fill="none" id="1a105066-a7a5-48e1-8d7e-e192b55b88e2" stroke="#001c63" stroke-linecap="round" stroke-linejoin="round"/><path d="M31,38a28.35,28.35,0,0,0,2,8,15.19,15.19,0,0,1,1,8" data-name="&lt;Path&gt;" fill="none" id="7ac5cc79-98be-44ac-9f48-91b15f674adc" stroke="#001c63" stroke-linecap="round" stroke-linejoin="round"/><path d="M32,20s-1.62,3.5,0,5,4.38,1.88,4,8,2.75,8,4,10a2.2,2.2,0,0,0,3,1" data-name="&lt;Path&gt;" fill="none" id="27f7a79b-9b5f-4270-adbd-3d1fd6ee4326" stroke="#001c63" stroke-linecap="round" stroke-linejoin="round"/><path d="M34,43s-.17,3.58,4,5,4,6,4,6" data-name="&lt;Path&gt;" fill="none" id="debd94a7-4c02-495a-ac39-ff68d930dabd" stroke="#001c63" stroke-linecap="round" stroke-linejoin="round"/><path d="M26,54c-.08-1.59-.35-6.54-1-8-.75-1.75-2-4.33-1-6s.67-4.67-1-2.75c0,0-3.17,4.46-2,7.13,1,2.24,1,7.9,1,9.62,0,.32,0,.5,0,.5h4S26,54.32,26,54Z" data-name="&lt;Path&gt;" fill="none" id="2aa5c2ab-289f-4bcd-8643-ebbf9997a019" stroke="#001c63" stroke-linecap="round" stroke-linejoin="round"/><path d="M18,19s-.5,4.92,0,6,1.75,1.58,2-1a28.51,28.51,0,0,1,1-5" data-name="&lt;Path&gt;" fill="none" id="0d1602d3-45f6-47d7-91d4-395d75c4d3f2" stroke="#001c63" stroke-linecap="round" stroke-linejoin="round"/><path d="M35,49a8.63,8.63,0,0,0,3,2,3.23,3.23,0,0,1,2,3" data-name="&lt;Path&gt;" fill="none" id="eb6a0e23-ef43-4118-ac03-4ac54d086f6b" stroke="#001c63" stroke-linecap="round" stroke-linejoin="round"/><path d="M15,19s5.58-1.08,7-3a10.91,10.91,0,0,1,4-3" data-name="&lt;Path&gt;" fill="none" id="50029601-5f6a-49f2-bf22-f1c9e07f3859" stroke="#001c63" stroke-linecap="round" stroke-linejoin="round"/><path d="M27,13s-3.58,2.83-2,3,3.92-3,5-3,1,2.08-1,3-2.83,2.83-2,3" data-name="&lt;Path&gt;" fill="none" id="af223d6a-31ef-407c-8e3f-db578dc504fb" stroke="#001c63" stroke-linecap="round" stroke-linejoin="round"/><path d="M51,13s-5.67.5-6,2-2.33.83-4,2a19.77,19.77,0,0,1-4,2s-1.5,5.88,1,8,1.5,11.75,5,8" data-name="&lt;Path&gt;" fill="none" id="425730a2-e25d-4ae6-b839-632be03c89ab" stroke="#001c63" stroke-linecap="round" stroke-linejoin="round"/><path d="M43,13s-.83,2.17-4,2-4-2-4-2" data-name="&lt;Path&gt;" fill="none" id="7b2d181a-f79e-40e4-be5d-9bbd63970121" stroke="#001c63" stroke-linecap="round" stroke-linejoin="round"/><path d="M33,13s1.33,1.25,2,2,1.5.17,2,1-2,3-2,3" data-name="&lt;Path&gt;" fill="none" id="a404c17d-37e4-44fa-abf7-f0381e27a7bf" stroke="#001c63" stroke-linecap="round" stroke-linejoin="round"/></g></g></svg>