<?xml version="1.0"?><svg id="Layer_1" style="enable-background:new 0 0 84.893593 64.278488;" version="1.1" viewBox="0 0 84.893593 64.278488" xml:space="preserve" xmlns="http://www.w3.org/2000/svg" xmlns:xlink="http://www.w3.org/1999/xlink"><style type="text/css">
	.st0{opacity:0.5;fill:#231F20;enable-background:new    ;}
	.st1{fill:#FFFFFF;}
	.st2{fill:#22093A;stroke:#22093A;stroke-linecap:round;stroke-linejoin:round;}
	.st3{fill:#EC6509;stroke:#22093A;stroke-linecap:round;stroke-linejoin:round;}
	.st4{fill:#9736FF;stroke:#22093A;stroke-linecap:round;stroke-linejoin:round;}
	.st5{fill:#FFFFFF;stroke:#22093A;stroke-linecap:round;stroke-linejoin:round;}
	.st6{fill:#F1F2F2;stroke:#22093A;stroke-linecap:round;stroke-linejoin:round;}
	.st7{fill:none;stroke:#FFFFFF;stroke-linecap:round;stroke-linejoin:round;}
	.st8{fill:none;stroke:#22093A;stroke-linecap:round;stroke-linejoin:round;}
</style><g id="Layer_2_00000010989078352525465700000005017805148108769425_"><g id="Layer_1-2"><path class="st0" d="M70.977158,13.50408l-0.000999-0.00049c-4.873009-3.257382-10.109211-5.935464-15.602539-7.98    c-0.341988-0.995897-0.952698-1.877835-1.764618-2.54832c-1.555065-1.38189-3.672604-1.945866-5.709-1.52051    c-0.886826,0.210965-1.712132,0.626123-2.41016,1.2124C38.269997,1.007498,30.796907,0.762934,23.483999,1.947    C7.444,4.63982-1.26112,15.45769,0.76329,30.178391c1.47754,10.741699,10.80566,18.081062,15.916,21.35059l-4.39063,7.117191    c-1.142767,1.602146-0.770369,3.827335,0.831778,4.970104c0.595935,0.425068,1.308321,0.656284,2.040293,0.662212    c0.486304,0.000084,0.967269-0.101364,1.41211-0.297852l13.070309-5.76709    c3.67873,1.051273,14.547852,3.869144,25.381851,3.868652c0.074219,0,0.147461,0,0.220699-0.000488    c0.322128,0.333107,0.682354,0.627129,1.073238,0.875999c1.245739,0.802773,2.758286,1.08062,4.208,0.772999    c1.506111-0.353966,2.837948-1.230457,3.758812-2.473709c1.075363-0.210079,2.139526-0.473919,3.188477-0.790531    C76.191002,57.81414,83.248642,49.375172,84.637306,39.944C85.506447,34.048,84.886337,22.772631,70.977158,13.50408z"/><path class="st1" d="M70.50325,12.29983l-0.000999-0.00049c-4.873009-3.257381-10.109211-5.935464-15.602539-7.98    C54.557724,3.323437,53.947014,2.441493,53.13509,1.771c-1.555065-1.38189-3.672604-1.945866-5.709-1.52051    c-0.886829,0.210964-1.712132,0.626126-2.41016,1.21241C37.796089-0.19678,30.323-0.441356,23.01009,0.7427    C6.97005,3.43557-1.735,14.25344,0.28939,28.97415c1.47754,10.74169,10.80566,18.080999,15.916001,21.35058l-4.39062,7.117191    c-1.14277,1.602142-0.770373,3.827335,0.831771,4.970104c0.595936,0.425068,1.308325,0.656284,2.040299,0.662216    c0.486303,0.000084,0.967268-0.101364,1.41211-0.297852L29.16927,57.0093c3.67873,1.05127,14.547852,3.869141,25.38184,3.868698    c0.074211,0,0.147461,0,0.220699-0.000481c0.322132,0.333103,0.682358,0.627125,1.073238,0.875999    c1.245739,0.802773,2.758286,1.080624,4.208,0.772999c1.506092-0.353947,2.837917-1.230412,3.758789-2.473629    c1.075363-0.210072,2.139519-0.473915,3.188469-0.790531c8.716797-2.65234,15.774422-11.091309,17.163086-20.522461    C85.032547,32.843769,84.41243,21.56838,70.50325,12.29983z"/><path class="st2" d="M68.562424,15.21289C56.630161,7.26124,40.719818,1.68318,24.53694,4.40021    C10.41741,6.77081,2.92632,15.77041,4.705,28.703659s17.3144,20.60545,17.3144,20.60545l-7.33315,10.265892l14.24652-6.286129    c0,0,22.429501,7.0742,37.049606,2.62571C79.825562,51.702518,90.010712,29.50605,68.562424,15.21289z"/><path class="st3" d="M67.614609,15.008C55.682362,7.05632,39.771999,1.47826,23.58913,4.19529    C9.46961,6.56589,1.97851,15.5655,3.7572,28.498739s17.3144,20.605452,17.3144,20.605452l-6.2785,10.176517l14.01944-6.56189    c0,0,21.601919,7.439362,36.222,2.990871C78.877762,51.497601,89.062897,29.30113,67.614609,15.008z"/><path class="st4" d="M46.16452,5.88085c-0.400047,1.387932,0.400795,2.837374,1.788727,3.23742    c0.37114,0.106974,0.761364,0.130416,1.142643,0.06864c2.006691-0.45162,3.651279-3.18018,1.796711-4.7271    S46.887001,3.44551,46.16452,5.88085z"/><path class="st5" d="M22.4004,9.02542c-1.37327-0.01594-1.659901,1.35794-1.53911,2.40858    c0.14123,1.22854,2.69232,2.12752,3.259211,0.2824C24.57933,10.223,24.043579,9.04448,22.4004,9.02542z"/><path class="st5" d="M56.71706,56.216789c-0.350471,1.215847,0.351051,2.4856,1.566898,2.836071    c0.325146,0.093723,0.667015,0.114262,1.001041,0.060139c1.757889-0.39563,3.19857-2.785889,1.57394-4.140999    S57.349998,54.083401,56.71706,56.216789z"/><path class="st2" d="M29.226801,20.753469c-1.612711-0.16749-2.738609,1.630171-3.29348,5.837481    c-0.46034-0.077539-0.958839-0.132999-1.48193-0.176451c0.41065-3.66914,0.038879-5.68124-1.79068-5.87117    c-1.757-0.18248-2.93819,1.95892-3.43029,7.01749c-0.4921,5.058512-0.11117,8.105852,2.216,8.177839    c1.13913,0.035252,1.789841-1.969719,2.30225-4.70616c0.259001,0.018801,0.5298,0.02968,0.823259,0.025101    c0.37254-0.005831,0.714371-0.028879,1.038469-0.06259c-0.016001,3.100899,0.62339,4.89875,2.402109,4.953781    c1.53014,0.047359,2.179359-3.583801,2.79521-7.72843C31.50362,23.5375,31.306511,20.969391,29.226801,20.753469z"/><path class="st2" d="M37.704411,37.30463c1.673653-0.187576,2.967796-1.555256,3.062679-3.23671    c0.291328-1.974392,1.351791-11.47953-3.59742-12.156c-2.576061-0.352079-4.788921,2.26717-6.15094,5.44025    c-1.47769,3.442579-2.67,8.74333-0.661249,9.189001c3.226809,0.71587,5.49679-8.50687,5.49679-8.50687    S34.504002,37.540562,37.704411,37.30463z"/><path class="st2" d="M44.049129,23.315439c-2.60173,0.578501-5.38419,14.06048-1.692001,14.463072    s3.636478-6.430799,3.636478-6.430799s1.199791,6.787001,4.347382,6.737391c3.608212-0.05682,5.958328-14.30595,3.158871-14.92308    c-3.772068-0.831551-4.993851,5.228119-4.993851,5.228119S47.27544,22.598061,44.049129,23.315439z"/><path class="st2" d="M16.35269,19.347759c-5.82327-0.694201-7.77809,0.601419-7.51214,2.533381    c0.39965,2.903139,4.14357,2.82626,4.14357,2.82626s-3.3365,9.567411,0.55126,10.115812    c4.84708,0.683708,3.438-9.99588,3.438-9.99588s5.642561,0.87311,5.67835-1.526699    C22.68181,21.2841,20.25539,19.813,16.35269,19.347759z"/><path class="st2" d="M56.10709,23.963511c-2.538151,0.199751-5.223511,14.108801-2.613468,15.252409    c3.07111,1.34565,4.925079-4.963001,4.925079-4.963001s1.647629,5.615269,3.057411,6.065659    c3.744408,1.196239,4.03492-3.590721,0.781879-8.24926c0,0,6.79118-3.9035,3.254681-6.392559    c-2.449001-1.72365-6.404999,4.568871-6.404999,4.568871S59.655239,23.684271,56.10709,23.963511z"/><path class="st2" d="M75.136467,30.304239c0.247269-1.742001-0.484779-3.93894-4.308777-4.34656    c-3.764999-0.40134-6.970169,4.21146-3.514,6.919781c3.20031,2.507801,1.722,4.6856,0.399002,3.131222    c-2.544876-2.990002-6.390491,1.862999-2.72641,4.509521c3.664078,2.646523,8.46859,0.97649,9.423416-1.49395    c1.80867-4.6796-1.760002-6.121269-3.343613-7.18643C71.066147,31.83782,74.759064,32.963001,75.136467,30.304239z"/><path class="st6" d="M28.938499,20.181179c-1.612709-0.1675-2.738609,1.630159-3.29348,5.837471    c-0.46035-0.077539-0.958839-0.132999-1.48193-0.176451c0.41065-3.66913,0.03887-5.68124-1.79068-5.871161    c-1.757-0.182489-2.93819,1.95892-3.43029,7.017479s-0.11117,8.10585,2.216,8.177841    c1.13913,0.035259,1.789841-1.969711,2.30225-4.70616c0.259001,0.01881,0.5298,0.02969,0.823259,0.02511    c0.37254-0.005831,0.714371-0.028879,1.038469-0.06259c-0.016001,3.100889,0.62339,4.898748,2.402111,4.953779    c1.53014,0.047359,2.179359-3.583799,2.79521-7.72843C31.215321,22.9652,31.018209,20.397091,28.938499,20.181179z"/><path class="st6" d="M43.76083,22.743151c-2.60173,0.578501-5.38419,14.060469-1.692001,14.46306    s3.636478-6.43079,3.636478-6.43079s1.199791,6.786999,4.347382,6.737389c3.608212-0.056831,5.958328-14.306,3.158871-14.92309    c-3.772068-0.831539-4.993851,5.22813-4.993851,5.22813S46.987141,22.02577,43.76083,22.743151z"/><path class="st6" d="M16.06439,18.775471c-5.82328-0.694201-7.77809,0.601419-7.51214,2.533371    c0.39965,2.903141,4.14357,2.826271,4.14357,2.826271s-3.3365,9.567402,0.55126,10.115799    c4.84708,0.68372,3.438-9.99588,3.438-9.99588s5.642561,0.873119,5.67835-1.526699    C22.393499,20.711809,19.967091,19.240709,16.06439,18.775471z"/><path class="st6" d="M55.81879,23.391211C53.28064,23.591,50.59528,37.5,53.205318,38.643631    c3.07111,1.345638,4.925079-4.963001,4.925079-4.963001s1.647629,5.615269,3.057411,6.065659    c3.744396,1.196239,4.034924-3.590721,0.781879-8.24926c0,0,6.791183-3.9035,3.254677-6.39257    c-2.449001-1.72365-6.404999,4.568871-6.404999,4.568871S59.36694,23.112,55.81879,23.391211z"/><path class="st6" d="M74.848167,29.731939c0.247269-1.742001-0.484787-3.938931-4.308777-4.34656    c-3.764999-0.401329-6.970169,4.21147-3.514,6.919781c3.20031,2.507801,1.722,4.685608,0.399002,3.131229    c-2.544868-2.990002-6.39048,1.862999-2.726402,4.509521s8.46859,0.97649,9.423424-1.49395    c1.80867-4.6796-1.760002-6.121269-3.343613-7.18643C70.777847,31.26553,74.470757,32.390678,74.848167,29.731939z"/><path class="st6" d="M36.881378,21.339649c-2.57608-0.35211-4.788948,2.267151-6.15094,5.440239    c-1.477671,3.44256-2.67,8.74332-0.661261,9.188999c1.52573,0.338459,2.837-1.545319,3.796091-3.625172l1.441719,0.268398    c0.10685,2.192871,0.605999,4.230999,2.109112,4.120201c1.673653-0.187557,2.9678-1.555237,3.062679-3.236691    C40.770142,31.5212,41.830559,22.016109,36.881378,21.339649z M35.566002,27.462c0,0-0.17585,1.24386-0.25,2.818899    L34.730263,30.1929C35.265579,28.67886,35.566002,27.462,35.566002,27.462z"/><path class="st4" d="M37.82431,47.157619c-0.400166,1.388374,0.400936,2.838272,1.78931,3.238438    c0.371246,0.107002,0.761585,0.130451,1.142971,0.068661c2.007309-0.451771,3.652409-3.181171,1.79726-4.728569    S38.547001,44.721531,37.82431,47.157619z"/><path class="st7" d="M40.670399,46.922001c-0.60368,0.163734-0.960327,0.785843-0.796593,1.389523    c0.017796,0.065613,0.041462,0.12949,0.070713,0.190857"/><path class="st7" d="M48.778,5.21532c-0.515209,0.139729-0.819599,0.670662-0.679871,1.185872    c0.01519,0.056005,0.035393,0.110528,0.06036,0.162908"/><path class="st7" d="M8.2545,34.515671c0.277333,0.524075,0.57964,1.056854,0.90692,1.598339"/><path class="st7" d="M11.33148,11.93844c-1.662545,1.470096-3.045517,3.228747-4.08215,5.19105    C5.6219,20.37854,4.35,25.5126,7.19625,32.28756"/><path class="st7" d="M16.85062,8.3828c-0.915968,0.36235-1.794709,0.812515-2.62393,1.3442"/><line class="st7" x1="22.36371" x2="19.62277" y1="51.271629" y2="54.6492"/><path class="st8" d="M65.57074,52.091282c-0.683762,0.272213-1.382454,0.505322-2.09269,0.6982"/><path class="st8" d="M73.964539,45.185219c-1.344116,2.154522-3.15844,3.976887-5.306999,5.330509"/><path class="st7" d="M33.635658,5.808c0.365513,0.021334,0.730366,0.048556,1.094551,0.08167"/><path class="st7" d="M19.85062,7.33275c3.995358-1.064986,8.11409-1.596519,12.24892-1.58075"/></g></g></svg>