<svg xmlns="http://www.w3.org/2000/svg" viewBox="0 0 500 500"><g id="freepik--Background--inject-627"><ellipse id="freepik--background--inject-627" cx="250" cy="250" rx="237.34" ry="231.54" style="fill:#37474f"></ellipse></g><g id="freepik--Shapes--inject-627"><g id="freepik--Waves--inject-627"><path d="M329.24,281.29c-12-8.88-26.92-13.18-41.67-16.17-47.24-9.57-95.72,3.48-144.16-13.67A105.1,105.1,0,0,1,122,241.16l-.14-.09a54.24,54.24,0,0,1-10.15-8l-.13-.13c-10.15-9.7-15.12-22.91-11.05-37.34.15-.5.28-1,.43-1.55,4-13.45,17.37-24.89,28.14-34.61a20.76,20.76,0,0,1-2.67-5.65l-.67.12c-15.23,5.92-55.69,28.75-49.25,67.82,4.43,26.84,23.83,44.39,55.65,56,25.8,9.41,52.81,9.58,68.54,9.88,27.49.54,55-2.55,82.45-.55,8.67.63,21.13,3.66,25.53,12,5.43,10.24-6.09,21.64-14.2,26.3-19.79,11.37-42.69,16.21-65.28,20-33.83,5.7-66.49,7.29-103.29,16.1-15.58,3.73-25.82,7.93-40,15.66-10.64,5.8-17.38,12-21.36,17.42a233.49,233.49,0,0,0,17.57,19.15,236.35,236.35,0,0,0,18.62,16.36,77.43,77.43,0,0,1,27.09-31c6.54-4.29,14.83-7.7,22.29-10.14,8.64-2.83,17.63-4.45,26.59-5.91l101.62-16.58c15.17-2.48,30.65-5.06,44.18-12.24s25-19.93,26.26-35C350.09,304.46,341.28,290.18,329.24,281.29Z" style="fill:#BA68C8;opacity:0.4"></path><path d="M385.73,257.65c-15.54-13.39-36.14-20-56.65-22.46s-41.28-1.22-61.94-.78q-37.11.81-74.18-1.92c-15.86-1.17-32.05-2.93-46.4-9.68s-21.37-12.89-24.79-26c-2.82-10.81,1.37-21.3,11-33.18-.18-.15-.36-.31-.54-.49a4.89,4.89,0,0,1-.52-.5,21.08,21.08,0,0,1-2.58-3.13C118.37,169.2,105,180.64,101,194.09c-10.21,34.36,25.66,51.43,42.41,57.36,48.44,17.15,96.92,4.1,144.16,13.67,14.75,3,29.63,7.29,41.67,16.17s20.85,23.17,19.59,37.92c-1.28,15.06-12.74,27.81-26.26,35s-29,9.76-44.18,12.24L176.77,383c-9,1.46-18,3.08-26.59,5.91-7.46,2.44-15.75,5.85-22.29,10.14a77.43,77.43,0,0,0-27.09,31c59.83,47.29,137.74,62,208.81,44.05a92.58,92.58,0,0,1,31.56-69.74c7.52-6.6,16.17-10.24,24.24-15.7,18.72-12.68,34.83-30.45,42-51.41.8-3.84,2.27-7.52,2.95-11.43C414.68,301,405,274.26,385.73,257.65Z" style="fill:#BA68C8;opacity:0.30000000000000004"></path><path d="M449,349.44c4.09-22,2.39-35.51-2.5-52.64-11.09-38.9-34.83-75.48-93.87-89.7-55.62-13.39-89.32-8.86-135.9-3.4-16,1.87-54.87,8.61-71.82-9-10.55-11-6.53-24.26-5.44-26.85-.29-.13-.58-.25-.86-.39l-.46-.22c-.22-.1-.43-.21-.63-.32l-.78-.42c-.64-.37-1.24-.74-1.8-1.13-.27-.18-.53-.36-.79-.56s-.49-.37-.72-.57a7.68,7.68,0,0,1-.69-.59c-9.64,11.88-13.83,22.37-11,33.18,3.42,13.14,10.44,19.28,24.79,26s30.54,8.51,46.4,9.68q37,2.73,74.18,1.92c20.66-.44,41.42-1.71,61.94.78s41.11,9.07,56.65,22.46c19.29,16.61,28.95,43.36,24.64,68.2-4.5,25.94-22.93,47.91-45,62.84-8.07,5.46-16.72,9.1-24.23,15.7a92.53,92.53,0,0,0-31.57,69.74,237.73,237.73,0,0,0,104-56.36C420,409.76,442.31,385.74,449,349.44Z" style="fill:#BA68C8;opacity:0.2"></path><path d="M63.09,225.47c9,33.36,47.63,63.22,88,68.58C109.1,299,60.67,262.26,63.09,225.47Z" style="fill:#BA68C8;opacity:0.25"></path><path d="M333.16,194.12c27.26,2.84,58,11.94,79.28,30.62s35.29,41.55,38.15,61.22C453.94,248.3,417.69,186.6,333.16,194.12Z" style="fill:#BA68C8;opacity:0.25"></path></g></g><g id="freepik--Shadow--inject-627"><path id="freepik--shadow--inject-627" d="M253.38,445.38c9.11-5.84,15.11-12.69,23.89-19.89a101.66,101.66,0,0,1,13.54-9.37c7.22-4.18,14.95-7.48,22-12,6.28-4.06,14.12-10.36,16.15-18,1.63-6.14-2.44-13.93-7.53-17.19-10.35-6.63-26.88-4.47-36.65,2.32a73.17,73.17,0,0,0-8.52,7.42,305.59,305.59,0,0,1-36.17,29.53c-5.3,3.69-11.22,5.54-16.78,8.82-6.61,3.9-13.08,8-19.36,12.4a26.91,26.91,0,0,0-6.51,5.84,10.49,10.49,0,0,0-2.12,8.25,10.64,10.64,0,0,0,4.74,6.3c9.78,6.48,22,6.21,33.14,4.52C239.91,453.33,249.08,448.15,253.38,445.38Z" style="fill:#263238"></path></g><g id="freepik--Character--inject-627"><g id="freepik--character--inject-627"><g id="freepik--Bottom--inject-627"><polygon points="311.69 366.38 304.31 368.74 303.15 363.43 309.22 363.92 311.69 366.38"></polygon><path d="M309.53,351.51s3.14,3.52,4.1,4.64-1.17,8.66-1.94,10.23l-2.47-2.46c-.23,1.9.2,3.76.61,6.65.35,2.42,1.2,6.76.24,11-1.41,6.26-4.86,9.47-11.72,13.46-11.94,6.95-21,6.17-23.75,5.57-3.29-.72-5.1-3-4.28-5S309.53,351.51,309.53,351.51Z"></path><path d="M275,398.9a18.6,18.6,0,0,0,6.2.21,37.21,37.21,0,0,0,14.11-5q2.09-1.18,4.05-2.55c.67-.45,1.32-.92,2-1.41a24.15,24.15,0,0,0,5.47-5.35c4.62-6.6-.05-13.2.56-20.34.32-3.75,2.95-9.33,2.14-12.93-.44-2-3.44-5.05-6.1-7.57-2.43-2.32-5.67-6.26-6.89-4.77l.95,1.42c.3,1.63.38,4.62-3.15,8.5C292.57,351,286.66,356,283,352l-1.77-2.08c-1.17.87,1.13,4.08,1.6,8.12a84.74,84.74,0,0,1,.58,11.48,17.11,17.11,0,0,1-2.17,8.51,39.74,39.74,0,0,1-3.76,5.11l-4.68,5.7a16.38,16.38,0,0,0-1.64,2.25,9.06,9.06,0,0,0-1,3,3.35,3.35,0,0,0,.47,2.67,3.26,3.26,0,0,0,1,.79A13.09,13.09,0,0,0,275,398.9Z" style="fill:#37474f"></path><path d="M291.16,351.77c-2.08,1.36-4.67,2.37-6.85,1.27l-.08,0s2.56,2.64,2.07,14.8c-.14,3.55-4.84,17.5-4.84,17.5s4.12-6.18,6-17.52,1-13.74,3.69-16Z" style="opacity:0.15"></path><path d="M291.73,357.72a.79.79,0,0,0,1.13-1.11.79.79,0,0,0-1.12,0A.78.78,0,0,0,291.73,357.72Z" style="opacity:0.15"></path><path d="M291.33,363.38a.79.79,0,1,0,1.12-1.11.79.79,0,0,0-1.12,1.11Z" style="opacity:0.15"></path><path d="M291.44,369.05a.79.79,0,1,0,.16-1.11A.79.79,0,0,0,291.44,369.05Z" style="opacity:0.15"></path><path d="M290.76,375.23a.79.79,0,1,0,.29-1.08A.78.78,0,0,0,290.76,375.23Z" style="opacity:0.15"></path><path d="M287.81,381.76a.8.8,0,0,0,1,.41.79.79,0,1,0-1-.41Z" style="opacity:0.15"></path><path d="M292.51,357.4a.35.35,0,0,0,.1-.2.32.32,0,0,0-.28-.35c-.22,0-5.47-.54-9.21,2.77h0a.32.32,0,1,0,.43.47c3.52-3.12,8.66-2.61,8.71-2.61A.33.33,0,0,0,292.51,357.4Z" style="fill:#263238"></path><path d="M292.09,363.05a.31.31,0,0,0,.11-.2.32.32,0,0,0-.28-.35c-.23,0-5.47-.54-9.21,2.77h0a.33.33,0,0,0,0,.45.32.32,0,0,0,.45,0c3.52-3.11,8.66-2.61,8.71-2.61A.31.31,0,0,0,292.09,363.05Z" style="fill:#263238"></path><path d="M292.25,368.83a.34.34,0,0,0,.13-.18.33.33,0,0,0-.23-.39c-.22-.05-5.35-1.27-9.5,1.51h0a.32.32,0,0,0,.36.52c3.9-2.61,8.93-1.42,9-1.41A.33.33,0,0,0,292.25,368.83Z" style="fill:#263238"></path><path d="M291.59,375.11a.31.31,0,0,0,.15-.17.32.32,0,0,0-.19-.41c-.21-.07-5.16-1.88-9.6.38h0a.31.31,0,0,0-.13.42.32.32,0,0,0,.43.14c4.18-2.14,9-.37,9.09-.35A.33.33,0,0,0,291.59,375.11Z" style="fill:#263238"></path><path d="M288.66,381.74a.38.38,0,0,0,.16-.15.32.32,0,0,0-.14-.43c-.2-.1-4.91-2.45-9.58-.7h0a.33.33,0,0,0-.18.41.32.32,0,0,0,.41.18c4.4-1.65,9,.65,9.07.68A.36.36,0,0,0,288.66,381.74Z" style="fill:#263238"></path><path d="M219.06,202.79s-6.12,23.93-9.89,60.33c-2.9,28-2.56,34.24,7.51,45,11,11.71,61.23,48.8,65.36,53.39,0,0,17.74-4.22,20.34-19.87,0,0-14.19-19.45-25.71-35.6-11.2-15.68-19.25-20.19-19.25-20.19l19.65-72.39Z" style="fill:#455a64"></path><path d="M276.67,306c-11.2-15.68-19.25-20.19-19.25-20.19l16.3-60-46.94-.11c2.31,11,13.31,21.88,13.31,21.88s-3.76,34.05-5.65,50.63a150.09,150.09,0,0,0-.28,25.16c14.52,11.78,33.33,26.1,42.55,33.54a94.21,94.21,0,0,0,2.18-19.12c0-11.09-1.66-17.32-1.66-17.32l3.12-9.29C279.11,309.44,277.87,307.71,276.67,306Z" style="fill:#37474f"></path><path d="M224.57,241.3c-2.12,12.56-5.47,30.06-6.69,42.54-.51,6.84-1.5,14.39,1,20.86a44,44,0,0,0,5.65,8.95,65.39,65.39,0,0,0,7.34,7.83,53.52,53.52,0,0,1-8.12-7.16c-3.62-4-7.25-8.75-8-14.31s-.45-10.95,0-16.38a250.2,250.2,0,0,1,8.79-42.33Z" style="fill:#37474f"></path><polygon points="257.51 428.61 249.97 425.94 252.34 420.85 257.02 425.04 257.51 428.61"></polygon><path d="M265,415s.37,4.85.47,6.37-6.38,6.39-8,7.2L257,425c-1.37,1.42-2.19,3.21-3.66,5.85-1.22,2.2-2.76,6.35-6.18,9.22-5.08,4.26-13.06,6.51-21.24,6.94s-12.9-1.49-15.25-3.22-3.13-3.78-2.58-5.85S265,415,265,415Z"></path><path d="M242.88,398.85l-.15-2.82c-1.51,0-1.62,4.06-3.76,7.68-2.88,4.85-7.14,11-11.28,14.83-8.17,7.66-15.5,12.5-19.14,15.95-4.88,4.61,3.94,11.67,17.28,10.71,6.62-.48,18.34-4,21.59-7.94s5.18-10.06,7.78-12.94,8.24-5.82,9.84-9.28c.87-1.9.32-6.3-.28-10-.56-3.43-.75-8.7-2.69-8.24l-.11,1.77c-.77,1.52-2.57,4-7.9,5C251.4,404.05,243.44,404.42,242.88,398.85Z" style="fill:#37474f"></path><path d="M249.77,403.77c-2.55-.18-5.31-1-6.42-3.25l0-.07a6.41,6.41,0,0,1-1.63,5.44c-2.34,2.82-17.1,22.67-17.1,22.67s13.77-16.4,16.41-19.49c3.91-4.57,5.16-5.11,8.8-5.3Z" style="opacity:0.15"></path><path d="M246.52,409a.83.83,0,0,0,.92.71.82.82,0,0,0,.7-.91.8.8,0,0,0-.91-.7A.81.81,0,0,0,246.52,409Z" style="opacity:0.15"></path><path d="M242.65,413.41a.83.83,0,0,0,.92.71.82.82,0,1,0-.92-.71Z" style="opacity:0.15"></path><path d="M238.78,417.81a.81.81,0,0,0,.92.7.8.8,0,0,0,.7-.9.81.81,0,0,0-.91-.71A.82.82,0,0,0,238.78,417.81Z" style="opacity:0.15"></path><path d="M234.91,422.21a.82.82,0,0,0,.92.7.81.81,0,0,0-.21-1.61A.82.82,0,0,0,234.91,422.21Z" style="opacity:0.15"></path><path d="M231,426.61a.82.82,0,0,0,.92.7.81.81,0,1,0-.92-.7Z" style="opacity:0.15"></path><path d="M247.36,409.24a.32.32,0,0,0,.21-.1.33.33,0,0,0,0-.47c-.17-.15-4.16-3.86-9.29-3.48h0a.34.34,0,0,0-.3.35.34.34,0,0,0,.36.31c4.84-.36,8.75,3.26,8.79,3.3A.3.3,0,0,0,247.36,409.24Z" style="fill:#263238"></path><path d="M243.49,413.62a.35.35,0,0,0,.21-.1.32.32,0,0,0,0-.46c-.17-.16-4.16-3.86-9.3-3.48h0a.33.33,0,0,0-.3.35.33.33,0,0,0,.35.3c4.84-.36,8.76,3.27,8.8,3.3A.3.3,0,0,0,243.49,413.62Z" style="fill:#263238"></path><path d="M239.63,418a.28.28,0,0,0,.2-.1.32.32,0,0,0,0-.46c-.17-.16-4.16-3.86-9.29-3.48h0a.33.33,0,0,0-.3.35.33.33,0,0,0,.36.3c4.83-.36,8.75,3.27,8.79,3.31A.34.34,0,0,0,239.63,418Z" style="fill:#263238"></path><path d="M235.76,422.43a.28.28,0,0,0,.2-.1.32.32,0,0,0,0-.46c-.17-.16-4.16-3.86-9.29-3.48h0a.33.33,0,0,0-.3.35.34.34,0,0,0,.36.3c4.84-.36,8.75,3.27,8.79,3.3A.31.31,0,0,0,235.76,422.43Z" style="fill:#263238"></path><path d="M231.89,426.83a.33.33,0,0,0,.19-.56c-.17-.16-4.16-3.86-9.29-3.48h0a.33.33,0,0,0-.3.35.34.34,0,0,0,.36.3c4.84-.36,8.75,3.27,8.79,3.3A.31.31,0,0,0,231.89,426.83Z" style="fill:#263238"></path><path d="M300.15,204.55c.31,10.58.4,17.86.16,25.56-.29,9.6-2.85,19.23-5.86,30.12S276.87,316.14,275.72,320c1.42,8.34,2.94,15.72-.4,33.88-4.83,26.21-9.33,55.05-9.33,55.05S254,416,237,406c0,0-.15-76.7.64-93.86.69-14.9,7.68-65.92,7.68-65.92s-24.41-17.2-26.21-43.46Z" style="fill:#455a64"></path><path d="M259.53,249.65C256.21,272.77,252,295.77,250,319c-2.05,22.84-3,47.09-4.7,69.93.07-23.4.54-46.79,2.6-70.12s6.7-46.33,11.66-69.2Z" style="fill:#37474f"></path><path d="M217.25,209.14c3.2,5.24,14.38,13.51,30.27,16.85s37.67,3.91,53.53-4.48v-6.33s-19.22,9.77-50,3.58c-22.12-4.45-32-17.4-32-17.4Z" style="fill:#37474f"></path><path d="M246.58,216.06c-9.84-2.74-13.4,6.95-2.72,10C256.43,229.72,258.1,219.25,246.58,216.06Z" style="fill:#263238"></path><polygon points="275.88 219.03 276.3 229.99 279.31 229.44 278.9 218.62 275.88 219.03" style="fill:#455a64"></polygon><polygon points="224.79 206.66 220.96 216.94 223.95 217.59 227.73 207.44 224.79 206.66" style="fill:#455a64"></polygon></g><path d="M249,106.93c-14.95-1-23.75,5.48-23.84,19.59-.09,16.11.36,37,.36,37l.69,24.48s6.7,8.57,11.56,7.67,8.25-7.11,9.09-30S249,106.93,249,106.93Z" style="fill:#ebebeb"></path><path d="M188.9,148.57c1.56,4.93,11.57,16.11,15,19.47,0,0,10.12-.87,12.88-10.71-2.81-2.7-4.33-4.22-2.8-8.16a28,28,0,0,0,1.34-3.86c.72-3.2.81-5.51,1.74-8.28a1.79,1.79,0,0,0-.14-1.94,1.35,1.35,0,0,0-1.46-.41,3,3,0,0,0-1.11.59,14.77,14.77,0,0,0-3.11,4.12.56.56,0,0,1-.22.24c-.25.12-.51-.13-.66-.36-1.2-1.83-1.45-4.18-2.77-5.91a2.31,2.31,0,0,0-.54-.54c-1.34-.88-3.58,0-4.86.65a12.65,12.65,0,0,0-4.72,3.93C193.43,142.86,188.9,148.57,188.9,148.57Z" style="fill:#9a4a4d"></path><path d="M200.07,165.05c7.07,10.5,22.12,25.41,27.85,28.63s14.61,3.92,14.92-5.25c.44-13-5.05-16.91-10.23-20.16-12.81-8.06-18-14.37-18-14.37A17.48,17.48,0,0,1,200.07,165.05Z" style="fill:#ebebeb"></path><path d="M222.28,161a56.66,56.66,0,0,1-7.71-7.09,17.48,17.48,0,0,1-14.5,11.15,111,111,0,0,0,9.77,12.12C218.23,174.59,221.65,167,222.28,161Z" style="fill:#BA68C8"></path><path d="M222.28,161a56.66,56.66,0,0,1-7.71-7.09,17.48,17.48,0,0,1-14.5,11.15,111,111,0,0,0,9.77,12.12C218.23,174.59,221.65,167,222.28,161Z" style="fill:#fff;opacity:0.4"></path><circle cx="210.74" cy="173.32" r="1.57" style="fill:#455a64"></circle><path id="freepik--Chest--inject-627" d="M228.13,143.4c5.42-21.5,15.25-32.94,20.88-36.47,3.52-.51,17.54.76,17.54.76a90.6,90.6,0,0,1,20.92,3.06s22.19,11,27.37,17.08c4.47,5.28,4.16,13.38,1,22.75-4.32,12.85-11,23.29-13.83,37.14-1.86,9,2,25.94-1.56,28.84,0,0-13.5,9.67-45.25,5.34-28.77-3.93-36.36-18.41-36.36-18.41C215.7,199.24,222.9,164.13,228.13,143.4Z" style="fill:#f5f5f5"></path><path id="freepik--chest--inject-627" d="M251.57,107.87c5.18,0,14.79.86,14.88.87h.08a90.58,90.58,0,0,1,20.56,3c1.51.75,22.12,11.08,26.94,16.77,3.86,4.56,4.13,11.87.81,21.74-1.67,5-3.73,9.65-5.72,14.19C306,171.57,302.75,179,301,187.51c-.85,4.13-.56,9.66-.28,15,.29,5.56.62,11.86-.9,13.19-.57.39-9.59,6.24-29,6.24a114.25,114.25,0,0,1-15.48-1.11c-27.81-3.79-35.5-17.71-35.57-17.85l0-.07-.05-.07c-2.44-3.3,2.92-33.27,9.46-59.2,5.38-21.33,15.15-32.41,20.23-35.71a20.6,20.6,0,0,1,2.19-.08m0-1.06a21.1,21.1,0,0,0-2.56.12c-5.63,3.53-15.46,15-20.88,36.47-5.23,20.73-12.43,55.84-9.29,60.09,0,0,7.59,14.48,36.36,18.41A116.13,116.13,0,0,0,270.83,223c20.61,0,29.62-6.45,29.62-6.45,3.52-2.9-.3-19.83,1.56-28.84,2.87-13.85,9.51-24.29,13.83-37.14,3.16-9.37,3.47-17.47-1-22.75-5.18-6.11-27.37-17.08-27.37-17.08a90.6,90.6,0,0,0-20.92-3.06s-9.69-.88-15-.88Z" style="fill:#e0e0e0"></path><g id="freepik--Head--inject-627"><path d="M259.9,63.48c-.19-.5-.36-1-.51-1.48a11.39,11.39,0,0,1,.11-6.86,3.94,3.94,0,0,1,2-2.53,5.57,5.57,0,0,1,.8-3.08,3.06,3.06,0,0,1,2.7-1.46,6.56,6.56,0,0,1-.38-3.48,2.19,2.19,0,0,1,1.18-1.81c1.06-.38,2.71.2,3.75.49a33.5,33.5,0,0,0,5.25,1.08c3.71.41,7.45.28,11.17.64A29.27,29.27,0,0,1,299,49.24a17.3,17.3,0,0,1,8.32,13.32c0,.38-.25,3.25-.13,3.33,5.92,4.24,2.67,14.82-.62,19C300,93.47,296.51,96.79,293,101.05h-5.74s-12.63-15-17.7-22.33l-7.11-10.3A24.58,24.58,0,0,1,259.9,63.48Z" style="fill:#263238"></path><path d="M254.44,89.6c.2,5.13,1.94,9.16,6.12,11.16a19.15,19.15,0,0,0,7.07,1.9l-1.34,5.81c-4.92,3.92-1.5,9.91-3.12,13.85,5.36-4.76,19-1.48,27.05-7.55l4.95-20.51s1.84,3.67,6.61,2.2c3.62-1.11,7-6,5.88-11.28s-6-4.34-7.75-3.24c-1.22.79-2.27,2.2-3.77,2.47-3.14.57-3.65-4.29-3.36-6.39a15.62,15.62,0,0,1,1.62-4.67.53.53,0,0,0,.08-.42.55.55,0,0,0-.26-.24,4.19,4.19,0,0,1-2.09-1.84,5.61,5.61,0,0,1-.54-3.42c.44-3.61,2.66-6.71,4.12-10,.56-1.27.52-2.47-1.21-2.33a74.6,74.6,0,0,1-11.17.51A18.59,18.59,0,0,1,272.9,52a2,2,0,0,0-1-.56,1.9,1.9,0,0,0-.81.17,17.35,17.35,0,0,0-9.85,10.1c-1.39,3.73-2.21,7.66-3.8,11.31A39.61,39.61,0,0,0,254.44,89.6Z" style="fill:#b16668"></path><path d="M287.71,71.62l-5.25-3.11a3.05,3.05,0,0,1,5.25,3.11Z" style="fill:#37474f"></path><path d="M261.75,63.76l6.07.58a3,3,0,1,0-6.07-.58Z" style="fill:#37474f"></path><path d="M262.23,90.22a1.62,1.62,0,1,0,1.95-1.2A1.63,1.63,0,0,0,262.23,90.22Z" style="fill:#9a4a4d"></path><path d="M267.63,102.66c7.22.66,13.58-.07,16.94-2.09A14.49,14.49,0,0,0,291,93a13.77,13.77,0,0,1-4.5,8.33c-2.83,2.6-6.31,3.59-10.87,4.12a47.13,47.13,0,0,1-8.58-.26Z" style="fill:#9a4a4d"></path><path d="M290.66,72.25c-.31-.13-.61-.25-.93-.4-3-1.21-7-2.51-9.67-2.55-3.36-.06-4.81.6-6.5.1s-2.23-1.74-4.76-3.47c-2-1.36-5.84-2.39-8.85-2.94l-.93-.17a1.8,1.8,0,0,0-1.58,1.34,3.37,3.37,0,0,0,.13,2.11,1.62,1.62,0,0,1,.1.76,33.26,33.26,0,0,0-.76,5.41c.1,1.53.58,4,4.25,5.17a10,10,0,0,0,2,.37h.17a7.23,7.23,0,0,0,1.79-.16l.11,0,.16,0,.22-.07c.06,0,.13,0,.2-.06a2.09,2.09,0,0,0,.21-.1.63.63,0,0,0,.22-.09c.15-.07.29-.13.43-.21a8.67,8.67,0,0,0,2-1.58c1.51-1.54,2.27-4.06,3.72-4l.17,0,.18.06c1.81.53.55,3.17.83,5.38a9.1,9.1,0,0,0,.21,1.16A6.33,6.33,0,0,0,278,82.6c2.41.87,6,1.08,8.09-.7,1.69-1.48,2.44-3.74,3.47-5.56.42-.74,1-1.16,1.43-1.93S291.47,72.63,290.66,72.25Zm-22.3,1.31a7.07,7.07,0,0,1-.66.92l0,.06-.08.1-.06.06a.9.9,0,0,0-.09.1c-.08.08-.14.15-.22.22s-.13.11-.19.18a.18.18,0,0,1-.08,0,.43.43,0,0,1-.14.12.63.63,0,0,1-.12.1s0,0,0,0a5.36,5.36,0,0,1-5.12.72,4.77,4.77,0,0,1-2-1.12c-1.69-1.61-1.34-4-1.2-5.12.23-1.43.84-4.17,1.69-4.58a3.5,3.5,0,0,1,.89-.24.06.06,0,0,1,.06,0,2,2,0,0,1,.36,0,1.62,1.62,0,0,0,.22,0h.53l.72.08.37.07.23,0,.18,0,.63.17a1,1,0,0,1,.16.06,13.77,13.77,0,0,1,1.31.5c2,.87,3.81,2.41,4.05,3.41S269.21,72.17,268.36,73.56Zm18,4.74s0,0-.07.08l-.06.1a5.52,5.52,0,0,1-.34.49,1.72,1.72,0,0,1-.23.32h0c-.12.16-.26.32-.41.49a1.37,1.37,0,0,1-.16.18.29.29,0,0,0-.09.1l-.12.1-.14.15-.17.14-.18.15-.22.16a6.18,6.18,0,0,1-8.54-2.08,5.66,5.66,0,0,1-.39-3.08c.22-1.59.69-3.39,1.58-4a3,3,0,0,1,1.13-.46l.2,0,.1,0,.51-.08a3.42,3.42,0,0,1,.45,0,11.74,11.74,0,0,1,1.46,0,5.24,5.24,0,0,1,.56,0,11.17,11.17,0,0,1,1.43.17,1.65,1.65,0,0,1,.32.06c3,.59,4.6,1.77,5.05,2.52S287.13,77,286.34,78.3Z" style="fill:#455a64"></path><polygon points="291.13 73.72 300.78 81.52 297.78 83.53 288.54 76.08 291.13 73.72" style="fill:#455a64"></polygon><path d="M286.68,78.42a8.77,8.77,0,0,1-1.28,1.79,6.18,6.18,0,0,1-6.08,1.27,5.28,5.28,0,0,1-3.71-2.79,5.66,5.66,0,0,1-.39-3.08c.22-1.59.69-3.39,1.58-4a3,3,0,0,1,1.13-.46l.2,0,.1,0,.51-.08a3.42,3.42,0,0,1,.45,0,11.74,11.74,0,0,1,1.46,0,5.24,5.24,0,0,1,.56,0,11.17,11.17,0,0,1,1.43.17,1.65,1.65,0,0,1,.32.06c3,.59,4.6,1.77,5.05,2.52s-.13,1.89-.36,2.49A23.12,23.12,0,0,1,286.68,78.42Z" style="fill:#263238"></path><path d="M268.36,73.56a7.07,7.07,0,0,1-.66.92l0,.06-.08.1-.06.06a.9.9,0,0,0-.09.1c-.08.08-.14.15-.22.22s-.13.11-.19.18a.18.18,0,0,1-.08,0,.43.43,0,0,1-.14.12.63.63,0,0,1-.12.1s0,0,0,0a5.36,5.36,0,0,1-5.12.72,4.77,4.77,0,0,1-2-1.12c-1.69-1.61-1.34-4-1.2-5.12.23-1.43.84-4.17,1.69-4.58a3.5,3.5,0,0,1,.89-.24.06.06,0,0,1,.06,0,2,2,0,0,1,.36,0,1.62,1.62,0,0,0,.22,0h.53l.72.08.37.07.23,0,.18,0,.63.17a1,1,0,0,1,.16.06,13.77,13.77,0,0,1,1.31.5c2,.87,3.81,2.41,4.05,3.41S269.21,72.17,268.36,73.56Z" style="fill:#263238"></path><path d="M273.58,77.2l-2.33,8-8-3.66a24.24,24.24,0,0,1,5.06-6.72c2.27-2.39,3.42-2.78,4.27-3.09a1.34,1.34,0,0,1,1.12,1.1C274,74,273.3,75.61,273.58,77.2Z" style="fill:#9a4a4d"></path></g><g id="freepik--Neck--inject-627"><path d="M278.33,119.61l-10,1.26-.47,5s7,1.3,11.85.42ZM259.21,113s-.75,4.69.13,7.59,3.45-2.41,3.45-2.41a28.69,28.69,0,0,1,.64-6.95Z" style="fill:#37474f"></path><path d="M294.11,106.89a3.64,3.64,0,0,0-1.58-1.69l-.69,2.85s-2,4-8.08,7.32-12.91,2-15.29,2.64a10,10,0,0,0-5.3,4.31s4.23-2.33,5.61-1.25,3.18,5,4.49,11.89c18.59-3.9,25-16.5,25-16.5C295.65,112.81,294.5,108,294.11,106.89Zm-27.82,1.58,1.18-5.09a2.8,2.8,0,0,0-2.38.51c-1.09.72-2.69,2-4.71,3.37-4.55,5.06-7.65,14.49-7.65,14.49s4.08-3.93,7.54-4.33c4.37-.51,2.9,4.9,2.9,4.9.9-2,1.86-4,1.81-5.73S264.93,111.19,266.29,108.47Z" style="fill:#BA68C8"></path><path d="M294.11,106.89a3.64,3.64,0,0,0-1.58-1.69l-.69,2.85s-2,4-8.08,7.32-12.91,2-15.29,2.64a10,10,0,0,0-5.3,4.31s4.23-2.33,5.61-1.25,3.18,5,4.49,11.89c18.59-3.9,25-16.5,25-16.5C295.65,112.81,294.5,108,294.11,106.89Zm-27.82,1.58,1.18-5.09a2.8,2.8,0,0,0-2.38.51c-1.09.72-2.69,2-4.71,3.37-4.55,5.06-7.65,14.49-7.65,14.49s4.08-3.93,7.54-4.33c4.37-.51,2.9,4.9,2.9,4.9.9-2,1.86-4,1.81-5.73S264.93,111.19,266.29,108.47Z" style="fill:#fff;opacity:0.4"></path><path d="M258.92,128c-5.44,8.78-15.35,35.59-18,48.61a13.48,13.48,0,0,0-.09,4.74l2.42,15.51a2.52,2.52,0,0,0,4.44,1.22l7.08-8.49a15,15,0,0,0,3.45-8.76c.57-10,2.18-33.29,5.67-50.12Z" style="fill:#455a64"></path><path d="M258.92,128c-.23.37-.48.78-.72,1.22a5.56,5.56,0,0,0,1.18,2.09,5,5,0,0,0,3.48,1.6,2.56,2.56,0,0,0,.61,0l.42-2.15Z" style="fill:#37474f"></path><path d="M262.79,118.21c1.36,1.88,5.57,2.66,5.57,2.66v5.27l-4.47,4.55s-3.84-.06-5-2.71a23.65,23.65,0,0,1,.31-7.48Z" style="fill:#455a64"></path></g><g id="freepik--Trumpet--inject-627"><path d="M260.57,87.83l0,0a.3.3,0,0,0-.07.15,13.26,13.26,0,0,0-.85,3.92l1.53,2.67c.87.33,2.65,1.25,3.91,1.22a.12.12,0,0,0,.08,0h.24a1.66,1.66,0,0,0,.75-.24,2.4,2.4,0,0,0,1-2.24,7.58,7.58,0,0,0-3.55-5.86,2.44,2.44,0,0,0-2.42-.19A1.76,1.76,0,0,0,260.57,87.83Z" style="fill:#37474f"></path><path d="M216.33,107.46c-6.52,3.72-36,20.35-53.76,28.59-12.32,5.72-26.46-1.12-34.2.39l21.85,38.33c5.06-6.05,6.51-22.24,17.47-30.26,15.8-11.54,43.9-28.61,50.25-32.36Z" style="fill:#BA68C8"></path><path d="M139.69,137.26c-8.67-4.9-15.63-.8-15.54,9.17s7.2,22,15.88,26.91,15.63.8,15.53-9.16S148.36,142.16,139.69,137.26Z" style="fill:#BA68C8"></path><path d="M139.69,137.26c-8.67-4.9-15.63-.8-15.54,9.17s7.2,22,15.88,26.91,15.63.8,15.53-9.16S148.36,142.16,139.69,137.26Z" style="fill:#fff;opacity:0.25"></path><path d="M126.13,147.55c.09,8.72,6.28,19.22,13.86,23.52,6.92,3.91,12.58,1.28,13.47-5.81a13.94,13.94,0,0,0,.14-2.18c-.1-8.72-6.32-19.27-13.9-23.57a14,14,0,0,0-2-.93C131.09,135.93,126.05,139.61,126.13,147.55Z" style="fill:#BA68C8"></path><path d="M135.36,145.12c.06,7,5.09,15.59,11.23,19,2.6,1.48,5,1.8,6.87,1.1a13.94,13.94,0,0,0,.14-2.18c-.1-8.72-6.32-19.27-13.9-23.57a14,14,0,0,0-2-.93C136.2,139.89,135.32,142.13,135.36,145.12Z" style="opacity:0.2"></path><path d="M239.74,100.48a10.67,10.67,0,0,0-10.25-.23c-2.44,1.27-4.87,2.58-7.27,3.9-4.82,2.66-9.56,5.41-14.28,8.17-3.24,1.92-21.24,12.31-24.43,14.2l-.88.51-.44.26c-.07,0-.17.06-.21.15a1.08,1.08,0,0,0,.05.59l1.79,3.12c.34.31.46.44.73.24.8-.48,2.31-1.3,3.11-1.79l22.7-13.11c7.08-4.09,14.15-8.12,21.4-11.84a5.63,5.63,0,0,1,8.19,4.8l4.75-2A9.91,9.91,0,0,0,239.74,100.48Z" style="fill:#BA68C8"></path><path d="M204.92,116.6v1.16s-28.2,16.23-35.77,21.18a128.31,128.31,0,0,1-18.05,10.32,35.66,35.66,0,0,0-6.7-8.51,45.2,45.2,0,0,0,21.36-3C173.15,134.78,204.92,116.6,204.92,116.6Z" style="fill:#fff;opacity:0.4"></path><path d="M205.49,119.71c5.33-3.27,9.58-5.86,12.27-7.45,4.45-2.52,8.92-5,13.46-7.32V99.55a10.44,10.44,0,0,0-1.73.7c-2.44,1.27-4.87,2.58-7.27,3.9-2,1.09-3.93,2.2-5.88,3.32h0c-2.35,1.34-6.17,3.49-10.84,6.1Z" style="opacity:0.30000000000000004"></path><path d="M239.9,108.72l4.43-2.67a9.74,9.74,0,0,0-2.5-4L237,104.72A5.4,5.4,0,0,1,239.9,108.72Z" style="opacity:0.30000000000000004"></path><path d="M230.52,101.6a1.94,1.94,0,0,0-1.15-1.6,6.1,6.1,0,0,0-5.55,0,2,2,0,0,0-1.15,1.6v23.64a2,2,0,0,0,1.15,1.6,6.16,6.16,0,0,0,5.55,0,1.94,1.94,0,0,0,1.15-1.6Z" style="fill:#BA68C8"></path><path d="M230.52,101.6a1.94,1.94,0,0,0-1.15-1.6,6.1,6.1,0,0,0-5.55,0,2,2,0,0,0-1.15,1.6v23.64a2,2,0,0,0,1.15,1.6,6.16,6.16,0,0,0,5.55,0,1.94,1.94,0,0,0,1.15-1.6Z" style="fill:#fff;opacity:0.25"></path><path d="M226,99.37a5.29,5.29,0,0,0-2.14.63,2,2,0,0,0-1.15,1.6v23.64a2,2,0,0,0,1.15,1.6,5.46,5.46,0,0,0,2.14.63Z" style="fill:#BA68C8;opacity:0.6000000000000001"></path><path d="M223.82,100a1.69,1.69,0,0,0,0,3.2,6.16,6.16,0,0,0,5.55,0,1.69,1.69,0,0,0,0-3.2A6.1,6.1,0,0,0,223.82,100Z" style="fill:#BA68C8"></path><path d="M227.45,96.32a.42.42,0,0,0-.25-.35A1.36,1.36,0,0,0,226,96a.44.44,0,0,0-.25.35v5.15a.45.45,0,0,0,.25.35,1.36,1.36,0,0,0,1.21,0,.43.43,0,0,0,.25-.35Z" style="fill:#e0e0e0"></path><path d="M226,96a.44.44,0,0,0-.25.35.45.45,0,0,0,.25.35,1.36,1.36,0,0,0,1.21,0,.43.43,0,0,0,.25-.35.42.42,0,0,0-.25-.35A1.36,1.36,0,0,0,226,96Z" style="fill:#ebebeb"></path><path d="M230.52,96a1.94,1.94,0,0,0-1.15-1.6,6.16,6.16,0,0,0-5.55,0,2,2,0,0,0-1.15,1.6v1.6a2,2,0,0,0,1.15,1.6,6.16,6.16,0,0,0,5.55,0,1.94,1.94,0,0,0,1.15-1.6Z" style="fill:#263238"></path><path d="M223.82,94.41a2,2,0,0,0-1.15,1.6,2,2,0,0,0,1.15,1.61,6.16,6.16,0,0,0,5.55,0A2,2,0,0,0,230.52,96a1.94,1.94,0,0,0-1.15-1.6A6.16,6.16,0,0,0,223.82,94.41Z" style="fill:#455a64"></path><path d="M223.54,105.62a1.94,1.94,0,0,0-1.15-1.6,6.08,6.08,0,0,0-5.54,0,1.94,1.94,0,0,0-1.15,1.6v23.64a1.94,1.94,0,0,0,1.15,1.6,6.14,6.14,0,0,0,5.54,0,1.94,1.94,0,0,0,1.15-1.6Z" style="fill:#BA68C8"></path><path d="M223.54,105.62a1.94,1.94,0,0,0-1.15-1.6,6.08,6.08,0,0,0-5.54,0,1.94,1.94,0,0,0-1.15,1.6v23.64a1.94,1.94,0,0,0,1.15,1.6,6.14,6.14,0,0,0,5.54,0,1.94,1.94,0,0,0,1.15-1.6Z" style="fill:#fff;opacity:0.25"></path><path d="M219,103.39a5.2,5.2,0,0,0-2.13.63,1.94,1.94,0,0,0-1.15,1.6v23.64a1.94,1.94,0,0,0,1.15,1.6,5.36,5.36,0,0,0,2.13.63Z" style="fill:#BA68C8;opacity:0.6000000000000001"></path><path d="M216.85,104a1.69,1.69,0,0,0,0,3.2,6.14,6.14,0,0,0,5.54,0,1.69,1.69,0,0,0,0-3.2A6.08,6.08,0,0,0,216.85,104Z" style="fill:#BA68C8"></path><path d="M220.47,100.34a.42.42,0,0,0-.25-.35,1.33,1.33,0,0,0-1.2,0,.42.42,0,0,0-.25.35v5.15a.43.43,0,0,0,.25.35,1.33,1.33,0,0,0,1.2,0,.43.43,0,0,0,.25-.35Z" style="fill:#e0e0e0"></path><path d="M219,100a.42.42,0,0,0-.25.35.43.43,0,0,0,.25.35,1.33,1.33,0,0,0,1.2,0,.43.43,0,0,0,.25-.35.42.42,0,0,0-.25-.35A1.33,1.33,0,0,0,219,100Z" style="fill:#ebebeb"></path><path d="M223.54,100a2,2,0,0,0-1.15-1.6,6.14,6.14,0,0,0-5.54,0,2,2,0,0,0-1.15,1.6v1.6a1.94,1.94,0,0,0,1.15,1.6,6.14,6.14,0,0,0,5.54,0,1.94,1.94,0,0,0,1.15-1.6Z" style="fill:#263238"></path><path d="M216.85,98.43a1.7,1.7,0,0,0,0,3.21,6.14,6.14,0,0,0,5.54,0,1.7,1.7,0,0,0,0-3.21A6.14,6.14,0,0,0,216.85,98.43Z" style="fill:#455a64"></path><path d="M216.57,109.64a2,2,0,0,0-1.15-1.6,6.1,6.1,0,0,0-5.55,0,1.94,1.94,0,0,0-1.15,1.6v23.64a1.94,1.94,0,0,0,1.15,1.6,6.16,6.16,0,0,0,5.55,0,2,2,0,0,0,1.15-1.6Z" style="fill:#BA68C8"></path><path d="M216.57,109.64a2,2,0,0,0-1.15-1.6,6.1,6.1,0,0,0-5.55,0,1.94,1.94,0,0,0-1.15,1.6v23.64a1.94,1.94,0,0,0,1.15,1.6,6.16,6.16,0,0,0,5.55,0,2,2,0,0,0,1.15-1.6Z" style="fill:#fff;opacity:0.25"></path><path d="M212,107.42a5.35,5.35,0,0,0-2.13.62,2,2,0,0,0-1.15,1.6v23.64a1.94,1.94,0,0,0,1.15,1.6,5.2,5.2,0,0,0,2.13.63Z" style="fill:#BA68C8;opacity:0.6000000000000001"></path><path d="M209.87,108a1.69,1.69,0,0,0,0,3.2,6.16,6.16,0,0,0,5.55,0,1.69,1.69,0,0,0,0-3.2A6.1,6.1,0,0,0,209.87,108Z" style="fill:#BA68C8"></path><path d="M213.5,104.36a.44.44,0,0,0-.25-.35,1.36,1.36,0,0,0-1.21,0,.42.42,0,0,0-.25.35v5.15a.43.43,0,0,0,.25.35,1.36,1.36,0,0,0,1.21,0,.45.45,0,0,0,.25-.35Z" style="fill:#e0e0e0"></path><path d="M212,104a.37.37,0,0,0,0,.7,1.36,1.36,0,0,0,1.21,0,.37.37,0,0,0,0-.7A1.36,1.36,0,0,0,212,104Z" style="fill:#ebebeb"></path><path d="M216.57,104.05a2,2,0,0,0-1.15-1.6,6.16,6.16,0,0,0-5.55,0,2,2,0,0,0-1.15,1.6v1.6a1.94,1.94,0,0,0,1.15,1.6,6.1,6.1,0,0,0,5.55,0,2,2,0,0,0,1.15-1.6Z" style="fill:#263238"></path><path d="M209.87,102.45a1.7,1.7,0,0,0,0,3.21,6.16,6.16,0,0,0,5.55,0,1.7,1.7,0,0,0,0-3.21A6.16,6.16,0,0,0,209.87,102.45Z" style="fill:#455a64"></path><path d="M244.7,107.4l-4.75,2a14.39,14.39,0,0,1-1.55,6.7,15.18,15.18,0,0,1-4.62,5.36,102,102,0,0,1-13.3,8.84c-4.56,2.59-16.62,9.56-21.32,12.28-1.14.67-16.28,9.42-17.38,10.05a2.37,2.37,0,0,1-3.8-1.85l-4.72,0a7.09,7.09,0,0,0,2.49,5.37,7.19,7.19,0,0,0,8.47.59l1.78-1c2.32-1.32,27.22-15.57,29.83-17.05,4.21-2.44,10.27-5.72,14.26-8.41,4.75-3.29,10.11-6.5,12.79-11.92A17.32,17.32,0,0,0,244.7,107.4Z" style="fill:#BA68C8"></path><path d="M239.55,113a14.6,14.6,0,0,1-5.77,8.49,102,102,0,0,1-13.3,8.84c-4.56,2.59-16.62,9.56-21.32,12.28-1.14.67-16.28,9.42-17.38,10.05a2.37,2.37,0,0,1-3.64-1.06h0c.85,2.59,2.94,4.07,7.42,1.95s44.66-25.51,48.91-29.28A15.56,15.56,0,0,0,239.55,113Z" style="opacity:0.1"></path><path d="M189,135a.57.57,0,0,0-.32-.45,1.76,1.76,0,0,0-1.55,0,.57.57,0,0,0-.32.45v15.36a.57.57,0,0,0,.32.45,1.76,1.76,0,0,0,1.55,0,.57.57,0,0,0,.32-.45Z" style="fill:#BA68C8"></path><path d="M189,135a.57.57,0,0,0-.32-.45,1.76,1.76,0,0,0-1.55,0,.57.57,0,0,0-.32.45v15.36a.57.57,0,0,0,.32.45,1.76,1.76,0,0,0,1.55,0,.57.57,0,0,0,.32-.45Z" style="fill:#fff;opacity:0.25"></path><path d="M187.12,134.5a.48.48,0,0,0,0,.9,1.76,1.76,0,0,0,1.55,0,.48.48,0,0,0,0-.9A1.76,1.76,0,0,0,187.12,134.5Z" style="fill:#BA68C8"></path><path d="M260.92,91.43a1,1,0,0,0-.95-.07c-.72.4-1.07,1.58-1.9,2-10.53,5.78-28.51,15.74-37.73,20.9-4.56,2.56-34,19.27-38.24,21.67a17.18,17.18,0,0,0-8.84,14.44v.46h.56l3.6,0H178c0-.11,0-.22,0-.32a12.57,12.57,0,0,1,6.33-10.73c12.71-7.51,44.84-26.42,57.54-34l17.4-10.54c.69-.41,2.11-.27,2.68-.62a.93.93,0,0,0,.37-.87A2.93,2.93,0,0,0,260.92,91.43Z" style="fill:#BA68C8"></path><path d="M187.57,134.35a1.59,1.59,0,0,0-.45.15.57.57,0,0,0-.32.45v15.36a.57.57,0,0,0,.32.45,1.59,1.59,0,0,0,.45.15Z" style="fill:#BA68C8;opacity:0.4"></path><path d="M146.15,163.91,139.9,171c-4.85-2.78-9.11-8.09-11.56-13.83l8.73-4.42A24.43,24.43,0,0,0,146.15,163.91Z" style="fill:#fff;opacity:0.4"></path></g><g id="freepik--Hand--inject-627"><path d="M201.17,130.48c1.31-2.71,1.67-2.73,3.22-2.49a7.73,7.73,0,0,1,5.83,4c1,1.92,2.05,3.8,2.08,5.05s-2.47,1.54-4.36-.62c-3-3.4-4-2.8-4-2.8a54.58,54.58,0,0,1,3.61,4.52c.87,1.39,1.62,4.38,2.25,6.16s-1.29,3.25-3.53.87l1.16,3.26c.81,2.28.09,3.6-2.11,2.66a3.48,3.48,0,0,1-1.75-1.51s1.22,2.24.51,2.69c-2.06,1.29-3.37.22-7.15-3.58-1.06-1.07-3.53-1.81-4.41-2.16l-3.5,2v-5.57a4.07,4.07,0,0,1,3.22-3.66s-1.4-2.43,0-3.41a8.8,8.8,0,0,1,3.58-1.19,3,3,0,0,1,1.78-2.73,5,5,0,0,1,3.16-.57Z" style="fill:#b16668"></path><path d="M206.24,145.13a16.52,16.52,0,0,0-1.19-2.88,10.4,10.4,0,0,0-2.28-2.18,37.37,37.37,0,0,0-5.13-3.35,36.64,36.64,0,0,0,4.57,4.07,15.33,15.33,0,0,1,2.27,1.88C205.06,143.41,205.59,144.34,206.24,145.13Z" style="fill:#9a4a4d"></path><path d="M203.54,149.54a6.87,6.87,0,0,0-1.52-3,18.27,18.27,0,0,0-2.42-2.32,31.23,31.23,0,0,0-5.54-3.62,65.26,65.26,0,0,0,5,4.33A17.31,17.31,0,0,1,203.54,149.54Z" style="fill:#9a4a4d"></path></g><g id="freepik--Arm--inject-627"><path d="M245.91,129.84c-1.76-3.52-4-7-4.94-10.86a24.48,24.48,0,0,1-.69-3.47,25,25,0,0,1-.06-2.87q.09-3.19.3-6.39c.07-1.09.25-2.2.26-3.28,0-.85-.17-1.67-.2-2.53,0-1.5,0-3-.11-4.53a6.85,6.85,0,0,0-.26-1.86c-.74-2.2-3.35-4.19-4.88-5.87-1-1.07-2.08-2.21-3.52-2.38-1.67-.19-3.18,1-4.34,2.27a27.62,27.62,0,0,0-1.84,2.21,3.08,3.08,0,0,1-.79.82c-.89.55-1.67.74-2.25,1.76a.72.72,0,0,1-.26.31.89.89,0,0,1-.43,0,2.23,2.23,0,0,0-1.63.59c-.63.53-1,1.22-1.84,1.53-.45.18-.93.27-1.39.43-1.37.46-1.93,1.42-2.82,2.47s-2,2.36-2.94,3.61a5.5,5.5,0,0,0-1.19,1.88c-.24,1.22,1.23,1.29,2.18,1.33,2,.1,4.31-1.58,5.81-2.8a1.7,1.7,0,0,1,1-.51c.8,0,1.86,1,2.51,1.34a1.8,1.8,0,0,1,.64.55,1.59,1.59,0,0,1,.12,1c-.37,3.85-1.7,7.81-.5,11.48.53,1.61,1.66,3,2.18,4.56.88,2.7,1.7,5.42,2.5,8.14.19.65,2.58,7.36,2.49,7.36,3.15,0,5.84.18,8.89-.59a14.36,14.36,0,0,0,7.94-4.77,1.07,1.07,0,0,0,.15-.22.64.64,0,0,0,.06-.18A.89.89,0,0,0,245.91,129.84ZM230.3,91.69l1.13-1,1.85,2.3A16.47,16.47,0,0,0,230.3,91.69Z" style="fill:#b16668"></path><path d="M226.6,98a7.25,7.25,0,0,0-2.1-1.14,25.44,25.44,0,0,0-5-1.37c-.11,0-.12.21,0,.24,1.42.43,2.86.88,4.24,1.43a15,15,0,0,1,1.92.86,4.25,4.25,0,0,1,1.64,1.89.16.16,0,0,0,.31,0A2.34,2.34,0,0,0,226.6,98Z" style="fill:#9a4a4d"></path><path d="M231.61,95.59a11.26,11.26,0,0,0-1.13-.48c-.48-.22-1-.41-1.48-.59-.95-.33-1.91-.66-2.88-.94a7.56,7.56,0,0,0-2.79-.41c-.09,0-.09.19,0,.22,1.55.54,3.17.86,4.73,1.4.61.21,1.23.4,1.83.64a8.73,8.73,0,0,1,1.61.75,5,5,0,0,1,.92.92c.08.11.71.92.82.78s0-.13,0-.2a3.71,3.71,0,0,0-1.57-2.06Z" style="fill:#9a4a4d"></path><path d="M230.3,91.69a18.28,18.28,0,0,0-5.13-.43,9.79,9.79,0,0,1,3.71-.55,8.39,8.39,0,0,1,2.2.3Z" style="fill:#9a4a4d"></path><path d="M226.89,131.52c3.93,11.33,8.78,23.79,13.06,31.69,6.23,11.52,8.27,15.31,23.71,12.09A218.59,218.59,0,0,0,303,162.91c12.42-5.44,15.08-14.12,15.81-21s-.45-12.52-7.6-17.27c-8.22,0-21.79,12.39-25.07,14s-23.84,10.24-23.84,10.24l-18.17-23.51S239.51,132.25,226.89,131.52Z" style="fill:#ebebeb"></path><path d="M231.39,143.84c7.26.07,16.16-4.22,19.5-9.77l-6.77-8.76s-4.61,6.94-17.23,6.21C228.3,135.57,229.82,139.77,231.39,143.84Z" style="fill:#BA68C8"></path><path d="M231.39,143.84c7.26.07,16.16-4.22,19.5-9.77l-6.77-8.76s-4.61,6.94-17.23,6.21C228.3,135.57,229.82,139.77,231.39,143.84Z" style="fill:#fff;opacity:0.4"></path><circle cx="246.78" cy="133.8" r="1.57" style="fill:#455a64"></circle><path d="M262.29,148.82a55.52,55.52,0,0,1,4.78,8.29,22.93,22.93,0,0,0-2.65-9.18Z" style="opacity:0.1"></path></g></g></g><g id="freepik--musical-notes--inject-627"><g id="freepik--musical-notes--inject-627"><path id="freepik--musical-note--inject-627" d="M404.15,150.94a7.84,7.84,0,0,1,3.3.25,17,17,0,0,1,4,1.88,30.85,30.85,0,0,0,5.25,2.81,7.39,7.39,0,0,0,5.8-.08,7.65,7.65,0,0,1-3.11-1.51c-2.17-1.75-3.31-5-5.07-7.16-2.63-3.22-6-4.15-10.37-4.47-1.15,3.45-2.38,6.89-3.57,10.33q-1.4,4.06-2.8,8.11c-.08.26-1.36,3.65-1.36,3.65a7.52,7.52,0,0,0-2.77-1.75,6.14,6.14,0,1,0,3.81,7.8Z" style="fill:#BA68C8"></path><path id="freepik--musical-note--inject-627" d="M116.09,101.71a5.33,5.33,0,0,1,2.22.17,11.26,11.26,0,0,1,2.7,1.26,20.19,20.19,0,0,0,3.52,1.88,5,5,0,0,0,3.89,0,5.15,5.15,0,0,1-2.09-1c-1.45-1.18-2.21-3.35-3.4-4.8-1.76-2.16-4-2.79-7-3-.77,2.31-1.6,4.62-2.39,6.93-.63,1.81-1.25,3.63-1.88,5.44L110.8,111a5.1,5.1,0,0,0-1.86-1.17,4.11,4.11,0,1,0,2.55,5.23Z" style="fill:#e6e6e6"></path><path id="freepik--musical-note--inject-627" d="M81.07,304.13a4.44,4.44,0,0,1,1.89.15,9.82,9.82,0,0,1,2.3,1.07,16.76,16.76,0,0,0,3,1.61,4.22,4.22,0,0,0,3.31,0,4.42,4.42,0,0,1-1.78-.87c-1.24-1-1.89-2.86-2.9-4.1-1.5-1.84-3.42-2.37-5.93-2.56-.66,2-1.36,3.95-2,5.92-.54,1.55-1.07,3.09-1.6,4.64,0,.15-.78,2.09-.78,2.09A4.14,4.14,0,0,0,75,311a3.51,3.51,0,1,0,2.18,4.46Z" style="fill:#BA68C8"></path><path id="freepik--musical-note--inject-627" d="M347.62,124.17l4.62,10.59a3.31,3.31,0,0,0-1,.24,3,3,0,1,0,4,1.55l-4.14-9.49,8.46-6.69h0l4.12,9.4a3,3,0,1,0,3,1.79h0l-6.88-15.7Z" style="fill:#e6e6e6"></path><path id="freepik--musical-note--inject-627" d="M163.14,72.47l6.22,14.26A4,4,0,0,0,168,87a4.07,4.07,0,1,0,5.37,2.1l-5.57-12.79,11.38-9h0L184.74,80a4,4,0,0,0-1.34.31,4.07,4.07,0,1,0,5.36,2.1h0L179.5,61.3Z" style="fill:#BA68C8"></path><path id="freepik--musical-note--inject-627" d="M126.13,321.44l5.79,13.29a3.77,3.77,0,0,0-3.2,5.29,3.79,3.79,0,1,0,6.95-3l-5.19-11.92,10.61-8.38h0l5.17,11.8a3.73,3.73,0,0,0-1.25.29,3.79,3.79,0,1,0,5,2h0L141.38,311Z" style="fill:#e6e6e6"></path></g></g></svg>
