<svg id="_0350_tv_presenter" xmlns="http://www.w3.org/2000/svg" xmlns:xlink="http://www.w3.org/1999/xlink" viewBox="0 0 500 500" data-imageid="tv-presenter-73" imageName="TV Presenter" class="illustrations_image" style="width: 188px;"><defs><style>.cls-1_tv-presenter-73{fill:url(#linear-gradient);}.cls-1_tv-presenter-73,.cls-2_tv-presenter-73,.cls-3_tv-presenter-73,.cls-4_tv-presenter-73,.cls-5_tv-presenter-73,.cls-6_tv-presenter-73,.cls-7_tv-presenter-73,.cls-8_tv-presenter-73,.cls-9_tv-presenter-73,.cls-10_tv-presenter-73,.cls-11_tv-presenter-73,.cls-12_tv-presenter-73,.cls-13_tv-presenter-73,.cls-14_tv-presenter-73,.cls-15_tv-presenter-73,.cls-16_tv-presenter-73,.cls-17_tv-presenter-73,.cls-18_tv-presenter-73{stroke-width:0px;}.cls-2_tv-presenter-73{opacity:.18;}.cls-2_tv-presenter-73,.cls-6_tv-presenter-73,.cls-19_tv-presenter-73{isolation:isolate;}.cls-2_tv-presenter-73,.cls-6_tv-presenter-73,.cls-18_tv-presenter-73{fill:#68e1fd;}.cls-3_tv-presenter-73{fill:url(#linear-gradient-11-tv-presenter-73);}.cls-4_tv-presenter-73{fill:url(#linear-gradient-12-tv-presenter-73);}.cls-5_tv-presenter-73{fill:url(#linear-gradient-10-tv-presenter-73);}.cls-20_tv-presenter-73{opacity:.54;}.cls-6_tv-presenter-73{opacity:.39;}.cls-7_tv-presenter-73{fill:url(#linear-gradient-4-tv-presenter-73);}.cls-8_tv-presenter-73{fill:url(#linear-gradient-2-tv-presenter-73);}.cls-9_tv-presenter-73{fill:url(#linear-gradient-3-tv-presenter-73);}.cls-10_tv-presenter-73{fill:url(#linear-gradient-8-tv-presenter-73);}.cls-11_tv-presenter-73{fill:url(#linear-gradient-9-tv-presenter-73);}.cls-12_tv-presenter-73{fill:url(#linear-gradient-7-tv-presenter-73);}.cls-13_tv-presenter-73{fill:url(#linear-gradient-5-tv-presenter-73);}.cls-14_tv-presenter-73{fill:url(#linear-gradient-6-tv-presenter-73);}.cls-15_tv-presenter-73{fill:#231f20;}.cls-16_tv-presenter-73{fill:#fff;}.cls-17_tv-presenter-73{fill:#ffaa71;}</style><linearGradient id="linear-gradient-tv-presenter-73" x1="-911.56" y1="1737.7" x2="-878.84" y2="1737.7" gradientTransform="translate(1289 1979.9) scale(1 -1)" gradientUnits="userSpaceOnUse"><stop offset="0" stop-color="#231f20" stop-opacity="0"/><stop offset="1" stop-color="#231f20"/></linearGradient><linearGradient id="linear-gradient-2-tv-presenter-73" x1="-918.32" y1="1778.01" x2="-890.94" y2="1767.82" gradientTransform="translate(1286.39 1977.16) scale(1 -1)" xlink:href="#linear-gradient-tv-presenter-73"/><linearGradient id="linear-gradient-3-tv-presenter-73" x1="-897.21" y1="1786.23" x2="-892.46" y2="1785.95" xlink:href="#linear-gradient-tv-presenter-73"/><linearGradient id="linear-gradient-4-tv-presenter-73" x1="-892.59" y1="1815.41" x2="-891.74" y2="1799.29" gradientTransform="translate(1286.39 1977.16) scale(1 -1)" xlink:href="#linear-gradient-tv-presenter-73"/><linearGradient id="linear-gradient-5-tv-presenter-73" x1="-895.94" y1="1806.2" x2="-891.68" y2="1795.98" xlink:href="#linear-gradient-tv-presenter-73"/><linearGradient id="linear-gradient-6-tv-presenter-73" x1="-881.82" y1="1771.49" x2="-877.8" y2="1771.49" xlink:href="#linear-gradient-tv-presenter-73"/><linearGradient id="linear-gradient-7-tv-presenter-73" x1="-894.71" y1="1802.8" x2="-892.79" y2="1785.66" xlink:href="#linear-gradient-tv-presenter-73"/><linearGradient id="linear-gradient-8-tv-presenter-73" x1="-1042.99" y1="1783.77" x2="-1051.34" y2="1659.68" gradientTransform="translate(1286.39 1977.16) scale(1 -1)" xlink:href="#linear-gradient-tv-presenter-73"/><linearGradient id="linear-gradient-9-tv-presenter-73" x1="-1058.13" y1="1529.94" x2="-1050.76" y2="1665.79" gradientTransform="translate(1286.39 1977.16) scale(1 -1)" xlink:href="#linear-gradient-tv-presenter-73"/><linearGradient id="linear-gradient-10-tv-presenter-73" x1="-1033.61" y1="1721.32" x2="-1054.2" y2="1684.34" gradientTransform="translate(1286.39 1977.16) scale(1 -1)" xlink:href="#linear-gradient-tv-presenter-73"/><linearGradient id="linear-gradient-11-tv-presenter-73" x1="-1045" y1="1709.39" x2="-1044.95" y2="1708.66" gradientTransform="translate(1286.39 1977.16) scale(1 -1)" xlink:href="#linear-gradient-tv-presenter-73"/><linearGradient id="linear-gradient-12-tv-presenter-73" x1="-1042.53" y1="1625.5" x2="-1033.85" y2="1544.93" xlink:href="#linear-gradient-tv-presenter-73"/></defs><g id="background_tv-presenter-73"><rect class="cls-2_tv-presenter-73 targetColor" x="15.53" y="74.83" width="469.21" height="364.94" rx="23.17" ry="23.17" style="fill: rgb(104, 225, 253);"/><g id="WTNKNR_tv-presenter-73" class="cls-20_tv-presenter-73"><path class="cls-18_tv-presenter-73 targetColor" d="M258.48,131.86l10.41-3.18c.74-.26,1.5-.46,2.27-.61.55-.05,1.11.09,1.57.4,2.17-.76,4.05-1.26,5.96,1.33.69.95,3.02.64,4.55,1.08,2.43.7,4.85,1.49,7.22,2.39.61.24,1.02,1.02,1.53,1.57-.67.49-1.33,1.38-2,1.39-2.09-.03-4.17-.18-6.24-.45-.59-.14-1.18-.23-1.78-.26,2.36,1.05,1.83,5.68,6.14,4.55l-1.72-1.14.13-.48,3.65.66c.07-2.27,3.09-3.67,5.54-2.97-.11-1.27-.22-2.53-.36-4.22l3.76.95-2.06,1.38c.98,1.48,2,1.48,3.25.39,2.27-2,4.81-3.13,7.96-1.97.39.14.91-.18,1.36-.19,1.78-.08,3.57-.09,5.35-.2.41,0,.8-.38,1.52-.75l-2.85-2.27.23-.41,12.95,3.8c-1.33-1.91-3.72-3.19-2.27-5.27,2.27-3.24,3.3-3.41,6.98-2.27-.78,2.3-.63,4.82.42,7.01.23.44-.28,1.48-.74,1.99-.73.69-1.53,1.31-2.39,1.84,2.72.55,4.55-.88,5.24-4.24l3.21,1.14.42-.15c-.48-.49-.86-1.2-1.44-1.42-.69-.11-1.4-.08-2.08.08-1.2.08-1.68-.47-1.57-1.69.03-.92-.01-1.84-.11-2.75l2.43-1.86v2.09l2.78-.85-.99-.85.14-.45,6.46,1.88.09-.35-2.58-2.27.34-.59,7.52-.61-.77-1.44c3.59-1.78,7.59-2.57,11.58-2.27,2.75.27,5.5-.48,7.74-2.09,1.85-1.51,4.14-1.31,6.75.35.36.25.81.35,1.25.28,3.03-1.14,6.35,0,7.25,2.64l-8.31,3.05.23.77c1.43-.4,2.84-.89,4.3-1.14.88-.12,1.78-.12,2.66,0,2.48.22,5.31-.15,7.33.93s3.79,1.35,4.9.39c2.77-2.42,5.34-.44,7.96-.5.7,1.53-.41,3.98,2.17,4.17.75,0,1.58-.77,2.27-1.14,2.69,0,6.31,1.07,8.07-.28,1.58-1.22,3.57-1.81,5.56-1.64,2.16.06,4.31.3,6.43.73.6.1,1.14.94,1.69,1.14,1.98.63,4.02,1.01,6.09,1.14,2.48,0,4.81-.34,6.5,1.96.21.23.51.36.82.36,2.88-.13,5.74-.31,8.62-.4.57.03,1.13.2,1.61.5-.26,1.65.99,1.56,1.86,1.45.34,0,.56-1.07.92-1.83,6.59-.16,12.92,1.14,18.51,5.62,1.89-1.76,3.41.22,5.13,1.14-1.14,1.07-2.08,2.46-3.41,2.98-.91.36-2.27-.42-3.41-.77-.82-.26-1.61-.58-2.38-.98-.73-.36-1.39-.85-1.69-1.03l-3.9,2.85,1.76,3.54c-5.06-.85-8.43,1.67-12.06,4.08-1.61-2.09-3.54-.06-5.4-.17-2.52-.16-3.41,1.71-4.29,3.02.5,1.34.92,2.5,1.43,3.89-2.09.11-2.34,1.22-1.98,2.05l-6.44,7.49c-.58-2.96-1.49-5.51-1.44-8.06.08-2.09,1.3-3.97,3.18-4.89,1.99-1.14,3.41-3.25,5.43-4.24,1.8-.89,1.94-2.05,2.17-3.64l-4.44,3.41-.15-1.02c-1.23-.43-2.52-.69-3.82-.77-1.34.1-3.52,3.27-3.41,4.55-1.67-.11-3.41,1.14-4.94-.68-.26-.31-1.14-.15-1.75-.1-1.63.24-3.27.37-4.91.39-1.86-.33-3.77.18-5.21,1.4-2.22,2.15-4.67,4.06-6.65,5.76.35.7.8,1.34,1.33,1.91.52.35,1.17.43,1.76.23,1.82-.93,3.5-.16,3.41,1.93.02,4.52-1.51,8.91-4.32,12.45-.93,1.34-1.93,2.63-3,3.86-.76.74-2.1,1.59-2.94,1.39-1.88-.45-2.66.8-3.49,1.76-1.07,1.45-2.03,2.96-2.88,4.55,1.41,1.86,3.08,4.25,1.86,7.05-.42.98-2.18,1.38-3.61,2.19v-6.32l-1.85-.63.68-3.25-5.04,1.14,1.08-3.3c-.98.56-1.59.85-2.16,1.23-1,.6-1.94,1.28-2.82,2.05-.27.48-.32,1.05-.13,1.57.79.27,1.61.46,2.44.57l-1.14.85h4.66l-4.55,4.01c1.3,2.89,3.69,5.01,2.49,8.23v.41c2.78,1.06.53,2.81.11,3.58-1.64,3.1-2.61,6.7-5.68,8.9-.67.44-1.36.82-2.09,1.14-2.16,1.05-4.33,2.06-6.46,3.06-.66-1.69-1.14-1.82-2.88-.41-2.31,1.66-2.85,4.87-1.19,7.18.53.74,1.25,1.33,2.09,1.7.78.4,2-.07,3.33,0-2.9,1.91-1.82,4.82-2.27,7.33-.02.24-.11.46-.26.65-1.69,1.5-3.41,2.99-4.6,4.05l-5.91-7.38c-.3,2.71-2.41,5-1,8.07.64,1.78,1.63,3.41,2.9,4.81,1.29,1.17,1.93,2.9,1.72,4.63.08,1.31.37,2.6.84,3.83-2.77-.79-4.68-3.31-4.71-6.18.04-1.08-.23-2.16-.78-3.09-1.88-2.16-1.63-4.55-1.63-7.12-.19-3.69-.61-7.36-1.25-10.99l-3.41,1.96c-.43-2.13-.97-4.23-1.63-6.3-.76-1.75-1.63-3.45-2.58-5.1-1.24.27-2.81.6-4.35.99-.35.09-.85.25-.99.53-1.94,4-5.33,6.82-8.1,10.12-.49.94-.68,2.01-.53,3.06.24,3.96-1.09,7.86-3.72,10.83-2.63-8.35-6.01-16.07-5.77-24.21-.93.33-2.15,1.14-2.85.88s-2.38-1.52-.92-2.6l-4.32-5.06c-3.79-.34-8.55,1.91-12.07-2.61-2.9,1.02-5.38-.11-6.82-3.41-.11-.28-.18-.67-.41-.83-.77-.55-1.81-1.6-2.36-1.41-1.41.51-.81,1.74-.27,2.75.53,1.01,1.02,1.75,1.42,2.67.4.92.64,1.86,1.05,3.09l.64-1.43h.45l.24,2.96q2.27.47,5.94-3.07c-.08,2.1.47,3.56,2.61,4.41,1.2.38,1.86,1.66,1.47,2.86-.1.3-.25.58-.46.81-1.67,2.27-2.27,5.33-5,6.99-4.42,2.64-8.63,5.68-13,8.34-1.06.66-1.82.06-2.02-1.33-.47-3.21-.56-6.54-2.53-9.34-.58-.82-1.14-1.67-1.64-2.51-.33-.5-.91-1-.91-1.51-.07-4.35-3.09-7.5-4.55-11.29-.22-.43-.49-.83-.81-1.2l-3.03.7c1.36-2.35.83-3.51-2.27-4.47,1.08-.64,1.76-1.36,2.49-1.41,1.47.02,2.69-1.11,2.81-2.57.47-2.27,1-4.47,1.52-6.82-2.27-1.02-4.55,2.42-6.17-.89-1.58,1.74-2.99,1.06-4.32,0-1.71-1.79-2.26-4.38-1.43-6.71-.91-.03-1.83.03-2.73.18-.72.34-1.38.78-1.98,1.31,1.35,1.55,2.63,3.63-.34,5.85-.51-.5-.95-1.08-1.31-1.71-.94-2.41-1.64-4.92-2.67-7.29-.4-.91-1.44-1.55-2.22-2.27-1.14-1.02-2.18-2.03-3.29-3.03-.65-.61-1.34-1.17-2.07-1.68-.16-.11-.92.25-.92.41-.1.74-.01,1.5.26,2.19,1.31,2.25,3.19,4.12,5.46,5.41.72.4,1.27,1.04,1.58,1.8l-1.68-.34-.74,3.77h-.77c1.03-2.88-1.14-3.94-2.64-5.44s-2.84-2.91-4.21-4.41c-.76-.83-1.33-1.71-2.64-.65s-2.61,2.05-4.55,1.14c-1.01-.47-1.67.09-1.8,1.4-.18.85-.67,1.6-1.36,2.11-1.51,1.22-2.76,2.21-2.78,4.55-.21,1.98-1.78,3.53-3.76,3.73-1.06.17-2.09.43-2.75.57l-4.55-1.94v-10.38c1.33-.1,2.84-.3,4.35-.31s3.09.14,4.55.22c2.11-4.3-.07-6.82-3.59-8.47,1.14-1.83,4.05.9,4.02-1.41,1.36-.75,2.68-1.58,3.93-2.5,1.84-1.56,3.41-3.41,5.33-4.88,1.07-.55,2.22-.94,3.41-1.14,1.05-1.9-2.98-5.58,2.55-6.44-.28,1.14-.58,2.27-.75,3.34-.09.55-.15,1.41.16,1.66.64.53,1.44.84,2.27.88,2.86,0,5.74-.22,8.59-.49.9-.21,1.76-.55,2.56-1.01.33-4.69.74-5.09,4.06-3.32,0-.93.3-1.9,0-2.34-1.33-1.68-.32-1.99,1.08-2.14,1.74-.19,3.49-.34,5.24-.5l-.07-1.14c-.87-.06-1.74-.06-2.6,0-1.01.17-2,.41-2.97.72-1.72.55-3.55,0-4.02-1.38-.48-1.38-.95-3.51,1.05-4.82,1.32-.95,2.59-1.97,3.8-3.06-1.21-1.21-3.16-1.21-4.37,0-.16.16-.29.33-.41.51-.77.98-1.64,1.88-2.59,2.69-.77.76-1.89,1.36-2.27,2.27-.29.94-.09,1.95.52,2.72,1.43,1.23.93,1.98-.08,3.06-.72.77-1.06,1.89-1.74,2.71-1.08,1.31-2.27,2.5-3.64,3.93-1.14-2.27-2.14-4.05-2.94-5.85-.58-1.3-1.26-1.4-2.34-.6-1.26.93-2.92,2.21-4.08.59s-2.18-4-1.65-5.46c.53-1.45,3.13-2.53,4.83-3.79,1.53-.95,2.99-2.02,4.36-3.18,1.41-1.55,2.72-3.18,3.93-4.89l-.97-.27-.13-.74Z" style="fill: rgb(104, 225, 253);"/><path class="cls-18_tv-presenter-73 targetColor" d="M58.73,156.87l-5.24,1.35,1.82-3.75c-1.67,1.74-3.63,2.27-3.83,4.55,0,.47-.76.94-1.26,1.28-1.81,1.22-3.66,2.35-5.42,3.58-.24.17-.13.83-.14.89l-6.13.8c1.14-.66,2.16-1.24,3.17-1.77,1.11-.48,2.18-1.04,3.21-1.68.84-.73,1.6-1.54,2.27-2.43l-.51-.66h-4.82l-.34-1.88c-2.21.19-4.76-1.34-4.48-2.91.4-1.11,1.22-2.02,2.27-2.53,1.12-.38,2.29-.58,3.48-.59l-.28-1.86c-2.75.36-5.48,1.32-7.45-1.38,2.07-2.41,4.91-1,7.5-.92v-.66l-6.57-2.8c.27-.34.38-.6.56-.68,3.66-1.41,7.29-2.99,11.03-4.13,1.42-.42,3.16.09,4.73.32,4.92.72,9.84,1.49,14.78,2.27,1.16.21,2.3.51,3.41.89.96.42,2.08.3,2.92-.33,1.83-1.14,4.38-1.03,6.63-1.41.81-.13,1.64-.09,2.88-.16.6.41,1.31,2.55,2.92.48l.77.73c1.12-.2,2.27-.29,3.41-.26,2.24.29,4.46.71,6.65,1.24.58.14,1.03.8,1.35,1.48,2.52,1.01,5.76-1.14,8.32,1.57l-.8-2.27c2.88.28,5.88.66,8.9.86.91,0,1.81-.2,2.64-.59,1.5-.64,2.41-.24,2.85,1.34l2.76-1.99c-.69-.52-1.34-1.1-1.94-1.72-.5-.66-.94-1.35-1.33-2.08l2.47-1.27c.07-.03.15-.03.23,0l4.98,5c.84-.58,2.27-2.09,2.09,1.14,0,.33.47.86.82.98.43.06.85-.1,1.14-.42.72-1.03,1.3-2.16,2.1-3.56l3.61.84v3.66l-2.56,1.63.28.61-2.66-1.38c-1.33,1.78-2.27,3.41-4.55,4.42-2.27,1.01-3.97,3.26-5.56,5.26-.61.77-1.55,2.63.93,3.23.69.16,1.14,1.52,1.27,1.78l11.57,4.35,2.27,5.82q2.93-.98,1.69-5.56c4.34-2.83,4.41-3.21,1.76-6.14v-6.39c3.41-.61,6.62.51,9.71,2.77-.28,1.64.52,3.41,2.39,3.41,1.14,0,2.39-1.69,4.01-2.97.85,1.92,1.81,4.17,2.89,6.37.32.67.94,1.6,1.51,1.67,1.94.22,2.99,1.72,4.38,2.71.65.44,1.08,1.13,1.19,1.9,0,.51-.82,1.14-1.4,1.53-2.82,1.92-6.22,2.78-9.6,2.43-1.61-.1-3.34,1.49-4.91,2.56,2.02.26,3.81-2.17,6.17-.16l-2.09,1.24c.94,1.28,2.05,2.43,3.3,3.41.56.33,1.9-.66,3.16-1.14l.66,1.14-6.82,3.58-.42-.23,1.14-2.27c-4.08.22-6.92,2.76-6.46,5.84q-3.58.99-6.21,6.44l-.69-2.27h-.31c.22,1.2.39,2.42.66,3.63.41,1.38-.17,2.86-1.42,3.58-1.58,1.1-2.97,2.44-4.13,3.97-.55.98-.76,2.12-.57,3.23.22,1.68.93,3.31,1.14,4.99.03,1-.08,2-.32,2.98l-.84.11c-.74-1.66-1.39-3.37-1.94-5.1-.38-1.43-.39-2.53-2.51-2.47-1.83.07-3.69-.83-5.91-1.4.8,2.55-.16,2.73-1.53,2.17-3.88-1.58-7.16.68-7.12,4.89,0,2.68-.19,5.37,0,8.04.09,1.17.55,2.28,1.3,3.18.71.82,1.71,1.34,2.8,1.43,1.55,0,3.41-.1,3.8-2.27.11-.61.19-1.23.32-2.07l4.04-.78c-.76,3.41-1.41,6.3-2.14,9.48,1.14-.13,2.07-.22,2.98-.33,2.47-.31,3.6.95,3.22,3.35-.41,2.6-1.06,5.33,1.47,7.34.44.35,1.36.73,1.69.51,1.88-1.19,3.17-.69,4.36,1.01.65.66,1.39,1.24,2.18,1.73.77-3.97,3.94-5.13,6.82-6.63l-.38,4.15h.41l1.53-3.81c2.68,1.55,5.02,3.41,8.18,2.01.52-.14,1.08-.03,1.51.31,1.75,1.56,3.41,3.26,5.13,4.81.72.71,1.61,1.2,2.59,1.43,5.15.66,6.35,1.74,7.89,6.73.42,1.16,1.27,2.11,2.38,2.66,1.69.7,3.61.57,4.83,2.53.4.64,2.27.25,3.5.51,1.18.24,2.32.62,3.41,1.14,1.22.6,2.27,1.47,3.5,2.17,1.45,1.24,1.88,3.3,1.05,5.01-1.3,2-2.82,3.85-4.16,5.83-.47.59-.73,1.32-.74,2.08.52,3.99-1.28,7.38-2.71,10.84-.38.58-.94,1.01-1.6,1.22-1.63.66-3.34,1.14-4.96,1.81-1.68.65-2.79,2.27-2.81,4.07-.28,2.27-1.73,4.36-2.8,6.82l-.69-1.45c-1.77,3.41-3.23,7.46-8.62,4.35,1.05,2.07,3.31,3.73.94,5.39-1.51,1.07-3.54,1.4-5.55,2.14-.28,1.66-.76,3.56-3.31,2.01-.09,1.46-.36,2.9-.81,4.29-.77,1.19-1.7,2.28-2.75,3.24.38.33.8.61,1.24.84,1.39.55,1.2,1.23.27,2.05-.57.4-1.09.86-1.55,1.39-2.46,3.64-1.96,5.37,2.16,7.67-3.55,1.56-9.3.31-10.8-2.36-1.73-3.05-1.72-6.82.18-8.33l-1.32-.53,1.74-4.4.61,1.88c.08-.09.22-.17.22-.25,0-1.6,1.71-3.41-.65-4.69-.12-.1-.18-.26-.16-.42.39-2.15.38-4.55,1.31-6.41,1.45-2.94,1.44-5.98,1.76-9.09.45-4.39,1.14-8.75,1.77-13.13.52-2.23-.67-4.51-2.8-5.37-3.83-1.48-5-4.84-6.6-8.01-1.24-2.47-2.89-4.75-3.94-7.29-.49-1.14,0-2.76.38-4.16-.88-2.44-.51-3.77,1.45-6.07,1-1.22,1.77-2.62,2.27-4.11.44-1.3-.13-2.72-1.34-3.35-1.14-.86-1.71-2.59-2.83-4.47l-1.45,3.13c-1.84-1.35-3.88-2.73-5.75-4.3-.48-.4-.33-1.47-.69-2.08-.89-1.8-2.42-3.2-4.3-3.92-1.51-.7-2.88-1.68-4.04-2.89-1-.88-1.77-1.75-3.23-.76-.53.26-1.16.26-1.69,0-2.65-1.44-5.29-2.94-7.84-4.55-1.51-.76-2.34-2.43-2.02-4.09.03-1.09-.32-2.16-.98-3.02-1.92-2.86-4.07-5.58-6.01-8.43-.77-1.14-1.14-2.56-1.84-3.76-.47-.69-1.01-1.33-1.6-1.91l-.93.55,6.82,13.53-.88.45c-.85-1.64-1.67-3.3-2.59-4.9-.34-.5-.76-.94-1.25-1.3-.77-.67-2.41-.93-1.14-2.55.14-.17-.13-.72-.31-1.03-1.03-1.71-1.98-3.48-2.83-5.29-.58-1.7-1.87-3.07-3.54-3.74-.64-.25-1.05-1.14-1.47-1.86-2.78-4.48-4.69-9.09-3.68-14.64.33-1.77-.1-3.68-.2-5.76l1.88-.39.41-.55c-1.34-1.09-2.77-2.07-4.27-2.92-2.61-1.25-3.94-3.41-5.12-5.88-.5-1.01-.75-2.16-2.27-1.14-.22.14-1.14-.31-1.3-.66-.48-.84-.66-1.82-.53-2.77.51-1.26.16-1.72-.92-2.06-2.78-.9-5.56-1.89-8.38-2.65-2.13-.58-4.32-.85-6.71-1.3l-.23,1.06Z" style="fill: rgb(104, 225, 253);"/><path class="cls-18_tv-presenter-73 targetColor" d="M233.82,202.9c1.77.82,3.82.66,6.22-.14,3.27-.89,6.62-1.48,10-1.76,1.55-.1,3.11-.1,4.66,0-.52,1.66-.93,2.94-1.51,4.76,1.31.19,2.59.5,3.84.92,1.81.76,3.49,1.81,5.24,2.72.41.22.86.35,1.28.58,1.14.63,1.71.26,1.94-.99.38-1.94,1.56-2.56,3.41-1.89,1.72.71,3.48,1.31,5.27,1.8,1.34.21,2.7.19,4.02-.07,1.14-.17,2.01-.3,2.61,1.14,1.76,4.08,3.71,8.09,5.57,12.13.1.2.31.43.28.64-.42,3.07,2.1,5.01,3.03,7.57.55,1.51,2.39,2.52,3.51,3.88.51.6.58,1.56,1.05,2.22.65.93.99,2.27,2.8,1.73,2.27-.74,4.64-1.14,7.37-1.83-.04,1.23-.26,2.46-.66,3.63-2.01,4-3.85,7.96-7.55,11.07-2.89,2.42-4.79,6.04-7.05,9.16-.24.33,0,1.01.07,1.52.15.88.31,1.76.51,2.63.32,1.01.59,2.05.8,3.09.34,2.43.49,4.88.43,7.33,0,.78-1.39,1.53-2.27,2.27-.89.74-1.65,1.14-2.44,1.74-1.98,1.5-2.85,3.15-1.56,5.68.67,1.28.17,2.86-1.11,3.53-.19.1-.39.18-.6.22-.54.22-1.08.48-1.59.76.15,5.68-5.85,11.83-11.43,11.96-1.33.06-2.64.3-3.9.72-1.9.59-2.55-.56-3.02-1.97-.6-1.81-.7-3.97-1.81-5.37-1.72-2.17-2.02-4.65-2.73-7.08-.48-2.24-1.25-4.4-2.27-6.44-2.09-3.5-.88-6.54.5-9.75.44-1.08.58-2.26.4-3.41-.34-2.17-1-4.31-1.55-6.46-.05-.54-.24-1.05-.55-1.5-2.88-2.56-3.84-6.66-2.39-10.23.56-1.59-1.01-2.78-2.82-2.63-1.26.11-2.41.34-2.88-1.45-.5-1.97-2.36-1.48-3.54-1.07-2.86,1.02-5.62,2.22-8.75,1.48-.31-.01-.63.04-.92.15-1.25.24-2.96,1.14-3.67.6-2.18-1.7-4.2-3.6-6.02-5.68-1.14-1.24-1.82-2.97-3.07-4.05-2.11-1.82-1.66-3.83-1.36-6.14.13-2.31.1-4.63-.09-6.95-.1-.66-.05-1.33.16-1.97,1.33-2.59,2.78-5.13,4.21-7.67.07-.13.15-.34.25-.36,3.41-.45,4.11-2.97,4.55-5.79.2-.66.6-1.24,1.14-1.67,1.25-1.06,2.46-2,3.99-3.31Z" style="fill: rgb(104, 225, 253);"/><path class="cls-18_tv-presenter-73 targetColor" d="M149.63,121.16h4.81v-.34l-7.13-1.36.09-.74c2.81-1.66,6.62-.42,9.26-2.52l-.15-.68-2.55-.35-.09-.49c.92-.3,1.83-.66,2.77-.89,3.41-.8,6.23-3.19,9.88-2.91.88.2,1.73.5,2.53.9l4.01-.83-.11-.65,5.96,1.61.09-.31-2.34-1.72.18-.68c9.96-.59,19.94-2.27,30.02,1.28l-4.49.95.22.83c.56-.26,1.15-.47,1.75-.63.8-.1,1.61-.14,2.42-.14l-1.59,2.27c4.55-1.4,8.95-2.92,13.64-1.14-3.98,2.02-8.22,3.49-10.87,6.82l4.07,1.85-.2.63-2.06.41c.17,1.84.92,3.8.33,5.18-.89,2.14-3.08,2.27-5.18,1.14-1.26,1.5-.69,2.48.74,3.14,1.51.53,2.42,2.08,2.13,3.66l-3.99-1.48-1.14,1.48,4.4.49c-3.05,2.15-6.51,3.64-10.17,4.36-1.14.3-2.19.91-3.01,1.76-1.74,1.86-3.41,3.59-6.26,3.48-1.51-.07-2.14.76-2.06,2.27,0,.53.09,1.34-.22,1.57-2.58,1.92-1.81,5.27-3.56,7.88-.56-.26-1.14-.58-1.83-.86s-1.67-.69-2.49-1.07c-.53-.25-1.26-.42-1.51-.85-1.4-2.38-2.73-4.8-3.99-7.25-1.14-2.13-2.05-4.31-3.13-6.6l4.14-2.27c.89-2.98-2.65-2.06-4.15-3.86l3.79.41.17-.53c-1.25-.36-2.53-.65-3.75-1.14-.64-.24-1.17-.69-1.51-1.28-.18-.42.3-1.14.48-1.73l.7-.07c-1.41-2.07-3.01-4.01-4.77-5.8-1.08-.93-3.01-1.08-4.55-1.14s-3.52.65-5.22.43c-1.59-.41-3.12-1.03-4.55-1.83l.03-.67Z" style="fill: rgb(104, 225, 253);"/><path class="cls-18_tv-presenter-73 targetColor" d="M394.04,277c.71-.72,1.39-1.48,2.02-2.27,1.8-2.47,2.96-2.69,4.55-.4.67-.64,1.28-1.34,1.82-2.1,1.09-2.04,3.45-3.06,5.68-2.46,1.11.23,2.23.4,3.35.51-.4.38-.75.8-1.05,1.26-.64,1.2-1.08,2.38.52,3.32,1.6.94,3.19,2.1,5.33,3.54.61-3.73,1.14-6.89,1.66-10.04l.5-.09c.26.48.55.95.76,1.45,1.34,3.09,2.64,6.21,4.04,9.28.23.51.91.78,1.3,1.24.8.9,1.53,1.84,2.27,2.76.88,1.26,1.86,2.44,2.93,3.55,3.41,3,3,9.32.16,13.03-.89,1.19-1.46,2.59-1.67,4.06-.4,3.05-3.15,2.98-4.94,3.63-1.8.65-3.83,0-5.68-.45-1.07-.5-1.99-1.29-2.65-2.27-.72-.91-1.35-1.89-1.88-2.92-.32-.65-.61-1.31-.85-1.99l-2.05,2.19c-1.65-1.43-2.19-3.73-4.88-4.23-3.86-.73-6.91.75-10.08,2.34-.51.29-1.06.52-1.63.68-1.81.27-3.59.69-5.32,1.26-1.88.84-2.91,0-4.19-1.14,2.27-3.03-.52-5.48-.8-8.2-.2-2.1-.76-4.17-.97-6.27-.25-2.52,2.05-3.13,3.58-4.15,1-.61,2.13-.95,3.3-1,2.86-.2,3.76-2.07,4.14-4.55l.72.43Z" style="fill: rgb(104, 225, 253);"/><path class="cls-18_tv-presenter-73 targetColor" d="M143.77,145.6c1.35.07,1.24,0,1.61-1.14.32-.6.79-1.12,1.36-1.49,1.28-1.06,1.23-2.27,0-3.14-1.93-1.49-3.99-2.8-5.98-4.17-.56.48-1.14,1.3-1.52,1.24-3.67-.48-7.31-1.14-10.97-1.71v-.68l1.14-.49c-.08-.1-.15-.26-.24-.28-2.55-.63-2.97-1.9-1.3-3.9,1-1.47,2.87-2.08,4.55-1.49-1.86,1.86-1.9,3.57.2,5.08-.07-1.14-.57-2.48-.1-3.29.75-.84,1.79-1.38,2.91-1.5.77,0,1.49.4,1.91,1.05.53,1.81,1.67,1.89,3.07,1.41,1.83-.68,3.88-.3,5.34.98,1.5,1.14,3.54,1.42,5.23,2.27,1.09.6,2.08,1.37,2.93,2.27.24.24-.09,1.02-.15,1.56l-.72.44,7.8,4.21-3.01,3.9-3.67-3.3-1.14,1.6c1.76,1.6,4.55,2.5,3.75,6.33l-4.01-2.27-.41.41,3.77,2.27-1,1.2c-2.27-.94-4.82-.92-6.52-3.23-1.24-1.6-3.29-2.33-5.26-1.89-.69.08-1.47-.61-2.21-.95.69-1.14,1.38-2.27,2.13-3.41,0,0,1.14.4,1.14.55-.15.54-.36,1.06-.64,1.55Z" style="fill: rgb(104, 225, 253);"/><path class="cls-18_tv-presenter-73 targetColor" d="M131.82,116.46c.31-.38.58-1.03.93-1.14,1.92-.25,3.85-.35,5.79-.5v-.64c-2.27.12-4.55.1-6.82-.07-2.09-.42-4.15-1-6.15-1.73l.11-.91c2.58-.3,5.17-.58,7.76-.9,1.97-.23,3.92-.65,5.9-.73,5.25-.22,10.51-.38,15.78-.36,2.01.18,4.01.52,5.97,1.02-4.23,1.83-7.64,3.94-11.37,4.75-4.01.88-5.51,5.01-9.63,5.6l1.36,1.9h-13.56l-.1-.74,4.8-2.03-2.27-1v-.73l5-.26-3.58-1.67.08.13Z" style="fill: rgb(104, 225, 253);"/><path class="cls-18_tv-presenter-73 targetColor" d="M100.09,135.04l-6.27-.35v-.5l1.64-.94-2.65-.67c.77-2.27,2.82-2.65,4.74-3.05.34-.07.81.53,1.36.93,2.59-.76,5.38-.02,7.25,1.92l-.59-2.83,4.17-1.35c-.92,3.79-.75,4.07,4.55,8.18l-2,.53.73,1.38c-1.31,0-2.53.34-3.41-.07-2.03-.94-3.79.09-5.59.44s-3.41.99-5.09-.67c-.89-.85-2.64-.82-3.99-1.14v-.86l5.16-.57v-.39Z" style="fill: rgb(104, 225, 253);"/><path class="cls-18_tv-presenter-73 targetColor" d="M409.33,257.89c1.72-2.39,3.41-3.21,5.88-1.66,1.61,1,3.71,1.22,5.38,2.16,1.55,1.05,3.01,2.23,4.35,3.52l-1.14,1.55,4.8,4.34c-2.42-.31-4.24-.73-5.44-2.82-.91-1.57-2.52-1.25-3.82.11-.74.61-1.71.87-2.66.7-1.3-.41-2.55-.95-3.73-1.63.97-2.67.52-3.56-2.75-4.73-1.14-.4-2.27-.66-3.41-.98-.08-.01-.15-.01-.23,0,.35-2.44-2.91-3.01-2.57-5.38,0,.33.08.66.15,1.22,4-2.75,3.5,1.78,5.19,3.58Z" style="fill: rgb(104, 225, 253);"/><path class="cls-18_tv-presenter-73 targetColor" d="M386.54,243.11l2.51,2.34c-.63.97-1.65,1.9-1.76,2.93s.74,2.07.99,2.68c-.84,1.94-1.76,3.72-2.35,5.58-.5,1.61-.95,2.59-2.75,1.33-.48-.26-1.01-.39-1.56-.39-3.11-.15-3.86-.73-4.75-4.04-.19-.99-.29-1.99-.32-3,2.57.48,7.18-4.15,9.99-7.45Z" style="fill: rgb(104, 225, 253);"/><path class="cls-18_tv-presenter-73 targetColor" d="M302.42,270.35c.49,1.69,1.14,3.11.23,5.29-1.35,3.13-1.71,6.67-2.68,9.98-.35,1.12-1.03,2.1-1.96,2.82-.47.34-2.22,0-2.36-.47-.55-1.52-1.31-3.47-.77-4.73.72-1.4.96-3,.68-4.55-.32-1.64.16-2.58,2.03-3.41s3.14-3.1,4.83-4.93Z" style="fill: rgb(104, 225, 253);"/><path class="cls-18_tv-presenter-73 targetColor" d="M241.31,163.56l-7.51,1.14,2.27-2.11-1.4-.65.56-2.58,1.43-1.3c-.48-.53-1.02-1-1.6-1.42-2.52-1.4-3.23-4.36-1.22-6.1.84-.55,1.88-.68,2.83-.35.74.56,1.13,1.47,1.02,2.4-.45.88-.2,1.95.59,2.53,1.43,1.57,2.77,3.22,4,4.96.18.44.18.93,0,1.36-.28.73-.6,1.44-.98,2.13Z" style="fill: rgb(104, 225, 253);"/><path class="cls-18_tv-presenter-73 targetColor" d="M359.13,245.63c4.33.48,10.23,6.57,12.45,10.38l1.14-.81c0,1.68.08,3.15-.06,4.55-.14.54-.53.99-1.05,1.2-.48.08-.97-.09-1.3-.44-2.27-3.1-4.4-6.27-6.64-9.38-.85-1.14-1.88-2.21-2.8-3.32-.57-.73-1.15-1.49-1.75-2.18Z" style="fill: rgb(104, 225, 253);"/><path class="cls-18_tv-presenter-73 targetColor" d="M326.22,118.32c-2.61.57-5.23,1.14-7.82,1.73-3.15.8-5.96,2.58-8.02,5.09-.42.51.53,2.18.89,3.41-2.47.34-4.97-.42-6.82-2.09,1.59-1.48,3.13-2.83,4.55-4.27,2.76-2.77,6.17-3.55,9.93-3.65,1.54-.19,3.06-.52,4.55-.99.85-.18,1.72-.25,2.57-.36l.18,1.14Z" style="fill: rgb(104, 225, 253);"/><path class="cls-18_tv-presenter-73 targetColor" d="M206.75,146.74h-2.39l2.67-2.42,1.5,1.99c2.14-.61,4.14-1.52,6.17-1.63.91,0,2.17,1.38,2.71,2.42.19.39-1.14,1.85-1.97,2.39-1.28.85-2.73,1.38-4.25,1.57-1.44.08-2.93-.67-4.41-1.06,1.33-1.77-.32-1.66-1.69-1.88l1.81-.97-.15-.42Z" style="fill: rgb(104, 225, 253);"/><path class="cls-18_tv-presenter-73 targetColor" d="M409.56,194.13l-.6-2.18-4.41,1.14-.32-.67c1.03-.73,2.16-1.31,3.35-1.72,2.53-.47,2.57-.33,3.72-2.61.92-.35,1.8-.41,2.01-.82.73-1.33,1.19-2.81,1.82-4.21.38-.82.86-1.58,1.3-2.36.47.91,1.41,1.88,1.3,2.72-.27,2.37-.84,4.7-1.68,6.93-.32.81-1.89,1.14-2.86,1.66s-2.11,1.22-3.61,2.13Z" style="fill: rgb(104, 225, 253);"/><path class="cls-18_tv-presenter-73 targetColor" d="M85.01,131.89l1.64-4.82c2.68-.55,8.13.33,9.53,1.58l-7.96,5.39-3.21-2.15Z" style="fill: rgb(104, 225, 253);"/><path class="cls-18_tv-presenter-73 targetColor" d="M131.75,116.39c-2.46,2.97-5.88,3.9-8.18,2.16-.35-.26-.45-.86-.76-1.51l-3.17-.77c1.14-3.3,2.53-3.68,5.38-2.27,2.17,1.03,4.55,1.69,6.82,2.51l-.08-.11Z" style="fill: rgb(104, 225, 253);"/><path class="cls-18_tv-presenter-73 targetColor" d="M257.85,115.89l2.51-.98c-2.34.3-4.55.61-6.05-2.03,5.85-.92,11.37-.19,16.19,3.24-1.51,1.06-2.4.86-3.75-.53-.54-.35-1.19-.48-1.82-.36-.39,0-.76.49-1.14.78q-2.65,2.09-5.94-.11Z" style="fill: rgb(104, 225, 253);"/><path class="cls-18_tv-presenter-73 targetColor" d="M139.3,125.69c-1.02.43-2.06,1.23-3.08,1.23-3.41,0-6.82-.28-10.23-.49-.99-.06-2.63-2.76-2.05-3.41.27-.31,1.31-.49,1.43-.32,2.18,3.07,5.33,2.07,8.25,2.07h5.48l.19.92Z" style="fill: rgb(104, 225, 253);"/><path class="cls-18_tv-presenter-73 targetColor" d="M98.56,126.48l2.22-.76v-.43l-6.08.5c1.59-3.06,1.76-3.21,3.81-2.61,1.75.51,3.41,1.14,5.23,1.72l.22-2.44c1.43.51,2.5.85,3.55,1.27.39.15,1.03.53,1,.69-.09.45-.42,1.14-.76,1.2-2.99.57-6,1.01-9.01,1.49l-.16-.63Z" style="fill: rgb(104, 225, 253);"/><path class="cls-18_tv-presenter-73 targetColor" d="M456.33,310.3l2.13,1.25-3.34,3.41c-.34.29-.65.62-.91.99q-1.92,3.08-6.05,1.51l8.17-7.16Z" style="fill: rgb(104, 225, 253);"/><path class="cls-18_tv-presenter-73 targetColor" d="M358.42,112.09l-3.96.92c-.11-2.5,3.34-3.58,7.79-2.55-.6,3.08,2.19.51,2.76,1.78-.23,1.76-1.99,2.41-5.32,1.68-.6-.13-1.06-.88-1.59-1.33l.32-.51Z" style="fill: rgb(104, 225, 253);"/><path class="cls-18_tv-presenter-73 targetColor" d="M396.53,251.31c-1.19,2.27-3.73.45-5.8,1.52l.35,1.89,3.22-1.14.22.38-1.93,1.66,1.83,4.86-.57.31-2.85-3.97c-.09,1.4-.17,2.74-.28,4.55-1.82-2.74-1.66-6.57.08-10.16l5.74.1Z" style="fill: rgb(104, 225, 253);"/><path class="cls-18_tv-presenter-73 targetColor" d="M227.85,157.87c1.99-.51,3.32-4.09,5.6-1.14-.18,1.14-.36,2.17-.49,3.17-.16,1.2-4.06,3.02-4.98,2.27-.25-.26-.38-.63-.33-.99.19-.57.77-1.06.83-1.61.06-.56-.4-1.14-.64-1.71Z" style="fill: rgb(104, 225, 253);"/><path class="cls-18_tv-presenter-73 targetColor" d="M112.37,129.81l2.5.7-1.52-2.14,5.75-.83-1.3,2.27c2.35,1.58,2.27,1.81-1.2,3.71l-4.55-3.1.32-.61Z" style="fill: rgb(104, 225, 253);"/><path class="cls-18_tv-presenter-73 targetColor" d="M372.58,261.54l10.16,1.14-.51.78,2.5,1.32c-3.6.59-10.63-.97-12.15-3.24Z" style="fill: rgb(104, 225, 253);"/><path class="cls-18_tv-presenter-73 targetColor" d="M418.9,157.54c.49,2.86.97,5.68,1.47,8.63-1.77.66-2.06,1.76-1.03,4.84l-1.51.4c0-.3-.1-.51-.11-.72-.1-2.92-.32-5.84-.23-8.76.18-1.52.51-3.01.98-4.47l.44.08Z" style="fill: rgb(104, 225, 253);"/><path class="cls-18_tv-presenter-73 targetColor" d="M422.19,176.82l-3.41,2.27c-.84-.26-2.27-1.88-2.97,1.14l-.56-.48c-.01-.77.1-1.54.32-2.27.65-1.38,1.51-2.66,2.34-4.07l4.27,3.41Z" style="fill: rgb(104, 225, 253);"/><path class="cls-18_tv-presenter-73 targetColor" d="M395.04,234.66l-3.1-1.14.24,2.01c-.38-.15-.74-.19-.75-.3-.34-2.33-1.75-4.55-.53-7.01.23-.45.68-1.14,1.06-1.14s1.14.69,1.14.99c-.34,2.38-1.6,5.02,2.27,5.76l-.32.82Z" style="fill: rgb(104, 225, 253);"/><path class="cls-18_tv-presenter-73 targetColor" d="M411.33,120.1c.78-.52,1.39-1.26,2.01-1.27,2.43,0,4.86.11,7.3.26.28,0,.64.39.78.68s-.17.57-.38.73c-1.13.86-7.95.74-9.72-.4Z" style="fill: rgb(104, 225, 253);"/><path class="cls-18_tv-presenter-73 targetColor" d="M463.31,306.44l-3.85,5.25c-.6-1.49-.99-2.44-1.48-3.67.25-.69.63-1.78,1.08-3.07l4.25,1.49Z" style="fill: rgb(104, 225, 253);"/><path class="cls-18_tv-presenter-73 targetColor" d="M143.98,225.25c-.68-3.63-4.55-2.15-6.29-4.01l-2.69,1.23c1.56-3.08,4.43-2.52,12.76,2.27l-3.79.51Z" style="fill: rgb(104, 225, 253);"/><path class="cls-18_tv-presenter-73 targetColor" d="M114.31,123.41c.63-.44,1.01-.92,1.27-.86.81.18,1.92.39,2.27.94.12.81-.16,1.63-.75,2.19-1.14.93-6.44-1.44-7.12-3.35l4.32,1.08Z" style="fill: rgb(104, 225, 253);"/><path class="cls-18_tv-presenter-73 targetColor" d="M126.55,128.82c-.97.56-1.93,1.14-2.91,1.65-.25.13-.57.11-.84.22-.58.2-1.14.43-1.72.65-.23-.7-.74-1.47-.61-2.09s.85-1.47,1.38-1.51c1.46-.03,2.91.05,4.35.24l.35.85Z" style="fill: rgb(104, 225, 253);"/><path class="cls-18_tv-presenter-73 targetColor" d="M394.61,242.34h-1.25l-.19-.4,4.55-2.36c2,1.63.38,3.41-.72,5.49l-2.39-2.73Z" style="fill: rgb(104, 225, 253);"/><path class="cls-18_tv-presenter-73 targetColor" d="M138.22,150.85l-7.52.36c1.56-3.16,1.64-4.38,7.52-.36Z" style="fill: rgb(104, 225, 253);"/><path class="cls-18_tv-presenter-73 targetColor" d="M88.08,123.12l8.05-2.88c-.06,2.57-.07,2.38-2.27,2.44-1.55.23-3.07.61-4.55,1.14-.38,0-.77-.05-1.14-.16l-.09-.55Z" style="fill: rgb(104, 225, 253);"/><path class="cls-18_tv-presenter-73 targetColor" d="M147.83,226.82l2.15.27-.67-1.92c2.16.08,4.41-.35,6.23,2.42h-7.71v-.77Z" style="fill: rgb(104, 225, 253);"/><path class="cls-18_tv-presenter-73 targetColor" d="M273.78,111.7c-3.32,2.97-6.47.38-9.68,0h9.68Z" style="fill: rgb(104, 225, 253);"/><path class="cls-18_tv-presenter-73 targetColor" d="M108.98,117.31c2.18-.84,5.93.49,7.3,3.01-1.04-.41-2.1-.76-3.17-1.05-.81-.12-1.63-.17-2.46-.16l-1.67-1.81Z" style="fill: rgb(104, 225, 253);"/><path class="cls-18_tv-presenter-73 targetColor" d="M364.82,115.62c1.86-2.91,4.43-3.26,7.5-.67l-7.5.67Z" style="fill: rgb(104, 225, 253);"/><path class="cls-18_tv-presenter-73 targetColor" d="M421.15,310.17c1.14.18,1.9.27,2.61.41s1.19.24,1.78.35c-.11.64-.3,1.27-.58,1.85-.54.59-1.14,1.12-1.8,1.58l-2.02-4.19Z" style="fill: rgb(104, 225, 253);"/><path class="cls-18_tv-presenter-73 targetColor" d="M340.94,239.24c.69,1.05,1.27,2.17,1.73,3.34.14.5-.66,1.26-1.02,1.91-.5-.49-1.36-.93-1.44-1.49-.08-1.2-.04-2.4.11-3.59l.63-.17Z" style="fill: rgb(104, 225, 253);"/><path class="cls-18_tv-presenter-73 targetColor" d="M403.36,198.75c-.33-1.63-.57-2.85-.91-4.55.56,0,1.63-.28,1.86,0,1.13,1.57.53,2.99-.95,4.55Z" style="fill: rgb(104, 225, 253);"/><path class="cls-18_tv-presenter-73 targetColor" d="M314.11,108.54c-.26,2.46-1.93,3-5.81,1.89l5.81-1.89Z" style="fill: rgb(104, 225, 253);"/><path class="cls-18_tv-presenter-73 targetColor" d="M392.85,217.69l-1.49,4.47c-1.71-2.36-.28-3.41.75-4.65l.74.18Z" style="fill: rgb(104, 225, 253);"/><path class="cls-18_tv-presenter-73 targetColor" d="M142.44,129.89c-1.41-.47-3.34,1.71-4.43-1.47l4.55.6-.11.86Z" style="fill: rgb(104, 225, 253);"/><path class="cls-18_tv-presenter-73 targetColor" d="M251.1,184.34c-.11-.81-.14-1.64-.1-2.46,0-.38.63-.67.95-1.01.26.33.77.7.73.98-.21.92-.48,1.83-.81,2.72l-.77-.23Z" style="fill: rgb(104, 225, 253);"/><path class="cls-18_tv-presenter-73 targetColor" d="M256.31,186.15h3.01v2.42l-3.24-1.81.23-.61Z" style="fill: rgb(104, 225, 253);"/><path class="cls-18_tv-presenter-73 targetColor" d="M123.13,126.9l-3.72-.92-.13-.67c.9-.29,1.82-.47,2.76-.55.31,0,.56,1.02,1.08,2.14Z" style="fill: rgb(104, 225, 253);"/><path class="cls-18_tv-presenter-73 targetColor" d="M399.53,264.68l-4.68,3.11c.63-2.09,2.01-3.01,4.68-3.11Z" style="fill: rgb(104, 225, 253);"/><path class="cls-18_tv-presenter-73 targetColor" d="M117.07,117.64l3.97,1.14c-1.73,1.71-2.68,1.48-3.97-1.14Z" style="fill: rgb(104, 225, 253);"/><path class="cls-18_tv-presenter-73 targetColor" d="M430.34,259.53c-.67,2.27-2.06,2.8-4.05,1.4l4.05-1.4Z" style="fill: rgb(104, 225, 253);"/></g><path class="cls-18_tv-presenter-73 targetColor" d="M123.75,283.98c.78-.07,1.35-.75,1.28-1.53-.06-.68-.6-1.22-1.28-1.28-.78.07-1.35.75-1.28,1.53.06.68.6,1.22,1.28,1.28Z" style="fill: rgb(104, 225, 253);"/><rect class="cls-18_tv-presenter-73 targetColor" x="35.54" y="105.38" width="111.36" height="28.83" style="fill: rgb(104, 225, 253);"/><g class="cls-19_tv-presenter-73"><path class="cls-16_tv-presenter-73" d="M73.52,112.82h3.1v11.22h5.75v2.86h-8.85v-14.08Z"/><path class="cls-16_tv-presenter-73" d="M84.05,112.82h3.1v14.08h-3.1v-14.08Z"/><path class="cls-16_tv-presenter-73" d="M88.58,112.82h3.54l3.48,9.23h.04l3.54-9.23h3.32l-5.81,14.08h-2.49l-5.63-14.08Z"/><path class="cls-16_tv-presenter-73" d="M104.1,112.82h9.57v2.86h-6.46v2.62h6.11v2.87h-6.11v2.86h6.82v2.86h-9.93v-14.08Z"/></g><circle class="cls-16_tv-presenter-73" cx="58.72" cy="120.12" r="5.62"/></g><g id="character_2_tv-presenter-73"><rect class="cls-16_tv-presenter-73" x="346.69" y="135.59" width="95.98" height="116.57"/><rect class="cls-6_tv-presenter-73 targetColor" x="346.69" y="135.59" width="95.98" height="116.57" style="fill: rgb(104, 225, 253);"/><polygon class="cls-15_tv-presenter-73" points="377.44 232.16 378.18 252.3 390.97 252.3 394.08 246.2 395.94 252.15 409.14 252.15 410.16 232.09 377.44 232.16"/><polygon class="cls-1_tv-presenter-73" points="377.44 232.16 378.18 252.3 390.97 252.3 394.08 246.2 395.94 252.15 409.14 252.15 410.16 232.09 377.44 232.16"/><path class="cls-18_tv-presenter-73 targetColor" d="M388.68,174.11s-12.37,5.97-12.65,7.96c-.28,1.99,1.41,50.09,1.41,50.09,0,0,4.01,5.21,16.31,5.21s15.83-3.6,16.4-5.29c.57-1.68,2.57-49.67,2.27-51.72-.3-2.05-11.69-6.23-11.69-6.23l-12.06-.02Z" style="fill: rgb(104, 225, 253);"/><path class="cls-8_tv-presenter-73" d="M395.44,190.21s-13.95,17.13-14.88,16.21-4.41-25.11-4.55-24.37c-.19,1.41.61,24.53,1.14,37.42-1.82,13.56,23.1-15.83,23.1-15.83,0,0-2.14-11.67-4.81-13.42Z"/><polygon class="cls-15_tv-presenter-73" points="393.09 184.67 393.83 202.99 396.5 202.99 397.14 184.78 393.09 184.67"/><polygon class="cls-9_tv-presenter-73" points="393.09 184.67 393.83 202.99 396.5 202.99 397.14 184.78 393.09 184.67"/><path class="cls-17_tv-presenter-73" d="M392.42,188.68c.23-.3.5-.57.8-.8.4-.24.84-.4,1.3-.47.64-.13,1.29-.2,1.94-.23.18-.02.37,0,.55.07.17.09.3.23.38.41.21.74.31,1.51.28,2.27.1.47.24.93.41,1.39.16.69.26,1.4.27,2.11.05.36.02.72-.07,1.07-.32.73-1.02,1.22-1.82,1.26-.77.08-1.38.58-2.16.49-1.05-.12-2.11-.07-3.15.15-1.28.27-2.19-2.81-1.81-3.81.29-.57.68-1.08,1.14-1.52l1.94-2.4Z"/><path class="cls-17_tv-presenter-73" d="M389.83,168.15s-.07,3.41,0,5.85c0,1.84.67,5.38,4.55,5.38s4.39-4.55,4.31-5.38c.11-1.31.11-2.62,0-3.93-.25-2.15-8.64-3.42-8.85-1.92Z"/><path class="cls-7_tv-presenter-73" d="M389.84,171.58s.95,5.59,3.83,5.38c2.88-.22,5.12-4,5.12-4l-.08-2.88-8.87,1.5Z"/><circle class="cls-15_tv-presenter-73" cx="394.9" cy="178.12" r="3.79"/><circle class="cls-13_tv-presenter-73" cx="394.9" cy="178.12" r="3.79"/><path class="cls-18_tv-presenter-73 targetColor" d="M378.34,179.8c-1.78,1.19-3.33,2.71-4.55,4.48-1.96,2.89-10.58,38.41,2.21,34.36,2.72-.86,18.51-19.96,18.51-19.96,0,0-3.73-4.86-6.16-6.46,0,0-7.25,8.93-8.09,8.09-.84-.84-1.91-20.52-1.91-20.52Z" style="fill: rgb(104, 225, 253);"/><path class="cls-18_tv-presenter-73 targetColor" d="M412.44,180.36s5.62,23.6,6.05,27.61-3.26,13.57-5.56,12.92c-5.09-1.43-4.29-10.14-4.29-10.14l3.8-30.39Z" style="fill: rgb(104, 225, 253);"/><path class="cls-17_tv-presenter-73" d="M415.98,224.46c.25-.29.65-.41,1.02-.3.37.2.64.55.74.95,1.14,2.88,1,5.42,1.14,8.37.21,2.15.16,4.31-.15,6.44-.39,1.81-5.68,6.33-6.49,5.8s.89-2.09,1.96-2.99,1.14-3.17,1.28-3.9-1.59-.73-1.14-2.9c.35-1.6,1.05-2.39.93-4.07-.14-1.99-.08-4,.19-5.98.04-.45.18-.89.41-1.27.03-.06.06-.11.1-.16Z"/><path class="cls-18_tv-presenter-73 targetColor" d="M410.18,217.1c-.09.36,4.44,15.25,4.44,15.25,1.8.16,3.61-.24,5.17-1.14,0,0-.59-20.9-1.14-22.36-.55-1.45-1.53-1.14-6.21.56-4.67,1.69-2.27,7.68-2.27,7.68Z" style="fill: rgb(104, 225, 253);"/><polygon class="cls-14_tv-presenter-73" points="407.18 196.79 410.88 220.03 411.2 210.77 407.18 196.79"/><path class="cls-17_tv-presenter-73" d="M385.21,158.25s1.6,13.11,6.72,15.13c5.12,2.02,8.51-3.63,9.48-8.2.59-3.2.84-6.45.74-9.7,0,0-3.41-6.5-9.8-3.73-6.39,2.77-7.02,4.47-7.14,6.49Z"/><path class="cls-17_tv-presenter-73" d="M384.63,161.29c-.14.04-.27.12-.36.23-.12.21-.18.44-.19.68-.09,1.07.18,2.14.78,3.03.21.34.51.61.86.8.32.18.71.18,1.02,0,.08-.06.15-.14.19-.23.05-.19.05-.39,0-.58-.26-1.5-.57-4.48-2.31-3.93Z"/><path class="cls-17_tv-presenter-73" d="M402.89,160.87c.15.04.28.13.38.25.12.21.19.44.19.68.09,1.07-.19,2.14-.78,3.03-.22.33-.51.61-.86.8-.32.18-.71.18-1.02,0-.09-.06-.16-.14-.19-.24-.06-.19-.06-.38,0-.57.25-1.53.56-4.44,2.3-3.96Z"/><path class="cls-15_tv-presenter-73" d="M385.01,152.84c0-.59.28-1.35.86-1.31.13-.6.39-1.16.75-1.66.39-.49,1.06-.68,1.65-.45.84-1.34,2.14-2.33,3.65-2.8,1.33-.35,2.72-.42,4.08-.2,1.29.12,2.55.51,3.68,1.14,1.35.9,2.51,2.06,3.41,3.41l1.28,1.69c.24.25.38.59.39.94,0,.35-.33.61-.5.92-.16.36-.26.74-.3,1.14-.44,2.06-1.2,4.04-2.27,5.85.3-1.8.13-3.64-.5-5.35-.66.43-1.48.52-2.22.26-.73-.26-1.44-.58-2.11-.97-1.17-.57-2.43-.92-3.73-1.05-.9-.16-1.83.02-2.6.52-.27.27-.57.52-.88.74-.47.18-.97.25-1.47.22-.5-.04-.99.18-1.31.58-.16.27-.16.61-.35.86s-.16,1.01-.35,1.14c-.45.38-.19,2.83-.28,3.34-1.06-1.43-.99-7.32-.89-8.97Z"/><rect class="cls-18_tv-presenter-73 targetColor" x="390.13" y="180.34" width="9.71" height="5.9" style="fill: rgb(104, 225, 253);"/><rect class="cls-12_tv-presenter-73" x="390.13" y="180.34" width="9.71" height="5.9"/></g><g id="character_1_tv-presenter-73"><path class="cls-15_tv-presenter-73" d="M208.26,232.24c-1.81,10.43-2.48,21.22-6.6,30.97-2.05,4.84-4.91,9.32-6.82,14.22-1.91,4.9-2.83,10.5-.84,15.37.96,2.21,2.32,4.24,4,5.97,9.32,10.16,23.6,14.29,37.34,15.47,4.48.5,9,.38,13.45-.35,5.13-.98,9.92-3.22,14.99-4.46,2.29-.4,4.54-1.04,6.7-1.92,5.87-2.86,8.23-10.13,8.18-16.66-.05-6.54-1.86-12.97-1.71-19.49.19-8.12,3.41-15.83,4.73-23.87.87-5.82.9-11.73.09-17.56-.77-6.05-2.39-12.26-6.46-16.81-2.43-2.54-5.28-4.63-8.43-6.17-10.13-5.57-21.69-8.05-33.21-7.1-10.01.88-16.08,6.21-20.46,15.4-2.4,5.42-4.06,11.14-4.94,17Z"/><path class="cls-10_tv-presenter-73" d="M207.62,279.83c-2.52,4.86-5.47,10.23-4.17,15.52.86,2.8,2.4,5.34,4.47,7.41,5.68,6.41,13.17,11.75,21.7,12.78,7.04.84,14.06-1.32,20.71-3.79,8.25-3.07,17.25-7.7,19.52-16.2,1.55-5.81-.53-11.87-1.89-17.73-2.13-9.31-2.41-18.95-2.21-28.5,0-2.94.14-6.01-1.06-8.71-1.96-4.39-6.82-6.72-11.56-7.66-10.95-2.18-26.42,2.03-33.48,11.37-2.91,3.84-3.22,8.82-4.08,13.39-1.55,7.72-4.24,15.18-7.96,22.12Z"/><path class="cls-18_tv-presenter-73 targetColor" d="M213.07,295.86s-21.15,3.73-25.13,10.09c-3.98,6.37,10.47,78.23,10.47,78.23h75.6s9.95-58.56,9.55-63.73c-.4-5.17,0-20.97-19.68-23.17-19.68-2.19-50.81-1.42-50.81-1.42Z" style="fill: rgb(104, 225, 253);"/><path class="cls-11_tv-presenter-73" d="M213.07,295.86s-21.15,3.73-25.13,10.09c-3.98,6.37,10.47,78.23,10.47,78.23h75.6s9.95-58.56,9.55-63.73c-.4-5.17,0-20.97-19.68-23.17-19.68-2.19-50.81-1.42-50.81-1.42Z"/><path class="cls-17_tv-presenter-73" d="M214.99,294.83c-.75.09-1.43.46-1.92,1.03-.31.68-.31,1.45,0,2.13,1.94,5.68,7.23,9.82,12.98,11.67,5.75,1.85,11.92,1.75,17.94,1.14,3.6-.33,7.29-.84,10.42-2.63,4.23-2.4,6.91-6.76,9.4-10.95-3.99-1.96-8.2-4.25-10.23-8.22-2.27-4.55-1.14-9.99-1.45-15.07-.01-.87-.24-1.72-.66-2.48-.57-.75-1.33-1.33-2.21-1.67-7.12-3.3-16.15-2.27-18.72,5.68-2.71,8.66-5.8,16.77-15.55,19.36Z"/><path class="cls-5_tv-presenter-73" d="M252.25,275.38c-1.3,5.48-4.42,12.2-11.88,13.06-7.46.86-9.6-5.99-10.11-11.88.11-.34.23-.68.33-1.02,1.1-3.68,4.18-6.43,7.96-7.13l5.84-.1c1.72.28,3.39.8,4.97,1.53.88.34,1.64.92,2.21,1.67.42.76.65,1.62.66,2.49,0,.45.01.91.02,1.38Z"/><path class="cls-3_tv-presenter-73" d="M244.36,268.36l-5.84.1c1.92-.4,3.91-.44,5.84-.1Z"/><path class="cls-17_tv-presenter-73" d="M217.1,233.46s-.3,41.16,17.6,45.04c17.89,3.88,26.85-14.32,28.34-21.18,1.49-6.85,2.68-30.69,2.68-30.69-3.55-6.62-10.7-10.5-18.19-9.84-13.13.86-31.33,1.45-30.43,16.68Z"/><path class="cls-17_tv-presenter-73" d="M267.55,235.66c.29-.24.64-.41,1.01-.49.42-.05.85.06,1.2.3.73.53,1.18,1.37,1.22,2.27.02.91-.12,1.81-.41,2.67-.81,3.36-2.51,6.43-4.92,8.9-.51.48-1.31.92-1.85.48-.29-.31-.43-.72-.41-1.14-.47-4.88-.19-9.84,4.16-12.99Z"/><path class="cls-15_tv-presenter-73" d="M248.01,234.96c-3.98,3.73-9.03,6.12-14.44,6.82-5.39.69-10.85.46-16.16-.69-.61-3.61-.79-7.27-.55-10.92.26-3.68,1.79-7.16,4.33-9.83,1.83-1.62,3.94-2.89,6.23-3.76,5.52-2.52,11.51-3.84,17.58-3.9,5.04,0,11.09,1.39,14.98,4.81,2.52,2.22-.78,3.48-2.38,5.1-1.63,1.79-3.11,3.71-4.43,5.74-1.52,2.37-3.25,4.59-5.17,6.64Z"/><path class="cls-17_tv-presenter-73" d="M196.93,309.8c-.41-3.11-3.27-5.3-6.38-4.89-.94.12-1.84.49-2.61,1.05-4.17,3.32-7.3,7.77-9.01,12.81-1.99,6.75-19.63,55.7-19.89,61.38-.4,9.15,12.33,7.96,12.33,7.96l63.23-1.19s1.99,2.78,12.33-1.14c10.34-3.92,9.95-13.13-16.71-14.71-15.39-.84-30.69-2.97-45.73-6.37l7.96-13.53s6.31-26.18,4.48-41.38Z"/><path class="cls-17_tv-presenter-73" d="M279.94,305.87s9.15,6.37,10.74,12.33c1.59,5.97,17.89,59.65,17.49,63.65-.4,4-3.58,5.17-9.55,4.77-5.97-.4-87.14-3.65-87.14-3.65,0,0-6.76-6.37,5.97-9.09,12.73-2.73,68.01-8.34,68.01-8.34l-11.46-25.12s-2.02-28.63,5.93-34.56Z"/><path class="cls-15_tv-presenter-73" d="M255.66,223.85c1.64.58,2.46,2.46,2.64,4.19.01,1.74.13,3.48.36,5.21.7,2.93,3.23,5.14,4.13,7.96.69,2.19.38,4.55.66,6.82.49,3.75,2.56,7.12,5.68,9.25l2.99-11.65c1.17-4.03,2-8.16,2.48-12.33.48-4.19-.09-8.44-1.67-12.36-1.61-3.94-4.79-7.03-8.78-8.53-3.41-1.14-7.62-.51-9.55,2.46-.96,1.49-1.2,3.33-.67,5.02"/></g><g id="table_tv-presenter-73"><rect class="cls-15_tv-presenter-73" x="66.09" y="390.27" width="371.78" height="47.92"/><rect class="cls-4_tv-presenter-73" x="66.09" y="390.27" width="371.26" height="25.8"/><rect class="cls-15_tv-presenter-73" x="56.88" y="384.75" width="398.12" height="8.68"/></g></svg>