<svg id="_0350_tv_presenter" data-name="0350_tv_presenter" xmlns="http://www.w3.org/2000/svg" viewBox="0 0 500 500" data-imageid="tv-presenter-13" imageName="TV Presenter" class="illustrations_image" style="width: 188px;"><defs><style>.cls-1_tv-presenter-13{fill:#68e1fd;}.cls-2_tv-presenter-13{fill:#fff;}.cls-3_tv-presenter-13{fill:#231f20;}.cls-4_tv-presenter-13{fill:#d1d3d4;}</style></defs><g id="Character_tv-presenter-13"><path class="cls-1_tv-presenter-13 targetColor" d="M311,230.9s-7.57,1.5-17.8,4.11-45.37,16.46-49.11,17.58,17.2,138.18,17.2,138.18H382.38S401.45,256.9,400,254.18s-48.56-16.11-50.82-17.45S321.15,228.66,311,230.9Z" style="fill: rgb(104, 225, 253);"/><path class="cls-2_tv-presenter-13" d="M341.81,243.87c-.3,6.66-1.11,14.7-2.22,23.37-1.39,10.85-3.26,22.7-5.23,34.16C329.26,331,323.47,358,323.47,358c-3.74-8.5-7.46-27-10.65-46.61-2.44-15.06-4.55-30.79-6.12-43.29-1.78-14.19-2.84-24.19-2.84-24.19Z"/><path class="cls-3_tv-presenter-13" d="M323.47,358.68a.73.73,0,0,1-.66-.43c-3.26-7.41-6.86-23.15-10.7-46.78-2-12.46-4.08-27-6.12-43.32-1.76-14-2.84-24.11-2.85-24.21a.74.74,0,0,1,.18-.55.71.71,0,0,1,.54-.24h37.95a.71.71,0,0,1,.52.22.69.69,0,0,1,.2.53c-.28,6.17-1,14.06-2.22,23.43-1.25,9.72-3,21.22-5.24,34.2-5,29.27-10.83,56.31-10.89,56.58a.73.73,0,0,1-.63.57Zm-18.8-114.09c.28,2.65,1.28,11.62,2.75,23.38,2,16.27,4.1,30.82,6.12,43.26,3.47,21.4,6.73,36.26,9.72,44.26,1.5-7.16,6.21-29.91,10.39-54.21,2.22-12.95,4-24.44,5.23-34.13,1.14-9,1.87-16.54,2.17-22.56Z"/><path class="cls-4_tv-presenter-13" d="M327.3,263.17l7.06,38.23C329.26,331,323.47,358,323.47,358c-3.74-8.5-7.46-27-10.65-46.61l8-47.92L312.59,256l3.62-12.09.86-2.87,8.86,2.87,8.84,2.87Z"/><path class="cls-3_tv-presenter-13" d="M323.47,358.68a.73.73,0,0,1-.66-.43c-3.26-7.41-6.86-23.15-10.7-46.78a1,1,0,0,1,0-.24L320,263.7l-7.93-7.2a.72.72,0,0,1-.21-.74l4.49-15a.76.76,0,0,1,.36-.43.73.73,0,0,1,.56-.05l17.7,5.74a.71.71,0,0,1,.43.4.68.68,0,0,1,0,.59l-7.38,16.23,7,38a.57.57,0,0,1,0,.26c-5,29.27-10.83,56.31-10.89,56.58a.73.73,0,0,1-.63.57Zm-9.91-47.33c3.46,21.33,6.72,36.15,9.7,44.14,1.5-7.14,6.19-29.83,10.37-54.08l-7-38.1a.74.74,0,0,1,.05-.44l7.14-15.7-16.23-5.26-4.14,13.83,7.88,7.15a.74.74,0,0,1,.23.66Z"/><path class="cls-2_tv-presenter-13" d="M341.81,243.87c-.3,6.66-1.11,14.7-2.22,23.37-4.66-6.65-17.18-13.05-17.18-13.05-4.71,2.21-12.89,10.82-15.71,13.87-1.78-14.19-2.84-24.19-2.84-24.19Z"/><path class="cls-3_tv-presenter-13" d="M306.7,268.78l-.22,0a.71.71,0,0,1-.49-.6c-1.76-14-2.84-24.11-2.85-24.21a.74.74,0,0,1,.18-.55.71.71,0,0,1,.54-.24h37.95a.71.71,0,0,1,.52.22.69.69,0,0,1,.2.53c-.28,6.17-1,14.06-2.22,23.43a.72.72,0,0,1-1.31.32C334.91,261.8,324.37,256,322.4,255c-4.71,2.42-12.76,10.95-15.17,13.55A.7.7,0,0,1,306.7,268.78Zm-2-24.19c.27,2.53,1.19,10.84,2.56,21.85,3.66-3.9,10.58-10.89,14.87-12.91a.72.72,0,0,1,.64,0c.48.25,11.09,5.71,16.35,11.88,1-8.21,1.68-15.2,2-20.83Z"/><path class="cls-2_tv-presenter-13" d="M356.49,186.38s10.31-26.71,5.27-33.08-8-3.67-8-3.67,5-4.65-2.51-11.51c-3.54-3.2-8.64-4.57-13-5.63-4.91-1.2-10.8-2.72-15.5-.09a2.65,2.65,0,0,0,1.85,1.11,27.78,27.78,0,0,0-17.35.88c-5.33,2.06-10.52,6.68-10.64,12.74-3.07-.49-5.67,2.67-6.49,5.87-1.09,4.31-.55,8.13,0,12.39.55,4.49.53,9.1,1,13.62.57,5.78,1.27,11.55,2.15,17.29C293.16,196.3,347.33,200.61,356.49,186.38Z"/><path class="cls-3_tv-presenter-13" d="M311.13,197.66c-9.69,0-17.21-.58-18-.64a.72.72,0,0,1-.65-.61c-.85-5.48-1.55-11.15-2.16-17.33-.2-2-.31-4.12-.41-6.14-.13-2.46-.26-5-.56-7.46l-.07-.55c-.5-4-1-7.85.12-12.11.83-3.26,3.33-6.44,6.5-6.47.54-6.36,6.21-10.76,11.06-12.63A28.71,28.71,0,0,1,322,132.21a.69.69,0,0,1,.34-.44c4.83-2.71,10.82-1.25,15.64-.08l.38.09c4.8,1.17,9.79,2.58,13.35,5.81,2.91,2.64,4.39,5.3,4.4,7.91a6.49,6.49,0,0,1-.62,2.84l.41,0c2,.17,4.2,1.68,6.42,4.49,5.24,6.62-4.73,32.68-5.15,33.79a.54.54,0,0,1-.07.13C351.21,195.92,327.93,197.66,311.13,197.66Zm-17.34-2c5.79.4,53.62,3.3,62-9.57,2.84-7.38,9.26-27.36,5.35-32.3-2.42-3.06-4.25-3.83-5.35-3.95a2.29,2.29,0,0,0-1.62.37.72.72,0,0,1-1-1.07,5.12,5.12,0,0,0,1.42-3.62c0-2.18-1.34-4.48-3.93-6.82-3.31-3-8.1-4.35-12.72-5.47l-.38-.09c-4.48-1.09-9.52-2.32-13.69-.52l.13.07.65.17a.72.72,0,0,1,.52.83.71.71,0,0,1-.79.58,3.07,3.07,0,0,1-.83-.21,27.13,27.13,0,0,0-16.18,1c-4.62,1.78-10.06,6-10.18,12.07a.69.69,0,0,1-.25.54.73.73,0,0,1-.58.16c-2.61-.43-4.92,2.39-5.67,5.34-1,4-.59,7.5-.08,11.57l.06.55c.31,2.51.45,5.08.57,7.57.11,2,.21,4.06.41,6.06C292.31,184.87,293,190.34,293.79,195.62Zm62.7-9.24h0Z"/><path class="cls-2_tv-presenter-13" d="M345.92,191.22c1.69-10.54,19.18-13.14,18.31-.72-.29,4.27-1.66,8.62-4.66,11.67s-7.83,4.49-11.73,2.74"/><path class="cls-3_tv-presenter-13" d="M351.49,206.39a9.67,9.67,0,0,1-3.95-.82.72.72,0,0,1,.59-1.32c3.43,1.54,7.92.47,10.93-2.59,3.27-3.33,4.23-7.93,4.45-11.21.43-6.11-3.72-7.26-5.53-7.47-4.64-.54-10.45,2.77-11.35,8.35a.74.74,0,0,1-.83.6.73.73,0,0,1-.6-.83c1-6.39,7.66-10.15,12.95-9.55,3.56.41,7.22,3,6.8,9-.24,3.52-1.28,8.48-4.86,12.12A12.27,12.27,0,0,1,351.49,206.39Z"/><path class="cls-2_tv-presenter-13" d="M302.33,191.22c-1.69-10.54-19.18-13.14-18.31-.72.29,4.27,1.66,8.62,4.66,11.67s7.83,4.49,11.73,2.74"/><path class="cls-3_tv-presenter-13" d="M296.76,206.39a12.27,12.27,0,0,1-8.6-3.72c-3.57-3.64-4.62-8.6-4.86-12.12-.42-6,3.24-8.59,6.81-9,5.3-.6,11.91,3.17,12.94,9.55a.72.72,0,0,1-1.43.23c-.89-5.58-6.7-8.89-11.35-8.35-1.8.21-6,1.35-5.53,7.47.23,3.28,1.19,7.88,4.45,11.21,3,3.06,7.5,4.13,10.93,2.59a.72.72,0,0,1,.59,1.32A9.67,9.67,0,0,1,296.76,206.39Z"/><path class="cls-2_tv-presenter-13" d="M303.86,243.87s4.74,10.31,18.55,10.31,19.4-10.31,19.4-10.31l-.58-7.37-1.36-17.12-1.28-16H307.07L306,216.46l-.31,4.25Z"/><path class="cls-3_tv-presenter-13" d="M322.41,254.9c-14.11,0-19.15-10.62-19.2-10.73a.73.73,0,0,1-.07-.36l3.21-40.49a.73.73,0,0,1,.72-.67h31.52a.72.72,0,0,1,.72.67l3.23,40.49a.73.73,0,0,1-.09.41A23.24,23.24,0,0,1,322.41,254.9ZM304.6,243.73c.68,1.33,5.43,9.73,17.81,9.73a21.79,21.79,0,0,0,18.67-9.76l-3.15-39.6H307.74Z"/><path class="cls-3_tv-presenter-13" d="M305.71,220.71c2.38,3.83,6.32,6.83,10.35,9.07,6.79,3.76,16.93,8,25.17,6.72l-1.36-17.12a77,77,0,0,1-18.17.12c-5.32-.46-10.8-1-15.68-3Z"/><path class="cls-3_tv-presenter-13" d="M338.09,237.43c-8.31,0-17.36-4.27-22.37-7s-8.45-5.85-10.61-9.31a.79.79,0,0,1-.1-.42l.32-4.25a.71.71,0,0,1,.33-.54.67.67,0,0,1,.63-.05c4.92,2.06,10.52,2.55,15.47,3a76.34,76.34,0,0,0,18-.12.67.67,0,0,1,.53.14.72.72,0,0,1,.26.49l1.35,17.13a.69.69,0,0,1-.59.74A21.68,21.68,0,0,1,338.09,237.43Zm-31.67-16.9c2,3.19,5.39,6.09,10,8.65,5.37,3,15.54,7.73,24.08,6.72l-1.24-15.73a79,79,0,0,1-17.6,0c-4.76-.42-10.11-.89-15-2.74Z"/><path class="cls-2_tv-presenter-13" d="M321.92,223.41h2.81a24.15,24.15,0,0,0,24.15-24.15V168.74c0-2.2.91-4.35-.79-6s-4.83-2-7.06-2.24a21.22,21.22,0,0,0-7.2.21,9.06,9.06,0,0,0-5.79,4c-1.5,2.6-.72,4.95-1.11,7.74s-3.35,6.55-6.49,5.41a6.62,6.62,0,0,0,2.22-4.21,5.87,5.87,0,0,0-1.72-4.56c-.67-.66-1.6-1.44-1.28-2.33a5.32,5.32,0,0,1,.67-1,2.18,2.18,0,0,0-.23-2.34,6.36,6.36,0,0,0-1.91-1.58c-2.54-1.59-6.81-1.73-9.81-1.87a13.6,13.6,0,0,0-7,1.06c-5.58,2.86-3.66,10.39-3.66,15.33v22.87A24.16,24.16,0,0,0,321.92,223.41Z"/><path class="cls-3_tv-presenter-13" d="M324.73,224.14h-2.81A24.91,24.91,0,0,1,297,199.26V176.39c0-.94-.07-2-.15-3.09-.32-4.62-.71-10.37,4.2-12.88a14.36,14.36,0,0,1,7.33-1.14l.4,0c3,.14,7.16.33,9.75,2a7,7,0,0,1,2.12,1.77,2.93,2.93,0,0,1,.26,3.15,3,3,0,0,1-.35.45,1.7,1.7,0,0,0-.27.38c-.13.37.46.94.93,1.39l.19.18a6.42,6.42,0,0,1,.44,8.75,3.44,3.44,0,0,0,1.35-.48,7,7,0,0,0,3-4.49,16.62,16.62,0,0,0,.12-2.61,10,10,0,0,1,1.08-5.39,9.77,9.77,0,0,1,6.25-4.35,21.89,21.89,0,0,1,7.45-.22c2.22.23,5.58.59,7.48,2.43,1.51,1.46,1.31,3.28,1.14,4.88a15.07,15.07,0,0,0-.12,1.64v30.52A24.91,24.91,0,0,1,324.73,224.14Zm-17.81-63.46a11.29,11.29,0,0,0-5.17,1c-4.07,2.08-3.72,7.08-3.42,11.5.08,1.13.16,2.2.16,3.19v22.87a23.46,23.46,0,0,0,23.43,23.43h2.81a23.46,23.46,0,0,0,23.43-23.43V168.74a17.32,17.32,0,0,1,.13-1.8c.18-1.68.25-2.76-.7-3.68-1.55-1.5-4.61-1.82-6.63-2a20.73,20.73,0,0,0-7,.19,8.33,8.33,0,0,0-5.33,3.67,8.48,8.48,0,0,0-.89,4.67,19.65,19.65,0,0,1-.14,2.81,8.36,8.36,0,0,1-3.66,5.53,4.28,4.28,0,0,1-3.78.45.69.69,0,0,1-.46-.52.73.73,0,0,1,.2-.67,5.77,5.77,0,0,0,2-3.75,5.11,5.11,0,0,0-1.5-4l-.17-.17c-.69-.66-1.73-1.67-1.28-2.92a2.63,2.63,0,0,1,.52-.82,2.21,2.21,0,0,0,.22-.29,1.48,1.48,0,0,0-.21-1.54,5.74,5.74,0,0,0-1.71-1.39c-2.26-1.42-6.19-1.61-9.05-1.74l-.4,0C307.89,160.7,307.41,160.68,306.92,160.68Z"/><path class="cls-3_tv-presenter-13" d="M323.82,202.1a28.53,28.53,0,0,1-3.47-.2,1.6,1.6,0,0,1-1.21-.81c-1.8-3,2.92-15.7,3.88-18.21a.73.73,0,0,1,.94-.41.71.71,0,0,1,.41.93c-2.13,5.56-5.11,15.09-4,16.95.06.11.11.11.15.12a32.18,32.18,0,0,0,6.83,0,.72.72,0,0,1,.17,1.43A33.22,33.22,0,0,1,323.82,202.1Z"/><path class="cls-3_tv-presenter-13" d="M325.42,216.35a11.7,11.7,0,0,1-2.08-.2c-9.91-1.79-12.92-8.61-13-8.9a.76.76,0,0,1,.05-.67.74.74,0,0,1,.58-.33l26.52-1.31a.76.76,0,0,1,.62.3.72.72,0,0,1,.09.68C338.12,206,334.09,216.35,325.42,216.35Zm-13.27-8.72c1.15,1.85,4.38,5.83,11.45,7.1,7.39,1.35,11.46-5.58,12.76-8.28Z"/><ellipse class="cls-3_tv-presenter-13" cx="312.86" cy="179.46" rx="1.87" ry="4.57"/><ellipse class="cls-3_tv-presenter-13" cx="335.62" cy="179.46" rx="1.87" ry="4.57"/><path class="cls-1_tv-presenter-13 targetColor" d="M244.05,252.59s-7.73,2.57-9.22,5S215.36,320.38,213.12,338s-3.22,38.89,3.51,42.62,63.2-2.74,76.53-6.48l-3.73-35.51-35.16,4.95S245.92,258.57,244.05,252.59Z" style="fill: rgb(104, 225, 253);"/><path class="cls-3_tv-presenter-13" d="M298.38,340.17h0l-61.06-2a.73.73,0,0,1-.7-.75.78.78,0,0,1,.74-.7l61.07,2a.72.72,0,0,1,.7.74A.74.74,0,0,1,298.38,340.17Z"/><path class="cls-3_tv-presenter-13" d="M243.6,381.63a.72.72,0,0,1-.1-1.43l50.17-6.91v-2.68a.73.73,0,0,1,.73-.73.73.73,0,0,1,.72.73v3.31a.72.72,0,0,1-.62.72l-50.8,7Z"/><path class="cls-3_tv-presenter-13" d="M255.32,339.17a.72.72,0,0,1-.72-.63l-9.26-72.24a.73.73,0,0,1,.63-.81.74.74,0,0,1,.81.63L256,338.36a.72.72,0,0,1-.63.81Z"/><polygon class="cls-3_tv-presenter-13" points="294.4 370.61 302.37 369.11 298.38 339.45 293.16 339.45 294.4 370.61"/><path class="cls-3_tv-presenter-13" d="M294.4,371.3a.69.69,0,0,1-.7-.67l-1.24-31.15a.72.72,0,0,1,.7-.73h5.22a.71.71,0,0,1,.7.61l4,29.66a.68.68,0,0,1-.56.77l-8,1.5Zm-.52-31.15,1.18,29.62,6.53-1.22-3.82-28.4Z"/><polygon class="cls-3_tv-presenter-13" points="326.21 378.36 317.58 377.47 324.99 290.18 336.83 291.41 326.21 378.36"/><path class="cls-3_tv-presenter-13" d="M326.21,379.06h-.07l-8.63-.89a.69.69,0,0,1-.62-.75l7.4-87.28a.73.73,0,0,1,.25-.48.72.72,0,0,1,.52-.16l11.84,1.23a.73.73,0,0,1,.48.25.7.7,0,0,1,.14.52L326.9,378.44A.69.69,0,0,1,326.21,379.06Zm-7.88-2.22,7.27.76L336.05,292,325.62,291Z"/><circle class="cls-3_tv-presenter-13" cx="331.64" cy="283.7" r="14.38"/><path class="cls-3_tv-presenter-13" d="M331.67,298.78c-.52,0-1.05,0-1.58-.08a15.09,15.09,0,1,1,11.06-3.3A14.93,14.93,0,0,1,331.67,298.78Zm0-28.76a13.68,13.68,0,0,0-1.4,27.29,13.68,13.68,0,1,0,1.4-27.29ZM346,285.18h0Z"/><rect class="cls-2_tv-presenter-13" x="310.25" y="294.96" width="38.03" height="23.48" transform="translate(33.31 -32.25) rotate(5.91)"/><path class="cls-3_tv-presenter-13" d="M347,321.05h-.07l-37.83-3.91a.72.72,0,0,1-.65-.79L310.84,293a.74.74,0,0,1,.79-.65l37.83,3.91a.78.78,0,0,1,.49.27.73.73,0,0,1,.16.53l-2.42,23.35A.73.73,0,0,1,347,321.05Zm-37-5.28,36.4,3.76,2.26-21.91-36.39-3.77Z"/><path class="cls-4_tv-presenter-13" d="M325.15,304l-1,9.2-2.8-.29.95-9.2-3.27-.34.25-2.39,9.35,1-.25,2.39Z"/><path class="cls-4_tv-presenter-13" d="M334.5,314.29l-2.8-.29L328.51,302l3.14.32,1.84,8.51h.06l3.52-7.94,3.1.32Z"/><path class="cls-2_tv-presenter-13" d="M298.38,339.45s8.73-7.73,11.72-9,24.92-3.74,26.42-1,4,6.23,0,8c0,0,2.24,2.74,0,6.72,0,0,3.24,4.24.25,7.73a5.81,5.81,0,0,1-1,6c-2.49,2.92-14,8.41-17.24,8.91s-16.16,2.24-16.16,2.24Z"/><path class="cls-3_tv-presenter-13" d="M302.37,369.83a.68.68,0,0,1-.43-.15.65.65,0,0,1-.28-.47l-4-29.66a.74.74,0,0,1,.24-.64c.36-.32,8.84-7.82,11.91-9.1,2.07-.86,25.39-4.23,27.33-.68l.44.79c1.06,1.87,2.26,4,1.63,5.86a3.63,3.63,0,0,1-1.68,2,6.8,6.8,0,0,1-.18,6.39c1.14,1.73,2.33,5.09.23,7.91a6.47,6.47,0,0,1-1.27,6.39c-2.56,3-14.29,8.62-17.68,9.15-3.17.49-16,2.23-16.17,2.25Zm-3.22-30.09L303,368.3c2.77-.38,12.71-1.72,15.43-2.15,3.15-.49,14.44-5.89,16.8-8.66a5.06,5.06,0,0,0,.9-5.27.74.74,0,0,1,.1-.78c2.57-3-.16-6.66-.28-6.82a.73.73,0,0,1-.05-.79c2-3.48.14-5.82.07-5.92a.75.75,0,0,1-.14-.63.72.72,0,0,1,.41-.49,2.65,2.65,0,0,0,1.62-1.47c.42-1.26-.61-3.08-1.51-4.69-.16-.27-.31-.54-.46-.81-1-1.8-21.48-.35-25.5,1.32C307.83,332.2,300.68,338.4,299.15,339.74Z"/><path class="cls-1_tv-presenter-13 targetColor" d="M400,254.18s8.35,24.38,11.84,36,12,100.59,12,100.59H382.38s1.5-112.59,5.48-122.71A26.64,26.64,0,0,1,400,254.18Z" style="fill: rgb(104, 225, 253);"/><path class="cls-3_tv-presenter-13" d="M382.38,391.49h-.09a.72.72,0,0,1-.63-.81c.13-1,12.95-100.28,12.46-121.33a.73.73,0,0,1,.71-.74.77.77,0,0,1,.73.71c.5,21.15-12.33,120.55-12.46,121.55A.73.73,0,0,1,382.38,391.49Z"/></g><path id="Frame_tv-presenter-13" class="cls-3_tv-presenter-13" d="M460.51,391.49h-421a.72.72,0,0,1-.72-.72V109.23a.72.72,0,0,1,.72-.72h421a.72.72,0,0,1,.72.72V390.77A.72.72,0,0,1,460.51,391.49ZM40.22,390H459.78V110H40.22Z"/><g id="Live_News_Graphics_tv-presenter-13" data-name="Live News Graphics"><polygon class="cls-4_tv-presenter-13" points="189.59 165.89 69.89 165.89 81.09 128.86 200.8 128.86 189.59 165.89"/><path class="cls-2_tv-presenter-13" d="M88.42,153.41l3.66-12.07H95l-2.89,9.53H96.8L96,153.41Z"/><path class="cls-2_tv-presenter-13" d="M97.39,153.41l3.66-12.07H104l-3.65,12.07Z"/><path class="cls-2_tv-presenter-13" d="M108.8,153.41h-2.91L105,141.34h3.27l.21,8.56h.07l5.37-8.56h3.22Z"/><path class="cls-2_tv-presenter-13" d="M114.45,153.41l3.65-12.07h8.12l-.74,2.45h-5.31l-.69,2.29h5l-.7,2.34h-5l-.76,2.5h5.62l-.76,2.49Z"/><path class="cls-2_tv-presenter-13" d="M136.74,153.41l-2.47-7.89h-.05l-2.33,7.89h-2.83l3.66-12.07H136l2.46,7.88h.05l2.32-7.88h2.83l-3.65,12.07Z"/><path class="cls-2_tv-presenter-13" d="M142.54,153.41l3.65-12.07h8.12l-.74,2.45h-5.31l-.69,2.29h5l-.71,2.34h-5l-.75,2.5h5.61l-.76,2.49Z"/><path class="cls-2_tv-presenter-13" d="M165.68,153.41H162.8l.08-8.17h0L158,153.41h-2.9l.23-12.07h3.14l-.52,8H158l4.58-8h3l-.26,8h.05l4.37-8h3Z"/><path class="cls-2_tv-presenter-13" d="M179.45,144.48a1.62,1.62,0,0,0-.75-.76,2.2,2.2,0,0,0-1.08-.28,3.2,3.2,0,0,0-.61.05,2.14,2.14,0,0,0-.59.19,2.1,2.1,0,0,0-.52.38,1.48,1.48,0,0,0-.34.59.82.82,0,0,0,0,.51.79.79,0,0,0,.26.36,2.65,2.65,0,0,0,.51.28l.68.26,1.15.45a3.4,3.4,0,0,1,1,.66,2.27,2.27,0,0,1,.6,1,2.79,2.79,0,0,1-.1,1.51,5.16,5.16,0,0,1-.93,1.79,5.6,5.6,0,0,1-1.41,1.26,6.17,6.17,0,0,1-1.71.73,6.94,6.94,0,0,1-1.79.24,6,6,0,0,1-2.37-.45,3.49,3.49,0,0,1-1.63-1.29l2.5-1.94a2.38,2.38,0,0,0,.9.91,2.56,2.56,0,0,0,1.33.37,3.69,3.69,0,0,0,.65-.07,2.25,2.25,0,0,0,.6-.22,1.76,1.76,0,0,0,.49-.41,1.74,1.74,0,0,0,.32-.62.89.89,0,0,0,0-.58,1,1,0,0,0-.36-.43,2.76,2.76,0,0,0-.67-.36l-1-.35a6.89,6.89,0,0,1-1-.44,2.43,2.43,0,0,1-.79-.66,2.07,2.07,0,0,1-.41-1,3.11,3.11,0,0,1,.16-1.39,4.47,4.47,0,0,1,.93-1.72,5.36,5.36,0,0,1,1.43-1.18,6.57,6.57,0,0,1,1.7-.68,7.75,7.75,0,0,1,1.76-.21,5.31,5.31,0,0,1,2,.38,3.65,3.65,0,0,1,1.54,1.1Z"/></g><g id="Earth_Graphics_tv-presenter-13" data-name="Earth Graphics"><path class="cls-4_tv-presenter-13" d="M123.71,189.12h7.84c2.23.28,4.48.49,6.7.87a67.65,67.65,0,0,1,55.22,54.62c.44,2.47.7,5,1,7.47v7.84c-.19,1.63-.36,3.26-.59,4.89a64.73,64.73,0,0,1-15.77,34.64c-15.14,17.06-34.17,25.05-57,23.07a63.42,63.42,0,0,1-39.31-18.08c-15.57-15-22.65-33.4-20.77-55a62.68,62.68,0,0,1,10.84-30.12c10.75-15.79,25.46-25.65,44.3-29.16C118.7,189.69,121.22,189.46,123.71,189.12Zm34.86,36.61a119.55,119.55,0,0,1,3.83,27.55h26.68a61,61,0,0,0-12.3-34.59ZM66.16,253.25h26.7a120.11,120.11,0,0,1,3.86-27.76c-3.14-1.06-6.21-2-9.19-3.14s-5.89-2.54-8.92-3.87A61.48,61.48,0,0,0,66.16,253.25Zm122.92,5.51H162.39a119.72,119.72,0,0,1-3.87,27.73c3.15,1.07,6.23,2,9.21,3.15s5.88,2.54,8.91,3.87A61.49,61.49,0,0,0,189.08,258.76Zm-122.93,0a61.27,61.27,0,0,0,12.32,34.59l18.18-7a121,121,0,0,1-3.81-27.55Zm58.77-5.46V229.58l-23.29-2.65a113.73,113.73,0,0,0-3.37,26.33Zm32.07,0a113.48,113.48,0,0,0-3.44-26.57c-4,.59-7.82,1.27-11.66,1.7s-7.69.63-11.51.92v23.95Zm-58.73,5.43a113.28,113.28,0,0,0,3.44,26.56c4-.6,7.8-1.28,11.63-1.71s7.69-.62,11.56-.92V258.72Zm32.08,0v23.68l23.28,2.63A114.16,114.16,0,0,0,157,258.74Zm-27.17-37.31a114.83,114.83,0,0,0,21.7,2.42V194.78a16.48,16.48,0,0,0-7.76,3.71C109.86,204.47,106.25,212.66,103.17,221.43Zm.14,69.2A57.09,57.09,0,0,0,112,308.17a24.36,24.36,0,0,0,9.49,8c1.08.48,2.23.78,3.45,1.19V288.25C121.22,287.84,106.86,289.43,103.31,290.63Zm27.07-95.83v29.07a117.4,117.4,0,0,0,21.93-2.5c-1.73-3.89-3.23-7.68-5.08-11.31-2.55-5-5.85-9.47-10.6-12.67A15,15,0,0,0,130.38,194.8Zm0,93.32v29.06c.42-.07.76-.1,1.08-.18a17.45,17.45,0,0,0,6.76-3.55c7.21-6,10.83-14.18,13.87-22.88A116.64,116.64,0,0,0,130.36,288.12Zm13.57-91.37c6.23,6.81,10.06,14.89,13,23.53a74.16,74.16,0,0,0,16-6.13A59.67,59.67,0,0,0,143.93,196.75Zm13,95c-3,8.72-6.87,16.76-13.06,23.55A59.67,59.67,0,0,0,173,297.83,74.9,74.9,0,0,0,157,291.72ZM82.32,214.2a74.73,74.73,0,0,0,16,6.07c3-8.67,6.85-16.73,13.3-23.61C101.53,198.86,89.57,205.84,82.32,214.2Zm29,101.07c-6.24-6.8-10.11-14.91-13.08-23.55a74.65,74.65,0,0,0-16,6.12A59.77,59.77,0,0,0,111.35,315.27Z"/></g></svg>