<?xml version="1.0"?><svg enable-background="new 0 0 24 24" id="Layer_1" version="1.1" viewBox="0 0 24 24" xml:space="preserve" xmlns="http://www.w3.org/2000/svg" xmlns:xlink="http://www.w3.org/1999/xlink"><g><path d="M12,0C5.3828125,0,0,5.3833008,0,12s5.3828125,12,12,12s12-5.3833008,12-12S18.6171875,0,12,0z" fill="#303C42"/><path d="M12,23C5.9345703,23,1,18.0654297,1,12S5.9345703,1,12,1s11,4.9345703,11,11S18.0654297,23,12,23z" fill="#FED600"/><path d="M18.9884033,3.5115967C20.5567017,5.413147,21.5,7.8484497,21.5,10.5   c0,6.0654297-4.9345703,11-11,11c-2.6515503,0-5.086853-0.9432983-6.9884033-2.5115967C5.5307617,21.4366455,8.5861206,23,12,23   c6.0654297,0,11-4.9345703,11-11C23,8.5861206,21.4366455,5.5307617,18.9884033,3.5115967z" fill="#010101" opacity="0.1"/><path d="M18.4394531,14.0209961c-0.2646484-0.0654297-0.5380859,0.1020508-0.6015625,0.3706055   C17.1933594,17.1049805,14.7929688,19,12,19c-2.796875,0-5.1982422-1.8979492-5.8398438-4.6147461   c-0.0625-0.269043-0.3261719-0.4316406-0.6015625-0.3720703c-0.2685547,0.0634766-0.4345703,0.3330078-0.3711038,0.6015625   C5.9355469,17.7856445,8.7373047,20,12,20c3.2587891,0,6.0585938-2.2109375,6.8105469-5.3769531   C18.8740234,14.3540039,18.7080078,14.0844727,18.4394531,14.0209961z" fill="#303C42"/><circle cx="16" cy="9" fill="#303C42" r="1"/><path d="M6.5,9.5h3C9.7763672,9.5,10,9.2763672,10,9S9.7763672,8.5,9.5,8.5h-3C6.2236328,8.5,6,8.7236328,6,9   S6.2236328,9.5,6.5,9.5z" fill="#303C42"/><linearGradient gradientUnits="userSpaceOnUse" id="SVGID_1_" x1="1.1248534" x2="22.8751469" y1="6.9288359" y2="17.0711651"><stop offset="0" style="stop-color:#FFFFFF;stop-opacity:0.2"/><stop offset="1" style="stop-color:#FFFFFF;stop-opacity:0"/></linearGradient><path d="M12,0C5.3828125,0,0,5.3833008,0,12s5.3828125,12,12,12s12-5.3833008,12-12S18.6171875,0,12,0z" fill="url(#SVGID_1_)"/></g><g/><g/><g/><g/><g/><g/><g/><g/><g/><g/><g/><g/><g/><g/><g/></svg>