<?xml version="1.0"?><svg id="Layer_1" style="enable-background:new 0 0 76.29985 81.002052;" version="1.1" viewBox="0 0 76.29985 81.002052" xml:space="preserve" xmlns="http://www.w3.org/2000/svg" xmlns:xlink="http://www.w3.org/1999/xlink"><style type="text/css">
	.st0{opacity:0.5;fill:#231F20;enable-background:new    ;}
	.st1{fill:#FFFFFF;}
	.st2{fill:#22093A;stroke:#22093A;stroke-linecap:round;stroke-linejoin:round;}
	.st3{fill:#FCC707;stroke:#22093A;stroke-linecap:round;stroke-linejoin:round;}
	.st4{fill:none;stroke:#22093A;stroke-linecap:round;stroke-linejoin:round;}
	.st5{fill:#FD32B0;stroke:#22093A;stroke-linecap:round;stroke-linejoin:round;}
	.st6{fill:none;stroke:#FFFFFF;stroke-linecap:round;stroke-linejoin:round;}
	.st7{fill:#9736FF;stroke:#22093A;stroke-linecap:round;stroke-linejoin:round;}
	.st8{fill:none;stroke:#D9BBFF;stroke-linecap:round;stroke-linejoin:round;}
</style><g id="Layer_2_00000080180990768764634210000015267283339781200810_"><g id="Layer_1-2"><path class="st0" d="M72.593002,54.24131c-0.668045-0.421448-1.40081-0.730251-2.168999-0.91407    c-0.098747-0.025631-0.189453-0.0299-0.28656-0.051079c0.392967-1.328171,0.684959-2.684147,0.873482-4.056339    c0.926758-6.744629,0.760742-11.617672-2.764648-16.088383c-0.266602-1.196289-0.827148-3.721189-1.6875-7.672359    l6.787109-7.554199c1.291847-1.43923,1.172371-3.653207-0.266861-4.945055    c-0.213066-0.191253-0.448792-0.355652-0.701889-0.489515L75.850769,6.297c0.947487-1.685356,0.349335-3.8197-1.336029-4.76719    c-0.715439-0.402216-1.549461-0.540269-2.356354-0.39004L61.677921,2.964c-0.955738,0.165707-1.799862,0.720573-2.331001,1.53223    C58.248089,2.963096,56.701241,1.808066,54.919128,1.19c-0.829975-0.352794-1.72216-0.535916-2.624001-0.53858    C49.852139,0.583696,47.50827,1.618475,45.9123,3.46933c-2.56543,2.99512-3.279301,7.99219-2.178719,15.272461    c-2.126205-0.72451-4.411556-0.845858-6.602531-0.35058c-0.867935,0.195354-1.722008,0.447859-2.556641,0.755859    c-2.713871-5.168-6.345711-10.4336-10.32032-11.70654c-0.816841-0.351487-1.695768-0.535939-2.584999-0.54249    c-2.640648-0.019237-5.087063,1.384954-6.40234,3.674809c-1.037257,1.875924-1.542556,3.999485-1.46137,6.141541    c-1.377379-0.901158-3.199673-0.702974-4.35113,0.473209L2.80487,23.84922c-0.172861,0.173986-0.325519,0.366938-0.45507,0.57519    l-0.169,0.168949c-0.920019,0.922314-1.251852,2.279184-0.86133,3.521999l3.22168,10.247999    c0.494068,1.571751,2.017523,2.586025,3.65821,2.435539l2.73437,6.397949c0.236033,0.546356,0.608165,1.023094,1.08087,1.384708    c-0.977858-0.423115-2.059512-0.545647-3.10724-0.352001c-2.787477,0.485123-5.063013,2.500874-5.88086,5.209469    c-1.46582,4.404789,0.13965,10.125999,2.67578,13.817379c-0.45312,2.241211-0.76855,5.69532,0.56836,8.111328    c0.551782,1.026329,1.422393,1.84536,2.48047,2.333504c1.21778,0.962402,3.47364,1.909668,6.873,0.18457    c1.271779-0.672142,2.391414-1.599129,3.28906-2.723152c0.32753,0.244339,0.67625,0.4589,1.042,0.641121    c0.647158,0.503571,1.381838,0.883163,2.167,1.119629c2.442444,0.780289,5.018736,1.052475,7.570311,0.799797    c0.515432,0.345909,1.092684,0.589279,1.70019,0.716797c1.920746,0.417618,3.923286-0.149483,5.339851-1.512207    c0.504837,0.602409,1.140457,1.081711,1.858479,1.401413c1.056572,0.836609,2.394096,1.235489,3.73632,1.11425    c0.576843-0.047722,1.146496-0.160095,1.69825-0.334999c0.226097,0.151291,0.462318,0.286865,0.707001,0.405769    c1.052681,0.823616,2.348026,1.276283,3.68457,1.28759c1.503147,0.047691,2.938927-0.624306,3.865231-1.809082    c0.388721,0.317871,0.817928,0.582718,1.276371,0.787598c1.024769,0.776215,2.271187,1.203835,3.556641,1.220207    c0.044922,0.000999,0.087891,0.001472,0.130859,0.001472c1.502506,0.027878,2.925522-0.673439,3.818661-1.881996    c2.925125,1.807571,6.761734,0.901619,8.569305-2.023506c0.139412-0.225601,0.264259-0.459877,0.373795-0.701393    c0.572845-1.249939,0.714424-2.654716,0.402527-3.993828c1.958138-1.512062,3.391785-3.601074,4.09845-5.972    C75.442574,63.830662,77.892761,57.006001,72.593002,54.24131z"/><path class="st1" d="M71.43457,53.58984c-0.66803-0.42144-1.40078-0.73024-2.168953-0.914059    c-0.098747-0.025631-0.189453-0.029911-0.28656-0.05109c0.39296-1.328167,0.684944-2.684143,0.873466-4.056332    c0.926758-6.744629,0.76075-11.61768-2.764641-16.088379c-0.266609-1.196289-0.827148-3.721189-1.6875-7.672359l6.787109-7.554199    c1.291847-1.43923,1.172371-3.653207-0.266861-4.945055c-0.213066-0.191253-0.448792-0.355652-0.701889-0.489515l3.473633-6.17334    c0.947487-1.685356,0.349335-3.8197-1.336021-4.76719C72.640907,0.476107,71.806885,0.338053,71,0.48828L60.519531,2.3125    c-0.955757,0.165693-1.799908,0.720561-2.331059,1.53223c-1.098831-1.533093-2.645657-2.688097-4.427734-3.30616    C52.930752,0.185783,52.038559,0.002664,51.136711,0c-2.442978-0.067727-4.786839,0.967036-6.382812,2.81787    c-2.56543,2.99512-3.279301,7.992189-2.178711,15.27246c-2.126209-0.72451-4.41156-0.845858-6.602539-0.35058    c-0.867935,0.195354-1.722008,0.447859-2.556641,0.755859c-2.713871-5.168-6.345699-10.4336-10.320309-11.70655    c-0.816845-0.351478-1.69577-0.535926-2.584999-0.54248c-2.64065-0.019236-5.087068,1.384955-6.402349,3.67481    c-1.037253,1.875925-1.542544,3.999486-1.46135,6.14154c-1.377381-0.901159-3.199676-0.702979-4.35114,0.4732L1.64648,23.19775    c-0.172862,0.17399-0.325523,0.366947-0.45508,0.575199l-0.16894,0.16894c-0.920019,0.922314-1.251852,2.279184-0.86133,3.521999    l3.22168,10.247999c0.49405,1.571758,2.0175,2.586048,3.65819,2.435574l2.73438,6.397949    c0.23603,0.546356,0.608161,1.023094,1.08087,1.384701c-0.97786-0.423103-2.059512-0.545639-3.10724-0.352001    c-2.787477,0.485134-5.063008,2.500893-5.88085,5.209492C0.40234,57.192383,2.00781,62.913601,4.54394,66.60498    c-0.45312,2.241211-0.76855,5.695312,0.56836,8.111328c0.551785,1.026321,1.422396,1.845345,2.48047,2.333488    c1.21777,0.96241,3.47363,1.909668,6.87305,0.184578c1.271777-0.672142,2.391411-1.599136,3.289061-2.723152    c0.32753,0.244331,0.676252,0.458893,1.042,0.641113c0.647156,0.503578,1.381836,0.883163,2.167,1.119629    c2.44244,0.780304,5.018734,1.05249,7.570311,0.799812c0.515436,0.345909,1.09269,0.589279,1.700199,0.716789    c1.920738,0.417633,3.923283-0.149475,5.33984-1.512199c0.504822,0.602386,1.140411,1.081665,1.858398,1.40136    c1.056568,0.836617,2.394089,1.235504,3.736313,1.114273c0.576839-0.047722,1.146488-0.160095,1.698238-0.334999    c0.226097,0.151283,0.462318,0.286858,0.707001,0.405762c1.052681,0.823616,2.348026,1.276283,3.68457,1.287598    c1.503147,0.047699,2.938931-0.62429,3.86525-1.809052c0.388725,0.317863,0.817932,0.58271,1.276371,0.787598    c1.024765,0.776215,2.271179,1.203835,3.556629,1.220215c0.044922,0.000999,0.087891,0.001472,0.130859,0.001472    c1.502506,0.027878,2.925522-0.673447,3.818661-1.881996c2.925163,1.807518,6.761761,0.901497,8.569286-2.023674    c0.139374-0.225548,0.264198-0.459778,0.373711-0.701248c0.572845-1.249939,0.714432-2.654716,0.402527-3.993828    c1.958145-1.512062,3.391785-3.601074,4.09845-5.972C74.284172,63.179199,76.734367,56.354488,71.43457,53.58984z"/><polygon class="st2" points="4.124,25.671 10.774,19.009001 11.961,31.900999 14.964,28.733 12.994,45.169998 9.162,34.001999     7.346,35.918999   "/><path class="st2" d="M63.857189,34.068321c0,0-0.997681-4.414791-3.043999-13.90283    C58.779369,10.7358,55.578381,3.7239,51.767529,3.7239c-5.597538,0-6.232552,6.770081-5.07074,14.265501    c1.1618,7.495489,1.770439,8.462591,1.770439,8.462591s-4.552059-6.549259-11.09375-5.0744    c-1.911739,0.392122-3.723507,1.169746-5.324699,2.2854c0,0-6.072029-13.692872-10.907778-13.692872    s-5.74823,7.45514-2.296999,13.86255c3.451239,6.40733,4.956669,8.019329,4.956669,8.019329s-6.81665,17.147223-0.031,26.622931    c5.95484,8.31543,15.509642,9.883659,24.697569,8.31543c9.411674-1.657455,16.662941-9.224541,17.9179-18.698288    C67.322701,41.271568,66.920174,37.55294,63.857189,34.068321z"/><path class="st3" d="M63.22691,33.844639c3.063,3.484581,3.465488,7.203209,2.527927,14.02372    c-1.254959,9.473736-8.506229,17.040806-17.9179,18.698246c-9.18795,1.568253-18.74275,0-24.69754-8.315449    c-6.785669-9.475712,0.031-26.62291,0.031-26.62291s-1.50543-1.611919-4.956659-8.01931S15.675,9.74642,20.51071,9.74642    s10.90777,13.692869,10.90777,13.692869c1.601208-1.115639,3.412979-1.893255,5.324718-2.285379    c6.54166-1.474899,11.093739,5.074409,11.093739,5.074409s-0.608639-0.967159-1.770451-8.462591    s-0.526779-14.26551,5.070721-14.2655c3.810879,0,7.01186,7.011849,9.045662,16.441589    C62.22924,29.42985,63.22691,33.844639,63.22691,33.844639z"/><path class="st3" d="M31.41848,23.439289c-3.4354,2.719999-4.679171,7.071461-2.807859,12.3908    c2.73431,7.772511,6.593542,8.13744,8.132582,7.202499c1.477001-0.897259,3.881569-5.681999,2.35955-12.573"/><path class="st3" d="M63.22691,33.844631c-4.513668-2.297001-10.470779-1.329819-15.389999,0    c-1.717781,0.464371-6.036819,2.58374-6.036781,5.404598c0.000111,7.006001,11.73761,7.011719,11.73761,7.011719    c-6.770069,0.966301-8.214649,8.251331-8.214649,8.251331"/><path class="st4" d="M47.836941,26.228319c0.771332,0.910572,1.387566,1.941866,1.824001,3.052549"/><polygon class="st5" points="3.5,26.414 10.15,19.752001 11.337,32.645 14.34,29.476 12.994,45.169998 8.538,34.745998     6.722,36.661999   "/><polygon class="st2" points="61.834999,5.761 71.640999,3.929 64.835999,16.025999 69.584,14.914 57.848999,27.976     61.098999,16.135 57.616001,16.688   "/><polygon class="st5" points="61.118,5.761 71.023003,4.045 64.117996,16.025999 68.690002,15.11 57.848999,27.976 60.382,16.135     57.616001,16.688   "/><line class="st6" x1="5.89109" x2="6.59762" y1="27.401131" y2="29.96442"/><path class="st6" d="M61.906651,10.35227c-0.56921,1.918859-0.961811,3.321-0.961811,3.321"/><path class="st6" d="M62.712002,7.69227c-0.16946,0.5475-0.089001,0.28494-0.24464,0.80137"/><path class="st6" d="M61.372181,19.996059l-0.119362,0.9114"/><line class="st6" x1="11.61028" x2="11.89509" y1="37.772739" y2="38.96442"/><path class="st6" d="M19.20615,14.09488c-0.98827,1.28726-1.04524,4.81891,1.80287,9.603721"/><path class="st6" d="M22.787121,43.117828c-0.381166,2.856506-0.172087,5.760845,0.6143,8.533302"/><path class="st6" d="M23.401421,39.467541c-0.118479,0.522301-0.222582,1.03651-0.312309,1.542629"/><path class="st6" d="M30.125271,33.850788c0.11359,0.495331,0.265162,0.981178,0.453369,1.453232"/><path class="st6" d="M32.987999,24.78087c-1.782761,1.310129-3.2575,2.84811-3.260639,5.696211"/><path class="st6" d="M47.836941,8.84028c-0.442871,2.330248-0.442871,4.723062,0,7.053309"/><path class="st2" d="M57.456718,56.713001c-2.137669-0.202251-3.60685,2.191952-4.29063,7.770191    c-0.61055-0.097092-1.271358-0.164452-1.964581-0.215691c0.499329-4.863831-0.017391-7.523849-2.442482-7.753181    c-2.328941-0.22036-3.867149,2.629719-4.4575,9.33448c-0.59034,6.704689-0.04895,10.735504,3.033699,10.802628    c1.508919,0.032883,2.346321-2.630089,2.991699-6.260002c0.343281,0.021759,0.702,0.03289,1.090511,0.02327    c0.493271-0.012238,0.945648-0.046898,1.374432-0.095467c0.016392,4.106552,0.884911,6.479599,3.241001,6.530922    c2.026859,0.044159,2.842571-4.77227,3.607872-10.26825C60.505539,60.372101,60.213379,56.973671,57.456718,56.713001z"/><path class="st2" d="M40.880081,75.303833c2.21405-0.183601,3.750099-1.938202,4.09082-4.403297    c0.368549-2.66655,1.681499-15.499672-5.00209-16.350899c-3.478802-0.443062-6.431,3.117001-8.22888,7.41346    c-1.950529,4.661407-3.493191,11.825478-0.778419,12.401741c4.360998,0.92569,7.308752-11.541481,7.308752-11.541481    S36.566441,75.66156,40.880081,75.303833z"/><path class="st2" d="M33.125568,56.33279c-0.84832-1.845711-8.93087-2.82616-11.4289,1.53746    c-1.629999,2.847321-4.813271,13.526844,0.27107,15.048679s9.63616,0.733841,9.905891-2.100998    c0.269733-2.834839-6.3923-3.462082-6.3923-3.462082s5.754129,0.125893,6.23344-2.794586    c0.479313-2.920479-5.606911-2.377899-5.606911-2.377899S35.40163,61.284889,33.125568,56.33279z"/><path class="st2" d="M19.560101,52.901001c-4.443101-0.294331-5.7171,9.99017-5.7171,9.99017S13.6602,50.93409,9.43625,51.685081    c-5.53264,0.983662-3.846,10.663811-0.00176,14.772087c-0.6118,1.551399-2.31431,10.578003,3.44872,7.655533    c3.135079-1.589844,7.24673-9.381233,8.01846-11.279198C22.41926,59.101631,24.032431,53.197269,19.560101,52.901001z"/><path class="st2" d="M68.819138,56.318851c-1.525002-0.39608-2.959663,0.310131-5.455479,6.538231    c-2.22834,5.560642-0.031841,6.3904,0.552368,6.542133s3.935589,1.33712,6.140408-4.803871    S71.07872,56.905708,68.819138,56.318851z"/><circle class="st2" cx="63.153332" cy="73.143517" r="2.76171"/><path class="st7" d="M56.383339,56.051998c-2.137661-0.202251-3.606838,2.19194-4.29063,7.770191    c-0.61055-0.097099-1.271351-0.164452-1.964581-0.215698c0.499329-4.863819-0.017391-7.523842-2.442471-7.75317    c-2.328949-0.22036-3.867161,2.629719-4.4575,9.334469s-0.049,10.735512,3.033691,10.802628    c1.508919,0.032883,2.346321-2.630081,2.991699-6.260002c0.343288,0.021759,0.702,0.032883,1.090519,0.023262    c0.493259-0.01223,0.945648-0.04689,1.37442-0.095467c0.016392,4.106552,0.884911,6.479607,3.241001,6.530922    c2.026871,0.044167,2.842579-4.772263,3.60788-10.268242C59.432159,59.711109,59.139999,56.312691,56.383339,56.051998z"/><path class="st7" d="M38.895409,53.888641c-3.47876-0.443001-6.431,3.116951-8.22888,7.41346    c-1.9505,4.661369-3.49316,11.8255-0.778379,12.401726c2.024839,0.42981,3.744259-2.02832,5.006161-4.784607l2.041199,0.539429    c0.20557,2.819893,0.924999,5.345581,2.87122,5.184212c2.21405-0.183662,3.750061-1.93824,4.09082-4.40332    C44.266079,67.572998,45.578999,54.739841,38.895409,53.888641z M37.196857,62.162331c0,0-0.260738,1.973999-0.319328,4.35083    L35.93618,66.33268C36.744999,64.068001,37.196861,62.162331,37.196857,62.162331z"/><path class="st7" d="M32.052189,55.67181c-0.84831-1.845711-8.93087-2.82616-11.42889,1.53746    c-1.629999,2.847321-4.813271,13.526844,0.27107,15.048672s9.63615,0.733849,9.90588-2.100998s-6.3923-3.462067-6.3923-3.462067    s5.754141,0.125877,6.23344-2.79459s-5.606911-2.377899-5.606911-2.377899S34.328251,60.623909,32.052189,55.67181z"/><path class="st7" d="M18.486719,52.240002c-4.44308-0.294338-5.717131,9.990162-5.717131,9.990162    s-0.18277-11.957069-4.40671-11.206089c-5.53264,0.983662-3.84606,10.663822-0.00177,14.772099    c-0.6118,1.551399-2.3143,10.578003,3.44872,7.655518c3.13509-1.589828,7.246739-9.381218,8.01847-11.279198    C21.345881,58.440639,22.959049,52.536289,18.486719,52.240002z"/><path class="st7" d="M68.386002,56.063721c-1.525002-0.39608-3.599899-0.095718-6.095711,6.132381    c-2.228352,5.560642-0.031849,6.390392,0.552361,6.542133s3.935593,1.337112,6.140411-4.803871    S70.645576,56.650581,68.386002,56.063721z"/><circle class="st7" cx="62.079948" cy="72.482536" r="2.761711"/><path class="st8" d="M8.23053,52.977081c-1.06329,0.455688-2.16455,2.240501-1.17721,6.379742"/><path class="st8" d="M9.54383,71.608566c0.16772,0.874001,1.80063,0.317871,3.015821-1.163139"/><path class="st8" d="M28.664209,56.097c0.99506,0.046871,1.812941,0.377151,1.68774,1.474998"/><path class="st8" d="M25.96471,56.318851c0.36973-0.11845,0.752131-0.192913,1.13929-0.221851"/><path class="st8" d="M39.008999,55.841461c-0.98735-0.206161-2.791142-0.206161-4.632919,2.983719"/><path class="st8" d="M47.477371,57.571999c0.588612,0.09494,1.215191,0.79747,1.082279,3.683548"/><path class="st8" d="M56.34446,57.76189c0.60759,0.094929,1.15823,0.60759,0.949371,2.44936"/><path class="st8" d="M63.110569,65.430161c-0.097466,0.40905-0.156887,0.826241-0.177502,1.246239"/><path class="st8" d="M67.872147,57.66679c-0.664558-0.056999-1.760246-0.18272-3.341766,3.512661    c-0.354118,0.827419-0.62973,1.55814-0.844231,2.194359"/><path class="st8" d="M61.887001,71.29023c-0.652393,0.14093-1.067017,0.78405-0.926086,1.43644    c0.037933,0.175606,0.11454,0.340538,0.224247,0.482803"/><path class="st3" d="M62.391129,47.386082c-0.422619,2.563797-1.230255,5.049004-2.39555,7.371449"/><path class="st3" d="M62.855911,43.397148c-0.013264,0.702644-0.067589,1.403915-0.162701,2.10022"/></g></g></svg>