<?xml version="1.0"?><svg id="Layer_1" style="enable-background:new 0 0 84.387016 47.881779;" version="1.1" viewBox="0 0 84.387016 47.881779" xml:space="preserve" xmlns="http://www.w3.org/2000/svg" xmlns:xlink="http://www.w3.org/1999/xlink"><style type="text/css">
	.st0{opacity:0.5;fill:#231F20;enable-background:new    ;}
	.st1{fill:#FFFFFF;}
	.st2{fill:#22093A;stroke:#22093A;stroke-linecap:round;stroke-linejoin:round;}
	.st3{fill:#35CCAD;stroke:#22093A;stroke-linecap:round;stroke-linejoin:round;}
	.st4{fill:none;stroke:#FFFFFF;stroke-linecap:round;stroke-linejoin:round;}
</style><g id="Layer_2_00000085224496276609749590000013177756015534014388_"><g id="Layer_1-2"><path class="st0" d="M82.828072,8.23188c-0.38736-0.534599-0.851318-1.009253-1.376953-1.40869    c-1.419502-1.772117-3.52594-2.85658-5.792999-2.98242c-2.682213-0.385917-5.385056,0.552523-7.250999,2.51758    c-0.055656-0.05713-0.113281-0.11328-0.170891-0.16944c-0.165001-0.15966-0.338867-0.31152-0.517578-0.45947    c-0.25827-0.320298-0.535805-0.624571-0.831062-0.91113c-2.612297-2.5293-6.382809-3.72315-11.271481-3.56543    c-2.654545,0.083152-5.22673,0.941338-7.39941,2.46875c-2.471039-1.758015-5.422535-2.714411-8.455029-2.739751    c-3.518589-0.224099-7.005482,0.783401-9.86231,2.84961c-1.7069-0.954745-3.687618-1.30099-5.617189-0.98193    c-2.26269,0.30322-4.873001,1.53857-6.71484,5.101561c-0.263666-0.27686-0.531897-0.53272-0.804689-0.76758    c-0.813818-1.00865-1.813259-1.852126-2.94433-2.48486c-1.831887-1.017819-4.025661-1.153137-5.96875-0.36817    C4.272408,5.69992,1.793523,8.994484,1.4687,12.811c-0.7168,5.842761,2.66894,13.908669,7.88867,18.83543    c0.094733,0.104494,0.190763,0.208826,0.28809,0.313c-0.05469,3.127932,0.31738,9.659178,4.07421,12.668951    c0.55625,0.745899,1.250031,1.378521,2.04395,1.86377c2.67676,1.604488,6.01465,1.14209,9.29883-1.452641    c1.422569-1.205547,2.618706-2.655167,3.532219-4.280758c0.801407,0.503815,1.68437,0.864334,2.609381,1.06543    c4.486231,1.078857,9.175734,0.974205,13.609369-0.303711c0.71381,0.600113,1.490467,1.121212,2.31641,1.554199    c4.764301,2.496597,10.348515,2.913441,15.430672,1.15184c0.137691,0.126472,0.280262,0.248707,0.427731,0.366699    c2.92094,3.72633,8.30962,4.379227,12.035946,1.458286c3.28817-2.577484,4.239471-7.149933,2.252144-10.824986    c-0.03125-0.057621-0.0625-0.11475-0.094727-0.171391c2.397461-1.821289,4.697258-5.202141,5.944328-11.348629    C84.638618,16.2519,85.074173,11.33,82.828072,8.23188z"/><path class="st1" d="M81.454872,7.26237c-0.38736-0.534599-0.851318-1.009253-1.376953-1.40869    c-1.419495-1.772122-3.52594-2.856586-5.792999-2.98242c-2.682213-0.385922-5.385056,0.552518-7.250999,2.51758    c-0.055672-0.05713-0.113289-0.11329-0.170898-0.16944c-0.165001-0.15967-0.338867-0.31152-0.517578-0.45947    c-0.258263-0.320301-0.535805-0.624574-0.831062-0.91113C62.902142,1.3195,59.13163,0.12565,54.243,0.28337    c-2.654545,0.083153-5.226727,0.94134-7.39941,2.46875c-2.471066-1.758032-5.422596-2.71443-8.45512-2.73975    c-3.518593-0.224093-7.005484,0.783414-9.86231,2.84963C26.819271,1.907254,24.838564,1.561001,22.909,1.88005    c-2.262699,0.30322-4.873001,1.53857-6.714849,5.101561c-0.263673-0.27686-0.531903-0.53272-0.80469-0.76758    c-0.813816-1.008652-1.813257-1.852128-2.94433-2.48486C10.613239,2.711339,8.419454,2.57602,6.47636,3.361    C2.899213,4.730406,0.42033,8.024961,0.0955,11.84147c-0.7168,5.84278,2.66894,13.90869,7.88867,18.835449    c0.094733,0.104494,0.190763,0.208826,0.28809,0.313c-0.05469,3.12793,0.31738,9.65918,4.07422,12.668941    c0.556243,0.745899,1.250021,1.378521,2.04394,1.86377c2.67676,1.6045,6.01465,1.14209,9.29883-1.452629    c1.422569-1.205551,2.618711-2.65517,3.53223-4.280762c0.801403,0.503815,1.684362,0.864334,2.609369,1.06543    c4.486233,1.078854,9.175739,0.974197,13.609379-0.303719c0.713802,0.600117,1.490456,1.12122,2.316399,1.554199    C50.520924,44.601757,56.105141,45.0186,61.187302,43.257c0.137691,0.126457,0.280262,0.248692,0.427731,0.366699    c2.92094,3.72633,8.30962,4.379227,12.035946,1.458286c3.28817-2.577484,4.239471-7.149933,2.252144-10.824986    c-0.03125-0.057621-0.0625-0.11475-0.094727-0.171391c2.397461-1.821289,4.697273-5.20215,5.944344-11.348629    C83.265419,15.28239,83.700996,10.36051,81.454872,7.26237z"/><path class="st2" d="M47.06908,8.888C45.40443,4.67374,33.292461,3.282,29.99,10.2005    c-2.154921,4.51443-7.206659,25.009048,0.69681,26.745411s16.55006,0.035782,16.124203-5.891479    c-0.31115-4.330681-10.112591-4.537861-10.112591-4.537861s9.183491,0.401609,9.580521-4.093349    s-9.215458-3.842449-9.215458-3.842449S50.122002,16.61669,47.06908,8.888z"/><path class="st2" d="M24.78521,7.21257c-6.729229,0.901-5.529621,16.656111-5.529621,16.656111S15.374,6.05345,9.28771,8.45056    c-7.97193,3.1398-2.52991,17.09824,4.455379,22.0781c-0.44617,2.503269-0.26653,16.50774,7.4646,10.400749    c4.20574-3.322208,7.999451-16.20764,8.58005-19.27714C30.929609,15.61684,31.55871,6.30567,24.78521,7.21257z"/><path class="st2" d="M66.25425,13.648c0.003326-3.80178-2.225998-8.28142-10.53088-7.99947    c-8.176678,0.2776-13.642319,11.114491-5.43005,15.866091c7.604248,4.39982,5.098572,9.5056,1.798771,6.57914    c-6.347401-5.629259-13.110828,5.914701-4.47242,10.471411s18.414112-0.466572,19.71146-6.040501    c2.457497-10.55834-5.61319-12.56588-9.322891-14.366951C58.00824,18.157761,66.249184,19.450569,66.25425,13.648z"/><path class="st2" d="M75.162643,8.2115c-2.594818-0.30247-5.945648,0.76641-8.720787,12.400999    c-2.477745,10.387812,1.315147,11.280821,2.309143,11.39669c0.993996,0.115871,6.763832,1.33617,9.078659-10.069199    S79.007332,8.65966,75.162643,8.2115z"/><circle class="st2" cx="68.352821" cy="38.332569" r="4.57897"/><path class="st3" d="M45.7216,7.51841c-1.664661-4.21422-13.7766-5.60599-17.07913,1.31253    c-2.154921,4.514441-7.206659,25.009048,0.69681,26.745411s16.55006,0.035789,16.124199-5.891479    c-0.31115-4.330681-10.112579-4.537872-10.112579-4.537872s9.183479,0.401609,9.580509-4.09334S35.716,17.21121,35.716,17.21121    S48.774509,15.24714,45.7216,7.51841z"/><path class="st3" d="M23.437719,5.843c-6.729231,0.901-5.529619,16.65612-5.529619,16.65612S14.02646,4.6839,7.94022,7.081    C-0.03171,10.2208,5.41031,24.179251,12.3956,29.1591c-0.44617,2.503269-0.26653,16.507748,7.464601,10.400761    c4.20574-3.322208,7.999451-16.20764,8.58005-19.27714C29.582121,14.24728,30.21122,4.93611,23.437719,5.843z"/><path class="st3" d="M64.906761,12.27848c0.003326-3.80178-2.226002-8.28142-10.53088-7.99947    c-8.176678,0.2776-13.642319,11.114491-5.43005,15.8661c7.604248,4.399809,5.098572,9.50559,1.798779,6.57914    c-6.347408-5.62925-13.11084,5.91469-4.472431,10.471411s18.414108-0.466579,19.711464-6.04051    c2.457497-10.55834-5.61319-12.56588-9.322891-14.366949C56.660751,16.7882,64.901688,18.080999,64.906761,12.27848z"/><path class="st3" d="M73.815147,6.84194c-2.594818-0.30247-5.945648,0.76642-8.720787,12.400999    c-2.477741,10.38777,1.315102,11.280769,2.309151,11.39665s6.763817,1.336161,9.078651-10.06921    S77.659843,7.29011,73.815147,6.84194z"/><circle class="st3" cx="67.005333" cy="36.96302" r="4.578972"/><path class="st4" d="M8.79857,10.12254c-1.481-0.038-4.38607,3.208859,0.4557,11.923999"/><path class="st4" d="M16.573299,38.034328c1.31012,1.035,3.84553-2.612591,4.41515-4.025719"/><path class="st4" d="M35.256481,6.641c-1.583015,0.24629-3.037216,1.017771-4.128792,2.1904"/><path class="st4" d="M38.418831,6.26811c-0.480999,0.01963-0.967091,0.0528-1.450089,0.10387"/><path class="st4" d="M27.596001,29.96431c0,1.369551,2.677219,3.41935,6.43671,3.59024"/><path class="st4" d="M52.20364,7.151c-3.417721,0.58521-6.835449,6.522201-3.531651,9.826001"/><path class="st4" d="M67.005333,34.236462c-1.643463-0.227852-3.40929,2.38522-2.327003,4.386082"/><path class="st4" d="M72.823891,8.8314c-1.851578,0-6.089577,7.765659-6.38282,15.43671"/><path class="st4" d="M60.121361,34.681259c-1.545498,0.992226-3.347023,1.511742-5.18354,1.494801"/></g></g></svg>